<?xml version="1.0" encoding="utf-8"?>
<svg version="1.1" id="Layer_1" data-color-numbers="3" xmlns="http://www.w3.org/2000/svg" xmlns:xlink="http://www.w3.org/1999/xlink" x="0px" y="0px"
	 viewBox="0 0 283.5 255.1" style="enable-background:new 0 0 283.5 255.1;" xml:space="preserve">
<style type="text/css">
  <![CDATA[
  @font-face {
        font-family: "DevroyeUnicode";
        src: url("http://aspreview/AlpStoriesPraga/Content/fonts/DEVROYUN.ttf") format("truetype");
  }
	.st0{fill:#B4F9ED;}
	.st1{fill:#8DC63F;}
	.st2{fill:#3C2415;}
	.rpl3-1{fill:#608C1B;}
  .rpl3-2{fill:#89006f;}
  .rpl3-3{fill:#af0015;}
	.st4{fill:#AF0015;}
	.st5{fill:#930000;}
	.st6{fill:#C90000;}
	.st7{fill:#6D0018;}
	.st8{fill:#9E0000;}
	.st9{fill:#9B001A;}
	.st10{fill:#BC0020;}
	.st11{fill:#870017;}
	.rpl12-1{fill:#590082;}
  .rpl12-2{fill:#89006f;}
  .rpl12-3{fill:#e23500;}
	.rpl13-1{fill:#7F3F98;}
  .rpl13-2{fill:#ed00b0;}
  .rpl13-3{fill:#e59200;}
	.st15{fill:#662D91;}
	.st16{fill:#C38CF4;}
	.st17{fill:#129FFF;}
	.st18{fill:#FFB717;}
	.st19{fill:#FFDD99;}
	.st20{fill:#EF4136;}
	.st21{fill:#FFB0AE;}
	.st22{fill:#FFFFFF;}
	.st24{font-family:'DevroyeUnicode';}
	.st25{font-size:8.64px;}
	.st26{font-size:9.36px;}
	.st27{font-size:10px;}
  .rpl28-1{fill:#AF0015;}
  .rpl28-2{fill:#ffe600;}
  .rpl28-3{fill:#c731ff;}
  .st29{fill:#FFFFFF;}
  .st30{text-anchor: middle;}
  .editable{text-anchor: middle;}
  .svgProduct{text-anchor: middle;}
  .svgRibbon{visibility:hidden; opacity:0.6;fill:#FFFFFF;}
 ]]>
</style>
<image style="overflow:visible;" id="editableImg" width="1600" height="1200" xlink:href="http://aspreview/AlpStoriesPraga/Content/img/little-kitty.jpg"  transform="matrix(0.1082 0 0 0.1082 53.5881 48.8135)">
</image>
<path id="sky_background" class="st0" d="M0,0.2v232.9h283.5V0.2H0z M197.5,144.5l-19.2,4.3l-4.1,19.2l-18.8-5.9l-13.2,14.6
	L129,162.2l-18.7,6l-4.3-19.2L86.8,145l5.9-18.8L78.1,113l14.5-13.3l-6-18.7l19.2-4.3l4.1-19.2l18.8,5.9l13.2-14.6l13.3,14.5l18.7-6
	l4.3,19.2l19.2,4.1l-5.9,18.8l14.6,13.2l-14.5,13.3L197.5,144.5z"/>
<g id="forest_background">
	<path class="st1" d="M88.4,80.6l17.3-3.9l1-4.6c-0.5-0.8-0.9-1.6-1.4-2.4c0.6,0,1.3,0,1.9-0.1l1.5-7c-3.2-6.4-6-13.3-8.3-20.5
		c-5.7,8.6-10.8,18-15,28.1c2.3-0.1,4.7-0.1,7-0.2C91,73.5,89.7,77,88.4,80.6z"/>
	<path class="st1" d="M122.9,57.6c-1.3,0.8-2.5,1.8-3.5,2.9l9.2,2.9l13.2-14.6l13.3,14.5l7.8-2.5c-1.1-2.1-2.7-3.9-4.7-5
		c1.2-2.7,1.6-5.7,0.9-8.8c-1.7-7.5-9.1-12.1-16.6-10.4c-0.3,0.1-0.5,0.1-0.8,0.2c-0.1,0-0.3,0-0.4,0.1c-0.8,0.2-1.5,0.5-2.1,0.8
		c0-0.1,0-0.2-0.1-0.3c-0.6-2.8-2.7-4.9-5.2-5.7c0-0.4,0-0.8-0.1-1.2c-0.6-2.7-3.3-4.3-5.9-3.7c-2.7,0.6-4.3,3.3-3.7,5.9
		c0.2,0.7,0.5,1.3,0.9,1.9c-1.3,1.8-1.8,4-1.3,6.3c0,0.1,0.1,0.2,0.1,0.3c-3.8,1.9-6,6.3-5,10.6C119.4,54.3,120.9,56.3,122.9,57.6z"
		/>
	<path class="st1" d="M92.6,99.7l-1.3-4.1c-0.6,2.2-1.1,4.4-1.5,6.7L92.6,99.7z"/>
	<path class="st1" d="M283.5,84.4c-6.1-9.1-12.7-17.5-19.6-25.4c3.5-1,6.9-2,10.4-3c-10.9-12.8-22.8-24.1-35.3-33.9
		c0.1,15.9-1.4,31.2-4.3,45.6c3.5-1,6.9-2,10.4-3c-1.2,6.7-2.7,13.2-4.5,19.5c0-0.4,0-0.8,0-1.3c-0.3-6.3-4.2-11.6-9.7-13.9
		c0-0.6,0.1-1.2,0-1.8c-0.2-5.1-2.9-9.6-6.9-12.3c0-0.4,0-0.8,0-1.2c-0.3-6.9-5.7-12.4-12.4-13.1c-1.2-6.4-7-11.1-13.8-10.8
		c-7.4,0.3-13.1,6.6-12.8,14c0,0.4,0.1,0.9,0.1,1.3c-5.4,2.7-9.1,8.4-8.8,14.8c0.1,2.2,0.7,4.3,1.6,6.2c-0.7,0.4-1.3,0.9-1.8,1.4
		l2,9l19.2,4.1l-5.9,18.8l2.4,2.2c2.2,0.3,4.5,0.6,5.8,1c-0.1,1.2-0.3,2.4-0.7,3.6l7.1,6.4l-14.5,13.3l6,18.7l-19.2,4.3l-4.1,19.2
		l-18.8-5.9l-13.2,14.6L129,162.2l-18.7,6l-4.3-19.2L86.8,145l5.9-18.8l-11.8-10.7c-7.2,1.9-14.1,4-20.7,6.3c-0.6-2.1-1-4.2-1-6.4
		c1-0.7,6.1-2.5,7-3.4c1.5,0.6,3.1,0.9,4.8,1c3.2,0.2,6.3-0.4,9-1.8l7.3-6.7c1.4-2.3,2.3-5,2.5-7.8c0-0.7,0-1.4,0-2
		c0.4-0.1,0.7-0.1,1.1-0.2l-3.5-10.8c-0.2,0.6-0.4,1.3-0.6,1.9c-1.5-2.2-3.4-4-5.6-5.3c0.1-0.6,0.2-1.2,0.3-1.8
		c0.3-4.5-1.6-8.7-4.8-11.4c0.3-0.8,0.5-1.7,0.6-2.6c0.2-3.2-1-6.1-3.2-8.2c-0.1-3-1.7-5.6-4.1-7c0.6-1.1,1-2.3,1.1-3.6
		c0.3-4.4-3-8.3-7.5-8.6c-4.4-0.3-8.3,3-8.6,7.5c-0.1,1,0,1.9,0.3,2.8c-3.3,0.2-6.1,2.8-6.3,6.2c0,0.1,0,0.3,0,0.4
		c-4.5,0.9-8,4.7-8.3,9.5c0,0.5,0,1,0,1.4c-3.3,1.6-5.8,4.9-6,8.9c-0.1,1.4,0.1,2.8,0.5,4.1c-4.7-0.1-8.9,1.8-12,4.9
		c-1.9-11.1-2.9-22.8-2.8-34.8C13.2,53.4,6.5,59.4,0,66v88.1c0.1,0,0.3,0,0.4,0c-0.1,0.1-0.3,0.2-0.4,0.4v82h283.5v-92v-39.6
		c-2.1-3.7-4.3-7.3-6.6-10.9c2.2-0.3,4.4-0.6,6.6-1V84.4z M49.2,125.9c-9.3,3.7-18,7.9-26,12.5c-3.8-7.5-7.2-15.5-10.1-23.8
		c3.4,0.5,6.9,1,10.3,1.5c-3.6-9.8-6.5-20.2-8.5-31.1c1.8,0.5,3.5,1,5.3,1.5c-1.1,2-1.7,4.2-1.9,6.6c-0.7,9.1,6.2,17,15.3,17.7
		c2.4,0.2,4.7-0.2,6.8-1c1.8,2.8,7.3,3.7,10.5,4.9C50.6,118.4,49.9,122.1,49.2,125.9z M240.4,115.2c-9.8-2.5-20.1-4.6-30.6-6.1
		c0.3-2.6,0.5-5.3,0.6-7.9c0.2-0.2,0.4-0.4,0.7-0.5c1.1,0.2,2.3,0.3,3.5,0.2c2.5-0.1,4.9-0.8,7-1.9c1.2,0.2,2.5,0.4,3.8,0.3
		c5.5-0.2,10.2-3.2,12.8-7.6c-0.9,2.8-1.9,5.6-2.9,8.4c3.9-0.6,7.9-1.1,11.8-1.7C245,104.1,242.8,109.8,240.4,115.2z"/>
</g>
<path id="threads" class="st2" d="M208.2,113.4c-0.4,7,0.5,10.6,1.4,14.2c0.9,3.7,1.8,7.5,0.5,14.7c-1.3,7.2-3.6,10.5-5.7,13.6
	c-1.9,2.7-3.8,5.5-5.7,10.8c0.1,2.6-0.2,5.6-1.3,9.7c-1.2,7-0.2,10.8,0.7,14.4c1,3.7,2,7.4,1.6,14.5c0,0.3,0,0.6,0,0.9l-0.7,0.1
	c0-0.3,0-0.7,0-1c0.3-7-0.7-10.6-1.6-14.2c-0.9-3.6-1.9-7.5-0.7-14.7c0,0,0,0,0,0c0,0,0,0,0,0c0,0,0,0,0-0.1c0,0,0,0,0,0
	c0.8-3,1.1-5.4,1.2-7.4c-2.1,6.7-2.1,10.4-2.2,14.2c-0.1,3.8-0.1,7.8-3.2,14.4c-0.2-0.1-0.4-0.2-0.6-0.3c3-6.5,3.1-10.5,3.1-14.2
	c0-3.8,0.1-7.6,2.2-14.4c0.2-0.7,0.4-1.3,0.6-1.9c-0.1-1.8-0.3-3.3-0.5-4.8c-0.6-3.7-1.2-7.5-0.2-14.5c1-7,2.6-10.5,4.2-13.9
	c1.5-3.4,3.1-6.9,3.3-14c0.1-7.1-1.4-10.7-2.9-14.1c-1.5-3.5-3.1-7-3.8-14c-0.8-7-0.1-10.8,0.6-14.5c0.7-3.6,1.3-7.5-0.3-14.5
	c0.2-0.1,0.4-0.1,0.6-0.2c1.7,7.1,1,11.1,0.4,14.8c-0.7,3.7-1.4,7.4-0.6,14.3c0.8,6.9,2.3,10.4,3.8,13.8c1.5,3.5,3,7.1,3,14.4
	c-0.1,7.3-1.8,10.9-3.3,14.3c-1.6,3.4-3.2,6.8-4.1,13.7c-1,6.9-0.4,10.6,0.2,14.3c0.2,1.1,0.3,2.2,0.4,3.4c1.7-4.5,3.5-7,5.2-9.5
	c2.1-3.1,4.3-6.3,5.6-13.3c1.3-7,0.4-10.8-0.5-14.4c-0.9-3.7-1.8-7.4-1.4-14.4c0.4-7.1,1.7-10.7,3-14.2c1.3-3.5,2.6-7.2,2.1-14.4
	c0.2,0,0.4,0,0.7,0c0.5,7.3-0.9,11.1-2.1,14.6C209.9,102.9,208.6,106.4,208.2,113.4z M92.9,185.6c0.4,2.1,1.1,4.5,2.4,7.4
	c-0.2,0.1-0.4,0.2-0.6,0.3c-0.7-1.7-1.3-3.2-1.7-4.5c0,0.2,0,0.4,0,0.6c0,1,0,2.1,0.1,3.2l-0.7,0c-0.1-1.1-0.1-2.2-0.1-3.2
	c0-1.2,0-2.3-0.1-3.6c-0.3-1.5-0.4-2.9-0.5-4.2c-0.3-1.8-0.8-3.9-1.6-6.4c-0.5-1.5-0.9-2.7-1.4-3.9c-0.1,0.5-0.3,1-0.4,1.5
	c-1,3.6-2,7.2-1.8,14.2c0.2,7,1.4,10.6,2.6,14.1c1.2,3.6,2.4,7.4,1.7,14.7c-0.2,0-0.4,0-0.7-0.1c0.7-7.2-0.5-10.9-1.7-14.4
	c-1.2-3.6-2.5-7.2-2.7-14.3c-0.2-7.1,0.8-10.8,1.8-14.4c0.2-0.8,0.4-1.6,0.6-2.4c-1.5-3.5-3-5.7-4.5-7.9c-2.1-3.1-4.3-6.4-5.7-13.7
	c0.2,0,0.4-0.1,0.7-0.1c1.3,7.1,3.5,10.3,5.6,13.4c1.4,2,2.8,4.1,4.2,7.2c0.4-1.9,0.6-4.2,0.4-7c-1.7-5.1-3.5-7.8-5.3-10.5
	c-2.1-3.1-4.2-6.5-5.4-13.7c-0.3-1.7-0.4-3.3-0.5-4.6c-0.2-0.6-0.3-1.1-0.5-1.7c-2-6.8-1.9-10.6-1.8-14.4c0-3.7,0.1-7.6-2.8-14.2
	c0.2-0.1,0.4-0.2,0.6-0.3c2.9,6.8,2.9,10.7,2.8,14.5c-0.1,3.6-0.1,7.3,1.7,13.8c0.1-3.1,0.7-5.4,1.3-7.7c1-3.6,2-7.2,1.7-14.2
	c-0.2-7-1.5-10.6-2.7-14.1c-1.2-3.6-2.5-7.4-1.8-14.7c0.2,0,0.4,0,0.7,0.1c-0.6,7.2,0.6,10.9,1.8,14.4c1.2,3.6,2.5,7.2,2.8,14.3
	c0.3,7.1-0.7,10.8-1.7,14.4c-0.7,2.7-1.4,5.5-1.3,9.8c1.8,5.5,3.6,8.4,5.5,11.2c2,3.2,4.2,6.5,5.3,13.7c0.2,1.4,0.3,2.7,0.4,3.9
	c0.3,0.8,0.5,1.6,0.8,2.4c2,6.8,2,10.6,1.9,14.4c0,0.9,0,1.8,0,2.7C92.7,183,92.8,184.4,92.9,185.6z M88.8,159.6
	c-0.1-0.4-0.1-0.9-0.2-1.4c-1.1-7-3.2-10.3-5.2-13.4c-1.6-2.4-3.2-4.9-4.7-8.9c0.1,0.6,0.2,1.3,0.3,2c1.2,7,3.3,10.3,5.3,13.4
	C85.8,153.5,87.3,155.9,88.8,159.6z M90.8,175c0.4,1.2,0.7,2.2,0.9,3.3c0-3.6,0-7.3-1.9-13.6c0-0.1,0-0.1-0.1-0.2
	c0,2.3-0.3,4.1-0.7,5.8C89.6,171.5,90.2,173.1,90.8,175z"/>
<path id="Frame" class="rpl3-1" d="M207.7,113l-15.1-13.6l6.1-19.4l-19.9-4.3l-4.4-19.9L155,62.1l-13.8-15l-13.6,15.1l-19.4-6.1
	L103.9,76L84,80.4l6.3,19.4l-15,13.8l15.1,13.6l-6.1,19.4l19.9,4.3l4.4,19.9l19.4-6.3l13.8,15l13.6-15.1l19.4,6.1l4.3-19.9l19.9-4.4
	l-6.3-19.4L207.7,113z M197.5,144.5l-19.2,4.3l-4.1,19.2l-18.8-5.9l-13.2,14.6L129,162.2l-18.7,6l-4.3-19.2L86.8,145l5.9-18.8
	L78.1,113l14.5-13.3l-6-18.7l19.2-4.3l4.1-19.2l18.8,5.9l13.2-14.6l13.3,14.5l18.7-6l4.3,19.2l19.2,4.1l-5.9,18.8l14.6,13.2
	l-14.5,13.3L197.5,144.5z"/>
<g id="bows">
	<g>
		<path class="st4" d="M219.1,175c-0.6-1.1-1.6-1.6-1.4-2.8c0.5-3,7.1-4.7,4-10.2c-3.1-5.4-15.4,6.7-21.5,5
			c-0.2,0.2-0.3,0.4-0.5,0.5c-0.1-0.4-0.1-0.8-0.2-1.2c-6.1-1.9-9.9-18.7-15.4-15.8c-5.5,2.9-0.9,8-2.1,10.7c-0.5,1.1-1.6,1-2.7,1.6
			c-1.5,0.8-2.8,3.1-0.6,5.6c3.4,4,16.4,3.2,19.5,2.6c0.1,0.1,0.1,0.2,0.2,0.3c1.2,1.4,12.9,10.3,18.2,8.7
			C219.7,179.1,219.9,176.5,219.1,175z"/>
		<path class="st4" d="M196,170.2c-0.3-0.5-0.7-1-1.2-1.3c-0.2-0.1-0.1-0.7-0.1-0.8c0-0.7,0-1.3,0-2c0-0.2,0.4-2.8,0.5-2.8
			c1.6,1.1,2.2,3.1,2.3,5c0.1,1.8,0,3.8-0.4,5.5c-0.2,0.7-0.4,1.2-0.9,1.7C197.3,172.9,196,170.2,196,170.2z"/>
		<path class="st4" d="M185.3,172.6c0.1,0,0.1-0.1,0.2-0.1c1.5-0.9,3.7-0.9,5.4-1c1.7-0.2,3.7-0.3,5.1-1.3c0,0,1.3,2.7,0.1,5.2
			c-0.1,0.1-0.3,0.3-0.5,0.4c-1.8,1.2-4.2,1.2-6.2,1.4c-0.9,0.1-1.8,0.2-2.7,0.4c0,0-0.1,0-0.1,0C184,174.4,184.7,173.1,185.3,172.6
			z"/>
		<path class="st5" d="M185.9,172.3L185.9,172.3c-0.2,0.1-0.3,0.1-0.4,0.2c-0.1,0-0.1,0.1-0.2,0.1c0,0,0,0,0,0
			c-0.2,0.5-0.2,1.1-0.3,1.7c0,0.1,0,0.1,0,0.2c0.1,0.3,0.2,0.7,0.5,1.2c0,0.1,0.1,0.1,0.1,0.2c0,0.1,0.1,0.1,0.1,0.2
			c0,0.1,0.1,0.2,0.2,0.2c0,0.1,0.1,0.1,0.1,0.2c0.1,0.1,0.1,0.2,0.2,0.3c0,0.1,0.1,0.1,0.1,0.2c0.1,0.2,0.3,0.3,0.4,0.5
			c0,0,0.1,0,0.1,0c0,0,0.1,0,0.1,0C186.3,176.9,185.5,175,185.9,172.3z"/>
		<path class="st5" d="M195.6,171.8c0,0,0.8,1.6,0.6,3.5c1.1-2.4-0.2-5.1-0.2-5.1c-0.4,0.3-0.8,0.5-1.2,0.6
			C195.1,171.1,195.3,171.4,195.6,171.8z"/>
		<path class="st4" d="M187.8,192c-1.4,4.2-5.7,7.3-10.1,7.4c-0.3,0-0.2-5.6,0.4-5.6c3.7-0.1,7.3-2.2,9.2-5.5
			c0.2-0.3,0.4-0.7,0.6-1.1C188.3,188.8,188.1,190.7,187.8,192z"/>
		<path class="st5" d="M187.8,187.3c-0.2,0.4-0.3,0.8-0.6,1.1c0,0,0,0,0,0c0.2,0.5,0.4,1,0.5,1.5c0,0.1,0,0.1,0,0.2
			c0.1,0.3,0.2,0.7,0.2,1.1C188.2,189.9,188.2,188.4,187.8,187.3z"/>
		<path class="st4" d="M185.3,172.6c-0.5,0.5,0,3.1,1.3,5c0.8,1.2,1,2.1,1.4,3.1c1.1,3.3,0.9,7.2,0.1,10.5c-0.1,0.3-0.1,0.5-0.2,0.8
			c0.3-1.3,0.5-3.3,0-4.8c0-0.1,0-0.1,0-0.2c-0.2-0.6-0.4-1.2-0.6-1.8c-0.4-1-0.9-2-1.5-3c-0.4-0.8-1-1.4-1.4-2.2
			c-0.6-1.3-0.3-3.1-0.1-4.4C184.3,174.5,184.3,173.3,185.3,172.6z"/>
		<path class="st4" d="M200.8,173.3c0.5-0.2,1.1-0.4,1.6-0.4c0.2,0,0.5-0.5,0.5-0.6c0.4-0.5,0.7-1,1-1.5c0.1-0.1,1.2-2.4,1.1-2.3
			c-1.8,0-3.3,1.2-4.4,2.5c-1,1.3-2,2.8-2.6,4.4c-0.2,0.6-0.3,1.2-0.2,1.7C198.4,174.7,200.8,173.3,200.8,173.3z"/>
		<path class="st4" d="M207.7,180.8c0-0.1,0-0.1-0.1-0.2c-0.6-1.4-2.4-2.6-3.6-3.6c-1.2-1-2.6-2.2-3.2-3.7c0,0-2.4,1.4-2.8,3.9
			c0,0.2,0.1,0.4,0.2,0.6c0.7,1.8,2.5,3.1,4,4.3c0.6,0.5,1.3,1.1,1.9,1.7c0,0,0,0,0.1,0.1C207.7,182.8,207.8,181.4,207.7,180.8z"/>
		<path class="st5" d="M201.4,174.4c-0.2-0.3-0.4-0.7-0.6-1.1c0,0-2.4,1.3-2.8,3.8c0.5-0.8,1.2-1.6,2.2-2.1
			C200.6,174.7,201,174.6,201.4,174.4z"/>
		<path class="st4" d="M195.5,194.1c-1.2,3.9,0.5,8.5,3.8,10.9c0.2,0.1,3.1-4.1,2.7-4.4c-2.8-2-4.4-5.5-4.1-9c0-0.4,0.1-0.8,0.2-1.1
			C196.9,191.4,196,193,195.5,194.1z"/>
		<path class="st4" d="M207.7,180.8c0.2,0.6-1.6,2.3-3.6,3.1c-1.3,0.5-1.8,1-2.7,1.7c-2.6,1.9-4.4,5-5.6,7.9
			c-0.1,0.2-0.2,0.5-0.2,0.7c0.5-1.2,1.4-2.7,2.5-3.6c0,0,0.1-0.1,0.1-0.1c0.4-0.4,0.9-0.7,1.4-1c0.9-0.6,1.8-1.1,2.7-1.5
			c0.7-0.3,1.5-0.5,2.2-0.9c1.1-0.7,1.8-2.2,2.4-3.3C207.4,182.7,208,181.8,207.7,180.8z"/>
		<path class="st5" d="M197.9,191.6c0-0.4,0.1-0.8,0.2-1.1c-1.2,0.9-2,2.4-2.5,3.6c0,0,0,0,0,0c0.4-0.5,0.8-1,1.2-1.3
			c0,0,0.1-0.1,0.1-0.1c0.3-0.3,0.6-0.5,1-0.8C197.9,191.8,197.9,191.7,197.9,191.6z"/>
		<path class="st5" d="M204.7,183.6c0.2-0.1,0.3-0.1,0.5-0.2c0,0,0.1,0,0.1,0c0.1-0.1,0.3-0.1,0.4-0.2c0,0,0,0,0.1,0
			c0.1-0.1,0.2-0.1,0.3-0.2c0,0,0,0,0.1,0c0.1-0.1,0.2-0.1,0.3-0.2c0,0,0.1,0,0.1-0.1c0.1-0.1,0.2-0.1,0.2-0.2c0,0,0.1,0,0.1-0.1
			c0,0,0.1-0.1,0.1-0.1c0,0,0.1-0.1,0.1-0.1c0,0,0.1-0.1,0.1-0.1c0.1-0.1,0.1-0.1,0.1-0.2c0,0,0,0,0,0c0,0,0.1-0.1,0.1-0.1
			c0.1-0.2,0.2-0.4,0.2-0.5c0-0.2,0-0.4,0-0.6c0-0.1,0-0.1-0.1-0.2c0-0.1-0.1-0.2-0.1-0.2c-0.3,1.7-2.7,3-3.5,3.5c0,0,0,0,0,0
			C204.2,183.8,204.4,183.7,204.7,183.6C204.6,183.7,204.7,183.6,204.7,183.6z"/>
		<g>
			<path class="st6" d="M216.1,172.7c1.4-4.4,4.5-8.7,4.5-8.7s-0.6-1.5-4.3-0.6c-3.5,0.9-6.8,10.8-5.7,15.8c2.2,0.9,4.4,1.3,5.9,0.9
				c0,0,0,0,0,0C215.9,178.3,215.2,175.4,216.1,172.7z"/>
			<path class="st6" d="M188,154.6c-2.6-2.7-3.9-1.8-3.9-1.8s0.3,5.4-0.9,9.8c-0.8,2.8-2.9,4.8-4.4,5.9c0,0,0,0,0,0
				c1.1,1.2,3.1,2,5.4,2.5C187.9,167.3,190.4,157.2,188,154.6z"/>
		</g>
		<g>
			<path class="st7" d="M221.3,162.8c-2.6-5.1-13.9,6.2-21.8,4.9c3.5,2.3,9.2-0.1,12.9-1.4C217.1,164.8,223.6,167.4,221.3,162.8z"/>
			<path class="st7" d="M184,151.4c-4.3,2.6,2.5,3.9,5.5,7.8c2.4,3.1,6,8.2,10.1,8.1C192.4,164.1,189,148.5,184,151.4z"/>
		</g>
		<path class="st8" d="M209.7,171.8c0.2-1.1-5.1-1.3-7.1-1.3c1.9,0,6.9-0.1,6.2-1.2c-0.7-1-5.6,0.2-8.9,0c0-0.1,0-0.2,0-0.2
			c-3-0.9-7.5-6-8.9-5.4c-1.2,0.5,2.9,3.3,4.5,4.3c-1.7-1.1-6.2-3.7-6.7-2.7c-0.6,1.2,7.9,3.8,7.9,3.8s-8.4-1.5-8.4-0.1
			c0,0.8,2.9,1,5.3,1c-2.1,0.1-4.6,0.3-4.4,0.9c0.3,0.7,5.6,0.1,8.9-0.3c2.4,2,7.5,6.3,8.1,5.8c0.5-0.4-1.4-1.9-3.2-3.2
			c2,1.3,4.5,2.7,4.9,2c0.8-1.1-7.1-4.5-7.1-4.5S209.5,173.1,209.7,171.8z"/>
		<path class="st9" d="M201.8,170.2c-1.1,3.9-2.4,2.5-3.9,1.9c-1.6-0.6-3.4,0.3-1.7-3.9c1.6-4,2.3-2.3,3.8-1.8
			C201.6,167,202.9,166.5,201.8,170.2z"/>
		<path class="st4" d="M198.5,168.7c1.2,0.4,2.3,0.8,3.4,1.3c1-3.6-0.3-3.1-1.8-3.6c-1.5-0.6-2.2-2.2-3.8,1.7
			C197,168.3,197.7,168.5,198.5,168.7z"/>
		<path class="st10" d="M197,168.3c-0.5,1.1-0.7,2.7-0.8,3.4c-0.8-0.3-1.1-0.9,0-3.6c1-2.5,1.6-2.8,2.3-2.5
			C198.3,166.2,197.7,166.8,197,168.3z M201.7,167c-0.2,0.5-0.1,1.2-0.5,2.7c-0.7,2.3-1.2,2.7-1.4,3.2c0.8,0.1,1.5-0.3,2.1-2.6
			C202.5,168,202.3,167.3,201.7,167z"/>
		<g>
			<path class="st11" d="M201.9,170.1C201.9,170.1,201.9,170.1,201.9,170.1c0.1-0.5,0.2-0.8,0.3-1.1c0,0,0,0,0,0c0-0.1,0-0.1,0-0.2
				c0,0,0,0,0,0c0-0.1,0-0.1,0-0.2c0,0,0,0,0,0c0-0.1,0-0.1,0-0.2c0,0,0,0,0,0c0-0.2,0-0.3,0-0.5c0,0,0,0,0,0c0,0,0-0.1,0-0.1
				c0,0,0,0,0,0c0,0,0-0.1,0-0.1c0,0,0,0,0,0c0,0,0-0.1,0-0.1c0,0,0,0,0,0c0-0.1-0.1-0.2-0.2-0.2c0,0,0,0,0,0c0,0,0,0-0.1-0.1
				c0,0,0,0,0,0c0,0,0,0-0.1,0c0,0,0,0,0,0c0,0,0,0,0,0c-0.2,0.5-0.1,1.2-0.5,2.7c0,0,0,0,0,0.1C201.4,169.8,201.6,170,201.9,170.1z
				"/>
			<path class="st11" d="M198.5,165.7c0,0-0.1,0-0.1,0c0,0,0,0,0,0c0,0-0.1,0-0.1,0c0,0,0,0,0,0c-0.1,0-0.2,0-0.2,0c0,0,0,0,0,0
				c0,0-0.1,0-0.1,0c0,0,0,0,0,0c0,0-0.1,0-0.1,0c0,0,0,0,0,0c0,0-0.1,0-0.1,0.1c0,0,0,0,0,0c0,0-0.1,0.1-0.1,0.1c0,0,0,0,0,0
				c0,0-0.1,0.1-0.1,0.1c0,0,0,0,0,0.1c0,0-0.1,0.1-0.1,0.1c0,0,0,0-0.1,0.1c0,0-0.1,0.1-0.1,0.1c0,0,0,0,0,0.1
				c0,0.1-0.1,0.1-0.1,0.2c0,0,0,0.1,0,0.1c0,0.1-0.1,0.1-0.1,0.2c0,0,0,0.1-0.1,0.1c0,0.1-0.1,0.1-0.1,0.2c0,0,0,0.1-0.1,0.1
				c0,0.1-0.1,0.1-0.1,0.2c0,0,0,0.1-0.1,0.1c-0.1,0.1-0.1,0.2-0.2,0.4c0.3,0,0.5,0.1,0.8,0.2c0,0,0,0,0,0
				C197.7,166.8,198.3,166.2,198.5,165.7C198.5,165.7,198.5,165.7,198.5,165.7z"/>
		</g>
	</g>
	<g>
		<path class="st4" d="M107.9,165.2c-1.1-0.5-2.2-0.4-2.7-1.6c-1.2-2.8,3.3-7.9-2.3-10.7c-5.6-2.8-9.1,14.1-15.1,16.1
			c0,0.2-0.1,0.5-0.1,0.7c-0.2-0.3-0.5-0.6-0.8-0.9c-6.1,1.8-18.6-10.1-21.6-4.6c-3,5.5,3.7,7.1,4.2,10.1c0.2,1.2-0.8,1.8-1.4,2.8
			c-0.8,1.5-0.6,4.1,2.6,5c5,1.4,15.4-6.5,17.7-8.7c0.1,0,0.2,0.1,0.3,0.1c1.8,0.5,16.4,1.4,19.9-2.9
			C110.7,168.2,109.4,166,107.9,165.2z"/>
		<path class="st4" d="M86,174c-0.6-0.3-1.2-0.4-1.8-0.4c-0.2,0-0.5-0.5-0.6-0.6c-0.4-0.5-0.7-1.1-1.1-1.7c-0.1-0.1-1.3-2.6-1.2-2.6
			c1.9,0.1,3.6,1.3,4.7,2.8c1.1,1.4,2.1,3.1,2.7,4.8c0.2,0.7,0.3,1.3,0.2,1.9C88.7,175.6,86,174,86,174z"/>
		<path class="st4" d="M78.5,182c0-0.1,0.1-0.1,0.1-0.2c0.7-1.6,2.6-2.8,3.9-3.8c1.3-1.1,2.9-2.3,3.5-3.9c0,0,2.6,1.5,3,4.2
			c0,0.2-0.1,0.4-0.2,0.6c-0.8,2-2.8,3.3-4.4,4.6c-0.7,0.6-1.4,1.2-2.1,1.8c0,0,0,0-0.1,0.1C78.4,184.2,78.3,182.7,78.5,182z"/>
		<path class="st5" d="M78.8,181.4C78.8,181.4,78.8,181.4,78.8,181.4c-0.1,0.1-0.2,0.3-0.2,0.4c0,0.1-0.1,0.1-0.1,0.2c0,0,0,0,0,0
			c0.1,0.5,0.4,1.1,0.7,1.6c0,0.1,0.1,0.1,0.1,0.2c0.3,0.2,0.6,0.5,1.1,0.7c0.1,0,0.1,0.1,0.2,0.1c0.1,0,0.2,0.1,0.2,0.1
			c0.1,0,0.2,0.1,0.3,0.1c0.1,0,0.1,0.1,0.2,0.1c0.1,0,0.2,0.1,0.4,0.1c0.1,0,0.1,0.1,0.2,0.1c0.2,0.1,0.4,0.1,0.6,0.2
			c0,0,0,0,0.1-0.1c0,0,0.1-0.1,0.1-0.1C81.7,185,80,183.9,78.8,181.4z"/>
		<path class="st5" d="M86.6,175.6c0,0,1.5,0.9,2.4,2.5c-0.4-2.6-3-4.1-3-4.1c-0.2,0.4-0.4,0.8-0.7,1.2
			C85.8,175.3,86.2,175.4,86.6,175.6z"/>
		<path class="st4" d="M91.4,196.7c1.2,4.3-0.7,9.2-4.3,11.8c-0.2,0.2-3.3-4.5-2.8-4.9c3-2.2,4.9-5.9,4.6-9.7c0-0.4-0.1-0.8-0.2-1.2
			C90,193.7,90.9,195.5,91.4,196.7z"/>
		<path class="st5" d="M88.7,192.8c0.1,0.4,0.1,0.8,0.2,1.2c0,0,0,0,0,0c0.4,0.3,0.8,0.6,1.2,1c0,0,0.1,0.1,0.2,0.1
			c0.3,0.2,0.5,0.5,0.8,0.8C90.5,194.8,89.7,193.5,88.7,192.8z"/>
		<path class="st4" d="M78.5,182c-0.2,0.7,1.7,2.6,3.9,3.4c1.4,0.6,2,1.2,2.9,1.8c2.7,2.1,4.7,5.5,5.9,8.7c0.1,0.3,0.2,0.5,0.2,0.8
			c-0.5-1.3-1.5-3-2.7-4c-0.1,0-0.1-0.1-0.2-0.1c-0.5-0.4-1-0.8-1.5-1.2c-0.9-0.6-1.9-1.2-2.9-1.7c-0.8-0.4-1.6-0.6-2.4-1.1
			c-1.2-0.7-2-2.5-2.6-3.6C78.7,184.1,78.1,183.1,78.5,182z"/>
		<path class="st4" d="M91.8,174c0.3-0.5,0.7-0.9,1.2-1.2c0.2-0.1,0.1-0.6,0.1-0.8c0-0.6,0-1.2,0-1.8c0-0.1-0.3-2.6-0.4-2.6
			c-1.5,1-2.1,2.8-2.2,4.5c-0.1,1.7-0.1,3.5,0.3,5.1c0.1,0.6,0.4,1.1,0.8,1.6C90.5,176.5,91.8,174,91.8,174z"/>
		<path class="st4" d="M101.6,176.4c-0.1,0-0.1-0.1-0.2-0.1c-1.3-0.8-3.4-0.8-5-1c-1.5-0.2-3.4-0.3-4.7-1.3c0,0-1.3,2.5-0.2,4.8
			c0.1,0.1,0.3,0.3,0.4,0.4c1.6,1.1,3.8,1.2,5.7,1.4c0.8,0.1,1.7,0.2,2.5,0.4c0,0,0.1,0,0.1,0C102.7,178,102.1,176.8,101.6,176.4z"
			/>
		<path class="st5" d="M92.9,174.5c-0.4-0.2-0.8-0.3-1.1-0.6c0,0-1.2,2.4-0.3,4.7c-0.1-0.9,0.1-2,0.6-3
			C92.4,175.3,92.6,174.9,92.9,174.5z"/>
		<path class="st4" d="M98.9,194.2c1.2,3.9,5.1,6.8,9.2,7c0.2,0,0.3-5.1-0.2-5.2c-3.4-0.2-6.7-2.2-8.4-5.2c-0.2-0.3-0.4-0.7-0.5-1
			C98.6,191.1,98.7,193,98.9,194.2z"/>
		<path class="st4" d="M101.6,176.4c0.5,0.4-0.1,2.8-1.3,4.6c-0.8,1.1-1,1.9-1.3,2.9c-1.1,3-0.9,6.6-0.2,9.7
			c0.1,0.2,0.1,0.5,0.2,0.7c-0.2-1.2-0.4-3,0.1-4.4c0-0.1,0-0.1,0-0.2c0.1-0.6,0.4-1.1,0.6-1.6c0.4-1,0.9-1.9,1.4-2.7
			c0.4-0.7,1-1.3,1.3-2c0.5-1.2,0.3-2.9,0.2-4.1C102.5,178.1,102.5,177,101.6,176.4z"/>
		<path class="st5" d="M99.5,190.8c-0.2-0.3-0.4-0.7-0.5-1c-0.5,1.4-0.3,3.2-0.1,4.4c0,0,0,0,0,0c0-0.6,0.1-1.2,0.3-1.8
			c0-0.1,0-0.1,0-0.2c0.1-0.4,0.2-0.8,0.4-1.2C99.6,191,99.6,190.9,99.5,190.8z"/>
		<path class="st5" d="M100.7,180.4c0.1-0.1,0.2-0.3,0.3-0.4c0,0,0-0.1,0.1-0.1c0.1-0.1,0.2-0.3,0.2-0.4c0,0,0,0,0-0.1
			c0.1-0.1,0.1-0.2,0.2-0.3c0,0,0,0,0-0.1c0.1-0.1,0.1-0.2,0.1-0.3c0,0,0-0.1,0-0.1c0-0.1,0.1-0.2,0.1-0.3c0,0,0-0.1,0-0.1
			c0-0.1,0-0.1,0-0.2c0-0.1,0-0.1,0-0.2c0,0,0-0.1,0-0.1c0-0.1,0-0.1,0-0.2c0,0,0,0,0-0.1c0,0,0-0.1,0-0.1c0-0.2-0.1-0.4-0.1-0.6
			c-0.1-0.2-0.2-0.4-0.3-0.5c-0.1,0-0.1-0.1-0.2-0.1c-0.1,0-0.1-0.1-0.2-0.1c0.7,1.6-0.6,4-1,4.8c0,0,0,0,0,0
			C100.4,180.8,100.6,180.6,100.7,180.4C100.7,180.4,100.7,180.4,100.7,180.4z"/>
		<g>
			<path class="st6" d="M104.1,164.9c-1.3-4.4-1.1-9.8-1.1-9.8s-1.3-0.9-3.9,1.9c-2.4,2.7,0.3,12.8,4.1,16.3
				c2.4-0.5,4.4-1.3,5.4-2.6c0,0,0,0,0,0C107.1,169.6,104.9,167.7,104.1,164.9z"/>
			<path class="st6" d="M70.7,165.5c-3.7-0.8-4.3,0.7-4.3,0.7s3.2,4.3,4.7,8.6c0.9,2.7,0.2,5.6-0.4,7.4c0,0,0,0,0,0
				c1.6,0.4,3.7,0,5.9-1C77.7,176.2,74.2,166.3,70.7,165.5z"/>
		</g>
		<g>
			<path class="st7" d="M103,153.9c-5-2.8-8.1,12.9-15.4,16.2c4.2,0,7.7-5.2,10-8.3C100.6,157.8,107.4,156.3,103,153.9z"/>
			<path class="st7" d="M65.7,165.1c-2.2,4.5,4.2,1.8,8.9,3.4c3.7,1.2,9.5,3.5,13,1.1C79.7,171,68.1,159.9,65.7,165.1z"/>
		</g>
		<path class="st8" d="M98.3,167.7c-0.5-1-4.9,1.8-6.6,2.8c1.6-1.1,5.7-3.9,4.5-4.4c-1.2-0.5-4.6,3.3-7.4,4.9c0-0.1-0.1-0.1-0.1-0.2
			c-3,0.9-9.6-0.8-10.4,0.4c-0.7,1.1,4.2,1.1,6.2,1.1c-2,0.1-7.2,0.4-7.1,1.4c0.2,1.3,8.7-1.2,8.7-1.2s-7.8,3.4-7.1,4.6
			c0.5,0.7,2.9-0.8,4.9-2.1c-1.7,1.3-3.6,2.8-3.1,3.2c0.6,0.4,4.7-3,7.2-5.2c3.1,0.4,9.7,1,10,0.3c0.2-0.6-2.3-0.8-4.4-0.8
			c2.4,0,5.2-0.3,5.2-1.1c0-1.4-8.4,0.3-8.4,0.3S98.9,168.9,98.3,167.7z"/>
		<path class="st9" d="M90.9,170.8c1.2,3.9-0.6,3.4-2.2,3.8c-1.6,0.4-2.7,2.2-3.6-2.3c-0.9-4.2,0.6-3.2,2.2-3.6
			S89.7,167.1,90.9,170.8z"/>
		<path class="st4" d="M87.3,171.4c1.2-0.4,2.4-0.6,3.5-0.8c-1.2-3.5-2-2.4-3.6-2c-1.6,0.4-3.1-0.6-2.2,3.6
			C85.8,171.9,86.6,171.7,87.3,171.4z"/>
		<path class="st10" d="M85.9,171.9c0.2,1.2,0.9,2.7,1.3,3.3c-0.8,0.2-1.4-0.1-2-2.9c-0.5-2.6-0.2-3.2,0.5-3.4
			C85.7,169.5,85.6,170.2,85.9,171.9z M89,168.2c0.1,0.6,0.6,1,1.1,2.5c0.7,2.3,0.5,2.9,0.6,3.5c0.7-0.3,1-1.1,0.3-3.3
			C90.2,168.6,89.7,168.1,89,168.2z"/>
		<g>
			<path class="st11" d="M90.9,170.7C90.9,170.7,90.9,170.6,90.9,170.7c-0.1-0.5-0.3-0.8-0.4-1.1c0,0,0,0,0,0c0-0.1-0.1-0.1-0.1-0.2
				c0,0,0,0,0,0c0-0.1-0.1-0.1-0.1-0.2c0,0,0,0,0,0c0-0.1-0.1-0.1-0.1-0.2c0,0,0,0,0,0c-0.1-0.2-0.2-0.3-0.3-0.4c0,0,0,0,0,0
				c0,0-0.1-0.1-0.1-0.1c0,0,0,0,0,0c0,0-0.1,0-0.1-0.1c0,0,0,0,0,0c0,0-0.1,0-0.1-0.1c0,0,0,0,0,0c-0.1-0.1-0.2-0.1-0.3-0.1
				c0,0,0,0,0,0c0,0-0.1,0-0.1,0c0,0,0,0,0,0c0,0-0.1,0-0.1,0c0,0,0,0,0,0c0,0,0,0,0,0c0.1,0.6,0.6,1,1.1,2.5c0,0,0,0,0,0.1
				C90.3,170.7,90.6,170.7,90.9,170.7z"/>
			<path class="st11" d="M85.7,168.9c0,0-0.1,0-0.1,0c0,0,0,0,0,0c0,0-0.1,0-0.1,0c0,0,0,0,0,0c-0.1,0-0.1,0.1-0.2,0.1c0,0,0,0,0,0
				c0,0,0,0-0.1,0.1c0,0,0,0,0,0c0,0,0,0.1-0.1,0.1c0,0,0,0,0,0c0,0,0,0.1,0,0.1c0,0,0,0,0,0c0,0,0,0.1,0,0.2c0,0,0,0,0,0
				c0,0,0,0.1,0,0.1c0,0,0,0,0,0.1c0,0,0,0.1,0,0.1c0,0,0,0.1,0,0.1c0,0.1,0,0.1,0,0.2c0,0,0,0.1,0,0.1c0,0.1,0,0.2,0,0.3
				c0,0,0,0.1,0,0.1c0,0.1,0,0.1,0,0.2c0,0,0,0.1,0,0.1c0,0.1,0,0.1,0,0.2c0,0,0,0.1,0,0.2c0,0.1,0,0.2,0,0.2c0,0,0,0.1,0,0.1
				c0,0.1,0.1,0.3,0.1,0.4c0.2-0.1,0.5-0.2,0.8-0.3c0,0,0,0,0,0C85.6,170.2,85.7,169.5,85.7,168.9C85.7,168.9,85.7,168.9,85.7,168.9
				z"/>
		</g>
	</g>
</g>
<path id="text_frame" class="rpl12-1" d="M212.3,210.8c0.7-0.5,1.5-0.8,2.5-0.8s1.8,0.4,2.4,1.2c0.3,0.4,0.5,0.9,0.6,1.4
	c0.1,0.5,0.1,1.1-0.1,1.7c-0.1,0.6-0.4,1.1-0.7,1.5c-0.3,0.4-0.7,0.8-1.2,1c-0.9,0.4-1.8,0.4-2.7-0.1c-0.8-0.5-1.4-1.2-1.8-1.9
	c-0.2-0.4-0.3-0.7-0.4-1.1c0-0.4,0-0.7,0-1.1c0.1-0.3,0.3-0.7,0.5-1C211.7,211.4,212,211.1,212.3,210.8z M210.5,216.2
	c-0.4,0.1-0.8,0.2-1.1,0.3c-0.2,0.1-0.3,0.2-0.5,0.3c-0.1,0.1-0.3,0.2-0.4,0.4c-0.1,0.1-0.2,0.3-0.3,0.4c-0.1,0.2-0.2,0.3-0.2,0.5
	c-0.1,0.3-0.2,0.8-0.2,1.1c0,0.8,0.2,1.7,0.7,2.5c0.5,0.8,1.3,1.3,2.3,1.3c0.5,0,1-0.1,1.5-0.3c0.2-0.1,0.5-0.2,0.7-0.4
	c0.2-0.2,0.4-0.4,0.6-0.6c0.2-0.2,0.4-0.4,0.5-0.7c0.1-0.3,0.2-0.5,0.3-0.8c0.2-0.5,0.2-1,0.1-1.5c-0.1-1-0.7-1.7-1.6-2.2
	C212.3,216.2,211.3,216.1,210.5,216.2z M206.4,220.2c-0.4-0.1-0.8-0.2-1.1-0.2c-0.2,0-0.4,0-0.5,0c-0.2,0-0.4,0.1-0.5,0.1
	c-0.2,0.1-0.3,0.2-0.5,0.3c-0.2,0.1-0.3,0.2-0.4,0.3c-0.3,0.3-0.5,0.6-0.7,0.9c-0.4,0.7-0.7,1.6-0.6,2.6c0.1,1,0.6,1.8,1.4,2.3
	c0.4,0.3,0.9,0.4,1.5,0.4c0.3,0,0.5,0,0.8,0c0.3,0,0.6-0.1,0.8-0.2c0.3-0.1,0.5-0.2,0.8-0.4c0.2-0.2,0.5-0.3,0.6-0.5
	c0.4-0.4,0.7-0.8,0.8-1.3c0.3-0.9,0.2-1.9-0.4-2.7C208,221,207.2,220.5,206.4,220.2z M198.6,220.8c-1.9,0-3.5,1.6-3.5,3.5
	c0,1.9,1.6,3.5,3.5,3.5c1.8,0,3.8-1.6,3.5-3.5C201.7,222.3,200.6,220.8,198.6,220.8z M191.6,220.8c-1.9,0-3.5,1.6-3.5,3.5
	c0,1.9,1.6,3.5,3.5,3.5c1.9,0,3.5-1.6,3.5-3.5C195.1,222.3,193.5,220.8,191.6,220.8z M184.7,220.8c-1.9,0-3.5,1.6-3.5,3.5
	c0,1.9,1.6,3.5,3.5,3.5c1.9,0,3.5-1.6,3.5-3.5C188.1,222.3,186.6,220.8,184.7,220.8z M177.7,220.8c-1.9,0-3.5,1.6-3.5,3.5
	c0,1.9,1.6,3.5,3.5,3.5c1.9,0,3.5-1.6,3.5-3.5C181.2,222.3,179.6,220.8,177.7,220.8z M170.8,220.8c-1.9,0-3.5,1.6-3.5,3.5
	c0,1.9,1.6,3.5,3.5,3.5c1.9,0,3.5-1.6,3.5-3.5C174.2,222.3,172.7,220.8,170.8,220.8z M163.8,220.8c-1.9,0-3.5,1.6-3.5,3.5
	c0,1.9,1.6,3.5,3.5,3.5s3.5-1.6,3.5-3.5C167.3,222.3,165.7,220.8,163.8,220.8z M156.8,220.8c-1.9,0-3.5,1.6-3.5,3.5
	c0,1.9,1.6,3.5,3.5,3.5c1.9,0,3.5-1.6,3.5-3.5C160.3,222.3,158.8,220.8,156.8,220.8z M149.9,220.8c-1.9,0-3.5,1.6-3.5,3.5
	c0,1.9,1.6,3.5,3.5,3.5c1.9,0,3.5-1.6,3.5-3.5C153.4,222.3,151.8,220.8,149.9,220.8z M142.9,220.8c-1.9,0-3.5,1.6-3.5,3.5
	c0,1.9,1.6,3.5,3.5,3.5c1.9,0,3.5-1.6,3.5-3.5C146.4,222.3,144.9,220.8,142.9,220.8z M136,220.8c-1.9,0-3.5,1.6-3.5,3.5
	c0,1.9,1.6,3.5,3.5,3.5s3.5-1.6,3.5-3.5C139.5,222.3,137.9,220.8,136,220.8z M129,220.8c-1.9,0-3.5,1.6-3.5,3.5
	c0,1.9,1.6,3.5,3.5,3.5c1.9,0,3.5-1.6,3.5-3.5C132.5,222.3,130.9,220.8,129,220.8z M122.1,220.8c-1.9,0-3.5,1.6-3.5,3.5
	c0,1.9,1.6,3.5,3.5,3.5c1.9,0,3.5-1.6,3.5-3.5C125.5,222.3,124,220.8,122.1,220.8z M115.1,220.8c-1.9,0-3.5,1.6-3.5,3.5
	c0,1.9,1.6,3.5,3.5,3.5s3.5-1.6,3.5-3.5C118.6,222.3,117,220.8,115.1,220.8z M108.2,220.8c-1.9,0-3.5,1.6-3.5,3.5
	c0,1.9,1.6,3.5,3.5,3.5c1.9,0,3.5-1.6,3.5-3.5C111.6,222.3,110.1,220.8,108.2,220.8z M101.2,220.8c-1.9,0-3.5,1.6-3.5,3.5
	c0,1.9,1.6,3.5,3.5,3.5c1.9,0,3.5-1.6,3.5-3.5C104.7,222.3,103.1,220.8,101.2,220.8z M94.2,220.8c-1.9,0-3.5,1.6-3.5,3.5
	c0,1.9,1.6,3.5,3.5,3.5c1.9,0,3.5-1.6,3.5-3.5C97.7,222.3,96.2,220.8,94.2,220.8z M87.3,220.8c-1,0-1.8,0.4-2.5,1
	c-0.3,0.3-0.5,0.7-0.7,1.1c-0.2,0.4-0.3,0.9-0.3,1.3c0,0.5,0.1,0.9,0.2,1.4c0.2,0.4,0.5,0.8,0.8,1.1c0.6,0.6,1.5,1,2.5,1
	c1.9,0,3.5-1.6,3.5-3.5C90.8,222.3,89.2,220.8,87.3,220.8z M82.3,220.8c-0.3-0.3-0.6-0.4-0.9-0.5c-0.3-0.1-0.7-0.2-1.1-0.1
	c-0.4,0-0.7,0.1-1.1,0.3c-0.8,0.4-1.5,0.9-2,1.7c-0.5,0.8-0.6,1.8-0.2,2.7c0.2,0.4,0.5,0.9,0.9,1.2c0.4,0.3,0.9,0.6,1.5,0.8
	c0.6,0.2,1.2,0.2,1.7,0.2c0.5-0.1,1-0.3,1.4-0.5c0.8-0.5,1.3-1.4,1.3-2.4c0-1-0.3-1.8-0.7-2.5C82.9,221.3,82.6,221,82.3,220.8z
	 M77.8,219.6c0-0.4-0.1-0.8-0.3-1.1c-0.1-0.4-0.3-0.7-0.6-0.9c-0.2-0.3-0.5-0.5-0.9-0.6c-0.3-0.1-0.7-0.2-1.1-0.3
	c-0.8-0.1-1.7,0.1-2.6,0.6c-0.8,0.5-1.4,1.3-1.4,2.3c0,0.5,0,1,0.2,1.5c0.2,0.5,0.5,1,0.9,1.4c0.4,0.4,0.9,0.7,1.4,0.9
	c0.5,0.2,1,0.2,1.5,0.2c1-0.1,1.8-0.6,2.3-1.5C77.7,221.4,77.8,220.4,77.8,219.6z M74,215.3c0.2-0.4,0.3-0.7,0.3-1.1
	c0.1-0.4,0-0.7-0.1-1.1c-0.1-0.4-0.3-0.7-0.5-0.9c-0.2-0.3-0.5-0.5-0.9-0.8c-0.7-0.4-1.5-0.8-2.5-0.7c-0.9,0-1.8,0.5-2.3,1.3
	c-0.3,0.4-0.4,0.9-0.5,1.4c-0.1,0.5,0,1.1,0.2,1.7c0.2,0.6,0.5,1.1,0.8,1.5c0.4,0.4,0.8,0.7,1.2,0.9c0.9,0.4,1.9,0.3,2.7-0.2
	C73.2,216.8,73.7,216.1,74,215.3z M72.8,209.7c0.6-0.6,1-1.5,1-2.5c0-0.4-0.1-0.7-0.2-1c-0.1-0.3-0.3-0.7-0.6-1
	c-0.6-0.6-1.3-1.2-2.2-1.4c-0.5-0.1-0.9-0.1-1.4,0c-0.5,0.1-0.9,0.3-1.2,0.6c-0.4,0.3-0.7,0.7-0.9,1.2c-0.2,0.5-0.3,1.1-0.4,1.7
	c0,1,0.4,1.8,1,2.5c0.3,0.3,0.7,0.6,1.1,0.8c0.4,0.2,0.9,0.3,1.4,0.2c0.5,0,0.9-0.1,1.3-0.3C72.1,210.2,72.4,210.1,72.8,209.7z
	 M73.4,203.6c0.4-0.1,0.7-0.3,1-0.6c0.3-0.2,0.5-0.5,0.7-0.8c0.2-0.3,0.3-0.7,0.3-1c0-0.4,0-0.7-0.1-1.1c-0.2-0.8-0.6-1.6-1.3-2.3
	c-0.7-0.6-1.7-0.9-2.6-0.7c-0.5,0.1-1,0.3-1.4,0.6c-0.4,0.3-0.8,0.8-1.1,1.3c-0.3,0.5-0.4,1.1-0.5,1.6c0,0.5,0.1,1.1,0.2,1.5
	c0.4,0.9,1.1,1.5,2.1,1.7C71.7,204.1,72.6,203.9,73.4,203.6z M77.5,198.7c0.4-0.1,0.7-0.2,1-0.4c0.3-0.2,0.6-0.4,0.7-0.8
	c0.2-0.3,0.4-0.6,0.5-1c0.2-0.8,0.3-1.7-0.1-2.6c-0.3-0.9-1-1.6-1.9-1.9c-0.5-0.1-1-0.2-1.5-0.1c-0.5,0.1-1.1,0.3-1.6,0.6
	c-0.5,0.4-0.9,0.8-1.2,1.2c-0.3,0.5-0.4,1-0.5,1.4c-0.1,1,0.3,1.9,1,2.5c0.7,0.6,1.6,0.9,2.4,1C76.8,198.8,77.2,198.8,77.5,198.7z
	 M81.3,195.9c0.3,0.2,0.7,0.4,1,0.5c0.4,0.1,0.7,0.2,1.1,0.1c0.4,0,0.7-0.1,1-0.3c0.4-0.2,0.8-0.4,1.1-0.7c0.6-0.6,1-1.5,1-2.5
	c0-1-0.4-1.8-1-2.5c-0.3-0.3-0.7-0.6-1.1-0.7c-0.5-0.2-1.1-0.2-1.7-0.2c-0.6,0.1-1.1,0.3-1.6,0.5c-0.5,0.3-0.8,0.7-1.1,1
	c-0.5,0.8-0.6,1.8-0.3,2.7C80,194.8,80.7,195.5,81.3,195.9z M90,196.5c1.9,0,3.5-1.6,3.5-3.5c0-1.9-1.6-3.5-3.5-3.5
	c-1.9,0-3.5,1.6-3.5,3.5C86.5,195,88.1,196.5,90,196.5z M97,196.5c1.9,0,3.5-1.6,3.5-3.5c0-1.9-1.6-3.5-3.5-3.5
	c-1.9,0-3.5,1.6-3.5,3.5C93.5,195,95.1,196.5,97,196.5z M103.9,196.5c1.9,0,3.5-1.6,3.5-3.5c0-1.9-1.6-3.5-3.5-3.5s-3.5,1.6-3.5,3.5
	C100.5,195,102,196.5,103.9,196.5z M110.9,196.5c1.9,0,3.5-1.6,3.5-3.5c0-1.9-1.6-3.5-3.5-3.5c-1.9,0-3.5,1.6-3.5,3.5
	C107.4,195,109,196.5,110.9,196.5z M117.8,196.5c1.9,0,3.5-1.6,3.5-3.5c0-1.9-1.6-3.5-3.5-3.5c-1.9,0-3.5,1.6-3.5,3.5
	C114.4,195,115.9,196.5,117.8,196.5z M124.8,196.5c1.9,0,3.5-1.6,3.5-3.5c0-1.9-1.6-3.5-3.5-3.5c-1.9,0-3.5,1.6-3.5,3.5
	C121.3,195,122.9,196.5,124.8,196.5z M131.8,196.5c1.9,0,3.5-1.6,3.5-3.5c0-1.9-1.6-3.5-3.5-3.5s-3.5,1.6-3.5,3.5
	C128.3,195,129.8,196.5,131.8,196.5z M138.7,196.5c1.9,0,3.5-1.6,3.5-3.5c0-1.9-1.6-3.5-3.5-3.5c-1.9,0-3.5,1.6-3.5,3.5
	C135.2,195,136.8,196.5,138.7,196.5z M145.7,196.5c1.9,0,3.5-1.6,3.5-3.5c0-1.9-1.6-3.5-3.5-3.5c-1.9,0-3.5,1.6-3.5,3.5
	C142.2,195,143.7,196.5,145.7,196.5z M152.6,196.5c1.9,0,3.5-1.6,3.5-3.5c0-1.9-1.6-3.5-3.5-3.5c-1.9,0-3.5,1.6-3.5,3.5
	C149.1,195,150.7,196.5,152.6,196.5z M159.6,196.5c1.9,0,3.5-1.6,3.5-3.5c0-1.9-1.6-3.5-3.5-3.5s-3.5,1.6-3.5,3.5
	C156.1,195,157.7,196.5,159.6,196.5z M166.5,196.5c1.9,0,3.5-1.6,3.5-3.5c0-1.9-1.6-3.5-3.5-3.5c-1.9,0-3.5,1.6-3.5,3.5
	C163.1,195,164.6,196.5,166.5,196.5z M173.5,196.5c1.9,0,3.5-1.6,3.5-3.5c0-1.9-1.6-3.5-3.5-3.5c-1.9,0-3.5,1.6-3.5,3.5
	C170,195,171.6,196.5,173.5,196.5z M180.4,196.5c1.9,0,3.5-1.6,3.5-3.5c0-1.9-1.6-3.5-3.5-3.5s-3.5,1.6-3.5,3.5
	C177,195,178.5,196.5,180.4,196.5z M187.4,196.5c1.9,0,3.5-1.6,3.5-3.5c0-1.9-1.6-3.5-3.5-3.5c-1.9,0-3.5,1.6-3.5,3.5
	C183.9,195,185.5,196.5,187.4,196.5z M194.4,196.5c1.9,0,3.5-1.6,3.5-3.5c0-1.9-1.6-3.5-3.5-3.5c-1.9,0-3.5,1.6-3.5,3.5
	C190.9,195,192.4,196.5,194.4,196.5z M200,196.2c0.2,0.1,0.4,0.2,0.6,0.2c0.2,0.1,0.3,0.1,0.5,0.1c0.2,0,0.4,0,0.5,0
	c0.2,0,0.3-0.1,0.5-0.1c0.3-0.1,0.7-0.3,1-0.6c0.6-0.5,1.2-1.2,1.5-2.1c0.3-0.9,0.1-1.8-0.4-2.6c-0.3-0.4-0.7-0.7-1.2-1
	c-0.2-0.1-0.5-0.2-0.8-0.3c-0.3-0.1-0.6-0.1-0.9-0.1c-0.3,0-0.6,0-0.9,0c-0.2,0-0.4,0.1-0.7,0.2c-0.4,0.2-0.8,0.4-1.1,0.7
	c-0.6,0.6-1,1.5-1,2.5c0,1,0.4,1.8,1,2.5C199.2,195.8,199.5,196.1,200,196.2z M204.8,196.3c0.1,0.4,0.3,0.7,0.5,1
	c0.1,0.1,0.2,0.3,0.4,0.4c0.1,0.1,0.3,0.2,0.4,0.3c0.2,0.1,0.3,0.2,0.5,0.2c0.2,0.1,0.3,0.1,0.5,0.1c0.4,0.1,0.8,0,1.2,0
	c0.8-0.1,1.7-0.5,2.4-1.2c0.7-0.7,1-1.6,0.9-2.5c-0.1-0.5-0.3-1-0.6-1.4c-0.2-0.2-0.3-0.4-0.5-0.6c-0.2-0.2-0.4-0.4-0.7-0.5
	c-0.3-0.2-0.5-0.3-0.8-0.4c-0.3-0.1-0.5-0.1-0.8-0.2c-0.5-0.1-1,0-1.5,0.2c-0.9,0.3-1.6,1-1.8,1.9
	C204.5,194.6,204.5,195.5,204.8,196.3z M209.4,200.7c0,0.2,0.1,0.4,0.1,0.5c0,0.2,0.1,0.3,0.2,0.5c0.1,0.2,0.2,0.3,0.3,0.4
	c0.1,0.1,0.2,0.3,0.4,0.4c0.3,0.2,0.7,0.4,1,0.5c0.8,0.3,1.7,0.3,2.6,0.1c0.9-0.3,1.6-0.9,1.9-1.8c0.2-0.5,0.2-1,0.2-1.5
	c0-0.3-0.1-0.5-0.2-0.8c-0.1-0.3-0.2-0.5-0.4-0.8c-0.2-0.3-0.3-0.5-0.5-0.7c-0.2-0.2-0.4-0.4-0.6-0.5c-0.4-0.3-0.9-0.5-1.4-0.6
	c-1-0.1-1.9,0.2-2.5,0.9c-0.7,0.7-1,1.6-1.2,2.4C209.4,200,209.4,200.4,209.4,200.7z M218.1,205.5c-0.1-0.3-0.2-0.5-0.3-0.8
	c-0.3-0.5-0.6-0.9-1-1.2c-0.8-0.6-1.7-0.7-2.6-0.4s-1.7,0.9-2.1,1.5c-0.2,0.3-0.5,0.7-0.6,1c-0.1,0.2-0.1,0.3-0.1,0.5
	c0,0.2-0.1,0.4,0,0.5s0,0.4,0.1,0.5c0.1,0.2,0.1,0.4,0.2,0.6c0.2,0.4,0.4,0.8,0.7,1.1c0.6,0.6,1.5,1,2.5,1c1,0,1.8-0.4,2.5-1
	c0.3-0.3,0.6-0.7,0.7-1.1c0.1-0.2,0.2-0.4,0.2-0.7c0-0.3,0-0.6,0-0.9C218.2,206,218.2,205.8,218.1,205.5z"/>
<path id="text_background" class="rpl13-1" d="M214.8,210c0,7.8-6.4,14.2-14.2,14.2h-116c-7.8,0-14.2-6.4-14.2-14.2v-2.7
	c0-7.8,6.4-14.2,14.2-14.2h116c7.8,0,14.2,6.4,14.2,14.2V210z"/>
<rect id="text_background_left" class="svgRibbon" width="56.7" height="236"/>
<rect id="text_background_right" x="226.8" class="svgRibbon" width="56.7" height="236.4"/>
<g id="balloons">
	<g>
		<path class="st15" d="M105.5,43.2c2.3-13.1-3.3-25-12.5-26.6c-9.2-1.6-18.5,7.7-20.8,20.8c-2.2,12.7,3,24.3,11.6,26.4
			c-0.2,0.3-0.5,0.6-0.7,1l-1.1,2.1c-0.4,0.9-0.3,1,0.4,0.3c0,0,0.8-0.9,0.9-0.7c0.1,0.2-0.2,0.9-0.2,0.9c-0.3,0.9-0.2,1.1,0.1,0.5
			c0.4-0.7,0.8-0.6,0.9,0.2c0.1,0.8,0.4,0.7,0.5-0.1c0.1-0.8,0.5-0.9,0.9-0.1c0.3,0.8,0.5,0.6,0.4-0.3L85.7,65
			c0-0.3-0.1-0.6-0.2-0.9C94.4,65.1,103.3,55.9,105.5,43.2z"/>
		<path class="st16" d="M86.9,18.9c-11.8,4.3-13.6,21.5-13.6,21.5l2.9,2.8C76.3,43.2,77,25.3,86.9,18.9z"/>
	</g>
	<g>
		<path class="st17" d="M84.1,72.6c-3.8-14.2-15-23.4-24.9-20.8c-9.9,2.7-14.9,16.3-11,30.5c3.7,13.7,14.3,22.9,24,21
			c-0.1,0.4-0.2,0.8-0.2,1.3l-0.1,2.6c0,1.1,0.2,1.1,0.5,0.1c0,0,0.4-1.3,0.5-1.1c0.2,0.1,0.3,0.9,0.3,0.9c0.1,1.1,0.3,1.2,0.4,0.4
			c0.1-0.8,0.5-1,1-0.3c0.5,0.7,0.7,0.5,0.4-0.4c-0.3-0.9,0.1-1.1,0.8-0.5c0.7,0.6,0.8,0.4,0.2-0.5l-1.5-2.2
			c-0.2-0.3-0.4-0.6-0.7-0.8C83.3,99.7,87.9,86.4,84.1,72.6z"/>
		<path class="st0" d="M54.3,57c-9.8,9.8-3.5,27.8-3.5,27.8l4.2,1.4C54.9,86.3,47.3,68,54.3,57z"/>
	</g>
	<g>
		<path class="st17" d="M215,33.6c-1-14.4-10-25.4-20.1-24.7c-10.1,0.7-17.4,12.9-16.4,27.3c1,13.9,9.4,24.7,19.1,24.7
			c-0.2,0.3-0.4,0.8-0.5,1.2l-0.6,2.5c-0.2,1,0,1.1,0.5,0.2c0,0,0.6-1.1,0.7-1c0.1,0.2,0.1,1,0.1,1c-0.1,1,0.1,1.2,0.3,0.4
			c0.2-0.8,0.7-0.8,1-0.1c0.4,0.8,0.6,0.6,0.5-0.3c-0.1-0.9,0.3-1.1,0.9-0.3c0.6,0.7,0.7,0.5,0.3-0.4l-1-2.4
			c-0.1-0.3-0.3-0.6-0.5-0.9C209,59.5,215.9,47.6,215,33.6z"/>
		<path class="st0" d="M189.1,13c-11.3,7.6-8.7,26.1-8.7,26.1l3.8,2.1C184.2,41.2,180.3,22.2,189.1,13z"/>
	</g>
	<g>
		<path class="st18" d="M89,118.1c-5.8-11.7-17.2-17.9-25.4-13.8c-8.2,4.1-10.2,16.9-4.3,28.6c5.6,11.3,16.5,17.5,24.6,14.2
			c0,0.4,0,0.8,0,1.2l0.4,2.3c0.2,0.9,0.4,0.9,0.5,0c0,0,0.1-1.2,0.3-1.1c0.2,0.1,0.4,0.8,0.4,0.8c0.3,0.9,0.5,1,0.4,0.3
			c-0.1-0.7,0.3-0.9,0.8-0.4c0.6,0.5,0.7,0.3,0.3-0.4c-0.4-0.7-0.1-1,0.6-0.6c0.7,0.4,0.8,0.2,0.1-0.5l-1.7-1.7
			c-0.2-0.2-0.5-0.4-0.7-0.6C93,141.9,94.7,129.5,89,118.1z"/>
		<path class="st19" d="M60.2,109.6c-6.9,10.3,1.7,24.9,1.7,24.9l3.9,0.5C65.8,135.1,56,120.5,60.2,109.6z"/>
	</g>
	<g>
		<path class="st20" d="M230.1,83.4c2.4-13.1-3-25-12.2-26.8c-9.2-1.7-18.6,7.5-21,20.6c-2.4,12.7,2.7,24.3,11.3,26.6
			c-0.3,0.3-0.5,0.6-0.7,1l-1.1,2.1c-0.4,0.9-0.3,1,0.4,0.3c0,0,0.8-0.9,0.9-0.7c0.1,0.2-0.2,0.9-0.2,0.9c-0.3,0.9-0.2,1.1,0.1,0.5
			c0.4-0.7,0.8-0.6,0.9,0.2c0.1,0.8,0.4,0.7,0.5-0.1c0.1-0.8,0.5-0.9,0.9-0.1c0.3,0.8,0.5,0.6,0.4-0.3l-0.3-2.4
			c0-0.3-0.1-0.6-0.2-0.9C218.8,105.2,227.7,96.1,230.1,83.4z"/>
		<path class="st21" d="M211.8,58.9C200,63,198,80.2,198,80.2l2.9,2.8C200.8,83,201.8,65.1,211.8,58.9z"/>
	</g>
</g>
<path id="ladybug_color" class="rpl28-1" d="M219.8,152.8c-2.8,4.9-7.9,7.2-11.4,5.1c-3.5-2-4-7.6-1.2-12.5c2.8-4.9,7.9-7.2,11.4-5.1
	C222,142.3,222.6,147.9,219.8,152.8z M60.2,216.4c-3,2.7-2.4,8.3,1.4,12.5c3.8,4.2,9.3,5.4,12.3,2.6s2.4-8.3-1.4-12.5
	C68.7,214.9,63.2,213.7,60.2,216.4z M176.8,60.8c-3,2.7-2.4,8.3,1.4,12.5c3.8,4.2,9.3,5.4,12.3,2.6s2.4-8.3-1.4-12.5
	C185.3,59.2,179.8,58.1,176.8,60.8z"/>
<g id="ladybug">
	<g>
		<circle cx="215.7" cy="149" r="1"/>
		<circle cx="218.9" cy="149.7" r="1"/>
		<circle cx="216" cy="152.6" r="1"/>
		<circle cx="213.7" cy="155.7" r="1"/>
		<circle cx="212.4" cy="147.1" r="1"/>
		<circle cx="210.2" cy="144.7" r="1"/>
		<circle cx="209.1" cy="148.6" r="1"/>
		<circle cx="207.6" cy="152.2" r="1"/>
		<path d="M225.3,139.5c-0.2-0.4-0.5-0.9-1.1-1.2c-0.5-0.3-1.3-0.5-2-0.4c-0.7,0.1-1.4,0.4-1.9,0.8c-0.5,0.4-0.8,0.9-0.9,1.3
			c-0.1,0.3-0.2,0.6-0.2,0.9c-0.2-0.2-0.5-0.4-0.7-0.5s-0.5-0.3-0.8-0.4c0.2-0.1,0.4-0.3,0.7-0.6c0.3-0.4,0.6-0.9,0.7-1.5
			c0.1-0.6,0.1-1.3-0.2-2c-0.3-0.7-0.8-1.2-1.3-1.5c-0.6-0.3-1.2-0.4-1.6-0.3c-0.5,0.1-0.8,0.2-1,0.4c-0.1,0.1-0.2,0.2-0.2,0.3
			c0,0,0,0,0,0c-0.2,0.4-0.1,0.9,0.3,1.2c0.4,0.2,0.9,0.1,1.2-0.3c0.2-0.4,0.1-0.8-0.2-1.1c0,0,0,0,0,0c0.4,0,0.9,0.1,1.4,0.4
			c0.4,0.3,0.8,0.7,1,1.3c0.2,0.5,0.3,1.1,0.2,1.6c-0.1,0.5-0.3,1-0.5,1.4c-0.2,0.3-0.4,0.5-0.6,0.7c-1.6-0.5-3.5-0.2-5.3,0.7
			c0.1,2.3,1,4.3,2.6,5.5c-3.8,6.6-6.7,8.8-8.5,9.6c0.5,1,1.2,1.8,2.2,2.3c0.9,0.5,2,0.8,3.1,0.7c-0.2-1.9,0.3-5.6,4.1-12.1
			c1.8,0.8,4,0.6,6-0.5c-0.1-2-0.8-3.8-2-5c0-0.2,0.1-0.5,0.3-0.9c0.2-0.4,0.5-0.8,0.9-1.1c0.4-0.3,1-0.6,1.5-0.6
			c0.6-0.1,1.1,0,1.6,0.3c0.5,0.2,0.8,0.6,1,1c0,0,0,0,0,0c-0.4-0.1-0.8,0-1,0.4c-0.2,0.4-0.1,0.9,0.3,1.2c0.4,0.2,0.9,0.1,1.2-0.3
			c0,0,0,0,0,0c0-0.1,0.1-0.2,0.1-0.3C225.5,140.3,225.5,139.9,225.3,139.5z"/>
		<path d="M65.2,221.2c1.4-1.5,1.8-3.6,1.4-5.9c-1.9-0.5-3.8-0.4-5.3,0.4c-0.2-0.1-0.5-0.3-0.7-0.5c-0.3-0.3-0.6-0.7-0.8-1.2
			c-0.2-0.5-0.2-1.1-0.1-1.7c0.1-0.6,0.4-1.1,0.7-1.4c0.4-0.4,0.8-0.6,1.2-0.7c0,0,0,0,0,0c-0.3,0.3-0.2,0.8,0,1.1
			c0.3,0.3,0.9,0.4,1.2,0.1c0.3-0.3,0.4-0.9,0.1-1.2c0,0,0,0,0,0c-0.1-0.1-0.2-0.1-0.3-0.2c-0.2-0.1-0.6-0.2-1.1-0.2
			c-0.5,0-1,0.2-1.5,0.7c-0.5,0.4-0.9,1.1-1,1.8c-0.1,0.7,0,1.4,0.2,2c0.2,0.6,0.6,1,1,1.3c0.3,0.2,0.5,0.3,0.8,0.4
			c-0.3,0.2-0.5,0.3-0.7,0.5s-0.4,0.4-0.6,0.7c-0.1-0.2-0.1-0.5-0.3-0.8c-0.3-0.4-0.7-0.8-1.2-1.1c-0.6-0.3-1.3-0.5-2-0.4
			c-0.7,0.1-1.4,0.4-1.9,0.8c-0.5,0.4-0.7,1-0.8,1.4c-0.1,0.5,0,0.9,0.1,1.1c0.1,0.1,0.1,0.2,0.2,0.3c0,0,0,0,0,0
			c0.3,0.3,0.9,0.4,1.2,0.1c0.3-0.3,0.4-0.9,0.1-1.2c-0.3-0.3-0.7-0.4-1.1-0.1l0,0c0.1-0.4,0.4-0.8,0.8-1.2c0.4-0.3,0.9-0.5,1.5-0.6
			c0.6-0.1,1.1,0.1,1.6,0.3c0.5,0.2,0.9,0.6,1.1,0.9c0.2,0.3,0.4,0.6,0.5,0.8c-1,1.4-1.3,3.3-0.9,5.3c2.2,0.6,4.4,0.4,6-0.8
			c5.1,5.7,6.4,9.1,6.5,11c1.1-0.2,2.1-0.6,2.9-1.3s1.3-1.7,1.6-2.7C73.6,228.4,70.3,226.8,65.2,221.2z"/>
		<circle cx="67.7" cy="221.8" r="1"/>
		<circle cx="69.3" cy="218.9" r="1"/>
		<circle cx="71.2" cy="222.6" r="1"/>
		<circle cx="73.4" cy="225.8" r="1"/>
		<circle cx="64.8" cy="224.4" r="1"/>
		<circle cx="61.8" cy="225.7" r="1"/>
		<circle cx="65.2" cy="227.9" r="1"/>
		<circle cx="68.2" cy="230.5" r="1"/>
		<path d="M181.8,65.6c1.4-1.5,1.8-3.6,1.4-5.9c-1.9-0.5-3.8-0.4-5.3,0.4c-0.2-0.1-0.5-0.3-0.7-0.5c-0.3-0.3-0.6-0.7-0.8-1.2
			c-0.2-0.5-0.2-1.1-0.1-1.7c0.1-0.6,0.4-1.1,0.7-1.4c0.4-0.4,0.8-0.6,1.2-0.7l0,0c-0.3,0.3-0.2,0.8,0,1.1c0.3,0.3,0.9,0.4,1.2,0.1
			c0.3-0.3,0.4-0.9,0.1-1.2c0,0,0,0,0,0c-0.1-0.1-0.2-0.1-0.3-0.2c-0.2-0.1-0.6-0.2-1.1-0.2c-0.5,0-1,0.2-1.5,0.7
			c-0.5,0.4-0.9,1.1-1,1.8c-0.1,0.7,0,1.4,0.2,2c0.2,0.6,0.6,1,1,1.3c0.3,0.2,0.5,0.3,0.8,0.4c-0.3,0.2-0.5,0.3-0.7,0.5
			s-0.4,0.4-0.6,0.7c-0.1-0.2-0.1-0.5-0.3-0.8c-0.3-0.4-0.7-0.8-1.2-1.1c-0.6-0.3-1.3-0.5-2-0.4c-0.7,0.1-1.4,0.4-1.9,0.8
			c-0.5,0.4-0.7,1-0.8,1.4c-0.1,0.5,0,0.9,0.1,1.1c0.1,0.1,0.1,0.2,0.2,0.3c0,0,0,0,0,0c0.3,0.3,0.9,0.4,1.2,0.1
			c0.3-0.3,0.4-0.9,0.1-1.2c-0.3-0.3-0.7-0.4-1.1-0.1l0,0c0.1-0.4,0.4-0.8,0.8-1.2c0.4-0.3,0.9-0.5,1.5-0.6c0.6-0.1,1.1,0.1,1.6,0.3
			c0.5,0.2,0.9,0.6,1.1,0.9c0.2,0.3,0.4,0.6,0.5,0.8c-1,1.4-1.3,3.3-0.9,5.3c2.2,0.6,4.4,0.4,6-0.8c5.1,5.7,6.4,9.1,6.5,11
			c1.1-0.2,2.1-0.6,2.9-1.3c0.8-0.7,1.3-1.7,1.6-2.7C190.2,72.8,186.9,71.2,181.8,65.6z"/>
		<circle cx="184.3" cy="66.1" r="1"/>
		<circle cx="185.9" cy="63.3" r="1"/>
		<circle cx="187.8" cy="67" r="1"/>
		<circle cx="190" cy="70.1" r="1"/>
		<circle cx="181.4" cy="68.7" r="1"/>
		<circle cx="178.4" cy="70" r="1"/>
		<circle cx="181.9" cy="72.3" r="1"/>
		<circle cx="184.8" cy="74.9" r="1"/>
	</g>
	<g>
		<path class="st22" d="M218.7,143c0,0-0.1,0-0.1,0c0.2,0.2,0.3,0.4,0.1,0.7c-0.1,0.3-0.5,0.3-0.7,0.2c-0.1,0-0.1-0.1-0.2-0.2
			c-0.1,0.2-0.1,0.4-0.1,0.6c0,0.7,0.4,1.3,0.9,1.3c0.5,0,1-0.6,1-1.3C219.6,143.6,219.2,143,218.7,143z"/>
		<path class="st22" d="M214.6,141.3c-0.6,0.4-0.9,1-0.6,1.5c0.3,0.5,1,0.5,1.6,0.2c0.2-0.1,0.3-0.2,0.4-0.4c-0.1,0-0.1,0-0.2-0.1
			c-0.3-0.1-0.3-0.5-0.2-0.7c0.1-0.2,0.4-0.3,0.6-0.2c0,0,0-0.1-0.1-0.1C215.9,141.1,215.2,141,214.6,141.3z"/>
		<path class="st22" d="M64.3,216.6c-0.7-0.2-1.4,0-1.5,0.5c0,0,0,0.1,0,0.1c0.2-0.1,0.5-0.1,0.7,0.1c0.2,0.2,0.2,0.5,0,0.7
			c-0.1,0.1-0.1,0.1-0.2,0.1c0.1,0.1,0.3,0.2,0.5,0.3c0.7,0.2,1.4,0,1.5-0.5C65.4,217.4,65,216.8,64.3,216.6z"/>
		<path class="st22" d="M61.7,219.5c0,0.1-0.1,0.1-0.1,0.2c-0.2,0.2-0.5,0.2-0.7,0c-0.2-0.2-0.2-0.5,0-0.7c0,0-0.1,0-0.1,0
			c-0.5,0.1-0.8,0.8-0.7,1.5s0.7,1.2,1.3,1c0.5-0.1,0.8-0.8,0.7-1.5C61.8,219.9,61.8,219.7,61.7,219.5z"/>
		<path class="st22" d="M181,61c-0.7-0.2-1.4,0-1.5,0.5c0,0,0,0.1,0,0.1c0.2-0.1,0.5-0.1,0.7,0.1c0.2,0.2,0.2,0.5,0,0.7
			c-0.1,0.1-0.1,0.1-0.2,0.1c0.1,0.1,0.3,0.2,0.5,0.3c0.7,0.2,1.4,0,1.5-0.5C182,61.8,181.6,61.2,181,61z"/>
		<path class="st22" d="M178.3,63.9c0,0.1-0.1,0.1-0.1,0.2c-0.2,0.2-0.5,0.2-0.7,0c-0.2-0.2-0.2-0.5,0-0.7c0,0-0.1,0-0.1,0
			c-0.5,0.1-0.8,0.8-0.7,1.5s0.7,1.2,1.3,1c0.5-0.1,0.8-0.8,0.7-1.5C178.5,64.2,178.4,64.1,178.3,63.9z"/>
	</g>
</g>
<path id="AlpStories_LOGO" d="M145.8,31.4c0-0.1,0.1-0.2,0.3-0.2h3.3c0.2,0,0.3,0.1,0.3,0.2v2.8c0,0.1-0.1,0.2-0.3,0.2h-3.3
	c-0.2,0-0.3-0.1-0.3-0.2V31.4z M145,31.3v3.1c0,0.6,0.4,0.8,0.9,0.8h3.7c0.6,0,0.9-0.2,0.9-0.8v-3.1c0-0.6-0.4-0.8-0.9-0.8h-3.7
	C145.4,30.5,145,30.7,145,31.3 M138.2,30.5v0.6c0,0,0,0,0,0h2c0,0,0,0,0,0v3.9c0,0,0,0,0,0h0.8c0,0,0,0,0,0v-3.9c0,0,0,0,0,0h2
	c0,0,0,0,0,0v-0.6c0,0,0,0,0,0L138.2,30.5C138.2,30.5,138.2,30.5,138.2,30.5 M130.4,34.1v0.3c0,0.6,0.4,0.8,0.9,0.8h1.4h2.6
	c0.6,0,0.9-0.2,0.9-0.8v-1.7c0-0.6-0.4-0.8-0.9-0.8h-3.6c-0.2,0-0.3-0.1-0.3-0.2v-1.1c0-0.1,0.1-0.2,0.3-0.2h3.3
	c0.2,0,0.3,0.1,0.3,0.2v0.1c0,0.1,0,0.1,0.1,0.1l0.7-0.1c0,0,0.1,0,0.1-0.1v-0.2c0-0.6-0.4-0.8-0.9-0.8h-3.6c-0.6,0-0.9,0.2-0.9,0.8
	v1.5c0,0.6,0.4,0.8,0.9,0.8h3.6c0.2,0,0.3,0.1,0.3,0.2v1.4c0,0.1-0.1,0.2-0.3,0.2h-3.7c-0.2,0-0.3-0.1-0.3-0.2V34
	c0-0.1,0-0.1-0.1-0.1L130.4,34.1C130.4,34,130.4,34.1,130.4,34.1 M115.1,35.2C115.1,35.2,115.1,35.2,115.1,35.2l-3-5.6
	c0,0,0,0-0.1,0h-1c0,0-0.1,0-0.1,0l-3,5.6c0,0,0,0,0,0h0.8c0,0,0.1,0,0.1,0l2.6-4.8c0,0,0,0,0,0c0,0,0,0,0,0h0l1.5,2.7l-2.3,0
	c-0.2,0-0.4,0.1-0.4,0.3v0.1c0,0.1,0.1,0.3,0.4,0.3l2.8,0l0.7,1.4c0,0,0,0,0.1,0H115.1z M121.5,35.1v-0.6c0,0,0,0,0,0h-3.5
	c0,0,0,0,0,0v-3.9c0,0,0,0,0,0H117c0,0,0,0,0,0v4.6c0,0.1,0,0.1,0.1,0.1L121.5,35.1C121.5,35.2,121.5,35.2,121.5,35.1 M128.2,32.5
	v-1.2c0-0.6-0.4-0.8-0.9-0.8h-3.9c-0.1,0-0.1,0-0.1,0.1v4.6c0,0,0,0,0,0l0.8,0c0,0,0,0,0,0v-3.9c0,0,0,0,0,0h2.9
	c0.2,0,0.3,0.1,0.3,0.2v0.9c0,0.1-0.1,0.2-0.3,0.2l-2.1,0c-0.2,0-0.4,0.1-0.4,0.3v0c0,0.1,0.1,0.3,0.4,0.3l2.3,0
	C127.9,33.3,128.2,33.1,128.2,32.5 M143.3,19.7c0,0-3-6.4-3-6.4c-0.2-0.5-0.6-0.8-1.1-0.8c-0.5,0-1,0.2-1.3,0.6
	c0,0-8.1,11.6-8.1,11.6c-0.2,0.3-0.2,0.6-0.1,0.7c0.1,0.1,0.4,0,0.6-0.3c0,0,7.9-10.1,7.9-10.1c0.2-0.3,0.5-0.6,0.9-0.5
	c0.3,0,0.6,0.3,0.7,0.6c0,0,2.3,5.2,2.3,5.2c0.2,0.4,0.6,0.7,1,0.5C143.4,20.6,143.5,20.2,143.3,19.7 M152.7,21.8
	c0.2-0.5,0-1-0.3-1.4c0,0-5-6-5-6c-0.1-0.2-0.2-0.4-0.1-0.6c0.1-0.2,0.3-0.4,0.6-0.4c0,0,3.9-0.7,3.9-0.7c0.2,0,0.4-0.2,0.3-0.3
	c0-0.2-0.2-0.3-0.4-0.3l-5.3,0.3c-0.5,0-0.9,0.3-1.1,0.7c-0.1,0.4,0,0.8,0.2,1.1c0,0,5.1,5.9,5.1,5.9c0.2,0.2,0.3,0.5,0.2,0.8
	c-0.1,0.2-0.3,0.4-0.6,0.5c0,0-12.7,3-12.7,3c-0.3,0.1-0.6,0.3-0.6,0.4c0,0.2,0.3,0.2,0.7,0.2c0,0,14-2.5,14-2.5
	C152.1,22.5,152.5,22.2,152.7,21.8 M158.3,35.2c0.1-0.1,0-0.2,0-0.2c0,0-1-1-1.7-1.6l0.4,0c0.6,0,0.9-0.2,0.9-0.8v-1.2
	c0-0.6-0.4-0.8-0.9-0.8h-3.7c-0.1,0-0.1,0-0.1,0.1v4.6c0,0,0,0,0,0l0.8,0c0,0,0,0,0,0v-3.9c0,0,0,0,0,0h2.7c0.2,0,0.3,0.1,0.3,0.2
	v0.9c0,0.1-0.1,0.2-0.3,0.2l-1.9,0c-0.2,0-0.4,0.1-0.4,0.3v0c0,0.1,0.1,0.3,0.4,0.3l0.8,0l1.8,1.9c0,0,0.1,0.1,0.2,0.1L158.3,35.2
	C158.2,35.2,158.3,35.2,158.3,35.2 M161.3,35.1v-4.6c0,0,0,0,0,0h-0.8c0,0,0,0,0,0v4.6c0,0,0,0,0,0L161.3,35.1
	C161.3,35.2,161.3,35.2,161.3,35.1 M168.6,35.1v-0.6c0,0,0,0,0,0h-3.8c0,0,0,0,0,0v-1.4l1.8,0c0.2,0,0.4-0.1,0.4-0.3v0
	c0-0.1-0.1-0.3-0.4-0.3l-1.8,0v-1.1c0,0,0,0,0,0h3.7c0,0,0,0,0,0v-0.6c0,0,0,0,0,0h-4.5c-0.1,0-0.1,0-0.1,0.1v4.5
	c0,0.1,0,0.1,0.1,0.1L168.6,35.1C168.6,35.2,168.6,35.2,168.6,35.1 M171.3,32.2v-0.8c0-0.1,0.1-0.2,0.3-0.2h2.7
	c0.2,0,0.3,0.1,0.3,0.2v0.1c0,0.1,0,0.1,0.1,0.1l0.6-0.1c0,0,0.1,0,0.1-0.1v-0.2c0-0.6-0.4-0.8-0.9-0.8h-3c-0.6,0-0.9,0.2-0.9,0.8v1
	c0,0.6,0.4,0.8,0.9,0.8h3c0.2,0,0.3,0.1,0.3,0.2v0.9c0,0.1-0.1,0.2-0.3,0.2h-3c-0.2,0-0.3-0.1-0.3-0.2V34c0-0.1,0-0.1-0.1-0.1
	l-0.6,0.1c0,0-0.1,0-0.1,0.1v0.3c0,0.6,0.4,0.8,0.9,0.8h1h2.3c0.6,0,0.9-0.2,0.9-0.8v-1.2c0-0.6-0.4-0.8-0.9-0.8h-3
	C171.4,32.4,171.3,32.3,171.3,32.2"/>
<rect id="Button_Stripe" y="236.3" class="rpl13-1" width="283.5" height="18.9"/>
<text id="product" transform="matrix(1 0 0 1 139.0948 249.2991)" class="st22 st24 st25 st30 svgProduct">Product name</text>
<text id="quantity" transform="matrix(1 0 0 1 8.9839 250.6214)" class="st22 st24 st26">220 ml</text>
<text id="text1" transform="matrix(1 0 0 1 140.5201 205.7083)" class="editable st22 st24 st27">Happy birthday!</text>
<text id="text2" transform="matrix(1 0 0 1 140.5202 219.6415)" class="editable st22 st24 st27">My little daughter!</text>
<g>
	
		<image style="overflow:visible;" class="st29" width="28" height="28" id="Icon1" transform="matrix(0.403 0 0 0.403 267.9934 240.0502)">
	</image>
	
		<image style="overflow:visible;" class="st29" width="28" height="28" id="Icon2" transform="matrix(0.403 0 0 0.403 253.874 240.0502)">
	</image>
	
		<image style="overflow:visible;" class="st29" width="28" height="28" id="Icon3" transform="matrix(0.403 0 0 0.403 239.7547 240.0502)">
	</image>
	
		<image style="overflow:visible;" class="st29" width="28" height="28" id="Icon4" transform="matrix(0.403 0 0 0.403 211.5159 240.0502)">
	</image>
	
		<image style="overflow:visible;" class="st29" width="28" height="28" id="Icon5" transform="matrix(0.403 0 0 0.403 225.6353 240.0502)">
	</image>
</g>
</svg>
