<svg version="1.1" data-color-numbers="3" id="Layer_1" xmlns="http://www.w3.org/2000/svg" xmlns:xlink="http://www.w3.org/1999/xlink" x="0px" y="0px" viewBox="0 0 272.1 184.3" style="enable-background:new 0 0 272.1 184.3;" xml:space="preserve" width="100%" height="100%">
<style type="text/css">
  
  @font-face {
        font-family: "DevroyeUnicode";
        src: url("http://aspreview/AlpStoriesPraga/Content/fonts/DEVROYUN.ttf") format("truetype");
  }
	.rpl0-1{fill:#C2B59B;}
  .rpl0-2{fill:#82b4bc;}
  .rpl0-3{fill:#a9711a;}
	.rpl1-1{fill:#9B8579;}
  .rpl1-2{fill:#dfe6e9;}
  .rpl1-3{fill:#4d2911;}
	.st2{fill:#2B3990;}
	.rpl3-1{fill:#F7941E;}
  .rpl3-2{fill:#3d2826;}
  .rpl3-3{fill:#3d2826;}
	.rpl4-1{fill:#FBB040;}
  .rpl4-2{fill:#62514f;}
  .rpl4-3{fill:#ddd3aa;}
	.st5{fill:#A97C50;}
	.st6{fill:#F1F2F2;}
	.rpl7-1{fill:#C49A6C;}
  .rpl7-2{fill:#fd614e;}
  .rpl7-3{fill:#6cc1ab;}
	.st8{font-family:'DevroyeUnicode';}
	.st9{font-size:7.28px;}
	.st10{fill:#231F20;}
	.rpl12-1{fill:#664838;}
  .rpl12-2{fill:#3f8689;}
  .rpl12-3{fill:#104d3f;}
	.st13{fill:#FFFFFF;}
	.st14{font-size:6.24px;}
	.st15{font-size:7px;}
  .st16{fill:#FFFFFF;}
  .editable{text-anchor: middle;}
  .svgProduct{text-anchor: middle;}
  .svgRibbon{visibility:hidden; opacity:0.6;fill:#FFFFFF;}
 
</style>
<image width="781" height="790" id="editableImg" xlink:href="http://aspreview/AlpStoriesPraga/Content/img/cat-images-hilarious-gifs.jpg" data-svg-origin="0 0" transform="matrix(0.183, 0, 0, 0.183, 66.9033, 28.3458)">
</image>
<path id="Background" class="rpl0-1" d="M0,0v184.3h272.1V0H0z M176.9,182.8H91.1V30.9h85.8V182.8z"></path>
<path id="chevron_pattern" class="rpl1-1" d="M163.7,0h9.5l-4.7,3.4L163.7,0z M0,134.2v7.8l24.7,17.6l66.5-47.2v-8.1l-66.5,47.2
	L0,134.2z M24.7,38.9L79.5,0H68.1L24.6,30.8L0,13.5v7.8L24.7,38.9z M24.7,91l66.5-47.2v-8.1L24.6,82.9L0,65.6v7.8L24.7,91z M223.3,0
	h-11.4l-43.4,30.8L125,0h-11.4l43.5,30.9h19.8v2.1L223.3,0z M176.9,181v1.7h-2.4l-2.1,1.5h11.4l56.6-40.1l31.8,22.4v-7.7L240.3,136
	L176.9,181z M272.1,175.3l-31.8-22.7l-44.7,31.7h11.4l33.3-23.6l31.8,22.4V175.3z M0,169.7v7.8l9.4,6.7h11.2L0,169.7z M0,82.1v7.8
	l24.7,17.6l66.5-47.2v-8.1L24.6,99.4L0,82.1z M0,30v7.8l24.7,17.6l71.9-51l37.3,26.4h11.4L101.7,0H91.4L24.6,47.4L0,30z M24.7,3.4
	L29.4,0H20L24.7,3.4z M257.6,0l14.6,10.3V2.5L268.6,0H257.6z M176.9,76.9V85l63.4-45l31.8,22.4v-7.7l-31.8-22.7L176.9,76.9z
	 M245.5,0h-10.3l-58.3,41.3v8.1l63.4-45l31.8,22.4v-7.7L245.5,0z M139.1,182.8h-11.4l2.1,1.5h11.4L139.1,182.8z M91.1,164.5v-8.1
	l-39.2,27.8h11.4L91.1,164.5z M24.7,143.1l66.5-47.2v-8.1L24.6,135L0,117.6v7.8L24.7,143.1z M164.5,184.3l-2.1-1.5H151l2.1,1.5
	H164.5z M240.3,48.4l-63.4,45v8.1l63.4-45l31.8,22.4v-7.7L240.3,48.4z M91.1,139.9l-62.5,44.4H40L91.1,148V139.9z M176.9,129v8.1
	l63.4-45l31.8,22.4v-7.7L240.3,84L176.9,129z M240.3,100.5l-63.4,45v8.1l63.4-45l31.8,22.4v-7.7L240.3,100.5z"></path>
<g id="stamp">
	<path class="st2" d="M163.5,174.9c-0.4-1.7-0.4-3.4-0.4-5.1c0-1.7,0.2-3.4,0.7-5c0.5-1.6,1.2-3.2,2-4.6c0.9-1.5,1.9-2.8,3.1-4
		c1.2-1.2,2.5-2.6,4-3.4c1.5-0.8,3.1-1.1,4.8-1.5c1.7-0.4,3.4-0.6,5.1-0.5c1.7,0,3.5,0.1,5.1,0.6c1.6,0.5,3.2,1.3,4.6,2.2
		c1.5,0.9,2.9,1.8,4.1,3c1.2,1.2,1.9,2.8,2.8,4.3c0.8,1.5,1.8,2.9,2.2,4.6c0.4,1.7,0.5,3.4,0.5,5.1c0,1.7-0.2,3.4-0.7,5.1
		c-0.2,0.6-0.4,1.1-0.7,1.7h1.9c0.1-0.4,0.3-0.8,0.4-1.2c0.5-1.8,1.1-3.6,1.1-5.5c0-1.8-0.5-3.7-1-5.5c-0.5-1.9-1.1-3.6-2-5.2
		c-0.9-1.7-2.1-3.1-3.4-4.4c-1.3-1.3-2.6-2.7-4.2-3.7c-1.6-1-3.4-1.7-5.2-2.2c-1.8-0.5-3.7-0.5-5.6-0.6c-1.8,0-3.7-0.1-5.6,0.3
		c-1.9,0.5-3.5,1.4-5.1,2.3c-1.7,0.9-3.1,2-4.5,3.3c-1.3,1.3-2.6,2.7-3.6,4.3c-1,1.6-1.8,3.3-2.4,5.1c-0.5,1.8-0.5,3.7-0.6,5.6
		c0,1.8,0.1,3.7,0.6,5.5c0.2,0.6,0.3,1.3,0.5,1.9h1.9C163.9,176.5,163.7,175.7,163.5,174.9z"></path>
	<polygon class="st2" points="172.3,167.3 172,170 172.3,172.7 173.3,175.2 174.8,177.2 175.8,177.2 175.4,176.9 173.8,174.9 
		172.9,172.5 172.6,170 172.9,167.4 173.9,165.1 175.6,163.1 177.6,161.5 180,160.6 182.6,160.4 185.1,160.7 187.4,161.7 
		189.3,163.4 190.9,165.4 191.8,167.8 192.3,170.3 191.9,172.8 190.8,175.2 189.2,177.1 189,177.2 189.9,177.2 191.4,175.5 
		192.6,173 193,170.3 192.6,167.6 191.5,165.1 189.9,162.9 187.8,161.1 185.3,160 182.6,159.6 179.8,159.9 177.3,160.9 175.1,162.6 
		173.5,164.8 	"></polygon>
	<polygon class="st2" points="159.4,177.2 160.6,177.2 159.9,175.7 159,168.5 160.8,161.4 164.6,155.1 169.9,150.2 176.8,147.6 
		184,146.9 191,148.6 197.4,152.2 202.2,157.6 204.7,164.5 205.4,171.6 204.1,177.2 205.6,177.2 205.8,176.7 206.5,170.4 
		205.9,164.2 203.4,158.4 199.6,153.4 194.9,149.2 189.1,146.7 182.8,145.7 176.5,146.6 170.7,149 165.5,152.6 161.6,157.6 
		159.3,163.5 158.3,169.7 158.9,176 	"></polygon>
</g>
<path id="tape_shade" class="rpl3-1" d="M182.4,150.1l-5.5,1.5v-3L182.4,150.1z M176.9,165.5v3l5.5-1.5L176.9,165.5z M85.7,150.1
	l5.5,1.5v-3L85.7,150.1z M85.8,30.9l5.3,1.4v-2.8L85.8,30.9z M85.7,167l5.5,1.5v-3L85.7,167z"></path>
<path id="tapes" class="rpl4-1" d="M182.5,30.9H85.7V0.1h96.8V30.9z M182.5,152.4H85.7V167h96.8V152.4z M182.5,135.5H85.7v14.6h96.8
	V135.5z"></path>
<path id="AlpStories_LOGO" d="M137,22.6c0-0.1,0.1-0.2,0.2-0.2h2.4c0.1,0,0.2,0.1,0.2,0.2v2c0,0.1-0.1,0.2-0.2,0.2h-2.4
	c-0.1,0-0.2-0.1-0.2-0.2V22.6z M136.4,22.5v2.2c0,0.4,0.3,0.6,0.7,0.6h2.7c0.4,0,0.7-0.2,0.7-0.6v-2.2c0-0.4-0.3-0.6-0.7-0.6H137
	C136.6,22,136.4,22.1,136.4,22.5 M131.5,22v0.4c0,0,0,0,0,0h1.5c0,0,0,0,0,0v2.8c0,0,0,0,0,0h0.5c0,0,0,0,0,0v-2.8c0,0,0,0,0,0h1.5
	c0,0,0,0,0,0V22c0,0,0,0,0,0L131.5,22C131.5,22,131.5,22,131.5,22 M125.8,24.6v0.2c0,0.4,0.3,0.6,0.7,0.6h1h1.9
	c0.4,0,0.7-0.2,0.7-0.6v-1.2c0-0.4-0.3-0.6-0.7-0.6h-2.6c-0.1,0-0.2-0.1-0.2-0.2V22c0-0.1,0.1-0.2,0.2-0.2h2.4
	c0.1,0,0.2,0.1,0.2,0.2v0.1c0,0,0,0.1,0.1,0.1l0.5-0.1c0,0,0.1,0,0.1-0.1v-0.1c0-0.4-0.3-0.6-0.7-0.6h-2.6c-0.4,0-0.7,0.2-0.7,0.6
	v1.1c0,0.4,0.3,0.6,0.7,0.6h2.6c0.1,0,0.2,0.1,0.2,0.2v1c0,0.1-0.1,0.2-0.2,0.2h-2.7c-0.1,0-0.2-0.1-0.2-0.2v-0.1c0,0,0-0.1-0.1-0.1
	L125.8,24.6C125.9,24.5,125.8,24.5,125.8,24.6 M114.8,25.4C114.9,25.4,114.9,25.3,114.8,25.4l-2.2-4c0,0,0,0-0.1,0h-0.7
	c0,0,0,0-0.1,0l-2.2,4c0,0,0,0,0,0h0.6c0,0,0,0,0.1,0l1.9-3.5c0,0,0,0,0,0c0,0,0,0,0,0h0l1.1,2l-1.7,0c-0.2,0-0.3,0.1-0.3,0.2v0.1
	c0,0.1,0.1,0.2,0.3,0.2l2,0l0.5,1c0,0,0,0,0.1,0H114.8z M119.4,25.3v-0.4c0,0,0,0,0,0h-2.5c0,0,0,0,0,0V22c0,0,0,0,0,0h-0.5
	c0,0,0,0,0,0v3.3c0,0,0,0.1,0.1,0.1L119.4,25.3C119.4,25.4,119.4,25.3,119.4,25.3 M124.3,23.4v-0.9c0-0.4-0.3-0.6-0.7-0.6h-2.8
	c0,0-0.1,0-0.1,0.1v3.3c0,0,0,0,0,0l0.5,0c0,0,0,0,0,0v-2.8c0,0,0,0,0,0h2.1c0.1,0,0.2,0.1,0.2,0.2v0.7c0,0.1-0.1,0.2-0.2,0.2
	l-1.5,0c-0.2,0-0.3,0.1-0.3,0.2v0c0,0.1,0.1,0.2,0.3,0.2l1.7,0C124,24,124.3,23.8,124.3,23.4 M135.1,14.2c0,0-2.2-4.6-2.2-4.6
	c-0.2-0.3-0.4-0.6-0.8-0.6c-0.4,0-0.7,0.1-0.9,0.4c0,0-5.9,8.3-5.9,8.3c-0.1,0.2-0.2,0.4-0.1,0.5c0.1,0.1,0.3,0,0.4-0.2
	c0,0,5.7-7.2,5.7-7.2c0.2-0.2,0.4-0.4,0.6-0.4c0.2,0,0.4,0.2,0.5,0.5c0,0,1.6,3.7,1.6,3.7c0.1,0.3,0.5,0.5,0.7,0.4
	C135.2,14.9,135.3,14.5,135.1,14.2 M141.9,15.7c0.1-0.3,0-0.7-0.2-1c0,0-3.6-4.3-3.6-4.3c-0.1-0.1-0.2-0.3-0.1-0.4
	c0.1-0.2,0.2-0.3,0.4-0.3l2.8-0.5c0.1,0,0.3-0.1,0.2-0.2c0-0.1-0.1-0.2-0.3-0.2L137.3,9c-0.4,0-0.7,0.2-0.8,0.5
	c-0.1,0.3,0,0.6,0.2,0.8c0,0,3.7,4.2,3.7,4.2c0.1,0.2,0.2,0.4,0.1,0.6c-0.1,0.2-0.2,0.3-0.4,0.3c0,0-9.1,2.2-9.1,2.2
	c-0.2,0.1-0.4,0.2-0.4,0.3c0,0.1,0.2,0.2,0.5,0.1c0,0,10.1-1.8,10.1-1.8C141.5,16.2,141.8,16,141.9,15.7 M145.9,25.3
	c0,0,0-0.1,0-0.2c0,0-0.8-0.7-1.2-1.2l0.3,0c0.4,0,0.7-0.2,0.7-0.6v-0.9c0-0.4-0.3-0.6-0.7-0.6h-2.7c0,0-0.1,0-0.1,0.1v3.3
	c0,0,0,0,0,0l0.5,0c0,0,0,0,0,0v-2.8c0,0,0,0,0,0h1.9c0.1,0,0.2,0.1,0.2,0.2v0.7c0,0.1-0.1,0.2-0.2,0.2l-1.4,0
	c-0.2,0-0.3,0.1-0.3,0.2v0c0,0.1,0.1,0.2,0.3,0.2l0.6,0l1.3,1.3c0,0,0.1,0,0.1,0L145.9,25.3C145.9,25.4,145.9,25.3,145.9,25.3
	 M148.1,25.3V22c0,0,0,0,0,0h-0.5c0,0,0,0,0,0v3.3c0,0,0,0,0,0L148.1,25.3C148.1,25.4,148.1,25.3,148.1,25.3 M153.4,25.3v-0.4
	c0,0,0,0,0,0h-2.8c0,0,0,0,0,0v-1l1.3,0c0.2,0,0.3-0.1,0.3-0.2v0c0-0.1-0.1-0.2-0.3-0.2l-1.3,0v-0.8c0,0,0,0,0,0h2.7c0,0,0,0,0,0V22
	c0,0,0,0,0,0H150c0,0-0.1,0-0.1,0.1v3.3c0,0,0,0.1,0.1,0.1L153.4,25.3C153.4,25.4,153.4,25.3,153.4,25.3 M155.3,23.2v-0.5
	c0-0.1,0.1-0.2,0.2-0.2h2c0.1,0,0.2,0.1,0.2,0.2v0.1c0,0,0,0.1,0.1,0.1l0.4-0.1c0,0,0.1,0,0.1-0.1v-0.1c0-0.4-0.3-0.6-0.7-0.6h-2.1
	c-0.4,0-0.7,0.2-0.7,0.6v0.7c0,0.4,0.3,0.6,0.7,0.6h2.2c0.1,0,0.2,0.1,0.2,0.2v0.7c0,0.1-0.1,0.2-0.2,0.2h-2.2
	c-0.1,0-0.2-0.1-0.2-0.2v-0.2c0,0,0-0.1-0.1-0.1l-0.4,0.1c0,0-0.1,0-0.1,0.1v0.2c0,0.4,0.3,0.6,0.7,0.6h0.7h1.6
	c0.4,0,0.7-0.2,0.7-0.6v-0.9c0-0.4-0.3-0.6-0.7-0.6h-2.2C155.4,23.3,155.3,23.3,155.3,23.2"></path>
<path id="postage_stamp_3_" class="st5" d="M182,46.6l0.4-1.2c-1-0.3-1.6-1.3-1.3-2.2c0.3-0.9,1.3-1.5,2.3-1.2l0.4-1.2
	c-1-0.3-1.6-1.3-1.3-2.2c0.3-0.9,1.3-1.5,2.3-1.2l0.4-1.2c-1-0.3-1.6-1.3-1.3-2.2c0.3-0.9,1.3-1.5,2.3-1.2l0.4-1.2
	c-1-0.3-1.6-1.3-1.3-2.2c0.3-0.9,1.3-1.5,2.3-1.2l0.4-1.2c-1-0.3-1.6-1.3-1.3-2.2c0.3-0.9,1.3-1.5,2.3-1.2l0.4-1.2
	c-1-0.3-1.6-1.3-1.3-2.3l-1.3-0.4c-0.3,1-1.3,1.6-2.2,1.3c-0.9-0.3-1.5-1.3-1.2-2.3l-1.3-0.4c-0.3,1-1.3,1.6-2.2,1.3
	c-0.9-0.3-1.5-1.3-1.2-2.3l-1.3-0.4c-0.3,1-1.3,1.6-2.2,1.3s-1.5-1.3-1.2-2.3l-1.3-0.4c-0.3,1-1.3,1.6-2.2,1.3
	c-0.9-0.3-1.5-1.3-1.2-2.3l-1.3-0.4c-0.3,1-1.3,1.6-2.3,1.3l-0.4,1.2c1,0.3,1.6,1.3,1.3,2.2c-0.3,0.9-1.3,1.5-2.3,1.2l-0.4,1.2
	c1,0.3,1.6,1.3,1.3,2.2s-1.3,1.5-2.3,1.2l-0.4,1.2c1,0.3,1.6,1.3,1.3,2.2s-1.3,1.5-2.3,1.2l-0.4,1.2c1,0.3,1.6,1.3,1.3,2.2
	c-0.3,0.9-1.3,1.5-2.3,1.2l-0.4,1.2c1,0.3,1.6,1.3,1.3,2.2c-0.3,0.9-1.3,1.5-2.3,1.2l-0.4,1.2c1,0.3,1.6,1.3,1.3,2.3l1.3,0.4
	c0.3-1,1.3-1.6,2.2-1.3c0.9,0.3,1.5,1.3,1.2,2.3l1.3,0.4c0.3-1,1.3-1.6,2.2-1.3c0.9,0.3,1.5,1.3,1.2,2.3l1.3,0.4
	c0.3-1,1.3-1.6,2.2-1.3c0.9,0.3,1.5,1.3,1.2,2.3l1.3,0.4c0.3-1,1.3-1.6,2.2-1.3c0.9,0.3,1.5,1.3,1.2,2.3l1.3,0.4
	C179.9,46.8,181,46.3,182,46.6z"></path>
<path id="postage_stamp_2_" class="st6" d="M182.4,46.3l0.4-1.2c-1-0.3-1.6-1.3-1.3-2.2c0.3-0.9,1.3-1.5,2.3-1.2l0.4-1.2
	c-1-0.3-1.6-1.3-1.3-2.2c0.3-0.9,1.3-1.5,2.3-1.2l0.4-1.2c-1-0.3-1.6-1.3-1.3-2.2c0.3-0.9,1.3-1.5,2.3-1.2l0.4-1.2
	c-1-0.3-1.6-1.3-1.3-2.2s1.3-1.5,2.3-1.2l0.4-1.2c-1-0.3-1.6-1.3-1.3-2.2c0.3-0.9,1.3-1.5,2.3-1.2l0.4-1.2c-1-0.3-1.6-1.3-1.3-2.3
	l-1.3-0.4c-0.3,1-1.3,1.6-2.2,1.3c-0.9-0.3-1.5-1.3-1.2-2.3l-1.3-0.4c-0.3,1-1.3,1.6-2.2,1.3c-0.9-0.3-1.5-1.3-1.2-2.3l-1.3-0.4
	c-0.3,1-1.3,1.6-2.2,1.3s-1.5-1.3-1.2-2.3l-1.3-0.4c-0.3,1-1.3,1.6-2.2,1.3s-1.5-1.3-1.2-2.3l-1.3-0.4c-0.3,1-1.3,1.6-2.3,1.3
	l-0.4,1.2c1,0.3,1.6,1.3,1.3,2.2c-0.3,0.9-1.3,1.5-2.3,1.2l-0.4,1.2c1,0.3,1.6,1.3,1.3,2.2c-0.3,0.9-1.3,1.5-2.3,1.2l-0.4,1.2
	c1,0.3,1.6,1.3,1.3,2.2s-1.3,1.5-2.3,1.2l-0.4,1.2c1,0.3,1.6,1.3,1.3,2.2c-0.3,0.9-1.3,1.5-2.3,1.2l-0.4,1.2c1,0.3,1.6,1.3,1.3,2.2
	c-0.3,0.9-1.3,1.5-2.3,1.2l-0.4,1.2c1,0.3,1.6,1.3,1.3,2.3l1.3,0.4c0.3-1,1.3-1.6,2.2-1.3s1.5,1.3,1.2,2.3l1.3,0.4
	c0.3-1,1.3-1.6,2.2-1.3s1.5,1.3,1.2,2.3l1.3,0.4c0.3-1,1.3-1.6,2.2-1.3c0.9,0.3,1.5,1.3,1.2,2.3l1.3,0.4c0.3-1,1.3-1.6,2.2-1.3
	c0.9,0.3,1.5,1.3,1.2,2.3l1.3,0.4C180.4,46.6,181.5,46,182.4,46.3z"></path>
<rect id="postage_stamp_background_2" x="164.4" y="18.5" transform="matrix(0.9602 0.2794 -0.2794 0.9602 15.5242 -47.4723)" class="rpl7-1" width="19.7" height="24.4"></rect>
<path id="man_silhouette" d="M181.4,30.3c-0.1-0.4-1-0.4-2.2-0.5c0.2-0.8,0.5-1.9,0.8-2.9c0.6-2,1-3.2,1.3-4.2
	c-0.2-0.8-4.2-1.9-4.2-1.9s-4-1.2-4.6-0.6c-0.2,1-0.6,2.2-1.1,4.2c-0.3,1-0.6,2-0.9,2.9c-1.1-0.7-1.8-1.1-2.1-0.8
	c-0.6,0.6-1.3,4,5.3,5.9C180.3,34.4,181.6,31.2,181.4,30.3z M176.7,22.3c2.7,0.8,4.2,0.8,4.2,0.8s-1.3,0.5-4.3-0.4
	c-2.9-0.8-3.9-1.9-3.9-1.9S174,21.5,176.7,22.3z M176.8,40.5c-0.2,0.6-0.5,1-0.8,1.1c-0.2,0-0.4,0-0.6-0.2c-0.2-0.2-0.4-0.7-0.1-1.3
	c0.1-0.3,1.2-4.6,1.4-5.1c0,0,0,0,0,0c0.2-0.7-0.2-1.4-0.9-1.6c-0.7-0.2-1.4,0.2-1.6,0.9c-0.2,0.7,0.2,1.4,0.9,1.6
	c0.5,0.1,1,0,1.3-0.4c-0.3,1.3-1.2,4.3-1.2,4.6c-0.2,0.7-0.1,1.2,0.2,1.5c0.1,0.1,0.2,0.2,0.4,0.2c0.1,0,0.2,0,0.3,0
	c0.2-0.1,0.7-0.3,0.9-1.2L176.8,40.5z M175.2,35.6c-0.5-0.2-0.8-0.7-0.7-1.2c0.2-0.5,0.7-0.8,1.2-0.7c0.5,0.2,0.8,0.7,0.7,1.2
	C176.2,35.4,175.7,35.7,175.2,35.6z M175,38.4c0,0-0.3,0.7-1.2,0.6c-0.9-0.1-1.6-1-1.6-1s-1.2,0.4-1.9-0.1c-0.8-0.4-0.7-1.2-0.7-1.2
	s0.2,0.4,0.8,0.4c0.6,0,0.7-0.6,1.2-0.6c0.5,0,0.8,0.6,0.8,0.6s0.6-0.4,1-0.1c0.4,0.3,0.2,0.9,0.7,1.2C174.6,38.6,175,38.4,175,38.4
	z"></path>
<path id="With_best_wishes_postmark" class="st2" d="M91.7,39.9c-1.5,0.4-3,0.6-4.4,0.6c-1.5,0-3-0.3-4.4-0.7
	c-1.4-0.4-2.8-1-4.1-1.7c-1.3-0.8-2.4-1.7-3.5-2.8c-1-1.1-2-2.2-2.7-3.5c-0.7-1.3-1.1-2.7-1.5-4.2c-0.4-1.5-0.5-2.9-0.5-4.4
	c0-1.5,0-3,0.4-4.4c0.4-1.4,1.1-2.8,1.9-4c0.8-1.3,1.8-2.4,2.8-3.4c1.1-1,2.2-1.9,3.5-2.6c1.3-0.7,2.6-1.5,4.1-1.8
	c1.5-0.4,3-0.3,4.4-0.3c1.5,0,3,0,4.4,0.4c1.4,0.4,2.8,1,4.1,1.8c1.3,0.8,2.3,1.9,3.4,2.9c1,1.1,1.9,2.2,2.7,3.5
	c0.7,1.3,1.2,2.7,1.6,4.1c0.4,1.5,0.8,2.9,0.8,4.4c0,1.5-0.5,2.9-0.9,4.4c-0.4,1.4-0.9,2.8-1.6,4.1c-0.8,1.3-1.8,2.3-2.9,3.4
	c-1.1,1-2.1,2-3.5,2.8C94.6,39,93.2,39.5,91.7,39.9z M83.8,8.3c-1.3,0.3-2.7,0.6-3.8,1.2c-1.2,0.7-2.2,1.8-3.2,2.7
	c-1,0.9-1.8,2-2.5,3.2c-0.7,1.2-1.3,2.4-1.6,3.7c-0.4,1.3-0.5,2.6-0.5,4c0,1.3,0,2.7,0.3,4c0.3,1.3,0.8,2.6,1.5,3.8
	c0.7,1.2,1.7,2.2,2.6,3.1c0.9,1,1.9,1.9,3.1,2.6c1.2,0.7,2.4,1.3,3.7,1.7c1.3,0.4,2.7,0.6,4,0.6c1.3,0,2.6-0.3,4-0.7
	c1.3-0.3,2.7-0.6,3.8-1.3c1.2-0.7,2.2-1.7,3.1-2.6c1-0.9,1.8-2,2.5-3.2c0.7-1.2,1.4-2.3,1.8-3.6c0.4-1.3,0.5-2.7,0.6-4
	c0-1.3-0.1-2.7-0.4-4c-0.3-1.3-1.1-2.5-1.7-3.7c-0.7-1.2-1.3-2.4-2.2-3.4c-0.9-1-2.1-1.7-3.3-2.4c-1.2-0.7-2.4-1.4-3.7-1.8
	c-1.3-0.4-2.7-0.4-4-0.4C86.5,7.8,85.1,8,83.8,8.3z M89.5,31.4l-2.2,0.2l-2.1-0.3l-2-0.9l-1.7-1.3l-1.3-1.7l-0.8-2l-0.2-2.2l0.2-2.2
	l0.9-2l1.3-1.7l1.7-1.3l2-0.8l2.2-0.3l2.2,0.3l2,0.9l1.7,1.4l1.3,1.7l0.9,2l0.3,2.2l-0.3,2.2l-1,2l-1.4,1.7l-1.7,1.4L89.5,31.4z
	 M85.6,15.7l-1.9,0.7l-1.6,1.2l-1.3,1.6L80,21.2l-0.3,2l0.2,2l0.7,1.9l1.3,1.6l1.5,1.3l1.9,0.8l2,0.3l2-0.2l1.9-0.7l1.6-1.2l1.3-1.6
	l0.9-1.8l0.3-2l-0.3-2l-0.8-1.9L93,17.9l-1.5-1.3l-1.9-0.9l-2-0.2L85.6,15.7z M92.2,41.9l-5,0.4l-5-0.6l-4.6-2l-3.8-3.2l-3.2-3.9
	l-1.8-4.7l-0.5-5l0.8-4.9l1.8-4.7l3-4l4.2-2.9l4.6-1.9l5-0.7l5,0.8l4.6,2l3.7,3.4l3,4l2,4.6l0.5,5l-0.6,5l-2.2,4.5l-3.1,3.9
	l-3.9,3.1L92.2,41.9z M83,5.4l-5.4,2.1l-4.3,3.9l-2.9,5L68.9,22l0.7,5.8l2.2,5.3l3.7,4.4l5,3.1l5.7,1.1l5.7-0.6l5.4-2.1l4.3-3.8
	l2.8-5l1.3-5.6l-0.5-5.7l-2-5.4L99.4,9l-5-2.8l-5.6-1.4L83,5.4z M74.1,18.8l0.8,0.4l0.8,0.4l0.8,0.4l0.8,0.4l0.8,0.4l0.7,0.3
	l0.4,0.5l-0.7,0.3L77.6,22l-0.8,0.1l-0.8,0l-0.8,0.1l0.7,0.3l0.7,0.4l0.7,0.3l0.7,0.4l0.7,0.3l0,0.6l-0.9,0.3l-0.9,0.1l-1,0.1l-1,0
	l-0.8-0.1l-0.5,0.4L73.4,25l0.7-0.7l0.8-0.1l0.8-0.1l0.8-0.1l0.8,0l0.8-0.1l-0.7-0.3l-0.7-0.3L76,22.9l-0.7-0.3l-0.7-0.3l-1-0.1
	l0.4-0.6l0.8-0.1l0.8-0.1l0.8-0.1l0.8,0l0.8,0l-0.7-0.4l-0.7-0.4L76.1,20l-0.8-0.3l-0.8-0.2L74,20.1l-0.3-0.7l0.1-0.9L74.1,18.8z
	 M75.3,15.3l0,0.6l-0.7-0.2l0-0.6L75.3,15.3L75.3,15.3z M80.4,18.5l-0.5,0.5l-0.7-0.2l-0.6-0.5l-0.6-0.5l-0.6-0.5l-0.5-0.5l-0.2,0.4
	l0-0.5l0.9,0.1l0.7,0.5l0.7,0.5l0.8,0.4l0.7-0.3L80.4,18.5L80.4,18.5z M79.3,14l-0.5,0.5l0.5,0.7l0.6,0.6l0.5,0.6l0.6,0.5l0.6-0.4
	l-0.2,0.9l-0.9,0.2L80,16.9l-0.5-0.6l-0.5-0.7L78.4,15l-0.2,0.3l-0.3-1.1l0-0.7l0.7,0.7l0.6-0.7L79.3,14z M81.6,16.5L81.6,16.5
	L81.6,16.5z M84.9,15l-0.7,0.3l-0.5-0.6l-0.3-0.7l-0.2-0.8L83,12.4l-0.5-0.6l-0.5,0.5L82,13.2l0.1,0.8l0.2,0.9l0.3,0.8l-0.4,0.7
	l-0.4-0.7L81.5,15l-0.3-0.8l-0.3-0.8l-0.3-0.8l-0.3-0.8l-0.3-0.8l-0.3-0.8l-0.5,0.3L80,9.9l0.3,0.8l0.4,0.8l0.3,0.8l0.3,0.8l0.3,0.8
	l0-0.8l0.1-0.8l0.3-0.7l0.7-0.2l0.6,0.5l0.3,0.8l0.3,0.8l0.3,0.7l0.8,0.3L84.9,15L84.9,15z M91,14.3l-0.6,0.4l-0.7,0.2l-0.8,0
	l-0.7-0.2l-0.7-0.1l0.4-0.3l0.3-0.7l0.2-0.7l0.2-0.8l0.2-0.8l0.3-0.8l0.3-0.8l-0.5-0.1l1-0.1l0.8,0.1l0.8,0.3l0.4,0.8l-0.5,0.8
	L90.7,12l0.6,0.6l0.1,0.9L91,14.3L91,14.3z M90.7,13.1l-0.5-0.7l-0.9-0.2l-0.4,1.1l-0.3,0.7l0.3,0.6l0.9,0l0.7-0.5L90.7,13.1
	L90.7,13.1z M90.9,10.3L90.4,10l-0.6-0.1l-0.2,0.9l-0.3,0.9l0.6,0.1l0.6-0.1l0.5-0.6L90.9,10.3L90.9,10.3z M94.8,15l-0.7,0.2l-0.7,0
	l-0.6-0.2l-0.4,0.6l0.7,0.5l0.6-0.1l-0.3,0.4l-0.9,0l-0.8-0.5l-0.2-0.8l0.3-0.7l0.6-0.6l0.7-0.5l0.7-0.4l0.8-0.1l0.7,0.3l0.3,0.7
	l-0.2,0.7L94.8,15L94.8,15z M95,14l-0.1-0.7l-0.8,0l-0.6,0.4L93.2,14l-0.1,0.6l0.7,0l0.7-0.2L95,14L95,14z M95.5,18.5l-0.7-0.1
	l-0.7-0.3l-0.5-0.5l0-0.7l0.8-0.1l0,1.2l0.7,0.4l0.5-0.6l0.1-0.8l0.1-0.8l0.6-0.6l0.8-0.1L98,16l0.2,0.8l-0.5-0.2L97.6,16L97,15.8
	l-0.4,0.5l-0.1,0.9l-0.3,0.9L95.5,18.5L95.5,18.5z M99.4,19.9l-0.3-0.7l-0.8,0.2l-0.8,0.2l-0.8,0.2l-0.7,0.4l0.1,0.7l-0.8-0.5
	l0.3-0.9l0.8-0.3l0.8-0.2l0.8-0.2l0.8-0.2l-0.2-0.4l1.1,0.1l0.7,0.3l-1,0.3l0.4,0.9L99.4,19.9z M96.2,20.9L96.2,20.9L96.2,20.9z
	 M99.5,30.7l-0.7-0.6l-0.7-0.5L97.5,29l-0.7-0.6l-0.6-0.6l-0.6-0.4l-0.3-0.6l0.8-0.2l0.8,0.1l0.8,0.1l0.8,0.1l0.8,0.2l-0.6-0.5
	l-0.6-0.5l-0.6-0.5l-0.6-0.5l-0.6-0.5l0.1-0.6l0.9,0l0.9,0.1l1,0.2l0.9,0.2l0.8,0.2l0.5-0.3l0.2,0.3l-0.8,0.5l-0.8-0.1l-0.8-0.1
	L98.4,25L97.7,25l-0.8-0.1l0.6,0.5l0.6,0.5l0.6,0.4l0.6,0.5l0.6,0.5l0.8,0.3l-0.5,0.5l-0.8-0.1l-0.8-0.1l-0.8-0.1l-0.8-0.1l-0.8-0.2
	l0.6,0.6l0.6,0.6l0.6,0.5l0.6,0.5l0.7,0.3l0.6-0.4l0.2,0.8l-0.3,0.9L99.5,30.7z M93.3,29.5l0.6-0.4l0.7,0.4l0.5,0.6l0.5,0.6l0.4,0.6
	l0.4,0.7l0.3-0.3l-0.1,0.5l-0.9-0.3l-0.5-0.7l-0.6-0.6L94,29.9L93.3,30L93.3,29.5z M97.5,33.9l0.1-0.6l0.6,0.4l-0.1,0.6L97.5,33.9z
	 M91.3,31.7l0.2-0.7l0.4-0.6l0.6-0.4l0.7,0.1l0.1,0.8l-0.9-0.2l-0.6,0.5l0.2,0.7l0.7,0.3l0.9,0.2l0.7,0.6l0,0.9l-0.6,0.8l-0.8,0.1
	l0.2-0.5l0.6,0l0.3-0.6l-0.5-0.4l-0.9-0.2l-0.8-0.4L91.3,31.7L91.3,31.7z M87.3,31.9l0.8,0l0.3,0.7l0,0.8l-0.1,0.8l0,0.8l0.2,0.7
	l0.7-0.3l0.3-0.7l0.2-0.8l0.1-0.9l0.1-0.9l0.5-0.6l0.2,0.8l0.1,0.8l0,0.8l0.1,0.8l0,0.8l0,0.8l0,0.8l0,0.8l0.6-0.1l-1,0.4l-0.1-0.8
	l-0.1-0.9l0-0.9l-0.1-0.9L90,34l-0.2,0.7l-0.3,0.7L89,35.9l-0.7,0.2l-0.5-0.5l-0.1-0.8l0-0.7l-0.1-0.7l-0.1-0.7L87,32.3L87.3,31.9z
	 M83.4,33.6l0.5-0.4l0.6-0.3l0.7,0l0.2-0.6l-0.7-0.4l-0.8,0.4l0-0.3l0.8-0.4l0.9,0l0.6,0.5l0.1,0.8l-0.3,0.8l-0.4,0.7l-0.5,0.6
	l-0.7,0.5l-0.8,0L83.1,35L83,34.2L83.4,33.6L83.4,33.6z M83.6,34.5l0.3,0.7l0.7-0.2l0.4-0.5l0.3-0.6l-0.1-0.6l-0.7,0.2l-0.5,0.5
	L83.6,34.5z M81.6,30.4l0.7-0.1l0.7,0.2l0.7,0.3l0,0.7l-0.6,0.1L83,30.9l-0.5-0.4l-0.7,0.2l0,0.8l0.2,0.8l0,0.8l-0.5,0.6l-0.8,0.2
	l-0.8-0.3l-0.3-0.7l0.4-0.4l0.1,0.7l0.8,0.3l0.3-0.9l-0.3-0.8l0-0.8L81.6,30.4L81.6,30.4z M78.2,31.3l0.7-0.6l0.7-0.5l0.8-0.3
	L80,30.7l-0.7,0.6l-0.7,0.6l-0.7,0.6l-0.8,0.6l-0.8-0.2l0.5-0.6l0.7-0.5L78.2,31.3L78.2,31.3z M81.3,28.9l0.6,0.1l-0.4,0.6l-0.6-0.1
	L81.3,28.9L81.3,28.9z M77,29.6l0.8-0.4l0.8-0.3l0.8-0.2l-0.6,0.6l-0.8,0.5l-0.8,0.5l-0.8,0.5l-0.9,0.4l-0.7-0.3l0.6-0.5l0.7-0.4
	L77,29.6L77,29.6z M80.5,27.8L81,28l-0.5,0.5L80,28.3L80.5,27.8L80.5,27.8z M76.1,27.8l0.9-0.3l0.9-0.2l0.9,0L78,27.8l-0.9,0.4
	l-0.9,0.3l-0.9,0.3l-0.9,0.3l-0.6-0.4l0.7-0.4l0.8-0.3L76.1,27.8L76.1,27.8z M79.8,26.6l0.5,0.3l-0.6,0.4L79.2,27L79.8,26.6
	L79.8,26.6z"></path>
<path id="postage_stamp_1_" class="st5" d="M98,132.2l-0.2-1c-0.8,0.2-1.6-0.3-1.8-1.1c-0.2-0.8,0.3-1.6,1.2-1.7l-0.2-1
	c-0.8,0.2-1.6-0.3-1.8-1.1c-0.2-0.8,0.3-1.6,1.2-1.7l-0.2-1c-0.8,0.2-1.6-0.3-1.8-1.1s0.3-1.6,1.2-1.7l-0.2-1
	c-0.8,0.2-1.6-0.3-1.8-1.1s0.3-1.6,1.2-1.7l-0.2-1c-0.8,0.2-1.6-0.3-1.8-1.1c-0.2-0.8,0.3-1.6,1.2-1.7l-0.2-1
	c-0.8,0.2-1.6-0.3-1.8-1.1l-1,0.2c0.2,0.8-0.3,1.6-1.1,1.8c-0.8,0.2-1.6-0.3-1.7-1.2l-1,0.2c0.2,0.8-0.3,1.6-1.1,1.8
	c-0.8,0.2-1.6-0.3-1.7-1.2l-1,0.2c0.2,0.8-0.3,1.6-1.1,1.8c-0.8,0.2-1.6-0.3-1.7-1.2l-1,0.2c0.2,0.8-0.3,1.6-1.1,1.8
	c-0.8,0.2-1.6-0.3-1.7-1.2l-1,0.2c0.2,0.8-0.3,1.6-1.1,1.8l0.2,1c0.8-0.2,1.6,0.3,1.8,1.1c0.2,0.8-0.3,1.6-1.2,1.7l0.2,1
	c0.8-0.2,1.6,0.3,1.8,1.1c0.2,0.8-0.3,1.6-1.2,1.7l0.2,1c0.8-0.2,1.6,0.3,1.8,1.1c0.2,0.8-0.3,1.6-1.2,1.7l0.2,1
	c0.8-0.2,1.6,0.3,1.8,1.1c0.2,0.8-0.3,1.6-1.2,1.7l0.2,1c0.8-0.2,1.6,0.3,1.8,1.1c0.2,0.8-0.3,1.6-1.2,1.7l0.2,1
	c0.8-0.2,1.6,0.3,1.8,1.1l1-0.2c-0.2-0.8,0.3-1.6,1.1-1.8c0.8-0.2,1.6,0.3,1.7,1.2l1-0.2c-0.2-0.8,0.3-1.6,1.1-1.8
	c0.8-0.2,1.6,0.3,1.7,1.2l1-0.2c-0.2-0.8,0.3-1.6,1.1-1.8c0.8-0.2,1.6,0.3,1.7,1.2l1-0.2c-0.2-0.8,0.3-1.6,1.1-1.8
	c0.8-0.2,1.6,0.3,1.7,1.2l1-0.2C96.6,133.2,97.1,132.4,98,132.2z"></path>
<path id="postage_stamp" class="st6" d="M97.7,132.3l-0.2-1c-0.8,0.2-1.6-0.3-1.8-1.1c-0.2-0.8,0.3-1.6,1.2-1.7l-0.2-1
	c-0.8,0.2-1.6-0.3-1.8-1.1c-0.2-0.8,0.3-1.6,1.2-1.7l-0.2-1c-0.8,0.2-1.6-0.3-1.8-1.1c-0.2-0.8,0.3-1.6,1.2-1.7l-0.2-1
	c-0.8,0.2-1.6-0.3-1.8-1.1c-0.2-0.8,0.3-1.6,1.2-1.7l-0.2-1c-0.8,0.2-1.6-0.3-1.8-1.1c-0.2-0.8,0.3-1.6,1.2-1.7l-0.2-1
	c-0.8,0.2-1.6-0.3-1.8-1.1l-1,0.2c0.2,0.8-0.3,1.6-1.1,1.8c-0.8,0.2-1.6-0.3-1.7-1.2l-1,0.2c0.2,0.8-0.3,1.6-1.1,1.8
	c-0.8,0.2-1.6-0.3-1.7-1.2l-1,0.2c0.2,0.8-0.3,1.6-1.1,1.8c-0.8,0.2-1.6-0.3-1.7-1.2l-1,0.2c0.2,0.8-0.3,1.6-1.1,1.8
	c-0.8,0.2-1.6-0.3-1.7-1.2l-1,0.2c0.2,0.8-0.3,1.6-1.1,1.8l0.2,1c0.8-0.2,1.6,0.3,1.8,1.1c0.2,0.8-0.3,1.6-1.2,1.7l0.2,1
	c0.8-0.2,1.6,0.3,1.8,1.1c0.2,0.8-0.3,1.6-1.2,1.7l0.2,1c0.8-0.2,1.6,0.3,1.8,1.1c0.2,0.8-0.3,1.6-1.2,1.7l0.2,1
	c0.8-0.2,1.6,0.3,1.8,1.1c0.2,0.8-0.3,1.6-1.2,1.7l0.2,1c0.8-0.2,1.6,0.3,1.8,1.1c0.2,0.8-0.3,1.6-1.2,1.7l0.2,1
	c0.8-0.2,1.6,0.3,1.8,1.1l1-0.2c-0.2-0.8,0.3-1.6,1.1-1.8c0.8-0.2,1.6,0.3,1.7,1.2l1-0.2c-0.2-0.8,0.3-1.6,1.1-1.8
	c0.8-0.2,1.6,0.3,1.7,1.2l1-0.2c-0.2-0.8,0.3-1.6,1.1-1.8c0.8-0.2,1.6,0.3,1.7,1.2l1-0.2c-0.2-0.8,0.3-1.6,1.1-1.8
	c0.8-0.2,1.6,0.3,1.7,1.2l1-0.2C96.4,133.3,96.9,132.5,97.7,132.3z"></path>
<rect id="postage_stamp_background_1" x="77.6" y="114.3" transform="matrix(0.9752 -0.2214 0.2214 0.9752 -25.3988 22.0593)" class="rpl7-1" width="16.1" height="20"></rect>
<path id="Sity_silhouette" d="M93.2,128.2l0.6-0.1l0.1,0.6l-0.6,0.1L93.2,128.2z M92.4,129.1l0.6-0.1l-0.1-0.6l-0.6,0.1L92.4,129.1z
	 M91.4,129.3l0.6-0.1l-0.1-0.6l-0.6,0.1L91.4,129.3z M90.4,129.5l0.6-0.1l-0.1-0.6l-0.6,0.1L90.4,129.5z M93.6,129.9l0.6-0.1
	l-0.1-0.6l-0.6,0.1L93.6,129.9z M92.6,130.1l0.6-0.1l-0.1-0.6l-0.6,0.1L92.6,130.1z M91.6,130.3l0.6-0.1l-0.1-0.6l-0.6,0.1
	L91.6,130.3z M90.7,130.5l0.6-0.1l-0.1-0.6l-0.6,0.1L90.7,130.5z M93.8,130.9l0.6-0.1l-0.1-0.6l-0.6,0.1L93.8,130.9z M92.8,131.1
	l0.6-0.1l-0.1-0.6l-0.6,0.1L92.8,131.1z M91.9,131.3l0.6-0.1l-0.1-0.6l-0.6,0.1L91.9,131.3z M90.9,131.5l0.6-0.1l-0.1-0.6l-0.6,0.1
	L90.9,131.5z M94,131.9l0.6-0.1l-0.1-0.6l-0.6,0.1L94,131.9z M93.1,132.1l0.6-0.1l-0.1-0.6l-0.6,0.1L93.1,132.1z M92.1,132.4
	l0.6-0.1l-0.1-0.6l-0.6,0.1L92.1,132.4z M91.1,132.6l0.6-0.1l-0.1-0.6l-0.6,0.1L91.1,132.6z M92.8,121l1.5,6.4l0,0.2l1.1,4.8l-5,1.1
	l-0.5,0.1l-0.6,0.1l-0.6,0.1l-3.3,0.7l-5.1,1.1l-3.9-17.4l5.1-1.1l2.2,9.6l3.9-0.9l0.5,2.3l0.5-0.4l0.4,1.8l0.5-0.1l-0.4-1.8l1-0.1
	l-1.3-5.8l0,0l1.2-3.8l-0.4-1.6l0.1,0l0.4,1.6L92.8,121L92.8,121z M77.4,119.8l2.4-0.5l-0.1-0.6l-2.4,0.5L77.4,119.8z M79.8,120.4
	l0.1,0.6l0.3-0.1l-0.1-0.6L79.8,120.4z M79.5,120.2l-0.1-0.6l-0.6,0.1l0.1,0.6L79.5,120.2z M79,120.6l0.1,0.6l0.3-0.1l-0.1-0.6
	L79,120.6z M79.5,121.1l0.3-0.1l-0.1-0.6l-0.3,0.1L79.5,121.1z M77.6,120.6l1.1-0.2l-0.1-0.6l-1.1,0.2L77.6,120.6z M77.7,121.5
	l1.1-0.2l-0.1-0.6l-1.1,0.2L77.7,121.5z M78.3,123.9l1.1-0.2l0.2-0.1l0.5-0.1l0.6-0.1l-0.1-0.6L80,123l-0.5,0.1l-0.2,0.1l-1.1,0.2
	L78.3,123.9z M80.3,124.3L80.3,124.3l0-0.6l-0.1,0l-0.5,0.1l0,0l0.1,0.6l0,0L80.3,124.3z M79.9,124.7l0.1,0.6l0.3-0.1l-0.1-0.6
	L79.9,124.7z M80.4,125.2l0.3-0.1l-0.1-0.6l-0.3,0.1L80.4,125.2z M78.5,124.8l1.1-0.2l0,0l-0.1-0.6l0,0l-1.1,0.2L78.5,124.8z
	 M78.7,125.6l1.1-0.2l0,0l-0.1-0.6l0,0l-1.1,0.2L78.7,125.6z M79,127.2l1.1-0.2l-0.1-0.6l-1.1,0.2L79,127.2z M79.2,128.1l1.1-0.2
	l-0.1-0.6l-1.1,0.2L79.2,128.1z M79.4,128.9l1.1-0.2l0,0l-0.1-0.6l0,0l-1.1,0.2L79.4,128.9z M79.6,129.7l1.1-0.2l-0.1-0.6l-1.1,0.2
	L79.6,129.7z M81.3,132.2l-1.1,0.2l0.1,0.6l1.1-0.2L81.3,132.2z M80.9,130.6l-1.1,0.2l0.1,0.6l1.1-0.2L80.9,130.6z M84.4,132.4
	l-2.7,0.6l0.1,0.6l2.7-0.6L84.4,132.4z M82.2,132.6l-0.1-0.6l-0.5,0.1l0.1,0.6L82.2,132.6z M83.6,132.3l-0.1-0.6l-1.1,0.2l0.1,0.6
	L83.6,132.3z M84.2,131.6l-0.5,0.1l0.1,0.6l0.5-0.1L84.2,131.6z M84,130.8l-2.7,0.6l0.1,0.6l2.7-0.6L84,130.8z M81.8,131l-0.1-0.6
	l-0.5,0.1l0.1,0.6L81.8,131z M83.2,130.7l-0.1-0.6l-1.1,0.2l0.1,0.6L83.2,130.7z M83.9,129.9l-0.5,0.1l0.1,0.6l0.5-0.1L83.9,129.9z
	 M83.7,129.1l-3.1,0.7l0.1,0.6l3.1-0.7L83.7,129.1z M80.6,128.1l0.1,0.6l0,0l0.5-0.1l0,0l-0.1-0.6l0,0L80.6,128.1L80.6,128.1z
	 M80.9,126.8l-0.1-0.6l-0.5,0.1l0.1,0.6L80.9,126.8z M83.5,128.3l-1.9,0.4l-0.8,0.2l0.1,0.6l0.8-0.2l1.9-0.4L83.5,128.3z
	 M83.3,127.4l-0.5,0.1l-0.2,0.1l-0.3,0.1l-0.8,0.2l0.1,0.6l0.8-0.2l0.3-0.1l0.2-0.1l0.5-0.1L83.3,127.4z M83.1,126.6l-1.1,0.2
	l-1.1,0.2l-0.5,0.1l0,0l0.1,0.6l0,0l0.5-0.1l1.1-0.2l1.1-0.2L83.1,126.6z M82.9,125.8l-0.5,0.1l-0.2,0.1l-1.1,0.2l0,0l0.1,0.6l0,0
	l1.1-0.2l0.2-0.1l0.5-0.1L82.9,125.8z M82.7,125l-2.7,0.6l-0.4,0.1l0.1,0.6l0.4-0.1l2.7-0.6L82.7,125z M82.6,124.1l-1.1,0.2
	l-0.5,0.1l-0.3,0.1l0,0l0.1,0.6l0,0l0.3-0.1l0.5-0.1l1.1-0.2L82.6,124.1z M82.4,123.3l-1.1,0.2l0.1,0.6l1.1-0.2L82.4,123.3z
	 M82.2,122.5l-1.1,0.2l0.1,0.6l1.1-0.2L82.2,122.5z M82,121.7l-1.8,0.4l0.1,0.6l1.8-0.4L82,121.7z M81.8,120.8l-2.7,0.6l0.1,0.6
	l2.7-0.6L81.8,120.8z M81.6,120l-1.1,0.2l0.1,0.6l1.1-0.2L81.6,120z M81.4,119.2l-1.1,0.2l0.1,0.6l1.1-0.2L81.4,119.2z M81.2,118.3
	l-1.1,0.2l0.1,0.6l1.1-0.2L81.2,118.3z M85.3,130.7l-0.3,0.1l0.1,0.6l0.3-0.1L85.3,130.7z M84.9,129.1l-0.3,0.1l0.1,0.6l0.3-0.1
	L84.9,129.1z M84.6,127.5l-0.3,0.1l0.1,0.6l0.3-0.1L84.6,127.5z M85.8,130.5l-0.3,0.1l0.1,0.6l0.3-0.1L85.8,130.5z M85.5,128.9
	l-0.3,0.1l0.1,0.6l0.3-0.1L85.5,128.9z M85.1,127.3l-0.3,0.1l0.1,0.6l0.3-0.1L85.1,127.3z M86.4,130.4l-0.3,0.1l0.1,0.6l0.3-0.1
	L86.4,130.4z M86,128.8l-0.3,0.1l0.1,0.6l0.3-0.1L86,128.8z M85.6,127.2l-0.3,0.1l0.1,0.6l0.3-0.1L85.6,127.2z M86.9,130.3l-0.3,0.1
	l0.1,0.6l0.3-0.1L86.9,130.3z M86.5,128.7l-0.3,0.1l0.1,0.6l0.3-0.1L86.5,128.7z M86.2,127.1l-0.3,0.1l0.1,0.6l0.3-0.1L86.2,127.1z
	 M92.2,122.9l0.5-0.1l-0.1-0.7l-0.5,0.1L92.2,122.9z M92.5,124l0.5-0.1l-0.1-0.7l-0.5,0.1L92.5,124z M93,126.4l0.5-0.1l-0.1-0.7
	l-0.5,0.1L93,126.4z M91.6,124.2l0.5-0.1l-0.1-0.7l-0.5,0.1L91.6,124.2z M91.9,125.4l0.5-0.1l-0.1-0.7l-0.5,0.1L91.9,125.4z
	 M90.5,123.2l0.5-0.1l-0.1-0.7l-0.5,0.1L90.5,123.2z M91.3,126.8l0.5-0.1l-0.1-0.7l-0.5,0.1L91.3,126.8z M90,124.6l0.5-0.1l-0.1-0.7
	l-0.5,0.1L90,124.6z M90.2,125.8l0.5-0.1l-0.1-0.7l-0.5,0.1L90.2,125.8z M94,127.8l-4.5,0.2l1.2,5.2l4.4-1L94,127.8z"></path>
<text id="text1" transform="matrix(1 0 0 1 135.182 145.7719)" class="st8 st9 editable">Happy birthday!</text>
<text id="text2" transform="matrix(1 0 0 1 135.3642 162.5239)" class="st10 st8 st9 editable">My friend.</text>
<rect id="text_background_left" class="svgRibbon" width="56.7" height="170.1"></rect>
<rect id="text_background_right" x="215.4" class="svgRibbon" width="56.7" height="170.1"></rect>
<rect id="Button_Stripe" y="170.1" class="rpl12-1" width="272.1" height="14.2"></rect>
<text id="product" transform="matrix(1 0 0 1 134.1599 179.5623)" class="st13 st8 st14 svgProduct">Body milk Ginkgo</text>
<text id="quantity" transform="matrix(1 0 0 1 6.4882 179.7678)" class="st13 st8 st15">30 ml</text>
<g>
	
		<g id="g-transform" transform="matrix(0.3165 0 0 0.3165 258.8356 172.5474)">
<path d="M5.413,8.864C4.92,8.97,4.452,8.777,4.368,8.429C4.283,8.082,4.612,7.716,5.106,7.606  C5.597,7.5,6.065,7.693,6.15,8.042C6.234,8.389,5.905,8.759,5.413,8.864 M24.105,20.11c0.919-1.086,0.067-4.201-2.288-6.306  c-2.937-2.623-9.93-3.495-9.93-3.495c0.227-0.258,0.207-0.993,0.207-0.993c12.619,0.837,11.79-1.838,10.53-2.496  c-2.157-1.121-7.882-1.286-7.882-1.286c6.937-1.382,8.665-4.557,2.276-4.425c-7.504,0.156-9.87,4.311-9.87,4.311  c-3.922,0.096-6.604,1.977-7.094,4.618c-0.442,2.378,2.152,3.938,5.046,3.729c-0.578,0.98-0.205,2.234-0.205,2.234  C1.731,16.977,1,19.734,2.497,21.253c1.779,1.806,4.634-0.474,4.634-0.474c1.219,1.734,3.653,2.67,3.653,2.67  c0.737-0.409,1.927-0.685,2.697-0.762c0.393-0.037,0.117-0.387,0.117-0.387c-0.269-0.391-1.198-2.608,0.359-4.322  c1.597-1.761,3.887-1.169,4.362-0.936c0.477,0.232,0.323,0.779-0.349,0.571c-0.282-0.088-2.091-0.805-3.476,0.863  c-1.435,1.73,0.14,4.069,0.58,4.389c0.48,0.35-0.125,0.409-0.125,0.409c-5.295,0.136-7.088,3.177-3.46,3.584  c3.56,0.401,5.943,0.409,8.012,0.156c3.163-0.386,1.487-2.105,1.487-2.105c1.709-0.31,1.959-1.616,1.959-1.616  c1.353,2.085,4.33,2.153,5.159,0.174C29.117,21.046,27.05,18.985,24.105,20.11" class="st16"></path>
</g>
	
		<g id="g-transform" transform="matrix(0.3165 0 0 0.3165 247.7487 172.5474)">
<path fill="#000000" d="M28.302,14.082c0-7.728-6.265-13.995-13.995-13.995c-7.725,0-13.992,6.267-13.992,13.995  c0,2.993,0.94,5.764,2.54,8.04c0.106,0.052,0.12-0.009,0.08-0.216c-1.456-2.243-2.302-4.936-2.302-7.789  c0-7.575,6.241-13.614,13.814-13.614c3.506,0.214,6.184,1.432,8.084,3.32c2.029,2.075,3.278,4.913,3.278,8.042  c0,6.344-5.137,11.488-11.479,11.501v3.225c-1.802-0.565-3.417-1.564-4.714-2.877c-0.002-0.001-0.004-0.004-0.006-0.005  c-0.074-0.075-0.146-0.15-0.218-0.226c-0.004-0.005-0.008-0.009-0.012-0.013c-0.07-0.074-0.136-0.147-0.205-0.224  c-0.006-0.007-0.012-0.018-0.018-0.022c-0.066-0.072-0.129-0.146-0.194-0.223c-0.008-0.01-0.016-0.021-0.024-0.032  c-0.061-0.068-0.12-0.143-0.18-0.218c-0.01-0.013-0.018-0.026-0.027-0.039c-0.059-0.071-0.115-0.145-0.169-0.217  c-0.012-0.016-0.022-0.034-0.036-0.05c-0.053-0.072-0.104-0.14-0.152-0.212c-0.016-0.02-0.03-0.042-0.044-0.06  c-0.046-0.07-0.094-0.138-0.143-0.206c-0.014-0.026-0.03-0.05-0.044-0.075c-0.045-0.065-0.087-0.131-0.129-0.199  c-0.018-0.027-0.034-0.056-0.052-0.086c-0.041-0.062-0.079-0.126-0.117-0.192c-0.02-0.031-0.038-0.065-0.055-0.1  c-0.036-0.061-0.07-0.121-0.106-0.183c-0.02-0.039-0.038-0.078-0.058-0.113c-0.032-0.058-0.062-0.116-0.092-0.174  c-0.024-0.045-0.043-0.091-0.066-0.133c-0.026-0.054-0.054-0.106-0.08-0.161c-0.022-0.049-0.046-0.102-0.07-0.151  c-0.022-0.049-0.044-0.097-0.066-0.146c-0.028-0.062-0.052-0.126-0.08-0.19c-0.017-0.035-0.032-0.073-0.048-0.111  c-0.042-0.103-0.08-0.203-0.121-0.308c0.041-0.103,0.079-0.205,0.121-0.307c0.016-0.038,0.031-0.076,0.048-0.112  c0.028-0.063,0.051-0.127,0.08-0.189c0.022-0.048,0.044-0.096,0.066-0.145c0.024-0.052,0.048-0.104,0.07-0.154  c0.026-0.054,0.054-0.105,0.08-0.16c0.022-0.044,0.042-0.087,0.066-0.131c0.03-0.058,0.06-0.116,0.092-0.175  c0.02-0.038,0.038-0.076,0.058-0.114c0.036-0.062,0.07-0.122,0.106-0.184c0.018-0.032,0.036-0.066,0.055-0.099  c0.038-0.064,0.076-0.129,0.117-0.191c0.018-0.03,0.034-0.058,0.052-0.088c0.042-0.066,0.084-0.133,0.129-0.198  c0.015-0.024,0.03-0.048,0.044-0.074c0.048-0.07,0.096-0.135,0.143-0.205c0.014-0.021,0.028-0.042,0.044-0.061  c0.048-0.072,0.099-0.143,0.152-0.212c0.014-0.019,0.023-0.034,0.036-0.051c0.054-0.073,0.11-0.146,0.169-0.215  c0.01-0.014,0.018-0.028,0.027-0.04c0.06-0.074,0.12-0.148,0.18-0.221c0.008-0.01,0.016-0.021,0.024-0.03  c0.064-0.076,0.127-0.15,0.194-0.222c0.006-0.008,0.012-0.017,0.018-0.022c0.068-0.076,0.135-0.148,0.205-0.223  c0.004-0.004,0.008-0.009,0.012-0.013c0.072-0.078,0.144-0.152,0.218-0.229c0.002-0.002,0.004-0.002,0.006-0.004  c1.298-1.312,2.912-2.31,4.714-2.876v3.298c2.729-0.869,5.014-2.73,6.437-5.159c0.021-0.034,0.038-0.065,0.057-0.1  c0.036-0.062,0.07-0.12,0.104-0.185c0.021-0.036,0.039-0.075,0.06-0.113c0.031-0.058,0.062-0.116,0.092-0.172  c0.023-0.046,0.043-0.088,0.065-0.134c0.026-0.053,0.054-0.105,0.077-0.16c0.025-0.05,0.049-0.102,0.072-0.154  c0.022-0.049,0.045-0.096,0.067-0.142c0.027-0.064,0.052-0.128,0.08-0.19c0.016-0.038,0.031-0.074,0.048-0.114  c0.042-0.101,0.08-0.202,0.12-0.306c-1.232-3.292-3.931-5.869-7.304-6.937c-0.008-0.008-0.014-0.017-0.023-0.024v0.016v3.224  C7.942,5.366,2.806,10.508,2.806,16.855c0,6.351,5.151,11.502,11.501,11.502c0.002-0.003,0.005-0.007,0.007-0.008  c7.725-0.004,13.985-6.266,13.985-13.989c0-0.008,0-0.014,0-0.021C28.299,14.253,28.302,14.167,28.302,14.082" class="st16"></path>
</g>
	
		<g id="g-transform" transform="matrix(0.3165 0 0 0.3165 236.6617 172.5474)">	 
<path fill="#000000" d="M16.403,28.105c0,0-0.044,0.302,0.26,0.302h1.433c0,0,0.306,0,0.389-0.301l2.78-10.054l0.941,10.054  c0,0,0.027,0.301,0.331,0.301h1.353c0,0,0.302,0,0.32-0.302l0.741-14.195c0,0,0.018-0.304-0.283-0.304h-2.477h-1.04h-2.408  c0,0-0.304,0-0.346,0.304L16.403,28.105z M12.545,15.973l-0.727,9.123c-0.037,0.456-0.494,0.456-0.494,0.456H6.389  c-0.458,0-0.495-0.456-0.495-0.456l-0.728-9.123c-0.038-0.456,0.42-0.456,0.42-0.456h6.537  C12.581,15.517,12.545,15.973,12.545,15.973 M13.339,15.105H4.675c0,0-0.605,0-0.557,0.605l0.965,12.092  c0,0,0.048,0.604,0.655,0.604h6.541c0,0,0.608,0,0.655-0.604l0.963-12.092C13.896,15.711,13.945,15.105,13.339,15.105 M6.251,10.211  c0.345,1.771-0.671,2.161-0.69,2.762c0.624,0.604,3.158,0.222,3.71,0.456c-0.8-1.715,0.906-2.032,0.688-2.762  C8.792,10.739,7.79,10.616,6.251,10.211 M20.724,2.394c0-1.247-1.01-2.257-2.259-2.257c-1.244,0-2.253,1.01-2.253,2.257  c0,1.246,1.009,2.256,2.253,2.256C19.714,4.649,20.724,3.64,20.724,2.394 M24.913,12.354l-2.646-6.212c0,0-0.177-0.42-0.633-0.417  L7.211,5.722c0,0-0.152,0-0.152,0.152v1.122c0,0,0,0.152,0.15,0.165l9.173,0.85l1.912,4.345c0,0,0.183,0.417,0.638,0.417h5.704  C24.637,12.773,25.091,12.773,24.913,12.354" class="st16"></path>
</g>
	
		<g transform="matrix(0.3165 0 0 0.3165 214.4878 172.5474)" id="g-transform"><g id="g4"><g id="g6"><path id="path8" d="M 5.544,5.108 C 5.544,5.25 5.533,5.379 5.51,5.493 5.487,5.607 5.449,5.705 5.398,5.785 5.347,5.866 5.279,5.927 5.196,5.97 5.113,6.013 5.012,6.035 4.892,6.035 4.77,6.035 4.669,6.014 4.59,5.972 4.51,5.931 4.446,5.871 4.4,5.792 4.354,5.714 4.32,5.619 4.302,5.505 4.284,5.391 4.273,5.264 4.273,5.122 4.273,4.981 4.285,4.852 4.308,4.738 4.331,4.623 4.369,4.525 4.42,4.444 4.472,4.364 4.539,4.302 4.622,4.259 4.705,4.216 4.806,4.194 4.925,4.194 c 0.122,0 0.223,0.021 0.303,0.063 0.081,0.042 0.144,0.103 0.19,0.181 0.046,0.078 0.079,0.174 0.098,0.287 0.019,0.113 0.028,0.24 0.028,0.383 z M 5.181,5.125 C 5.181,5.041 5.178,4.967 5.174,4.902 5.169,4.837 5.162,4.782 5.152,4.734 5.142,4.687 5.131,4.646 5.116,4.613 5.103,4.581 5.085,4.554 5.064,4.535 5.045,4.514 5.021,4.5 4.996,4.493 4.971,4.484 4.942,4.48 4.911,4.48 4.857,4.48 4.812,4.493 4.777,4.519 4.742,4.545 4.714,4.584 4.693,4.636 4.673,4.689 4.658,4.753 4.65,4.832 4.642,4.91 4.638,5 4.638,5.104 4.638,5.23 4.643,5.334 4.653,5.417 4.663,5.5 4.679,5.566 4.7,5.616 4.721,5.665 4.749,5.699 4.783,5.719 4.817,5.739 4.857,5.748 4.905,5.748 4.941,5.748 4.972,5.743 5,5.731 5.028,5.719 5.052,5.702 5.072,5.679 5.092,5.656 5.11,5.627 5.124,5.592 5.138,5.558 5.148,5.518 5.157,5.472 5.166,5.426 5.172,5.374 5.176,5.317 5.179,5.259 5.181,5.195 5.181,5.125 Z" class="st16"></path><path style="fill:#000000" id="path10" d="M 6.989,5.493 C 6.989,5.54 6.984,5.575 6.974,5.599 6.964,5.623 6.952,5.635 6.936,5.635 l -0.159,0 0,0.321 C 6.777,5.966 6.775,5.974 6.769,5.98 6.763,5.986 6.754,5.994 6.74,5.998 6.727,6.002 6.709,6.006 6.688,6.008 6.665,6.01 6.637,6.011 6.602,6.011 6.57,6.011 6.541,6.01 6.519,6.008 6.497,6.006 6.479,6.002 6.465,5.997 6.452,5.993 6.443,5.987 6.438,5.98 6.433,5.973 6.431,5.966 6.431,5.957 l 0,-0.322 -0.681,0 C 5.737,5.635 5.726,5.633 5.716,5.63 5.706,5.627 5.697,5.62 5.69,5.609 5.683,5.597 5.678,5.581 5.675,5.559 5.671,5.538 5.67,5.509 5.67,5.473 5.67,5.444 5.67,5.418 5.672,5.397 5.674,5.375 5.676,5.356 5.68,5.338 5.683,5.321 5.688,5.305 5.693,5.29 5.698,5.275 5.707,5.258 5.715,5.24 L 6.268,4.266 C 6.272,4.257 6.28,4.25 6.291,4.245 6.303,4.239 6.317,4.234 6.338,4.229 6.358,4.225 6.382,4.222 6.412,4.22 6.442,4.218 6.479,4.217 6.522,4.217 c 0.047,0 0.086,0.002 0.119,0.004 0.033,0.002 0.06,0.006 0.079,0.011 0.019,0.005 0.035,0.012 0.044,0.018 0.01,0.008 0.014,0.017 0.014,0.026 l 0,1.07 0.158,0 c 0.015,0 0.027,0.011 0.038,0.033 0.011,0.022 0.015,0.061 0.015,0.114 z M 6.431,4.53 l -0.003,0 -0.469,0.817 0.472,0 0,-0.817 z" class="st16"></path></g></g><path id="path12" d="M 3.567,4.239 2.593,4.502 c 0,0 -0.126,0.033 -0.013,0.098 L 2.967,4.823 2.055,6.402 c 0,0 -0.735,1.273 0.734,1.273 l 2.481,0 -0.003,-0.633 -2.486,0 C 2.417,7.042 2.598,6.728 2.598,6.728 L 3.516,5.14 3.906,5.366 c 0,0 0.112,0.063 0.078,-0.061 L 3.725,4.331 c 0,0 -0.034,-0.125 -0.158,-0.092" class="st16"></path><path style="fill:#000000" id="path14" d="m 7.731,2.902 c 0,0 0.032,-0.125 -0.08,-0.061 L 7.267,3.065 6.354,1.484 c 0,0 -0.734,-1.271 -1.469,0 L 3.643,3.634 4.191,3.946 5.435,1.794 c 0.181,-0.314 0.363,0 0.363,0 l 0.918,1.588 -0.39,0.226 c 0,0 -0.112,0.064 0.013,0.097 l 0.974,0.264 c 0,0 0.125,0.035 0.158,-0.091 l 0.26,-0.976 z" class="st16"></path><path id="path16" d="M 9.197,6.396 7.956,4.247 7.411,4.565 8.655,6.717 C 8.837,7.031 8.472,7.031 8.472,7.031 l -1.832,0 0,-0.448 c 0,0 0,-0.13 -0.092,-0.039 L 5.833,7.257 c 0,0 -0.092,0.092 0,0.183 l 0.715,0.71 c 0,0 0.092,0.092 0.092,-0.038 l 0,-0.445 1.823,0 c 0,0 1.469,0 0.734,-1.271" class="st16"></path><g id="g18"><path id="path20" d="m 5.606,9.174 c 0,0.1 -0.016,0.188 -0.047,0.265 C 5.528,9.516 5.482,9.58 5.424,9.633 5.364,9.686 5.291,9.726 5.204,9.753 5.118,9.78 5.016,9.794 4.898,9.794 l -0.148,0 0,0.567 c 0,0.01 -0.003,0.018 -0.009,0.025 -0.006,0.007 -0.016,0.013 -0.029,0.018 -0.013,0.005 -0.032,0.008 -0.055,0.011 -0.023,0.003 -0.053,0.004 -0.088,0.004 -0.035,0 -0.064,-0.001 -0.088,-0.004 C 4.457,10.412 4.439,10.409 4.425,10.404 4.411,10.399 4.402,10.393 4.397,10.386 4.391,10.378 4.388,10.37 4.388,10.361 l 0,-1.598 C 4.388,8.72 4.4,8.688 4.422,8.666 4.444,8.644 4.474,8.634 4.511,8.634 l 0.419,0 c 0.042,0 0.082,10e-4 0.12,0.005 0.038,0.003 0.083,0.01 0.137,0.021 0.053,0.01 0.107,0.029 0.162,0.058 0.055,0.029 0.101,0.064 0.14,0.107 0.037,0.044 0.067,0.095 0.087,0.153 0.02,0.058 0.03,0.124 0.03,0.196 z M 5.229,9.199 C 5.229,9.137 5.218,9.086 5.196,9.046 5.175,9.006 5.147,8.976 5.115,8.956 5.082,8.938 5.049,8.925 5.014,8.92 4.979,8.915 4.941,8.912 4.904,8.912 l -0.154,0 0,0.604 0.162,0 C 4.97,9.516 5.018,9.508 5.058,9.493 5.098,9.478 5.128,9.456 5.153,9.428 5.178,9.401 5.197,9.366 5.21,9.327 5.222,9.288 5.229,9.245 5.229,9.199 Z" class="st16"></path><path id="path22" d="m 6.939,10.27 c 0,0.026 -0.001,0.049 -0.003,0.066 -0.003,0.019 -0.006,0.032 -0.011,0.044 -0.005,0.011 -0.01,0.019 -0.017,0.023 -0.007,0.004 -0.015,0.008 -0.023,0.008 l -0.892,0 c -0.03,0 -0.056,-0.009 -0.076,-0.026 C 5.896,10.366 5.886,10.338 5.886,10.297 l 0,-1.549 C 5.886,8.707 5.897,8.679 5.917,8.66 5.938,8.642 5.963,8.634 5.993,8.634 l 0.888,0 c 0.008,0 0.016,0.002 0.021,0.007 C 6.909,8.646 6.914,8.654 6.919,8.664 6.924,8.676 6.927,8.69 6.93,8.708 6.932,8.727 6.933,8.749 6.933,8.776 6.933,8.801 6.932,8.824 6.93,8.841 6.927,8.859 6.924,8.874 6.919,8.885 6.914,8.896 6.909,8.905 6.902,8.909 6.896,8.914 6.889,8.917 6.881,8.917 l -0.635,0 0,0.434 0.537,0 c 0.008,0 0.016,0.003 0.022,0.008 0.006,0.005 0.013,0.013 0.018,0.023 0.004,0.011 0.008,0.024 0.01,0.042 0.003,0.019 0.004,0.04 0.004,0.065 0,0.026 -10e-4,0.049 -0.004,0.066 C 6.831,9.572 6.827,9.586 6.823,9.597 6.818,9.607 6.813,9.615 6.806,9.62 6.799,9.624 6.791,9.627 6.783,9.627 l -0.537,0 0,0.501 0.64,0 c 0.009,0 0.017,0.003 0.023,0.008 0.006,0.005 0.012,0.013 0.017,0.024 0.005,0.011 0.008,0.025 0.011,0.043 10e-4,0.018 0.002,0.04 0.002,0.067 z" class="st16"></path></g></g>
	
		<g transform="matrix(0.3165 0 0 0.3165 225.5748 172.5474)" id="g-transform"><path id="path4" d="m 20.079574,2.0118028 c -0.01266,0.01241 -0.0211,0.02069 -0.03376,0.02483 -0.789092,0.571007 -3.261861,2.379196 -8.629374,4.83287 -5.3506345,2.445399 -8.3508719,3.1405372 -9.3171931,3.3763882 -0.00844,0 -0.016879,0 -0.029538,0.0041 -0.4346336,0.09516 -0.7468945,0.08689 -0.8186302,-0.06207 -0.071736,-0.148959 0.1265924,-0.3889462 0.4810507,-0.6496242 0.021099,-0.01655 0.046417,-0.04138 0.075956,-0.05793 0.8777065,-0.620636 3.3631351,-2.387447 8.5829576,-4.774918 4.983517,-2.279889 7.962655,-3.041232 9.139963,-3.343286 0.535908,-0.148959 0.932563,-0.157234 1.012739,0.0083 0.0633,0.140682 -0.118153,0.380671 -0.464172,0.641348 m 2.692196,1.688209 -1.493789,-3.13226204 c 0,0 -0.15191,-0.318605 -0.65828,-0.215162 0,0 -4.084712,0.71996504 -10.553577,3.67844304 -6.5827997,3.016405 -9.65899241,5.561109 -9.65899241,5.561109 0,0 -0.40931504,0.3186051 -0.25740435,0.6372112 l 1.49378906,3.132263 c 0,0 0.1519108,0.32688 0.6624997,0.2193 0,0 3.8737242,-0.765481 10.494501,-3.7860252 6.624996,-3.032956 9.718069,-5.453528 9.718069,-5.453528 0,0 0.405095,-0.318606 0.253184,-0.641349 M 10.602032,22.783212 c -0.101274,0.05379 -0.194109,0.107582 -0.282724,0.161372 0,0.430324 0.02532,0.790306 0.07596,1.084085 0.05064,0.285504 0.126593,0.521354 0.219427,0.686864 0.09284,0.169646 0.219427,0.289641 0.362898,0.359982 0.147691,0.07448 0.3207,0.111719 0.514809,0.111719 0.185669,0 0.354458,-0.04138 0.502149,-0.107582 0.139252,-0.07034 0.253184,-0.165509 0.350239,-0.285503 0.09283,-0.128269 0.16879,-0.27309 0.219427,-0.442736 0.04642,-0.16551 0.07174,-0.34757 0.07174,-0.554457 0,-0.206886 -0.0211,-0.380671 -0.05908,-0.537904 -0.03798,-0.153097 -0.09705,-0.289642 -0.17723,-0.393085 -0.08439,-0.103444 -0.194108,-0.190336 -0.329139,-0.248264 -0.135033,-0.04966 -0.303823,-0.08276 -0.49371,-0.08276 -0.113934,0 -0.232087,0.01241 -0.3418,0.0331 -0.109713,0.02069 -0.215207,0.04966 -0.32492,0.09103 -0.109714,0.0331 -0.210987,0.07862 -0.308041,0.124132 M 27.421931,15.25668 c 0,0.215163 -0.185668,0.401359 -0.527467,0.537905 -1.042276,0.302054 -4.11003,1.208217 -10.076746,1.208217 -5.958277,0 -9.0260305,-0.906163 -10.0725269,-1.208217 -0.3417992,-0.136546 -0.5274679,-0.322742 -0.5274679,-0.537905 0,-0.227575 0.2152069,-0.426186 0.6034233,-0.56687 0.088615,-0.02897 0.1772291,-0.05379 0.2700636,-0.07861 1.1646496,-0.306191 4.0087559,-1.079947 9.2159189,-1.129599 0.168789,0 0.341799,-0.0041 0.510589,-0.0041 0.173009,0 0.346019,0.0041 0.514809,0.0041 5.207162,0.04966 8.051269,0.81927 9.215918,1.129599 0.08862,0.02483 0.181449,0.04966 0.265844,0.07861 0.392436,0.140684 0.607642,0.339295 0.607642,0.56687 m -18.7061253,7.4024 c 0,-0.310329 0.01266,-0.633072 0.0422,-0.968229 0.02954,-0.331019 0.09283,-0.666175 0.1814487,-0.98478 0.08862,-0.322743 0.2109865,-0.628935 0.3713372,-0.926852 0.1603506,-0.289641 0.3671172,-0.554455 0.6203027,-0.773755 0.2531847,-0.223438 0.5612257,-0.397222 0.9199037,-0.521354 0.358678,-0.132408 0.789093,-0.194472 1.287022,-0.194472 0.15613,0 0.312261,0.0082 0.472612,0.02483 0.160349,0.02069 0.30804,0.04138 0.438853,0.07035 0.139251,0.02897 0.253184,0.06207 0.346018,0.09931 0.09283,0.0331 0.160351,0.06207 0.189888,0.09103 0.03798,0.02897 0.0633,0.05379 0.07596,0.09104 0.01688,0.02897 0.02954,0.06207 0.03798,0.103442 0.01688,0.04138 0.01688,0.08689 0.0211,0.144821 0.0042,0.05793 0.0084,0.124133 0.0084,0.206888 0,0.119992 -0.0042,0.231712 -0.0084,0.310329 -0.0042,0.08276 -0.01688,0.148958 -0.03376,0.194473 -0.01688,0.04552 -0.03798,0.08276 -0.07174,0.103443 -0.02532,0.01655 -0.05908,0.02483 -0.101273,0.02483 -0.04642,0 -0.109713,-0.0082 -0.189889,-0.04138 -0.08018,-0.02483 -0.177229,-0.05379 -0.286942,-0.08276 -0.109713,-0.0331 -0.240526,-0.06207 -0.392437,-0.08689 -0.15191,-0.02483 -0.32492,-0.03724 -0.519027,-0.03724 -0.33758,0 -0.620303,0.06207 -0.852389,0.182061 -0.227866,0.124131 -0.417755,0.28964 -0.561225,0.492389 -0.143472,0.211024 -0.248965,0.45515 -0.316482,0.724104 -0.06752,0.277227 -0.101274,0.571006 -0.105493,0.87306 0.09283,-0.05379 0.194108,-0.107581 0.312261,-0.169648 0.118153,-0.05379 0.244745,-0.0993 0.388217,-0.140681 0.135032,-0.04138 0.282722,-0.07448 0.447292,-0.09931 0.156131,-0.02897 0.32914,-0.04138 0.510589,-0.04138 0.405095,0 0.751114,0.05793 1.042277,0.16551 0.286942,0.107581 0.523248,0.260677 0.704697,0.463426 0.185669,0.206886 0.320701,0.442737 0.405095,0.736515 0.08862,0.285503 0.130812,0.60411 0.130812,0.955816 0,0.397222 -0.0633,0.769618 -0.185668,1.100637 -0.126593,0.339294 -0.308042,0.633072 -0.544347,0.8772 -0.236306,0.244125 -0.535908,0.434461 -0.886146,0.575144 -0.34602,0.140683 -0.751115,0.206886 -1.211067,0.206886 -0.371337,0 -0.696257,-0.04138 -0.970541,-0.124132 C 10.15896,26.200975 9.9142142,26.085122 9.7158866,25.927888 9.5133391,25.770653 9.3487684,25.584456 9.2221767,25.356881 9.0913639,25.141719 8.9900902,24.885179 8.9141353,24.612089 c -0.07596,-0.281365 -0.1265927,-0.58342 -0.1603506,-0.914438 -0.02532,-0.32688 -0.03798,-0.67445 -0.03798,-1.038571 m 9.4311263,-2.255063 c 0,-0.165509 0.03798,-0.289641 0.122373,-0.376534 0.08018,-0.0869 0.185668,-0.136545 0.3207,-0.136545 l 0.907244,0 c 0.156131,0 0.291162,0.01655 0.405095,0.05379 0.105494,0.02897 0.206768,0.08276 0.282724,0.144821 0.07596,0.07035 0.139251,0.161371 0.198327,0.273089 0.05486,0.111719 0.09705,0.256541 0.139252,0.409636 l 1.130892,3.438454 0.02532,0 1.16043,-3.413628 c 0.04642,-0.169646 0.09283,-0.310329 0.147691,-0.430324 0.05064,-0.115856 0.113932,-0.211023 0.189888,-0.277227 0.07596,-0.06621 0.16457,-0.119994 0.265844,-0.148959 0.09705,-0.0331 0.215207,-0.04966 0.354459,-0.04966 l 0.898805,0 c 0.135032,0 0.240526,0.04966 0.3207,0.136545 0.07174,0.0869 0.113933,0.211025 0.113933,0.376534 l 0,5.681105 c 0,0.03724 -0.01688,0.07448 -0.03376,0.09931 -0.01688,0.02483 -0.04642,0.05379 -0.09705,0.07035 -0.04642,0.01655 -0.109714,0.02897 -0.198329,0.03724 -0.08017,0.0082 -0.185669,0.01655 -0.31226,0.01655 -0.130812,0 -0.240526,-0.0082 -0.320701,-0.01655 -0.08018,-0.0082 -0.16035,-0.02069 -0.198328,-0.03724 -0.05064,-0.01655 -0.0844,-0.04138 -0.101274,-0.06621 -0.01688,-0.02483 -0.02532,-0.06621 -0.02532,-0.103443 l 0,-4.90735 -0.01688,0 -1.565525,4.936313 c -0.0084,0.07035 -0.0633,0.115856 -0.16457,0.148958 -0.09705,0.02897 -0.253185,0.04552 -0.468391,0.04552 -0.113933,0 -0.210988,-0.0082 -0.286943,-0.01655 -0.07596,-0.0082 -0.143472,-0.01655 -0.189888,-0.0331 -0.04642,-0.01655 -0.08861,-0.03724 -0.109714,-0.05793 -0.02954,-0.02483 -0.04642,-0.05379 -0.05486,-0.0869 l -1.552866,-4.936314 -0.0042,0 0,4.911488 c 0,0.03724 -0.0084,0.07448 -0.03376,0.09931 -0.01688,0.02483 -0.05064,0.04966 -0.09283,0.06621 -0.04642,0.01655 -0.113933,0.02897 -0.198328,0.03724 -0.0844,0.0082 -0.194108,0.01655 -0.3207,0.01655 -0.135032,0 -0.236306,-0.0082 -0.320701,-0.01655 -0.08439,-0.0082 -0.14769,-0.02069 -0.194107,-0.03724 -0.04642,-0.01655 -0.08017,-0.04138 -0.09705,-0.06621 -0.01688,-0.02483 -0.02532,-0.06621 -0.02532,-0.103443 l 0,-5.681105 z m 10.32993,-5.155612 c 0,-0.388947 -0.113933,-0.852373 -0.502149,-1.055122 -0.164569,-0.08276 -3.890603,-1.733709 -11.14856,-1.733709 0,0 -0.0042,0 -0.0042,0 l -0.0042,0 c 0,0 0,0 -0.0042,0 -7.257959,0 -10.9839918,1.646816 -11.1401224,1.733709 -0.3924361,0.202749 -0.5105889,0.666175 -0.5105889,1.055122 0,0.01241 0,0.194473 0,0.496527 0,0.01655 0,10.348465 0,10.369153 0.00844,0.165509 0.067516,0.29378 0.1434713,0.397223 0.1139331,0.148959 0.3628979,0.273089 0.3628979,0.273089 0,0 3.8441862,1.547512 11.1485621,1.547512 7.308594,0 11.157,-1.547512 11.157,-1.547512 0,0 0.244746,-0.103442 0.362898,-0.273089 0.07174,-0.103443 0.130812,-0.231714 0.139251,-0.397223 0,-0.02069 0,-10.853268 0,-10.86568" class="st16"></path></g>
</g>
</svg>
