<?xml version="1.0" encoding="UTF-8" standalone="no"?>
<svg
   xmlns:dc="http://purl.org/dc/elements/1.1/"
   xmlns:cc="http://creativecommons.org/ns#"
   xmlns:rdf="http://www.w3.org/1999/02/22-rdf-syntax-ns#"
   xmlns:svg="http://www.w3.org/2000/svg"
   xmlns="http://www.w3.org/2000/svg"
   xml:space="preserve"
   enable-background="new 0 0 28.35 28.35"
   viewBox="0 0 28.35 28.35"
   height="28.35px"
   width="28.35px"
   y="0px"
   x="0px"
   id="Layer_1"
   version="1.1"><metadata
     id="metadata10"><rdf:RDF><cc:Work
         rdf:about=""><dc:format>image/svg+xml</dc:format><dc:type
           rdf:resource="http://purl.org/dc/dcmitype/StillImage" /><dc:title></dc:title></cc:Work></rdf:RDF></metadata><defs
     id="defs8" /><g
     transform="matrix(0.93142939,0,0,0.93142939,0.85889346,0.82582745)"
     id="g-transform"><path
       id="path4"
       d="m 20.079574,2.0118028 c -0.01266,0.01241 -0.0211,0.02069 -0.03376,0.02483 -0.789092,0.571007 -3.261861,2.379196 -8.629374,4.83287 -5.3506345,2.445399 -8.3508719,3.1405372 -9.3171931,3.3763882 -0.00844,0 -0.016879,0 -0.029538,0.0041 -0.4346336,0.09516 -0.7468945,0.08689 -0.8186302,-0.06207 -0.071736,-0.148959 0.1265924,-0.3889462 0.4810507,-0.6496242 0.021099,-0.01655 0.046417,-0.04138 0.075956,-0.05793 0.8777065,-0.620636 3.3631351,-2.387447 8.5829576,-4.774918 4.983517,-2.279889 7.962655,-3.041232 9.139963,-3.343286 0.535908,-0.148959 0.932563,-0.157234 1.012739,0.0083 0.0633,0.140682 -0.118153,0.380671 -0.464172,0.641348 m 2.692196,1.688209 -1.493789,-3.13226204 c 0,0 -0.15191,-0.318605 -0.65828,-0.215162 0,0 -4.084712,0.71996504 -10.553577,3.67844304 -6.5827997,3.016405 -9.65899241,5.561109 -9.65899241,5.561109 0,0 -0.40931504,0.3186051 -0.25740435,0.6372112 l 1.49378906,3.132263 c 0,0 0.1519108,0.32688 0.6624997,0.2193 0,0 3.8737242,-0.765481 10.494501,-3.7860252 6.624996,-3.032956 9.718069,-5.453528 9.718069,-5.453528 0,0 0.405095,-0.318606 0.253184,-0.641349 M 10.602032,22.783212 c -0.101274,0.05379 -0.194109,0.107582 -0.282724,0.161372 0,0.430324 0.02532,0.790306 0.07596,1.084085 0.05064,0.285504 0.126593,0.521354 0.219427,0.686864 0.09284,0.169646 0.219427,0.289641 0.362898,0.359982 0.147691,0.07448 0.3207,0.111719 0.514809,0.111719 0.185669,0 0.354458,-0.04138 0.502149,-0.107582 0.139252,-0.07034 0.253184,-0.165509 0.350239,-0.285503 0.09283,-0.128269 0.16879,-0.27309 0.219427,-0.442736 0.04642,-0.16551 0.07174,-0.34757 0.07174,-0.554457 0,-0.206886 -0.0211,-0.380671 -0.05908,-0.537904 -0.03798,-0.153097 -0.09705,-0.289642 -0.17723,-0.393085 -0.08439,-0.103444 -0.194108,-0.190336 -0.329139,-0.248264 -0.135033,-0.04966 -0.303823,-0.08276 -0.49371,-0.08276 -0.113934,0 -0.232087,0.01241 -0.3418,0.0331 -0.109713,0.02069 -0.215207,0.04966 -0.32492,0.09103 -0.109714,0.0331 -0.210987,0.07862 -0.308041,0.124132 M 27.421931,15.25668 c 0,0.215163 -0.185668,0.401359 -0.527467,0.537905 -1.042276,0.302054 -4.11003,1.208217 -10.076746,1.208217 -5.958277,0 -9.0260305,-0.906163 -10.0725269,-1.208217 -0.3417992,-0.136546 -0.5274679,-0.322742 -0.5274679,-0.537905 0,-0.227575 0.2152069,-0.426186 0.6034233,-0.56687 0.088615,-0.02897 0.1772291,-0.05379 0.2700636,-0.07861 1.1646496,-0.306191 4.0087559,-1.079947 9.2159189,-1.129599 0.168789,0 0.341799,-0.0041 0.510589,-0.0041 0.173009,0 0.346019,0.0041 0.514809,0.0041 5.207162,0.04966 8.051269,0.81927 9.215918,1.129599 0.08862,0.02483 0.181449,0.04966 0.265844,0.07861 0.392436,0.140684 0.607642,0.339295 0.607642,0.56687 m -18.7061253,7.4024 c 0,-0.310329 0.01266,-0.633072 0.0422,-0.968229 0.02954,-0.331019 0.09283,-0.666175 0.1814487,-0.98478 0.08862,-0.322743 0.2109865,-0.628935 0.3713372,-0.926852 0.1603506,-0.289641 0.3671172,-0.554455 0.6203027,-0.773755 0.2531847,-0.223438 0.5612257,-0.397222 0.9199037,-0.521354 0.358678,-0.132408 0.789093,-0.194472 1.287022,-0.194472 0.15613,0 0.312261,0.0082 0.472612,0.02483 0.160349,0.02069 0.30804,0.04138 0.438853,0.07035 0.139251,0.02897 0.253184,0.06207 0.346018,0.09931 0.09283,0.0331 0.160351,0.06207 0.189888,0.09103 0.03798,0.02897 0.0633,0.05379 0.07596,0.09104 0.01688,0.02897 0.02954,0.06207 0.03798,0.103442 0.01688,0.04138 0.01688,0.08689 0.0211,0.144821 0.0042,0.05793 0.0084,0.124133 0.0084,0.206888 0,0.119992 -0.0042,0.231712 -0.0084,0.310329 -0.0042,0.08276 -0.01688,0.148958 -0.03376,0.194473 -0.01688,0.04552 -0.03798,0.08276 -0.07174,0.103443 -0.02532,0.01655 -0.05908,0.02483 -0.101273,0.02483 -0.04642,0 -0.109713,-0.0082 -0.189889,-0.04138 -0.08018,-0.02483 -0.177229,-0.05379 -0.286942,-0.08276 -0.109713,-0.0331 -0.240526,-0.06207 -0.392437,-0.08689 -0.15191,-0.02483 -0.32492,-0.03724 -0.519027,-0.03724 -0.33758,0 -0.620303,0.06207 -0.852389,0.182061 -0.227866,0.124131 -0.417755,0.28964 -0.561225,0.492389 -0.143472,0.211024 -0.248965,0.45515 -0.316482,0.724104 -0.06752,0.277227 -0.101274,0.571006 -0.105493,0.87306 0.09283,-0.05379 0.194108,-0.107581 0.312261,-0.169648 0.118153,-0.05379 0.244745,-0.0993 0.388217,-0.140681 0.135032,-0.04138 0.282722,-0.07448 0.447292,-0.09931 0.156131,-0.02897 0.32914,-0.04138 0.510589,-0.04138 0.405095,0 0.751114,0.05793 1.042277,0.16551 0.286942,0.107581 0.523248,0.260677 0.704697,0.463426 0.185669,0.206886 0.320701,0.442737 0.405095,0.736515 0.08862,0.285503 0.130812,0.60411 0.130812,0.955816 0,0.397222 -0.0633,0.769618 -0.185668,1.100637 -0.126593,0.339294 -0.308042,0.633072 -0.544347,0.8772 -0.236306,0.244125 -0.535908,0.434461 -0.886146,0.575144 -0.34602,0.140683 -0.751115,0.206886 -1.211067,0.206886 -0.371337,0 -0.696257,-0.04138 -0.970541,-0.124132 C 10.15896,26.200975 9.9142142,26.085122 9.7158866,25.927888 9.5133391,25.770653 9.3487684,25.584456 9.2221767,25.356881 9.0913639,25.141719 8.9900902,24.885179 8.9141353,24.612089 c -0.07596,-0.281365 -0.1265927,-0.58342 -0.1603506,-0.914438 -0.02532,-0.32688 -0.03798,-0.67445 -0.03798,-1.038571 m 9.4311263,-2.255063 c 0,-0.165509 0.03798,-0.289641 0.122373,-0.376534 0.08018,-0.0869 0.185668,-0.136545 0.3207,-0.136545 l 0.907244,0 c 0.156131,0 0.291162,0.01655 0.405095,0.05379 0.105494,0.02897 0.206768,0.08276 0.282724,0.144821 0.07596,0.07035 0.139251,0.161371 0.198327,0.273089 0.05486,0.111719 0.09705,0.256541 0.139252,0.409636 l 1.130892,3.438454 0.02532,0 1.16043,-3.413628 c 0.04642,-0.169646 0.09283,-0.310329 0.147691,-0.430324 0.05064,-0.115856 0.113932,-0.211023 0.189888,-0.277227 0.07596,-0.06621 0.16457,-0.119994 0.265844,-0.148959 0.09705,-0.0331 0.215207,-0.04966 0.354459,-0.04966 l 0.898805,0 c 0.135032,0 0.240526,0.04966 0.3207,0.136545 0.07174,0.0869 0.113933,0.211025 0.113933,0.376534 l 0,5.681105 c 0,0.03724 -0.01688,0.07448 -0.03376,0.09931 -0.01688,0.02483 -0.04642,0.05379 -0.09705,0.07035 -0.04642,0.01655 -0.109714,0.02897 -0.198329,0.03724 -0.08017,0.0082 -0.185669,0.01655 -0.31226,0.01655 -0.130812,0 -0.240526,-0.0082 -0.320701,-0.01655 -0.08018,-0.0082 -0.16035,-0.02069 -0.198328,-0.03724 -0.05064,-0.01655 -0.0844,-0.04138 -0.101274,-0.06621 -0.01688,-0.02483 -0.02532,-0.06621 -0.02532,-0.103443 l 0,-4.90735 -0.01688,0 -1.565525,4.936313 c -0.0084,0.07035 -0.0633,0.115856 -0.16457,0.148958 -0.09705,0.02897 -0.253185,0.04552 -0.468391,0.04552 -0.113933,0 -0.210988,-0.0082 -0.286943,-0.01655 -0.07596,-0.0082 -0.143472,-0.01655 -0.189888,-0.0331 -0.04642,-0.01655 -0.08861,-0.03724 -0.109714,-0.05793 -0.02954,-0.02483 -0.04642,-0.05379 -0.05486,-0.0869 l -1.552866,-4.936314 -0.0042,0 0,4.911488 c 0,0.03724 -0.0084,0.07448 -0.03376,0.09931 -0.01688,0.02483 -0.05064,0.04966 -0.09283,0.06621 -0.04642,0.01655 -0.113933,0.02897 -0.198328,0.03724 -0.0844,0.0082 -0.194108,0.01655 -0.3207,0.01655 -0.135032,0 -0.236306,-0.0082 -0.320701,-0.01655 -0.08439,-0.0082 -0.14769,-0.02069 -0.194107,-0.03724 -0.04642,-0.01655 -0.08017,-0.04138 -0.09705,-0.06621 -0.01688,-0.02483 -0.02532,-0.06621 -0.02532,-0.103443 l 0,-5.681105 z m 10.32993,-5.155612 c 0,-0.388947 -0.113933,-0.852373 -0.502149,-1.055122 -0.164569,-0.08276 -3.890603,-1.733709 -11.14856,-1.733709 0,0 -0.0042,0 -0.0042,0 l -0.0042,0 c 0,0 0,0 -0.0042,0 -7.257959,0 -10.9839918,1.646816 -11.1401224,1.733709 -0.3924361,0.202749 -0.5105889,0.666175 -0.5105889,1.055122 0,0.01241 0,0.194473 0,0.496527 0,0.01655 0,10.348465 0,10.369153 0.00844,0.165509 0.067516,0.29378 0.1434713,0.397223 0.1139331,0.148959 0.3628979,0.273089 0.3628979,0.273089 0,0 3.8441862,1.547512 11.1485621,1.547512 7.308594,0 11.157,-1.547512 11.157,-1.547512 0,0 0.244746,-0.103442 0.362898,-0.273089 0.07174,-0.103443 0.130812,-0.231714 0.139251,-0.397223 0,-0.02069 0,-10.853268 0,-10.86568" /></g></svg>