<?xml version="1.0" encoding="utf-8"?>
<!-- Generator: Adobe Illustrator 16.0.0, SVG Export Plug-In . SVG Version: 6.00 Build 0)  -->
<!DOCTYPE svg PUBLIC "-//W3C//DTD SVG 1.1//EN" "http://www.w3.org/Graphics/SVG/1.1/DTD/svg11.dtd">
<svg version="1.1" height="28px" width="28px" id="Layer_1" xmlns="http://www.w3.org/2000/svg" xmlns:xlink="http://www.w3.org/1999/xlink" x="0px" y="0px"
	 viewBox="0 0 11.34 11.34" enable-background="new 0 0 11.34 11.34" xml:space="preserve">
<g id="g-transform">	 
<path fill="#FFFFFF" d="M7.258,2.465C7.255,2.468,7.253,2.47,7.25,2.471C7.063,2.609,6.477,3.046,5.205,3.639
	C3.937,4.23,3.226,4.398,2.997,4.455c-0.002,0-0.004,0-0.007,0.001C2.887,4.479,2.813,4.477,2.796,4.441s0.03-0.094,0.114-0.157
	c0.005-0.004,0.011-0.01,0.018-0.014c0.208-0.15,0.797-0.577,2.034-1.154c1.181-0.551,1.887-0.735,2.166-0.808
	c0.127-0.036,0.221-0.038,0.24,0.002C7.383,2.344,7.34,2.402,7.258,2.465 M7.896,2.873L7.542,2.116c0,0-0.036-0.077-0.156-0.052
	c0,0-0.968,0.174-2.501,0.889c-1.56,0.729-2.289,1.344-2.289,1.344S2.499,4.374,2.535,4.451l0.354,0.757
	c0,0,0.036,0.079,0.157,0.053c0,0,0.918-0.185,2.487-0.915c1.57-0.733,2.303-1.318,2.303-1.318S7.932,2.951,7.896,2.873
	 M5.012,7.485C4.988,7.498,4.966,7.511,4.945,7.524c0,0.104,0.006,0.191,0.018,0.262c0.012,0.069,0.03,0.126,0.052,0.166
	c0.022,0.041,0.052,0.07,0.086,0.087c0.035,0.018,0.076,0.027,0.122,0.027c0.044,0,0.084-0.01,0.119-0.026
	C5.375,8.023,5.402,8,5.425,7.971c0.022-0.031,0.04-0.066,0.052-0.107C5.488,7.824,5.494,7.78,5.494,7.73S5.489,7.638,5.48,7.6
	C5.471,7.563,5.457,7.53,5.438,7.505c-0.02-0.025-0.046-0.046-0.078-0.06c-0.032-0.012-0.072-0.02-0.117-0.02
	c-0.027,0-0.055,0.003-0.081,0.008C5.136,7.438,5.111,7.445,5.085,7.455C5.059,7.463,5.035,7.474,5.012,7.485 M8.998,5.666
	c0,0.052-0.044,0.097-0.125,0.13C8.626,5.869,7.899,6.088,6.485,6.088c-1.412,0-2.139-0.219-2.387-0.292
	c-0.081-0.033-0.125-0.078-0.125-0.13c0-0.055,0.051-0.103,0.143-0.137c0.021-0.007,0.042-0.013,0.064-0.019
	C4.456,5.436,5.13,5.249,6.364,5.237c0.04,0,0.081-0.001,0.121-0.001c0.041,0,0.082,0.001,0.122,0.001
	c1.234,0.012,1.908,0.198,2.184,0.273c0.021,0.006,0.043,0.012,0.063,0.019C8.947,5.563,8.998,5.611,8.998,5.666 M4.565,7.455
	c0-0.075,0.003-0.153,0.01-0.234c0.007-0.08,0.022-0.161,0.043-0.238c0.021-0.078,0.05-0.152,0.088-0.224
	c0.038-0.07,0.087-0.134,0.147-0.187c0.06-0.054,0.133-0.096,0.218-0.126c0.085-0.032,0.187-0.047,0.305-0.047
	c0.037,0,0.074,0.002,0.112,0.006c0.038,0.005,0.073,0.01,0.104,0.017c0.033,0.007,0.06,0.015,0.082,0.024
	c0.022,0.008,0.038,0.015,0.045,0.022C5.728,6.475,5.734,6.481,5.737,6.49c0.004,0.007,0.007,0.015,0.009,0.025
	C5.75,6.525,5.75,6.536,5.751,6.55C5.752,6.564,5.753,6.58,5.753,6.6c0,0.029-0.001,0.056-0.002,0.075
	C5.75,6.695,5.747,6.711,5.743,6.722s-0.009,0.02-0.017,0.025C5.72,6.751,5.712,6.753,5.702,6.753c-0.011,0-0.026-0.002-0.045-0.01
	C5.638,6.737,5.615,6.73,5.589,6.723C5.563,6.715,5.532,6.708,5.496,6.702C5.46,6.696,5.419,6.693,5.373,6.693
	c-0.08,0-0.147,0.015-0.202,0.044C5.117,6.767,5.072,6.807,5.038,6.856C5.004,6.907,4.979,6.966,4.963,7.031
	C4.947,7.098,4.939,7.169,4.938,7.242C4.96,7.229,4.984,7.216,5.012,7.201C5.04,7.188,5.07,7.177,5.104,7.167
	c0.032-0.01,0.067-0.018,0.106-0.024c0.037-0.007,0.078-0.01,0.121-0.01c0.096,0,0.178,0.014,0.247,0.04
	c0.068,0.026,0.124,0.063,0.167,0.112c0.044,0.05,0.076,0.107,0.096,0.178c0.021,0.069,0.031,0.146,0.031,0.231
	c0,0.096-0.015,0.186-0.044,0.266c-0.03,0.082-0.073,0.153-0.129,0.212S5.572,8.277,5.489,8.311
	C5.407,8.345,5.311,8.361,5.202,8.361c-0.088,0-0.165-0.01-0.23-0.03c-0.065-0.02-0.123-0.048-0.17-0.086
	C4.754,8.207,4.715,8.162,4.685,8.107C4.654,8.055,4.63,7.993,4.612,7.927C4.594,7.859,4.582,7.786,4.574,7.706
	C4.568,7.627,4.565,7.543,4.565,7.455 M6.8,6.91c0-0.04,0.009-0.07,0.029-0.091c0.019-0.021,0.044-0.033,0.076-0.033h0.215
	c0.037,0,0.069,0.004,0.096,0.013c0.025,0.007,0.049,0.02,0.067,0.035C7.301,6.851,7.316,6.873,7.33,6.9
	c0.013,0.027,0.023,0.062,0.033,0.099L7.631,7.83h0.006l0.275-0.825C7.923,6.964,7.934,6.93,7.947,6.901
	c0.012-0.028,0.027-0.051,0.045-0.067s0.039-0.029,0.063-0.036C8.078,6.79,8.106,6.786,8.139,6.786h0.213
	c0.032,0,0.057,0.012,0.076,0.033C8.445,6.84,8.455,6.87,8.455,6.91v1.373c0,0.009-0.004,0.018-0.008,0.024S8.436,8.32,8.424,8.324
	C8.413,8.328,8.398,8.331,8.377,8.333C8.358,8.335,8.333,8.337,8.303,8.337c-0.031,0-0.057-0.002-0.076-0.004
	S8.189,8.328,8.18,8.324C8.168,8.32,8.16,8.314,8.156,8.308S8.15,8.292,8.15,8.283V7.097H8.146L7.775,8.29
	C7.773,8.307,7.76,8.318,7.736,8.326C7.713,8.333,7.676,8.337,7.625,8.337c-0.027,0-0.05-0.002-0.068-0.004
	C7.539,8.331,7.523,8.329,7.512,8.325S7.491,8.316,7.486,8.311C7.479,8.305,7.475,8.298,7.473,8.29L7.105,7.097H7.104v1.187
	c0,0.009-0.002,0.018-0.008,0.024C7.092,8.314,7.084,8.32,7.074,8.324C7.063,8.328,7.047,8.331,7.027,8.333S6.981,8.337,6.951,8.337
	c-0.032,0-0.056-0.002-0.076-0.004S6.84,8.328,6.829,8.324C6.818,8.32,6.81,8.314,6.806,8.308S6.8,8.292,6.8,8.283V6.91z
	 M9.248,5.664c0-0.094-0.027-0.206-0.119-0.255C9.09,5.389,8.207,4.99,6.487,4.99c0,0-0.001,0-0.001,0H6.485c0,0,0,0-0.001,0
	c-1.72,0-2.603,0.398-2.64,0.419C3.751,5.458,3.723,5.57,3.723,5.664c0,0.003,0,0.047,0,0.12c0,0.004,0,2.501,0,2.506
	c0.002,0.04,0.016,0.071,0.034,0.096c0.027,0.036,0.086,0.066,0.086,0.066s0.911,0.374,2.642,0.374c1.732,0,2.644-0.374,2.644-0.374
	s0.058-0.025,0.086-0.066C9.232,8.361,9.246,8.33,9.248,8.29C9.248,8.285,9.248,5.667,9.248,5.664"/>
</g>	
</svg>
