<?xml version="1.0" encoding="utf-8"?>
<!-- Generator: Adobe Illustrator 16.0.0, SVG Export Plug-In . SVG Version: 6.00 Build 0)  -->
<!DOCTYPE svg PUBLIC "-//W3C//DTD SVG 1.1//EN" "http://www.w3.org/Graphics/SVG/1.1/DTD/svg11.dtd">
<svg version="1.1" id="Layer_1" xmlns="http://www.w3.org/2000/svg" xmlns:xlink="http://www.w3.org/1999/xlink" x="0px" y="0px"
	 width="28.35px" height="28.35px" viewBox="0 0 28.35 28.35" enable-background="new 0 0 28.35 28.35" xml:space="preserve">
  <g id="g-transform">
<path d="M16.723,22.996c-0.015,0.019-0.021,0.039-0.021,0.063v2.731c0,0.287,0.041,0.536,0.122,0.751
	c0.083,0.213,0.201,0.392,0.355,0.535c0.156,0.144,0.347,0.251,0.57,0.321c0.225,0.07,0.477,0.105,0.761,0.105
	c0.3,0,0.564-0.04,0.798-0.118c0.231-0.078,0.426-0.193,0.582-0.343c0.156-0.151,0.275-0.335,0.356-0.553
	c0.083-0.216,0.121-0.464,0.121-0.739V23.06c0-0.024-0.007-0.045-0.02-0.063c-0.014-0.018-0.038-0.034-0.073-0.044
	c-0.034-0.012-0.079-0.021-0.137-0.027c-0.057-0.008-0.129-0.011-0.217-0.011s-0.162,0.003-0.22,0.011
	c-0.061,0.006-0.107,0.016-0.141,0.027c-0.035,0.01-0.06,0.026-0.072,0.044c-0.014,0.019-0.024,0.039-0.024,0.063v2.702
	c0,0.158-0.019,0.299-0.062,0.424c-0.043,0.124-0.104,0.226-0.182,0.311c-0.08,0.086-0.176,0.15-0.29,0.192
	c-0.11,0.046-0.24,0.066-0.385,0.066c-0.142,0-0.268-0.021-0.381-0.065c-0.115-0.042-0.215-0.105-0.297-0.191
	c-0.081-0.087-0.145-0.194-0.189-0.325c-0.045-0.132-0.066-0.285-0.066-0.464V23.06c0-0.024-0.005-0.045-0.021-0.063
	c-0.015-0.018-0.039-0.034-0.073-0.044c-0.037-0.012-0.082-0.021-0.141-0.027c-0.058-0.008-0.129-0.011-0.218-0.011
	c-0.09,0-0.164,0.003-0.222,0.011c-0.059,0.006-0.105,0.016-0.14,0.027C16.763,22.962,16.737,22.979,16.723,22.996 M13.541,22.996
	c-0.014,0.019-0.023,0.039-0.023,0.063v4.075c0,0.104,0.026,0.176,0.08,0.223c0.051,0.044,0.115,0.067,0.192,0.067h2.057
	c0.024,0,0.045-0.009,0.063-0.022c0.017-0.013,0.032-0.035,0.042-0.066c0.012-0.03,0.021-0.071,0.026-0.118
	c0.004-0.046,0.008-0.106,0.008-0.175s-0.004-0.127-0.008-0.177c-0.006-0.047-0.015-0.084-0.026-0.114
	c-0.01-0.028-0.025-0.048-0.042-0.063c-0.018-0.012-0.038-0.02-0.063-0.02h-1.412v-3.61c0-0.024-0.007-0.045-0.023-0.063
	c-0.013-0.018-0.04-0.034-0.073-0.044c-0.036-0.012-0.082-0.021-0.14-0.027c-0.058-0.008-0.131-0.011-0.222-0.011
	c-0.087,0-0.161,0.003-0.221,0.011c-0.058,0.006-0.106,0.016-0.139,0.027C13.581,22.962,13.556,22.979,13.541,22.996 M12.966,13.939
	h-1.191l1.183-2.063h0.008V13.939z M13.842,15.479v-0.811h0.401c0.04,0,0.073-0.031,0.098-0.092c0.023-0.062,0.036-0.15,0.036-0.268
	c0-0.132-0.013-0.227-0.039-0.282c-0.026-0.059-0.061-0.087-0.095-0.087h-0.401v-2.703c0-0.024-0.011-0.047-0.034-0.065
	c-0.021-0.017-0.06-0.034-0.109-0.046c-0.05-0.012-0.116-0.021-0.2-0.027c-0.083-0.006-0.184-0.009-0.3-0.009
	c-0.109,0-0.203,0.003-0.279,0.008c-0.077,0.005-0.14,0.012-0.188,0.021c-0.049,0.011-0.089,0.023-0.115,0.04
	c-0.029,0.014-0.049,0.032-0.06,0.054l-1.396,2.458c-0.023,0.045-0.041,0.085-0.058,0.125c-0.014,0.041-0.026,0.081-0.034,0.125
	c-0.008,0.044-0.015,0.092-0.017,0.147c-0.003,0.055-0.005,0.119-0.005,0.192c0,0.091,0.004,0.162,0.012,0.218
	c0.008,0.054,0.02,0.095,0.037,0.124c0.018,0.03,0.041,0.048,0.064,0.055c0.026,0.008,0.054,0.013,0.088,0.013h1.718v0.811
	c0,0.022,0.005,0.044,0.019,0.062c0.011,0.017,0.036,0.031,0.068,0.043c0.035,0.012,0.08,0.022,0.136,0.025
	c0.057,0.008,0.125,0.01,0.21,0.01c0.087,0,0.159-0.002,0.214-0.01c0.057-0.003,0.102-0.014,0.137-0.025
	c0.034-0.012,0.058-0.026,0.073-0.043C13.835,15.523,13.842,15.502,13.842,15.479 M9.835,25.698l0.636-1.906h0.003l0.636,1.906
	H9.835z M8.458,27.271c-0.007,0.05,0,0.087,0.024,0.113c0.024,0.024,0.064,0.043,0.126,0.051c0.06,0.007,0.143,0.01,0.25,0.01
	c0.099,0,0.179-0.002,0.242-0.007c0.062-0.004,0.108-0.013,0.14-0.027c0.036-0.011,0.059-0.03,0.074-0.052
	c0.014-0.022,0.027-0.049,0.037-0.083l0.283-0.877h1.687l0.3,0.903c0.011,0.029,0.023,0.056,0.037,0.072
	c0.012,0.019,0.038,0.032,0.072,0.045c0.034,0.011,0.084,0.017,0.149,0.021c0.066,0.003,0.16,0.005,0.278,0.005
	c0.112,0,0.202-0.002,0.267-0.009c0.066-0.006,0.109-0.021,0.137-0.046c0.024-0.023,0.034-0.06,0.026-0.108
	c-0.006-0.048-0.023-0.113-0.052-0.198l-1.388-3.979c-0.013-0.043-0.029-0.078-0.051-0.104c-0.018-0.025-0.05-0.044-0.096-0.057
	c-0.044-0.013-0.107-0.021-0.188-0.023c-0.082-0.004-0.19-0.006-0.326-0.006c-0.119,0-0.213,0.002-0.284,0.006
	c-0.072,0.003-0.129,0.011-0.17,0.023c-0.038,0.013-0.069,0.031-0.087,0.054c-0.02,0.026-0.035,0.058-0.049,0.096l-1.383,3.984
	C8.482,27.16,8.466,27.223,8.458,27.271 M8.582,10.537l-2.844,0.77c0,0-0.364,0.099-0.036,0.287l1.125,0.651l-2.663,4.611
	c0,0-2.143,3.715,2.144,3.715h7.248l-0.01-1.841H6.289c-1.063,0-0.532-0.922-0.532-0.922l2.676-4.635l1.137,0.655
	c0,0,0.328,0.187,0.231-0.177l-0.758-2.845C9.043,10.806,8.946,10.441,8.582,10.537 M20.741,6.635c0,0,0.096-0.366-0.231-0.178
	l-1.127,0.651l-2.66-4.612c0,0-2.144-3.714-4.289,0L8.809,8.772l1.599,0.911l3.628-6.284c0.531-0.921,1.065,0,1.065,0l2.678,4.636
	l-1.139,0.656c0,0-0.328,0.189,0.039,0.288l2.842,0.768c0,0,0.365,0.1,0.462-0.266L20.741,6.635z M16.194,11.972v2.923h-0.835
	c-0.021,0-0.039,0.006-0.054,0.019c-0.017,0.012-0.033,0.033-0.045,0.06c-0.013,0.029-0.021,0.064-0.026,0.11
	c-0.006,0.046-0.01,0.102-0.01,0.167c0,0.066,0.004,0.121,0.012,0.166c0.006,0.046,0.015,0.081,0.028,0.107
	c0.013,0.026,0.027,0.046,0.043,0.057c0.017,0.013,0.034,0.018,0.052,0.018h2.479c0.021,0,0.038-0.005,0.055-0.018
	c0.017-0.011,0.031-0.03,0.043-0.057c0.014-0.026,0.022-0.062,0.029-0.107c0.008-0.045,0.012-0.1,0.012-0.166
	c0-0.065-0.004-0.121-0.01-0.167c-0.005-0.046-0.014-0.081-0.027-0.11c-0.012-0.027-0.027-0.048-0.045-0.06
	s-0.036-0.019-0.057-0.019h-0.732v-3.711c0-0.02-0.005-0.036-0.014-0.052c-0.011-0.014-0.028-0.024-0.056-0.032
	c-0.028-0.008-0.069-0.014-0.124-0.018c-0.054-0.003-0.126-0.004-0.213-0.004c-0.072,0-0.131,0-0.176,0.001
	c-0.045,0.002-0.082,0.003-0.107,0.006c-0.029,0.004-0.052,0.007-0.067,0.014c-0.02,0.005-0.034,0.013-0.045,0.022l-0.965,0.625
	c-0.028,0.017-0.05,0.034-0.066,0.052c-0.016,0.015-0.027,0.035-0.036,0.063c-0.01,0.024-0.018,0.054-0.02,0.091
	c-0.002,0.035-0.004,0.081-0.004,0.138c0,0.087,0.004,0.154,0.012,0.203c0.008,0.049,0.021,0.083,0.04,0.103
	c0.019,0.02,0.046,0.026,0.078,0.021c0.035-0.006,0.079-0.021,0.131-0.048L16.194,11.972z M25.021,16.837l-3.624-6.276l-1.587,0.929
	l3.628,6.285c0.532,0.922-0.532,0.922-0.532,0.922h-5.353v-1.313c0,0,0-0.378-0.269-0.111l-2.086,2.078c0,0-0.268,0.266,0,0.534
	l2.086,2.077c0,0,0.269,0.267,0.269-0.111V20.55h5.325C22.879,20.55,27.166,20.55,25.021,16.837"/>
    </g>
</svg>
