<?xml version="1.0" encoding="utf-8"?>
<!-- Generator: Adobe Illustrator 16.0.0, SVG Export Plug-In . SVG Version: 6.00 Build 0)  -->
<!DOCTYPE svg PUBLIC "-//W3C//DTD SVG 1.1//EN" "http://www.w3.org/Graphics/SVG/1.1/DTD/svg11.dtd">
<svg version="1.1" id="Layer_1" xmlns="http://www.w3.org/2000/svg" xmlns:xlink="http://www.w3.org/1999/xlink" x="0px" y="0px"
	 width="28.35px" height="28.35px" viewBox="0 0 28.35 28.35" enable-background="new 0 0 28.35 28.35" xml:space="preserve">
<g id="g-transform">
<path fill="#000000" d="M28.302,14.082c0-7.728-6.265-13.995-13.995-13.995c-7.725,0-13.992,6.267-13.992,13.995
	c0,2.993,0.94,5.764,2.54,8.04c0.106,0.052,0.12-0.009,0.08-0.216c-1.456-2.243-2.302-4.936-2.302-7.789
	c0-7.575,6.241-13.614,13.814-13.614c3.506,0.214,6.184,1.432,8.084,3.32c2.029,2.075,3.278,4.913,3.278,8.042
	c0,6.344-5.137,11.488-11.479,11.501v3.225c-1.802-0.565-3.417-1.564-4.714-2.877c-0.002-0.001-0.004-0.004-0.006-0.005
	c-0.074-0.075-0.146-0.15-0.218-0.226c-0.004-0.005-0.008-0.009-0.012-0.013c-0.07-0.074-0.136-0.147-0.205-0.224
	c-0.006-0.007-0.012-0.018-0.018-0.022c-0.066-0.072-0.129-0.146-0.194-0.223c-0.008-0.01-0.016-0.021-0.024-0.032
	c-0.061-0.068-0.12-0.143-0.18-0.218c-0.01-0.013-0.018-0.026-0.027-0.039c-0.059-0.071-0.115-0.145-0.169-0.217
	c-0.012-0.016-0.022-0.034-0.036-0.05c-0.053-0.072-0.104-0.14-0.152-0.212c-0.016-0.02-0.03-0.042-0.044-0.06
	c-0.046-0.07-0.094-0.138-0.143-0.206c-0.014-0.026-0.03-0.05-0.044-0.075c-0.045-0.065-0.087-0.131-0.129-0.199
	c-0.018-0.027-0.034-0.056-0.052-0.086c-0.041-0.062-0.079-0.126-0.117-0.192c-0.02-0.031-0.038-0.065-0.055-0.1
	c-0.036-0.061-0.07-0.121-0.106-0.183c-0.02-0.039-0.038-0.078-0.058-0.113c-0.032-0.058-0.062-0.116-0.092-0.174
	c-0.024-0.045-0.043-0.091-0.066-0.133c-0.026-0.054-0.054-0.106-0.08-0.161c-0.022-0.049-0.046-0.102-0.07-0.151
	c-0.022-0.049-0.044-0.097-0.066-0.146c-0.028-0.062-0.052-0.126-0.08-0.19c-0.017-0.035-0.032-0.073-0.048-0.111
	c-0.042-0.103-0.08-0.203-0.121-0.308c0.041-0.103,0.079-0.205,0.121-0.307c0.016-0.038,0.031-0.076,0.048-0.112
	c0.028-0.063,0.051-0.127,0.08-0.189c0.022-0.048,0.044-0.096,0.066-0.145c0.024-0.052,0.048-0.104,0.07-0.154
	c0.026-0.054,0.054-0.105,0.08-0.16c0.022-0.044,0.042-0.087,0.066-0.131c0.03-0.058,0.06-0.116,0.092-0.175
	c0.02-0.038,0.038-0.076,0.058-0.114c0.036-0.062,0.07-0.122,0.106-0.184c0.018-0.032,0.036-0.066,0.055-0.099
	c0.038-0.064,0.076-0.129,0.117-0.191c0.018-0.03,0.034-0.058,0.052-0.088c0.042-0.066,0.084-0.133,0.129-0.198
	c0.015-0.024,0.03-0.048,0.044-0.074c0.048-0.07,0.096-0.135,0.143-0.205c0.014-0.021,0.028-0.042,0.044-0.061
	c0.048-0.072,0.099-0.143,0.152-0.212c0.014-0.019,0.023-0.034,0.036-0.051c0.054-0.073,0.11-0.146,0.169-0.215
	c0.01-0.014,0.018-0.028,0.027-0.04c0.06-0.074,0.12-0.148,0.18-0.221c0.008-0.01,0.016-0.021,0.024-0.03
	c0.064-0.076,0.127-0.15,0.194-0.222c0.006-0.008,0.012-0.017,0.018-0.022c0.068-0.076,0.135-0.148,0.205-0.223
	c0.004-0.004,0.008-0.009,0.012-0.013c0.072-0.078,0.144-0.152,0.218-0.229c0.002-0.002,0.004-0.002,0.006-0.004
	c1.298-1.312,2.912-2.31,4.714-2.876v3.298c2.729-0.869,5.014-2.73,6.437-5.159c0.021-0.034,0.038-0.065,0.057-0.1
	c0.036-0.062,0.07-0.12,0.104-0.185c0.021-0.036,0.039-0.075,0.06-0.113c0.031-0.058,0.062-0.116,0.092-0.172
	c0.023-0.046,0.043-0.088,0.065-0.134c0.026-0.053,0.054-0.105,0.077-0.16c0.025-0.05,0.049-0.102,0.072-0.154
	c0.022-0.049,0.045-0.096,0.067-0.142c0.027-0.064,0.052-0.128,0.08-0.19c0.016-0.038,0.031-0.074,0.048-0.114
	c0.042-0.101,0.08-0.202,0.12-0.306c-1.232-3.292-3.931-5.869-7.304-6.937c-0.008-0.008-0.014-0.017-0.023-0.024v0.016v3.224
	C7.942,5.366,2.806,10.508,2.806,16.855c0,6.351,5.151,11.502,11.501,11.502c0.002-0.003,0.005-0.007,0.007-0.008
	c7.725-0.004,13.985-6.266,13.985-13.989c0-0.008,0-0.014,0-0.021C28.299,14.253,28.302,14.167,28.302,14.082"/>
</g>	
</svg>
