<?xml version="1.0" encoding="utf-8"?>
<!-- Generator: Adobe Illustrator 16.0.0, SVG Export Plug-In . SVG Version: 6.00 Build 0)  -->
<!DOCTYPE svg PUBLIC "-//W3C//DTD SVG 1.1//EN" "http://www.w3.org/Graphics/SVG/1.1/DTD/svg11.dtd">
<svg version="1.1" id="Layer_1" xmlns="http://www.w3.org/2000/svg" xmlns:xlink="http://www.w3.org/1999/xlink" x="0px" y="0px"
	 width="28.35px" height="28.35px" viewBox="0 0 28.35 28.35" enable-background="new 0 0 28.35 28.35" xml:space="preserve">
<g id="g-transform">	 
<path fill="#000000" d="M16.403,28.105c0,0-0.044,0.302,0.26,0.302h1.433c0,0,0.306,0,0.389-0.301l2.78-10.054l0.941,10.054
	c0,0,0.027,0.301,0.331,0.301h1.353c0,0,0.302,0,0.32-0.302l0.741-14.195c0,0,0.018-0.304-0.283-0.304h-2.477h-1.04h-2.408
	c0,0-0.304,0-0.346,0.304L16.403,28.105z M12.545,15.973l-0.727,9.123c-0.037,0.456-0.494,0.456-0.494,0.456H6.389
	c-0.458,0-0.495-0.456-0.495-0.456l-0.728-9.123c-0.038-0.456,0.42-0.456,0.42-0.456h6.537
	C12.581,15.517,12.545,15.973,12.545,15.973 M13.339,15.105H4.675c0,0-0.605,0-0.557,0.605l0.965,12.092
	c0,0,0.048,0.604,0.655,0.604h6.541c0,0,0.608,0,0.655-0.604l0.963-12.092C13.896,15.711,13.945,15.105,13.339,15.105 M6.251,10.211
	c0.345,1.771-0.671,2.161-0.69,2.762c0.624,0.604,3.158,0.222,3.71,0.456c-0.8-1.715,0.906-2.032,0.688-2.762
	C8.792,10.739,7.79,10.616,6.251,10.211 M20.724,2.394c0-1.247-1.01-2.257-2.259-2.257c-1.244,0-2.253,1.01-2.253,2.257
	c0,1.246,1.009,2.256,2.253,2.256C19.714,4.649,20.724,3.64,20.724,2.394 M24.913,12.354l-2.646-6.212c0,0-0.177-0.42-0.633-0.417
	L7.211,5.722c0,0-0.152,0-0.152,0.152v1.122c0,0,0,0.152,0.15,0.165l9.173,0.85l1.912,4.345c0,0,0.183,0.417,0.638,0.417h5.704
	C24.637,12.773,25.091,12.773,24.913,12.354"/>
</g>	
</svg>
