<?xml version="1.0" encoding="utf-8"?>
<!-- Generator: Adobe Illustrator 16.0.0, SVG Export Plug-In . SVG Version: 6.00 Build 0)  -->
<!DOCTYPE svg PUBLIC "-//W3C//DTD SVG 1.1//EN" "http://www.w3.org/Graphics/SVG/1.1/DTD/svg11.dtd">
<svg version="1.1" id="Layer_1" xmlns="http://www.w3.org/2000/svg" xmlns:xlink="http://www.w3.org/1999/xlink" x="0px" y="0px"
	 width="11.34px" height="11.34px" viewBox="0 0 11.34 11.34" enable-background="new 0 0 11.34 11.34" xml:space="preserve">
<g id="g-transform">
	<g>
		<g>
			<path fill="#FFFFFF" d="M5.544,5.108c0,0.142-0.011,0.271-0.034,0.385C5.487,5.607,5.449,5.705,5.398,5.785
				C5.347,5.866,5.279,5.927,5.196,5.97S5.012,6.035,4.892,6.035c-0.122,0-0.223-0.021-0.302-0.063
				C4.51,5.931,4.446,5.871,4.4,5.792C4.354,5.714,4.32,5.619,4.302,5.505S4.273,5.264,4.273,5.122c0-0.141,0.012-0.27,0.035-0.384
				c0.023-0.115,0.061-0.213,0.112-0.294c0.052-0.08,0.119-0.142,0.202-0.185s0.184-0.065,0.303-0.065
				c0.122,0,0.223,0.021,0.303,0.063c0.081,0.042,0.144,0.103,0.19,0.181s0.079,0.174,0.098,0.287S5.544,4.965,5.544,5.108z
				 M5.181,5.125c0-0.084-0.003-0.158-0.007-0.223C5.169,4.837,5.162,4.782,5.152,4.734c-0.01-0.047-0.021-0.088-0.036-0.121
				C5.103,4.581,5.085,4.554,5.064,4.535C5.045,4.514,5.021,4.5,4.996,4.493C4.971,4.484,4.942,4.48,4.911,4.48
				c-0.054,0-0.099,0.013-0.134,0.039S4.714,4.584,4.693,4.636C4.673,4.689,4.658,4.753,4.65,4.832C4.642,4.91,4.638,5,4.638,5.104
				c0,0.126,0.005,0.23,0.015,0.313C4.663,5.5,4.679,5.566,4.7,5.616c0.021,0.049,0.049,0.083,0.083,0.103s0.074,0.029,0.122,0.029
				c0.036,0,0.067-0.005,0.095-0.017s0.052-0.029,0.072-0.052S5.11,5.627,5.124,5.592c0.014-0.034,0.024-0.074,0.033-0.12
				s0.015-0.098,0.019-0.155C5.179,5.259,5.181,5.195,5.181,5.125z"/>
			<path fill="#FFFFFF" d="M6.989,5.493c0,0.047-0.005,0.082-0.015,0.106S6.952,5.635,6.936,5.635H6.777v0.321
				c0,0.01-0.002,0.018-0.008,0.024S6.754,5.994,6.74,5.998C6.727,6.002,6.709,6.006,6.688,6.008
				C6.665,6.01,6.637,6.011,6.602,6.011c-0.032,0-0.061-0.001-0.083-0.003s-0.04-0.006-0.054-0.011
				c-0.013-0.004-0.022-0.01-0.027-0.017S6.431,5.966,6.431,5.957V5.635H5.75c-0.013,0-0.024-0.002-0.034-0.005
				S5.697,5.62,5.69,5.609c-0.007-0.012-0.012-0.028-0.015-0.05c-0.004-0.021-0.005-0.05-0.005-0.086c0-0.029,0-0.055,0.002-0.076
				C5.674,5.375,5.676,5.356,5.68,5.338C5.683,5.321,5.688,5.305,5.693,5.29s0.014-0.032,0.022-0.05l0.553-0.974
				C6.272,4.257,6.28,4.25,6.291,4.245c0.012-0.006,0.026-0.011,0.047-0.016c0.02-0.004,0.044-0.007,0.074-0.009
				s0.067-0.003,0.11-0.003c0.047,0,0.086,0.002,0.119,0.004s0.06,0.006,0.079,0.011S6.755,4.244,6.764,4.25
				c0.01,0.008,0.014,0.017,0.014,0.026v1.07h0.158c0.015,0,0.027,0.011,0.038,0.033S6.989,5.44,6.989,5.493z M6.431,4.53H6.428
				L5.959,5.347h0.472V4.53z"/>
		</g>
	</g>
	<path fill="#FFFFFF" d="M3.567,4.239L2.593,4.502c0,0-0.126,0.033-0.013,0.098l0.387,0.223L2.055,6.402
		c0,0-0.735,1.273,0.734,1.273h2.481L5.267,7.042H2.781c-0.364,0-0.183-0.314-0.183-0.314L3.516,5.14l0.39,0.226
		c0,0,0.112,0.063,0.078-0.061L3.725,4.331C3.725,4.331,3.691,4.206,3.567,4.239"/>
	<path fill="#FFFFFF" d="M7.731,2.902c0,0,0.032-0.125-0.08-0.061L7.267,3.065L6.354,1.484c0,0-0.734-1.271-1.469,0l-1.242,2.15
		l0.548,0.312l1.244-2.152c0.181-0.314,0.363,0,0.363,0l0.918,1.588l-0.39,0.226c0,0-0.112,0.064,0.013,0.097l0.974,0.264
		c0,0,0.125,0.035,0.158-0.091L7.731,2.902z"/>
	<path fill="#FFFFFF" d="M9.197,6.396L7.956,4.247L7.411,4.565l1.244,2.152c0.182,0.314-0.183,0.314-0.183,0.314H6.64V6.583
		c0,0,0-0.13-0.092-0.039L5.833,7.257c0,0-0.092,0.092,0,0.183L6.548,8.15c0,0,0.092,0.092,0.092-0.038V7.667h1.823
		C8.463,7.667,9.932,7.667,9.197,6.396"/>
	<g>
		<path fill="#FFFFFF" d="M5.606,9.174c0,0.1-0.016,0.188-0.047,0.265S5.482,9.58,5.424,9.633c-0.06,0.053-0.133,0.093-0.22,0.12
			C5.118,9.78,5.016,9.794,4.898,9.794H4.75v0.567c0,0.01-0.003,0.018-0.009,0.025c-0.006,0.007-0.016,0.013-0.029,0.018
			s-0.032,0.008-0.055,0.011c-0.023,0.003-0.053,0.004-0.088,0.004s-0.064-0.001-0.088-0.004s-0.042-0.006-0.056-0.011
			s-0.023-0.011-0.028-0.018c-0.006-0.008-0.009-0.016-0.009-0.025V8.763c0-0.043,0.012-0.075,0.034-0.097s0.052-0.032,0.089-0.032
			h0.419c0.042,0,0.082,0.001,0.12,0.005c0.038,0.003,0.083,0.01,0.137,0.021C5.24,8.67,5.294,8.689,5.349,8.718
			s0.101,0.064,0.14,0.107C5.526,8.869,5.556,8.92,5.576,8.978C5.596,9.036,5.606,9.102,5.606,9.174z M5.229,9.199
			c0-0.062-0.011-0.113-0.033-0.153c-0.021-0.04-0.049-0.07-0.081-0.09C5.082,8.938,5.049,8.925,5.014,8.92S4.941,8.912,4.904,8.912
			H4.75v0.604h0.162c0.058,0,0.106-0.008,0.146-0.023s0.07-0.037,0.095-0.065c0.025-0.027,0.044-0.062,0.057-0.101
			C5.222,9.288,5.229,9.245,5.229,9.199z"/>
		<path fill="#FFFFFF" d="M6.939,10.27c0,0.026-0.001,0.049-0.003,0.066c-0.003,0.019-0.006,0.032-0.011,0.044
			c-0.005,0.011-0.01,0.019-0.017,0.023s-0.015,0.008-0.023,0.008H5.993c-0.03,0-0.056-0.009-0.076-0.026
			c-0.021-0.019-0.031-0.047-0.031-0.088V8.748c0-0.041,0.011-0.069,0.031-0.088c0.021-0.018,0.046-0.026,0.076-0.026h0.888
			c0.008,0,0.016,0.002,0.021,0.007c0.007,0.005,0.012,0.013,0.017,0.023C6.924,8.676,6.927,8.69,6.93,8.708
			c0.002,0.019,0.003,0.041,0.003,0.068c0,0.025-0.001,0.048-0.003,0.065C6.927,8.859,6.924,8.874,6.919,8.885
			s-0.01,0.02-0.017,0.024C6.896,8.914,6.889,8.917,6.881,8.917H6.246v0.434h0.537c0.008,0,0.016,0.003,0.022,0.008
			s0.013,0.013,0.018,0.023c0.004,0.011,0.008,0.024,0.01,0.042c0.003,0.019,0.004,0.04,0.004,0.065
			c0,0.026-0.001,0.049-0.004,0.066c-0.002,0.017-0.006,0.031-0.01,0.042C6.818,9.607,6.813,9.615,6.806,9.62
			C6.799,9.624,6.791,9.627,6.783,9.627H6.246v0.501h0.64c0.009,0,0.017,0.003,0.023,0.008s0.012,0.013,0.017,0.024
			c0.005,0.011,0.008,0.025,0.011,0.043C6.938,10.221,6.939,10.243,6.939,10.27z"/>
	</g>
</g>
</svg>
