<?xml version="1.0" encoding="UTF-8" standalone="no"?>
<svg
   xmlns:dc="http://purl.org/dc/elements/1.1/"
   xmlns:cc="http://creativecommons.org/ns#"
   xmlns:rdf="http://www.w3.org/1999/02/22-rdf-syntax-ns#"
   xmlns:svg="http://www.w3.org/2000/svg"
   xmlns="http://www.w3.org/2000/svg"
   xml:space="preserve"
   enable-background="new 0 0 28.35 28.35"
   viewBox="0 0 28.35 28.35"
   height="28.35px"
   width="28.35px"
   y="0px"
   x="0px"
   id="Layer_1"
   version="1.1">
  <g id="g-transform">
  <metadata
       id="metadata28"><rdf:RDF><cc:Work
         rdf:about=""><dc:format>image/svg+xml</dc:format><dc:type
           rdf:resource="http://purl.org/dc/dcmitype/StillImage" /><dc:title></dc:title></cc:Work></rdf:RDF></metadata><defs
     id="defs26" /><g transform="matrix(2.7452953,0,0,2.7452953,-1.3002692,-1.3882314)"><g
       id="g4"><g
  id="g6"><path
    id="path8"
    d="M 5.544,5.108 C 5.544,5.25 5.533,5.379 5.51,5.493 5.487,5.607 5.449,5.705 5.398,5.785 5.347,5.866 5.279,5.927 5.196,5.97 5.113,6.013 5.012,6.035 4.892,6.035 4.77,6.035 4.669,6.014 4.59,5.972 4.51,5.931 4.446,5.871 4.4,5.792 4.354,5.714 4.32,5.619 4.302,5.505 4.284,5.391 4.273,5.264 4.273,5.122 4.273,4.981 4.285,4.852 4.308,4.738 4.331,4.623 4.369,4.525 4.42,4.444 4.472,4.364 4.539,4.302 4.622,4.259 4.705,4.216 4.806,4.194 4.925,4.194 c 0.122,0 0.223,0.021 0.303,0.063 0.081,0.042 0.144,0.103 0.19,0.181 0.046,0.078 0.079,0.174 0.098,0.287 0.019,0.113 0.028,0.24 0.028,0.383 z M 5.181,5.125 C 5.181,5.041 5.178,4.967 5.174,4.902 5.169,4.837 5.162,4.782 5.152,4.734 5.142,4.687 5.131,4.646 5.116,4.613 5.103,4.581 5.085,4.554 5.064,4.535 5.045,4.514 5.021,4.5 4.996,4.493 4.971,4.484 4.942,4.48 4.911,4.48 4.857,4.48 4.812,4.493 4.777,4.519 4.742,4.545 4.714,4.584 4.693,4.636 4.673,4.689 4.658,4.753 4.65,4.832 4.642,4.91 4.638,5 4.638,5.104 4.638,5.23 4.643,5.334 4.653,5.417 4.663,5.5 4.679,5.566 4.7,5.616 4.721,5.665 4.749,5.699 4.783,5.719 4.817,5.739 4.857,5.748 4.905,5.748 4.941,5.748 4.972,5.743 5,5.731 5.028,5.719 5.052,5.702 5.072,5.679 5.092,5.656 5.11,5.627 5.124,5.592 5.138,5.558 5.148,5.518 5.157,5.472 5.166,5.426 5.172,5.374 5.176,5.317 5.179,5.259 5.181,5.195 5.181,5.125 Z" /><path
           style="fill:#ffffff"
           id="path10"
           d="M 6.989,5.493 C 6.989,5.54 6.984,5.575 6.974,5.599 6.964,5.623 6.952,5.635 6.936,5.635 l -0.159,0 0,0.321 C 6.777,5.966 6.775,5.974 6.769,5.98 6.763,5.986 6.754,5.994 6.74,5.998 6.727,6.002 6.709,6.006 6.688,6.008 6.665,6.01 6.637,6.011 6.602,6.011 6.57,6.011 6.541,6.01 6.519,6.008 6.497,6.006 6.479,6.002 6.465,5.997 6.452,5.993 6.443,5.987 6.438,5.98 6.433,5.973 6.431,5.966 6.431,5.957 l 0,-0.322 -0.681,0 C 5.737,5.635 5.726,5.633 5.716,5.63 5.706,5.627 5.697,5.62 5.69,5.609 5.683,5.597 5.678,5.581 5.675,5.559 5.671,5.538 5.67,5.509 5.67,5.473 5.67,5.444 5.67,5.418 5.672,5.397 5.674,5.375 5.676,5.356 5.68,5.338 5.683,5.321 5.688,5.305 5.693,5.29 5.698,5.275 5.707,5.258 5.715,5.24 L 6.268,4.266 C 6.272,4.257 6.28,4.25 6.291,4.245 6.303,4.239 6.317,4.234 6.338,4.229 6.358,4.225 6.382,4.222 6.412,4.22 6.442,4.218 6.479,4.217 6.522,4.217 c 0.047,0 0.086,0.002 0.119,0.004 0.033,0.002 0.06,0.006 0.079,0.011 0.019,0.005 0.035,0.012 0.044,0.018 0.01,0.008 0.014,0.017 0.014,0.026 l 0,1.07 0.158,0 c 0.015,0 0.027,0.011 0.038,0.033 0.011,0.022 0.015,0.061 0.015,0.114 z M 6.431,4.53 l -0.003,0 -0.469,0.817 0.472,0 0,-0.817 z" /></g></g><path
       id="path12"
       d="M 3.567,4.239 2.593,4.502 c 0,0 -0.126,0.033 -0.013,0.098 L 2.967,4.823 2.055,6.402 c 0,0 -0.735,1.273 0.734,1.273 l 2.481,0 -0.003,-0.633 -2.486,0 C 2.417,7.042 2.598,6.728 2.598,6.728 L 3.516,5.14 3.906,5.366 c 0,0 0.112,0.063 0.078,-0.061 L 3.725,4.331 c 0,0 -0.034,-0.125 -0.158,-0.092" /><path
       style="fill:#ffffff"
       id="path14"
       d="m 7.731,2.902 c 0,0 0.032,-0.125 -0.08,-0.061 L 7.267,3.065 6.354,1.484 c 0,0 -0.734,-1.271 -1.469,0 L 3.643,3.634 4.191,3.946 5.435,1.794 c 0.181,-0.314 0.363,0 0.363,0 l 0.918,1.588 -0.39,0.226 c 0,0 -0.112,0.064 0.013,0.097 l 0.974,0.264 c 0,0 0.125,0.035 0.158,-0.091 l 0.26,-0.976 z" /><path
       id="path16"
       d="M 9.197,6.396 7.956,4.247 7.411,4.565 8.655,6.717 C 8.837,7.031 8.472,7.031 8.472,7.031 l -1.832,0 0,-0.448 c 0,0 0,-0.13 -0.092,-0.039 L 5.833,7.257 c 0,0 -0.092,0.092 0,0.183 l 0.715,0.71 c 0,0 0.092,0.092 0.092,-0.038 l 0,-0.445 1.823,0 c 0,0 1.469,0 0.734,-1.271" /><g
       id="g18"><path
 id="path20"
 d="m 5.606,9.174 c 0,0.1 -0.016,0.188 -0.047,0.265 C 5.528,9.516 5.482,9.58 5.424,9.633 5.364,9.686 5.291,9.726 5.204,9.753 5.118,9.78 5.016,9.794 4.898,9.794 l -0.148,0 0,0.567 c 0,0.01 -0.003,0.018 -0.009,0.025 -0.006,0.007 -0.016,0.013 -0.029,0.018 -0.013,0.005 -0.032,0.008 -0.055,0.011 -0.023,0.003 -0.053,0.004 -0.088,0.004 -0.035,0 -0.064,-0.001 -0.088,-0.004 C 4.457,10.412 4.439,10.409 4.425,10.404 4.411,10.399 4.402,10.393 4.397,10.386 4.391,10.378 4.388,10.37 4.388,10.361 l 0,-1.598 C 4.388,8.72 4.4,8.688 4.422,8.666 4.444,8.644 4.474,8.634 4.511,8.634 l 0.419,0 c 0.042,0 0.082,10e-4 0.12,0.005 0.038,0.003 0.083,0.01 0.137,0.021 0.053,0.01 0.107,0.029 0.162,0.058 0.055,0.029 0.101,0.064 0.14,0.107 0.037,0.044 0.067,0.095 0.087,0.153 0.02,0.058 0.03,0.124 0.03,0.196 z M 5.229,9.199 C 5.229,9.137 5.218,9.086 5.196,9.046 5.175,9.006 5.147,8.976 5.115,8.956 5.082,8.938 5.049,8.925 5.014,8.92 4.979,8.915 4.941,8.912 4.904,8.912 l -0.154,0 0,0.604 0.162,0 C 4.97,9.516 5.018,9.508 5.058,9.493 5.098,9.478 5.128,9.456 5.153,9.428 5.178,9.401 5.197,9.366 5.21,9.327 5.222,9.288 5.229,9.245 5.229,9.199 Z" /><path
         id="path22"
         d="m 6.939,10.27 c 0,0.026 -0.001,0.049 -0.003,0.066 -0.003,0.019 -0.006,0.032 -0.011,0.044 -0.005,0.011 -0.01,0.019 -0.017,0.023 -0.007,0.004 -0.015,0.008 -0.023,0.008 l -0.892,0 c -0.03,0 -0.056,-0.009 -0.076,-0.026 C 5.896,10.366 5.886,10.338 5.886,10.297 l 0,-1.549 C 5.886,8.707 5.897,8.679 5.917,8.66 5.938,8.642 5.963,8.634 5.993,8.634 l 0.888,0 c 0.008,0 0.016,0.002 0.021,0.007 C 6.909,8.646 6.914,8.654 6.919,8.664 6.924,8.676 6.927,8.69 6.93,8.708 6.932,8.727 6.933,8.749 6.933,8.776 6.933,8.801 6.932,8.824 6.93,8.841 6.927,8.859 6.924,8.874 6.919,8.885 6.914,8.896 6.909,8.905 6.902,8.909 6.896,8.914 6.889,8.917 6.881,8.917 l -0.635,0 0,0.434 0.537,0 c 0.008,0 0.016,0.003 0.022,0.008 0.006,0.005 0.013,0.013 0.018,0.023 0.004,0.011 0.008,0.024 0.01,0.042 0.003,0.019 0.004,0.04 0.004,0.065 0,0.026 -10e-4,0.049 -0.004,0.066 C 6.831,9.572 6.827,9.586 6.823,9.597 6.818,9.607 6.813,9.615 6.806,9.62 6.799,9.624 6.791,9.627 6.783,9.627 l -0.537,0 0,0.501 0.64,0 c 0.009,0 0.017,0.003 0.023,0.008 0.006,0.005 0.012,0.013 0.017,0.024 0.005,0.011 0.008,0.025 0.011,0.043 10e-4,0.018 0.002,0.04 0.002,0.067 z" /></g></g>
</g>
    </svg>