<?xml version="1.0" encoding="utf-8"?>
<!-- Generator: Adobe Illustrator 16.0.0, SVG Export Plug-In . SVG Version: 6.00 Build 0)  -->
<!DOCTYPE svg PUBLIC "-//W3C//DTD SVG 1.1//EN" "http://www.w3.org/Graphics/SVG/1.1/DTD/svg11.dtd">
<svg version="1.1" id="Layer_1" xmlns="http://www.w3.org/2000/svg" xmlns:xlink="http://www.w3.org/1999/xlink" x="0px" y="0px"
	 width="28.35px" height="28.35px" viewBox="0 0 28.35 28.35" enable-background="new 0 0 28.35 28.35" xml:space="preserve">
<g id="g-transform">  
<path d="M16.212,23.782c-0.008,0.052-0.012,0.112-0.012,0.188c0,0.071,0.004,0.131,0.012,0.181
	c0.005,0.051,0.015,0.091,0.025,0.122c0.014,0.03,0.028,0.055,0.046,0.069c0.016,0.014,0.038,0.021,0.062,0.021h1.194v3.844
	c0,0.024,0.009,0.046,0.023,0.066c0.016,0.018,0.043,0.033,0.079,0.046c0.038,0.013,0.086,0.023,0.15,0.031
	c0.062,0.006,0.139,0.011,0.234,0.011c0.092,0,0.17-0.005,0.231-0.011c0.064-0.008,0.113-0.019,0.149-0.031
	c0.039-0.013,0.065-0.028,0.081-0.046c0.016-0.021,0.024-0.042,0.024-0.066v-3.844h1.194c0.021,0,0.042-0.008,0.061-0.021
	c0.017-0.015,0.032-0.039,0.044-0.069c0.014-0.031,0.023-0.071,0.028-0.122c0.007-0.05,0.01-0.109,0.01-0.181
	c0-0.075-0.003-0.136-0.01-0.188c-0.005-0.052-0.015-0.093-0.028-0.124c-0.012-0.03-0.027-0.054-0.044-0.066
	c-0.019-0.014-0.04-0.02-0.061-0.02h-3.362c-0.023,0-0.046,0.006-0.062,0.02c-0.018,0.013-0.032,0.036-0.046,0.066
	C16.227,23.689,16.217,23.73,16.212,23.782 M12.701,23.644c-0.055,0.047-0.082,0.125-0.082,0.232v4.157
	c0,0.108,0.027,0.185,0.082,0.231c0.058,0.05,0.125,0.074,0.206,0.074h2.395c0.021,0,0.042-0.009,0.059-0.021
	c0.021-0.013,0.036-0.034,0.049-0.064c0.011-0.028,0.021-0.066,0.025-0.115c0.006-0.048,0.01-0.108,0.01-0.179
	c0-0.071-0.004-0.132-0.01-0.18c-0.005-0.046-0.015-0.087-0.025-0.113c-0.013-0.031-0.028-0.054-0.049-0.065
	c-0.017-0.014-0.037-0.02-0.059-0.02h-1.718v-1.346h1.441c0.022,0,0.042-0.007,0.059-0.019c0.021-0.013,0.036-0.033,0.049-0.061
	c0.011-0.028,0.021-0.065,0.026-0.112s0.009-0.107,0.009-0.179c0-0.068-0.003-0.127-0.009-0.175
	c-0.006-0.046-0.016-0.086-0.026-0.112c-0.013-0.03-0.028-0.051-0.049-0.064c-0.017-0.013-0.036-0.02-0.059-0.02h-1.441V24.33h1.703
	c0.021,0,0.041-0.007,0.058-0.021c0.019-0.013,0.03-0.034,0.046-0.063c0.011-0.03,0.021-0.069,0.025-0.116
	c0.008-0.048,0.01-0.107,0.01-0.175c0-0.075-0.002-0.136-0.01-0.183c-0.005-0.05-0.015-0.088-0.025-0.119
	c-0.016-0.029-0.027-0.053-0.046-0.063c-0.017-0.013-0.036-0.018-0.058-0.018h-2.38C12.827,23.572,12.759,23.595,12.701,23.644
	 M13.458,11.761v3.282h-0.942c-0.022,0-0.043,0.006-0.063,0.021c-0.018,0.015-0.032,0.038-0.047,0.068
	c-0.015,0.032-0.026,0.072-0.033,0.124c-0.006,0.05-0.01,0.113-0.01,0.188c0,0.073,0.005,0.135,0.012,0.184
	c0.007,0.053,0.021,0.093,0.033,0.122c0.015,0.031,0.031,0.052,0.051,0.063c0.016,0.013,0.036,0.02,0.057,0.02h2.782
	c0.024,0,0.046-0.007,0.064-0.02c0.02-0.012,0.035-0.032,0.048-0.063c0.015-0.029,0.024-0.069,0.033-0.122
	c0.01-0.049,0.013-0.11,0.013-0.184c0-0.075-0.003-0.139-0.01-0.188c-0.008-0.052-0.018-0.092-0.032-0.124
	c-0.014-0.03-0.029-0.054-0.051-0.068c-0.02-0.015-0.041-0.021-0.065-0.021h-0.819v-4.167c0-0.023-0.005-0.044-0.019-0.06
	c-0.01-0.015-0.028-0.026-0.062-0.036c-0.031-0.01-0.078-0.017-0.138-0.02c-0.061-0.005-0.142-0.006-0.239-0.006
	c-0.079,0-0.146,0-0.196,0.001c-0.053,0.001-0.091,0.005-0.125,0.008c-0.031,0.004-0.054,0.009-0.076,0.017
	c-0.018,0.006-0.034,0.014-0.047,0.024l-1.083,0.703c-0.031,0.019-0.057,0.041-0.075,0.059c-0.018,0.018-0.032,0.041-0.043,0.07
	c-0.01,0.028-0.017,0.063-0.019,0.103c-0.002,0.041-0.005,0.092-0.005,0.155c0,0.099,0.005,0.176,0.011,0.229
	c0.009,0.055,0.023,0.093,0.045,0.116c0.023,0.022,0.051,0.029,0.09,0.022c0.04-0.005,0.087-0.022,0.147-0.052L13.458,11.761z
	 M9.194,24.318h0.414c0.101,0,0.198,0.009,0.294,0.021c0.094,0.014,0.184,0.045,0.269,0.096c0.088,0.052,0.16,0.132,0.22,0.24
	c0.057,0.107,0.088,0.245,0.088,0.414c0,0.12-0.017,0.235-0.053,0.34c-0.034,0.104-0.084,0.193-0.151,0.268
	c-0.066,0.077-0.151,0.134-0.256,0.177c-0.104,0.042-0.234,0.062-0.389,0.062H9.194V24.318z M8.317,23.658
	c-0.061,0.058-0.09,0.144-0.09,0.258v4.291c0,0.024,0.007,0.046,0.021,0.066c0.015,0.018,0.04,0.033,0.077,0.046
	c0.036,0.013,0.086,0.023,0.15,0.031c0.062,0.006,0.14,0.011,0.232,0.011c0.098,0,0.176-0.005,0.237-0.011
	c0.062-0.008,0.109-0.019,0.146-0.031c0.038-0.013,0.063-0.028,0.08-0.046c0.014-0.021,0.022-0.042,0.022-0.066v-1.523h0.398
	c0.315,0,0.589-0.037,0.82-0.109C10.645,26.5,10.84,26.392,11,26.25c0.161-0.14,0.283-0.314,0.366-0.52
	c0.083-0.207,0.125-0.443,0.125-0.711c0-0.195-0.028-0.37-0.083-0.525c-0.052-0.156-0.132-0.293-0.234-0.41
	c-0.104-0.114-0.228-0.213-0.374-0.29c-0.147-0.073-0.291-0.128-0.433-0.155c-0.143-0.028-0.264-0.047-0.368-0.056
	c-0.101-0.008-0.208-0.011-0.322-0.011H8.553C8.455,23.572,8.377,23.6,8.317,23.658 M7.398,10.408l-3.02,0.817
	c0,0-0.388,0.104-0.039,0.304l1.195,0.691l-2.828,4.897c0,0-2.277,3.943,2.276,3.943h7.697l-0.011-1.955H4.961
	c-1.129,0-0.564-0.979-0.564-0.979l2.842-4.923l1.209,0.698c0,0,0.348,0.199,0.244-0.188l-0.804-3.021
	C7.888,10.692,7.783,10.306,7.398,10.408 M20.309,6.263c0,0,0.103-0.388-0.245-0.188l-1.196,0.691l-2.826-4.896
	c0,0-2.277-3.943-4.555,0L7.638,8.534l1.699,0.968l3.852-6.673c0.565-0.978,1.128,0,1.128,0l2.843,4.923l-1.206,0.697
	c0,0-0.348,0.201,0.038,0.306l3.021,0.814c0,0,0.388,0.105,0.491-0.283L20.309,6.263z M24.854,17.098l-3.848-6.666l-1.687,0.986
	l3.854,6.674c0.563,0.978-0.566,0.978-0.566,0.978h-5.683v-1.393c0,0,0-0.401-0.285-0.118l-2.216,2.205c0,0-0.285,0.283,0,0.567
	l2.216,2.207c0,0,0.285,0.283,0.285-0.119v-1.381h5.651C22.576,21.039,27.131,21.039,24.854,17.098"/>
  </g>
</svg>
