<?xml version="1.0" encoding="utf-8"?>
<!-- Generator: Adobe Illustrator 16.0.0, SVG Export Plug-In . SVG Version: 6.00 Build 0)  -->
<!DOCTYPE svg PUBLIC "-//W3C//DTD SVG 1.1//EN" "http://www.w3.org/Graphics/SVG/1.1/DTD/svg11.dtd">
<svg version="1.1" id="Layer_1" xmlns="http://www.w3.org/2000/svg" xmlns:xlink="http://www.w3.org/1999/xlink" x="0px" y="0px"
	 width="107px" height="41.71px" viewBox="0 0 107 41.71" enable-background="new 0 0 107 41.71" xml:space="preserve">
<g>
	<defs>
		<rect id="SVGID_1_" x="1" y="1" width="105" height="39.71"/>
	</defs>
	<clipPath id="SVGID_2_">
		<use xlink:href="#SVGID_1_"  overflow="visible"/>
	</clipPath>
	<polyline clip-path="url(#SVGID_2_)" fill="#FFFFFF" points="1,1 106,1 106,40.71 1,40.71 1,1 	"/>
	<polyline clip-path="url(#SVGID_2_)" points="11,1 12,1 12,36 11,36 11,1 	"/>
	<polyline clip-path="url(#SVGID_2_)" points="13,1 14,1 14,36 13,36 13,1 	"/>
	<polyline clip-path="url(#SVGID_2_)" points="15,1 17,1 17,31 15,31 15,1 	"/>
	<polyline clip-path="url(#SVGID_2_)" points="18,1 21,1 21,31 18,31 18,1 	"/>
	<polyline clip-path="url(#SVGID_2_)" points="22,1 26,1 26,31 22,31 22,1 	"/>
	<polyline clip-path="url(#SVGID_2_)" points="27,1 28,1 28,31 27,31 27,1 	"/>
	<polyline clip-path="url(#SVGID_2_)" points="29,1 31,1 31,31 29,31 29,1 	"/>
	<polyline clip-path="url(#SVGID_2_)" points="33,1 35,1 35,31 33,31 33,1 	"/>
	<polyline clip-path="url(#SVGID_2_)" points="36,1 38,1 38,31 36,31 36,1 	"/>
	<polyline clip-path="url(#SVGID_2_)" points="40,1 42,1 42,31 40,31 40,1 	"/>
	<polyline clip-path="url(#SVGID_2_)" points="43,1 45,1 45,31 43,31 43,1 	"/>
	<polyline clip-path="url(#SVGID_2_)" points="47,1 49,1 49,31 47,31 47,1 	"/>
	<polyline clip-path="url(#SVGID_2_)" points="50,1 53,1 53,31 50,31 50,1 	"/>
	<polyline clip-path="url(#SVGID_2_)" points="54,1 56,1 56,31 54,31 54,1 	"/>
	<polyline clip-path="url(#SVGID_2_)" points="57,1 58,1 58,36 57,36 57,1 	"/>
	<polyline clip-path="url(#SVGID_2_)" points="59,1 60,1 60,36 59,36 59,1 	"/>
	<polyline clip-path="url(#SVGID_2_)" points="61,1 64,1 64,31 61,31 61,1 	"/>
	<polyline clip-path="url(#SVGID_2_)" points="65,1 66,1 66,31 65,31 65,1 	"/>
	<polyline clip-path="url(#SVGID_2_)" points="68,1 71,1 71,31 68,31 68,1 	"/>
	<polyline clip-path="url(#SVGID_2_)" points="73,1 74,1 74,31 73,31 73,1 	"/>
	<polyline clip-path="url(#SVGID_2_)" points="75,1 77,1 77,31 75,31 75,1 	"/>
	<polyline clip-path="url(#SVGID_2_)" points="79,1 81,1 81,31 79,31 79,1 	"/>
	<polyline clip-path="url(#SVGID_2_)" points="82,1 85,1 85,31 82,31 82,1 	"/>
	<polyline clip-path="url(#SVGID_2_)" points="86,1 87,1 87,31 86,31 86,1 	"/>
	<polyline clip-path="url(#SVGID_2_)" points="89,1 90,1 90,31 89,31 89,1 	"/>
	<polyline clip-path="url(#SVGID_2_)" points="92,1 95,1 95,31 92,31 92,1 	"/>
	<polyline clip-path="url(#SVGID_2_)" points="96,1 98,1 98,31 96,31 96,1 	"/>
	<polyline clip-path="url(#SVGID_2_)" points="99,1 101,1 101,31 99,31 99,1 	"/>
	<polyline clip-path="url(#SVGID_2_)" points="103,1 104,1 104,36 103,36 103,1 	"/>
	<polyline clip-path="url(#SVGID_2_)" points="105,1 106,1 106,36 105,36 105,1 	"/>
	<g clip-path="url(#SVGID_2_)">
		<text transform="matrix(1 0 0 1 4.8398 38.7695)" font-family="'Tahoma'" font-size="9">3</text>
	</g>
	<g clip-path="url(#SVGID_2_)">
		<text transform="matrix(1 0 0 1 19.29 38.7695)" font-family="'Tahoma'" font-size="9">831117</text>
	</g>
	<g clip-path="url(#SVGID_2_)">
		<text transform="matrix(1 0 0 1 66.7998 38.7695)" font-family="'Tahoma'" font-size="9">901952</text>
	</g>
</g>
</svg>
