<?xml version="1.0" encoding="utf-8"?>
<svg version="1.1" data-color-numbers="3" id="Layer_1" xmlns="http://www.w3.org/2000/svg" xmlns:xlink="http://www.w3.org/1999/xlink" x="0px" y="0px"
	 viewBox="0 0 425.2 354.3" style="enable-background:new 0 0 425.2 354.3;" xml:space="preserve">
<style type="text/css">
  <![CDATA[
  @font-face {
        font-family: "DevroyeUnicode";
        src: url("/Content/fonts/DEVROYUN.ttf") format("truetype");
  }
	.rpl0-1{fill:#C2B59B;}
  .rpl0-2{fill:#82b4bc;}
  .rpl0-3{fill:#a9711a;}
	.rpl1-1{fill:#9B8579;}
  .rpl1-2{fill:#dfe6e9;}
  .rpl1-3{fill:#4d2911;}
	.st3{fill:#2B3990;}
	.rpl4-1{fill:#F7941E;}
  .rpl4-2{fill:#3d2826;}
  .rpl4-3{fill:#3d2826;}
	.rpl5-1{fill:#FBB040;}
  .rpl5-2{fill:#62514f;}
  .rpl5-3{fill:#ddd3aa;}
	.st6{fill:#3C2415;}
	.rpl7-1{fill:#664838;}
  .rpl7-2{fill:#3f8689;}
  .rpl7-3{fill:#104d3f;}
	.st8{fill:#FFFFFF;}
	.st9{font-family:'DevroyeUnicode';}
	.st10{font-size:12px;}
	.st11{font-size:13px;}
	.st12{fill:#A97C50;}
	.st13{fill:#F1F2F2;}
	.rpl14-1{fill:#C49A6C;}
  .rpl14-2{fill:#fd614e;}
  .rpl14-3{fill:#6cc1ab;}
	.st15{font-size:14px;}
	.st16{fill:#231F20;}
  .st17{fill:#FFFFFF;}
  .editable{text-anchor: middle;}
  .svgProduct{text-anchor: middle;}
  .svgRibbon{visibility:hidden; opacity:0.6;fill:#FFFFFF;}
 ]]>
</style>
<image style="overflow:visible;" width="781" height="790" id="editableImg" xlink:href="/content/img/cat-images-hilarious-gifs.jpg"  transform="matrix(0.3519 0 0 0.3519 83.5462 54.5124)">
</image>
<path id="Background" class="rpl0-1" d="M0,0v354.3h425.2V0H0z M295.1,351.5h-165V59.3h165V351.5z"/>
<path id="chevron_pattern" class="rpl1-1" d="M425.2,246.2v15.9l-47.8-34.9l-82.3,62.2v-16.9l82.2-62.1L425.2,246.2z M302.6,328.3h22.5
	l52-38.8l48.1,35.5v-16l-48.1-36.3L302.6,328.3z M295.1,163.9l82-61.3l48.1,35.5v-16l-48.1-36.3l-82,61.3V163.9z M287.5,59.3h7.6
	v11.1l82-61.3l48.1,35.5v-16L387.2,0h-20.3L287.5,59.3z M47.2,30.6L88.3,0H65.7L47.1,13.8L28.8,0H6.6L47.2,30.6z M425.2,339.3
	l-47.4-35.4l-66.9,50.5h22.4l44.6-33.7l46.1,33.7h1.2V339.3z M157.7,9.2l67.1,50.1h22.5L167.9,0h-20.4L47.9,74.4L0,39v16l47.9,36.2
	L157.7,9.2z M424.6,59.6l-48.3-36.1l-81.2,61.3v16.9l81.3-61.4l48.3,35.3L424.6,59.6z M47.7,124l82.4-62.3v-2.4h3.2L157,41.5
	l24.2,17.9h22.7l-46.9-34.7L47.6,107.2L0,72.4v15.9L47.7,124z M130.1,216.7v-16.8l-82.2,61.4L0,225.8v16L47.9,278L130.1,216.7z
	 M130.1,232.5l-81.6,61.6L0.4,258.9l0.1,16l48.1,36l81.5-61.5V232.5z M130.1,310.1v-16.8l-46.9,35.1h22.5L130.1,310.1z M295.1,195.6
	l81.8-61.8l48.3,35.3l-0.1-16l-48.3-36.1l-81.7,61.7V195.6z M0,181.5l48.1,36l82-61.9v-16.9l-82,62L0,165.5v8.7L0,181.5z
	 M295.1,257.3l82-61.3l48.1,35.5v-16l-48.1-36.3l-82,61.3V257.3z M130.1,123.2v-16.8l-82.2,61.4L0,132.4v16l47.9,36.2L130.1,123.2z"
	/>
<rect id="text_background_left" x="0" class="svgRibbon" width="85" height="327.5"/>
<rect id="text_background_right" x="340.2" class="svgRibbon" width="85" height="327.6"/>
<g id="stamp">
	<path class="st3" d="M269.3,336.4c-0.8-3.2-0.8-6.6-0.7-9.7c0.1-3.3,0.4-6.5,1.3-9.6c0.9-3.1,2.3-6.1,3.9-8.9s3.6-5.5,5.9-7.7
		c2.3-2.3,4.8-4.9,7.7-6.5c2.8-1.6,6-2.1,9.2-2.9c3.2-0.8,6.5-1.1,9.7-1c3.3,0.1,6.7,0.2,9.8,1.1c3.1,0.9,6.1,2.6,8.9,4.2
		s5.6,3.5,7.9,5.8c2.3,2.3,3.7,5.3,5.3,8.2c1.6,2.8,3.4,5.6,4.2,8.8c0.8,3.2,1,6.6,1,9.8c-0.1,3.3-0.5,6.6-1.4,9.7
		c-0.3,1.1-0.8,2.2-1.3,3.3h3.6c0.2-0.8,0.5-1.6,0.7-2.4c1-3.4,2.2-6.9,2.2-10.6c0.1-3.5-1-7-1.9-10.6c-0.9-3.6-2.1-6.9-3.8-10
		c-1.8-3.2-4-6-6.5-8.5c-2.5-2.6-5-5.2-8.1-7.1c-3.1-1.8-6.5-3.3-9.9-4.3c-3.4-1-7.1-1-10.7-1.1c-3.5-0.1-7.2-0.2-10.8,0.7
		c-3.6,0.9-6.7,2.7-9.8,4.4c-3.2,1.8-6,3.9-8.6,6.4c-2.6,2.5-5,5.2-6.8,8.3c-1.8,3.1-3.6,6.3-4.6,9.8c-1,3.4-1,7.1-1.1,10.7
		c-0.1,3.5,0.2,7.1,1.1,10.6c0.3,1.2,0.6,2.4,1,3.6h3.7C270.2,339.4,269.7,337.9,269.3,336.4z"/>
	<polygon class="st3" points="286.2,321.6 285.7,326.9 286.2,332.1 288.1,336.9 291,340.8 292.9,340.8 292.2,340.2 289.1,336.4 
		287.3,331.8 286.7,326.9 287.5,322 289.4,317.5 292.5,313.7 296.4,310.6 301,308.9 305.9,308.4 310.8,309 315.3,311 319,314.2 
		321.9,318.1 323.8,322.6 324.6,327.5 323.8,332.4 321.8,336.8 318.6,340.6 318.4,340.8 320.1,340.8 322.9,337.5 325.2,332.8 
		326,327.5 325.3,322.3 323.1,317.5 320,313.3 316,309.9 311.2,307.7 306,307 300.7,307.6 295.8,309.5 291.6,312.7 288.4,316.9 	"/>
	<polygon class="st3" points="261.4,340.8 263.7,340.8 262.5,337.9 260.7,324 264.2,310.4 271.3,298.3 281.7,288.9 294.8,283.9 
		308.7,282.5 322.2,285.8 334.4,292.6 343.8,303.1 348.6,316.3 349.9,330.1 347.3,340.8 350.3,340.8 350.7,339.9 352.1,327.8 
		350.9,315.7 346.1,304.6 338.7,295 329.7,286.9 318.5,282.1 306.4,280.2 294.3,282 283.1,286.5 273.1,293.4 265.7,303.1 
		261.3,314.4 259.3,326.3 260.5,338.4 	"/>
</g>
<path id="tape_shade" class="rpl4-1" d="M305.7,288.6l-10.6,2.9v-5.7L305.7,288.6z M295.1,318.3v5.7l10.6-2.9L295.1,318.3z
	 M119.6,288.7l10.6,2.9v-5.7L119.6,288.7z M119.9,59.4l10.2,2.6v-5.5L119.9,59.4z M119.6,321.2l10.6,2.9v-5.7L119.6,321.2z"/>
<path id="tapes" class="rpl5-1" d="M305.8,59.4H119.7V0.1h186.1V59.4z M305.8,293.1H119.7v28h186.1V293.1z M305.8,260.6H119.7v28h186.1
	V260.6z"/>
<g id="Button_Stripe">
	<rect x="0" y="328.1" class="st6" width="425.2" height="26.2"/>
	<rect x="0" y="328.1" class="rpl7-1" width="425.2" height="26.2"/>
</g>
<path id="AlpStories_LOGO" d="M218.3,43.4c0-0.2,0.1-0.3,0.4-0.3h4.6c0.3,0,0.4,0.1,0.4,0.3v3.9c0,0.2-0.1,0.3-0.4,0.3h-4.6
	c-0.3,0-0.4-0.1-0.4-0.3V43.4z M217.1,43.2v4.3c0,0.8,0.5,1.1,1.3,1.1h5.1c0.8,0,1.3-0.3,1.3-1.1v-4.3c0-0.8-0.5-1.1-1.3-1.1h-5.1
	C217.7,42.1,217.1,42.4,217.1,43.2 M207.7,42.1V43c0,0,0,0.1,0.1,0.1h2.8c0,0,0.1,0,0.1,0.1v5.4c0,0,0,0.1,0.1,0.1h1
	c0,0,0.1,0,0.1-0.1v-5.4c0,0,0-0.1,0.1-0.1h2.8c0,0,0.1,0,0.1-0.1v-0.9c0,0,0-0.1-0.1-0.1L207.7,42.1
	C207.8,42.1,207.7,42.1,207.7,42.1 M196.8,47.1v0.4c0,0.8,0.5,1.1,1.3,1.1h1.9h3.7c0.8,0,1.3-0.3,1.3-1.1v-2.3
	c0-0.8-0.5-1.2-1.3-1.2h-5c-0.3,0-0.4-0.1-0.4-0.3v-1.6c0-0.2,0.1-0.3,0.4-0.3h4.6c0.3,0,0.4,0.1,0.4,0.3v0.1c0,0.1,0.1,0.1,0.1,0.1
	l0.9-0.1c0.1,0,0.1-0.1,0.1-0.1v-0.3c0-0.8-0.5-1.1-1.3-1.1h-5c-0.8,0-1.3,0.3-1.3,1.1v2c0,0.8,0.5,1.1,1.3,1.1h5
	c0.3,0,0.4,0.1,0.4,0.3v1.9c0,0.2-0.1,0.3-0.4,0.3h-5.1c-0.3,0-0.4-0.1-0.4-0.3V47c0-0.1-0.1-0.1-0.1-0.1L197,47
	C196.9,47,196.8,47.1,196.8,47.1 M175.7,48.6C175.7,48.6,175.7,48.6,175.7,48.6l-4.2-7.8c0,0-0.1-0.1-0.1-0.1H170c0,0-0.1,0-0.1,0.1
	l-4.2,7.7c0,0,0,0.1,0,0.1h1.2c0,0,0.1,0,0.1-0.1l3.6-6.7c0,0,0,0,0.1,0c0,0,0,0,0.1,0h0l2.1,3.8l-3.3,0.1c-0.3,0-0.5,0.2-0.5,0.4
	v0.1c0,0.2,0.2,0.4,0.5,0.4l3.8,0.1l1,1.9c0,0,0.1,0.1,0.1,0.1H175.7z M184.5,48.6v-0.9c0,0,0-0.1-0.1-0.1h-4.9c0,0-0.1,0-0.1-0.1
	v-5.4c0,0,0-0.1-0.1-0.1h-1c0,0-0.1,0-0.1,0.1v6.4c0,0.1,0.1,0.1,0.1,0.1L184.5,48.6C184.5,48.6,184.5,48.6,184.5,48.6 M193.9,44.9
	v-1.7c0-0.8-0.5-1.1-1.3-1.1h-5.4c-0.1,0-0.1,0.1-0.1,0.1v6.4c0,0,0,0.1,0.1,0.1l1,0c0,0,0.1,0,0.1-0.1v-5.4c0,0,0-0.1,0.1-0.1h4.1
	c0.3,0,0.4,0.1,0.4,0.3v1.3c0,0.2-0.1,0.3-0.4,0.3l-2.9,0.1c-0.3,0-0.5,0.2-0.5,0.4v0.1c0,0.2,0.2,0.4,0.5,0.4l3.2,0.1
	C193.4,46,193.9,45.7,193.9,44.9 M214.8,27.1c0,0-4.2-8.8-4.2-8.8c-0.3-0.6-0.8-1.1-1.6-1.2c-0.7,0-1.4,0.3-1.8,0.8
	c0,0-11.3,16-11.3,16.1c-0.3,0.4-0.3,0.8-0.2,0.9c0.2,0.1,0.6,0,0.8-0.4c0,0,11-14,11-14c0.3-0.4,0.8-0.8,1.3-0.7
	c0.5,0,0.8,0.4,1,0.9c0,0,3.1,7.2,3.2,7.2c0.3,0.6,0.9,0.9,1.3,0.7C214.9,28.4,215.1,27.7,214.8,27.1 M227.8,30
	c0.3-0.6,0.1-1.4-0.4-1.9c0,0-6.9-8.3-6.9-8.3c-0.2-0.3-0.3-0.5-0.2-0.8c0.1-0.3,0.4-0.5,0.8-0.6c0,0,5.4-1,5.4-1
	c0.3,0,0.5-0.2,0.5-0.5c0-0.2-0.3-0.4-0.6-0.3L219,17c-0.7,0-1.3,0.4-1.5,1c-0.2,0.5,0,1.1,0.3,1.6c0,0,7.1,8.1,7.1,8.1
	c0.2,0.3,0.4,0.7,0.2,1.1c-0.1,0.3-0.4,0.6-0.8,0.7c0,0-17.6,4.2-17.6,4.2c-0.5,0.1-0.8,0.4-0.8,0.6c0,0.2,0.5,0.3,1,0.2
	c0,0,19.4-3.5,19.4-3.5C227,31,227.6,30.6,227.8,30 M235.6,48.6c0.1-0.1,0.1-0.2,0-0.3c0,0-1.5-1.4-2.4-2.3l0.5,0
	c0.8,0,1.3-0.3,1.3-1.1v-1.7c0-0.8-0.5-1.1-1.3-1.1h-5.1c-0.1,0-0.1,0.1-0.1,0.1v6.4c0,0,0,0.1,0.1,0.1l1,0c0,0,0.1,0,0.1-0.1v-5.4
	c0,0,0-0.1,0.1-0.1h3.7c0.3,0,0.4,0.1,0.4,0.3v1.3c0,0.2-0.1,0.3-0.4,0.3l-2.6,0.1c-0.3,0-0.5,0.2-0.5,0.4v0.1
	c0,0.2,0.2,0.4,0.5,0.4l1.1,0l2.4,2.6c0.1,0.1,0.1,0.1,0.2,0.1h1C235.5,48.6,235.6,48.6,235.6,48.6 M239.8,48.6v-6.4
	c0,0,0-0.1-0.1-0.1h-1c0,0-0.1,0-0.1,0.1v6.4c0,0,0,0.1,0.1,0.1L239.8,48.6C239.8,48.6,239.8,48.6,239.8,48.6 M249.9,48.6v-0.9
	c0,0,0-0.1-0.1-0.1h-5.3c0,0-0.1,0-0.1-0.1v-1.9l2.6,0c0.3,0,0.5-0.2,0.5-0.4v-0.1c0-0.2-0.2-0.4-0.5-0.4l-2.6,0v-1.6
	c0,0,0-0.1,0.1-0.1h5.2c0,0,0.1,0,0.1-0.1v-0.9c0,0,0-0.1-0.1-0.1h-6.3c-0.1,0-0.1,0.1-0.1,0.1v6.3c0,0.1,0.1,0.1,0.1,0.1
	L249.9,48.6C249.9,48.6,249.9,48.6,249.9,48.6 M253.6,44.4v-1c0-0.2,0.1-0.3,0.4-0.3h3.8c0.3,0,0.4,0.1,0.4,0.3v0.2
	c0,0.1,0.1,0.1,0.1,0.1l0.9-0.1c0.1,0,0.1-0.1,0.1-0.1v-0.3c0-0.8-0.5-1.1-1.3-1.1h-4.1c-0.8,0-1.3,0.3-1.3,1.1v1.4
	c0,0.8,0.5,1.1,1.3,1.1h4.2c0.3,0,0.4,0.1,0.4,0.3v1.3c0,0.2-0.1,0.3-0.4,0.3h-4.2c-0.3,0-0.4-0.1-0.4-0.3V47c0-0.1-0.1-0.1-0.1-0.1
	l-0.9,0.1c-0.1,0-0.1,0.1-0.1,0.1v0.4c0,0.8,0.5,1.1,1.3,1.1h1.4h3.1c0.8,0,1.3-0.3,1.3-1.1v-1.6c0-0.8-0.5-1.1-1.3-1.1H254
	C253.8,44.8,253.6,44.6,253.6,44.4"/>
<text id="product" transform="matrix(1 0 0 1 208.9401 346.2487)" class="st8 st9 st10 svgProduct">Product name</text>
<text id="quantity" transform="matrix(1 0 0 1 12.4779 348.0842)" class="st8 st9 st11">220 ml</text>
<path id="postage_stamp_3_" class="st12" d="M304.8,89.5l0.7-2.4c-1.9-0.6-3-2.5-2.5-4.2c0.5-1.8,2.5-2.8,4.4-2.2l0.7-2.4
	c-1.9-0.6-3-2.5-2.5-4.2c0.5-1.8,2.5-2.8,4.4-2.2l0.7-2.4c-1.9-0.6-3-2.5-2.5-4.2c0.5-1.8,2.5-2.8,4.4-2.2l0.7-2.4
	c-1.9-0.6-3-2.5-2.5-4.2c0.5-1.8,2.5-2.8,4.4-2.2l0.7-2.4c-1.9-0.6-3-2.5-2.5-4.2c0.5-1.8,2.5-2.8,4.4-2.2l0.7-2.4
	c-1.9-0.6-3-2.5-2.4-4.4l-2.4-0.7c-0.6,1.9-2.5,3-4.3,2.5c-1.8-0.5-2.8-2.5-2.3-4.4l-2.4-0.7c-0.6,1.9-2.5,3-4.3,2.5
	c-1.8-0.5-2.8-2.5-2.3-4.4l-2.4-0.7c-0.6,1.9-2.5,3-4.3,2.5c-1.8-0.5-2.8-2.5-2.3-4.4l-2.4-0.7c-0.6,1.9-2.5,3-4.3,2.5
	c-1.8-0.5-2.8-2.5-2.3-4.4l-2.4-0.7c-0.6,1.9-2.5,3-4.4,2.4l-0.7,2.4c1.9,0.6,3,2.5,2.5,4.2c-0.5,1.8-2.5,2.8-4.4,2.2l-0.7,2.4
	c1.9,0.6,3,2.5,2.5,4.2c-0.5,1.8-2.5,2.8-4.4,2.2l-0.7,2.4c1.9,0.6,3,2.5,2.5,4.2c-0.5,1.8-2.5,2.8-4.4,2.2l-0.7,2.4
	c1.9,0.6,3,2.5,2.5,4.2c-0.5,1.8-2.5,2.8-4.4,2.2l-0.7,2.4c1.9,0.6,3,2.5,2.5,4.2c-0.5,1.8-2.5,2.8-4.4,2.2l-0.7,2.4
	c1.9,0.6,3,2.5,2.4,4.4l2.4,0.7c0.6-1.9,2.5-3,4.3-2.5c1.8,0.5,2.8,2.5,2.3,4.4l2.4,0.7c0.6-1.9,2.5-3,4.3-2.5
	c1.8,0.5,2.8,2.5,2.3,4.4l2.4,0.7c0.6-1.9,2.5-3,4.3-2.5c1.8,0.5,2.8,2.5,2.3,4.4l2.4,0.7c0.6-1.9,2.5-3,4.3-2.5
	c1.8,0.5,2.8,2.5,2.3,4.4l2.4,0.7C300.9,90.1,302.9,89,304.8,89.5z"/>
<path id="postage_stamp_2_" class="st13" d="M305.7,89l0.7-2.4c-1.9-0.6-3-2.5-2.5-4.2c0.5-1.8,2.5-2.8,4.4-2.2l0.7-2.4
	c-1.9-0.6-3-2.5-2.5-4.2c0.5-1.8,2.5-2.8,4.4-2.2l0.7-2.4c-1.9-0.6-3-2.5-2.5-4.2c0.5-1.8,2.5-2.8,4.4-2.2l0.7-2.4
	c-1.9-0.6-3-2.5-2.5-4.2c0.5-1.8,2.5-2.8,4.4-2.2l0.7-2.4c-1.9-0.6-3-2.5-2.5-4.2c0.5-1.8,2.5-2.8,4.4-2.2l0.7-2.4
	c-1.9-0.6-3-2.5-2.4-4.4l-2.4-0.7c-0.6,1.9-2.5,3-4.3,2.5c-1.8-0.5-2.8-2.5-2.3-4.4l-2.4-0.7c-0.6,1.9-2.5,3-4.3,2.5
	c-1.8-0.5-2.8-2.5-2.3-4.4l-2.4-0.7c-0.6,1.9-2.5,3-4.3,2.5c-1.8-0.5-2.8-2.5-2.3-4.4l-2.4-0.7c-0.6,1.9-2.5,3-4.3,2.5
	c-1.8-0.5-2.8-2.5-2.3-4.4l-2.4-0.7c-0.6,1.9-2.5,3-4.4,2.4l-0.7,2.4c1.9,0.6,3,2.5,2.5,4.2c-0.5,1.8-2.5,2.8-4.4,2.2l-0.7,2.4
	c1.9,0.6,3,2.5,2.5,4.2c-0.5,1.8-2.5,2.8-4.4,2.2l-0.7,2.4c1.9,0.6,3,2.5,2.5,4.2c-0.5,1.8-2.5,2.8-4.4,2.2l-0.7,2.4
	c1.9,0.6,3,2.5,2.5,4.2c-0.5,1.8-2.5,2.8-4.4,2.2l-0.7,2.4c1.9,0.6,3,2.5,2.5,4.2c-0.5,1.8-2.5,2.8-4.4,2.2l-0.7,2.4
	c1.9,0.6,3,2.5,2.4,4.4l2.4,0.7c0.6-1.9,2.5-3,4.3-2.5c1.8,0.5,2.8,2.5,2.3,4.4l2.4,0.7c0.6-1.9,2.5-3,4.3-2.5
	c1.8,0.5,2.8,2.5,2.3,4.4l2.4,0.7c0.6-1.9,2.5-3,4.3-2.5c1.8,0.5,2.8,2.5,2.3,4.4l2.4,0.7c0.6-1.9,2.5-3,4.3-2.5
	c1.8,0.5,2.8,2.5,2.3,4.4l2.4,0.7C301.8,89.6,303.8,88.5,305.7,89z"/>
<rect id="postage_stamp_background_2" x="271.1" y="35.6" transform="matrix(0.9602 0.2794 -0.2794 0.9602 28.0581 -78.6885)" class="rpl14-1" width="37.9" height="47"/>
<path id="man_silhouette" d="M303.7,58.3c-0.2-0.8-1.9-0.8-4.3-0.9c0.4-1.6,0.9-3.6,1.6-5.5c1.2-3.8,1.9-6.2,2.6-8
	c-0.4-1.5-8-3.7-8-3.7s-7.7-2.2-8.8-1.2c-0.4,1.9-1.1,4.3-2.1,8.2c-0.5,2-1.1,3.9-1.7,5.5c-2-1.3-3.5-2.1-4.1-1.6
	c-1.2,1.1-2.4,7.8,10.1,11.4C301.6,66.2,304.2,59.9,303.7,58.3z M294.8,42.9c5.2,1.5,8.1,1.5,8.1,1.5s-2.6,0.9-8.2-0.8
	c-5.7-1.6-7.5-3.7-7.5-3.7S289.6,41.4,294.8,42.9z M294.8,78c-0.3,1.2-0.9,1.9-1.6,2.1c-0.4,0.1-0.8-0.1-1.1-0.4
	c-0.4-0.5-0.7-1.4-0.2-2.5c0.2-0.6,2.4-8.8,2.7-9.8c0,0,0-0.1,0-0.1c0.4-1.3-0.4-2.7-1.7-3c-1.3-0.4-2.7,0.4-3,1.7
	c-0.4,1.3,0.4,2.7,1.7,3c0.9,0.3,1.9,0,2.5-0.7c-0.7,2.4-2.3,8.3-2.4,8.8c-0.5,1.3-0.2,2.3,0.3,2.8c0.2,0.2,0.4,0.4,0.7,0.5
	c0.2,0.1,0.4,0.1,0.6,0c0.4-0.1,1.3-0.5,1.8-2.3L294.8,78z M291.7,68.4c-1-0.3-1.6-1.3-1.3-2.3c0.3-1,1.3-1.6,2.3-1.3
	c1,0.3,1.6,1.3,1.3,2.3C293.8,68.1,292.8,68.7,291.7,68.4z M291.4,73.8c0,0-0.6,1.3-2.3,1.2c-1.7-0.1-3.2-1.9-3.2-1.9
	s-2.2,0.7-3.7-0.1c-1.5-0.8-1.3-2.2-1.3-2.2s0.4,0.7,1.5,0.8c1.1,0.1,1.4-1.1,2.4-1.1c1,0,1.5,1.2,1.5,1.2s1.1-0.8,1.9-0.2
	c0.8,0.6,0.4,1.7,1.4,2.3C290.7,74.2,291.4,73.8,291.4,73.8z"/>
<path id="With_best_wishes_postmark" class="st3" d="M131.2,76.6c-2.9,0.7-5.7,1.2-8.5,1.2c-2.9,0-5.7-0.6-8.5-1.4
	c-2.8-0.8-5.5-1.8-7.9-3.3c-2.5-1.5-4.7-3.3-6.7-5.4c-2-2-3.8-4.3-5.2-6.8c-1.4-2.5-2.1-5.2-2.8-8.1c-0.7-2.9-1-5.7-0.9-8.5
	c0-2.9,0.1-5.8,0.8-8.5c0.8-2.8,2.2-5.3,3.6-7.8c1.5-2.5,3.4-4.6,5.4-6.6c2-2,4.3-3.7,6.8-5.1c2.5-1.4,5-2.8,7.8-3.5
	c2.9-0.7,5.7-0.6,8.6-0.5c2.9,0,5.8,0.1,8.5,0.9c2.8,0.8,5.5,1.9,7.9,3.4c2.5,1.5,4.5,3.6,6.5,5.6c2,2,3.7,4.3,5.1,6.8
	c1.4,2.5,2.3,5.1,3,8c0.7,2.9,1.5,5.6,1.5,8.4c0,2.9-1,5.7-1.8,8.4c-0.8,2.8-1.7,5.5-3.2,7.9c-1.5,2.5-3.5,4.5-5.5,6.5
	c-2,2-4.1,3.9-6.7,5.3C136.8,74.9,134.1,75.9,131.2,76.6z M116,15.9c-2.6,0.6-5.1,1.1-7.3,2.3c-2.3,1.3-4.3,3.4-6.1,5.2
	c-1.9,1.8-3.4,3.9-4.7,6.2c-1.3,2.2-2.4,4.6-3.1,7.1c-0.7,2.5-1,5-1,7.7c0,2.5-0.1,5.2,0.6,7.8c0.6,2.6,1.6,5.1,2.8,7.3
	c1.3,2.3,3.2,4.1,5,6c1.8,1.9,3.7,3.7,5.9,5c2.2,1.3,4.6,2.6,7.1,3.3c2.5,0.7,5.1,1.1,7.7,1.1c2.5,0,5.1-0.7,7.7-1.3
	c2.6-0.6,5.2-1.2,7.4-2.4c2.3-1.3,4.2-3.2,6-5c1.9-1.8,3.4-3.9,4.8-6.1c1.3-2.2,2.8-4.5,3.5-7c0.7-2.5,1-5.1,1.1-7.7
	c0-2.5-0.1-5.2-0.8-7.8c-0.6-2.6-2.1-4.8-3.3-7c-1.3-2.3-2.4-4.7-4.2-6.5c-1.8-1.9-4.1-3.3-6.3-4.6c-2.2-1.3-4.5-2.7-7-3.4
	c-2.5-0.7-5.1-0.8-7.8-0.8C121.2,15.1,118.6,15.3,116,15.9z M127,60.3l-4.1,0.5l-4.1-0.5l-3.8-1.7l-3.3-2.5l-2.5-3.3l-1.6-3.9
	l-0.4-4.1l0.4-4.2l1.8-3.8l2.5-3.3l3.3-2.6l3.9-1.5l4.2-0.5l4.2,0.6l3.8,1.7l3.2,2.7l2.5,3.4l1.7,3.8l0.6,4.2l-0.6,4.2l-1.8,3.8
	l-2.7,3.2l-3.3,2.6L127,60.3z M119.5,30.2l-3.7,1.4l-3.1,2.4l-2.5,3l-1.5,3.6l-0.6,3.9l0.5,3.9l1.4,3.7l2.5,3l3,2.5l3.6,1.5l3.9,0.5
	l3.9-0.4l3.6-1.4l3.1-2.3l2.5-3l1.7-3.5l0.6-3.9l-0.6-3.9l-1.5-3.6l-2.3-3.1l-2.9-2.6l-3.6-1.7l-3.9-0.4L119.5,30.2z M132.1,80.7
	l-9.6,0.7l-9.5-1.2l-8.9-3.8l-7.4-6.2l-6.1-7.5l-3.5-9l-0.9-9.6l1.6-9.5l3.5-9l5.8-7.7l8-5.5l8.9-3.6l9.6-1.4l9.6,1.5l8.9,3.8
	l7.2,6.5l5.8,7.6l3.8,8.9l1,9.6l-1.1,9.6l-4.3,8.7l-6,7.5l-7.5,6L132.1,80.7z M114.5,10.3l-10.4,4l-8.3,7.5l-5.7,9.6l-2.8,10.8
	l1.4,11.1L93,63.6l7.2,8.5l9.5,5.9l10.9,2.2l11-1.2l10.3-4l8.3-7.4l5.4-9.7l2.6-10.7l-1-11l-3.8-10.5l-7.5-8.3l-9.7-5.4l-10.8-2.6
	L114.5,10.3z M97.4,36.2l1.5,0.8l1.5,0.7l1.5,0.7l1.5,0.8l1.5,0.7l1.3,0.6l0.7,1l-1.4,0.6l-1.6,0.2l-1.6,0.2l-1.6,0.1l-1.6,0.1
	l1.4,0.6L102,44l1.4,0.5l1.3,0.7l1.4,0.6l0,1.1l-1.7,0.5l-1.7,0.2l-1.9,0.1l-1.9,0l-1.5-0.1l-0.9,0.8L96.1,48l1.4-1.3l1.5-0.2
	l1.5-0.3l1.5-0.2l1.5,0l1.5-0.2l-1.3-0.7l-1.3-0.5l-1.3-0.7l-1.3-0.6l-1.3-0.6l-1.8-0.2l0.8-1.1l1.6-0.2l1.6-0.1L102,41l1.6-0.1
	l1.6-0.1l-1.4-0.8l-1.3-0.8l-1.3-0.8L99.7,38l-1.5-0.3l-1,0.9l-0.6-1.4l0.3-1.7L97.4,36.2z M99.8,29.4l0.1,1.1l-1.3-0.4L98.5,29
	L99.8,29.4L99.8,29.4z M109.5,35.7l-1,1l-1.4-0.4l-1.2-0.9l-1.1-1l-1.1-1l-1.1-1l-0.5,0.7l0-1l1.8,0.1l1.3,1l1.3,1l1.5,0.8l1.4-0.5
	L109.5,35.7L109.5,35.7z M107.4,26.9l-0.9,1l0.9,1.3l1.1,1.1l1,1.2l1.2,1l1.2-0.8l-0.4,1.7l-1.7,0.3l-1.1-1.2l-1.1-1.2l-1-1.3
	l-1-1.3l-0.5,0.5l-0.6-2l-0.1-1.3l1.4,1.4l1.2-1.4L107.4,26.9z M111.8,31.7L111.8,31.7L111.8,31.7z M118.2,28.8l-1.4,0.6l-0.9-1.2
	l-0.5-1.4l-0.4-1.5l-0.5-1.4l-0.9-1.1l-0.9,1l-0.3,1.5l0.1,1.5l0.4,1.7l0.6,1.6l-0.7,1.4l-0.8-1.3l-0.6-1.5l-0.6-1.5l-0.6-1.5
	l-0.5-1.5l-0.5-1.5l-0.6-1.5l-0.5-1.5l-1.1,0.5l1.5-1.4l0.6,1.6l0.7,1.5l0.6,1.5l0.7,1.5l0.6,1.5l0-1.5l0.2-1.5l0.6-1.4l1.3-0.5
	l1.1,1.1l0.6,1.5l0.5,1.4l0.7,1.4l1.5,0.6L118.2,28.8L118.2,28.8z M130,27.5l-1.2,0.8l-1.4,0.4l-1.5,0l-1.4-0.3L123,28l0.7-0.5
	l0.5-1.3l0.4-1.4l0.4-1.6l0.5-1.6l0.5-1.5l0.7-1.5l-1-0.2l2-0.2l1.6,0.2l1.5,0.6l0.7,1.5l-0.9,1.5l-1.4,1l1.2,1.1l0.3,1.7L130,27.5
	L130,27.5z M129.3,25.1l-1-1.4l-1.7-0.4l-0.7,2.1l-0.5,1.3l0.5,1.2l1.7-0.1l1.4-1L129.3,25.1L129.3,25.1z M129.8,19.8l-1-0.7
	l-1.2-0.2l-0.4,1.8l-0.6,1.8l1.2,0.2l1.1-0.2l1-1.2L129.8,19.8L129.8,19.8z M137.2,28.8l-1.3,0.4l-1.3,0l-1.2-0.4l-0.8,1.2l1.4,1
	l1.2-0.3l-0.6,0.8l-1.8,0.1l-1.6-0.9l-0.4-1.5l0.6-1.4l1.1-1.2l1.3-0.9l1.4-0.8l1.5-0.2l1.3,0.6l0.6,1.3l-0.4,1.3L137.2,28.8
	L137.2,28.8z M137.6,26.9l-0.1-1.4l-1.5-0.1l-1.1,0.7L134,27l-0.1,1.2l1.4,0l1.3-0.5L137.6,26.9L137.6,26.9z M138.6,35.6l-1.4-0.2
	l-1.3-0.6l-1-1l0.1-1.4l1.4-0.2l0.1,2.2l1.3,0.7l1-1.1l0.2-1.5l0.2-1.6l1.1-1.1l1.5-0.2l1.6,1l0.4,1.5l-1-0.3l-0.2-1.2l-1.2-0.3
	l-0.7,1l-0.1,1.8l-0.5,1.7L138.6,35.6L138.6,35.6z M146.1,38.2l-0.5-1.3l-1.5,0.3l-1.5,0.5l-1.5,0.3l-1.3,0.7l0.1,1.4l-1.5-1.1
	l0.5-1.7l1.5-0.5l1.6-0.3l1.6-0.4l1.6-0.4l-0.3-0.7l2.1,0.3l1.3,0.6l-2,0.6l0.7,1.8L146.1,38.2z M139.9,40.2L139.9,40.2L139.9,40.2z
	 M146.3,59l-1.3-1.1l-1.3-1l-1.3-1.1l-1.3-1.1l-1.2-1.2l-1.1-0.8l-0.6-1.2l1.5-0.3l1.6,0.1l1.6,0.2l1.6,0.3l1.6,0.3l-1.2-0.9
	l-1.2-0.9l-1.2-0.9l-1.2-0.9l-1.2-0.9l0.2-1.2l1.7,0l1.7,0.2l1.8,0.3l1.8,0.4l1.4,0.4l1-0.6l0.4,0.6l-1.6,1l-1.5-0.1l-1.5-0.2
	l-1.5-0.2l-1.5-0.2l-1.5-0.2l1.2,1l1.1,0.9l1.2,0.8l1.1,0.9l1.1,0.9l1.6,0.5l-0.9,1l-1.6-0.2l-1.6-0.2l-1.6-0.2l-1.6-0.2l-1.6-0.3
	l1.1,1.1l1.1,1.1l1.2,1l1.2,1l1.4,0.5l1.1-0.7l0.3,1.6l-0.7,1.6L146.3,59z M134.3,56.7l1.2-0.7l1.3,0.7l1,1.1l0.9,1.2l0.8,1.2
	l0.8,1.3l0.6-0.6l-0.2,1l-1.7-0.5l-1-1.3l-1.1-1.2l-1.2-1.1l-1.5,0.1L134.3,56.7z M142.4,65.1l0.2-1.1l1.2,0.7l-0.2,1.1L142.4,65.1z
	 M130.4,61.1l0.4-1.3l0.8-1.2l1.1-0.8l1.3,0.2l0.1,1.5l-1.8-0.4l-1.1,0.9l0.4,1.3l1.4,0.5l1.7,0.3l1.3,1.1l0,1.7l-1.2,1.5l-1.6,0.2
	l0.5-1l1.2,0l0.5-1.2l-0.9-0.9l-1.8-0.3l-1.6-0.7L130.4,61.1L130.4,61.1z M122.8,61.4l1.5-0.1l0.5,1.4l0,1.5l-0.1,1.5l0,1.5l0.5,1.4
	l1.3-0.6l0.6-1.4l0.4-1.5l0.1-1.7l0.1-1.7l1-1.2L129,62l0.1,1.6l0,1.6l0.1,1.6l0,1.6l0,1.6l0.1,1.6l0,1.5l1.2-0.2l-1.9,0.8l-0.3-1.6
	l-0.2-1.6l-0.1-1.7l-0.1-1.7l-0.1-1.7l-0.4,1.4L127,68l-0.9,1.1l-1.3,0.4l-1-1.1l-0.2-1.5l0-1.4l-0.1-1.4l-0.2-1.4l-1.1-0.5
	L122.8,61.4z M115.3,64.5l1-0.8l1.2-0.5l1.3,0l0.4-1.2l-1.3-0.9l-1.4,0.7l-0.1-0.6l1.5-0.7l1.6-0.1l1.2,0.9l0.1,1.6l-0.5,1.5
	l-0.7,1.4l-1,1.2l-1.3,0.9l-1.6,0.1l-1.3-0.8l-0.2-1.5L115.3,64.5L115.3,64.5z M115.6,66.4l0.6,1.3l1.4-0.4l0.8-1l0.5-1.2l-0.2-1.2
	l-1.3,0.4l-1.1,0.9L115.6,66.4z M111.7,58.5l1.4-0.2l1.4,0.3l1.3,0.6l0,1.3l-1.2,0.2l-0.2-1.3l-1-0.8l-1.4,0.3l0,1.5l0.4,1.5
	l0.1,1.5l-0.9,1.2l-1.5,0.5l-1.6-0.6l-0.6-1.4l0.8-0.7l0.1,1.3l1.5,0.6l0.6-1.7l-0.5-1.6l0.1-1.6L111.7,58.5L111.7,58.5z
	 M105.3,60.2l1.4-1.1l1.4-1l1.5-0.5l-1,1.4l-1.4,1.2l-1.4,1.2l-1.4,1.2l-1.5,1.1l-1.5-0.4l1-1.2l1.3-0.9L105.3,60.2L105.3,60.2z
	 M111.3,55.6l1.1,0.2l-0.7,1.1l-1.1-0.2L111.3,55.6L111.3,55.6z M103,57l1.5-0.8l1.6-0.7l1.6-0.3l-1.2,1.2l-1.5,1l-1.6,0.9l-1.5,1
	l-1.6,0.7l-1.3-0.6l1.2-1l1.4-0.8L103,57L103,57z M109.6,53.4l1.1,0.4l-1,0.9l-1-0.3L109.6,53.4L109.6,53.4z M101.3,53.4l1.7-0.5
	l1.7-0.4l1.7-0.1l-1.5,1l-1.7,0.7l-1.7,0.7l-1.7,0.6L98,56l-1.2-0.8l1.3-0.8l1.5-0.5L101.3,53.4L101.3,53.4z M108.4,51.1l0.9,0.5
	l-1.1,0.8l-1-0.5L108.4,51.1L108.4,51.1z"/>
<path id="postage_stamp_1_" class="st12" d="M143.3,254.3l-0.5-2c-1.6,0.4-3.1-0.6-3.5-2c-0.3-1.5,0.7-3,2.2-3.3l-0.5-2
	c-1.6,0.4-3.1-0.6-3.5-2c-0.3-1.5,0.7-3,2.2-3.3l-0.5-2c-1.6,0.4-3.1-0.6-3.5-2c-0.3-1.5,0.7-3,2.2-3.3l-0.5-2
	c-1.6,0.4-3.1-0.6-3.5-2s0.7-3,2.2-3.3l-0.5-2c-1.6,0.4-3.1-0.6-3.5-2c-0.3-1.5,0.7-3,2.2-3.3l-0.5-2c-1.6,0.4-3.2-0.6-3.5-2.2
	l-2,0.5c0.4,1.6-0.6,3.1-2.1,3.5c-1.5,0.3-3-0.7-3.4-2.2l-2,0.5c0.4,1.6-0.6,3.1-2.1,3.5c-1.5,0.3-3-0.7-3.4-2.2l-2,0.5
	c0.4,1.6-0.6,3.1-2.1,3.5s-3-0.7-3.4-2.2l-2,0.5c0.4,1.6-0.6,3.1-2.1,3.5c-1.5,0.3-3-0.7-3.4-2.2l-2,0.5c0.4,1.6-0.6,3.2-2.2,3.5
	l0.5,2c1.6-0.4,3.1,0.6,3.5,2c0.3,1.5-0.7,3-2.2,3.3l0.5,2c1.6-0.4,3.1,0.6,3.5,2c0.3,1.5-0.7,3-2.2,3.3l0.5,2
	c1.6-0.4,3.1,0.6,3.5,2c0.3,1.5-0.7,3-2.2,3.3l0.5,2c1.6-0.4,3.1,0.6,3.5,2c0.3,1.5-0.7,3-2.2,3.3l0.5,2c1.6-0.4,3.1,0.6,3.5,2
	c0.3,1.5-0.7,3-2.2,3.3l0.5,2c1.6-0.4,3.2,0.6,3.5,2.2l2-0.5c-0.4-1.6,0.6-3.1,2.1-3.5c1.5-0.3,3,0.7,3.4,2.2l2-0.5
	c-0.4-1.6,0.6-3.1,2.1-3.5c1.5-0.3,3,0.7,3.4,2.2l2-0.5c-0.4-1.6,0.6-3.1,2.1-3.5c1.5-0.3,3,0.7,3.4,2.2l2-0.5
	c-0.4-1.6,0.6-3.1,2.1-3.5c1.5-0.3,3,0.7,3.4,2.2l2-0.5C140.7,256.3,141.7,254.7,143.3,254.3z"/>
<path id="postage_stamp" class="st13" d="M142.9,254.4l-0.5-2c-1.6,0.4-3.1-0.6-3.5-2c-0.3-1.5,0.7-3,2.2-3.3l-0.5-2
	c-1.6,0.4-3.1-0.6-3.5-2c-0.3-1.5,0.7-3,2.2-3.3l-0.5-2c-1.6,0.4-3.1-0.6-3.5-2c-0.3-1.5,0.7-3,2.2-3.3l-0.5-2
	c-1.6,0.4-3.1-0.6-3.5-2c-0.3-1.5,0.7-3,2.2-3.3l-0.5-2c-1.6,0.4-3.1-0.6-3.5-2c-0.3-1.5,0.7-3,2.2-3.3l-0.5-2
	c-1.6,0.4-3.2-0.6-3.5-2.2l-2,0.5c0.4,1.6-0.6,3.1-2.1,3.5c-1.5,0.3-3-0.7-3.4-2.2l-2,0.5c0.4,1.6-0.6,3.1-2.1,3.5
	c-1.5,0.3-3-0.7-3.4-2.2l-2,0.5c0.4,1.6-0.6,3.1-2.1,3.5c-1.5,0.3-3-0.7-3.4-2.2l-2,0.5c0.4,1.6-0.6,3.1-2.1,3.5
	c-1.5,0.3-3-0.7-3.4-2.2l-2,0.5c0.4,1.6-0.6,3.2-2.2,3.5l0.5,2c1.6-0.4,3.1,0.6,3.5,2c0.3,1.5-0.7,3-2.2,3.3l0.5,2
	c1.6-0.4,3.1,0.6,3.5,2c0.3,1.5-0.7,3-2.2,3.3l0.5,2c1.6-0.4,3.1,0.6,3.5,2c0.3,1.5-0.7,3-2.2,3.3l0.5,2c1.6-0.4,3.1,0.6,3.5,2
	c0.3,1.5-0.7,3-2.2,3.3l0.5,2c1.6-0.4,3.1,0.6,3.5,2c0.3,1.5-0.7,3-2.2,3.3l0.5,2c1.6-0.4,3.2,0.6,3.5,2.2l2-0.5
	c-0.4-1.6,0.6-3.1,2.1-3.5c1.5-0.3,3,0.7,3.4,2.2l2-0.5c-0.4-1.6,0.6-3.1,2.1-3.5s3,0.7,3.4,2.2l2-0.5c-0.4-1.6,0.6-3.1,2.1-3.5
	c1.5-0.3,3,0.7,3.4,2.2l2-0.5c-0.4-1.6,0.6-3.1,2.1-3.5c1.5-0.3,3,0.7,3.4,2.2l2-0.5C140.3,256.3,141.3,254.7,142.9,254.4z"/>
<rect id="postage_stamp_background_1" x="104.2" y="219.9" transform="matrix(0.9752 -0.2214 0.2214 0.9752 -49.9636 32.4352)" class="rpl14-1" width="31.1" height="38.5"/>
<path id="Sity_silhouette" d="M134.1,246.6l1.2-0.3l0.3,1.2l-1.2,0.3L134.1,246.6z M132.5,248.2l1.2-0.3l-0.3-1.2l-1.2,0.3
	L132.5,248.2z M130.7,248.6l1.2-0.3l-0.3-1.2l-1.2,0.3L130.7,248.6z M128.8,249.1l1.2-0.3l-0.3-1.2l-1.2,0.3L128.8,249.1z
	 M134.8,249.8l1.2-0.3l-0.3-1.2l-1.2,0.3L134.8,249.8z M133,250.2l1.2-0.3l-0.3-1.2l-1.2,0.3L133,250.2z M131.1,250.6l1.2-0.3
	l-0.3-1.2l-1.2,0.3L131.1,250.6z M129.3,251l1.2-0.3l-0.3-1.2l-1.2,0.3L129.3,251z M135.2,251.7l1.2-0.3l-0.3-1.2l-1.2,0.3
	L135.2,251.7z M133.4,252.1l1.2-0.3l-0.3-1.2l-1.2,0.3L133.4,252.1z M131.6,252.6l1.2-0.3l-0.3-1.2l-1.2,0.3L131.6,252.6z
	 M129.7,253l1.2-0.3l-0.3-1.2l-1.2,0.3L129.7,253z M135.7,253.7l1.2-0.3l-0.3-1.2l-1.2,0.3L135.7,253.7z M133.8,254.1l1.2-0.3
	l-0.3-1.2l-1.2,0.3L133.8,254.1z M132,254.5l1.2-0.3L133,253l-1.2,0.3L132,254.5z M130.1,254.9l1.2-0.3l-0.3-1.2l-1.2,0.3
	L130.1,254.9z M133.4,232.7l2.8,12.4l0.1,0.3l2.1,9.3l-9.6,2.2l-0.9,0.2l-1.2,0.3l-1.1,0.3l-6.3,1.4l-9.7,2.2l-7.5-33.5l9.7-2.2
	l4.1,18.4l7.4-1.7l1,4.4l1-0.8l0.8,3.4l0.9-0.2l-0.8-3.4l2-0.1l-2.5-11.1l0,0l2.3-7.2l-0.7-3.1l0.2-0.1l0.7,3.1L133.4,232.7
	L133.4,232.7z M103.7,230.4l4.7-1l-0.2-1.1l-4.7,1L103.7,230.4z M108.3,231.6l0.2,1.1l0.5-0.1l-0.2-1.1L108.3,231.6z M107.8,231.1
	l-0.2-1.1l-1.2,0.3l0.2,1.1L107.8,231.1z M106.7,231.9l0.2,1.1l0.5-0.1l-0.2-1.1L106.7,231.9z M107.8,232.8l0.5-0.1l-0.2-1.1
	l-0.5,0.1L107.8,232.8z M104,232l2.1-0.5l-0.2-1.1l-2.1,0.5L104,232z M104.4,233.6l2.1-0.5l-0.2-1.1l-2.1,0.5L104.4,233.6z
	 M105.5,238.3l2.1-0.5l0.5-0.1l1-0.2l1.1-0.2l-0.2-1.1l-1.1,0.2l-1,0.2l-0.5,0.1l-2.1,0.5L105.5,238.3z M109.4,239.1l0.2,0l-0.2-1.1
	l-0.2,0l-1,0.2l0,0l0.2,1.1l0,0L109.4,239.1z M108.5,239.9l0.2,1.1l0.5-0.1l-0.2-1.1L108.5,239.9z M109.6,240.8l0.5-0.1l-0.2-1.1
	l-0.5,0.1L109.6,240.8z M105.8,239.9l2.1-0.5l0,0l-0.2-1.1l0,0l-2.1,0.5L105.8,239.9z M106.2,241.5l2.1-0.5l0,0l-0.2-1.1l0,0
	l-2.1,0.5L106.2,241.5z M106.9,244.7l2.1-0.5l-0.2-1.1l-2.1,0.5L106.9,244.7z M107.3,246.3l2.1-0.5l-0.2-1.1l-2.1,0.5L107.3,246.3z
	 M107.6,247.9l2.1-0.5l0,0l-0.2-1.1l0,0l-2.1,0.5L107.6,247.9z M108,249.5l2.1-0.5l-0.2-1.1l-2.1,0.5L108,249.5z M111.3,254.3
	l-2.1,0.5l0.2,1.1l2.1-0.5L111.3,254.3z M110.5,251.1l-2.1,0.5l0.2,1.1l2.1-0.5L110.5,251.1z M117.2,254.6l-5.1,1.1l0.2,1.1l5.1-1.1
	L117.2,254.6z M113,255.1l-0.2-1.1l-1,0.2l0.2,1.1L113,255.1z M115.6,254.5l-0.2-1.1l-2.1,0.5l0.2,1.1L115.6,254.5z M116.9,253
	l-1,0.2l0.2,1.1l1-0.2L116.9,253z M116.5,251.5l-5.1,1.1l0.2,1.1l5.1-1.1L116.5,251.5z M112.3,251.9l-0.2-1.1l-1,0.2l0.2,1.1
	L112.3,251.9z M114.9,251.3l-0.2-1.1l-2.1,0.5l0.2,1.1L114.9,251.3z M116.1,249.9l-1,0.2l0.2,1.1l1-0.2L116.1,249.9z M115.8,248.3
	l-5.9,1.3l0.2,1.1l5.9-1.3L115.8,248.3z M109.9,246.3l0.2,1.1l0,0l1-0.2l0,0l-0.2-1.1l0,0L109.9,246.3L109.9,246.3z M110.5,243.9
	l-0.2-1.1l-1,0.2l0.2,1.1L110.5,243.9z M115.4,246.7l-3.6,0.8l-1.5,0.3l0.2,1.1l1.5-0.3l3.6-0.8L115.4,246.7z M115.1,245.1l-1,0.2
	l-0.4,0.1l-0.6,0.1l-1.5,0.3l0.2,1.1l1.5-0.3l0.6-0.1l0.4-0.1l1-0.2L115.1,245.1z M114.7,243.5l-2.1,0.5l-2.1,0.5l-1,0.2l0,0
	l0.2,1.1l0,0l1-0.2l2.1-0.5l2.1-0.5L114.7,243.5z M114.4,241.9l-1,0.2l-0.4,0.1l-2.1,0.5l0,0l0.2,1.1l0,0l2.1-0.5l0.4-0.1l1-0.2
	L114.4,241.9z M114,240.3l-5.1,1.1l-0.8,0.2l0.2,1.1l0.8-0.2l5.1-1.1L114,240.3z M113.6,238.7l-2.1,0.5l-0.9,0.2l-0.5,0.1l0,0
	l0.2,1.1l0,0l0.5-0.1l0.9-0.2l2.1-0.5L113.6,238.7z M113.3,237.1l-2.1,0.5l0.2,1.1l2.1-0.5L113.3,237.1z M112.9,235.5l-2.1,0.5
	l0.2,1.1l2.1-0.5L112.9,235.5z M112.6,233.9l-3.5,0.8l0.2,1.1l3.5-0.8L112.6,233.9z M112.2,232.4l-5.1,1.1l0.2,1.1l5.1-1.1
	L112.2,232.4z M111.8,230.8l-2.1,0.5l0.2,1.1l2.1-0.5L111.8,230.8z M111.5,229.2l-2.1,0.5l0.2,1.1l2.1-0.5L111.5,229.2z
	 M111.1,227.6l-2.1,0.5l0.2,1.1l2.1-0.5L111.1,227.6z M118.9,251.3l-0.6,0.1l0.2,1.1l0.6-0.1L118.9,251.3z M118.2,248.2l-0.6,0.1
	l0.2,1.1l0.6-0.1L118.2,248.2z M117.5,245.1l-0.6,0.1l0.2,1.1l0.6-0.1L117.5,245.1z M119.9,251.1l-0.6,0.1l0.2,1.1l0.6-0.1
	L119.9,251.1z M119.2,248l-0.6,0.1l0.2,1.1l0.6-0.1L119.2,248z M118.6,244.9L118,245l0.2,1.1l0.6-0.1L118.6,244.9z M121,250.8
	l-0.6,0.1l0.2,1.1l0.6-0.1L121,250.8z M120.3,247.7l-0.6,0.1l0.2,1.1l0.6-0.1L120.3,247.7z M119.6,244.6l-0.6,0.1l0.2,1.1l0.6-0.1
	L119.6,244.6z M122,250.6l-0.6,0.1l0.2,1.1l0.6-0.1L122,250.6z M121.3,247.5l-0.6,0.1l0.2,1.1l0.6-0.1L121.3,247.5z M120.6,244.4
	l-0.6,0.1l0.2,1.1l0.6-0.1L120.6,244.4z M132.2,236.3l1-0.2l-0.3-1.3l-1,0.2L132.2,236.3z M132.7,238.6l1-0.2l-0.3-1.3l-1,0.2
	L132.7,238.6z M133.8,243.1l1-0.2l-0.3-1.3l-1,0.2L133.8,243.1z M131.1,238.9l1-0.2l-0.3-1.3l-1,0.2L131.1,238.9z M131.6,241.2
	l1-0.2l-0.3-1.3l-1,0.2L131.6,241.2z M129,237l1-0.2l-0.3-1.3l-1,0.2L129,237z M130.5,243.9l1-0.2l-0.3-1.3l-1,0.2L130.5,243.9z
	 M127.9,239.6l1-0.2l-0.3-1.3l-1,0.2L127.9,239.6z M128.4,241.9l1-0.2l-0.3-1.3l-1,0.2L128.4,241.9z M135.7,245.7l-8.7,0.4l2.2,9.9
	l8.4-1.9L135.7,245.7z"/>
<text id="text1" transform="matrix(1 0 0 1 210.906 280.333)" class="st9 st15 editable">Happy birthday!</text>
<text id="text2" transform="matrix(1 0 0 1 211.2561 312.547)" class="st16 st9 st15 editable">My friend.</text>
<g>
	
		<image style="overflow:visible;" width="28" height="28" id="Icon1" class="st17" transform="matrix(0.5844 0 0 0.5844 400.6709 333.0574)">
	</image>
	
		<image style="overflow:visible;" width="28" height="28" id="Icon2" class="st17" transform="matrix(0.5844 0 0 0.5844 380.1958 333.0574)">
	</image>
	
		<image style="overflow:visible;" width="28" height="28" id="Icon3" class="st17" transform="matrix(0.5844 0 0 0.5844 359.7208 333.0574)">
	</image>
	
		<image style="overflow:visible;" width="28" height="28" id="Icon4" class="st17" transform="matrix(0.5844 0 0 0.5844 318.7707 333.0574)">
	</image>
	
		<image style="overflow:visible;" width="28" height="28" id="Icon5" class="st17" transform="matrix(0.5844 0 0 0.5844 339.2458 333.0574)">
	</image>
</g>
</svg>
