<?xml version="1.0" encoding="utf-8"?>
<svg version="1.1" data-color-numbers="3" id="Layer_1"  xmlns="http://www.w3.org/2000/svg" xmlns:xlink="http://www.w3.org/1999/xlink" x="0px" y="0px"
	 viewBox="0 0 283.5 255.1" style="enable-background:new 0 0 283.5 255.1;" xml:space="preserve">
<style type="text/css">
  <![CDATA[
  @font-face {
        font-family: "DevroyeUnicode";
        src: url("/Content/fonts/DEVROYUN.ttf") format("truetype");
  }
  .rpl0-1{fill:#C2B59B;}
  .rpl0-2{fill:#82b4bc;}
  .rpl0-3{fill:#a9711a;}
	.rpl1-1{fill:#9B8579;}
  .rpl1-2{fill:#dfe6e9;}
  .rpl1-3{fill:#4d2911;}
	.st2{fill:#2B3990;}
	.rpl3-1{fill:#F7941E;}
  .rpl3-2{fill:#3d2826;}
  .rpl3-3{fill:#3d2826;}
	.rpl4-1{fill:#FBB040;}
  .rpl4-2{fill:#62514f;}
  .rpl4-3{fill:#ddd3aa;}
	.st5{fill:#A97C50;}
	.st6{fill:#F1F2F2;}
  .rpl7-1{fill:#C49A6C;}
  .rpl7-2{fill:#fd614e;}
  .rpl7-3{fill:#6cc1ab;}
	.st8{font-family:'DevroyeUnicode';}
	.st9{font-size:10.08px;}
	.st10{fill:#231F20;}
  .rpl12-1{fill:#664838;}
  .rpl12-2{fill:#3f8689;}
  .rpl12-3{fill:#104d3f;}
	.st13{fill:#FFFFFF;}
	.st14{font-size:8.64px;}
	.st15{font-size:9.36px;}
  .st16{fill:#FFFFFF;}
  .editable{text-anchor: middle;}
  .svgProduct{text-anchor: middle;}
  .svgRibbon{visibility:hidden; opacity:0.6;fill:#FFFFFF;}
 ]]>
</style>
<image style="overflow:visible;" width="781" height="790" id="editableImg" xlink:href="/Content/img/cat-images-hilarious-gifs.jpg"  transform="matrix(0.2534 0 0 0.2534 48.7933 39.2489)">
</image>
<path id="Background" class="rpl0-1" d="M283.5,255.1V0H0v255.1H283.5z M82.3,42.7h118.8v210.4H82.3V42.7z"/>
<path id="chevron_pattern" class="rpl1-1" d="M0,182.7V171l23.1,17.1l59.2-44.2V156l-59.2,44.2L0,182.7z M82.3,223.3v-12.1l-33.8,25.2
	h16.2L82.3,223.3z M260.3,151.5l-59.2,44.7v12.2l59.3-44.7l23.1,16.9v-11.7L260.3,151.5z M23.7,223.8l58.7-44.3v-12.2l-58.7,44.3
	L0,194.5v11.7L23.7,223.8z M82.3,42.7h2.3l17-12.9l17.4,12.9h16.3l-33.8-25L22.9,77.2L0,60.5v11.7l23,17.2l59.4-44.8V42.7z
	 M201.1,42.7v8l59.1-44.1l23.3,17.2V12.1L267.4,0h-14.6l-57.2,42.7H201.1z M23.1,132.9l59.2-44.2V76.6l-59.2,44.2L0,103.7v11.7
	L23.1,132.9z M23.3,156.6l59-44.6V99.8l-59.1,44.6L0,127.5v11.7L23.3,156.6z M22.6,22L52.2,0H36L22.5,9.9L9.4,0H0v5L22.6,22z
	 M0,36.4v11.7l23.1,17.5l79-59l48.3,36.1h16.2L109.5,0H94.8L23.1,53.5L0,36.4z M201.1,61.1v12.2L259.7,29l23.8,17.4V34.8l-23.9-17.8
	L201.1,61.1z M206.5,236.4h16.2l37.4-28l23.3,17.2v-11.7l-23.3-17.6L206.5,236.4z M283.5,247.5v-11.7l-22.8-17l-48.2,36.4h16.1
	l32.1-24.3L283.5,247.5z M260.2,61.8l-59.1,44.1V118l59.1-44.1l23.3,17.2V79.4L260.2,61.8z M260.2,129.1l-59.1,44.1v12.1l59.1-44.1
	l23.3,17.2v-11.7L260.2,129.1z M201.1,128.6v12.2L260,96.3l23.4,17.1v-11.7L260,84.2L201.1,128.6z"/>
<g id="stamp">
	<path class="st2" d="M182.6,242.2c-0.6-2.3-0.5-4.7-0.5-7c0-2.4,0.3-4.7,0.9-6.9c0.6-2.3,1.6-4.4,2.8-6.4c1.2-2,2.6-3.9,4.3-5.6
		c1.7-1.6,3.5-3.6,5.6-4.7c2-1.1,4.3-1.5,6.6-2.1c2.3-0.6,4.7-0.8,7-0.7c2.4,0,4.8,0.1,7,0.8c2.3,0.6,4.4,1.8,6.4,3.1
		c2,1.2,4,2.5,5.7,4.2c1.6,1.7,2.7,3.8,3.8,5.9c1.1,2,2.4,4,3,6.4c0.6,2.3,0.7,4.7,0.7,7c0,2.4-0.3,4.8-1,7
		c-0.2,0.8-0.5,1.6-0.9,2.3h2.6c0.2-0.6,0.4-1.1,0.5-1.7c0.7-2.5,1.5-5,1.6-7.6c0-2.5-0.7-5.1-1.4-7.6c-0.6-2.6-1.5-5-2.7-7.2
		c-1.3-2.3-2.9-4.3-4.6-6.1c-1.8-1.9-3.6-3.8-5.8-5.1c-2.2-1.3-4.7-2.4-7.2-3.1c-2.5-0.7-5.1-0.7-7.7-0.8c-2.5,0-5.2-0.2-7.7,0.5
		c-2.6,0.6-4.9,2-7.1,3.2c-2.3,1.3-4.3,2.8-6.2,4.6c-1.9,1.8-3.6,3.7-4.9,6c-1.3,2.2-2.6,4.5-3.3,7c-0.7,2.5-0.7,5.1-0.8,7.7
		c0,2.5,0.2,5.1,0.8,7.7c0.2,0.9,0.4,1.7,0.7,2.6h2.7C183.2,244.4,182.8,243.3,182.6,242.2z"/>
	<polygon class="st2" points="194.7,231.6 194.3,235.3 194.7,239.1 196.1,242.6 198.2,245.4 199.6,245.4 199,244.9 196.8,242.2 
		195.5,238.9 195.1,235.4 195.6,231.8 197,228.6 199.3,225.8 202.1,223.7 205.4,222.4 208.9,222.1 212.4,222.4 215.7,223.9 
		218.3,226.3 220.4,229.1 221.8,232.3 222.4,235.8 221.8,239.3 220.3,242.5 218.1,245.2 217.9,245.4 219.1,245.4 221.1,243 
		222.8,239.6 223.3,235.8 222.8,232 221.3,228.6 219.1,225.6 216.2,223.1 212.7,221.6 208.9,221 205.2,221.5 201.6,222.8 
		198.6,225.1 196.3,228.2 	"/>
	<polygon class="st2" points="176.9,245.4 178.5,245.4 177.6,243.3 176.3,233.3 178.9,223.5 184,214.8 191.5,208 200.9,204.4 
		210.9,203.4 220.6,205.8 229.4,210.7 236.2,218.2 239.6,227.7 240.6,237.7 238.7,245.4 240.8,245.4 241.2,244.7 242.1,236 
		241.3,227.3 237.8,219.3 232.5,212.4 226,206.5 217.9,203.1 209.2,201.7 200.6,203 192.5,206.3 185.2,211.3 180,218.3 176.8,226.4 
		175.4,234.9 176.2,243.6 	"/>
</g>
<path id="tape_shade" class="rpl3-1" d="M208.8,207.8l-7.6,2.1v-4.1L208.8,207.8z M201.1,229.1v4.1l7.6-2.1L201.1,229.1z M74.8,207.9
	l7.6,2.1v-4.1L74.8,207.9z M75,42.7l7.3,1.9v-3.9L75,42.7z M74.8,231.3l7.6,2.1v-4.1L74.8,231.3z"/>
<path id="tapes" class="rpl4-1" d="M208.8,42.7h-134V0.1h134V42.7z M208.8,211.1h-134v20.2h134V211.1z M208.8,187.7h-134v20.2h134
	V187.7z"/>
<path id="postage_stamp_3_" class="st5" d="M208.1,64.5l0.5-1.7c-1.4-0.4-2.2-1.8-1.8-3.1c0.4-1.3,1.8-2,3.2-1.6l0.5-1.7
	c-1.4-0.4-2.2-1.8-1.8-3.1c0.4-1.3,1.8-2,3.2-1.6l0.5-1.7c-1.4-0.4-2.2-1.8-1.8-3.1c0.4-1.3,1.8-2,3.2-1.6l0.5-1.7
	c-1.4-0.4-2.2-1.8-1.8-3.1c0.4-1.3,1.8-2,3.2-1.6l0.5-1.7c-1.4-0.4-2.2-1.8-1.8-3.1c0.4-1.3,1.8-2,3.2-1.6l0.5-1.7
	c-1.4-0.4-2.2-1.8-1.8-3.2l-1.7-0.5c-0.4,1.4-1.8,2.2-3.1,1.8c-1.3-0.4-2-1.8-1.6-3.2l-1.7-0.5c-0.4,1.4-1.8,2.2-3.1,1.8
	c-1.3-0.4-2-1.8-1.6-3.2l-1.7-0.5c-0.4,1.4-1.8,2.2-3.1,1.8c-1.3-0.4-2-1.8-1.6-3.2l-1.7-0.5c-0.4,1.4-1.8,2.2-3.1,1.8
	c-1.3-0.4-2-1.8-1.6-3.2l-1.7-0.5c-0.4,1.4-1.8,2.2-3.2,1.8l-0.5,1.7c1.4,0.4,2.2,1.8,1.8,3.1c-0.4,1.3-1.8,2-3.2,1.6l-0.5,1.7
	c1.4,0.4,2.2,1.8,1.8,3.1c-0.4,1.3-1.8,2-3.2,1.6l-0.5,1.7c1.4,0.4,2.2,1.8,1.8,3.1c-0.4,1.3-1.8,2-3.2,1.6l-0.5,1.7
	c1.4,0.4,2.2,1.8,1.8,3.1c-0.4,1.3-1.8,2-3.2,1.6l-0.5,1.7c1.4,0.4,2.2,1.8,1.8,3.1c-0.4,1.3-1.8,2-3.2,1.6l-0.5,1.7
	c1.4,0.4,2.2,1.8,1.8,3.2l1.7,0.5c0.4-1.4,1.8-2.2,3.1-1.8c1.3,0.4,2,1.8,1.6,3.2l1.7,0.5c0.4-1.4,1.8-2.2,3.1-1.8
	c1.3,0.4,2,1.8,1.6,3.2l1.7,0.5c0.4-1.4,1.8-2.2,3.1-1.8c1.3,0.4,2,1.8,1.6,3.2l1.7,0.5c0.4-1.4,1.8-2.2,3.1-1.8
	c1.3,0.4,2,1.8,1.6,3.2l1.7,0.5C205.3,64.8,206.7,64.1,208.1,64.5z"/>
<path id="postage_stamp_2_" class="st6" d="M208.8,64.1l0.5-1.7c-1.4-0.4-2.2-1.8-1.8-3.1c0.4-1.3,1.8-2,3.2-1.6l0.5-1.7
	c-1.4-0.4-2.2-1.8-1.8-3.1c0.4-1.3,1.8-2,3.2-1.6l0.5-1.7c-1.4-0.4-2.2-1.8-1.8-3.1c0.4-1.3,1.8-2,3.2-1.6l0.5-1.7
	c-1.4-0.4-2.2-1.8-1.8-3.1s1.8-2,3.2-1.6l0.5-1.7c-1.4-0.4-2.2-1.8-1.8-3.1c0.4-1.3,1.8-2,3.2-1.6l0.5-1.7c-1.4-0.4-2.2-1.8-1.8-3.2
	l-1.7-0.5c-0.4,1.4-1.8,2.2-3.1,1.8c-1.3-0.4-2-1.8-1.6-3.2l-1.7-0.5c-0.4,1.4-1.8,2.2-3.1,1.8c-1.3-0.4-2-1.8-1.6-3.2l-1.7-0.5
	c-0.4,1.4-1.8,2.2-3.1,1.8c-1.3-0.4-2-1.8-1.6-3.2l-1.7-0.5c-0.4,1.4-1.8,2.2-3.1,1.8s-2-1.8-1.6-3.2l-1.7-0.5
	c-0.4,1.4-1.8,2.2-3.2,1.8l-0.5,1.7c1.4,0.4,2.2,1.8,1.8,3.1c-0.4,1.3-1.8,2-3.2,1.6l-0.5,1.7c1.4,0.4,2.2,1.8,1.8,3.1
	c-0.4,1.3-1.8,2-3.2,1.6l-0.5,1.7c1.4,0.4,2.2,1.8,1.8,3.1s-1.8,2-3.2,1.6l-0.5,1.7c1.4,0.4,2.2,1.8,1.8,3.1c-0.4,1.3-1.8,2-3.2,1.6
	l-0.5,1.7c1.4,0.4,2.2,1.8,1.8,3.1c-0.4,1.3-1.8,2-3.2,1.6l-0.5,1.7c1.4,0.4,2.2,1.8,1.8,3.2l1.7,0.5c0.4-1.4,1.8-2.2,3.1-1.8
	c1.3,0.4,2,1.8,1.6,3.2l1.7,0.5c0.4-1.4,1.8-2.2,3.1-1.8c1.3,0.4,2,1.8,1.6,3.2l1.7,0.5c0.4-1.4,1.8-2.2,3.1-1.8
	c1.3,0.4,2,1.8,1.6,3.2l1.7,0.5c0.4-1.4,1.8-2.2,3.1-1.8c1.3,0.4,2,1.8,1.6,3.2l1.7,0.5C206,64.5,207.4,63.7,208.8,64.1z"/>
<rect id="postage_stamp_background_2" x="183.8" y="25.6" transform="matrix(0.9602 0.2794 -0.2794 0.9602 19.7494 -53.4818)" class="rpl7-1" width="27.3" height="33.8"/>
<path id="man_silhouette" d="M207.3,42c-0.2-0.6-1.3-0.6-3.1-0.6c0.3-1.2,0.7-2.6,1.1-4c0.9-2.7,1.4-4.5,1.9-5.8
	c-0.3-1.1-5.8-2.7-5.8-2.7s-5.5-1.6-6.3-0.9c-0.3,1.4-0.8,3.1-1.5,5.9c-0.4,1.4-0.8,2.8-1.2,4c-1.5-0.9-2.5-1.5-2.9-1.1
	c-0.9,0.8-1.7,5.6,7.3,8.2C205.8,47.7,207.6,43.1,207.3,42z M200.9,30.9c3.7,1.1,5.8,1.1,5.8,1.1s-1.9,0.6-5.9-0.6
	c-4.1-1.1-5.4-2.7-5.4-2.7S197.1,29.8,200.9,30.9z M200.9,56.1c-0.2,0.9-0.7,1.4-1.1,1.5c-0.3,0.1-0.6,0-0.8-0.3
	c-0.3-0.3-0.5-1-0.2-1.8c0.1-0.4,1.7-6.3,1.9-7c0,0,0,0,0-0.1c0.3-0.9-0.3-1.9-1.2-2.2c-0.9-0.3-1.9,0.3-2.2,1.2
	c-0.3,0.9,0.3,1.9,1.2,2.2c0.7,0.2,1.3,0,1.8-0.5c-0.5,1.8-1.6,6-1.7,6.3c-0.3,0.9-0.1,1.7,0.2,2c0.1,0.2,0.3,0.3,0.5,0.3
	c0.1,0,0.3,0,0.5,0c0.3-0.1,0.9-0.4,1.3-1.6L200.9,56.1z M198.7,49.2c-0.7-0.2-1.1-1-0.9-1.7c0.2-0.7,1-1.1,1.7-0.9
	c0.7,0.2,1.1,1,0.9,1.7C200.2,49,199.4,49.5,198.7,49.2z M198.5,53.1c0,0-0.4,0.9-1.6,0.9c-1.2-0.1-2.3-1.4-2.3-1.4
	s-1.6,0.5-2.7-0.1C190.8,52,191,51,191,51s0.3,0.5,1.1,0.6c0.8,0.1,1-0.8,1.7-0.8c0.7,0,1.1,0.9,1.1,0.9s0.8-0.6,1.4-0.2
	c0.6,0.4,0.3,1.2,1,1.6C197.9,53.4,198.5,53.1,198.5,53.1z"/>
<path id="With_best_wishes_postmark" class="st2" d="M83.1,55.2C81.1,55.7,79,56.1,77,56c-2.1,0-4.1-0.5-6.1-1
	c-2-0.6-3.9-1.3-5.7-2.4c-1.8-1.1-3.4-2.4-4.8-3.9c-1.4-1.5-2.8-3.1-3.8-4.9c-1-1.8-1.5-3.8-2-5.8c-0.5-2.1-0.7-4.1-0.7-6.1
	c0-2.1,0-4.2,0.6-6.1c0.6-2,1.6-3.8,2.6-5.6c1.1-1.8,2.4-3.3,3.9-4.7c1.5-1.4,3.1-2.6,4.9-3.7c1.8-1,3.6-2,5.6-2.5
	c2.1-0.5,4.1-0.4,6.2-0.4c2.1,0,4.2,0.1,6.1,0.6c2,0.6,3.9,1.4,5.7,2.4c1.8,1.1,3.2,2.6,4.7,4.1c1.4,1.5,2.7,3.1,3.7,4.9
	c1,1.8,1.7,3.7,2.2,5.7c0.5,2.1,1.1,4.1,1.1,6.1c0,2.1-0.7,4.1-1.3,6c-0.6,2-1.2,3.9-2.3,5.7c-1.1,1.8-2.5,3.2-4,4.7
	c-1.5,1.4-3,2.8-4.8,3.8C87.1,53.9,85.2,54.7,83.1,55.2z M72.2,11.5c-1.9,0.5-3.7,0.8-5.3,1.7c-1.7,0.9-3.1,2.5-4.4,3.7
	c-1.3,1.3-2.4,2.8-3.4,4.4c-1,1.6-1.7,3.3-2.3,5.1c-0.5,1.8-0.7,3.6-0.7,5.5c0,1.8-0.1,3.7,0.4,5.6c0.5,1.9,1.1,3.7,2,5.3
	c0.9,1.7,2.3,3,3.6,4.3c1.3,1.3,2.7,2.6,4.3,3.6c1.6,1,3.3,1.8,5.1,2.4c1.8,0.5,3.7,0.8,5.6,0.8c1.8,0,3.7-0.5,5.5-0.9
	c1.9-0.5,3.7-0.9,5.3-1.7c1.7-0.9,3-2.3,4.3-3.6c1.3-1.3,2.5-2.8,3.4-4.4c1-1.6,2-3.2,2.5-5c0.5-1.8,0.8-3.7,0.8-5.6
	c0-1.8-0.1-3.7-0.6-5.6c-0.5-1.9-1.5-3.5-2.4-5.1c-0.9-1.7-1.8-3.4-3-4.7c-1.3-1.3-2.9-2.4-4.5-3.3c-1.6-1-3.3-1.9-5.1-2.4
	c-1.8-0.5-3.7-0.6-5.6-0.6C75.9,10.9,74,11,72.2,11.5z M80.1,43.4l-3,0.3l-3-0.4l-2.7-1.3L69,40.3l-1.8-2.4l-1.1-2.8l-0.3-3l0.3-3
	l1.3-2.7l1.8-2.4l2.4-1.8l2.8-1.1l3-0.4l3,0.4l2.8,1.3l2.3,1.9l1.8,2.4l1.2,2.7l0.4,3l-0.4,3l-1.3,2.7l-1.9,2.3l-2.3,1.9L80.1,43.4z
	 M74.7,21.8l-2.6,1l-2.2,1.7L68,26.7l-1.1,2.6l-0.4,2.8l0.3,2.8l1,2.7l1.8,2.2l2.1,1.8l2.6,1.1l2.8,0.4l2.8-0.3l2.6-1l2.2-1.7
	l1.8-2.2l1.2-2.6l0.4-2.8l-0.5-2.8l-1.1-2.6l-1.7-2.2L82.8,23l-2.6-1.2l-2.8-0.3L74.7,21.8z M83.8,58.1l-6.9,0.5L70,57.7L63.6,55
	l-5.3-4.5l-4.4-5.4l-2.5-6.5l-0.7-6.9l1.1-6.8l2.5-6.5l4.2-5.6L64.4,9l6.4-2.6l6.9-1l6.9,1.1l6.4,2.8l5.2,4.6l4.2,5.5l2.8,6.4
	l0.7,6.9l-0.8,6.9l-3.1,6.2l-4.3,5.4l-5.4,4.4L83.8,58.1z M71.1,7.4l-7.5,2.9l-5.9,5.4l-4.1,6.9l-2,7.8l1,8l3.1,7.4l5.2,6.1l6.9,4.2
	l7.9,1.6l7.9-0.9l7.4-2.9l6-5.3l3.9-7l1.8-7.7l-0.7-7.9l-2.7-7.5l-5.4-6l-7-3.9L79,6.6L71.1,7.4z M58.8,26l1.1,0.5l1.1,0.5l1.1,0.5
	l1.1,0.6l1.1,0.5l0.9,0.4l0.5,0.7l-1,0.4l-1.1,0.2l-1.1,0.2l-1.1,0l-1.2,0.1l1,0.4l0.9,0.5l1,0.4l1,0.5l1,0.4l0,0.8l-1.2,0.3
	l-1.2,0.2l-1.3,0.1l-1.3,0l-1.1-0.1l-0.7,0.6l-0.4-0.3l1-0.9l1.1-0.1l1.1-0.2l1.1-0.1l1.1,0l1.1-0.2l-1-0.5l-1-0.4l-0.9-0.5
	l-0.9-0.4l-0.9-0.4l-1.3-0.2l0.6-0.8l1.1-0.2l1.1-0.1l1.1-0.2l1.1-0.1l1.2-0.1l-1-0.6l-1-0.6l-1-0.5l-1-0.4l-1.1-0.2l-0.7,0.6
	l-0.4-1l0.2-1.2L58.8,26z M60.5,21.1l0.1,0.8l-0.9-0.3l0-0.8L60.5,21.1L60.5,21.1z M67.5,25.7l-0.7,0.7l-1-0.3l-0.9-0.6l-0.8-0.7
	l-0.8-0.7l-0.8-0.7l-0.3,0.5l0-0.7l1.3,0.1l0.9,0.7l1,0.7l1.1,0.5l1-0.4L67.5,25.7L67.5,25.7z M66,19.4l-0.7,0.7l0.6,0.9l0.8,0.8
	l0.7,0.9l0.9,0.7l0.9-0.6L68.9,24l-1.2,0.2l-0.8-0.8l-0.8-0.9l-0.7-0.9l-0.7-0.9l-0.3,0.4l-0.5-1.5l0-1l1,1l0.9-1L66,19.4z
	 M69.2,22.8L69.2,22.8L69.2,22.8z M73.8,20.7l-1,0.4l-0.7-0.8l-0.4-1l-0.3-1.1l-0.4-1l-0.6-0.8l-0.7,0.7l-0.2,1.1l0.1,1.1l0.3,1.2
	l0.4,1.2l-0.5,1l-0.5-0.9l-0.4-1l-0.4-1l-0.4-1.1l-0.4-1.1l-0.4-1.1l-0.4-1l-0.4-1.1l-0.8,0.4l1.1-1l0.5,1.1L68,16l0.5,1.1l0.5,1.1
	l0.4,1.1l0-1.1l0.1-1.1l0.4-1l0.9-0.3l0.8,0.8l0.5,1.1l0.4,1l0.5,1L74,20L73.8,20.7L73.8,20.7z M82.2,19.8l-0.9,0.6l-1,0.3l-1.1,0
	l-1-0.2l-1-0.2l0.5-0.4l0.4-0.9l0.3-1l0.3-1.1l0.3-1.1l0.4-1.1l0.5-1.1l-0.7-0.1l1.4-0.2l1.2,0.1l1.1,0.4l0.5,1.1l-0.7,1.1l-1,0.7
	l0.9,0.8l0.2,1.2L82.2,19.8L82.2,19.8z M81.7,18.1l-0.7-1l-1.3-0.3l-0.5,1.5l-0.3,1l0.4,0.9l1.2,0l1-0.7L81.7,18.1L81.7,18.1z
	 M82.1,14.3l-0.7-0.5l-0.9-0.1L80.2,15l-0.4,1.3l0.9,0.1l0.8-0.1l0.7-0.9L82.1,14.3L82.1,14.3z M87.4,20.7L86.5,21l-0.9,0l-0.9-0.3
	l-0.5,0.9l1,0.7l0.8-0.2l-0.4,0.6l-1.3,0L83.2,22L82.9,21l0.5-1l0.8-0.8l0.9-0.7l1-0.5l1-0.2l1,0.4l0.5,0.9l-0.3,1L87.4,20.7
	L87.4,20.7z M87.7,19.3l-0.1-1l-1.1-0.1l-0.8,0.5l-0.6,0.7l-0.1,0.9l1,0L87,20L87.7,19.3L87.7,19.3z M88.4,25.7l-1-0.2l-0.9-0.4
	l-0.7-0.7l0.1-1l1-0.2l0.1,1.6l0.9,0.5l0.7-0.8l0.1-1.1l0.2-1.1l0.8-0.8l1.1-0.1l1.1,0.7l0.3,1.1L91.4,23l-0.1-0.8l-0.8-0.2L90,22.6
	l-0.1,1.3l-0.4,1.2L88.4,25.7L88.4,25.7z M93.9,27.5l-0.4-0.9l-1.1,0.2l-1.1,0.3l-1.1,0.2l-1,0.5l0.1,1l-1.1-0.8l0.4-1.2l1.1-0.4
	l1.1-0.3l1.1-0.3l1.1-0.3l-0.2-0.5l1.5,0.2l0.9,0.5l-1.4,0.4l0.5,1.3L93.9,27.5z M89.4,28.9L89.4,28.9L89.4,28.9z M93.9,42.5
	L93,41.7l-1-0.8l-0.9-0.8l-0.9-0.8l-0.9-0.8L88.5,38l-0.4-0.8l1.1-0.2l1.1,0.1l1.1,0.2l1.1,0.2l1.1,0.2l-0.9-0.7L92,36.2l-0.9-0.7
	l-0.8-0.7l-0.9-0.6l0.2-0.8l1.3,0l1.2,0.1l1.3,0.2l1.3,0.3l1,0.3l0.7-0.4l0.3,0.4l-1.1,0.7L94.6,35l-1.1-0.1l-1.1-0.2l-1.1-0.1
	l-1.1-0.2l0.8,0.7l0.8,0.6l0.8,0.6l0.8,0.6l0.8,0.6l1.1,0.4l-0.6,0.7l-1.1-0.1l-1.1-0.1l-1.1-0.1l-1.1-0.2l-1.1-0.2l0.8,0.8l0.8,0.8
	l0.9,0.7l0.9,0.7l1,0.4l0.8-0.5l0.2,1.1l-0.5,1.2L93.9,42.5z M85.4,40.8l0.9-0.5l0.9,0.5l0.7,0.8l0.7,0.9l0.6,0.9l0.5,0.9l0.4-0.5
	L90,44.5l-1.2-0.4L88,43.2l-0.8-0.9l-0.9-0.8l-1.1,0.1L85.4,40.8z M91.2,46.9l0.2-0.8l0.8,0.5L92,47.4L91.2,46.9z M82.5,44l0.3-1
	l0.5-0.9l0.8-0.6l0.9,0.2l0.1,1.1l-1.3-0.3l-0.8,0.6l0.3,1l1,0.4l1.2,0.2l0.9,0.8l0,1.2l-0.9,1.1L84.6,48l0.3-0.7l0.8,0l0.4-0.8
	l-0.6-0.6l-1.3-0.2L83,45.1L82.5,44L82.5,44z M77.1,44.2l1-0.1l0.4,1l0,1.1l-0.1,1.1l0,1.1l0.3,1l0.9-0.5l0.4-1l0.3-1.1l0.1-1.2
	l0.1-1.2l0.7-0.9l0.2,1.1l0.1,1.1l0,1.1l0.1,1.1l0,1.1l0,1.1l0.1,1.1l0,1.1l0.9-0.1l-1.3,0.6l-0.2-1.1L81,50.6l0-1.2l-0.1-1.2
	L80.8,47l-0.3,1l-0.4,0.9l-0.7,0.8l-1,0.3l-0.7-0.8l-0.2-1.1l0-1l-0.1-1l-0.2-1l-0.8-0.4L77.1,44.2z M71.7,46.5l0.8-0.6l0.9-0.4
	l0.9,0l0.3-0.8l-0.9-0.6l-1,0.5l0-0.4l1.1-0.5l1.2-0.1l0.9,0.7l0.1,1.1l-0.3,1.1l-0.5,1l-0.7,0.9L73.3,49l-1.1,0.1l-0.9-0.6
	l-0.2-1.1L71.7,46.5L71.7,46.5z M71.9,47.8l0.4,0.9l1-0.3l0.6-0.7l0.4-0.9L74,46l-1,0.3L72.3,47L71.9,47.8z M69.1,42.1l1-0.1l1,0.2
	l0.9,0.5l0,1l-0.9,0.1l-0.1-0.9l-0.7-0.6l-1,0.3l0,1.1l0.3,1.1l0.1,1.1L69,46.6L68,47l-1.1-0.4l-0.4-1L67,45l0.1,1l1.1,0.4l0.4-1.2
	l-0.4-1.1l0-1.2L69.1,42.1L69.1,42.1z M64.5,43.3l1-0.8l1-0.7l1.1-0.4l-0.7,1l-1,0.9l-1,0.9l-1,0.8l-1.1,0.8l-1.1-0.3l0.7-0.9l1-0.7
	L64.5,43.3L64.5,43.3z M68.8,40l0.8,0.1L69,41l-0.8-0.1L68.8,40L68.8,40z M62.8,41l1.1-0.6l1.2-0.5l1.2-0.2l-0.9,0.9l-1.1,0.7
	L63.1,42L62,42.7l-1.2,0.5l-1-0.4l0.8-0.7l1-0.6L62.8,41L62.8,41z M67.6,38.5l0.8,0.3l-0.7,0.7l-0.7-0.2L67.6,38.5L67.6,38.5z
	 M61.5,38.5l1.2-0.4l1.2-0.3l1.2-0.1l-1,0.8L62.9,39l-1.2,0.5l-1.2,0.4l-1.2,0.4l-0.9-0.6l0.9-0.6l1.1-0.4L61.5,38.5L61.5,38.5z
	 M66.7,36.8l0.7,0.4l-0.8,0.6l-0.7-0.4L66.7,36.8L66.7,36.8z"/>
<path id="postage_stamp_1_" class="st5" d="M91.8,183.1l-0.3-1.4c-1.1,0.3-2.3-0.4-2.5-1.5c-0.2-1.1,0.5-2.2,1.6-2.4l-0.3-1.4
	c-1.1,0.3-2.3-0.4-2.5-1.5c-0.2-1.1,0.5-2.2,1.6-2.4l-0.3-1.4c-1.1,0.3-2.3-0.4-2.5-1.5c-0.2-1.1,0.5-2.2,1.6-2.4l-0.3-1.4
	c-1.1,0.3-2.3-0.4-2.5-1.5c-0.2-1.1,0.5-2.2,1.6-2.4l-0.3-1.4c-1.1,0.3-2.3-0.4-2.5-1.5c-0.2-1.1,0.5-2.2,1.6-2.4l-0.3-1.4
	c-1.1,0.3-2.3-0.5-2.5-1.6l-1.4,0.3c0.3,1.1-0.4,2.3-1.5,2.5c-1.1,0.2-2.2-0.5-2.4-1.6l-1.4,0.3c0.3,1.1-0.4,2.3-1.5,2.5
	c-1.1,0.2-2.2-0.5-2.4-1.6l-1.4,0.3c0.3,1.1-0.4,2.3-1.5,2.5c-1.1,0.2-2.2-0.5-2.4-1.6l-1.4,0.3c0.3,1.1-0.4,2.3-1.5,2.5
	c-1.1,0.2-2.2-0.5-2.4-1.6l-1.4,0.3c0.3,1.1-0.5,2.3-1.6,2.5l0.3,1.4c1.1-0.3,2.3,0.4,2.5,1.5c0.2,1.1-0.5,2.2-1.6,2.4l0.3,1.4
	c1.1-0.3,2.3,0.4,2.5,1.5s-0.5,2.2-1.6,2.4l0.3,1.4c1.1-0.3,2.3,0.4,2.5,1.5c0.2,1.1-0.5,2.2-1.6,2.4l0.3,1.4
	c1.1-0.3,2.3,0.4,2.5,1.5c0.2,1.1-0.5,2.2-1.6,2.4l0.3,1.4c1.1-0.3,2.3,0.4,2.5,1.5c0.2,1.1-0.5,2.2-1.6,2.4l0.3,1.4
	c1.1-0.3,2.3,0.5,2.5,1.6l1.4-0.3c-0.3-1.1,0.4-2.3,1.5-2.5c1.1-0.2,2.2,0.5,2.4,1.6l1.4-0.3c-0.3-1.1,0.4-2.3,1.5-2.5
	c1.1-0.2,2.2,0.5,2.4,1.6l1.4-0.3c-0.3-1.1,0.4-2.3,1.5-2.5c1.1-0.2,2.2,0.5,2.4,1.6l1.4-0.3c-0.3-1.1,0.4-2.3,1.5-2.5
	c1.1-0.2,2.2,0.5,2.4,1.6l1.4-0.3C89.9,184.5,90.7,183.4,91.8,183.1z"/>
<path id="postage_stamp" class="st6" d="M91.5,183.1l-0.3-1.4c-1.1,0.3-2.3-0.4-2.5-1.5c-0.2-1.1,0.5-2.2,1.6-2.4l-0.3-1.4
	c-1.1,0.3-2.3-0.4-2.5-1.5c-0.2-1.1,0.5-2.2,1.6-2.4l-0.3-1.4c-1.1,0.3-2.3-0.4-2.5-1.5c-0.2-1.1,0.5-2.2,1.6-2.4l-0.3-1.4
	c-1.1,0.3-2.3-0.4-2.5-1.5c-0.2-1.1,0.5-2.2,1.6-2.4l-0.3-1.4c-1.1,0.3-2.3-0.4-2.5-1.5c-0.2-1.1,0.5-2.2,1.6-2.4l-0.3-1.4
	c-1.1,0.3-2.3-0.5-2.5-1.6l-1.4,0.3c0.3,1.1-0.4,2.3-1.5,2.5c-1.1,0.2-2.2-0.5-2.4-1.6l-1.4,0.3c0.3,1.1-0.4,2.3-1.5,2.5
	c-1.1,0.2-2.2-0.5-2.4-1.6l-1.4,0.3c0.3,1.1-0.4,2.3-1.5,2.5c-1.1,0.2-2.2-0.5-2.4-1.6l-1.4,0.3c0.3,1.1-0.4,2.3-1.5,2.5
	c-1.1,0.2-2.2-0.5-2.4-1.6l-1.4,0.3c0.3,1.1-0.5,2.3-1.6,2.5l0.3,1.4c1.1-0.3,2.3,0.4,2.5,1.5c0.2,1.1-0.5,2.2-1.6,2.4l0.3,1.4
	c1.1-0.3,2.3,0.4,2.5,1.5s-0.5,2.2-1.6,2.4l0.3,1.4c1.1-0.3,2.3,0.4,2.5,1.5c0.2,1.1-0.5,2.2-1.6,2.4l0.3,1.4
	c1.1-0.3,2.3,0.4,2.5,1.5c0.2,1.1-0.5,2.2-1.6,2.4l0.3,1.4c1.1-0.3,2.3,0.4,2.5,1.5c0.2,1.1-0.5,2.2-1.6,2.4l0.3,1.4
	c1.1-0.3,2.3,0.5,2.5,1.6l1.4-0.3c-0.3-1.1,0.4-2.3,1.5-2.5c1.1-0.2,2.2,0.5,2.4,1.6l1.4-0.3c-0.3-1.1,0.4-2.3,1.5-2.5
	c1.1-0.2,2.2,0.5,2.4,1.6l1.4-0.3c-0.3-1.1,0.4-2.3,1.5-2.5c1.1-0.2,2.2,0.5,2.4,1.6l1.4-0.3c-0.3-1.1,0.4-2.3,1.5-2.5
	c1.1-0.2,2.2,0.5,2.4,1.6l1.4-0.3C89.7,184.5,90.4,183.4,91.5,183.1z"/>
<rect id="postage_stamp_background_1" x="63.7" y="158.3" transform="matrix(0.9752 -0.2214 0.2214 0.9752 -36.2557 20.8386)" class="rpl7-1" width="22.4" height="27.7"/>
<path id="Sity_silhouette" d="M85.2,177.5l0.9-0.2l0.2,0.9l-0.9,0.2L85.2,177.5z M84.1,178.7l0.9-0.2l-0.2-0.9l-0.9,0.2L84.1,178.7z
	 M82.7,179l0.9-0.2l-0.2-0.9l-0.9,0.2L82.7,179z M81.4,179.3l0.9-0.2l-0.2-0.9l-0.9,0.2L81.4,179.3z M85.7,179.8l0.9-0.2l-0.2-0.9
	l-0.9,0.2L85.7,179.8z M84.4,180.1l0.9-0.2l-0.2-0.9l-0.9,0.2L84.4,180.1z M83,180.4l0.9-0.2l-0.2-0.9l-0.9,0.2L83,180.4z
	 M81.7,180.7l0.9-0.2l-0.2-0.9l-0.9,0.2L81.7,180.7z M86,181.2l0.9-0.2l-0.2-0.9l-0.9,0.2L86,181.2z M84.7,181.5l0.9-0.2l-0.2-0.9
	l-0.9,0.2L84.7,181.5z M83.4,181.8l0.9-0.2l-0.2-0.9l-0.9,0.2L83.4,181.8z M82,182.1l0.9-0.2l-0.2-0.9l-0.9,0.2L82,182.1z
	 M86.3,182.7l0.9-0.2l-0.2-0.9l-0.9,0.2L86.3,182.7z M85,183l0.9-0.2l-0.2-0.9l-0.9,0.2L85,183z M83.7,183.3l0.9-0.2l-0.2-0.9
	l-0.9,0.2L83.7,183.3z M82.3,183.6l0.9-0.2l-0.2-0.9l-0.9,0.2L82.3,183.6z M84.7,167.5l2,8.9l0,0.2l1.5,6.7l-6.9,1.6l-0.7,0.1
	l-0.8,0.2l-0.8,0.2l-4.6,1l-7,1.6l-5.4-24.1l7-1.6l3,13.3l5.4-1.2l0.7,3.2l0.8-0.6l0.5,2.4l0.7-0.1l-0.5-2.4l1.4-0.1l-1.8-8l0,0
	l1.6-5.2l-0.5-2.2l0.2,0l0.5,2.2L84.7,167.5L84.7,167.5z M63.3,165.9l3.4-0.8l-0.2-0.8l-3.4,0.8L63.3,165.9z M66.6,166.7l0.2,0.8
	l0.4-0.1l-0.2-0.8L66.6,166.7z M66.2,166.4l-0.2-0.8l-0.8,0.2l0.2,0.8L66.2,166.4z M65.5,167l0.2,0.8l0.4-0.1l-0.2-0.8L65.5,167z
	 M66.2,167.6l0.4-0.1l-0.2-0.8l-0.4,0.1L66.2,167.6z M63.5,167l1.5-0.3l-0.2-0.8l-1.5,0.3L63.5,167z M63.8,168.2l1.5-0.3l-0.2-0.8
	l-1.5,0.3L63.8,168.2z M64.6,171.6l1.5-0.3l0.3-0.1l0.7-0.2l0.8-0.2l-0.2-0.8l-0.8,0.2l-0.7,0.2l-0.3,0.1l-1.5,0.3L64.6,171.6z
	 M67.4,172.2l0.1,0l-0.2-0.8l-0.1,0l-0.7,0.2l0,0l0.2,0.8l0,0L67.4,172.2z M66.8,172.7l0.2,0.8l0.4-0.1l-0.2-0.8L66.8,172.7z
	 M67.5,173.4l0.4-0.1l-0.2-0.8l-0.4,0.1L67.5,173.4z M64.8,172.8l1.5-0.3l0,0l-0.2-0.8l0,0l-1.5,0.3L64.8,172.8z M65.1,173.9
	l1.5-0.3l0,0l-0.2-0.8l0,0l-1.5,0.3L65.1,173.9z M65.6,176.2l1.5-0.3l-0.2-0.8l-1.5,0.3L65.6,176.2z M65.9,177.3l1.5-0.3l-0.2-0.8
	l-1.5,0.3L65.9,177.3z M66.1,178.5l1.5-0.3l0,0l-0.2-0.8l0,0l-1.5,0.3L66.1,178.5z M66.4,179.6l1.5-0.3l-0.2-0.8l-1.5,0.3
	L66.4,179.6z M68.7,183.1l-1.5,0.3l0.2,0.8l1.5-0.3L68.7,183.1z M68.2,180.8l-1.5,0.3l0.2,0.8l1.5-0.3L68.2,180.8z M73,183.3
	l-3.7,0.8l0.2,0.8l3.7-0.8L73,183.3z M70,183.6l-0.2-0.8l-0.7,0.2l0.2,0.8L70,183.6z M71.9,183.2l-0.2-0.8l-1.5,0.3l0.2,0.8
	L71.9,183.2z M72.8,182.2l-0.7,0.2l0.2,0.8L73,183L72.8,182.2z M72.5,181l-3.7,0.8l0.2,0.8l3.7-0.8L72.5,181z M69.5,181.3l-0.2-0.8
	l-0.7,0.2l0.2,0.8L69.5,181.3z M71.4,180.9l-0.2-0.8l-1.5,0.3l0.2,0.8L71.4,180.9z M72.3,179.9l-0.7,0.2l0.2,0.8l0.7-0.2L72.3,179.9
	z M72,178.8l-4.2,1l0.2,0.8l4.2-1L72,178.8z M67.8,177.3l0.2,0.8l0,0l0.7-0.2l0,0l-0.2-0.8l0,0L67.8,177.3L67.8,177.3z M68.2,175.6
	l-0.2-0.8l-0.7,0.2l0.2,0.8L68.2,175.6z M71.7,177.6l-2.6,0.6l-1.1,0.2l0.2,0.8l1.1-0.2l2.6-0.6L71.7,177.6z M71.5,176.5l-0.7,0.2
	l-0.3,0.1l-0.4,0.1l-1.1,0.2l0.2,0.8l1.1-0.2l0.4-0.1l0.3-0.1l0.7-0.2L71.5,176.5z M71.2,175.3l-1.5,0.3l-1.5,0.3l-0.7,0.2l0,0
	l0.2,0.8l0,0l0.7-0.2l1.5-0.3l1.5-0.3L71.2,175.3z M71,174.2l-0.7,0.2l-0.3,0.1l-1.5,0.3l0,0l0.2,0.8l0,0l1.5-0.3l0.3-0.1l0.7-0.2
	L71,174.2z M70.7,173l-3.7,0.8l-0.6,0.1l0.2,0.8l0.6-0.1l3.7-0.8L70.7,173z M70.5,171.9l-1.5,0.3l-0.7,0.1l-0.4,0.1l0,0l0.2,0.8l0,0
	l0.4-0.1l0.7-0.1l1.5-0.3L70.5,171.9z M70.2,170.7l-1.5,0.3l0.2,0.8l1.5-0.3L70.2,170.7z M69.9,169.6l-1.5,0.3l0.2,0.8l1.5-0.3
	L69.9,169.6z M69.7,168.4l-2.5,0.6l0.2,0.8l2.5-0.6L69.7,168.4z M69.4,167.3l-3.7,0.8l0.2,0.8l3.7-0.8L69.4,167.3z M69.2,166.2
	l-1.5,0.3l0.2,0.8l1.5-0.3L69.2,166.2z M68.9,165l-1.5,0.3l0.2,0.8l1.5-0.3L68.9,165z M68.7,163.9l-1.5,0.3l0.2,0.8l1.5-0.3
	L68.7,163.9z M74.3,180.9l-0.4,0.1l0.2,0.8l0.4-0.1L74.3,180.9z M73.8,178.7l-0.4,0.1l0.2,0.8l0.4-0.1L73.8,178.7z M73.3,176.5
	l-0.4,0.1l0.2,0.8l0.4-0.1L73.3,176.5z M75,180.8l-0.4,0.1l0.2,0.8l0.4-0.1L75,180.8z M74.5,178.5l-0.4,0.1l0.2,0.8l0.4-0.1
	L74.5,178.5z M74,176.3l-0.4,0.1l0.2,0.8l0.4-0.1L74,176.3z M75.7,180.6l-0.4,0.1l0.2,0.8l0.4-0.1L75.7,180.6z M75.2,178.4l-0.4,0.1
	l0.2,0.8l0.4-0.1L75.2,178.4z M74.7,176.1l-0.4,0.1l0.2,0.8l0.4-0.1L74.7,176.1z M76.5,180.4l-0.4,0.1l0.2,0.8l0.4-0.1L76.5,180.4z
	 M76,178.2l-0.4,0.1l0.2,0.8l0.4-0.1L76,178.2z M75.5,176l-0.4,0.1l0.2,0.8l0.4-0.1L75.5,176z M83.8,170.1l0.7-0.2l-0.2-0.9
	l-0.7,0.2L83.8,170.1z M84.2,171.8l0.7-0.2l-0.2-0.9l-0.7,0.2L84.2,171.8z M85,175.1l0.7-0.2l-0.2-0.9l-0.7,0.2L85,175.1z M83.1,172
	l0.7-0.2l-0.2-0.9l-0.7,0.2L83.1,172z M83.4,173.7l0.7-0.2l-0.2-0.9l-0.7,0.2L83.4,173.7z M81.5,170.6l0.7-0.2l-0.2-0.9l-0.7,0.2
	L81.5,170.6z M82.6,175.6l0.7-0.2l-0.2-0.9l-0.7,0.2L82.6,175.6z M80.7,172.5l0.7-0.2l-0.2-0.9l-0.7,0.2L80.7,172.5z M81.1,174.2
	l0.7-0.2l-0.2-0.9l-0.7,0.2L81.1,174.2z M86.4,176.9l-6.3,0.3l1.6,7.2l6-1.4L86.4,176.9z"/>
<text id="text1" transform="matrix(1 0 0 1 140.5102 201.8418)" class="st8 st9 editable">Happy birthday!</text>
<text id="text2" transform="matrix(1 0 0 1 138.3083 225.0342)" class="st10 st8 st9 editable">My friend.</text>
<path id="AlpStories_LOGO" d="M145.8,31.4c0-0.1,0.1-0.2,0.3-0.2h3.3c0.2,0,0.3,0.1,0.3,0.2v2.8c0,0.1-0.1,0.2-0.3,0.2h-3.3
	c-0.2,0-0.3-0.1-0.3-0.2V31.4z M145,31.3v3.1c0,0.6,0.4,0.8,0.9,0.8h3.7c0.6,0,0.9-0.2,0.9-0.8v-3.1c0-0.6-0.4-0.8-0.9-0.8h-3.7
	C145.4,30.5,145,30.7,145,31.3 M138.2,30.5v0.6c0,0,0,0,0,0h2c0,0,0,0,0,0v3.9c0,0,0,0,0,0h0.8c0,0,0,0,0,0v-3.9c0,0,0,0,0,0h2
	c0,0,0,0,0,0v-0.6c0,0,0,0,0,0L138.2,30.5C138.2,30.5,138.2,30.5,138.2,30.5 M130.4,34.1v0.3c0,0.6,0.4,0.8,0.9,0.8h1.4h2.6
	c0.6,0,0.9-0.2,0.9-0.8v-1.7c0-0.6-0.4-0.8-0.9-0.8h-3.6c-0.2,0-0.3-0.1-0.3-0.2v-1.1c0-0.1,0.1-0.2,0.3-0.2h3.3
	c0.2,0,0.3,0.1,0.3,0.2v0.1c0,0.1,0,0.1,0.1,0.1l0.7-0.1c0,0,0.1,0,0.1-0.1v-0.2c0-0.6-0.4-0.8-0.9-0.8h-3.6c-0.6,0-0.9,0.2-0.9,0.8
	v1.5c0,0.6,0.4,0.8,0.9,0.8h3.6c0.2,0,0.3,0.1,0.3,0.2v1.4c0,0.1-0.1,0.2-0.3,0.2h-3.7c-0.2,0-0.3-0.1-0.3-0.2V34
	c0-0.1,0-0.1-0.1-0.1L130.4,34.1C130.4,34,130.4,34.1,130.4,34.1 M115.1,35.2C115.1,35.2,115.1,35.2,115.1,35.2l-3-5.6
	c0,0,0,0-0.1,0h-1c0,0-0.1,0-0.1,0l-3,5.6c0,0,0,0,0,0h0.8c0,0,0.1,0,0.1,0l2.6-4.8c0,0,0,0,0,0c0,0,0,0,0,0h0l1.5,2.7l-2.3,0
	c-0.2,0-0.4,0.1-0.4,0.3v0.1c0,0.1,0.1,0.3,0.4,0.3l2.8,0l0.7,1.4c0,0,0,0,0.1,0H115.1z M121.5,35.1v-0.6c0,0,0,0,0,0h-3.5
	c0,0,0,0,0,0v-3.9c0,0,0,0,0,0H117c0,0,0,0,0,0v4.6c0,0.1,0,0.1,0.1,0.1L121.5,35.1C121.5,35.2,121.5,35.2,121.5,35.1 M128.2,32.5
	v-1.2c0-0.6-0.4-0.8-0.9-0.8h-3.9c-0.1,0-0.1,0-0.1,0.1v4.6c0,0,0,0,0,0l0.8,0c0,0,0,0,0,0v-3.9c0,0,0,0,0,0h2.9
	c0.2,0,0.3,0.1,0.3,0.2v0.9c0,0.1-0.1,0.2-0.3,0.2l-2.1,0c-0.2,0-0.4,0.1-0.4,0.3v0c0,0.1,0.1,0.3,0.4,0.3l2.3,0
	C127.9,33.3,128.2,33.1,128.2,32.5 M143.3,19.7c0,0-3-6.4-3-6.4c-0.2-0.5-0.6-0.8-1.1-0.8c-0.5,0-1,0.2-1.3,0.6
	c0,0-8.1,11.6-8.1,11.6c-0.2,0.3-0.2,0.6-0.1,0.7c0.1,0.1,0.4,0,0.6-0.3c0,0,7.9-10.1,7.9-10.1c0.2-0.3,0.5-0.6,0.9-0.5
	c0.3,0,0.6,0.3,0.7,0.6c0,0,2.3,5.2,2.3,5.2c0.2,0.4,0.6,0.7,1,0.5C143.4,20.6,143.5,20.2,143.3,19.7 M152.7,21.8
	c0.2-0.5,0-1-0.3-1.4c0,0-5-6-5-6c-0.1-0.2-0.2-0.4-0.1-0.6c0.1-0.2,0.3-0.4,0.6-0.4c0,0,3.9-0.7,3.9-0.7c0.2,0,0.4-0.2,0.3-0.3
	c0-0.2-0.2-0.3-0.4-0.3l-5.3,0.3c-0.5,0-0.9,0.3-1.1,0.7c-0.1,0.4,0,0.8,0.2,1.1c0,0,5.1,5.9,5.1,5.9c0.2,0.2,0.3,0.5,0.2,0.8
	c-0.1,0.2-0.3,0.4-0.6,0.5c0,0-12.7,3-12.7,3c-0.3,0.1-0.6,0.3-0.6,0.4c0,0.2,0.3,0.2,0.7,0.2c0,0,14-2.5,14-2.5
	C152.1,22.5,152.5,22.2,152.7,21.8 M158.3,35.2c0.1-0.1,0-0.2,0-0.2c0,0-1-1-1.7-1.6l0.4,0c0.6,0,0.9-0.2,0.9-0.8v-1.2
	c0-0.6-0.4-0.8-0.9-0.8h-3.7c-0.1,0-0.1,0-0.1,0.1v4.6c0,0,0,0,0,0l0.8,0c0,0,0,0,0,0v-3.9c0,0,0,0,0,0h2.7c0.2,0,0.3,0.1,0.3,0.2
	v0.9c0,0.1-0.1,0.2-0.3,0.2l-1.9,0c-0.2,0-0.4,0.1-0.4,0.3v0c0,0.1,0.1,0.3,0.4,0.3l0.8,0l1.8,1.9c0,0,0.1,0.1,0.2,0.1L158.3,35.2
	C158.2,35.2,158.3,35.2,158.3,35.2 M161.3,35.1v-4.6c0,0,0,0,0,0h-0.8c0,0,0,0,0,0v4.6c0,0,0,0,0,0L161.3,35.1
	C161.3,35.2,161.3,35.2,161.3,35.1 M168.6,35.1v-0.6c0,0,0,0,0,0h-3.8c0,0,0,0,0,0v-1.4l1.8,0c0.2,0,0.4-0.1,0.4-0.3v0
	c0-0.1-0.1-0.3-0.4-0.3l-1.8,0v-1.1c0,0,0,0,0,0h3.7c0,0,0,0,0,0v-0.6c0,0,0,0,0,0h-4.5c-0.1,0-0.1,0-0.1,0.1v4.5
	c0,0.1,0,0.1,0.1,0.1L168.6,35.1C168.6,35.2,168.6,35.2,168.6,35.1 M171.3,32.2v-0.8c0-0.1,0.1-0.2,0.3-0.2h2.7
	c0.2,0,0.3,0.1,0.3,0.2v0.1c0,0.1,0,0.1,0.1,0.1l0.6-0.1c0,0,0.1,0,0.1-0.1v-0.2c0-0.6-0.4-0.8-0.9-0.8h-3c-0.6,0-0.9,0.2-0.9,0.8v1
	c0,0.6,0.4,0.8,0.9,0.8h3c0.2,0,0.3,0.1,0.3,0.2v0.9c0,0.1-0.1,0.2-0.3,0.2h-3c-0.2,0-0.3-0.1-0.3-0.2V34c0-0.1,0-0.1-0.1-0.1
	l-0.6,0.1c0,0-0.1,0-0.1,0.1v0.3c0,0.6,0.4,0.8,0.9,0.8h1h2.3c0.6,0,0.9-0.2,0.9-0.8v-1.2c0-0.6-0.4-0.8-0.9-0.8h-3
	C171.4,32.4,171.3,32.3,171.3,32.2"/>
<rect id="text_background_left" class="svgRibbon" width="56.7" height="236.4"/>
<rect id="text_background_right" x="226.8" class="svgRibbon" width="56.7" height="236.4"/>
<rect id="Button_Stripe" y="236.3" class="rpl12-1" width="283.5" height="18.9"/>
<text id="product" transform="matrix(1 0 0 1 139.0948 249.2991)" class="st13 st8 st14 svgProduct">Product name</text>
<text id="quantity" transform="matrix(1 0 0 1 8.9839 250.6214)" class="st13 st8 st15">220 ml</text>
<g>
	
		<image style="overflow:visible;" width="28" height="28" id="Icon1" class="st16" transform="matrix(0.4207 0 0 0.4207 266.0086 239.8021)">
	</image>
	
		<image style="overflow:visible;" width="28" height="28" id="Icon2" class="st16" transform="matrix(0.4207 0 0 0.4207 251.2685 239.8021)">
	</image>
	
		<image style="overflow:visible;" width="28" height="28" id="Icon3" class="st16" transform="matrix(0.4207 0 0 0.4207 236.5285 239.8021)">
	</image>
	
		<image style="overflow:visible;" width="28" height="28" id="Icon4" class="st16" transform="matrix(0.4207 0 0 0.4207 207.0484 239.8021)">
	</image>
	
		<image style="overflow:visible;" width="28" height="28" id="Icon5" class="st16" transform="matrix(0.4207 0 0 0.4207 221.7885 239.8021)">
	</image>
</g>
</svg>
