<?xml version="1.0" encoding="utf-8"?>
<svg version="1.1" data-color-numbers="3" id="Layer_1"  xmlns="http://www.w3.org/2000/svg" xmlns:xlink="http://www.w3.org/1999/xlink" x="0px" y="0px"
	 viewBox="0 0 272.1 184.3" style="enable-background:new 0 0 272.1 184.3;" xml:space="preserve">
<style type="text/css">
  <![CDATA[
  @font-face {
        font-family: "DevroyeUnicode";
        src: url("/Content/fonts/DEVROYUN.ttf") format("truetype");
  }
	.rpl0-1{fill:#C2B59B;}
  .rpl0-2{fill:#82b4bc;}
  .rpl0-3{fill:#a9711a;}
	.rpl1-1{fill:#9B8579;}
  .rpl1-2{fill:#dfe6e9;}
  .rpl1-3{fill:#4d2911;}
	.st2{fill:#2B3990;}
	.rpl3-1{fill:#F7941E;}
  .rpl3-2{fill:#3d2826;}
  .rpl3-3{fill:#3d2826;}
	.rpl4-1{fill:#FBB040;}
  .rpl4-2{fill:#62514f;}
  .rpl4-3{fill:#ddd3aa;}
	.st5{fill:#A97C50;}
	.st6{fill:#F1F2F2;}
	.rpl7-1{fill:#C49A6C;}
  .rpl7-2{fill:#fd614e;}
  .rpl7-3{fill:#6cc1ab;}
	.st8{font-family:'DevroyeUnicode';}
	.st9{font-size:7.28px;}
	.st10{fill:#231F20;}
	.rpl12-1{fill:#664838;}
  .rpl12-2{fill:#3f8689;}
  .rpl12-3{fill:#104d3f;}
	.st13{fill:#FFFFFF;}
	.st14{font-size:6.24px;}
	.st15{font-size:7px;}
  .st16{fill:#FFFFFF;}
  .editable{text-anchor: middle;}
  .svgProduct{text-anchor: middle;}
  .svgRibbon{visibility:hidden; opacity:0.6;fill:#FFFFFF;}
 ]]>
</style>
<image style="overflow:visible;" width="781" height="790" id="editableImg" xlink:href="/Content/img/cat-images-hilarious-gifs.jpg"  transform="matrix(0.183 0 0 0.183 66.9033 28.3458)">
</image>
<path id="Background" class="rpl0-1" d="M0,0v184.3h272.1V0H0z M176.9,182.8H91.1V30.9h85.8V182.8z"/>
<path id="chevron_pattern" class="rpl1-1" d="M163.7,0h9.5l-4.7,3.4L163.7,0z M0,134.2v7.8l24.7,17.6l66.5-47.2v-8.1l-66.5,47.2
	L0,134.2z M24.7,38.9L79.5,0H68.1L24.6,30.8L0,13.5v7.8L24.7,38.9z M24.7,91l66.5-47.2v-8.1L24.6,82.9L0,65.6v7.8L24.7,91z M223.3,0
	h-11.4l-43.4,30.8L125,0h-11.4l43.5,30.9h19.8v2.1L223.3,0z M176.9,181v1.7h-2.4l-2.1,1.5h11.4l56.6-40.1l31.8,22.4v-7.7L240.3,136
	L176.9,181z M272.1,175.3l-31.8-22.7l-44.7,31.7h11.4l33.3-23.6l31.8,22.4V175.3z M0,169.7v7.8l9.4,6.7h11.2L0,169.7z M0,82.1v7.8
	l24.7,17.6l66.5-47.2v-8.1L24.6,99.4L0,82.1z M0,30v7.8l24.7,17.6l71.9-51l37.3,26.4h11.4L101.7,0H91.4L24.6,47.4L0,30z M24.7,3.4
	L29.4,0H20L24.7,3.4z M257.6,0l14.6,10.3V2.5L268.6,0H257.6z M176.9,76.9V85l63.4-45l31.8,22.4v-7.7l-31.8-22.7L176.9,76.9z
	 M245.5,0h-10.3l-58.3,41.3v8.1l63.4-45l31.8,22.4v-7.7L245.5,0z M139.1,182.8h-11.4l2.1,1.5h11.4L139.1,182.8z M91.1,164.5v-8.1
	l-39.2,27.8h11.4L91.1,164.5z M24.7,143.1l66.5-47.2v-8.1L24.6,135L0,117.6v7.8L24.7,143.1z M164.5,184.3l-2.1-1.5H151l2.1,1.5
	H164.5z M240.3,48.4l-63.4,45v8.1l63.4-45l31.8,22.4v-7.7L240.3,48.4z M91.1,139.9l-62.5,44.4H40L91.1,148V139.9z M176.9,129v8.1
	l63.4-45l31.8,22.4v-7.7L240.3,84L176.9,129z M240.3,100.5l-63.4,45v8.1l63.4-45l31.8,22.4v-7.7L240.3,100.5z"/>
<g id="stamp">
	<path class="st2" d="M163.5,174.9c-0.4-1.7-0.4-3.4-0.4-5.1c0-1.7,0.2-3.4,0.7-5c0.5-1.6,1.2-3.2,2-4.6c0.9-1.5,1.9-2.8,3.1-4
		c1.2-1.2,2.5-2.6,4-3.4c1.5-0.8,3.1-1.1,4.8-1.5c1.7-0.4,3.4-0.6,5.1-0.5c1.7,0,3.5,0.1,5.1,0.6c1.6,0.5,3.2,1.3,4.6,2.2
		c1.5,0.9,2.9,1.8,4.1,3c1.2,1.2,1.9,2.8,2.8,4.3c0.8,1.5,1.8,2.9,2.2,4.6c0.4,1.7,0.5,3.4,0.5,5.1c0,1.7-0.2,3.4-0.7,5.1
		c-0.2,0.6-0.4,1.1-0.7,1.7h1.9c0.1-0.4,0.3-0.8,0.4-1.2c0.5-1.8,1.1-3.6,1.1-5.5c0-1.8-0.5-3.7-1-5.5c-0.5-1.9-1.1-3.6-2-5.2
		c-0.9-1.7-2.1-3.1-3.4-4.4c-1.3-1.3-2.6-2.7-4.2-3.7c-1.6-1-3.4-1.7-5.2-2.2c-1.8-0.5-3.7-0.5-5.6-0.6c-1.8,0-3.7-0.1-5.6,0.3
		c-1.9,0.5-3.5,1.4-5.1,2.3c-1.7,0.9-3.1,2-4.5,3.3c-1.3,1.3-2.6,2.7-3.6,4.3c-1,1.6-1.8,3.3-2.4,5.1c-0.5,1.8-0.5,3.7-0.6,5.6
		c0,1.8,0.1,3.7,0.6,5.5c0.2,0.6,0.3,1.3,0.5,1.9h1.9C163.9,176.5,163.7,175.7,163.5,174.9z"/>
	<polygon class="st2" points="172.3,167.3 172,170 172.3,172.7 173.3,175.2 174.8,177.2 175.8,177.2 175.4,176.9 173.8,174.9 
		172.9,172.5 172.6,170 172.9,167.4 173.9,165.1 175.6,163.1 177.6,161.5 180,160.6 182.6,160.4 185.1,160.7 187.4,161.7 
		189.3,163.4 190.9,165.4 191.8,167.8 192.3,170.3 191.9,172.8 190.8,175.2 189.2,177.1 189,177.2 189.9,177.2 191.4,175.5 
		192.6,173 193,170.3 192.6,167.6 191.5,165.1 189.9,162.9 187.8,161.1 185.3,160 182.6,159.6 179.8,159.9 177.3,160.9 175.1,162.6 
		173.5,164.8 	"/>
	<polygon class="st2" points="159.4,177.2 160.6,177.2 159.9,175.7 159,168.5 160.8,161.4 164.6,155.1 169.9,150.2 176.8,147.6 
		184,146.9 191,148.6 197.4,152.2 202.2,157.6 204.7,164.5 205.4,171.6 204.1,177.2 205.6,177.2 205.8,176.7 206.5,170.4 
		205.9,164.2 203.4,158.4 199.6,153.4 194.9,149.2 189.1,146.7 182.8,145.7 176.5,146.6 170.7,149 165.5,152.6 161.6,157.6 
		159.3,163.5 158.3,169.7 158.9,176 	"/>
</g>
<path id="tape_shade" class="rpl3-1" d="M182.4,150.1l-5.5,1.5v-3L182.4,150.1z M176.9,165.5v3l5.5-1.5L176.9,165.5z M85.7,150.1
	l5.5,1.5v-3L85.7,150.1z M85.8,30.9l5.3,1.4v-2.8L85.8,30.9z M85.7,167l5.5,1.5v-3L85.7,167z"/>
<path id="tapes" class="rpl4-1" d="M182.5,30.9H85.7V0.1h96.8V30.9z M182.5,152.4H85.7V167h96.8V152.4z M182.5,135.5H85.7v14.6h96.8
	V135.5z"/>
<path id="AlpStories_LOGO" d="M137,22.6c0-0.1,0.1-0.2,0.2-0.2h2.4c0.1,0,0.2,0.1,0.2,0.2v2c0,0.1-0.1,0.2-0.2,0.2h-2.4
	c-0.1,0-0.2-0.1-0.2-0.2V22.6z M136.4,22.5v2.2c0,0.4,0.3,0.6,0.7,0.6h2.7c0.4,0,0.7-0.2,0.7-0.6v-2.2c0-0.4-0.3-0.6-0.7-0.6H137
	C136.6,22,136.4,22.1,136.4,22.5 M131.5,22v0.4c0,0,0,0,0,0h1.5c0,0,0,0,0,0v2.8c0,0,0,0,0,0h0.5c0,0,0,0,0,0v-2.8c0,0,0,0,0,0h1.5
	c0,0,0,0,0,0V22c0,0,0,0,0,0L131.5,22C131.5,22,131.5,22,131.5,22 M125.8,24.6v0.2c0,0.4,0.3,0.6,0.7,0.6h1h1.9
	c0.4,0,0.7-0.2,0.7-0.6v-1.2c0-0.4-0.3-0.6-0.7-0.6h-2.6c-0.1,0-0.2-0.1-0.2-0.2V22c0-0.1,0.1-0.2,0.2-0.2h2.4
	c0.1,0,0.2,0.1,0.2,0.2v0.1c0,0,0,0.1,0.1,0.1l0.5-0.1c0,0,0.1,0,0.1-0.1v-0.1c0-0.4-0.3-0.6-0.7-0.6h-2.6c-0.4,0-0.7,0.2-0.7,0.6
	v1.1c0,0.4,0.3,0.6,0.7,0.6h2.6c0.1,0,0.2,0.1,0.2,0.2v1c0,0.1-0.1,0.2-0.2,0.2h-2.7c-0.1,0-0.2-0.1-0.2-0.2v-0.1c0,0,0-0.1-0.1-0.1
	L125.8,24.6C125.9,24.5,125.8,24.5,125.8,24.6 M114.8,25.4C114.9,25.4,114.9,25.3,114.8,25.4l-2.2-4c0,0,0,0-0.1,0h-0.7
	c0,0,0,0-0.1,0l-2.2,4c0,0,0,0,0,0h0.6c0,0,0,0,0.1,0l1.9-3.5c0,0,0,0,0,0c0,0,0,0,0,0h0l1.1,2l-1.7,0c-0.2,0-0.3,0.1-0.3,0.2v0.1
	c0,0.1,0.1,0.2,0.3,0.2l2,0l0.5,1c0,0,0,0,0.1,0H114.8z M119.4,25.3v-0.4c0,0,0,0,0,0h-2.5c0,0,0,0,0,0V22c0,0,0,0,0,0h-0.5
	c0,0,0,0,0,0v3.3c0,0,0,0.1,0.1,0.1L119.4,25.3C119.4,25.4,119.4,25.3,119.4,25.3 M124.3,23.4v-0.9c0-0.4-0.3-0.6-0.7-0.6h-2.8
	c0,0-0.1,0-0.1,0.1v3.3c0,0,0,0,0,0l0.5,0c0,0,0,0,0,0v-2.8c0,0,0,0,0,0h2.1c0.1,0,0.2,0.1,0.2,0.2v0.7c0,0.1-0.1,0.2-0.2,0.2
	l-1.5,0c-0.2,0-0.3,0.1-0.3,0.2v0c0,0.1,0.1,0.2,0.3,0.2l1.7,0C124,24,124.3,23.8,124.3,23.4 M135.1,14.2c0,0-2.2-4.6-2.2-4.6
	c-0.2-0.3-0.4-0.6-0.8-0.6c-0.4,0-0.7,0.1-0.9,0.4c0,0-5.9,8.3-5.9,8.3c-0.1,0.2-0.2,0.4-0.1,0.5c0.1,0.1,0.3,0,0.4-0.2
	c0,0,5.7-7.2,5.7-7.2c0.2-0.2,0.4-0.4,0.6-0.4c0.2,0,0.4,0.2,0.5,0.5c0,0,1.6,3.7,1.6,3.7c0.1,0.3,0.5,0.5,0.7,0.4
	C135.2,14.9,135.3,14.5,135.1,14.2 M141.9,15.7c0.1-0.3,0-0.7-0.2-1c0,0-3.6-4.3-3.6-4.3c-0.1-0.1-0.2-0.3-0.1-0.4
	c0.1-0.2,0.2-0.3,0.4-0.3l2.8-0.5c0.1,0,0.3-0.1,0.2-0.2c0-0.1-0.1-0.2-0.3-0.2L137.3,9c-0.4,0-0.7,0.2-0.8,0.5
	c-0.1,0.3,0,0.6,0.2,0.8c0,0,3.7,4.2,3.7,4.2c0.1,0.2,0.2,0.4,0.1,0.6c-0.1,0.2-0.2,0.3-0.4,0.3c0,0-9.1,2.2-9.1,2.2
	c-0.2,0.1-0.4,0.2-0.4,0.3c0,0.1,0.2,0.2,0.5,0.1c0,0,10.1-1.8,10.1-1.8C141.5,16.2,141.8,16,141.9,15.7 M145.9,25.3
	c0,0,0-0.1,0-0.2c0,0-0.8-0.7-1.2-1.2l0.3,0c0.4,0,0.7-0.2,0.7-0.6v-0.9c0-0.4-0.3-0.6-0.7-0.6h-2.7c0,0-0.1,0-0.1,0.1v3.3
	c0,0,0,0,0,0l0.5,0c0,0,0,0,0,0v-2.8c0,0,0,0,0,0h1.9c0.1,0,0.2,0.1,0.2,0.2v0.7c0,0.1-0.1,0.2-0.2,0.2l-1.4,0
	c-0.2,0-0.3,0.1-0.3,0.2v0c0,0.1,0.1,0.2,0.3,0.2l0.6,0l1.3,1.3c0,0,0.1,0,0.1,0L145.9,25.3C145.9,25.4,145.9,25.3,145.9,25.3
	 M148.1,25.3V22c0,0,0,0,0,0h-0.5c0,0,0,0,0,0v3.3c0,0,0,0,0,0L148.1,25.3C148.1,25.4,148.1,25.3,148.1,25.3 M153.4,25.3v-0.4
	c0,0,0,0,0,0h-2.8c0,0,0,0,0,0v-1l1.3,0c0.2,0,0.3-0.1,0.3-0.2v0c0-0.1-0.1-0.2-0.3-0.2l-1.3,0v-0.8c0,0,0,0,0,0h2.7c0,0,0,0,0,0V22
	c0,0,0,0,0,0H150c0,0-0.1,0-0.1,0.1v3.3c0,0,0,0.1,0.1,0.1L153.4,25.3C153.4,25.4,153.4,25.3,153.4,25.3 M155.3,23.2v-0.5
	c0-0.1,0.1-0.2,0.2-0.2h2c0.1,0,0.2,0.1,0.2,0.2v0.1c0,0,0,0.1,0.1,0.1l0.4-0.1c0,0,0.1,0,0.1-0.1v-0.1c0-0.4-0.3-0.6-0.7-0.6h-2.1
	c-0.4,0-0.7,0.2-0.7,0.6v0.7c0,0.4,0.3,0.6,0.7,0.6h2.2c0.1,0,0.2,0.1,0.2,0.2v0.7c0,0.1-0.1,0.2-0.2,0.2h-2.2
	c-0.1,0-0.2-0.1-0.2-0.2v-0.2c0,0,0-0.1-0.1-0.1l-0.4,0.1c0,0-0.1,0-0.1,0.1v0.2c0,0.4,0.3,0.6,0.7,0.6h0.7h1.6
	c0.4,0,0.7-0.2,0.7-0.6v-0.9c0-0.4-0.3-0.6-0.7-0.6h-2.2C155.4,23.3,155.3,23.3,155.3,23.2"/>
<path id="postage_stamp_3_" class="st5" d="M182,46.6l0.4-1.2c-1-0.3-1.6-1.3-1.3-2.2c0.3-0.9,1.3-1.5,2.3-1.2l0.4-1.2
	c-1-0.3-1.6-1.3-1.3-2.2c0.3-0.9,1.3-1.5,2.3-1.2l0.4-1.2c-1-0.3-1.6-1.3-1.3-2.2c0.3-0.9,1.3-1.5,2.3-1.2l0.4-1.2
	c-1-0.3-1.6-1.3-1.3-2.2c0.3-0.9,1.3-1.5,2.3-1.2l0.4-1.2c-1-0.3-1.6-1.3-1.3-2.2c0.3-0.9,1.3-1.5,2.3-1.2l0.4-1.2
	c-1-0.3-1.6-1.3-1.3-2.3l-1.3-0.4c-0.3,1-1.3,1.6-2.2,1.3c-0.9-0.3-1.5-1.3-1.2-2.3l-1.3-0.4c-0.3,1-1.3,1.6-2.2,1.3
	c-0.9-0.3-1.5-1.3-1.2-2.3l-1.3-0.4c-0.3,1-1.3,1.6-2.2,1.3s-1.5-1.3-1.2-2.3l-1.3-0.4c-0.3,1-1.3,1.6-2.2,1.3
	c-0.9-0.3-1.5-1.3-1.2-2.3l-1.3-0.4c-0.3,1-1.3,1.6-2.3,1.3l-0.4,1.2c1,0.3,1.6,1.3,1.3,2.2c-0.3,0.9-1.3,1.5-2.3,1.2l-0.4,1.2
	c1,0.3,1.6,1.3,1.3,2.2s-1.3,1.5-2.3,1.2l-0.4,1.2c1,0.3,1.6,1.3,1.3,2.2s-1.3,1.5-2.3,1.2l-0.4,1.2c1,0.3,1.6,1.3,1.3,2.2
	c-0.3,0.9-1.3,1.5-2.3,1.2l-0.4,1.2c1,0.3,1.6,1.3,1.3,2.2c-0.3,0.9-1.3,1.5-2.3,1.2l-0.4,1.2c1,0.3,1.6,1.3,1.3,2.3l1.3,0.4
	c0.3-1,1.3-1.6,2.2-1.3c0.9,0.3,1.5,1.3,1.2,2.3l1.3,0.4c0.3-1,1.3-1.6,2.2-1.3c0.9,0.3,1.5,1.3,1.2,2.3l1.3,0.4
	c0.3-1,1.3-1.6,2.2-1.3c0.9,0.3,1.5,1.3,1.2,2.3l1.3,0.4c0.3-1,1.3-1.6,2.2-1.3c0.9,0.3,1.5,1.3,1.2,2.3l1.3,0.4
	C179.9,46.8,181,46.3,182,46.6z"/>
<path id="postage_stamp_2_" class="st6" d="M182.4,46.3l0.4-1.2c-1-0.3-1.6-1.3-1.3-2.2c0.3-0.9,1.3-1.5,2.3-1.2l0.4-1.2
	c-1-0.3-1.6-1.3-1.3-2.2c0.3-0.9,1.3-1.5,2.3-1.2l0.4-1.2c-1-0.3-1.6-1.3-1.3-2.2c0.3-0.9,1.3-1.5,2.3-1.2l0.4-1.2
	c-1-0.3-1.6-1.3-1.3-2.2s1.3-1.5,2.3-1.2l0.4-1.2c-1-0.3-1.6-1.3-1.3-2.2c0.3-0.9,1.3-1.5,2.3-1.2l0.4-1.2c-1-0.3-1.6-1.3-1.3-2.3
	l-1.3-0.4c-0.3,1-1.3,1.6-2.2,1.3c-0.9-0.3-1.5-1.3-1.2-2.3l-1.3-0.4c-0.3,1-1.3,1.6-2.2,1.3c-0.9-0.3-1.5-1.3-1.2-2.3l-1.3-0.4
	c-0.3,1-1.3,1.6-2.2,1.3s-1.5-1.3-1.2-2.3l-1.3-0.4c-0.3,1-1.3,1.6-2.2,1.3s-1.5-1.3-1.2-2.3l-1.3-0.4c-0.3,1-1.3,1.6-2.3,1.3
	l-0.4,1.2c1,0.3,1.6,1.3,1.3,2.2c-0.3,0.9-1.3,1.5-2.3,1.2l-0.4,1.2c1,0.3,1.6,1.3,1.3,2.2c-0.3,0.9-1.3,1.5-2.3,1.2l-0.4,1.2
	c1,0.3,1.6,1.3,1.3,2.2s-1.3,1.5-2.3,1.2l-0.4,1.2c1,0.3,1.6,1.3,1.3,2.2c-0.3,0.9-1.3,1.5-2.3,1.2l-0.4,1.2c1,0.3,1.6,1.3,1.3,2.2
	c-0.3,0.9-1.3,1.5-2.3,1.2l-0.4,1.2c1,0.3,1.6,1.3,1.3,2.3l1.3,0.4c0.3-1,1.3-1.6,2.2-1.3s1.5,1.3,1.2,2.3l1.3,0.4
	c0.3-1,1.3-1.6,2.2-1.3s1.5,1.3,1.2,2.3l1.3,0.4c0.3-1,1.3-1.6,2.2-1.3c0.9,0.3,1.5,1.3,1.2,2.3l1.3,0.4c0.3-1,1.3-1.6,2.2-1.3
	c0.9,0.3,1.5,1.3,1.2,2.3l1.3,0.4C180.4,46.6,181.5,46,182.4,46.3z"/>
<rect id="postage_stamp_background_2" x="164.4" y="18.5" transform="matrix(0.9602 0.2794 -0.2794 0.9602 15.5242 -47.4723)" class="rpl7-1" width="19.7" height="24.4"/>
<path id="man_silhouette" d="M181.4,30.3c-0.1-0.4-1-0.4-2.2-0.5c0.2-0.8,0.5-1.9,0.8-2.9c0.6-2,1-3.2,1.3-4.2
	c-0.2-0.8-4.2-1.9-4.2-1.9s-4-1.2-4.6-0.6c-0.2,1-0.6,2.2-1.1,4.2c-0.3,1-0.6,2-0.9,2.9c-1.1-0.7-1.8-1.1-2.1-0.8
	c-0.6,0.6-1.3,4,5.3,5.9C180.3,34.4,181.6,31.2,181.4,30.3z M176.7,22.3c2.7,0.8,4.2,0.8,4.2,0.8s-1.3,0.5-4.3-0.4
	c-2.9-0.8-3.9-1.9-3.9-1.9S174,21.5,176.7,22.3z M176.8,40.5c-0.2,0.6-0.5,1-0.8,1.1c-0.2,0-0.4,0-0.6-0.2c-0.2-0.2-0.4-0.7-0.1-1.3
	c0.1-0.3,1.2-4.6,1.4-5.1c0,0,0,0,0,0c0.2-0.7-0.2-1.4-0.9-1.6c-0.7-0.2-1.4,0.2-1.6,0.9c-0.2,0.7,0.2,1.4,0.9,1.6
	c0.5,0.1,1,0,1.3-0.4c-0.3,1.3-1.2,4.3-1.2,4.6c-0.2,0.7-0.1,1.2,0.2,1.5c0.1,0.1,0.2,0.2,0.4,0.2c0.1,0,0.2,0,0.3,0
	c0.2-0.1,0.7-0.3,0.9-1.2L176.8,40.5z M175.2,35.6c-0.5-0.2-0.8-0.7-0.7-1.2c0.2-0.5,0.7-0.8,1.2-0.7c0.5,0.2,0.8,0.7,0.7,1.2
	C176.2,35.4,175.7,35.7,175.2,35.6z M175,38.4c0,0-0.3,0.7-1.2,0.6c-0.9-0.1-1.6-1-1.6-1s-1.2,0.4-1.9-0.1c-0.8-0.4-0.7-1.2-0.7-1.2
	s0.2,0.4,0.8,0.4c0.6,0,0.7-0.6,1.2-0.6c0.5,0,0.8,0.6,0.8,0.6s0.6-0.4,1-0.1c0.4,0.3,0.2,0.9,0.7,1.2C174.6,38.6,175,38.4,175,38.4
	z"/>
<path id="With_best_wishes_postmark" class="st2" d="M91.7,39.9c-1.5,0.4-3,0.6-4.4,0.6c-1.5,0-3-0.3-4.4-0.7
	c-1.4-0.4-2.8-1-4.1-1.7c-1.3-0.8-2.4-1.7-3.5-2.8c-1-1.1-2-2.2-2.7-3.5c-0.7-1.3-1.1-2.7-1.5-4.2c-0.4-1.5-0.5-2.9-0.5-4.4
	c0-1.5,0-3,0.4-4.4c0.4-1.4,1.1-2.8,1.9-4c0.8-1.3,1.8-2.4,2.8-3.4c1.1-1,2.2-1.9,3.5-2.6c1.3-0.7,2.6-1.5,4.1-1.8
	c1.5-0.4,3-0.3,4.4-0.3c1.5,0,3,0,4.4,0.4c1.4,0.4,2.8,1,4.1,1.8c1.3,0.8,2.3,1.9,3.4,2.9c1,1.1,1.9,2.2,2.7,3.5
	c0.7,1.3,1.2,2.7,1.6,4.1c0.4,1.5,0.8,2.9,0.8,4.4c0,1.5-0.5,2.9-0.9,4.4c-0.4,1.4-0.9,2.8-1.6,4.1c-0.8,1.3-1.8,2.3-2.9,3.4
	c-1.1,1-2.1,2-3.5,2.8C94.6,39,93.2,39.5,91.7,39.9z M83.8,8.3c-1.3,0.3-2.7,0.6-3.8,1.2c-1.2,0.7-2.2,1.8-3.2,2.7
	c-1,0.9-1.8,2-2.5,3.2c-0.7,1.2-1.3,2.4-1.6,3.7c-0.4,1.3-0.5,2.6-0.5,4c0,1.3,0,2.7,0.3,4c0.3,1.3,0.8,2.6,1.5,3.8
	c0.7,1.2,1.7,2.2,2.6,3.1c0.9,1,1.9,1.9,3.1,2.6c1.2,0.7,2.4,1.3,3.7,1.7c1.3,0.4,2.7,0.6,4,0.6c1.3,0,2.6-0.3,4-0.7
	c1.3-0.3,2.7-0.6,3.8-1.3c1.2-0.7,2.2-1.7,3.1-2.6c1-0.9,1.8-2,2.5-3.2c0.7-1.2,1.4-2.3,1.8-3.6c0.4-1.3,0.5-2.7,0.6-4
	c0-1.3-0.1-2.7-0.4-4c-0.3-1.3-1.1-2.5-1.7-3.7c-0.7-1.2-1.3-2.4-2.2-3.4c-0.9-1-2.1-1.7-3.3-2.4c-1.2-0.7-2.4-1.4-3.7-1.8
	c-1.3-0.4-2.7-0.4-4-0.4C86.5,7.8,85.1,8,83.8,8.3z M89.5,31.4l-2.2,0.2l-2.1-0.3l-2-0.9l-1.7-1.3l-1.3-1.7l-0.8-2l-0.2-2.2l0.2-2.2
	l0.9-2l1.3-1.7l1.7-1.3l2-0.8l2.2-0.3l2.2,0.3l2,0.9l1.7,1.4l1.3,1.7l0.9,2l0.3,2.2l-0.3,2.2l-1,2l-1.4,1.7l-1.7,1.4L89.5,31.4z
	 M85.6,15.7l-1.9,0.7l-1.6,1.2l-1.3,1.6L80,21.2l-0.3,2l0.2,2l0.7,1.9l1.3,1.6l1.5,1.3l1.9,0.8l2,0.3l2-0.2l1.9-0.7l1.6-1.2l1.3-1.6
	l0.9-1.8l0.3-2l-0.3-2l-0.8-1.9L93,17.9l-1.5-1.3l-1.9-0.9l-2-0.2L85.6,15.7z M92.2,41.9l-5,0.4l-5-0.6l-4.6-2l-3.8-3.2l-3.2-3.9
	l-1.8-4.7l-0.5-5l0.8-4.9l1.8-4.7l3-4l4.2-2.9l4.6-1.9l5-0.7l5,0.8l4.6,2l3.7,3.4l3,4l2,4.6l0.5,5l-0.6,5l-2.2,4.5l-3.1,3.9
	l-3.9,3.1L92.2,41.9z M83,5.4l-5.4,2.1l-4.3,3.9l-2.9,5L68.9,22l0.7,5.8l2.2,5.3l3.7,4.4l5,3.1l5.7,1.1l5.7-0.6l5.4-2.1l4.3-3.8
	l2.8-5l1.3-5.6l-0.5-5.7l-2-5.4L99.4,9l-5-2.8l-5.6-1.4L83,5.4z M74.1,18.8l0.8,0.4l0.8,0.4l0.8,0.4l0.8,0.4l0.8,0.4l0.7,0.3
	l0.4,0.5l-0.7,0.3L77.6,22l-0.8,0.1l-0.8,0l-0.8,0.1l0.7,0.3l0.7,0.4l0.7,0.3l0.7,0.4l0.7,0.3l0,0.6l-0.9,0.3l-0.9,0.1l-1,0.1l-1,0
	l-0.8-0.1l-0.5,0.4L73.4,25l0.7-0.7l0.8-0.1l0.8-0.1l0.8-0.1l0.8,0l0.8-0.1l-0.7-0.3l-0.7-0.3L76,22.9l-0.7-0.3l-0.7-0.3l-1-0.1
	l0.4-0.6l0.8-0.1l0.8-0.1l0.8-0.1l0.8,0l0.8,0l-0.7-0.4l-0.7-0.4L76.1,20l-0.8-0.3l-0.8-0.2L74,20.1l-0.3-0.7l0.1-0.9L74.1,18.8z
	 M75.3,15.3l0,0.6l-0.7-0.2l0-0.6L75.3,15.3L75.3,15.3z M80.4,18.5l-0.5,0.5l-0.7-0.2l-0.6-0.5l-0.6-0.5l-0.6-0.5l-0.5-0.5l-0.2,0.4
	l0-0.5l0.9,0.1l0.7,0.5l0.7,0.5l0.8,0.4l0.7-0.3L80.4,18.5L80.4,18.5z M79.3,14l-0.5,0.5l0.5,0.7l0.6,0.6l0.5,0.6l0.6,0.5l0.6-0.4
	l-0.2,0.9l-0.9,0.2L80,16.9l-0.5-0.6l-0.5-0.7L78.4,15l-0.2,0.3l-0.3-1.1l0-0.7l0.7,0.7l0.6-0.7L79.3,14z M81.6,16.5L81.6,16.5
	L81.6,16.5z M84.9,15l-0.7,0.3l-0.5-0.6l-0.3-0.7l-0.2-0.8L83,12.4l-0.5-0.6l-0.5,0.5L82,13.2l0.1,0.8l0.2,0.9l0.3,0.8l-0.4,0.7
	l-0.4-0.7L81.5,15l-0.3-0.8l-0.3-0.8l-0.3-0.8l-0.3-0.8l-0.3-0.8l-0.3-0.8l-0.5,0.3L80,9.9l0.3,0.8l0.4,0.8l0.3,0.8l0.3,0.8l0.3,0.8
	l0-0.8l0.1-0.8l0.3-0.7l0.7-0.2l0.6,0.5l0.3,0.8l0.3,0.8l0.3,0.7l0.8,0.3L84.9,15L84.9,15z M91,14.3l-0.6,0.4l-0.7,0.2l-0.8,0
	l-0.7-0.2l-0.7-0.1l0.4-0.3l0.3-0.7l0.2-0.7l0.2-0.8l0.2-0.8l0.3-0.8l0.3-0.8l-0.5-0.1l1-0.1l0.8,0.1l0.8,0.3l0.4,0.8l-0.5,0.8
	L90.7,12l0.6,0.6l0.1,0.9L91,14.3L91,14.3z M90.7,13.1l-0.5-0.7l-0.9-0.2l-0.4,1.1l-0.3,0.7l0.3,0.6l0.9,0l0.7-0.5L90.7,13.1
	L90.7,13.1z M90.9,10.3L90.4,10l-0.6-0.1l-0.2,0.9l-0.3,0.9l0.6,0.1l0.6-0.1l0.5-0.6L90.9,10.3L90.9,10.3z M94.8,15l-0.7,0.2l-0.7,0
	l-0.6-0.2l-0.4,0.6l0.7,0.5l0.6-0.1l-0.3,0.4l-0.9,0l-0.8-0.5l-0.2-0.8l0.3-0.7l0.6-0.6l0.7-0.5l0.7-0.4l0.8-0.1l0.7,0.3l0.3,0.7
	l-0.2,0.7L94.8,15L94.8,15z M95,14l-0.1-0.7l-0.8,0l-0.6,0.4L93.2,14l-0.1,0.6l0.7,0l0.7-0.2L95,14L95,14z M95.5,18.5l-0.7-0.1
	l-0.7-0.3l-0.5-0.5l0-0.7l0.8-0.1l0,1.2l0.7,0.4l0.5-0.6l0.1-0.8l0.1-0.8l0.6-0.6l0.8-0.1L98,16l0.2,0.8l-0.5-0.2L97.6,16L97,15.8
	l-0.4,0.5l-0.1,0.9l-0.3,0.9L95.5,18.5L95.5,18.5z M99.4,19.9l-0.3-0.7l-0.8,0.2l-0.8,0.2l-0.8,0.2l-0.7,0.4l0.1,0.7l-0.8-0.5
	l0.3-0.9l0.8-0.3l0.8-0.2l0.8-0.2l0.8-0.2l-0.2-0.4l1.1,0.1l0.7,0.3l-1,0.3l0.4,0.9L99.4,19.9z M96.2,20.9L96.2,20.9L96.2,20.9z
	 M99.5,30.7l-0.7-0.6l-0.7-0.5L97.5,29l-0.7-0.6l-0.6-0.6l-0.6-0.4l-0.3-0.6l0.8-0.2l0.8,0.1l0.8,0.1l0.8,0.1l0.8,0.2l-0.6-0.5
	l-0.6-0.5l-0.6-0.5l-0.6-0.5l-0.6-0.5l0.1-0.6l0.9,0l0.9,0.1l1,0.2l0.9,0.2l0.8,0.2l0.5-0.3l0.2,0.3l-0.8,0.5l-0.8-0.1l-0.8-0.1
	L98.4,25L97.7,25l-0.8-0.1l0.6,0.5l0.6,0.5l0.6,0.4l0.6,0.5l0.6,0.5l0.8,0.3l-0.5,0.5l-0.8-0.1l-0.8-0.1l-0.8-0.1l-0.8-0.1l-0.8-0.2
	l0.6,0.6l0.6,0.6l0.6,0.5l0.6,0.5l0.7,0.3l0.6-0.4l0.2,0.8l-0.3,0.9L99.5,30.7z M93.3,29.5l0.6-0.4l0.7,0.4l0.5,0.6l0.5,0.6l0.4,0.6
	l0.4,0.7l0.3-0.3l-0.1,0.5l-0.9-0.3l-0.5-0.7l-0.6-0.6L94,29.9L93.3,30L93.3,29.5z M97.5,33.9l0.1-0.6l0.6,0.4l-0.1,0.6L97.5,33.9z
	 M91.3,31.7l0.2-0.7l0.4-0.6l0.6-0.4l0.7,0.1l0.1,0.8l-0.9-0.2l-0.6,0.5l0.2,0.7l0.7,0.3l0.9,0.2l0.7,0.6l0,0.9l-0.6,0.8l-0.8,0.1
	l0.2-0.5l0.6,0l0.3-0.6l-0.5-0.4l-0.9-0.2l-0.8-0.4L91.3,31.7L91.3,31.7z M87.3,31.9l0.8,0l0.3,0.7l0,0.8l-0.1,0.8l0,0.8l0.2,0.7
	l0.7-0.3l0.3-0.7l0.2-0.8l0.1-0.9l0.1-0.9l0.5-0.6l0.2,0.8l0.1,0.8l0,0.8l0.1,0.8l0,0.8l0,0.8l0,0.8l0,0.8l0.6-0.1l-1,0.4l-0.1-0.8
	l-0.1-0.9l0-0.9l-0.1-0.9L90,34l-0.2,0.7l-0.3,0.7L89,35.9l-0.7,0.2l-0.5-0.5l-0.1-0.8l0-0.7l-0.1-0.7l-0.1-0.7L87,32.3L87.3,31.9z
	 M83.4,33.6l0.5-0.4l0.6-0.3l0.7,0l0.2-0.6l-0.7-0.4l-0.8,0.4l0-0.3l0.8-0.4l0.9,0l0.6,0.5l0.1,0.8l-0.3,0.8l-0.4,0.7l-0.5,0.6
	l-0.7,0.5l-0.8,0L83.1,35L83,34.2L83.4,33.6L83.4,33.6z M83.6,34.5l0.3,0.7l0.7-0.2l0.4-0.5l0.3-0.6l-0.1-0.6l-0.7,0.2l-0.5,0.5
	L83.6,34.5z M81.6,30.4l0.7-0.1l0.7,0.2l0.7,0.3l0,0.7l-0.6,0.1L83,30.9l-0.5-0.4l-0.7,0.2l0,0.8l0.2,0.8l0,0.8l-0.5,0.6l-0.8,0.2
	l-0.8-0.3l-0.3-0.7l0.4-0.4l0.1,0.7l0.8,0.3l0.3-0.9l-0.3-0.8l0-0.8L81.6,30.4L81.6,30.4z M78.2,31.3l0.7-0.6l0.7-0.5l0.8-0.3
	L80,30.7l-0.7,0.6l-0.7,0.6l-0.7,0.6l-0.8,0.6l-0.8-0.2l0.5-0.6l0.7-0.5L78.2,31.3L78.2,31.3z M81.3,28.9l0.6,0.1l-0.4,0.6l-0.6-0.1
	L81.3,28.9L81.3,28.9z M77,29.6l0.8-0.4l0.8-0.3l0.8-0.2l-0.6,0.6l-0.8,0.5l-0.8,0.5l-0.8,0.5l-0.9,0.4l-0.7-0.3l0.6-0.5l0.7-0.4
	L77,29.6L77,29.6z M80.5,27.8L81,28l-0.5,0.5L80,28.3L80.5,27.8L80.5,27.8z M76.1,27.8l0.9-0.3l0.9-0.2l0.9,0L78,27.8l-0.9,0.4
	l-0.9,0.3l-0.9,0.3l-0.9,0.3l-0.6-0.4l0.7-0.4l0.8-0.3L76.1,27.8L76.1,27.8z M79.8,26.6l0.5,0.3l-0.6,0.4L79.2,27L79.8,26.6
	L79.8,26.6z"/>
<path id="postage_stamp_1_" class="st5" d="M98,132.2l-0.2-1c-0.8,0.2-1.6-0.3-1.8-1.1c-0.2-0.8,0.3-1.6,1.2-1.7l-0.2-1
	c-0.8,0.2-1.6-0.3-1.8-1.1c-0.2-0.8,0.3-1.6,1.2-1.7l-0.2-1c-0.8,0.2-1.6-0.3-1.8-1.1s0.3-1.6,1.2-1.7l-0.2-1
	c-0.8,0.2-1.6-0.3-1.8-1.1s0.3-1.6,1.2-1.7l-0.2-1c-0.8,0.2-1.6-0.3-1.8-1.1c-0.2-0.8,0.3-1.6,1.2-1.7l-0.2-1
	c-0.8,0.2-1.6-0.3-1.8-1.1l-1,0.2c0.2,0.8-0.3,1.6-1.1,1.8c-0.8,0.2-1.6-0.3-1.7-1.2l-1,0.2c0.2,0.8-0.3,1.6-1.1,1.8
	c-0.8,0.2-1.6-0.3-1.7-1.2l-1,0.2c0.2,0.8-0.3,1.6-1.1,1.8c-0.8,0.2-1.6-0.3-1.7-1.2l-1,0.2c0.2,0.8-0.3,1.6-1.1,1.8
	c-0.8,0.2-1.6-0.3-1.7-1.2l-1,0.2c0.2,0.8-0.3,1.6-1.1,1.8l0.2,1c0.8-0.2,1.6,0.3,1.8,1.1c0.2,0.8-0.3,1.6-1.2,1.7l0.2,1
	c0.8-0.2,1.6,0.3,1.8,1.1c0.2,0.8-0.3,1.6-1.2,1.7l0.2,1c0.8-0.2,1.6,0.3,1.8,1.1c0.2,0.8-0.3,1.6-1.2,1.7l0.2,1
	c0.8-0.2,1.6,0.3,1.8,1.1c0.2,0.8-0.3,1.6-1.2,1.7l0.2,1c0.8-0.2,1.6,0.3,1.8,1.1c0.2,0.8-0.3,1.6-1.2,1.7l0.2,1
	c0.8-0.2,1.6,0.3,1.8,1.1l1-0.2c-0.2-0.8,0.3-1.6,1.1-1.8c0.8-0.2,1.6,0.3,1.7,1.2l1-0.2c-0.2-0.8,0.3-1.6,1.1-1.8
	c0.8-0.2,1.6,0.3,1.7,1.2l1-0.2c-0.2-0.8,0.3-1.6,1.1-1.8c0.8-0.2,1.6,0.3,1.7,1.2l1-0.2c-0.2-0.8,0.3-1.6,1.1-1.8
	c0.8-0.2,1.6,0.3,1.7,1.2l1-0.2C96.6,133.2,97.1,132.4,98,132.2z"/>
<path id="postage_stamp" class="st6" d="M97.7,132.3l-0.2-1c-0.8,0.2-1.6-0.3-1.8-1.1c-0.2-0.8,0.3-1.6,1.2-1.7l-0.2-1
	c-0.8,0.2-1.6-0.3-1.8-1.1c-0.2-0.8,0.3-1.6,1.2-1.7l-0.2-1c-0.8,0.2-1.6-0.3-1.8-1.1c-0.2-0.8,0.3-1.6,1.2-1.7l-0.2-1
	c-0.8,0.2-1.6-0.3-1.8-1.1c-0.2-0.8,0.3-1.6,1.2-1.7l-0.2-1c-0.8,0.2-1.6-0.3-1.8-1.1c-0.2-0.8,0.3-1.6,1.2-1.7l-0.2-1
	c-0.8,0.2-1.6-0.3-1.8-1.1l-1,0.2c0.2,0.8-0.3,1.6-1.1,1.8c-0.8,0.2-1.6-0.3-1.7-1.2l-1,0.2c0.2,0.8-0.3,1.6-1.1,1.8
	c-0.8,0.2-1.6-0.3-1.7-1.2l-1,0.2c0.2,0.8-0.3,1.6-1.1,1.8c-0.8,0.2-1.6-0.3-1.7-1.2l-1,0.2c0.2,0.8-0.3,1.6-1.1,1.8
	c-0.8,0.2-1.6-0.3-1.7-1.2l-1,0.2c0.2,0.8-0.3,1.6-1.1,1.8l0.2,1c0.8-0.2,1.6,0.3,1.8,1.1c0.2,0.8-0.3,1.6-1.2,1.7l0.2,1
	c0.8-0.2,1.6,0.3,1.8,1.1c0.2,0.8-0.3,1.6-1.2,1.7l0.2,1c0.8-0.2,1.6,0.3,1.8,1.1c0.2,0.8-0.3,1.6-1.2,1.7l0.2,1
	c0.8-0.2,1.6,0.3,1.8,1.1c0.2,0.8-0.3,1.6-1.2,1.7l0.2,1c0.8-0.2,1.6,0.3,1.8,1.1c0.2,0.8-0.3,1.6-1.2,1.7l0.2,1
	c0.8-0.2,1.6,0.3,1.8,1.1l1-0.2c-0.2-0.8,0.3-1.6,1.1-1.8c0.8-0.2,1.6,0.3,1.7,1.2l1-0.2c-0.2-0.8,0.3-1.6,1.1-1.8
	c0.8-0.2,1.6,0.3,1.7,1.2l1-0.2c-0.2-0.8,0.3-1.6,1.1-1.8c0.8-0.2,1.6,0.3,1.7,1.2l1-0.2c-0.2-0.8,0.3-1.6,1.1-1.8
	c0.8-0.2,1.6,0.3,1.7,1.2l1-0.2C96.4,133.3,96.9,132.5,97.7,132.3z"/>
<rect id="postage_stamp_background_1" x="77.6" y="114.3" transform="matrix(0.9752 -0.2214 0.2214 0.9752 -25.3988 22.0593)" class="rpl7-1" width="16.1" height="20"/>
<path id="Sity_silhouette" d="M93.2,128.2l0.6-0.1l0.1,0.6l-0.6,0.1L93.2,128.2z M92.4,129.1l0.6-0.1l-0.1-0.6l-0.6,0.1L92.4,129.1z
	 M91.4,129.3l0.6-0.1l-0.1-0.6l-0.6,0.1L91.4,129.3z M90.4,129.5l0.6-0.1l-0.1-0.6l-0.6,0.1L90.4,129.5z M93.6,129.9l0.6-0.1
	l-0.1-0.6l-0.6,0.1L93.6,129.9z M92.6,130.1l0.6-0.1l-0.1-0.6l-0.6,0.1L92.6,130.1z M91.6,130.3l0.6-0.1l-0.1-0.6l-0.6,0.1
	L91.6,130.3z M90.7,130.5l0.6-0.1l-0.1-0.6l-0.6,0.1L90.7,130.5z M93.8,130.9l0.6-0.1l-0.1-0.6l-0.6,0.1L93.8,130.9z M92.8,131.1
	l0.6-0.1l-0.1-0.6l-0.6,0.1L92.8,131.1z M91.9,131.3l0.6-0.1l-0.1-0.6l-0.6,0.1L91.9,131.3z M90.9,131.5l0.6-0.1l-0.1-0.6l-0.6,0.1
	L90.9,131.5z M94,131.9l0.6-0.1l-0.1-0.6l-0.6,0.1L94,131.9z M93.1,132.1l0.6-0.1l-0.1-0.6l-0.6,0.1L93.1,132.1z M92.1,132.4
	l0.6-0.1l-0.1-0.6l-0.6,0.1L92.1,132.4z M91.1,132.6l0.6-0.1l-0.1-0.6l-0.6,0.1L91.1,132.6z M92.8,121l1.5,6.4l0,0.2l1.1,4.8l-5,1.1
	l-0.5,0.1l-0.6,0.1l-0.6,0.1l-3.3,0.7l-5.1,1.1l-3.9-17.4l5.1-1.1l2.2,9.6l3.9-0.9l0.5,2.3l0.5-0.4l0.4,1.8l0.5-0.1l-0.4-1.8l1-0.1
	l-1.3-5.8l0,0l1.2-3.8l-0.4-1.6l0.1,0l0.4,1.6L92.8,121L92.8,121z M77.4,119.8l2.4-0.5l-0.1-0.6l-2.4,0.5L77.4,119.8z M79.8,120.4
	l0.1,0.6l0.3-0.1l-0.1-0.6L79.8,120.4z M79.5,120.2l-0.1-0.6l-0.6,0.1l0.1,0.6L79.5,120.2z M79,120.6l0.1,0.6l0.3-0.1l-0.1-0.6
	L79,120.6z M79.5,121.1l0.3-0.1l-0.1-0.6l-0.3,0.1L79.5,121.1z M77.6,120.6l1.1-0.2l-0.1-0.6l-1.1,0.2L77.6,120.6z M77.7,121.5
	l1.1-0.2l-0.1-0.6l-1.1,0.2L77.7,121.5z M78.3,123.9l1.1-0.2l0.2-0.1l0.5-0.1l0.6-0.1l-0.1-0.6L80,123l-0.5,0.1l-0.2,0.1l-1.1,0.2
	L78.3,123.9z M80.3,124.3L80.3,124.3l0-0.6l-0.1,0l-0.5,0.1l0,0l0.1,0.6l0,0L80.3,124.3z M79.9,124.7l0.1,0.6l0.3-0.1l-0.1-0.6
	L79.9,124.7z M80.4,125.2l0.3-0.1l-0.1-0.6l-0.3,0.1L80.4,125.2z M78.5,124.8l1.1-0.2l0,0l-0.1-0.6l0,0l-1.1,0.2L78.5,124.8z
	 M78.7,125.6l1.1-0.2l0,0l-0.1-0.6l0,0l-1.1,0.2L78.7,125.6z M79,127.2l1.1-0.2l-0.1-0.6l-1.1,0.2L79,127.2z M79.2,128.1l1.1-0.2
	l-0.1-0.6l-1.1,0.2L79.2,128.1z M79.4,128.9l1.1-0.2l0,0l-0.1-0.6l0,0l-1.1,0.2L79.4,128.9z M79.6,129.7l1.1-0.2l-0.1-0.6l-1.1,0.2
	L79.6,129.7z M81.3,132.2l-1.1,0.2l0.1,0.6l1.1-0.2L81.3,132.2z M80.9,130.6l-1.1,0.2l0.1,0.6l1.1-0.2L80.9,130.6z M84.4,132.4
	l-2.7,0.6l0.1,0.6l2.7-0.6L84.4,132.4z M82.2,132.6l-0.1-0.6l-0.5,0.1l0.1,0.6L82.2,132.6z M83.6,132.3l-0.1-0.6l-1.1,0.2l0.1,0.6
	L83.6,132.3z M84.2,131.6l-0.5,0.1l0.1,0.6l0.5-0.1L84.2,131.6z M84,130.8l-2.7,0.6l0.1,0.6l2.7-0.6L84,130.8z M81.8,131l-0.1-0.6
	l-0.5,0.1l0.1,0.6L81.8,131z M83.2,130.7l-0.1-0.6l-1.1,0.2l0.1,0.6L83.2,130.7z M83.9,129.9l-0.5,0.1l0.1,0.6l0.5-0.1L83.9,129.9z
	 M83.7,129.1l-3.1,0.7l0.1,0.6l3.1-0.7L83.7,129.1z M80.6,128.1l0.1,0.6l0,0l0.5-0.1l0,0l-0.1-0.6l0,0L80.6,128.1L80.6,128.1z
	 M80.9,126.8l-0.1-0.6l-0.5,0.1l0.1,0.6L80.9,126.8z M83.5,128.3l-1.9,0.4l-0.8,0.2l0.1,0.6l0.8-0.2l1.9-0.4L83.5,128.3z
	 M83.3,127.4l-0.5,0.1l-0.2,0.1l-0.3,0.1l-0.8,0.2l0.1,0.6l0.8-0.2l0.3-0.1l0.2-0.1l0.5-0.1L83.3,127.4z M83.1,126.6l-1.1,0.2
	l-1.1,0.2l-0.5,0.1l0,0l0.1,0.6l0,0l0.5-0.1l1.1-0.2l1.1-0.2L83.1,126.6z M82.9,125.8l-0.5,0.1l-0.2,0.1l-1.1,0.2l0,0l0.1,0.6l0,0
	l1.1-0.2l0.2-0.1l0.5-0.1L82.9,125.8z M82.7,125l-2.7,0.6l-0.4,0.1l0.1,0.6l0.4-0.1l2.7-0.6L82.7,125z M82.6,124.1l-1.1,0.2
	l-0.5,0.1l-0.3,0.1l0,0l0.1,0.6l0,0l0.3-0.1l0.5-0.1l1.1-0.2L82.6,124.1z M82.4,123.3l-1.1,0.2l0.1,0.6l1.1-0.2L82.4,123.3z
	 M82.2,122.5l-1.1,0.2l0.1,0.6l1.1-0.2L82.2,122.5z M82,121.7l-1.8,0.4l0.1,0.6l1.8-0.4L82,121.7z M81.8,120.8l-2.7,0.6l0.1,0.6
	l2.7-0.6L81.8,120.8z M81.6,120l-1.1,0.2l0.1,0.6l1.1-0.2L81.6,120z M81.4,119.2l-1.1,0.2l0.1,0.6l1.1-0.2L81.4,119.2z M81.2,118.3
	l-1.1,0.2l0.1,0.6l1.1-0.2L81.2,118.3z M85.3,130.7l-0.3,0.1l0.1,0.6l0.3-0.1L85.3,130.7z M84.9,129.1l-0.3,0.1l0.1,0.6l0.3-0.1
	L84.9,129.1z M84.6,127.5l-0.3,0.1l0.1,0.6l0.3-0.1L84.6,127.5z M85.8,130.5l-0.3,0.1l0.1,0.6l0.3-0.1L85.8,130.5z M85.5,128.9
	l-0.3,0.1l0.1,0.6l0.3-0.1L85.5,128.9z M85.1,127.3l-0.3,0.1l0.1,0.6l0.3-0.1L85.1,127.3z M86.4,130.4l-0.3,0.1l0.1,0.6l0.3-0.1
	L86.4,130.4z M86,128.8l-0.3,0.1l0.1,0.6l0.3-0.1L86,128.8z M85.6,127.2l-0.3,0.1l0.1,0.6l0.3-0.1L85.6,127.2z M86.9,130.3l-0.3,0.1
	l0.1,0.6l0.3-0.1L86.9,130.3z M86.5,128.7l-0.3,0.1l0.1,0.6l0.3-0.1L86.5,128.7z M86.2,127.1l-0.3,0.1l0.1,0.6l0.3-0.1L86.2,127.1z
	 M92.2,122.9l0.5-0.1l-0.1-0.7l-0.5,0.1L92.2,122.9z M92.5,124l0.5-0.1l-0.1-0.7l-0.5,0.1L92.5,124z M93,126.4l0.5-0.1l-0.1-0.7
	l-0.5,0.1L93,126.4z M91.6,124.2l0.5-0.1l-0.1-0.7l-0.5,0.1L91.6,124.2z M91.9,125.4l0.5-0.1l-0.1-0.7l-0.5,0.1L91.9,125.4z
	 M90.5,123.2l0.5-0.1l-0.1-0.7l-0.5,0.1L90.5,123.2z M91.3,126.8l0.5-0.1l-0.1-0.7l-0.5,0.1L91.3,126.8z M90,124.6l0.5-0.1l-0.1-0.7
	l-0.5,0.1L90,124.6z M90.2,125.8l0.5-0.1l-0.1-0.7l-0.5,0.1L90.2,125.8z M94,127.8l-4.5,0.2l1.2,5.2l4.4-1L94,127.8z"/>
<text id="text1" transform="matrix(1 0 0 1 135.182 145.7719)" class="st8 st9 editable">Happy birthday!</text>
<text id="text2" transform="matrix(1 0 0 1 135.3642 162.5239)" class="st10 st8 st9 editable">My friend.</text>
<rect id="text_background_left" class="svgRibbon" width="56.7" height="170.1"/>
<rect id="text_background_right" x="215.4" class="svgRibbon" width="56.7" height="170.1"/>
<rect id="Button_Stripe" y="170.1" class="rpl12-1" width="272.1" height="14.2"/>
<text id="product" transform="matrix(1 0 0 1 134.1599 179.5623)" class="st13 st8 st14 svgProduct">Product name</text>
<text id="quantity" transform="matrix(1 0 0 1 6.4882 179.7678)" class="st13 st8 st15">30 ml</text>
<g>
	
		<image style="overflow:visible;" width="28" height="28" id="Icon1" class="st16" transform="matrix(0.3165 0 0 0.3165 258.8356 172.5474)">
	</image>
	
		<image style="overflow:visible;" width="28" height="28" id="Icon2" class="st16" transform="matrix(0.3165 0 0 0.3165 247.7487 172.5474)">
	</image>
	
		<image style="overflow:visible;" width="28" height="28" id="Icon3" class="st16" transform="matrix(0.3165 0 0 0.3165 236.6617 172.5474)">
	</image>
	
		<image style="overflow:visible;" width="28" height="28" id="Icon4" class="st16" transform="matrix(0.3165 0 0 0.3165 214.4878 172.5474)">
	</image>
	
		<image style="overflow:visible;" width="28" height="28" id="Icon5" class="st16" transform="matrix(0.3165 0 0 0.3165 225.5748 172.5474)">
	</image>
</g>
</svg>
