<?xml version="1.0" encoding="utf-8"?>
<svg version="1.1" id="Layer_1"  data-color-numbers="3" xmlns="http://www.w3.org/2000/svg" xmlns:xlink="http://www.w3.org/1999/xlink" x="0px" y="0px"
	 viewBox="0 0 425.2 354.3" style="enable-background:new 0 0 425.2 354.3;" xml:space="preserve">
<style type="text/css">
  <![CDATA[
  @font-face {
        font-family: "DevroyeUnicode";
        src: url("/Content/fonts/DEVROYUN.ttf") format("truetype");
  }
	.rpl0-1{fill:#E5CCCF;}
  .rpl0-2{fill:#db5c87;}
  .rpl0-3{fill:#b2b1d9;}
	.rpl1-1{fill:#DB804A;}
  .rpl1-2{fill:#fbd6db;}
  .rpl1-3{fill:#69539c;}
	.rpl2-1{fill:#7F000F;}
  .rpl2-2{fill:#801d7f;}
  .rpl2-3{fill:#f26422;}
	.st3{fill:#479335;}
	.st4{fill:#1D590C;}
	.st5{fill:#5FB247;}
	.st6{fill:#840000;}
	.st7{fill:#ED1818;}
	.st8{fill:#490000;}
	.st9{fill:#BC0000;}
	.rpl10-1{fill:#99333F;}
  .rpl10-2{fill:#a967aa;}
  .rpl10-3{fill:#f9a01b;}
	.st12{fill:#C998D1;}
	.rpl13-1{fill:#A33474;}
  .rpl13-2{fill:#b20044;}
  .rpl13-3{fill:#406325;}
	.st14{fill:#FFFFFF;}
	.st15{font-family:'DevroyeUnicode';}
	.st16{font-size:12px;}
	.st17{font-size:13px;}
  .st18{fill:#FFFFFF;}
  .editable{text-anchor: middle;}
  .svgProduct{text-anchor: middle;}
  .svgRibbon{visibility:hidden; opacity:0.6;fill:#FFFFFF;}
 ]]>
</style>
<image style="overflow:visible;" width="540" height="760" id="editableImg" xlink:href="/Content/img/cat.jpg"  transform="matrix(0.359 0 0 0.359 127.9977 42.7862)">
</image>
<path id="Background" class="rpl0-1" d="M0,0v354.3h425.2V0H0z M291.8,266.1c0,26.4-21.6,48-48,48h-62.5c-26.4,0-48-21.6-48-48V108
	c0-26.4,21.6-48,48-48h62.5c26.4,0,48,21.6,48,48V266.1z"/>
<path id="Pattern" class="rpl1-1" d="M395.5,259.8l21.5,16.4l-57.6,45.7l-11.1-24.7l19.8-15.7l1.7,2.2c1,1.3,2.9,1.5,4.2,0.5l2.9-2.3
	c1.3-1,1.5-2.9,0.5-4.2l-1.7-2.2L395.5,259.8z M367.1,280.3l-19.5,15.5l-7.2-16l5.8-4.6l-3.4-4.3c-1.8-2.2-1.4-5.5,0.8-7.2
	l20.3-16.1c2.2-1.8,5.5-1.4,7.2,0.8l3.4,4.3l5.8-4.6l14,10.7l-19.5,15.5l-0.8-1c-1-1.3-2.9-1.5-4.2-0.5l-2.9,2.3
	c-1.3,1-1.5,2.9-0.5,4.2L367.1,280.3z M348.2,273.6l24.3-19.3l-3.4-4.3c-0.9-1.1-2.5-1.3-3.6-0.4l-20.3,16.1
	c-1.1,0.9-1.3,2.5-0.4,3.6L348.2,273.6z M373.7,274.4l-0.4-0.5c-0.7-0.9-2.1-1.1-3-0.3l-2.9,2.3c-0.9,0.7-1.1,2.1-0.3,3l0.4,0.5
	l0.4,0.5l0.9,1.2l1.1,1.4l0.6,0.8c0.7,0.9,2.1,1.1,3,0.3l2.9-2.3c0.9-0.7,1.1-2.1,0.3-3l-0.6-0.8L375,276l-0.9-1.2L373.7,274.4z
	 M100.5,102.9c-0.8,1.5-2.6,2.1-4.1,1.3l-3.3-1.7c-1.5-0.8-2.1-2.6-1.3-4.1l1.3-2.5L70.6,84.4l-17.9,20.3l65.4,33.5l6.1-26.4
	l-22.5-11.5L100.5,102.9z M122,89.9l6.5,3.4l-3.9,17.1L102.4,99l0.6-1.1c0.8-1.5,0.2-3.3-1.3-4.1l-3.3-1.7c-1.5-0.8-3.3-0.2-4.1,1.3
	l-0.6,1.1L71.6,83.2L83.2,70l6.5,3.4l2.5-4.9c1.3-2.5,4.4-3.5,6.9-2.2l23.1,11.8c2.5,1.3,3.5,4.4,2.2,6.9L122,89.9z M119.7,88.7
	l2.5-4.9c0.6-1.3,0.1-2.8-1.1-3.5L98,68.6c-1.3-0.6-2.8-0.1-3.5,1.1l-2.5,4.9L119.7,88.7z M93.5,101.7l3.3,1.7
	c1,0.5,2.3,0.1,2.8-0.9l0.5-0.9l0.8-1.6l0.7-1.3l0.3-0.5l0.3-0.6c0.5-1,0.1-2.3-0.9-2.8L98,93c-1-0.5-2.3-0.1-2.8,0.9l-0.3,0.6
	L94.6,95l-0.7,1.3l-0.8,1.6l-0.5,0.9C92.1,99.9,92.5,101.1,93.5,101.7z M107.1,225.9c-1.6-0.8-6-3.7-6-3.7l0-3.6l1-1.9
	c0,0,0.1,0,0.1,0c0.3,0.1,0.5-0.1,0.6-0.4c0.2-0.2,0.2-0.7-0.1-0.8l0.6-1.2c0,0,0.1,0,0.1,0c0.3,0.1,0.5-0.1,0.6-0.4
	c0.2-0.2,0.2-0.6-0.1-0.8l0.6-1.2c0,0,0,0,0.1,0c0.3,0.1,0.5-0.1,0.6-0.4c0.2-0.2,0.2-0.6-0.1-0.8l0.6-1.2c0,0,0.1,0,0.1,0
	c0.3,0.1,0.5-0.1,0.6-0.4c0.2-0.2,0.2-0.6-0.1-0.8l0.1-0.2l0,0c0.1-0.2-1.7-1.3-4.1-2.5c-2.4-1.2-4.4-2-4.5-1.8c0,0,0,0,0,0.1
	l-1.1,2.3c-0.1,0-0.1,0-0.2,0c-0.3-0.1-0.5,0.1-0.6,0.4c-0.2,0.2-0.2,0.7,0.2,0.8l-0.6,1.2c-0.1,0-0.1,0-0.2,0
	c-0.3-0.1-0.5,0.1-0.6,0.4c-0.2,0.2-0.2,0.7,0.2,0.9l-0.6,1.2c-0.1,0-0.1,0-0.2,0c-0.3-0.1-0.5,0.1-0.6,0.4
	c-0.2,0.2-0.2,0.7,0.2,0.8l-0.6,1.2c0,0-0.1,0-0.1,0c-0.3-0.1-0.5,0.1-0.6,0.4c-0.2,0.2-0.2,0.6,0,0.8l-2.7,2c0,0-5-1.7-6.6-2.5
	c-1.6-0.8-2.6,1.3-2.6,1.3s-4.2,5.1-8.8,15.2c-4.6,10.1-7.6,18.5-7.6,18.5s-0.8,1.5,0.3,2.1c1.2,0.7,12.2,6.1,12.2,6.1
	s11,5.5,12.2,6.1c1.2,0.5,1.9-1,1.9-1s4.9-7.5,10.1-17.3c5.3-9.8,6.8-16.2,6.8-16.2S108.7,226.7,107.1,225.9z M116.9,151.1
	c-0.6-0.1-10.8-1.2-11.6-1.3c-0.7-0.1-0.7,0.6-0.7,0.6l-2.8,25.9c0,0,2.6,0.7,5.5,1.1l-1.3,12.1c0,0-0.4,3.9-0.8,6.2
	c-0.1,0.4-0.1,0.8-0.2,1.1l-0.8,3.1l0,0l-0.8,3.2c0,0,1.6,1.1,3.6,0.4c0-0.2,0-0.6,0-1.2c0,0,0-0.1,0-0.1c0-0.1,0-0.2,0-0.3
	c0-0.2,0-0.5,0-0.7c-0.1-2.3-0.1-5.3-0.1-5.3l0.1,0l2-18.3c2.9,0.2,5.6,0.1,5.6,0.1l2.8-25.9C117.5,151.8,117.6,151.2,116.9,151.1z
	 M371.7,122.7c0-0.2-0.2-0.4-0.6-0.4c0,0-0.1,0-0.1,0l-0.6-1.1c0.3-0.1,0.4-0.6,0.1-0.8c0-0.2-0.2-0.4-0.6-0.4c-0.1,0-0.1,0-0.2,0
	l-0.6-1.1c0.4-0.1,0.4-0.6,0.2-0.8c0-0.2-0.2-0.4-0.6-0.4c-0.1,0-0.1,0-0.2,0l-0.6-1.1c0.3-0.1,0.4-0.6,0.1-0.8
	c0-0.2-0.2-0.4-0.6-0.4c-0.1,0-0.1,0-0.2,0l-1.1-2.2c0,0,0,0,0,0c-0.1-0.2-2,0.6-4.3,1.7s-4,2.2-3.9,2.4l0,0l0.1,0.2
	c-0.3,0.2-0.3,0.6-0.1,0.8c0,0.2,0.2,0.4,0.6,0.4c0,0,0.1,0,0.1,0l0.6,1.2c-0.2,0.2-0.2,0.6-0.1,0.8c0,0.2,0.2,0.4,0.6,0.4
	c0,0,0,0,0.1,0l0.6,1.1c-0.3,0.2-0.3,0.6-0.1,0.8c0,0.2,0.2,0.4,0.6,0.4c0,0,0.1,0,0.1,0l0.6,1.1c-0.3,0.2-0.3,0.6-0.1,0.8
	c0,0.2,0.2,0.4,0.6,0.4c0,0,0.1,0,0.1,0l0.9,1.8l0,3.5c0,0-4.2,2.8-5.7,3.5c-1.5,0.8-0.5,2.8-0.5,2.8s1.5,6.1,6.5,15.5
	c5,9.4,9.7,16.6,9.7,16.6s0.7,1.5,1.8,1c1.2-0.5,11.7-5.8,11.7-5.8s10.6-5.2,11.7-5.8c1.1-0.6,0.3-2,0.3-2s-2.9-8.1-7.3-17.8
	c-4.4-9.7-8.4-14.6-8.4-14.6s-1-2-2.5-1.3c-1.5,0.8-6.3,2.4-6.3,2.4l-2.6-2C371.9,123.2,371.9,122.9,371.7,122.7z M359.2,61.5
	c-0.7,0.1-10.5,1.1-11.1,1.2c-0.6,0.1-0.5,0.7-0.5,0.7l2.7,24.9c0,0,2.6,0.1,5.4-0.1l1.9,17.6l0.1,0c0,0-0.1,2.9-0.1,5.1
	c0,0.2,0,0.5,0,0.7c0,0.1,0,0.2,0,0.3c0,0,0,0.1,0,0.1c0,0.5,0,0.9,0,1.1c2,0.6,3.5-0.4,3.5-0.4l-0.7-3.1l0,0l-0.7-3
	c-0.1-0.3-0.1-0.7-0.2-1.1c-0.3-2.2-0.7-6-0.7-6L357.3,88c2.8-0.4,5.2-1.1,5.2-1.1l-2.7-24.9C359.8,62.1,359.9,61.5,359.2,61.5z
	 M320.3,180.4l13.7-5.6c1.4-0.6,2-2.1,1.5-3.5l-7.2-17.7c-0.5-1.3-1.9-1.9-3.2-1.6L315,127.4l-2,0.8l-5.2-12.7c0,0-2.7-6-5.8-7
	c-0.5-0.2-1.1-0.2-1.6,0c-3.7,1.3-4.8,8.1-3.4,11.4c0,0,0,0.1,0,0.1c0.9,2.2,3.5,8.4,5.2,12.6l-1.6,0.6l10.1,24.6
	c-1.2,0.7-1.7,2.1-1.2,3.4l7.2,17.7C317.4,180.3,318.9,180.9,320.3,180.4z M31.5,293.6l1.2-26.3l-2.1-0.1l0.6-13.6
	c0,0,0.1-6.5-2.3-8.6c-0.4-0.4-0.9-0.6-1.5-0.7c-3.9-0.4-7.6,5.3-7.8,8.8c0,0,0,0.1,0,0.1c-0.1,2.4-0.4,9-0.6,13.5l-1.7-0.1
	l-1.2,26.3c-1.3,0.1-2.4,1.2-2.4,2.5l-0.8,18.8c-0.1,1.5,1.1,2.7,2.5,2.8l14.6,0.7c1.5,0.1,2.7-1.1,2.8-2.5l0.8-18.8
	C33.8,295,32.8,293.8,31.5,293.6z M29.8,17c1.3,2,4.9,7.6,7.3,11.3l-1.4,0.9l14.3,22c-1,0.9-1.3,2.3-0.5,3.5l10.3,15.8
	c0.8,1.2,2.5,1.6,3.7,0.8l12.3-8c1.2-0.8,1.6-2.5,0.8-3.7L66.4,43.8c-0.7-1.1-2.2-1.5-3.4-0.9l-14.3-22l-1.8,1.1l-7.4-11.4
	c0,0-3.7-5.3-6.9-5.7c-0.5-0.1-1.1,0-1.6,0.3C27.6,7.1,27.9,13.9,29.8,17C29.8,16.9,29.8,16.9,29.8,17z M49.7,226.4
	c-16.9,4.8-23-6.5-28.6-9.7c-1.2-0.7-1.9-1-1.6-1.2c4.2-3.1,7.3-13,12.4-14.5c5.1-1.5,7,0.4,10.4-0.6c3.4-1,4-3.6,9.1-5
	c5.1-1.5,12.4,4.9,18.3,5.5c0.3,0,0,0.4-0.5,1.4C66.4,207.3,67,221.4,49.7,226.4z M46.6,215.4c5.2-1.5,7.5-6.1,9.1-7.2
	c0.1-0.1,0.1-0.2,0.1-0.2c-1.2-0.1-3.8-1-6.1-0.3c-2.3,0.6-3.4,1.6-4.9,2c-1.5,0.4-2.5,0.1-4.8,0.8c-2.3,0.6-4,2.8-5,3.5
	c-0.1,0,0,0.1,0,0.1C37.2,214.4,41,217,46.6,215.4z M141.2,22.9c0.3,0,0,0.4-0.5,1.4c-2.7,5.1-2.1,19.2-19.4,24.2
	c-16.9,4.8-23-6.5-28.6-9.7c-1.2-0.7-1.9-1-1.6-1.2c4.2-3.1,7.3-13,12.4-14.5c5.1-1.5,7,0.4,10.4-0.6c3.4-1,4-3.6,9.1-5
	C128,15.9,135.3,22.3,141.2,22.9z M127.3,30.1c-1.2-0.1-3.8-1-6.1-0.3c-2.3,0.6-3.4,1.6-4.9,2c-1.5,0.4-2.5,0.1-4.8,0.8
	c-2.3,0.6-4,2.8-5,3.5c-0.1,0,0,0.1,0,0.1c2.1,0.2,6,2.9,11.6,1.3c5.2-1.5,7.5-6.1,9.1-7.2C127.4,30.2,127.4,30.1,127.3,30.1z
	 M296.8,61.4c-0.3-1.4-0.6-2.1-0.2-2c5.1,0.9,14.4-3.9,19-1.2c4.6,2.6,4.5,5.3,7.6,7c3.1,1.8,5.3,0.4,9.9,3c4.6,2.6,5.1,12.4,8.8,17
	c0.2,0.2-0.3,0.3-1.3,0.6c-5.5,1.6-15.2,11.9-30.9,2.9C294.5,80,298.4,67.8,296.8,61.4z M308.4,69.7c1.3,1.7,2.1,6.3,7.1,9.2
	c4.7,2.7,9.6,1.2,11.5,1.5c0.1,0,0.2,0,0.2-0.1c-0.7-0.9-1.9-3.4-4-4.6c-2-1.2-3.5-1.3-4.9-2.1c-1.4-0.8-1.8-1.7-3.9-2.9
	c-2-1.2-4.8-1-6-1.1C308.4,69.6,308.3,69.7,308.4,69.7z M410.6,219.2c-13.2,11.6-23.5,4-30,3.4c-1.4-0.1-2.1-0.1-2-0.5
	c2.5-4.6,1-14.9,5-18.4c4-3.5,6.5-2.6,9.1-4.9c2.7-2.3,2.1-4.9,6.1-8.4c4-3.5,13.3-0.9,18.9-2.8c0.2-0.1,0.2,0.4,0.1,1.4
	C417.5,194.8,424.2,207.3,410.6,219.2z M408.2,200c-1.1,0.4-3.8,0.7-5.6,2.3c-1.8,1.6-2.4,2.9-3.6,3.9c-1.2,1-2.2,1.2-4,2.7
	c-1.8,1.6-2.5,4.2-3,5.3c0,0.1,0,0.1,0.1,0.1c2-0.7,6.6,0.1,11-3.8c4.1-3.6,4.2-8.7,5.1-10.4C408.3,200.1,408.3,200,408.2,200z
	 M31.7,164.1c0,0,6.4-11.9,4.6-22.1c0,0-0.3-1.3-0.5-2.2c-0.5-1.5-1.1-2.9-2-4.2c-3.4-4.9-10-6.3-14.7-3c-2.5,1.7-3.9,4.4-4.3,7.2
	c-2.8-0.7-5.8-0.2-8.2,1.5c-4.7,3.3-5.7,9.9-2.3,14.8c0.9,1.3,2,2.4,3.3,3.4c0,0,1.1,0.8,1.8,1.2C18.3,166,31.7,164.1,31.7,164.1z
	 M342.7,242.7c1.1-1.1,2.1-2.3,2.8-3.8c2.8-5.3,1-11.8-4.1-14.4c-2.7-1.4-5.7-1.5-8.3-0.5c-0.7-2.8-2.4-5.2-5.1-6.6
	c-5.1-2.7-11.4-0.5-14.2,4.8c-0.8,1.4-1.2,2.9-1.5,4.5c0,0-0.2,1.4-0.2,2.2c-0.5,10.3,7.3,21.4,7.3,21.4s13.5,0.2,21.7-6.1
	C341,244.2,342.1,243.3,342.7,242.7z M385.7,32.5c0,0,0.7,1.2,1.2,1.9c6.1,8.4,19.1,12,19.1,12S416.6,38.1,419,28
	c0,0,0.3-1.3,0.4-2.2c0.2-1.5,0.1-3.1-0.2-4.7c-1.2-5.9-6.7-9.7-12.3-8.6c-2.9,0.6-5.3,2.4-6.8,4.9c-2.3-1.7-5.2-2.5-8.1-1.9
	c-5.6,1.1-9.2,6.8-8.1,12.7C384.3,29.7,384.9,31.2,385.7,32.5z M77,289.3c-2.7-1.4-5.7-1.5-8.3-0.5c-0.7-2.8-2.4-5.2-5.1-6.6
	c-5.1-2.7-11.4-0.5-14.2,4.8c-0.8,1.4-1.2,2.9-1.5,4.5c0,0-0.2,1.4-0.2,2.2C47.1,304,54.9,315,54.9,315s13.5,0.2,21.7-6.1
	c0,0,1.1-0.8,1.7-1.5c1.1-1.1,2.1-2.3,2.8-3.8C83.9,298.4,82.1,291.9,77,289.3z M183.4,11.3c-2.7-1.4-5.7-1.5-8.3-0.5
	c-0.7-2.8-2.4-5.2-5.1-6.6c-5.1-2.7-11.4-0.5-14.2,4.8c-0.8,1.4-1.2,2.9-1.5,4.5c0,0-0.2,1.4-0.2,2.2C153.4,26,161.2,37,161.2,37
	s13.5,0.2,21.7-6.1c0,0,1.1-0.8,1.7-1.5c1.1-1.1,2.1-2.3,2.8-3.8C190.3,20.4,188.4,14,183.4,11.3z M11.5,83.5L11.5,83.5l0,0.1
	c0,0,0,0,0,0.1l0,0l0,0.1c0,0.1,0.1,0.3,0.2,0.4c0.1,0.2,0.3,0.4,0.5,0.6c0.4,0.3,0.8,0.5,1.3,0.7c0.4,0.2,0.9,0.3,1.4,0.4
	c1.9,0.3,3.8,0.3,5.8,0.2c1-0.1,2-0.2,3-0.3c1-0.1,2-0.3,3.1-0.5c2-0.4,4.1-0.9,6.1-1.5c2-0.6,4-1.3,6-2.1c1-0.4,1.9-0.8,2.8-1.2
	c0.9-0.4,1.8-0.9,2.7-1.4c0.9-0.5,1.7-1,2.5-1.6c0.8-0.6,1.5-1.2,2.2-1.9c0.3-0.4,0.6-0.7,0.9-1.2c0.1-0.2,0.2-0.4,0.3-0.7
	c0.1-0.3,0.1-0.5,0.1-0.8c0,0,0-0.1,0-0.1l0-0.1c0-0.1,0-0.1,0-0.2l0,0c0,0,0-0.1,0,0l0,0l0-0.1c0-0.1-0.1-0.1-0.1-0.2
	c-0.1-0.2-0.3-0.4-0.5-0.6c-0.4-0.3-0.8-0.5-1.2-0.6c-0.8-0.3-1.6-0.4-2.3-0.4c-0.7-0.1-1.4-0.1-2.1,0c-1.3,0-2.4,0.2-3.3,0.3
	c-0.9,0.1-1.6,0.3-2.1,0.4c-0.2,0-0.4,0.1-0.6,0.1c-0.1,0-0.2,0-0.2,0s0.3,0,0.8-0.1c0.5,0,1.2-0.1,2.1-0.1c0.9,0,2-0.1,3.3,0
	c0.6,0,1.3,0.1,2,0.2c0.7,0.1,1.4,0.2,2.1,0.5c0.3,0.1,0.7,0.3,0.9,0.5c0.1,0.1,0.2,0.2,0.3,0.4c0,0,0,0.1,0,0.1l0,0l0,0l0,0
	c0,0,0,0.1,0,0.1c0,0,0,0,0,0v0.1c0,0.3-0.1,0.6-0.3,0.9c-0.2,0.3-0.5,0.6-0.8,0.9c-0.6,0.6-1.3,1.1-2.1,1.6c-0.8,0.5-1.6,1-2.4,1.4
	c-1.7,0.9-3.5,1.7-5.4,2.4c-1.9,0.7-3.9,1.4-5.9,2c-2,0.6-4,1.1-6,1.5c-1,0.2-2,0.4-3,0.6c-1,0.2-2,0.3-2.9,0.4
	c-1,0.1-1.9,0.2-2.8,0.2c-0.9,0-1.8,0-2.7-0.1c-0.4-0.1-0.8-0.1-1.2-0.3c-0.4-0.1-0.7-0.3-1-0.5c-0.1-0.1-0.2-0.2-0.3-0.3
	c0-0.1-0.1-0.1-0.1-0.2l0,0l0,0l0,0l0-0.1c0,0,0-0.1,0-0.1c0,0,0-0.1,0-0.1l0-0.1c0,0,0-0.1,0-0.1c0,0,0-0.1,0-0.1
	c0-0.2,0.1-0.3,0.2-0.5c0.1-0.3,0.4-0.6,0.6-0.9c0.2-0.3,0.5-0.5,0.7-0.8c0.5-0.5,1-0.9,1.5-1.3c1-0.7,2-1.3,2.7-1.8
	c0.8-0.5,1.4-0.8,1.9-1c0.4-0.2,0.7-0.4,0.7-0.4s-0.1,0-0.2,0.1c-0.1,0-0.3,0.1-0.5,0.2c-0.5,0.2-1.1,0.5-2,0.9
	c-0.8,0.4-1.8,0.9-2.9,1.6c-0.5,0.3-1.1,0.7-1.7,1.2c-0.3,0.2-0.6,0.5-0.8,0.8c-0.3,0.3-0.5,0.6-0.7,1c-0.1,0.2-0.2,0.4-0.3,0.6
	c0,0.1,0,0.1,0,0.2c0,0.1,0,0.1,0,0.2c0,0.1,0,0.1,0,0.2C11.5,83.3,11.5,83.4,11.5,83.5C11.5,83.5,11.5,83.5,11.5,83.5z M48.2,79.1
	c0.2-0.7,0.4-1.3,0.7-1.9c0.3-0.5,0.5-1,0.8-1.3c0.2-0.4,0.5-0.6,0.6-0.8c0.2-0.2,0.2-0.3,0.2-0.3s-0.1,0.1-0.2,0.3
	c-0.2,0.2-0.4,0.4-0.6,0.8c-0.3,0.3-0.5,0.8-0.8,1.3c-0.3,0.5-0.5,1.2-0.8,1.9c-0.2,0.7-0.4,1.5-0.5,2.3c-0.1,0.8-0.2,1.7-0.3,2.6
	c0,0.9-0.1,1.9-0.1,2.8c0,1,0,1.9-0.1,2.9c0,0.5-0.1,1-0.2,1.4c-0.1,0.5-0.2,0.9-0.4,1.3c0,0.1-0.1,0.2-0.1,0.3
	c-0.1,0.1-0.1,0.2-0.2,0.3c-0.1,0.2-0.2,0.4-0.4,0.5c-0.3,0.4-0.6,0.7-0.9,1c-0.6,0.6-1.2,1.1-2,1.6c-4.1,3.2-11.7,3.7-12.5,3.6
	c-0.8,0-1.7-0.1-2.5-0.3c-0.4-0.1-0.9-0.2-1.3-0.4c-0.2-0.1-0.4-0.2-0.6-0.3c-0.1,0-0.2-0.1-0.3-0.2c-0.1-0.1-0.2-0.1-0.3-0.2
	c-0.4-0.2-0.7-0.6-1-0.9c-0.3-0.3-0.6-0.7-0.9-1.1c-0.6-0.8-1.1-1.6-1.6-2.4c-0.5-0.8-1-1.6-1.6-2.3c-0.5-0.7-1.1-1.5-1.6-2.1
	c-0.6-0.6-1.1-1.2-1.7-1.7c-0.6-0.5-1.1-0.9-1.6-1.2c-0.5-0.3-1-0.5-1.4-0.7c-0.4-0.1-0.7-0.2-0.9-0.3c-0.2-0.1-0.3-0.1-0.3-0.1
	s0.1,0,0.3,0.1c0.2,0.1,0.5,0.2,0.9,0.3c0.4,0.2,0.9,0.4,1.4,0.7c0.5,0.3,1,0.7,1.6,1.2c0.5,0.5,1.1,1.1,1.6,1.7
	c0.5,0.6,1,1.4,1.5,2.1c0.5,0.8,1,1.6,1.5,2.4c0.5,0.8,1,1.7,1.5,2.5c0.3,0.4,0.6,0.8,0.9,1.2c0.3,0.4,0.7,0.8,1.1,1.1
	c0.1,0.1,0.2,0.2,0.3,0.2c0.1,0.1,0.2,0.1,0.3,0.2c0.2,0.1,0.5,0.2,0.7,0.3c0.5,0.2,0.9,0.3,1.4,0.5c0.9,0.2,1.8,0.4,2.7,0.5
	c0.9,0.1,7.5,0,13.2-3.9c0.7-0.5,1.4-1.1,2-1.8c0.3-0.3,0.6-0.7,0.9-1.1c0.1-0.2,0.3-0.4,0.4-0.6c0.1-0.1,0.1-0.2,0.2-0.3
	c0.1-0.1,0.1-0.2,0.2-0.4c0.2-0.5,0.3-1,0.3-1.5c0.1-0.5,0.1-1,0.1-1.5c0-1,0-2,0-2.9c0-1-0.1-1.9-0.1-2.8c0-0.9,0-1.8,0.1-2.6
	C47.9,80.6,48,79.8,48.2,79.1z M17,80c-0.5,0.3-0.9,0.6-1.3,1c-0.4,0.4-0.8,0.8-1.1,1.3c-0.1,0.2-0.2,0.5-0.3,0.8c0,0.1,0,0.1,0,0.2
	c0,0.1,0,0.2,0,0.2c0,0.1,0.1,0.3,0.2,0.4c0.2,0.2,0.5,0.4,0.7,0.5c0.3,0.1,0.5,0.2,0.8,0.2c0.5,0.1,1.1,0.1,1.7,0.1
	c0.5,0,1.1,0,1.6-0.1c1.1-0.1,2.2-0.3,3.3-0.4c1.1-0.2,2.2-0.4,3.2-0.6c0.9-0.2,1.8-0.4,2.8-0.6c0.3-0.1,0.4-0.1,0.4-0.1l5.1-1.5
	c0,0,0.2-0.1,0.4-0.2c1.1-0.4,2.3-0.8,3.4-1.3c1.3-0.5,2.5-1,3.7-1.5c0.6-0.3,1.2-0.6,1.8-0.9c0.6-0.3,1.2-0.6,1.8-0.9
	c0.6-0.3,1.2-0.7,1.7-1.1c0.3-0.2,0.5-0.4,0.8-0.7c0.1-0.1,0.2-0.3,0.3-0.4c0.1-0.2,0.1-0.4,0.1-0.6l0,0l0,0
	c-0.1-0.3-0.3-0.6-0.5-0.7c-0.2-0.2-0.5-0.3-0.8-0.4c-0.5-0.2-1.1-0.3-1.6-0.3c-1.1-0.1-2.2,0-3.3,0c-1.1,0.1-2.2,0.2-3.3,0.4
	c-1.1,0.2-2.2,0.4-3.2,0.6c-2.1,0.5-4.3,1-6.4,1.6c-2.1,0.6-4.2,1.3-6.2,2.1c-1,0.4-2,0.8-3,1.3C18.9,78.9,17.9,79.4,17,80z
	 M48.2,88.6c0,0.1,0.1,0.2,0.2,0.2c0.1,0.1,0.1,0.2,0.2,0.2l0.1,0.1c0,0,0.1,0.1,0.1,0.1l0.1,0.1l0.1,0l0,0l0,0l0,0l0,0
	c0.1,0,0.2,0,0.3,0.1c0.2,0,0.4,0,0.6-0.1c0.4-0.1,0.8-0.4,1.1-0.6c0.7-0.5,1.4-1.2,2-1.9c0.6-0.7,1.2-1.6,1.6-2.4
	c0.5-0.9,0.9-1.8,1.1-2.8c0.1-0.5,0.1-1.1,0-1.6c0-0.1,0-0.1-0.1-0.2l0-0.1c0,0,0-0.1,0-0.1l-0.1-0.2c0-0.1-0.1-0.1-0.1-0.2
	c-0.1-0.2-0.3-0.4-0.5-0.6c-0.2-0.2-0.4-0.3-0.7-0.5c-0.2-0.1-0.5-0.2-0.7-0.3c-0.3-0.1-0.5-0.1-0.8-0.1c-0.3,0-0.5,0-0.7,0
	c-0.5,0.1-0.9,0.2-1.4,0.3c-0.4,0.2-0.9,0.3-1.2,0.6c-0.1,0.1-0.2,0.1-0.3,0.2c-0.1,0.1-0.2,0.1-0.3,0.2c-0.2,0.2-0.3,0.3-0.4,0.5
	c-0.2,0.4-0.4,0.8-0.4,1.1c-0.1,0.4-0.1,0.8,0,1.1c0.1,0.4,0.2,0.7,0.5,0.9c0.1,0.1,0.3,0.2,0.4,0.2c0.1,0,0.3,0.1,0.4,0.1
	c0.3,0,0.5,0,0.7-0.2c0.2-0.1,0.3-0.3,0.4-0.4c0.1-0.1,0.2-0.3,0.2-0.4c0.1-0.2,0.1-0.3,0.1-0.3s0,0.1-0.1,0.3
	c-0.1,0.1-0.1,0.2-0.2,0.4c-0.1,0.1-0.2,0.3-0.4,0.4c-0.2,0.1-0.4,0.1-0.7,0.1c-0.1,0-0.3-0.1-0.4-0.1c-0.1,0-0.2-0.1-0.3-0.2
	c-0.2-0.2-0.3-0.5-0.4-0.8c0-0.3,0-0.7,0-1c0.2-0.7,0.5-1.4,1.3-1.8c0.4-0.2,0.8-0.4,1.2-0.5c0.4-0.1,0.9-0.2,1.3-0.3
	c0.2,0,0.5,0,0.7,0c0.2,0,0.5,0,0.7,0.1c0.4,0.1,0.9,0.3,1.2,0.6c0.2,0.2,0.3,0.3,0.4,0.5c0,0.1,0.1,0.1,0.1,0.2l0.1,0.2
	c0,0,0,0.1,0,0.1l0,0.1c0,0.1,0,0.1,0,0.2c0.1,0.4,0.1,0.9,0,1.4c-0.2,1-0.6,1.9-1,2.7c-0.5,0.9-1,1.7-1.6,2.4
	c-0.6,0.7-1.2,1.4-1.8,1.9c-0.3,0.3-0.7,0.5-1,0.6c-0.2,0.1-0.4,0.1-0.5,0.1c-0.1,0-0.2,0-0.3,0l0,0l-0.1,0L49,89c0,0,0,0-0.1,0l0,0
	l-0.1-0.1c-0.1,0-0.1-0.1-0.2-0.2c0-0.1-0.1-0.1-0.1-0.2c0-0.1-0.1-0.1-0.1-0.2c-0.1-0.3-0.1-0.6-0.1-0.9c0.1-0.3,0.2-0.6,0.3-0.8
	c0.1-0.1,0.2-0.2,0.2-0.3c0.1,0,0.1-0.1,0.2-0.1c0.1,0,0.1,0,0.2,0c0.2,0,0.4,0,0.6,0.1c0.2,0.1,0.3,0.2,0.4,0.2
	c0.2,0.2,0.2,0.3,0.2,0.3s-0.1-0.1-0.2-0.3c-0.1-0.1-0.2-0.2-0.3-0.3c-0.2-0.1-0.4-0.1-0.6-0.1c-0.1,0-0.1,0-0.2,0
	c-0.1,0-0.1,0-0.2,0.1c-0.1,0.1-0.2,0.2-0.3,0.3c-0.2,0.2-0.3,0.5-0.4,0.8c-0.1,0.3-0.1,0.7,0,1C48.1,88.4,48.2,88.5,48.2,88.6z
	 M54.5,82.7c-0.2,0.4-0.3,0.7-0.5,1.1c-0.2,0.3-0.4,0.7-0.6,1c-0.4,0.6-0.8,1.2-1.1,1.7c-0.3,0.5-0.6,0.9-0.9,1.2
	c-0.2,0.3-0.3,0.4-0.3,0.4s0.1-0.1,0.4-0.4c0.2-0.3,0.6-0.6,0.9-1.1c0.4-0.5,0.8-1,1.2-1.7c0.2-0.3,0.4-0.6,0.6-1
	c0.2-0.3,0.4-0.7,0.6-1.1c0.2-0.4,0.3-0.7,0.4-1.1c0.1-0.4,0.2-0.8,0.2-1.2c0-0.4-0.1-0.8-0.2-1.1c-0.2-0.3-0.4-0.6-0.7-0.8
	c-0.3-0.2-0.5-0.3-0.8-0.3c-0.2-0.1-0.5-0.1-0.6-0.1c-0.2,0-0.3,0-0.4,0c-0.1,0-0.1,0-0.1,0s0,0,0.1,0c0,0,0.1,0,0.2,0
	c0.1,0,0.1,0,0.2,0c0.2,0,0.4,0.1,0.6,0.2c0.2,0.1,0.5,0.2,0.7,0.4c0.2,0.2,0.4,0.4,0.6,0.7c0.1,0.3,0.2,0.6,0.2,1
	c0,0.4-0.1,0.7-0.2,1.1C54.8,82,54.7,82.4,54.5,82.7z M24.7,97.3c5.7,5.4,21.7-0.7,21.7-6.3c0.5-4,0.3-11.6,2.4-14.6
	c-12.5,9.5-27.8,10.7-33.6,10C22,90.8,21.2,93.2,24.7,97.3z M50.1,82.8L50.1,82.8c0,0,0.1,0,0.2-0.1c0.1,0,0.1-0.1,0.2-0.1
	c0.1-0.1,0.1-0.1,0.2-0.2c0,0,0-0.1,0.1-0.1c0,0,0-0.1,0.1-0.1c0-0.1,0.1-0.1,0.1-0.2c0,0,0-0.1,0-0.1c0,0,0-0.1,0-0.1c0,0,0,0,0,0
	l0,0c0-0.1-0.1-0.3-0.2-0.4c-0.2-0.2-0.5-0.1-0.7,0.1c-0.2,0.2-0.1,0.5,0.1,0.7C50.5,82.4,50.1,82.8,50.1,82.8z M50.2,86.8
	C50.2,86.8,50.2,86.8,50.2,86.8c0-0.1-0.1-0.1-0.1-0.2c0,0-0.1-0.1-0.1-0.1c0,0,0,0-0.1-0.1c0,0,0,0-0.1-0.1c-0.1,0-0.1-0.1-0.2-0.1
	c-0.1,0-0.1-0.1-0.2-0.1c-0.1,0-0.2,0-0.2,0l0,0c0,0,0.4,0.2,0.2,0.5c-0.1,0.1-0.1,0.4,0.1,0.5c0.1,0.1,0.4,0.1,0.5-0.1
	C50.2,87,50.2,86.9,50.2,86.8L50.2,86.8C50.2,86.8,50.2,86.8,50.2,86.8z M421.2,90.1c0-0.1,0-0.1,0-0.2c0-0.1,0-0.1,0-0.2
	c-0.1-0.2-0.2-0.4-0.3-0.6c-0.2-0.4-0.5-0.7-0.7-1c-0.3-0.3-0.5-0.6-0.8-0.8c-0.6-0.5-1.1-0.9-1.7-1.2c-1.1-0.7-2.1-1.2-2.9-1.6
	c-0.8-0.4-1.5-0.7-2-0.9c-0.2-0.1-0.4-0.2-0.5-0.2c-0.1,0-0.2-0.1-0.2-0.1s0.2,0.1,0.7,0.4c0.4,0.2,1.1,0.6,1.9,1
	c0.8,0.5,1.7,1.1,2.7,1.8c0.5,0.4,1,0.8,1.5,1.3c0.2,0.2,0.5,0.5,0.7,0.8c0.2,0.3,0.4,0.6,0.6,0.9c0.1,0.2,0.1,0.3,0.2,0.5
	c0,0,0,0.1,0,0.1c0,0,0,0.1,0,0.1l0,0.1c0,0,0,0.1,0,0.1c0,0,0,0,0,0.1l0,0.1l0,0c0,0,0,0,0,0l0,0l0,0c0,0.1-0.1,0.1-0.1,0.2
	c-0.1,0.1-0.2,0.2-0.3,0.3c-0.3,0.2-0.6,0.4-1,0.5c-0.4,0.1-0.8,0.2-1.2,0.3c-0.8,0.1-1.7,0.2-2.7,0.1c-0.9,0-1.9-0.1-2.8-0.2
	c-1-0.1-1.9-0.2-2.9-0.4c-1-0.2-2-0.3-3-0.6c-2-0.4-4-0.9-6-1.5c-2-0.6-4-1.3-5.9-2c-1.9-0.7-3.7-1.5-5.4-2.4
	c-0.9-0.4-1.7-0.9-2.4-1.4c-0.8-0.5-1.5-1-2.1-1.6c-0.3-0.3-0.6-0.6-0.8-0.9c-0.2-0.3-0.3-0.6-0.3-0.9V80c0,0,0,0,0,0
	c0,0,0-0.1,0-0.1l0,0l0,0l0,0c0,0,0-0.1,0-0.1c0.1-0.1,0.1-0.2,0.3-0.4c0.2-0.2,0.6-0.4,0.9-0.5c0.7-0.3,1.4-0.4,2.1-0.5
	c0.7-0.1,1.4-0.2,2-0.2c1.3,0,2.4,0,3.3,0c0.9,0.1,1.6,0.1,2.1,0.1c0.5,0,0.8,0.1,0.8,0.1s-0.1,0-0.2,0c-0.1,0-0.3-0.1-0.6-0.1
	c-0.5-0.1-1.2-0.2-2.1-0.4c-0.9-0.1-2-0.3-3.3-0.3c-0.6,0-1.3,0-2.1,0c-0.7,0.1-1.5,0.2-2.3,0.4c-0.4,0.1-0.8,0.3-1.2,0.6
	c-0.2,0.2-0.4,0.4-0.5,0.6c0,0.1-0.1,0.1-0.1,0.2l0,0.1l0,0c0,0,0,0,0,0l0,0c0,0.1,0,0.1,0,0.2l0,0.1c0,0,0,0.1,0,0.1
	c0,0.3,0,0.6,0.1,0.8c0.1,0.3,0.2,0.5,0.3,0.7c0.2,0.4,0.6,0.8,0.9,1.2c0.7,0.7,1.4,1.3,2.2,1.9c0.8,0.6,1.6,1.1,2.5,1.6
	c0.9,0.5,1.8,0.9,2.7,1.4c0.9,0.4,1.9,0.9,2.8,1.2c1.9,0.8,3.9,1.5,6,2.1c2,0.6,4.1,1.1,6.1,1.5c1,0.2,2,0.4,3.1,0.5
	c1,0.1,2,0.3,3,0.3c2,0.1,3.9,0.2,5.8-0.2c0.5-0.1,0.9-0.2,1.4-0.4c0.4-0.2,0.9-0.4,1.3-0.7c0.2-0.2,0.4-0.4,0.5-0.6
	c0.1-0.1,0.1-0.2,0.2-0.4l0-0.1l0,0c0-0.1,0,0,0-0.1l0,0l0-0.1c0,0,0,0,0-0.1c0-0.1,0-0.2,0-0.2C421.2,90.3,421.2,90.2,421.2,90.1z
	 M418.6,93.4c-0.4,0.1-0.9,0.4-1.4,0.7c-0.5,0.3-1.1,0.7-1.6,1.2c-0.6,0.5-1.1,1-1.7,1.7c-0.6,0.6-1.1,1.3-1.6,2.1
	c-0.5,0.7-1.1,1.5-1.6,2.3c-0.5,0.8-1.1,1.6-1.6,2.4c-0.3,0.4-0.6,0.8-0.9,1.1c-0.3,0.3-0.6,0.7-1,0.9c-0.1,0.1-0.2,0.1-0.3,0.2
	c-0.1,0.1-0.2,0.1-0.3,0.2c-0.2,0.1-0.4,0.2-0.6,0.3c-0.4,0.2-0.8,0.3-1.3,0.4c-0.9,0.2-1.7,0.3-2.5,0.3c-0.8,0-8.4-0.4-12.5-3.6
	c-0.8-0.6-1.3-1-2-1.6c-0.3-0.3-0.6-0.6-0.9-1c-0.1-0.2-0.3-0.4-0.4-0.5c-0.1-0.1-0.1-0.2-0.2-0.3c0-0.1-0.1-0.2-0.1-0.3
	c-0.2-0.4-0.3-0.8-0.4-1.3c-0.1-0.5-0.1-0.9-0.2-1.4c-0.1-1-0.1-1.9-0.1-2.9c0-1,0-1.9-0.1-2.8c0-0.9-0.1-1.8-0.3-2.6
	c-0.1-0.8-0.3-1.6-0.5-2.3c-0.2-0.7-0.5-1.3-0.8-1.9c-0.3-0.5-0.6-1-0.8-1.3c-0.3-0.3-0.5-0.6-0.6-0.8c-0.2-0.2-0.2-0.3-0.2-0.3
	s0.1,0.1,0.2,0.3c0.1,0.2,0.4,0.4,0.6,0.8c0.2,0.4,0.5,0.8,0.8,1.3c0.3,0.5,0.5,1.2,0.7,1.9c0.2,0.7,0.3,1.5,0.4,2.3
	c0.1,0.8,0.1,1.7,0.1,2.6c0,0.9,0,1.8-0.1,2.8c0,1-0.1,1.9,0,2.9c0,0.5,0,1,0.1,1.5c0.1,0.5,0.2,1,0.3,1.5c0,0.1,0.1,0.2,0.2,0.4
	c0,0.1,0.1,0.2,0.2,0.3c0.1,0.2,0.3,0.4,0.4,0.6c0.3,0.4,0.6,0.8,0.9,1.1c0.7,0.7,1.3,1.3,2,1.8c5.8,3.8,12.4,3.9,13.2,3.9
	c0.9-0.1,1.7-0.2,2.7-0.5c0.5-0.1,0.9-0.3,1.4-0.5c0.2-0.1,0.5-0.2,0.7-0.3c0.1-0.1,0.2-0.1,0.3-0.2c0.1-0.1,0.2-0.1,0.3-0.2
	c0.4-0.3,0.8-0.7,1.1-1.1c0.3-0.4,0.6-0.8,0.9-1.2c0.5-0.8,1-1.7,1.5-2.5c0.5-0.8,1-1.6,1.5-2.4c0.5-0.8,1-1.5,1.5-2.1
	c0.5-0.6,1.1-1.2,1.6-1.7c0.5-0.5,1.1-0.9,1.6-1.2C417.8,93.8,418.2,93.6,418.6,93.4c0.4-0.1,0.7-0.2,1-0.3c0.2-0.1,0.3-0.1,0.3-0.1
	s-0.1,0-0.3,0.1C419.3,93.1,419,93.2,418.6,93.4z M397.2,80.5c-1.1-0.2-2.2-0.4-3.2-0.6c-1.1-0.2-2.2-0.3-3.3-0.4
	c-1.1-0.1-2.2-0.1-3.3,0c-0.5,0-1.1,0.1-1.6,0.3c-0.3,0.1-0.5,0.2-0.8,0.4c-0.2,0.2-0.4,0.4-0.5,0.7l0,0l0,0c0,0.2,0,0.4,0.1,0.6
	c0.1,0.2,0.2,0.3,0.3,0.4c0.2,0.3,0.5,0.5,0.8,0.7c0.5,0.4,1.1,0.8,1.7,1.1c0.6,0.3,1.2,0.6,1.8,0.9c0.6,0.3,1.2,0.6,1.8,0.9
	c1.2,0.5,2.5,1.1,3.7,1.5c1.1,0.4,2.2,0.9,3.4,1.3c0.3,0.1,0.4,0.2,0.4,0.2l5.1,1.5c0,0,0.2,0,0.4,0.1c0.9,0.2,1.8,0.4,2.8,0.6
	c1.1,0.2,2.1,0.4,3.2,0.6c1.1,0.2,2.2,0.3,3.3,0.4c0.5,0,1.1,0.1,1.6,0.1c0.5,0,1.1,0,1.7-0.1c0.3,0,0.5-0.1,0.8-0.2
	c0.3-0.1,0.5-0.2,0.7-0.5c0.1-0.1,0.2-0.3,0.2-0.4c0-0.1,0-0.1,0-0.2c0-0.1,0-0.1,0-0.2c0-0.3-0.1-0.6-0.3-0.8
	c-0.3-0.5-0.7-0.9-1.1-1.3c-0.4-0.4-0.9-0.7-1.3-1c-0.9-0.6-1.9-1.1-2.9-1.6c-1-0.5-2-0.9-3-1.3c-2-0.8-4.1-1.5-6.2-2.1
	C401.4,81.4,399.3,80.9,397.2,80.5z M377.8,91.3c0.5,0.9,1,1.7,1.6,2.4c0.6,0.7,1.2,1.4,2,1.9c0.4,0.3,0.7,0.5,1.1,0.6
	c0.2,0.1,0.4,0.1,0.6,0.1c0.1,0,0.2,0,0.3-0.1l0,0l0,0l0,0l0,0l0.1,0l0.1-0.1c0,0,0.1,0,0.1-0.1l0.1-0.1c0.1-0.1,0.1-0.1,0.2-0.2
	c0.1-0.1,0.1-0.2,0.2-0.2c0-0.1,0.1-0.2,0.1-0.3c0.1-0.4,0.1-0.7,0-1c-0.1-0.3-0.2-0.6-0.4-0.8c-0.1-0.1-0.2-0.2-0.3-0.3
	c-0.1,0-0.1,0-0.2-0.1c-0.1,0-0.1,0-0.2,0c-0.2,0-0.4,0-0.6,0.1c-0.2,0.1-0.3,0.2-0.3,0.3c-0.2,0.2-0.2,0.3-0.2,0.3s0.1-0.1,0.2-0.3
	c0.1-0.1,0.2-0.2,0.4-0.2c0.2-0.1,0.3-0.1,0.6-0.1c0,0,0.1,0,0.2,0c0.1,0,0.1,0,0.2,0.1c0.1,0.1,0.2,0.1,0.2,0.3
	c0.1,0.2,0.2,0.5,0.3,0.8c0,0.3,0,0.6-0.1,0.9c0,0.1-0.1,0.1-0.1,0.2c0,0.1-0.1,0.1-0.1,0.2c-0.1,0.1-0.1,0.1-0.2,0.2l-0.1,0.1l0,0
	c0,0,0,0-0.1,0l-0.1,0.1l-0.1,0l0,0c-0.1,0-0.2,0-0.3,0c-0.2,0-0.4,0-0.5-0.1c-0.4-0.1-0.7-0.4-1-0.6c-0.7-0.5-1.3-1.2-1.8-1.9
	c-0.6-0.7-1.1-1.5-1.6-2.4c-0.5-0.9-0.9-1.8-1-2.7c-0.1-0.5-0.1-1,0-1.4c0-0.1,0-0.1,0-0.2l0-0.1c0,0,0,0,0-0.1l0.1-0.2
	c0-0.1,0.1-0.1,0.1-0.2c0.1-0.2,0.3-0.4,0.4-0.5c0.3-0.3,0.7-0.5,1.2-0.6c0.2,0,0.4-0.1,0.7-0.1c0.2,0,0.5,0,0.7,0
	c0.5,0.1,0.9,0.2,1.3,0.3c0.4,0.1,0.8,0.3,1.2,0.5c0.7,0.4,1.1,1.1,1.3,1.8c0.1,0.4,0.1,0.7,0,1c0,0.3-0.2,0.6-0.4,0.8
	c-0.1,0.1-0.2,0.2-0.3,0.2c-0.1,0-0.3,0.1-0.4,0.1c-0.3,0-0.5,0-0.7-0.1c-0.2-0.1-0.3-0.2-0.4-0.4c-0.1-0.1-0.2-0.3-0.2-0.4
	c-0.1-0.2-0.1-0.3-0.1-0.3s0,0.1,0.1,0.3c0,0.1,0.1,0.2,0.2,0.4c0.1,0.1,0.2,0.3,0.4,0.4c0.2,0.1,0.5,0.2,0.7,0.2
	c0.1,0,0.3,0,0.4-0.1c0.1,0,0.3-0.1,0.4-0.2c0.2-0.2,0.4-0.6,0.5-0.9c0.1-0.4,0.1-0.7,0-1.1c-0.1-0.4-0.2-0.8-0.4-1.1
	c-0.1-0.2-0.2-0.4-0.4-0.5c-0.1-0.1-0.2-0.2-0.3-0.2c-0.1-0.1-0.2-0.1-0.3-0.2c-0.4-0.2-0.8-0.4-1.2-0.6c-0.4-0.2-0.9-0.3-1.4-0.3
	c-0.2,0-0.5,0-0.7,0c-0.3,0-0.5,0-0.8,0.1c-0.3,0.1-0.5,0.1-0.7,0.3c-0.2,0.1-0.5,0.3-0.7,0.5c-0.2,0.2-0.4,0.4-0.5,0.6
	c0,0.1-0.1,0.1-0.1,0.2l-0.1,0.2c0,0,0,0.1,0,0.1l0,0.1c0,0.1,0,0.1-0.1,0.2c-0.1,0.5-0.1,1.1,0,1.6
	C376.9,89.5,377.3,90.5,377.8,91.3z M378.2,86c0.2-0.2,0.5-0.3,0.7-0.4c0.2-0.1,0.4-0.1,0.6-0.2c0.1,0,0.2,0,0.2,0
	c0.1,0,0.1,0,0.2,0c0.1,0,0.1,0,0.1,0s-0.1,0-0.1,0c-0.1,0-0.2,0-0.4,0c-0.2,0-0.4,0.1-0.6,0.1c-0.2,0.1-0.5,0.2-0.8,0.3
	c-0.3,0.2-0.5,0.4-0.7,0.8c-0.2,0.3-0.2,0.7-0.2,1.1c0,0.4,0.1,0.8,0.2,1.2c0.1,0.4,0.3,0.8,0.4,1.1c0.2,0.4,0.4,0.7,0.6,1.1
	c0.2,0.3,0.4,0.7,0.6,1c0.4,0.6,0.8,1.2,1.2,1.7c0.4,0.5,0.7,0.8,0.9,1.1c0.2,0.3,0.4,0.4,0.4,0.4s-0.1-0.2-0.3-0.4
	c-0.2-0.3-0.5-0.7-0.9-1.2c-0.3-0.5-0.7-1.1-1.1-1.7c-0.2-0.3-0.4-0.6-0.6-1c-0.2-0.3-0.4-0.7-0.5-1.1c-0.2-0.4-0.3-0.7-0.4-1.1
	c-0.1-0.4-0.2-0.7-0.2-1.1c0-0.4,0-0.7,0.2-1C377.8,86.4,378,86.1,378.2,86z M407.9,104.4c3.5-4,2.7-6.5,9.4-10.9
	c-5.7,0.7-21.1-0.5-33.6-10c2.2,3,2,10.7,2.4,14.6C386.3,103.7,402.2,109.8,407.9,104.4z M382.6,88.6c-0.2-0.2-0.5-0.2-0.7-0.1
	c-0.1,0.1-0.2,0.2-0.2,0.4l0,0c0,0,0,0,0,0c0,0,0,0.1,0,0.1c0,0,0,0.1,0,0.1c0,0.1,0,0.1,0.1,0.2c0,0,0,0.1,0.1,0.1
	c0,0,0,0.1,0.1,0.1c0.1,0.1,0.1,0.1,0.2,0.2c0.1,0.1,0.1,0.1,0.2,0.1c0.1,0.1,0.2,0.1,0.2,0.1l0,0c0,0-0.5-0.4-0.1-0.7
	C382.7,89.1,382.7,88.8,382.6,88.6z M383.2,93.3L383.2,93.3c0,0-0.1,0-0.2,0c0,0-0.1,0-0.2,0.1c-0.1,0-0.1,0.1-0.2,0.1
	c0,0,0,0-0.1,0.1c0,0,0,0-0.1,0.1c0,0-0.1,0.1-0.1,0.1c0,0,0,0,0,0.1c0,0,0,0.1,0,0.1c0,0,0,0,0,0l0,0c0,0.1,0,0.2,0.1,0.3
	c0.1,0.1,0.3,0.2,0.5,0.1c0.1-0.1,0.2-0.3,0.1-0.5C382.8,93.5,383.2,93.3,383.2,93.3z M327.5,22.4L327.5,22.4l0,0.1c0,0,0,0,0,0.1
	l0,0l0,0.1c0,0.1,0.1,0.3,0.2,0.4c0.1,0.2,0.3,0.4,0.5,0.6c0.4,0.3,0.8,0.5,1.3,0.7c0.4,0.2,0.9,0.3,1.4,0.4
	c1.9,0.3,3.8,0.3,5.8,0.2c1-0.1,2-0.2,3-0.3c1-0.1,2-0.3,3.1-0.5c2-0.4,4.1-0.9,6.1-1.5c2-0.6,4-1.3,6-2.1c1-0.4,1.9-0.8,2.8-1.2
	c0.9-0.4,1.8-0.9,2.7-1.4c0.9-0.5,1.7-1,2.5-1.6c0.8-0.6,1.5-1.2,2.2-1.9c0.3-0.4,0.6-0.7,0.9-1.2c0.1-0.2,0.2-0.4,0.3-0.7
	c0.1-0.3,0.1-0.5,0.1-0.8c0,0,0-0.1,0-0.1l0-0.1c0-0.1,0-0.1,0-0.2l0,0c0,0,0-0.1,0,0l0,0l0-0.1c0-0.1-0.1-0.1-0.1-0.2
	c-0.1-0.2-0.3-0.4-0.5-0.6c-0.4-0.3-0.8-0.5-1.2-0.6c-0.8-0.3-1.6-0.4-2.3-0.4c-0.7-0.1-1.4-0.1-2.1,0c-1.3,0-2.4,0.2-3.3,0.3
	c-0.9,0.1-1.6,0.3-2.1,0.4c-0.2,0-0.4,0.1-0.6,0.1c-0.1,0-0.2,0-0.2,0s0.3,0,0.8-0.1c0.5,0,1.2-0.1,2.1-0.1c0.9,0,2-0.1,3.3,0
	c0.6,0,1.3,0.1,2,0.2c0.7,0.1,1.4,0.2,2.1,0.5c0.3,0.1,0.7,0.3,0.9,0.5c0.1,0.1,0.2,0.2,0.3,0.4c0,0,0,0.1,0,0.1l0,0l0,0l0,0
	c0,0,0,0.1,0,0.1c0,0,0,0,0,0v0.1c0,0.3-0.1,0.6-0.3,0.9c-0.2,0.3-0.5,0.6-0.8,0.9c-0.6,0.6-1.3,1.1-2.1,1.6c-0.8,0.5-1.6,1-2.4,1.4
	c-1.7,0.9-3.5,1.7-5.4,2.4c-1.9,0.7-3.9,1.4-5.9,2c-2,0.6-4,1.1-6,1.5c-1,0.2-2,0.4-3,0.6c-1,0.2-2,0.3-2.9,0.4
	c-1,0.1-1.9,0.2-2.8,0.2c-0.9,0-1.8,0-2.7-0.1c-0.4-0.1-0.8-0.1-1.2-0.3c-0.4-0.1-0.7-0.3-1-0.5c-0.1-0.1-0.2-0.2-0.3-0.3
	c0-0.1-0.1-0.1-0.1-0.2l0,0l0,0c0,0,0,0,0,0l0,0l0-0.1c0,0,0-0.1,0-0.1c0,0,0-0.1,0-0.1l0-0.1c0,0,0-0.1,0-0.1c0,0,0-0.1,0-0.1
	c0-0.2,0.1-0.3,0.2-0.5c0.1-0.3,0.4-0.6,0.6-0.9c0.2-0.3,0.5-0.5,0.7-0.8c0.5-0.5,1-0.9,1.5-1.3c1-0.7,2-1.3,2.7-1.8
	c0.8-0.5,1.4-0.8,1.9-1c0.4-0.2,0.7-0.4,0.7-0.4s-0.1,0-0.2,0.1c-0.1,0-0.3,0.1-0.5,0.2c-0.5,0.2-1.1,0.5-2,0.9
	c-0.8,0.4-1.8,0.9-2.9,1.6c-0.5,0.3-1.1,0.7-1.7,1.2c-0.3,0.2-0.6,0.5-0.8,0.8c-0.3,0.3-0.5,0.6-0.7,1c-0.1,0.2-0.2,0.4-0.3,0.6
	c0,0.1,0,0.1,0,0.2c0,0.1,0,0.1,0,0.2c0,0.1,0,0.1,0,0.2C327.5,22.2,327.5,22.3,327.5,22.4C327.5,22.4,327.5,22.4,327.5,22.4z
	 M365.6,14.8c-0.3,0.3-0.5,0.8-0.8,1.3c-0.3,0.5-0.5,1.2-0.8,1.9c-0.2,0.7-0.4,1.5-0.5,2.3c-0.1,0.8-0.2,1.7-0.3,2.6
	c0,0.9-0.1,1.9-0.1,2.8c0,1,0,1.9-0.1,2.9c0,0.5-0.1,1-0.2,1.4c-0.1,0.5-0.2,0.9-0.4,1.3c0,0.1-0.1,0.2-0.1,0.3
	c-0.1,0.1-0.1,0.2-0.2,0.3c-0.1,0.2-0.2,0.4-0.4,0.5c-0.3,0.4-0.6,0.7-0.9,1c-0.6,0.6-1.2,1.1-2,1.6c-4.1,3.2-11.7,3.7-12.5,3.6
	c-0.8,0-1.7-0.1-2.5-0.3c-0.4-0.1-0.9-0.2-1.3-0.4c-0.2-0.1-0.4-0.2-0.6-0.3c-0.1,0-0.2-0.1-0.3-0.2c-0.1-0.1-0.2-0.1-0.3-0.2
	c-0.4-0.2-0.7-0.6-1-0.9c-0.3-0.3-0.6-0.7-0.9-1.1c-0.6-0.8-1.1-1.6-1.6-2.4c-0.5-0.8-1-1.6-1.6-2.3c-0.5-0.7-1.1-1.5-1.6-2.1
	c-0.6-0.6-1.1-1.2-1.7-1.7c-0.6-0.5-1.1-0.9-1.6-1.2c-0.5-0.3-1-0.5-1.4-0.7c-0.4-0.1-0.7-0.2-0.9-0.3c-0.2-0.1-0.3-0.1-0.3-0.1
	s0.1,0,0.3,0.1c0.2,0.1,0.5,0.2,0.9,0.3c0.4,0.2,0.9,0.4,1.4,0.7c0.5,0.3,1,0.7,1.6,1.2c0.5,0.5,1.1,1.1,1.6,1.7
	c0.5,0.6,1,1.4,1.5,2.1c0.5,0.8,1,1.6,1.5,2.4c0.5,0.8,1,1.7,1.5,2.5c0.3,0.4,0.6,0.8,0.9,1.2c0.3,0.4,0.7,0.8,1.1,1.1
	c0.1,0.1,0.2,0.2,0.3,0.2c0.1,0.1,0.2,0.1,0.3,0.2c0.2,0.1,0.5,0.2,0.7,0.3c0.5,0.2,0.9,0.3,1.4,0.5c0.9,0.2,1.8,0.4,2.7,0.5
	c0.9,0.1,7.5,0,13.2-3.9c0.7-0.5,1.4-1.1,2-1.8c0.3-0.3,0.6-0.7,0.9-1.1c0.1-0.2,0.3-0.4,0.4-0.6c0.1-0.1,0.1-0.2,0.2-0.3
	c0.1-0.1,0.1-0.2,0.2-0.4c0.2-0.5,0.3-1,0.3-1.5c0.1-0.5,0.1-1,0.1-1.5c0-1,0-2,0-2.9c0-1-0.1-1.9-0.1-2.8c0-0.9,0-1.8,0.1-2.6
	c0.1-0.8,0.2-1.6,0.4-2.3c0.2-0.7,0.4-1.3,0.7-1.9C365.1,15.6,365.4,15.2,365.6,14.8c0.3-0.3,0.5-0.6,0.7-0.7
	c0.2-0.2,0.2-0.3,0.2-0.3s-0.1,0.1-0.2,0.3C366.1,14.2,365.8,14.5,365.6,14.8z M333,18.9c-0.5,0.3-0.9,0.6-1.3,1
	c-0.4,0.4-0.8,0.8-1.1,1.3c-0.1,0.2-0.2,0.5-0.3,0.8c0,0.1,0,0.1,0,0.2c0,0.1,0,0.2,0,0.2c0,0.1,0.1,0.3,0.2,0.4
	c0.2,0.2,0.5,0.4,0.7,0.5c0.3,0.1,0.5,0.2,0.8,0.2c0.5,0.1,1.1,0.1,1.7,0.1c0.5,0,1.1,0,1.6-0.1c1.1-0.1,2.2-0.3,3.3-0.4
	c1.1-0.2,2.2-0.4,3.2-0.6c0.9-0.2,1.8-0.4,2.8-0.6c0.3-0.1,0.4-0.1,0.4-0.1l5.1-1.5c0,0,0.2-0.1,0.4-0.2c1.1-0.4,2.3-0.8,3.4-1.3
	c1.3-0.5,2.5-1,3.7-1.5c0.6-0.3,1.2-0.6,1.8-0.9c0.6-0.3,1.2-0.6,1.8-0.9c0.6-0.3,1.2-0.7,1.7-1.1c0.3-0.2,0.5-0.4,0.8-0.7
	c0.1-0.1,0.2-0.3,0.3-0.4c0.1-0.2,0.1-0.4,0.1-0.6l0,0l0,0c-0.1-0.3-0.3-0.6-0.5-0.7c-0.2-0.2-0.5-0.3-0.8-0.4
	c-0.5-0.2-1.1-0.3-1.6-0.3c-1.1-0.1-2.2,0-3.3,0c-1.1,0.1-2.2,0.2-3.3,0.4c-1.1,0.2-2.2,0.4-3.2,0.6c-2.1,0.5-4.3,1-6.4,1.6
	c-2.1,0.6-4.2,1.3-6.2,2.1c-1,0.4-2,0.8-3,1.3C334.9,17.7,333.9,18.3,333,18.9z M365.3,17.7c-0.1,0.1-0.2,0.1-0.3,0.2
	c-0.2,0.2-0.3,0.3-0.4,0.5c-0.2,0.4-0.4,0.8-0.4,1.1c-0.1,0.4-0.1,0.8,0,1.1c0.1,0.4,0.2,0.7,0.5,0.9c0.1,0.1,0.3,0.2,0.4,0.2
	c0.1,0,0.3,0.1,0.4,0.1c0.3,0,0.5,0,0.7-0.2c0.2-0.1,0.3-0.3,0.4-0.4c0.1-0.1,0.2-0.3,0.2-0.4c0.1-0.2,0.1-0.3,0.1-0.3
	s0,0.1-0.1,0.3c-0.1,0.1-0.1,0.2-0.2,0.4c-0.1,0.1-0.2,0.3-0.4,0.4c-0.2,0.1-0.4,0.1-0.7,0.1c-0.1,0-0.3-0.1-0.4-0.1
	c-0.1,0-0.2-0.1-0.3-0.2c-0.2-0.2-0.3-0.5-0.4-0.8c0-0.3,0-0.7,0-1c0.2-0.7,0.5-1.4,1.3-1.8c0.4-0.2,0.8-0.4,1.2-0.5
	c0.4-0.1,0.9-0.2,1.3-0.3c0.2,0,0.5,0,0.7,0c0.2,0,0.5,0,0.7,0.1c0.4,0.1,0.9,0.3,1.2,0.6c0.2,0.2,0.3,0.3,0.4,0.5
	c0,0.1,0.1,0.1,0.1,0.2l0.1,0.2c0,0,0,0.1,0,0.1l0,0.1c0,0.1,0,0.1,0,0.2c0.1,0.4,0.1,0.9,0,1.4c-0.2,1-0.6,1.9-1,2.7
	c-0.5,0.9-1,1.7-1.6,2.4c-0.6,0.7-1.2,1.4-1.8,1.9c-0.3,0.3-0.7,0.5-1,0.6c-0.2,0.1-0.4,0.1-0.5,0.1c-0.1,0-0.2,0-0.3,0l0,0l-0.1,0
	l-0.1-0.1c0,0,0,0-0.1,0l0,0l-0.1-0.1c-0.1,0-0.1-0.1-0.2-0.2c0-0.1-0.1-0.1-0.1-0.2c0-0.1-0.1-0.1-0.1-0.2
	c-0.1-0.3-0.1-0.6-0.1-0.9c0.1-0.3,0.2-0.6,0.3-0.8c0.1-0.1,0.2-0.2,0.2-0.3c0.1,0,0.1-0.1,0.2-0.1c0.1,0,0.1,0,0.2,0
	c0.2,0,0.4,0,0.6,0.1c0.2,0.1,0.3,0.2,0.4,0.2c0.2,0.2,0.2,0.3,0.2,0.3s-0.1-0.1-0.2-0.3c-0.1-0.1-0.2-0.2-0.3-0.3
	c-0.2-0.1-0.4-0.1-0.6-0.1c-0.1,0-0.1,0-0.2,0c-0.1,0-0.1,0-0.2,0.1c-0.1,0.1-0.2,0.2-0.3,0.3c-0.2,0.2-0.3,0.5-0.4,0.8
	c-0.1,0.3-0.1,0.7,0,1c0,0.1,0.1,0.2,0.1,0.3c0,0.1,0.1,0.2,0.2,0.2c0.1,0.1,0.1,0.2,0.2,0.2l0.1,0.1c0,0,0.1,0.1,0.1,0.1l0.1,0.1
	l0.1,0l0,0l0,0l0,0l0,0c0.1,0,0.2,0,0.3,0.1c0.2,0,0.4,0,0.6-0.1c0.4-0.1,0.8-0.4,1.1-0.6c0.7-0.5,1.4-1.2,2-1.9
	c0.6-0.7,1.2-1.6,1.6-2.4c0.5-0.9,0.9-1.8,1.1-2.8c0.1-0.5,0.1-1.1,0-1.6c0-0.1,0-0.1-0.1-0.2l0-0.1c0,0,0-0.1,0-0.1l-0.1-0.2
	c0-0.1-0.1-0.1-0.1-0.2c-0.1-0.2-0.3-0.4-0.5-0.6c-0.2-0.2-0.4-0.3-0.7-0.5c-0.2-0.1-0.5-0.2-0.7-0.3c-0.3-0.1-0.5-0.1-0.8-0.1
	c-0.3,0-0.5,0-0.7,0c-0.5,0.1-0.9,0.2-1.4,0.3c-0.4,0.2-0.9,0.3-1.2,0.6C365.5,17.5,365.4,17.6,365.3,17.7z M370.5,21.6
	c-0.2,0.4-0.3,0.7-0.5,1.1c-0.2,0.3-0.4,0.7-0.6,1c-0.4,0.6-0.8,1.2-1.1,1.7c-0.3,0.5-0.6,0.9-0.9,1.2c-0.2,0.3-0.3,0.4-0.3,0.4
	s0.1-0.1,0.4-0.4c0.2-0.3,0.6-0.6,0.9-1.1c0.4-0.5,0.8-1,1.2-1.7c0.2-0.3,0.4-0.6,0.6-1c0.2-0.3,0.4-0.7,0.6-1.1
	c0.2-0.4,0.3-0.7,0.4-1.1c0.1-0.4,0.2-0.8,0.2-1.2c0-0.4-0.1-0.8-0.2-1.1c-0.2-0.3-0.4-0.6-0.7-0.8c-0.3-0.2-0.5-0.3-0.8-0.3
	c-0.2-0.1-0.5-0.1-0.6-0.1c-0.2,0-0.3,0-0.4,0c-0.1,0-0.1,0-0.1,0s0,0,0.1,0c0,0,0.1,0,0.2,0c0.1,0,0.1,0,0.2,0
	c0.2,0,0.4,0.1,0.6,0.2c0.2,0.1,0.5,0.2,0.7,0.4c0.2,0.2,0.4,0.4,0.6,0.7c0.1,0.3,0.2,0.6,0.2,1c0,0.4-0.1,0.7-0.2,1.1
	C370.8,20.9,370.7,21.3,370.5,21.6z M340.7,36.2c5.7,5.4,21.7-0.7,21.7-6.3c0.5-4,0.3-11.6,2.4-14.6c-12.5,9.5-27.8,10.7-33.6,10
	C338,29.7,337.2,32.1,340.7,36.2z M366.1,21.7L366.1,21.7c0,0,0.1,0,0.2-0.1c0.1,0,0.1-0.1,0.2-0.1c0.1-0.1,0.1-0.1,0.2-0.2
	c0,0,0-0.1,0.1-0.1c0,0,0-0.1,0.1-0.1c0-0.1,0.1-0.1,0.1-0.2c0,0,0-0.1,0-0.1c0,0,0-0.1,0-0.1c0,0,0,0,0,0l0,0
	c0-0.1-0.1-0.3-0.2-0.4c-0.2-0.2-0.5-0.1-0.7,0.1c-0.2,0.2-0.1,0.5,0.1,0.7C366.6,21.3,366.1,21.7,366.1,21.7z M366.2,25.7
	C366.2,25.7,366.2,25.6,366.2,25.7c0-0.1-0.1-0.1-0.1-0.2c0,0-0.1-0.1-0.1-0.1c0,0,0,0-0.1-0.1c0,0,0,0-0.1-0.1
	c-0.1,0-0.1-0.1-0.2-0.1c-0.1,0-0.1-0.1-0.2-0.1c-0.1,0-0.2,0-0.2,0l0,0c0,0,0.4,0.2,0.2,0.5c-0.1,0.1-0.1,0.4,0.1,0.5
	c0.1,0.1,0.4,0.1,0.5-0.1C366.2,25.9,366.3,25.8,366.2,25.7L366.2,25.7C366.2,25.7,366.2,25.7,366.2,25.7z M88.5,157.5
	c0,0.2,0.1,0.4,0.1,0.6C88.5,157.3,88.5,157.2,88.5,157.5z M59.4,153c-0.8-0.7-1.3-1.5-1.4-2.3c-0.3-2.4,3.1-6.1,8.2-7.7l0,0
	c0,0,0,0,0,0c0.4-0.1,0.7-0.2,1.1-0.3c2-0.6,6.1-2,7-3.4c-0.2,2.2,4,4.4,4,4.4h0c2.3,1.1,3.9,2.6,4,4.1c0.1,0.8-0.3,1.6-1,2.4
	c3.8,1.5,6.6,4.1,7.2,7.4c0,0.3,0.1,0.9,0.2,1.6l-2.9,17.2l-24.1,3l-7-16c0,0-0.1-0.4-0.2-1C54.2,158.8,56.1,155.5,59.4,153z
	 M87.6,159.1c-0.2-1.5-1.5-2.5-3-2.3c-0.8,0.1-1.5,0.6-1.9,1.2l-1.3,16.8l-0.6-17.1c-0.5-0.2-1-0.3-1.5-0.3
	c-0.8,0.1-1.4,0.5-1.8,1.1l-0.3,16.8l-1.6-16.9c-0.5-0.3-1-0.4-1.6-0.3c-0.7,0.1-1.3,0.5-1.8,1l1.1,16.7l-3-16.7
	c-0.5-0.3-1.1-0.4-1.7-0.3c-0.7,0.1-1.3,0.4-1.7,0.9l2.6,16.9l-4.5-16.7c-0.5-0.3-1.1-0.5-1.7-0.4c-0.6,0.1-1.2,0.4-1.6,0.8
	l3.5,16.8L60,160.5c-0.5-0.4-1.2-0.5-1.8-0.4c-1.5,0.2-2.5,1.5-2.3,3l6.5,15l22.6-2.8L87.6,159.1z M70.2,149
	c6.3-0.8,11.8,1.8,10.8-0.7c-1.4-3.6-22.4,0.7-22.1,3C59.2,153.9,63.9,149.8,70.2,149z M55.7,162.1c-0.2-1.5,0.9-2.8,2.3-3
	c1.5-0.2,2.8,0.9,3,2.3c-0.2-1.5,0.9-2.8,2.3-3c1.5-0.2,2.8,0.9,3,2.3c-0.2-1.5,0.9-2.8,2.3-3c1.5-0.2,2.8,0.9,3,2.3
	c-0.2-1.5,0.9-2.8,2.3-3c1.5-0.2,2.8,0.9,3,2.3c-0.2-1.5,0.9-2.8,2.3-3c1.5-0.2,2.8,0.9,3,2.3c-0.2-1.5,0.9-2.8,2.3-3
	c1.5-0.2,2.6,0.9,3,2.3c-1.6-6.4-8.2-3.7-17-2.6C61.7,156.6,54.9,156.2,55.7,162.1z M373.2,193.4c0,0.2,0.1,0.4,0.1,0.6
	C373.2,193.1,373.1,193,373.2,193.4z M344,188.9c-0.8-0.7-1.3-1.5-1.4-2.3c-0.3-2.4,3.1-6.1,8.2-7.7l0,0c0,0,0,0,0,0
	c0.4-0.1,0.7-0.2,1.1-0.3c2-0.6,6.1-2,7-3.4c-0.2,2.2,4,4.4,4,4.4h0c2.3,1.1,3.9,2.6,4,4.1c0.1,0.8-0.3,1.6-1,2.4
	c3.8,1.5,6.6,4.1,7.2,7.4c0,0.3,0.1,0.9,0.2,1.6l-2.9,17.2l-24.1,3l-7-16c0,0-0.1-0.4-0.2-1C338.8,194.7,340.7,191.4,344,188.9z
	 M372.3,195c-0.2-1.5-1.5-2.5-3-2.3c-0.8,0.1-1.5,0.6-1.9,1.2l-1.3,16.8l-0.6-17.1c-0.5-0.2-1-0.3-1.5-0.3c-0.8,0.1-1.4,0.5-1.8,1.1
	l-0.3,16.8l-1.6-16.9c-0.5-0.3-1-0.4-1.6-0.3c-0.7,0.1-1.3,0.5-1.8,1l1.1,16.7l-3-16.7c-0.5-0.3-1.1-0.4-1.7-0.3
	c-0.7,0.1-1.3,0.4-1.7,0.9l2.6,16.9l-4.5-16.7c-0.5-0.3-1.1-0.5-1.7-0.4c-0.6,0.1-1.2,0.4-1.6,0.8l3.5,16.8l-5.4-16.5
	c-0.5-0.4-1.2-0.5-1.8-0.4c-1.5,0.2-2.5,1.5-2.3,3l6.5,15l22.6-2.8L372.3,195z M354.8,184.9c6.3-0.8,11.8,1.8,10.8-0.7
	c-1.4-3.6-22.4,0.7-22.1,3C343.8,189.8,348.5,185.6,354.8,184.9z M340.3,198c-0.2-1.5,0.9-2.8,2.3-3c1.5-0.2,2.8,0.9,3,2.3
	c-0.2-1.5,0.9-2.8,2.3-3c1.5-0.2,2.8,0.9,3,2.3c-0.2-1.5,0.9-2.8,2.3-3c1.5-0.2,2.8,0.9,3,2.3c-0.2-1.5,0.9-2.8,2.3-3
	c1.5-0.2,2.8,0.9,3,2.3c-0.2-1.5,0.9-2.8,2.3-3c1.5-0.2,2.8,0.9,3,2.3c-0.2-1.5,0.9-2.8,2.3-3c1.5-0.2,2.6,0.9,3,2.3
	c-1.6-6.4-8.2-3.7-17-2.6C346.3,192.5,339.6,192,340.3,198z M301.9,25.7c0,0.2,0.1,0.4,0.1,0.6C301.9,25.5,301.8,25.4,301.9,25.7z
	 M299.1,44.5l-24.1,3l-7-16c0,0-0.1-0.4-0.2-1c-0.4-3.5,1.5-6.8,4.8-9.3c-0.8-0.7-1.3-1.5-1.4-2.3c-0.3-2.4,3.1-6.1,8.2-7.7l0,0
	c0,0,0,0,0,0c0.4-0.1,0.7-0.2,1.1-0.3c2-0.6,6.1-2,7-3.4c-0.2,2.2,4,4.4,4,4.4h0c2.3,1.1,3.9,2.6,4,4.1c0.1,0.8-0.3,1.6-1,2.4
	c3.8,1.5,6.6,4.1,7.2,7.4c0,0.3,0.1,0.9,0.2,1.6L299.1,44.5z M283.5,17.2c6.3-0.8,11.8,1.8,10.8-0.7c-1.4-3.6-22.4,0.7-22.1,3
	C272.5,22.1,277.2,18,283.5,17.2z M269,30.3c-0.2-1.5,0.9-2.8,2.3-3c1.5-0.2,2.8,0.9,3,2.3c-0.2-1.5,0.9-2.8,2.3-3
	c1.5-0.2,2.8,0.9,3,2.3c-0.2-1.5,0.9-2.8,2.3-3c1.5-0.2,2.8,0.9,3,2.3c-0.2-1.5,0.9-2.8,2.3-3c1.5-0.2,2.8,0.9,3,2.3
	c-0.2-1.5,0.9-2.8,2.3-3c1.5-0.2,2.8,0.9,3,2.3c-0.2-1.5,0.9-2.8,2.3-3c1.5-0.2,2.6,0.9,3,2.3c-1.6-6.4-8.2-3.7-17-2.6
	C275,24.8,268.3,24.4,269,30.3z M298.3,43.4l2.7-16.1c-0.2-1.5-1.5-2.5-3-2.3c-0.8,0.1-1.5,0.6-1.9,1.2L294.8,43l-0.6-17.1
	c-0.5-0.2-1-0.3-1.5-0.3c-0.8,0.1-1.4,0.5-1.8,1.1l-0.3,16.8L289,26.6c-0.5-0.3-1-0.4-1.6-0.3c-0.7,0.1-1.3,0.5-1.8,1l1.1,16.7
	l-3-16.7c-0.5-0.3-1.1-0.4-1.7-0.3c-0.7,0.1-1.3,0.4-1.7,0.9l2.6,16.9L278.5,28c-0.5-0.3-1.1-0.5-1.7-0.4c-0.6,0.1-1.2,0.4-1.6,0.8
	l3.5,16.8l-5.4-16.5c-0.5-0.4-1.2-0.5-1.8-0.4c-1.5,0.2-2.5,1.5-2.3,3l6.5,15L298.3,43.4z"/>
<path id="Tape_Back" class="rpl2-1" d="M329.3,298c0,12.8,6.7,20.3,6.7,20.3h-71.5v-40.5H336C336,277.8,329.3,285.3,329.3,298z
	 M95.7,298c0,12.8-6.7,20.3-6.7,20.3h71.5v-40.5H89C89,277.8,95.7,285.3,95.7,298z"/>
<g id="Roses">
	<g>
		<path class="st3" d="M134.8,197.3c6.1,7.1,10.3,13.9,9.6,21.7c-0.5,6.1-4.5,9.9-9.7,9s-7.8-4.2-7.4-9.9
			C127.9,210.7,134.3,208.7,134.8,197.3z"/>
		<path class="st4" d="M134.8,197.3c6.6,13.1-0.3,23.2-0.1,30.7C131.5,217,138.9,208.2,134.8,197.3z"/>
		<path class="st5" d="M134.7,201c-0.5,6.4-5.4,10.8-6.5,14.8c-1.1,4,0.9,7.5,1.2,7.9C130.1,211.8,136,210,134.7,201z"/>
	</g>
	<g>
		<path class="st6" d="M142.3,228.8c0,0,4-3.9,8.1-1.7c4.2,2.2,0.2,7.9,0.2,7.9l-6.2,6.2c0,0-0.9,0.7-2.9,5.1
			c-2,4.4-11.3,3.1-9.7-3.2S142.3,228.8,142.3,228.8z"/>
		<path class="st7" d="M152.2,229.3c-2.7,7-5.9,7.8-7.4,9.4c-2.1,2.1-2.6,8-5.4,9.6c4.6-2.1,5-1.2,9.3-6.3
			C153.4,236.3,153.7,233,152.2,229.3z"/>
		<path class="st6" d="M129.8,214c0,0-3.6,1-4-2.1c-0.4-3.1,3.5-4,3.5-4l5-0.2c0,0,0.6,0.1,3.3-1.2c2.7-1.3,5.2,3.7,1.8,6.1
			S129.8,214,129.8,214z"/>
		<path class="st7" d="M126.2,210c4.1-2.3,5.6-1.2,6.8-1.3c1.7-0.1,4.5-2.8,6.2-2.3c-2.5-1.1-2.2-1.7-6-1.2
			C129,205.9,127.4,207.4,126.2,210z"/>
		<path class="st8" d="M131.8,243.1c0.2-0.7,0.5-1.5,0.8-2.2c2,0.6,4.5,2,4.5,5.1c0,1.3-0.4,2.2-1.1,2.9
			C133.3,248.5,130.8,246.6,131.8,243.1z"/>
		<path class="st6" d="M129.7,240.7c0,0,6.3,0.4,6.4,5.1c0.1,4.7-6.8,4-6.8,4l-8.5-2.3c0,0-1.1-0.5-5.8,0c-4.8,0.4-8.3-8.2-2.1-9.9
			S129.7,240.7,129.7,240.7z"/>
		<path class="st7" d="M135.1,248.5c-7.4,1.1-9.7-1.2-11.8-1.8c-2.9-0.8-8.2,1.7-11,0.1c4.1,2.9,3.5,3.8,10.1,4.9
			C129.5,253,132.5,251.6,135.1,248.5z"/>
		<path class="st6" d="M139.6,215.7c0,0-2.5-4.2,1.6-5.3s6.6,3.5,6.6,3.5l1.8,6.1c0,0,0.1,0.8,2.7,3.8c2.6,3-3.4,7.3-7.8,3.6
			C140.2,223.6,139.6,215.7,139.6,215.7z"/>
		<path class="st8" d="M144.5,227.2c-0.3-0.3-0.6-0.6-0.9-0.9c1.5-1,4.4-2.4,7.4-0.8c0.7,0.4,1.1,0.8,1.4,1.3c-0.3,0.4-0.6,0.7-1,1
			c-0.3-0.3-0.6-0.5-1-0.7C148.2,225.9,146,226.5,144.5,227.2z"/>
		<path class="st7" d="M144,210.5c4.4,4.5,3.4,6.6,3.8,8.1c0.6,2,5.3,4.9,5.1,7.1c0.7-3.3,1.7-3.1-0.3-7.7
			C150.5,213,147.9,211.4,144,210.5z"/>
		<path class="st6" d="M113.9,223.1c0,0-4.2,2.5-5.3-1.6c-1.1-4.1,3.5-6.6,3.5-6.6l6.1-1.8c0,0,0.8-0.1,3.8-2.6
			c3-2.6,7.3,3.5,3.6,7.8C121.8,222.6,113.9,223.1,113.9,223.1z"/>
		<path class="st7" d="M108.7,218.7c4.6-4.3,6.6-3.3,8.1-3.8c2-0.6,5-5.3,7.2-5.1c-3.3-0.7-3.1-1.7-7.7,0.2
			C111.3,212.2,109.6,214.7,108.7,218.7z"/>
		<path class="st6" d="M114.3,237.9c0,0,0.6,4.8-3.6,4.3c-4.2-0.5-4.8-5.8-4.8-5.8l0.7-6.3c0,0,0.2-0.8-1-4.5
			c-1.2-3.8,6-5.4,8.6-0.2S114.3,237.9,114.3,237.9z"/>
		<g>
			<path class="st8" d="M109.5,241.9c-0.4-0.2-0.7-0.4-1-0.6c0.1-1.8,1.1-3.5,3.6-4.2c0.8-0.2,1.6-0.3,2.5-0.4
				c-0.1,0.2-0.1,0.4-0.2,0.6c-0.5,0.1-1.1,0.1-1.6,0.3C110.4,238.2,109.5,240,109.5,241.9z"/>
		</g>
		<path class="st7" d="M108.2,241c-2.2-5.9-0.5-7.4-0.3-8.9c0.2-2.1-2.9-6.6-1.9-8.6c-1.9,2.8-2.8,2.2-2.8,7.2
			C103.2,236.1,104.9,238.6,108.2,241z"/>
		<path class="st6" d="M133.9,234.4l-5,2.9c0,0,3.9,1.4,4.7,3.5c0.8,2,14.8-3.5,10.5-15.6c-1.6-0.8-3.9,2.5-4.1,2.7
			C139.8,227.8,133.9,234.4,133.9,234.4z"/>
		<g>
			<path class="st8" d="M141.6,226c0.6-0.8,1.5-1.5,2.5-0.9C143.3,224.7,142.4,225.3,141.6,226z"/>
			<path class="st8" d="M144,225.1c5.6,14.1-8.6,19-9.6,16.7c-0.1-0.2-0.2-0.4-0.4-0.7C136.7,241.7,148,236.2,144,225.1z"/>
			<path class="st8" d="M133.3,240.2c-1.7-1.6-4.2-2.7-4.2-2.7l0.2-0.1C130.1,237.8,132.3,238.8,133.3,240.2z"/>
		</g>
		<polygon class="st6" points="137.1,222.2 141.4,219.9 143.4,221.1 143.2,223.4 140.5,227.1 138.8,228.9 135.4,232.8 131.7,231.6 
			130.9,228.9 		"/>
		<polygon class="st6" points="116.4,229.5 120.2,230.8 125.9,233.9 128.6,236.6 128.6,238.3 125.9,238.5 123.6,238.9 118.1,238.4 
			116,237.3 114.3,235.6 113.4,233.6 113.4,231.6 114.8,229.3 		"/>
		<path class="st8" d="M116.7,230.2c7.2,3.9,7.8,8.3,7.8,8.3l4-0.4c0,0,7.7-7.6,11.5-10.4c-1-1.7-2.5-1.6-0.6-8.9
			C140.3,214.8,109.5,226.3,116.7,230.2z"/>
		<path class="st6" d="M120.4,216.9l-4.3,1.1l-4.3,3.1c0,0-1.1,1.6-1.1,1.8c0,0.1,0.5,1.8,0.6,1.9c0.1,0.1,1.8,1.9,1.8,1.9l1.5,1.1
			l3.3,1.2l2.1,0.5l4.2-0.7l2.7-0.8l-2.2-3.2L120.4,216.9z"/>
		<path class="st6" d="M131.7,226.2c0,0,7-6.5,6-10.5c-0.9-4.1-7.9-3.2-12.3-1.6s-6.5,3.4-6.5,6.4c-0.1,3,10.1,5.1,10.1,5.1
			L131.7,226.2z"/>
		<path class="st8" d="M133.2,236.8l3.4,0c0,0,1,0.7,2.7,2.6c1.6,1.8-10.9,12.5-20.2,1.4c0-2,3.9-2,4.1-2.1
			C123.2,238.6,133.2,236.8,133.2,236.8z"/>
		<path class="st6" d="M132.7,237.3l3,0c0,0,1.1,0.3,2.6,2c1.4,1.6-9.9,11.5-18.7,2.1c0-1.8,4.1-2.3,4.2-2.4
			C124,238.9,132.7,237.3,132.7,237.3z"/>
		<path class="st9" d="M123.8,220.5c0,0-0.9-0.1-0.8-1.6c0.1-1.5,3.1-2.5,5.9-2.5c2.7,0,3.3,0.8,3.5,1.9c0.4,1.9-2.5,3.8-2.5,3.8
			L123.8,220.5z"/>
		<path class="st8" d="M129,219c-1.7,1.3-4.3,1.8-5.2,1.5c2.8,1.9,2.7,2.7,2.7,2.7l3.4-1.1C129.9,222,128.8,220.9,129,219z"/>
		<path class="st8" d="M121.8,223.9c2.8,1.9,4.1,4.6,4.1,4.6l4.1,1.8l2-4.4c0,0-0.1-4.1,0.7-5.2c0.8-1.1-3,2.6-3,2.6
			S123,223.2,121.8,223.9z"/>
		<path class="st7" d="M118.9,220.5c-1,1.8,1.7,4.8,2.5,5.1c0.3-0.8,2.2-1.1,2.2-1.1l0.6,0.8l0.5-0.7l0.3,0.6c0,0,4,0,7.8-3.3
			c-0.4-0.9-0.4-0.9-0.4-0.9l0.7,0.5c0,0,1.4-2.2,0.5-3.5s-3.1-3-4.6-1.6c2.2,0.7,3.2,2.5,2.8,3.3c-0.6,1-0.2,2.1-5.1,3.1
			C121.7,223.8,119.1,221.5,118.9,220.5z"/>
		<path class="st7" d="M119.2,218.6c0.8-1.1,0.9-3.9,7.9-7c7-3.2,11.1-0.5,11.1-0.5l-0.8,1.3l1.5-0.7c0,0,1.7,0.8,1.7,3.6
			c0.1,2.8-2.6,9.6-2.8,9.7c-0.2,0.1-2-0.8-2-0.8l1.5,2.6c0,0-8.1,2.3-10.2,10.9c-0.4-5.1,2.4-11.1,5.7-14c3.3-2.8,6.1-7.5,2-10
			C131.1,211.3,122,214.7,119.2,218.6z"/>
		<path class="st7" d="M119.9,217.4c-5,1.7-9.4,3.7-7.8,6.9c1.9,3.9,9.1,5.2,13.6,3.7s6,0,6.7,0.4c-3.8-1-11.4,2.7-12.3,3.4
			c-0.9,0.7-1.5-1.9-1.5-1.9s-1.2,0.9-0.2,2.7c-3.2-0.2-4.4-1.5-5.1-2.6c-0.8-0.4-0.3-1.6-0.3-1.6l-1.1,0.4c0,0-3.1-1.1-2.9-4.4
			c0.2-3,1.9-7.5,11.4-8L119.9,217.4z"/>
		<path class="st7" d="M135.7,237.3c-6.1-2.3-12.8,4.2-20.1-1.2c-2.5-2.7-1.4-5.2-1.4-5.2l-0.6-0.5c0,0-1.4,1.3-1.5,3.6
			c-0.1,2.3,0.7,5.8,1.6,5.9s1.2-1.4,1.2-1.4s0.7,0.4-0.4,1.7c4.6,3.1,10.4,2.2,11,1.4s0.8-2.5,0.8-2.5s0.3,0.4,0.4,1.8
			S132.1,237.4,135.7,237.3z"/>
		<path class="st7" d="M140,219.4l-0.9,2.7c0,0,1.5-2,3-0.7c3.6,3.4-11.8,12.6-12.7,15.7c6.1-3.9,8.1-2.6,10.2-6
			c-0.8-0.8-0.4-2-0.4-2s0.2,0.4,1.3,0.8c6.6-3.5,5-9.8,6.3-11.1c-1-1.4-3.2,0-3.2,0s0.1-0.8,2.3-1.8
			C142.3,216.6,140,219.4,140,219.4z"/>
	</g>
	<g>
		<path class="st3" d="M153.1,235.4c2.4,11,3,20.5-2.1,28.5c-4,6.2-10.4,8-15.4,4c-4.9-4-5.8-8.9-2.2-14.7
			C138.2,245.7,146.1,247.1,153.1,235.4z"/>
		<path class="st4" d="M153.1,235.4c-0.4,17.6-13.4,24.4-17.5,32.4C138.4,254.4,151.2,249.3,153.1,235.4z"/>
		<path class="st5" d="M150.9,239.3c-4.2,6.5-11.8,8.3-15.2,12c-3.4,3.7-3.3,8.4-3.2,9.1C140,248.1,147.2,249.5,150.9,239.3z"/>
	</g>
	<g>
		<path class="st3" d="M125.5,226.3c7.5,5.6,13.1,11.2,14.3,19c0.9,6.1-2.2,10.7-7.4,10.9c-5.3,0.2-8.5-2.4-9.4-8
			C121.7,241,127.5,237.5,125.5,226.3z"/>
		<path class="st4" d="M125.5,226.3c9.4,11.3,4.9,22.6,6.8,29.9C126.6,246.3,131.9,236.1,125.5,226.3z"/>
		<path class="st5" d="M126.2,229.9c0.9,6.4-2.8,11.7-3,15.9c-0.1,4.2,2.5,7.1,2.9,7.4C124.2,241.5,129.4,238.4,126.2,229.9z"/>
	</g>
	<g>
		<path class="st3" d="M109.5,237.7c9.1,2.1,16.5,5,20.7,11.7c3.2,5.2,2.3,10.7-2.5,13c-4.8,2.3-8.8,1.2-11.8-3.6
			C111.9,252.6,115.8,247.2,109.5,237.7z"/>
		<path class="st4" d="M109.5,237.7c13.1,6.6,13.6,18.8,18.2,24.7C118.5,255.5,119.2,244.1,109.5,237.7z"/>
		<path class="st5" d="M111.6,240.7c3.4,5.5,2.1,11.9,3.6,15.7s5.1,5.5,5.7,5.7C114.3,252.2,118,247.2,111.6,240.7z"/>
	</g>
	<g>
		<path class="st3" d="M100.5,292.2c7.4,5.7,14.3,9.6,22.2,8.6c6.1-0.8,9.7-5,8.5-10.1c-1.2-5.1-4.6-7.5-10.3-6.9
			C113.6,284.6,111.8,291.1,100.5,292.2z"/>
		<path class="st4" d="M100.5,292.2c13.4,6,23.1-1.4,30.6-1.6C120,287.9,111.6,295.7,100.5,292.2z"/>
		<path class="st5" d="M104.2,291.9c6.4-0.9,10.5-5.9,14.5-7.2c4-1.3,7.5,0.5,8,0.8C114.8,286.8,113.3,292.7,104.2,291.9z"/>
	</g>
	<g>
		<path class="st3" d="M88.1,271.8c4.6,8.2,9.4,14.4,17,16.6c5.9,1.7,10.9-0.8,11.8-6c0.9-5.2-1.3-8.7-6.8-10.3
			C103.1,270,98.9,275.3,88.1,271.8z"/>
		<path class="st4" d="M88.1,271.8c10,10.7,21.8,7.8,28.8,10.6C107.7,275.6,96.9,279.4,88.1,271.8z"/>
		<path class="st5" d="M91.6,273c6.2,1.7,12-1.3,16.1-0.9c4.2,0.4,6.7,3.4,7,3.9C103.3,272.5,99.6,277.3,91.6,273z"/>
	</g>
	<g>
		<path class="st6" d="M136.7,264.4c0,0,4.4-4.3,9-1.9c4.6,2.5,0.2,8.8,0.2,8.8l-6.9,6.9c0,0-1,0.8-3.2,5.6
			c-2.2,4.9-12.6,3.5-10.7-3.5C126.8,273.4,136.7,264.4,136.7,264.4z"/>
		<path class="st7" d="M147.7,265c-3,7.7-6.5,8.7-8.3,10.4c-2.3,2.3-2.9,8.9-6,10.7c5.1-2.3,5.6-1.3,10.3-7
			C149,272.8,149.4,269.2,147.7,265z"/>
		<path class="st6" d="M122.8,248c0,0-4,1.1-4.4-2.3c-0.4-3.4,3.9-4.5,3.9-4.5l5.5-0.2c0,0,0.7,0.1,3.7-1.3s5.8,4.1,2,6.8
			S122.8,248,122.8,248z"/>
		<path class="st7" d="M118.8,243.6c4.5-2.5,6.2-1.3,7.5-1.4c1.9-0.1,5-3.2,6.9-2.6c-2.8-1.2-2.5-1.9-6.7-1.3
			C121.9,239,120.2,240.7,118.8,243.6z"/>
		<path class="st8" d="M125,280.4c0.2-0.8,0.5-1.6,0.9-2.5c2.2,0.7,4.9,2.2,5.1,5.6c0,1.5-0.5,2.5-1.3,3.2
			C126.7,286.4,124,284.2,125,280.4z"/>
		<path class="st6" d="M122.7,277.7c0,0,7,0.5,7.1,5.7c0.2,5.2-7.5,4.5-7.5,4.5l-9.5-2.6c0,0-1.2-0.5-6.5,0s-9.3-9.2-2.3-11.1
			C111,272.3,122.7,277.7,122.7,277.7z"/>
		<path class="st7" d="M128.7,286.3c-8.2,1.2-10.8-1.3-13.2-2c-3.2-0.9-9.1,1.9-12.2,0.1c4.6,3.2,3.9,4.2,11.2,5.5
			C122.5,291.4,125.9,289.8,128.7,286.3z"/>
		<path class="st6" d="M133.7,249.9c0,0-2.8-4.6,1.8-5.9s7.4,3.8,7.4,3.8l2,6.7c0,0,0.1,0.9,3,4.2c2.9,3.3-3.8,8.1-8.7,4
			C134.4,258.7,133.7,249.9,133.7,249.9z"/>
		<path class="st8" d="M139.1,262.7c-0.4-0.3-0.7-0.6-1-1c1.7-1.2,4.9-2.7,8.2-0.9c0.7,0.4,1.2,0.9,1.6,1.4
			c-0.3,0.4-0.7,0.8-1.1,1.1c-0.3-0.3-0.7-0.6-1.1-0.8C143.2,261.2,140.8,261.9,139.1,262.7z"/>
		<path class="st7" d="M138.6,244.1c4.8,5,3.8,7.3,4.3,9c0.7,2.3,5.9,5.5,5.7,7.9c0.8-3.7,1.9-3.5-0.3-8.5
			C145.9,246.9,143,245.1,138.6,244.1z"/>
		<path class="st6" d="M105.2,258.1c0,0-4.7,2.7-5.9-1.8c-1.3-4.5,3.9-7.4,3.9-7.4l6.7-2c0,0,0.9-0.1,4.2-2.9s8.1,3.9,4,8.7
			C113.9,257.5,105.2,258.1,105.2,258.1z"/>
		<path class="st7" d="M99.3,253.2c5.1-4.8,7.3-3.7,9-4.2c2.3-0.7,5.5-5.8,8-5.6c-3.7-0.8-3.5-1.9-8.5,0.2
			C102.2,245.9,100.4,248.8,99.3,253.2z"/>
		<path class="st6" d="M105.6,274.6c0,0,0.7,5.4-4,4.8c-4.7-0.6-5.3-6.4-5.3-6.4l0.8-7c0,0,0.3-0.8-1.1-5s6.7-6,9.6-0.3
			C108.5,266.3,105.6,274.6,105.6,274.6z"/>
		<g>
			<path class="st8" d="M100.3,279c-0.4-0.2-0.8-0.4-1.1-0.6c0.1-2.1,1.3-3.9,4-4.7c0.9-0.2,1.8-0.4,2.8-0.4
				c-0.1,0.3-0.1,0.5-0.2,0.7c-0.6,0.1-1.2,0.2-1.8,0.3C101.3,275,100.2,276.9,100.3,279z"/>
		</g>
		<path class="st7" d="M98.8,278c-2.5-6.5-0.6-8.2-0.4-9.9c0.3-2.4-3.2-7.4-2.1-9.5c-2.2,3.1-3.1,2.5-3.1,8
			C93.2,272.6,95.2,275.4,98.8,278z"/>
		<path class="st6" d="M127.4,270.7l-5.6,3.2c0,0,4.3,1.6,5.2,3.8c0.9,2.2,16.4-3.9,11.6-17.4c-1.7-0.9-4.4,2.8-4.5,2.9
			S127.4,270.7,127.4,270.7z"/>
		<g>
			<path class="st8" d="M135.9,261.3c0.7-0.8,1.7-1.6,2.7-1C137.8,259.9,136.8,260.5,135.9,261.3z"/>
			<path class="st8" d="M138.7,260.3c6.2,15.7-9.6,21.1-10.7,18.5c-0.1-0.3-0.3-0.5-0.4-0.7C130.5,278.8,143.1,272.7,138.7,260.3z"
				/>
			<path class="st8" d="M126.7,277.1c-1.8-1.7-4.7-3-4.7-3l0.2-0.1C123.1,274.4,125.6,275.6,126.7,277.1z"/>
		</g>
		<polygon class="st6" points="130.9,257.2 135.7,254.6 138,255.9 137.7,258.5 134.8,262.6 132.8,264.6 129,268.9 124.9,267.6 
			124,264.6 		"/>
		<polygon class="st6" points="107.9,265.2 112.1,266.6 118.5,270.1 121.4,273.1 121.4,275.1 118.5,275.3 116,275.7 109.8,275.1 
			107.5,273.9 105.5,272 104.6,269.8 104.5,267.6 106.2,265 		"/>
		<path class="st8" d="M108.2,266c8,4.4,8.7,9.2,8.7,9.2l4.4-0.4c0,0,8.6-8.5,12.7-11.6c-1.1-1.9-2.8-1.8-0.7-9.9
			C134.5,248.9,100.3,261.7,108.2,266z"/>
		<path class="st6" d="M112.3,251.3l-4.8,1.3l-4.8,3.4c0,0-1.2,1.8-1.2,2c0,0.2,0.6,2,0.7,2.1s2,2.1,2,2.1l1.7,1.3l3.7,1.4l2.4,0.5
			l4.6-0.8l3.1-0.9l-2.4-3.6L112.3,251.3z"/>
		<path class="st6" d="M124.9,261.6c0,0,7.7-7.2,6.7-11.7s-8.8-3.6-13.7-1.8c-4.9,1.8-7.2,3.8-7.3,7.1s11.2,5.7,11.2,5.7
			L124.9,261.6z"/>
		<path class="st8" d="M126.6,273.4l3.8,0c0,0,1.1,0.8,2.9,2.9c1.8,2-12.1,13.9-22.5,1.5c0-2.2,4.3-2.2,4.5-2.3
			C115.5,275.4,126.6,273.4,126.6,273.4z"/>
		<path class="st6" d="M126.1,273.9l3.3,0c0,0,1.3,0.4,2.8,2.2s-11,12.8-20.8,2.3c0-2,4.5-2.6,4.7-2.7
			C116.3,275.7,126.1,273.9,126.1,273.9z"/>
		<path class="st9" d="M116.2,255.2c0,0-1-0.2-0.9-1.8c0.1-1.6,3.5-2.8,6.5-2.8s3.6,0.9,3.9,2.1c0.4,2.1-2.8,4.2-2.8,4.2
			L116.2,255.2z"/>
		<path class="st8" d="M121.9,253.5c-1.9,1.4-4.8,2-5.8,1.6c3.1,2.1,3,3,3,3l3.8-1.2C122.9,256.9,121.7,255.6,121.9,253.5z"/>
		<path class="st8" d="M113.9,259c3.1,2.2,4.6,5.2,4.6,5.2l4.6,2l2.2-4.9c0,0-0.1-4.6,0.8-5.8c0.9-1.2-3.4,2.9-3.4,2.9
			S115.3,258.2,113.9,259z"/>
		<path class="st7" d="M110.7,255.2c-1.2,2,1.9,5.4,2.8,5.7c0.4-0.9,2.5-1.2,2.5-1.2l0.7,0.8l0.6-0.8l0.3,0.7c0,0,4.5,0,8.7-3.7
			c-0.5-1-0.5-1-0.5-1l0.7,0.5c0,0,1.5-2.4,0.5-3.9s-3.4-3.4-5.1-1.8c2.5,0.8,3.6,2.8,3.1,3.7c-0.7,1.1-0.2,2.4-5.6,3.5
			C113.8,258.9,110.9,256.3,110.7,255.2z"/>
		<path class="st7" d="M111.1,253.2c0.9-1.2,1-4.3,8.8-7.8s12.4-0.6,12.4-0.6l-0.9,1.4l1.7-0.8c0,0,1.8,0.9,1.9,4
			c0.1,3.1-2.9,10.7-3.1,10.8c-0.2,0.1-2.2-0.9-2.2-0.9l1.7,2.9c0,0-9,2.6-11.3,12.1c-0.4-5.6,2.6-12.4,6.3-15.5
			c3.7-3.1,6.8-8.3,2.2-11.1C124.3,245,114.2,248.8,111.1,253.2z"/>
		<path class="st7" d="M111.8,251.8c-5.6,1.8-10.4,4.1-8.7,7.7c2.1,4.4,10.1,5.8,15.1,4.1c5-1.6,6.7,0,7.5,0.4
			c-4.2-1.1-12.7,3-13.7,3.8c-1,0.8-1.7-2.1-1.7-2.1s-1.3,1-0.2,3c-3.5-0.3-4.9-1.7-5.6-2.9c-0.9-0.5-0.3-1.8-0.3-1.8l-1.2,0.4
			c0,0-3.5-1.3-3.2-4.9c0.3-3.3,2.1-8.4,12.6-8.9L111.8,251.8z"/>
		<path class="st7" d="M129.4,273.9c-6.8-2.5-14.3,4.7-22.3-1.3c-2.8-3-1.6-5.8-1.6-5.8l-0.7-0.5c0,0-1.6,1.5-1.6,4s0.8,6.4,1.8,6.6
			c1,0.2,1.3-1.5,1.3-1.5s0.7,0.4-0.4,1.8c5.1,3.4,11.6,2.4,12.2,1.5c0.6-0.9,0.9-2.8,0.9-2.8s0.3,0.4,0.4,2.1
			C119.4,279.6,125.3,274,129.4,273.9z"/>
		<path class="st7" d="M134.1,254l-1,3c0,0,1.6-2.2,3.3-0.8c4,3.8-13.1,14-14.1,17.5c6.8-4.3,9-2.9,11.3-6.7
			c-0.9-0.9-0.4-2.3-0.4-2.3s0.3,0.5,1.4,0.9c7.3-3.8,5.6-10.9,7-12.3c-1.1-1.5-3.5,0-3.5,0s0.1-0.9,2.6-2
			C136.7,250.8,134.1,254,134.1,254z"/>
	</g>
	<g>
		<path class="st3" d="M336.2,272.6c-5.6,7.5-11.2,13.1-19,14.3c-6.1,0.9-10.7-2.1-10.9-7.4c-0.2-5.3,2.4-8.5,8-9.4
			C321.5,268.9,325,274.6,336.2,272.6z"/>
		<path class="st4" d="M336.2,272.6c-11.2,9.4-22.6,5-29.9,6.9C316.2,273.8,326.4,279,336.2,272.6z"/>
		<path class="st5" d="M332.5,273.3c-6.4,0.9-11.7-2.8-15.9-2.9c-4.2-0.1-7.1,2.5-7.4,3C321,271.3,324.1,276.6,332.5,273.3z"/>
	</g>
	<g>
		<path class="st3" d="M267,243.9c-2.8,8.9-4.1,16.8-0.5,23.7c2.8,5.4,8,7.4,12.4,4.5s5.5-6.9,2.9-12
			C278.6,253.6,271.9,254.2,267,243.9z"/>
		<path class="st4" d="M267,243.9c-1,14.6,9.2,21.3,11.9,28.3C277.7,260.8,267.5,255.5,267,243.9z"/>
		<path class="st5" d="M268.5,247.3c3,5.7,9.1,7.8,11.7,11.2c2.5,3.3,2.1,7.2,2,7.8C276.9,255.5,270.8,256.1,268.5,247.3z"/>
	</g>
	<g>
		<path class="st3" d="M326.4,296.3c-9.4,0.5-17.2-0.2-23.1-5.5c-4.6-4.1-5.2-9.6-1.3-13.1c3.9-3.5,8.1-3.6,12.4,0.2
			C319.9,282.7,317.6,289,326.4,296.3z"/>
		<path class="st4" d="M326.4,296.3c-14.4-2.7-18.3-14.3-24.4-18.6C312.7,281.8,315.2,293,326.4,296.3z"/>
		<path class="st5" d="M323.5,294c-4.8-4.3-5.3-10.8-7.9-14.1c-2.6-3.3-6.5-3.9-7-3.8C317.6,283.8,315.5,289.6,323.5,294z"/>
	</g>
	<g>
		<path class="st6" d="M285.7,255.7c0,0-4.6-4.7-9.6-2.3c-5,2.5-0.5,9.3-0.5,9.3l7.2,7.6c0,0,1.1,0.9,3.3,6.1s13.3,4.1,11.6-3.4
			C295.9,265.6,285.7,255.7,285.7,255.7z"/>
		<path class="st7" d="M273.9,256c2.9,8.3,6.7,9.5,8.5,11.4c2.4,2.6,2.8,9.6,6,11.6c-5.3-2.7-5.9-1.6-10.8-7.8
			C272.2,264.3,272,260.4,273.9,256z"/>
		<path class="st6" d="M301,238.6c0,0,4.2,1.3,4.8-2.3c0.6-3.6-4.1-4.9-4.1-4.9l-5.9-0.4c0,0-0.8,0.1-3.9-1.5
			c-3.1-1.6-6.4,4.2-2.4,7.2S301,238.6,301,238.6z"/>
		<path class="st7" d="M305.4,234c-4.8-2.8-6.6-1.6-8-1.7c-2-0.1-5.3-3.5-7.3-3c3-1.2,2.7-2,7.2-1.2
			C302.2,229,304.1,230.9,305.4,234z"/>
		<path class="st8" d="M297.6,273.1c-0.2-0.9-0.5-1.8-0.9-2.7c-2.4,0.7-5.4,2.2-5.6,5.8c-0.1,1.5,0.4,2.7,1.2,3.4
			C295.6,279.5,298.6,277.3,297.6,273.1z"/>
		<path class="st6" d="M300.2,270.3c0,0-7.5,0.3-7.8,5.9c-0.3,5.6,7.9,5,7.9,5l10.2-2.5c0,0,1.3-0.5,6.9,0.2
			c5.7,0.7,10.2-9.5,2.8-11.7C312.8,264.9,300.2,270.3,300.2,270.3z"/>
		<path class="st7" d="M293.5,279.3c8.7,1.6,11.6-1.1,14.1-1.7c3.4-0.8,9.7,2.4,13.1,0.5c-5,3.3-4.3,4.3-12.1,5.5
			C299.9,284.9,296.4,283.1,293.5,279.3z"/>
		<path class="st6" d="M289.3,240.3c0,0,3.1-4.9-1.7-6.4c-4.8-1.5-8,3.9-8,3.9l-2.4,7.1c0,0-0.1,0.9-3.3,4.4
			c-3.2,3.5,3.8,8.8,9.1,4.6C288.3,249.7,289.3,240.3,289.3,240.3z"/>
		<path class="st8" d="M283.1,253.8c0.4-0.3,0.8-0.7,1.1-1c-1.8-1.3-5.1-3-8.7-1.2c-0.8,0.4-1.4,0.9-1.7,1.5
			c0.3,0.4,0.7,0.8,1.2,1.2c0.3-0.3,0.7-0.6,1.2-0.8C278.8,252.1,281.3,252.8,283.1,253.8z"/>
		<path class="st7" d="M284.3,233.9c-5.3,5.2-4.2,7.7-4.8,9.5c-0.8,2.4-6.5,5.7-6.3,8.3c-0.7-4-1.9-3.8,0.6-9.1
			C276.4,236.7,279.6,234.8,284.3,233.9z"/>
		<path class="st6" d="M319.5,250c0,0,4.9,3.1,6.4-1.7s-3.9-8-3.9-8l-7.1-2.3c0,0-0.9-0.1-4.4-3.3c-3.5-3.1-8.8,3.9-4.5,9.2
			C310.2,249.1,319.5,250,319.5,250z"/>
		<path class="st7" d="M325.9,244.9c-5.2-5.3-7.7-4.2-9.5-4.8c-2.4-0.8-5.7-6.4-8.3-6.3c4-0.7,3.8-1.9,9.1,0.5
			C323,237.1,324.9,240.2,325.9,244.9z"/>
		<path class="st6" d="M318.5,267.5c0,0-0.9,5.7,4.1,5.2c5-0.5,5.8-6.7,5.8-6.7l-0.6-7.5c0,0-0.3-0.9,1.3-5.3
			c1.5-4.4-7-6.6-10.2-0.6C315.7,258.6,318.5,267.5,318.5,267.5z"/>
		<g>
			<path class="st8" d="M324,272.4c0.4-0.2,0.8-0.4,1.2-0.6c0-2.2-1.2-4.2-4.2-5.1c-0.9-0.3-1.9-0.4-2.9-0.5
				c0.1,0.3,0.1,0.5,0.2,0.7c0.6,0.1,1.3,0.2,1.9,0.4C323.1,268.1,324.2,270.2,324,272.4z"/>
		</g>
		<path class="st7" d="M325.7,271.4c2.8-6.9,0.9-8.7,0.7-10.6c-0.2-2.5,3.7-7.7,2.6-10.1c2.2,3.4,3.2,2.7,3,8.6
			C331.8,265.8,329.6,268.7,325.7,271.4z"/>
		<path class="st6" d="M295.4,262.7l5.8,3.6c0,0-4.7,1.6-5.7,3.9s-17.4-4.7-11.8-18.9c1.9-0.9,4.6,3.2,4.7,3.3
			C288.6,254.7,295.4,262.7,295.4,262.7z"/>
		<g>
			<path class="st8" d="M286.6,252.4c-0.7-0.9-1.7-1.8-2.9-1.1C284.6,250.8,285.7,251.5,286.6,252.4z"/>
			<path class="st8" d="M283.7,251.3c-7.1,16.6,9.5,22.8,10.8,20.1c0.1-0.3,0.3-0.5,0.5-0.8C291.9,271.3,278.6,264.3,283.7,251.3z"
				/>
			<path class="st8" d="M295.9,269.5c2-1.8,5.1-3,5.1-3l-0.2-0.1C299.8,266.8,297.1,267.9,295.9,269.5z"/>
		</g>
		<polygon class="st6" points="292.1,248.1 287.1,245.2 284.6,246.6 284.8,249.3 287.8,253.8 289.8,256 293.7,260.7 298.1,259.5 
			299.2,256.2 		"/>
		<polygon class="st6" points="316.3,257.5 311.8,258.9 304.9,262.3 301.7,265.4 301.6,267.5 304.7,267.9 307.4,268.4 314.1,268 
			316.5,266.7 318.7,264.8 319.7,262.4 319.9,260.1 318.2,257.3 		"/>
		<path class="st8" d="M316,258.3c-8.6,4.4-9.6,9.5-9.6,9.5l-4.7-0.6c0,0-8.9-9.3-13.2-12.8c1.3-1.9,3.1-1.9,1.1-10.6
			C288.5,239.2,324.6,254,316,258.3z"/>
		<path class="st6" d="M312.1,242.4l5.1,1.5l5,3.8c0,0,1.2,2,1.2,2.1c0,0.2-0.7,2.2-0.8,2.3c-0.1,0.1-2.2,2.2-2.2,2.2l-1.8,1.3
			l-4,1.3l-2.5,0.5l-4.9-1l-3.2-1.1l2.7-3.7L312.1,242.4z"/>
		<path class="st6" d="M298.3,253c0,0-8-7.9-6.8-12.7s9.5-3.5,14.7-1.5s7.5,4.3,7.5,7.8s-12.1,5.7-12.1,5.7L298.3,253z"/>
		<path class="st8" d="M296.2,265.6l-4-0.2c0,0-1.3,0.8-3.2,3s12.4,15.3,24,2.4c0.1-2.4-4.6-2.5-4.8-2.6
			C307.9,268,296.2,265.6,296.2,265.6z"/>
		<path class="st6" d="M296.7,266.2l-3.5-0.1c0,0-1.4,0.4-3.1,2.2c-1.8,1.9,11.3,14,22.1,3.2c0.1-2.1-4.7-2.9-4.9-3
			C307,268.4,296.7,266.2,296.7,266.2z"/>
		<path class="st9" d="M307.9,246.5c0,0,1.1-0.1,1-1.9s-3.6-3.1-6.9-3.2s-3.9,0.8-4.2,2.1c-0.5,2.2,2.8,4.5,2.8,4.5L307.9,246.5z"/>
		<path class="st8" d="M301.8,244.5c2,1.6,5.1,2.3,6.1,1.9c-3.4,2.1-3.3,3.1-3.3,3.1l-4-1.5C300.6,248.1,301.9,246.8,301.8,244.5z"
			/>
		<path class="st8" d="M310.2,250.6c-3.4,2.2-5.1,5.4-5.1,5.4l-4.9,2l-2.2-5.3c0,0,0.3-4.9-0.6-6.2c-0.9-1.3,3.5,3.2,3.5,3.2
			S308.7,249.7,310.2,250.6z"/>
		<path class="st7" d="M313.7,246.7c1.2,2.2-2.2,5.7-3.1,6c-0.4-1-2.6-1.4-2.6-1.4l-0.8,0.9l-0.6-0.9l-0.4,0.7c0,0-4.8-0.1-9.1-4.2
			c0.5-1,0.5-1,0.5-1l-0.8,0.5c0,0-1.5-2.6-0.5-4.1c1.1-1.5,3.7-3.5,5.5-1.8c-2.7,0.8-3.9,2.8-3.4,3.8c0.7,1.2,0.2,2.5,5.9,3.9
			C310.2,250.5,313.4,247.9,313.7,246.7z"/>
		<path class="st7" d="M313.4,244.5c-1-1.3-0.9-4.6-9.1-8.6c-8.2-4-13.2-1-13.2-1l0.9,1.6l-1.8-0.9c0,0-2,0.9-2.2,4.2
			c-0.2,3.3,2.8,11.5,3,11.6c0.2,0.1,2.4-0.9,2.4-0.9l-1.9,3c0,0,9.6,3.1,11.7,13.3c0.6-6-2.4-13.3-6.2-16.8c-3.8-3.5-7-9.1-2-11.9
			C299.6,235.4,310.2,239.7,313.4,244.5z"/>
		<path class="st7" d="M312.7,243c5.9,2.1,11,4.7,9,8.5c-2.4,4.6-10.9,5.8-16.2,3.9c-5.3-1.9-7.1-0.3-8,0.2
			c4.5-1.1,13.4,3.6,14.5,4.4s1.8-2.2,1.8-2.2s1.4,1.1,0.1,3.2c3.8-0.2,5.3-1.6,6.1-2.9c1-0.5,0.4-1.9,0.4-1.9l1.3,0.5
			c0,0,3.7-1.2,3.5-5.1c-0.2-3.6-2-9-13.2-9.9L312.7,243z"/>
		<path class="st7" d="M293.2,266c7.4-2.5,15.1,5.4,23.9-0.7c3.1-3.2,1.9-6.1,1.9-6.1l0.7-0.5c0,0,1.6,1.6,1.6,4.3
			c0,2.7-1,6.8-2.1,7s-1.3-1.7-1.3-1.7s-0.8,0.4,0.4,2c-5.6,3.5-12.5,2.2-13.1,1.2c-0.6-1-0.9-3-0.9-3s-0.4,0.4-0.5,2.2
			C303.7,272.5,297.5,266.3,293.2,266z"/>
		<path class="st7" d="M288.8,244.7l1,3.3c0,0-1.7-2.4-3.5-0.9c-4.4,3.9,13.5,15.3,14.5,19.1c-7.1-4.8-9.5-3.4-11.8-7.5
			c0.9-0.9,0.5-2.4,0.5-2.4s-0.3,0.5-1.6,0.9c-7.7-4.3-5.6-11.8-7.1-13.4c1.2-1.6,3.8,0.1,3.8,0.1s-0.1-1-2.7-2.2
			C286.1,241.2,288.8,244.7,288.8,244.7z"/>
	</g>
</g>
<path id="Text_Background" class="rpl10-1" d="M305.4,305c0,0-43.5,14.5-92.8,14.5S119.8,305,119.8,305v-40.5h185.5V305z"/>
<rect id="text_background_left" class="svgRibbon" width="85" height="328.1"/>
<rect id="text_background_right" x="340.2" class="svgRibbon" width="85" height="328.1"/>
<g id="Button_Stripe">
	<rect x="0" y="328.1" class="st12" width="425.2" height="26.2"/>
	<rect x="0" y="328.1" class="rpl13-1" width="425.2" height="26.2"/>
</g>
<text id="product" transform="matrix(1 0 0 1 208.9401 346.2487)" class="st14 st15 st16 svgProduct">Product name</text>
<text id="quantity" transform="matrix(1 0 0 1 12.4779 348.0842)" class="st14 st15 st17">220 ml</text>
<path id="AlpStories_LOGO" d="M218.3,43.4c0-0.2,0.1-0.3,0.4-0.3h4.6c0.3,0,0.4,0.1,0.4,0.3v3.9c0,0.2-0.1,0.3-0.4,0.3h-4.6
	c-0.3,0-0.4-0.1-0.4-0.3V43.4z M217.1,43.2v4.3c0,0.8,0.5,1.1,1.3,1.1h5.1c0.8,0,1.3-0.3,1.3-1.1v-4.3c0-0.8-0.5-1.1-1.3-1.1h-5.1
	C217.7,42.1,217.1,42.4,217.1,43.2 M207.7,42.1V43c0,0,0,0.1,0.1,0.1h2.8c0,0,0.1,0,0.1,0.1v5.4c0,0,0,0.1,0.1,0.1h1
	c0,0,0.1,0,0.1-0.1v-5.4c0,0,0-0.1,0.1-0.1h2.8c0,0,0.1,0,0.1-0.1v-0.9c0,0,0-0.1-0.1-0.1L207.7,42.1
	C207.8,42.1,207.7,42.1,207.7,42.1 M196.8,47.1v0.4c0,0.8,0.5,1.1,1.3,1.1h1.9h3.7c0.8,0,1.3-0.3,1.3-1.1v-2.3
	c0-0.8-0.5-1.2-1.3-1.2h-5c-0.3,0-0.4-0.1-0.4-0.3v-1.6c0-0.2,0.1-0.3,0.4-0.3h4.6c0.3,0,0.4,0.1,0.4,0.3v0.1c0,0.1,0.1,0.1,0.1,0.1
	l0.9-0.1c0.1,0,0.1-0.1,0.1-0.1v-0.3c0-0.8-0.5-1.1-1.3-1.1h-5c-0.8,0-1.3,0.3-1.3,1.1v2c0,0.8,0.5,1.1,1.3,1.1h5
	c0.3,0,0.4,0.1,0.4,0.3v1.9c0,0.2-0.1,0.3-0.4,0.3h-5.1c-0.3,0-0.4-0.1-0.4-0.3V47c0-0.1-0.1-0.1-0.1-0.1L197,47
	C196.9,47,196.8,47.1,196.8,47.1 M175.7,48.6C175.7,48.6,175.7,48.6,175.7,48.6l-4.2-7.8c0,0-0.1-0.1-0.1-0.1H170c0,0-0.1,0-0.1,0.1
	l-4.2,7.7c0,0,0,0.1,0,0.1h1.2c0,0,0.1,0,0.1-0.1l3.6-6.7c0,0,0,0,0.1,0c0,0,0,0,0.1,0h0l2.1,3.8l-3.3,0.1c-0.3,0-0.5,0.2-0.5,0.4
	v0.1c0,0.2,0.2,0.4,0.5,0.4l3.8,0.1l1,1.9c0,0,0.1,0.1,0.1,0.1H175.7z M184.5,48.6v-0.9c0,0,0-0.1-0.1-0.1h-4.9c0,0-0.1,0-0.1-0.1
	v-5.4c0,0,0-0.1-0.1-0.1h-1c0,0-0.1,0-0.1,0.1v6.4c0,0.1,0.1,0.1,0.1,0.1L184.5,48.6C184.5,48.6,184.5,48.6,184.5,48.6 M193.9,44.9
	v-1.7c0-0.8-0.5-1.1-1.3-1.1h-5.4c-0.1,0-0.1,0.1-0.1,0.1v6.4c0,0,0,0.1,0.1,0.1l1,0c0,0,0.1,0,0.1-0.1v-5.4c0,0,0-0.1,0.1-0.1h4.1
	c0.3,0,0.4,0.1,0.4,0.3v1.3c0,0.2-0.1,0.3-0.4,0.3l-2.9,0.1c-0.3,0-0.5,0.2-0.5,0.4v0.1c0,0.2,0.2,0.4,0.5,0.4l3.2,0.1
	C193.4,46,193.9,45.7,193.9,44.9 M214.8,27.1c0,0-4.2-8.8-4.2-8.8c-0.3-0.6-0.8-1.1-1.6-1.2c-0.7,0-1.4,0.3-1.8,0.8
	c0,0-11.3,16-11.3,16.1c-0.3,0.4-0.3,0.8-0.2,0.9c0.2,0.1,0.6,0,0.8-0.4c0,0,11-14,11-14c0.3-0.4,0.8-0.8,1.3-0.7
	c0.5,0,0.8,0.4,1,0.9c0,0,3.1,7.2,3.2,7.2c0.3,0.6,0.9,0.9,1.3,0.7C214.9,28.4,215.1,27.7,214.8,27.1 M227.8,30
	c0.3-0.6,0.1-1.4-0.4-1.9c0,0-6.9-8.3-6.9-8.3c-0.2-0.3-0.3-0.5-0.2-0.8c0.1-0.3,0.4-0.5,0.8-0.6c0,0,5.4-1,5.4-1
	c0.3,0,0.5-0.2,0.5-0.5c0-0.2-0.3-0.4-0.6-0.3L219,17c-0.7,0-1.3,0.4-1.5,1c-0.2,0.5,0,1.1,0.3,1.6c0,0,7.1,8.1,7.1,8.1
	c0.2,0.3,0.4,0.7,0.2,1.1c-0.1,0.3-0.4,0.6-0.8,0.7c0,0-17.6,4.2-17.6,4.2c-0.5,0.1-0.8,0.4-0.8,0.6c0,0.2,0.5,0.3,1,0.2
	c0,0,19.4-3.5,19.4-3.5C227,31,227.6,30.6,227.8,30 M235.6,48.6c0.1-0.1,0.1-0.2,0-0.3c0,0-1.5-1.4-2.4-2.3l0.5,0
	c0.8,0,1.3-0.3,1.3-1.1v-1.7c0-0.8-0.5-1.1-1.3-1.1h-5.1c-0.1,0-0.1,0.1-0.1,0.1v6.4c0,0,0,0.1,0.1,0.1l1,0c0,0,0.1,0,0.1-0.1v-5.4
	c0,0,0-0.1,0.1-0.1h3.7c0.3,0,0.4,0.1,0.4,0.3v1.3c0,0.2-0.1,0.3-0.4,0.3l-2.6,0.1c-0.3,0-0.5,0.2-0.5,0.4v0.1
	c0,0.2,0.2,0.4,0.5,0.4l1.1,0l2.4,2.6c0.1,0.1,0.1,0.1,0.2,0.1h1C235.5,48.6,235.6,48.6,235.6,48.6 M239.8,48.6v-6.4
	c0,0,0-0.1-0.1-0.1h-1c0,0-0.1,0-0.1,0.1v6.4c0,0,0,0.1,0.1,0.1L239.8,48.6C239.8,48.6,239.8,48.6,239.8,48.6 M249.9,48.6v-0.9
	c0,0,0-0.1-0.1-0.1h-5.3c0,0-0.1,0-0.1-0.1v-1.9l2.6,0c0.3,0,0.5-0.2,0.5-0.4v-0.1c0-0.2-0.2-0.4-0.5-0.4l-2.6,0v-1.6
	c0,0,0-0.1,0.1-0.1h5.2c0,0,0.1,0,0.1-0.1v-0.9c0,0,0-0.1-0.1-0.1h-6.3c-0.1,0-0.1,0.1-0.1,0.1v6.3c0,0.1,0.1,0.1,0.1,0.1
	L249.9,48.6C249.9,48.6,249.9,48.6,249.9,48.6 M253.6,44.4v-1c0-0.2,0.1-0.3,0.4-0.3h3.8c0.3,0,0.4,0.1,0.4,0.3v0.2
	c0,0.1,0.1,0.1,0.1,0.1l0.9-0.1c0.1,0,0.1-0.1,0.1-0.1v-0.3c0-0.8-0.5-1.1-1.3-1.1h-4.1c-0.8,0-1.3,0.3-1.3,1.1v1.4
	c0,0.8,0.5,1.1,1.3,1.1h4.2c0.3,0,0.4,0.1,0.4,0.3v1.3c0,0.2-0.1,0.3-0.4,0.3h-4.2c-0.3,0-0.4-0.1-0.4-0.3V47c0-0.1-0.1-0.1-0.1-0.1
	l-0.9,0.1c-0.1,0-0.1,0.1-0.1,0.1v0.4c0,0.8,0.5,1.1,1.3,1.1h1.4h3.1c0.8,0,1.3-0.3,1.3-1.1v-1.6c0-0.8-0.5-1.1-1.3-1.1H254
	C253.8,44.8,253.6,44.6,253.6,44.4"/>
<g>
	<path class="st8" d="M257.5,309.6c-0.3,0-0.5,0.2-0.5,0.5c0,1.9-1.6,3.5-3.5,3.5c-1.5,0-2.7-1.2-2.7-2.7c0-1.1,0.9-2.1,2.1-2.1
		c0.9,0,1.5,0.7,1.5,1.5c0,0.6-0.5,1.1-1.1,1.1c-0.3,0-0.5,0.2-0.5,0.5s0.2,0.5,0.5,0.5c1.2,0,2.1-1,2.1-2.1c0-1.4-1.1-2.5-2.5-2.5
		c-1.6,0-2.9,1.2-3,2.8c-0.4-2.1-2-3.9-4.3-4.2c-3.4-0.5-6.6,1.9-7.1,5.3c0,0,0,0,0,0c-0.6,2.6-2.9,4.6-5.7,4.6
		c-2.5,0-4.5-2-4.5-4.5c0-1.9,1.6-3.5,3.5-3.5c1.5,0,2.7,1.2,2.7,2.7c0,1-0.7,1.8-1.6,2c-0.1-0.2-0.3-0.4-0.6-0.4
		c-0.4,0-0.7,0.3-0.7,0.7c0,0.4,0.3,0.7,0.7,0.7c0,0,0,0,0,0c0,0,0.1,0,0.1,0c1.7,0,3.1-1.4,3.1-3.1c0-2.1-1.7-3.7-3.7-3.7
		c-2.5,0-4.5,2-4.5,4.5c0,0.1,0,0.2,0,0.2c-0.4-3.2-3.2-5.7-6.6-5.7c-4.5,0-8.2,3.7-8.2,8.2c0,0.3,0.2,0.5,0.5,0.5s0.5-0.2,0.5-0.5
		c0-4,3.2-7.2,7.2-7.2c3.1,0,5.6,2.5,5.6,5.6c0,2.4-2,4.4-4.4,4.4c-1.9,0-3.4-1.5-3.4-3.4c0-1.5,1.2-2.6,2.6-2.6
		c0.7,0,1.4,0.4,1.7,1c-0.5,0.1-0.8,0.5-0.8,1c0,0.6,0.5,1.1,1.1,1.1s1.1-0.5,1.1-1.1c0,0,0-0.1,0-0.1c-0.1-1.6-1.4-2.9-3-2.9
		c-2,0-3.6,1.6-3.6,3.6c0,2.4,2,4.4,4.4,4.4c3,0,5.4-2.4,5.4-5.4c0-0.1,0-0.2,0-0.3c0.4,2.7,2.7,4.8,5.5,4.8c3.3,0,6-2.3,6.6-5.4
		c0,0,0,0,0,0c0.2-1.4,0.9-2.6,2.1-3.5c1.1-0.8,2.5-1.2,3.9-1c2.2,0.3,3.8,2.4,3.5,4.7c-0.3,1.7-1.9,2.9-3.6,2.7
		c-1.1-0.2-1.9-1.1-2.1-2.1c0.4-0.1,0.7-0.4,0.7-0.8c0-0.5-0.4-0.8-0.8-0.8c-0.5,0-0.8,0.4-0.8,0.8c0,0,0,0,0,0
		c-0.3,1.9,1,3.6,2.9,3.9c0.2,0,0.4,0,0.6,0c2.1,0,3.9-1.5,4.2-3.6c0-0.2,0-0.3,0-0.5c0.4,1.7,1.8,2.9,3.6,2.9c2.5,0,4.5-2,4.5-4.5
		C258,309.8,257.8,309.6,257.5,309.6z"/>
	<path class="st8" d="M204.3,306.2c-3.4,0-6.1,2.5-6.6,5.7c0-0.1,0-0.2,0-0.2c0-2.5-2-4.5-4.5-4.5c-2.1,0-3.7,1.7-3.7,3.7
		c0,1.7,1.4,3.1,3.1,3.1c0,0,0.1,0,0.1,0c0,0,0,0,0,0c0.4,0,0.7-0.3,0.7-0.7c0-0.4-0.3-0.7-0.7-0.7c-0.3,0-0.5,0.1-0.6,0.4
		c-0.9-0.2-1.6-1-1.6-2c0-1.5,1.2-2.7,2.7-2.7c1.9,0,3.5,1.6,3.5,3.5c0,2.5-2,4.5-4.5,4.5c-2.8,0-5.1-2-5.7-4.6c0,0,0,0,0,0
		c-0.5-3.4-3.7-5.8-7.1-5.3c-2.2,0.3-3.9,2.1-4.3,4.2c-0.1-1.6-1.4-2.8-3-2.8c-1.4,0-2.5,1.1-2.5,2.5c0,1.2,1,2.1,2.1,2.1
		c0.3,0,0.5-0.2,0.5-0.5s-0.2-0.5-0.5-0.5c-0.6,0-1.1-0.5-1.1-1.1c0-0.9,0.7-1.5,1.5-1.5c1.1,0,2.1,0.9,2.1,2.1
		c0,1.5-1.2,2.7-2.7,2.7c-1.9,0-3.5-1.6-3.5-3.5c0-0.3-0.2-0.5-0.5-0.5s-0.5,0.2-0.5,0.5c0,2.5,2,4.5,4.5,4.5c1.8,0,3.2-1.2,3.6-2.9
		c0,0.2,0,0.3,0,0.5c0.3,2.1,2.1,3.6,4.2,3.6c0.2,0,0.4,0,0.6,0c1.9-0.3,3.2-2,2.9-3.9c0,0,0,0,0,0c0-0.5-0.4-0.8-0.8-0.8
		c-0.5,0-0.8,0.4-0.8,0.8c0,0.4,0.3,0.7,0.7,0.8c-0.1,1.1-1,2-2.1,2.1c-1.7,0.2-3.4-1-3.6-2.7c-0.3-2.2,1.2-4.3,3.5-4.7
		c1.4-0.2,2.8,0.2,3.9,1c1.1,0.8,1.9,2.1,2.1,3.5c0,0,0,0,0,0c0.6,3.1,3.4,5.4,6.6,5.4c2.8,0,5.1-2.1,5.5-4.8c0,0.1,0,0.2,0,0.3
		c0,3,2.4,5.4,5.4,5.4c2.4,0,4.4-2,4.4-4.4c0-2-1.6-3.6-3.6-3.6c-1.6,0-2.9,1.3-3,2.9c0,0,0,0.1,0,0.1c0,0.6,0.5,1.1,1.1,1.1
		s1.1-0.5,1.1-1.1c0-0.5-0.4-0.9-0.8-1c0.4-0.6,1-1,1.7-1c1.5,0,2.6,1.2,2.6,2.6c0,1.9-1.5,3.4-3.4,3.4c-2.4,0-4.4-2-4.4-4.4
		c0-3.1,2.5-5.6,5.6-5.6c4,0,7.2,3.2,7.2,7.2c0,0.3,0.2,0.5,0.5,0.5s0.5-0.2,0.5-0.5C212.5,309.9,208.8,306.2,204.3,306.2z"/>
</g>
<text id="text1" transform="matrix(1 0 0 1 211.1481 281.2354)" class="st14 st15 st16 editable">Happy birthday!</text>
<text id="text2" transform="matrix(1 0 0 1 211.4484 299.4494)" class="st14 st15 st16 editable">My friend.</text>
<g>
	
		<image style="overflow:visible;" width="28" height="28" id="Icon1" class="st18" transform="matrix(0.5844 0 0 0.5844 400.6709 333.0574)">
	</image>
	
		<image style="overflow:visible;" width="28" height="28" id="Icon2" class="st18" transform="matrix(0.5844 0 0 0.5844 380.1958 333.0574)">
	</image>
	
		<image style="overflow:visible;" width="28" height="28" id="Icon3" class="st18" transform="matrix(0.5844 0 0 0.5844 359.7208 333.0574)">
	</image>
	
		<image style="overflow:visible;" width="28" height="28" id="Icon4" class="st18" transform="matrix(0.5844 0 0 0.5844 318.7707 333.0574)">
	</image>
	
		<image style="overflow:visible;" width="28" height="28" id="Icon5" class="st18" transform="matrix(0.5844 0 0 0.5844 339.2458 333.0574)">
	</image>
</g>
</svg>
