<?xml version="1.0" encoding="utf-8"?>
<svg version="1.1" id="Layer_1"  data-color-numbers="3" xmlns="http://www.w3.org/2000/svg" xmlns:xlink="http://www.w3.org/1999/xlink" x="0px" y="0px"
	 viewBox="0 0 283.5 255.1" style="enable-background:new 0 0 283.5 255.1;" xml:space="preserve">
<style type="text/css">
  <![CDATA[
  @font-face {
        font-family: "DevroyeUnicode";
        src: url("/Content/fonts/DEVROYUN.ttf") format("truetype");
  }
	.rpl0-1{fill:#E5CCCF;}
  .rpl0-2{fill:#db5c87;}
  .rpl0-3{fill:#b2b1d9;}
	.rpl1-1{fill:#DB804A;}
  .rpl1-2{fill:#fbd6db;}
  .rpl1-3{fill:#69539c;}
	.rpl2-1{fill:#7F000F;}
  .rpl2-2{fill:#801d7f;}
  .rpl2-3{fill:#f26422;}
	.st3{fill:#479335;}
	.st4{fill:#1D590C;}
	.st5{fill:#5FB247;}
	.st6{fill:#840000;}
	.st7{fill:#ED1818;}
	.st8{fill:#490000;}
	.st9{fill:#BC0000;}
	.rpl10-1{fill:#99333F;}
  .rpl10-2{fill:#a967aa;}
  .rpl10-3{fill:#f9a01b;}
	.st11{fill:#FFFFFF;}
	.st12{font-family:'DevroyeUnicode';}
	.st13{font-size:8.6325px;}
	.rpl15-1{fill:#A33474;}
  .rpl15-2{fill:#b20044;}
  .rpl15-3{fill:#406325;}
	.st16{font-size:8.64px;}
	.st17{font-size:9.36px;}
  .st18{fill:#FFFFFF;}
  .editable{text-anchor: middle;}
  .svgProduct{text-anchor: middle;}
  .svgRibbon{visibility:hidden; opacity:0.6;fill:#FFFFFF;}
 ]]>
</style>
<image style="overflow:visible;" width="540" height="760" xlink:href="/Content/img/cat.jpg"  transform="matrix(0.2583 0 0 0.2583 81.7035 30.7792)">
</image>
<path id="Background" class="rpl0-1" d="M283.5,0H0v254.9h283.5V0z M165,226h-45c-19,0-34.5-15.5-34.5-34.5V77.7
	c0-19,15.5-34.5,34.5-34.5h45c19,0,34.5,15.5,34.5,34.5v113.8C199.6,210.4,184,226,165,226z"/>
<path id="Pattern" class="rpl1-1" d="M234.9,175.6c-5.9,4.5-15.6,4.4-15.6,4.4s-5.6-7.9-5.2-15.4c0-0.6,0.2-1.6,0.2-1.6
	c0.2-1.1,0.5-2.2,1.1-3.2c2-3.8,6.6-5.3,10.2-3.4c1.9,1,3.2,2.8,3.7,4.8c1.9-0.7,4.1-0.7,6,0.3c3.6,1.9,5,6.6,3,10.4
	c-0.5,1-1.2,1.9-2,2.7C235.7,175,234.9,175.6,234.9,175.6z M220,129.7l9.9-4.1c1-0.4,1.5-1.5,1.1-2.5l-5.2-12.7
	c-0.4-0.9-1.4-1.4-2.3-1.1l-7.3-17.7l-1.4,0.6l-3.8-9.1c0,0-1.9-4.3-4.2-5c-0.4-0.1-0.8-0.1-1.2,0c-2.7,0.9-3.4,5.8-2.5,8.2
	c0,0,0,0,0,0.1c0.7,1.6,2.5,6.1,3.7,9.1l-1.1,0.5l7.3,17.7c-0.8,0.5-1.2,1.5-0.8,2.4l5.2,12.7C217.9,129.7,219.1,130.1,220,129.7z
	 M91.2,16.5c0.2,0,0,0.3-0.3,1c-2,3.6-1.5,13.8-14,17.4c-12.1,3.5-16.5-4.6-20.6-7c-0.9-0.5-1.4-0.7-1.1-0.9c3-2.2,5.2-9.4,8.9-10.4
	c3.7-1.1,5,0.3,7.5-0.4c2.4-0.7,2.9-2.6,6.5-3.6C81.7,11.4,87,16,91.2,16.5z M81.2,21.6c-0.8-0.1-2.7-0.7-4.4-0.2
	c-1.6,0.5-2.5,1.1-3.5,1.5c-1.1,0.3-1.8,0.1-3.4,0.5c-1.6,0.5-2.9,2-3.6,2.5c0,0,0,0.1,0,0.1c1.5,0.2,4.3,2.1,8.3,0.9
	c3.7-1.1,5.4-4.4,6.5-5.2C81.2,21.7,81.2,21.6,81.2,21.6z M206.8,18.5c0,0.1,0.1,0.3,0.1,0.4C206.8,18.3,206.8,18.2,206.8,18.5z
	 M204.8,32l-17.3,2.1l-5-11.5c0,0,0-0.3-0.1-0.7c-0.3-2.5,1-4.9,3.4-6.7c-0.6-0.5-0.9-1.1-1-1.7c-0.2-1.7,2.2-4.4,5.9-5.5l0,0
	c0,0,0,0,0,0c0.3-0.1,0.5-0.2,0.8-0.2c1.4-0.4,4.4-1.4,5-2.5c-0.1,1.6,2.9,3.1,2.9,3.1h0c1.7,0.8,2.8,1.9,2.9,2.9
	c0.1,0.6-0.2,1.1-0.7,1.7c2.8,1.1,4.7,3,5.2,5.3c0,0.2,0.1,0.6,0.1,1.1L204.8,32z M193.6,12.4c4.5-0.6,8.5,1.3,7.8-0.5
	c-1-2.6-16.1,0.5-15.9,2.1C185.7,15.9,189,12.9,193.6,12.4z M183.1,21.8c-0.1-1.1,0.6-2,1.7-2.2c1.1-0.1,2,0.6,2.1,1.7
	c-0.1-1.1,0.6-2,1.7-2.1c1.1-0.1,2,0.6,2.1,1.7c-0.1-1.1,0.6-2,1.7-2.1c1.1-0.1,2,0.6,2.1,1.7c-0.1-1.1,0.6-2,1.7-2.1
	c1.1-0.1,2,0.6,2.1,1.7c-0.1-1.1,0.6-2,1.7-2.1c1.1-0.1,2,0.6,2.1,1.7c-0.1-1.1,0.6-2,1.7-2.1c1.1-0.1,1.9,0.6,2.2,1.7
	c-1.2-4.6-5.9-2.7-12.3-1.9C187.5,17.9,182.6,17.5,183.1,21.8z M204.2,31.2l1.9-11.6c-0.1-1.1-1.1-1.8-2.1-1.7
	c-0.6,0.1-1.1,0.4-1.4,0.9l-0.9,12.1l-0.4-12.3c-0.3-0.2-0.7-0.2-1.1-0.2c-0.5,0.1-1,0.4-1.3,0.8l-0.2,12.1l-1.1-12.2
	c-0.3-0.2-0.7-0.3-1.2-0.2c-0.5,0.1-1,0.3-1.3,0.7l0.8,12l-2.2-12c-0.4-0.2-0.8-0.3-1.2-0.2c-0.5,0.1-0.9,0.3-1.2,0.6l1.9,12.1
	l-3.2-12c-0.4-0.2-0.8-0.3-1.3-0.3c-0.5,0.1-0.9,0.3-1.2,0.6l2.5,12.1l-3.9-11.9c-0.4-0.3-0.8-0.4-1.3-0.3c-1.1,0.1-1.8,1.1-1.7,2.1
	l4.7,10.8L204.2,31.2z M121.5,8.1c-1.9-1-4.1-1.1-6-0.3c-0.5-2-1.8-3.8-3.7-4.8c-3.6-1.9-8.2-0.4-10.2,3.4c-0.5,1-0.9,2.1-1.1,3.2
	c0,0-0.2,1-0.2,1.6c-0.4,7.4,5.2,15.4,5.2,15.4s9.7,0.2,15.6-4.4c0,0,0.8-0.6,1.2-1c0.8-0.8,1.5-1.7,2-2.7
	C126.5,14.7,125.2,10.1,121.5,8.1z M253.7,201.7l-14,11.1l-5.2-11.5l4.1-3.3l-2.5-3.1c-1.3-1.6-1-3.9,0.6-5.2l14.6-11.6
	c1.6-1.3,3.9-1,5.2,0.6l2.5,3.1l4.1-3.3l10,7.7l-14,11.1l-0.6-0.7c-0.7-0.9-2.1-1.1-3-0.4l-2.1,1.7c-0.9,0.7-1.1,2.1-0.4,3
	L253.7,201.7z M240.1,196.8l17.5-13.9l-2.5-3.1c-0.6-0.8-1.8-0.9-2.6-0.3l-14.6,11.6c-0.8,0.6-0.9,1.8-0.3,2.6L240.1,196.8z
	 M28.8,59.5c-0.1,0.3-0.2,0.5-0.4,0.8c-0.1,0.2-0.3,0.5-0.4,0.7c-0.3,0.5-0.6,0.9-0.8,1.2c-0.2,0.4-0.5,0.6-0.6,0.8
	c-0.2,0.2-0.2,0.3-0.2,0.3s0.1-0.1,0.3-0.3c0.2-0.2,0.4-0.5,0.7-0.8c0.3-0.3,0.6-0.7,0.9-1.2c0.1-0.2,0.3-0.5,0.4-0.7
	c0.1-0.2,0.3-0.5,0.4-0.8c0.1-0.3,0.2-0.5,0.3-0.8c0.1-0.3,0.1-0.6,0.1-0.8c0-0.3,0-0.6-0.2-0.8c-0.1-0.2-0.3-0.4-0.5-0.5
	c-0.2-0.1-0.4-0.2-0.6-0.2c-0.2,0-0.3-0.1-0.5-0.1c-0.1,0-0.2,0-0.3,0c-0.1,0-0.1,0-0.1,0s0,0,0.1,0c0,0,0.1,0,0.1,0
	c0,0,0.1,0,0.2,0c0.1,0,0.3,0.1,0.4,0.1c0.2,0.1,0.3,0.1,0.5,0.3c0.2,0.1,0.3,0.3,0.4,0.5c0.1,0.2,0.1,0.5,0.1,0.7
	c0,0.3-0.1,0.5-0.1,0.8C29,59,28.9,59.3,28.8,59.5z M248.5,44.6c0,0,0-0.4-0.5-0.4c-0.5,0.1-7.5,0.8-8,0.9c-0.4,0-0.4,0.5-0.4,0.5
	l1.9,17.9c0,0,1.9,0.1,3.9-0.1l1.4,12.7l0,0c0,0,0,2.1-0.1,3.7c0,0.2,0,0.3,0,0.5c0,0.1,0,0.1,0,0.2c0,0,0,0,0,0.1
	c0,0.4,0,0.6,0,0.8c1.4,0.5,2.5-0.3,2.5-0.3l-0.5-2.2l0,0l-0.5-2.1c0-0.2-0.1-0.5-0.1-0.8c-0.2-1.6-0.5-4.3-0.5-4.3l-0.9-8.4
	c2-0.3,3.8-0.8,3.8-0.8L248.5,44.6z M237.1,135.9c-0.6-0.5-0.9-1.1-1-1.7c-0.2-1.7,2.2-4.4,5.9-5.5l0,0c0,0,0,0,0,0
	c0.3-0.1,0.5-0.2,0.8-0.2c1.4-0.4,4.4-1.4,5-2.5c-0.1,1.6,2.9,3.1,2.9,3.1h0c1.7,0.8,2.8,1.9,2.9,2.9c0.1,0.6-0.2,1.1-0.7,1.7
	c2.8,1.1,4.7,3,5.2,5.3c0,0.2,0.1,0.6,0.1,1.1l-2.1,12.3l-17.3,2.1l-5-11.5c0,0,0-0.3-0.1-0.7C233.3,140.1,234.7,137.7,237.1,135.9z
	 M257.4,140.3c-0.1-1.1-1.1-1.8-2.1-1.7c-0.6,0.1-1.1,0.4-1.4,0.9l-0.9,12.1l-0.4-12.3c-0.3-0.2-0.7-0.2-1.1-0.2
	c-0.5,0.1-1,0.4-1.3,0.8l-0.2,12.1l-1.1-12.2c-0.3-0.2-0.7-0.3-1.2-0.2c-0.5,0.1-1,0.3-1.3,0.7l0.8,12l-2.2-12
	c-0.4-0.2-0.8-0.3-1.2-0.2c-0.5,0.1-0.9,0.3-1.2,0.6l1.9,12.1l-3.2-12c-0.4-0.2-0.8-0.3-1.3-0.3c-0.5,0.1-0.9,0.3-1.2,0.6l2.5,12.1
	l-3.9-11.9c-0.4-0.3-0.8-0.4-1.3-0.3c-1.1,0.1-1.8,1.1-1.7,2.1l4.7,10.8l16.3-2L257.4,140.3z M244.9,133c4.5-0.6,8.5,1.3,7.8-0.5
	c-1-2.6-16.1,0.5-15.9,2.1C237,136.6,240.3,133.5,244.9,133z M234.4,142.4c-0.1-1.1,0.6-2,1.7-2.2c1.1-0.1,2,0.6,2.1,1.7
	c-0.1-1.1,0.6-2,1.7-2.1c1.1-0.1,2,0.6,2.1,1.7c-0.1-1.1,0.6-2,1.7-2.1c1.1-0.1,2,0.6,2.1,1.7c-0.1-1.1,0.6-2,1.7-2.1
	c1.1-0.1,2,0.6,2.1,1.7c-0.1-1.1,0.6-2,1.7-2.1c1.1-0.1,2,0.6,2.1,1.7c-0.1-1.1,0.6-2,1.7-2.1c1.1-0.1,1.9,0.6,2.2,1.7
	c-1.2-4.6-5.9-2.7-12.3-1.9C238.8,138.5,233.9,138.2,234.4,142.4z M252.7,18.7c0.1,0.1,0.3,0.1,0.3,0c0-0.1,0.1-0.1,0-0.2l0,0
	c0,0,0,0,0,0c0,0,0,0,0-0.1c0,0,0,0,0,0c0,0,0-0.1-0.1-0.1c0,0,0,0,0,0c0,0,0,0-0.1,0c0,0-0.1-0.1-0.1-0.1c0,0-0.1,0-0.1,0
	c-0.1,0-0.1,0-0.1,0l0,0c0,0,0.3,0.1,0.1,0.3C252.6,18.5,252.6,18.7,252.7,18.7z M77.4,64.7l4.7,2.4l-2.8,12.3l-15.9-8.2l0.4-0.8
	c0.5-1.1,0.1-2.4-0.9-2.9l-2.4-1.2c-1.1-0.5-2.4-0.1-2.9,0.9l-0.4,0.8l-15.9-8.2l8.3-9.5l4.7,2.4l1.8-3.5c0.9-1.8,3.2-2.5,5-1.6
	l16.6,8.5c1.8,0.9,2.5,3.2,1.6,5L77.4,64.7z M75.7,63.8l1.8-3.5c0.5-0.9,0.1-2-0.8-2.5l-16.6-8.5c-0.9-0.5-2-0.1-2.5,0.8l-1.8,3.5
	L75.7,63.8z M252.4,12.7c-0.1,0-0.1,0.1-0.2,0.2c-0.1,0.1-0.2,0.2-0.3,0.4c-0.2,0.3-0.3,0.5-0.3,0.8c0,0.3-0.1,0.6,0,0.8
	c0,0.3,0.2,0.5,0.3,0.7c0.1,0.1,0.2,0.1,0.3,0.2c0.1,0,0.2,0.1,0.3,0.1c0.2,0,0.4,0,0.5-0.1c0.1-0.1,0.2-0.2,0.3-0.3
	c0.1-0.1,0.1-0.2,0.1-0.3c0.1-0.2,0.1-0.2,0.1-0.2s0,0.1-0.1,0.2c0,0.1-0.1,0.2-0.2,0.3c-0.1,0.1-0.2,0.2-0.3,0.3
	c-0.1,0.1-0.3,0.1-0.5,0.1c-0.1,0-0.2,0-0.3-0.1c-0.1,0-0.2-0.1-0.2-0.2c-0.1-0.1-0.2-0.4-0.3-0.6c0-0.2,0-0.5,0-0.7
	c0.1-0.5,0.4-1,0.9-1.3c0.3-0.2,0.5-0.3,0.8-0.4c0.3-0.1,0.6-0.2,0.9-0.2c0.2,0,0.3,0,0.5,0c0.2,0,0.3,0,0.5,0.1
	c0.3,0.1,0.6,0.2,0.9,0.4c0.1,0.1,0.2,0.2,0.3,0.4c0,0,0,0.1,0.1,0.1l0.1,0.1c0,0,0,0,0,0.1l0,0.1c0,0,0,0.1,0,0.1
	c0.1,0.3,0,0.7,0,1c-0.1,0.7-0.4,1.3-0.8,2c-0.3,0.6-0.7,1.2-1.1,1.7c-0.4,0.5-0.9,1-1.3,1.4c-0.2,0.2-0.5,0.4-0.7,0.5
	c-0.1,0-0.3,0.1-0.4,0.1c-0.1,0-0.1,0-0.2,0l0,0l0,0l-0.1,0c0,0,0,0,0,0l0,0l-0.1,0c0,0-0.1-0.1-0.1-0.1c0,0-0.1-0.1-0.1-0.1
	c0-0.1-0.1-0.1-0.1-0.2c-0.1-0.2-0.1-0.5,0-0.7c0-0.2,0.1-0.4,0.2-0.6c0-0.1,0.1-0.1,0.2-0.2c0,0,0.1,0,0.1-0.1c0,0,0.1,0,0.1,0
	c0.1,0,0.3,0,0.4,0c0.1,0,0.2,0.1,0.3,0.2c0.1,0.1,0.2,0.2,0.2,0.2s0-0.1-0.2-0.2c-0.1-0.1-0.1-0.1-0.2-0.2
	c-0.1-0.1-0.3-0.1-0.4-0.1c0,0-0.1,0-0.1,0c0,0-0.1,0-0.1,0.1c-0.1,0-0.2,0.1-0.2,0.2c-0.1,0.2-0.2,0.4-0.3,0.6c0,0.2-0.1,0.5,0,0.7
	c0,0.1,0,0.1,0.1,0.2c0,0.1,0.1,0.1,0.1,0.2c0,0.1,0.1,0.1,0.2,0.2l0.1,0.1c0,0,0.1,0,0.1,0.1l0.1,0l0,0l0,0l0,0l0,0l0,0
	c0.1,0,0.2,0,0.2,0c0.2,0,0.3,0,0.5-0.1c0.3-0.1,0.6-0.3,0.8-0.5c0.5-0.4,1-0.9,1.4-1.4c0.4-0.5,0.8-1.1,1.2-1.8
	c0.3-0.6,0.6-1.3,0.8-2.1c0.1-0.4,0.1-0.8,0-1.1c0,0,0-0.1,0-0.1l0-0.1c0,0,0,0,0-0.1L257,13c0,0,0-0.1-0.1-0.1
	c-0.1-0.2-0.2-0.3-0.4-0.5c-0.1-0.1-0.3-0.2-0.5-0.3c-0.2-0.1-0.4-0.1-0.5-0.2c-0.2,0-0.4-0.1-0.5-0.1c-0.2,0-0.4,0-0.5,0
	c-0.3,0-0.7,0.1-1,0.2c-0.3,0.1-0.6,0.3-0.9,0.4C252.6,12.6,252.5,12.7,252.4,12.7z M261.4,65.7c0.3,0.6,0.7,1.2,1.2,1.8
	c0.4,0.5,0.9,1,1.4,1.4c0.3,0.2,0.5,0.4,0.8,0.5c0.1,0.1,0.3,0.1,0.5,0.1c0.1,0,0.2,0,0.2,0l0,0l0,0l0,0l0,0l0,0l0.1,0
	c0,0,0.1,0,0.1-0.1l0.1-0.1c0.1,0,0.1-0.1,0.2-0.2c0-0.1,0.1-0.1,0.1-0.2c0-0.1,0.1-0.1,0.1-0.2c0.1-0.3,0.1-0.5,0-0.7
	c-0.1-0.2-0.1-0.4-0.3-0.6c-0.1-0.1-0.1-0.1-0.2-0.2c0,0-0.1,0-0.1-0.1c0,0-0.1,0-0.1,0c-0.2,0-0.3,0-0.4,0.1
	c-0.1,0.1-0.2,0.1-0.2,0.2c-0.1,0.1-0.2,0.2-0.2,0.2s0-0.1,0.2-0.2c0.1-0.1,0.1-0.1,0.3-0.2c0.1,0,0.2-0.1,0.4,0c0,0,0.1,0,0.1,0
	c0,0,0.1,0,0.1,0.1c0.1,0,0.1,0.1,0.2,0.2c0.1,0.2,0.2,0.3,0.2,0.6c0,0.2,0,0.4,0,0.7c0,0.1,0,0.1-0.1,0.2c0,0-0.1,0.1-0.1,0.1
	c0,0-0.1,0.1-0.1,0.1l-0.1,0l0,0c0,0,0,0,0,0l-0.1,0l0,0l0,0c-0.1,0-0.1,0-0.2,0c-0.1,0-0.3,0-0.4-0.1c-0.3-0.1-0.5-0.3-0.7-0.5
	c-0.5-0.4-0.9-0.9-1.3-1.4c-0.4-0.5-0.8-1.1-1.1-1.7c-0.3-0.6-0.6-1.3-0.8-2c-0.1-0.3-0.1-0.7,0-1c0,0,0-0.1,0-0.1l0-0.1
	c0,0,0,0,0-0.1l0.1-0.1c0,0,0-0.1,0.1-0.1c0.1-0.1,0.2-0.3,0.3-0.4c0.2-0.2,0.5-0.4,0.9-0.4c0.2,0,0.3-0.1,0.5-0.1
	c0.2,0,0.3,0,0.5,0c0.3,0,0.6,0.1,0.9,0.2c0.3,0.1,0.6,0.2,0.8,0.4c0.5,0.3,0.8,0.8,0.9,1.3c0.1,0.3,0.1,0.5,0,0.7
	c0,0.2-0.1,0.4-0.3,0.6c-0.1,0.1-0.2,0.1-0.2,0.2c-0.1,0-0.2,0.1-0.3,0.1c-0.2,0-0.4,0-0.5-0.1c-0.1-0.1-0.2-0.2-0.3-0.3
	c-0.1-0.1-0.1-0.2-0.2-0.3c-0.1-0.2-0.1-0.2-0.1-0.2s0,0.1,0.1,0.2c0,0.1,0.1,0.2,0.1,0.3c0.1,0.1,0.2,0.2,0.3,0.3
	c0.1,0.1,0.3,0.1,0.5,0.1c0.1,0,0.2,0,0.3-0.1c0.1,0,0.2-0.1,0.3-0.2c0.2-0.2,0.3-0.4,0.3-0.7c0-0.3,0-0.5,0-0.8
	c-0.1-0.3-0.1-0.6-0.3-0.8c-0.1-0.1-0.2-0.3-0.3-0.4c-0.1-0.1-0.1-0.1-0.2-0.2c-0.1,0-0.1-0.1-0.2-0.1c-0.3-0.2-0.6-0.3-0.9-0.4
	c-0.3-0.1-0.6-0.2-1-0.2c-0.2,0-0.4,0-0.5,0c-0.2,0-0.4,0-0.5,0.1c-0.2,0-0.4,0.1-0.5,0.2c-0.2,0.1-0.3,0.2-0.5,0.3
	c-0.1,0.1-0.3,0.3-0.4,0.5c0,0,0,0.1-0.1,0.1l-0.1,0.1c0,0,0,0,0,0.1l0,0.1c0,0,0,0.1,0,0.1c-0.1,0.4-0.1,0.8,0,1.1
	C260.8,64.4,261.1,65.1,261.4,65.7z M256.1,15.6c-0.1,0.3-0.2,0.5-0.4,0.8c-0.1,0.2-0.3,0.5-0.4,0.7c-0.3,0.5-0.6,0.9-0.8,1.2
	c-0.2,0.4-0.5,0.6-0.6,0.8c-0.2,0.2-0.2,0.3-0.2,0.3s0.1-0.1,0.3-0.3c0.2-0.2,0.4-0.5,0.7-0.8c0.3-0.3,0.6-0.7,0.9-1.2
	c0.1-0.2,0.3-0.5,0.4-0.7c0.1-0.2,0.3-0.5,0.4-0.8c0.1-0.3,0.2-0.5,0.3-0.8c0.1-0.3,0.1-0.6,0.1-0.8c0-0.3,0-0.6-0.2-0.8
	c-0.1-0.2-0.3-0.4-0.5-0.5c-0.2-0.1-0.4-0.2-0.6-0.2c-0.2,0-0.3-0.1-0.5-0.1c-0.1,0-0.2,0-0.3,0c-0.1,0-0.1,0-0.1,0s0,0,0.1,0
	c0,0,0.1,0,0.1,0c0,0,0.1,0,0.2,0c0.1,0,0.3,0.1,0.4,0.1c0.2,0.1,0.3,0.1,0.5,0.3c0.2,0.1,0.3,0.3,0.4,0.5c0.1,0.2,0.1,0.5,0.1,0.7
	c0,0.3-0.1,0.5-0.1,0.8C256.4,15,256.3,15.3,256.1,15.6z M257,88.3c0-0.2-0.2-0.3-0.4-0.3c0,0-0.1,0-0.1,0l-0.4-0.8
	c0.2-0.1,0.3-0.4,0.1-0.6c0-0.2-0.2-0.3-0.4-0.3c0,0-0.1,0-0.1,0l-0.4-0.8c0.3-0.1,0.3-0.4,0.1-0.6c0-0.2-0.2-0.3-0.4-0.3
	c-0.1,0-0.1,0-0.2,0l-0.4-0.8c0.2-0.1,0.3-0.4,0.1-0.6c0-0.2-0.2-0.3-0.4-0.3c0,0-0.1,0-0.1,0l-0.8-1.6c0,0,0,0,0,0
	c-0.1-0.1-1.5,0.4-3.1,1.2c-1.6,0.8-2.9,1.6-2.8,1.7l0,0l0.1,0.2c-0.2,0.1-0.2,0.4-0.1,0.6c0,0.2,0.2,0.3,0.4,0.3c0,0,0.1,0,0.1,0
	l0.4,0.8c-0.2,0.1-0.2,0.4,0,0.5c0,0.2,0.2,0.3,0.4,0.3c0,0,0,0,0,0l0.4,0.8c-0.2,0.1-0.2,0.4-0.1,0.6c0,0.2,0.2,0.3,0.4,0.3
	c0,0,0.1,0,0.1,0l0.4,0.8c-0.2,0.1-0.2,0.4-0.1,0.6c0,0.2,0.2,0.3,0.4,0.3c0,0,0.1,0,0.1,0l0.7,1.3l0,2.5c0,0-3,2-4.1,2.5
	c-1.1,0.5-0.4,2-0.4,2s1,4.4,4.7,11.1s7,11.9,7,11.9s0.5,1.1,1.3,0.7c0.8-0.4,8.4-4.2,8.4-4.2s7.7-3.7,8.4-4.2
	c0.8-0.5,0.2-1.5,0.2-1.5s-2.1-5.8-5.3-12.8c-3.2-7-6-10.5-6-10.5s-0.7-1.5-1.8-0.9c-1.1,0.5-4.5,1.7-4.5,1.7l-1.9-1.4
	C257.2,88.6,257.1,88.4,257,88.3z M264.8,63.7c-0.1-0.1-0.3-0.2-0.5-0.1c-0.1,0.1-0.1,0.2-0.1,0.3l0,0c0,0,0,0,0,0c0,0,0,0.1,0,0.1
	c0,0,0,0,0,0.1c0,0,0,0.1,0.1,0.2c0,0,0,0.1,0,0.1c0,0,0,0.1,0.1,0.1c0,0,0.1,0.1,0.1,0.1c0,0,0.1,0.1,0.1,0.1
	c0.1,0.1,0.2,0.1,0.2,0.1l0,0c0,0-0.3-0.3-0.1-0.5C264.9,64.1,264.9,63.9,264.8,63.7z M261.7,61.8c0.2-0.1,0.3-0.2,0.5-0.3
	c0.2-0.1,0.3-0.1,0.4-0.1c0.1,0,0.1,0,0.2,0c0,0,0.1,0,0.1,0c0.1,0,0.1,0,0.1,0s0,0-0.1,0c-0.1,0-0.2,0-0.3,0c-0.1,0-0.3,0-0.5,0.1
	c-0.2,0-0.4,0.1-0.6,0.2c-0.2,0.1-0.4,0.3-0.5,0.5c-0.1,0.2-0.2,0.5-0.2,0.8c0,0.3,0.1,0.6,0.1,0.8c0.1,0.3,0.2,0.6,0.3,0.8
	c0.1,0.3,0.3,0.5,0.4,0.8c0.1,0.2,0.3,0.5,0.4,0.7c0.3,0.5,0.6,0.9,0.9,1.2c0.3,0.3,0.5,0.6,0.7,0.8c0.2,0.2,0.3,0.3,0.3,0.3
	s-0.1-0.1-0.2-0.3c-0.2-0.2-0.4-0.5-0.6-0.8c-0.2-0.4-0.5-0.8-0.8-1.2c-0.1-0.2-0.3-0.5-0.4-0.7c-0.1-0.2-0.3-0.5-0.4-0.8
	c-0.1-0.3-0.2-0.5-0.3-0.8c-0.1-0.3-0.1-0.5-0.1-0.8c0-0.3,0-0.5,0.1-0.7C261.4,62.1,261.5,62,261.7,61.8z M265.3,67.1L265.3,67.1
	c0,0-0.1,0-0.1,0c0,0-0.1,0-0.1,0c0,0-0.1,0-0.1,0.1c0,0,0,0-0.1,0c0,0,0,0,0,0c0,0-0.1,0.1-0.1,0.1c0,0,0,0,0,0c0,0,0,0,0,0.1
	c0,0,0,0,0,0l0,0c0,0.1,0,0.1,0,0.2c0.1,0.1,0.2,0.1,0.3,0c0.1-0.1,0.1-0.2,0-0.3C265,67.3,265.3,67.1,265.3,67.1z M216.7,41.9
	c3.3,1.9,3.3,3.8,5.5,5.1c2.2,1.3,3.8,0.3,7.1,2.2c3.3,1.9,3.7,8.9,6.3,12.2c0.1,0.1-0.2,0.2-0.9,0.4c-4,1.1-11,8.5-22.2,2.1
	c-11-6.3-8.2-15.1-9.3-19.6c-0.2-1-0.4-1.5-0.1-1.4C206.7,43.4,213.4,40,216.7,41.9z M211.5,50.1c0.9,1.2,1.5,4.5,5.1,6.6
	c3.4,1.9,6.9,0.8,8.3,1.1c0.1,0,0.1,0,0.1-0.1c-0.5-0.7-1.4-2.4-2.9-3.3c-1.5-0.8-2.5-1-3.5-1.5c-1-0.6-1.3-1.2-2.8-2.1
	C214.3,50,212.3,50.1,211.5,50.1C211.5,50,211.4,50.1,211.5,50.1z M25.6,62.2c-0.1-0.1-0.1-0.1-0.2-0.2c-0.1-0.1-0.3-0.1-0.4-0.1
	c0,0-0.1,0-0.1,0c0,0-0.1,0-0.1,0.1c-0.1,0-0.2,0.1-0.2,0.2c-0.1,0.2-0.2,0.4-0.3,0.6c0,0.2-0.1,0.5,0,0.7c0,0.1,0,0.1,0.1,0.2
	c0,0.1,0.1,0.1,0.1,0.2c0,0.1,0.1,0.1,0.2,0.2l0.1,0.1c0,0,0.1,0,0.1,0.1l0.1,0l0,0l0,0l0,0l0,0l0,0c0.1,0,0.2,0,0.2,0
	c0.2,0,0.3,0,0.5-0.1c0.3-0.1,0.6-0.3,0.8-0.5c0.5-0.4,1-0.9,1.4-1.4c0.4-0.5,0.8-1.1,1.2-1.8c0.3-0.6,0.6-1.3,0.8-2.1
	c0.1-0.4,0.1-0.8,0-1.1c0,0,0-0.1,0-0.1l0-0.1c0,0,0,0,0-0.1L29.7,57c0,0,0-0.1-0.1-0.1c-0.1-0.2-0.2-0.3-0.4-0.5
	c-0.1-0.1-0.3-0.2-0.5-0.3c-0.2-0.1-0.4-0.1-0.5-0.2c-0.2,0-0.4-0.1-0.5-0.1c-0.2,0-0.4,0-0.5,0c-0.3,0-0.7,0.1-1,0.2
	c-0.3,0.1-0.6,0.3-0.9,0.4c-0.1,0-0.1,0.1-0.2,0.1c-0.1,0-0.1,0.1-0.2,0.2c-0.1,0.1-0.2,0.2-0.3,0.4c-0.2,0.3-0.3,0.5-0.3,0.8
	c0,0.3-0.1,0.6,0,0.8c0,0.3,0.2,0.5,0.3,0.7c0.1,0.1,0.2,0.1,0.3,0.2c0.1,0,0.2,0.1,0.3,0.1c0.2,0,0.4,0,0.5-0.1
	c0.1-0.1,0.2-0.2,0.3-0.3c0.1-0.1,0.1-0.2,0.1-0.3c0.1-0.2,0.1-0.2,0.1-0.2s0,0.1-0.1,0.2c0,0.1-0.1,0.2-0.2,0.3
	c-0.1,0.1-0.2,0.2-0.3,0.3c-0.1,0.1-0.3,0.1-0.5,0.1c-0.1,0-0.2,0-0.3-0.1c-0.1,0-0.2-0.1-0.2-0.2c-0.1-0.1-0.2-0.4-0.3-0.6
	c0-0.2,0-0.5,0-0.7c0.1-0.5,0.4-1,0.9-1.3c0.3-0.2,0.5-0.3,0.8-0.4c0.3-0.1,0.6-0.2,0.9-0.2c0.2,0,0.3,0,0.5,0c0.2,0,0.3,0,0.5,0.1
	c0.3,0.1,0.6,0.2,0.9,0.4c0.1,0.1,0.2,0.2,0.3,0.4c0,0,0,0.1,0.1,0.1l0.1,0.1c0,0,0,0,0,0.1l0,0.1c0,0,0,0.1,0,0.1
	c0.1,0.3,0,0.7,0,1c-0.1,0.7-0.4,1.3-0.8,2c-0.3,0.6-0.7,1.2-1.1,1.7c-0.4,0.5-0.9,1-1.3,1.4c-0.2,0.2-0.5,0.4-0.7,0.5
	c-0.1,0-0.3,0.1-0.4,0.1c-0.1,0-0.1,0-0.2,0l0,0l0,0l-0.1,0c0,0,0,0,0,0l0,0l-0.1,0c0,0-0.1-0.1-0.1-0.1c0,0-0.1-0.1-0.1-0.1
	c0-0.1-0.1-0.1-0.1-0.2c-0.1-0.2-0.1-0.5,0-0.7c0-0.2,0.1-0.4,0.2-0.6c0-0.1,0.1-0.1,0.2-0.2c0,0,0.1,0,0.1-0.1c0,0,0.1,0,0.1,0
	c0.1,0,0.3,0,0.4,0C25.5,62.1,25.6,62.2,25.6,62.2c0.1,0.1,0.2,0.2,0.2,0.2S25.7,62.3,25.6,62.2z M11.1,12.2
	c0.9,1.4,3.5,5.4,5.3,8.1l-1,0.7l10.3,15.9c-0.7,0.6-0.9,1.7-0.4,2.5l7.4,11.4c0.6,0.9,1.8,1.1,2.7,0.6l8.8-5.8
	c0.9-0.6,1.1-1.8,0.6-2.7l-7.4-11.4c-0.5-0.8-1.6-1.1-2.4-0.7L24.6,15l-1.3,0.8L18,7.6c0,0-2.7-3.8-5-4.1c-0.4,0-0.8,0-1.1,0.2
	C9.5,5.1,9.7,10,11.1,12.2C11.1,12.2,11.1,12.2,11.1,12.2z M258.4,197.4l-0.3-0.4c-0.5-0.7-1.5-0.8-2.1-0.2l-2.1,1.7
	c-0.7,0.5-0.8,1.5-0.2,2.1l0.3,0.4l0.3,0.3l0.7,0.8l0.8,1l0.5,0.6c0.5,0.7,1.5,0.8,2.1,0.2l2.1-1.7c0.7-0.5,0.8-1.5,0.2-2.1
	l-0.5-0.6l-0.8-1l-0.7-0.8L258.4,197.4z M25.4,62.7c0.1,0.1,0.3,0.1,0.3,0c0-0.1,0.1-0.1,0-0.2l0,0c0,0,0,0,0,0c0,0,0,0,0-0.1
	c0,0,0,0,0,0c0,0,0-0.1-0.1-0.1c0,0,0,0,0,0c0,0,0,0-0.1,0c0,0-0.1-0.1-0.1-0.1c0,0-0.1,0-0.1,0c-0.1,0-0.1,0-0.1,0l0,0
	c0,0,0.3,0.1,0.1,0.3C25.2,62.5,25.3,62.6,25.4,62.7z M25.6,59.6L25.6,59.6c0,0,0.1,0,0.2-0.1c0,0,0.1-0.1,0.1-0.1
	c0,0,0.1-0.1,0.1-0.1c0,0,0-0.1,0.1-0.1c0,0,0-0.1,0-0.1c0-0.1,0-0.1,0.1-0.2c0,0,0,0,0-0.1c0,0,0-0.1,0-0.1c0,0,0,0,0,0l0,0
	c0-0.1,0-0.2-0.1-0.3c-0.1-0.1-0.4-0.1-0.5,0.1c-0.1,0.1-0.1,0.4,0.1,0.5C26,59.3,25.6,59.6,25.6,59.6z M253,15.6L253,15.6
	c0,0,0.1,0,0.2-0.1c0,0,0.1-0.1,0.1-0.1c0,0,0.1-0.1,0.1-0.1c0,0,0-0.1,0.1-0.1c0,0,0-0.1,0-0.1c0-0.1,0-0.1,0.1-0.2c0,0,0,0,0-0.1
	c0,0,0-0.1,0-0.1c0,0,0,0,0,0l0,0c0-0.1,0-0.2-0.1-0.3c-0.1-0.1-0.4-0.1-0.5,0.1c-0.1,0.1-0.1,0.4,0.1,0.5
	C253.3,15.3,253,15.6,253,15.6z M234.7,26c4.1,3.9,15.6-0.5,15.6-4.5c0.4-2.8,0.2-8.4,1.8-10.5c-9,6.8-20,7.7-24.1,7.2
	C232.8,21.3,232.2,23.1,234.7,26z M252.6,10.6c-0.2,0.2-0.4,0.6-0.6,0.9c-0.2,0.4-0.4,0.8-0.6,1.3c-0.2,0.5-0.3,1.1-0.4,1.7
	c-0.1,0.6-0.2,1.2-0.2,1.9c0,0.7,0,1.3-0.1,2c0,0.7,0,1.4-0.1,2.1c0,0.3-0.1,0.7-0.1,1c-0.1,0.3-0.1,0.7-0.3,0.9
	c0,0.1-0.1,0.1-0.1,0.2c0,0.1-0.1,0.1-0.1,0.2c-0.1,0.1-0.2,0.3-0.3,0.4c-0.2,0.3-0.4,0.5-0.6,0.7c-0.5,0.4-0.9,0.8-1.4,1.2
	c-3,2.3-8.4,2.7-9,2.6c-0.6,0-1.2-0.1-1.8-0.2c-0.3-0.1-0.6-0.1-0.9-0.3c-0.1-0.1-0.3-0.1-0.4-0.2c-0.1,0-0.1-0.1-0.2-0.1
	c-0.1,0-0.1-0.1-0.2-0.1c-0.3-0.2-0.5-0.4-0.7-0.7c-0.2-0.2-0.4-0.5-0.6-0.8c-0.4-0.6-0.8-1.1-1.2-1.7c-0.4-0.6-0.8-1.1-1.1-1.7
	c-0.4-0.5-0.8-1-1.2-1.5c-0.4-0.5-0.8-0.9-1.2-1.2c-0.4-0.3-0.8-0.6-1.2-0.8c-0.4-0.2-0.7-0.4-1-0.5c-0.3-0.1-0.5-0.2-0.7-0.2
	c-0.2,0-0.2-0.1-0.2-0.1s0.1,0,0.2,0.1c0.2,0,0.4,0.1,0.7,0.2c0.3,0.1,0.6,0.3,1,0.5c0.4,0.2,0.7,0.5,1.1,0.9
	c0.4,0.4,0.8,0.8,1.1,1.2c0.4,0.5,0.7,1,1.1,1.5c0.4,0.5,0.7,1.1,1.1,1.7c0.4,0.6,0.7,1.2,1.1,1.8c0.2,0.3,0.4,0.6,0.6,0.9
	c0.2,0.3,0.5,0.5,0.8,0.8c0.1,0.1,0.2,0.1,0.2,0.2c0.1,0,0.2,0.1,0.2,0.1c0.2,0.1,0.3,0.2,0.5,0.2c0.3,0.1,0.7,0.2,1,0.3
	c0.7,0.2,1.3,0.3,1.9,0.3c0.6,0.1,5.4,0,9.5-2.8c0.5-0.4,1-0.8,1.4-1.3c0.2-0.2,0.5-0.5,0.7-0.8c0.1-0.1,0.2-0.3,0.3-0.5
	c0-0.1,0.1-0.2,0.1-0.2c0-0.1,0.1-0.2,0.1-0.3c0.1-0.4,0.2-0.7,0.2-1.1c0-0.4,0.1-0.7,0.1-1.1c0-0.7,0-1.4,0-2.1c0-0.7,0-1.4,0-2
	c0-0.7,0-1.3,0.1-1.9c0.1-0.6,0.2-1.2,0.3-1.7c0.1-0.5,0.3-1,0.5-1.3C252.3,11.2,252.5,10.9,252.6,10.6c0.2-0.2,0.4-0.4,0.5-0.5
	c0.1-0.1,0.2-0.2,0.2-0.2s-0.1,0.1-0.2,0.2C253,10.2,252.8,10.4,252.6,10.6z M229.1,13.6c-0.3,0.2-0.7,0.5-1,0.7
	c-0.3,0.3-0.6,0.6-0.8,0.9c-0.1,0.2-0.2,0.4-0.2,0.6c0,0.1,0,0.1,0,0.2c0,0.1,0,0.1,0,0.2c0,0.1,0.1,0.2,0.1,0.3
	c0.1,0.2,0.3,0.3,0.5,0.3c0.2,0.1,0.4,0.1,0.6,0.1c0.4,0.1,0.8,0.1,1.2,0.1c0.4,0,0.8,0,1.2-0.1c0.8-0.1,1.6-0.2,2.3-0.3
	c0.8-0.1,1.5-0.3,2.3-0.4c0.7-0.1,1.3-0.3,2-0.5c0.2,0,0.3-0.1,0.3-0.1l3.7-1.1c0,0,0.1,0,0.3-0.1c0.8-0.3,1.6-0.6,2.4-0.9
	c0.9-0.4,1.8-0.7,2.7-1.1c0.4-0.2,0.9-0.4,1.3-0.6c0.4-0.2,0.9-0.4,1.3-0.7c0.4-0.2,0.8-0.5,1.2-0.8c0.2-0.2,0.4-0.3,0.5-0.5
	c0.1-0.1,0.2-0.2,0.2-0.3c0.1-0.1,0.1-0.3,0.1-0.4l0,0l0,0c0-0.2-0.2-0.4-0.4-0.5c-0.2-0.1-0.4-0.2-0.5-0.3
	c-0.4-0.1-0.8-0.2-1.2-0.2c-0.8-0.1-1.6,0-2.4,0c-0.8,0.1-1.6,0.2-2.3,0.3c-0.8,0.1-1.6,0.3-2.3,0.4c-1.5,0.3-3.1,0.7-4.6,1.2
	c-1.5,0.4-3,1-4.5,1.5c-0.7,0.3-1.5,0.6-2.2,0.9C230.5,12.8,229.8,13.1,229.1,13.6z M225.2,16.1L225.2,16.1L225.2,16.1
	c0,0.1,0,0.1,0,0.1l0,0l0,0.1c0,0.1,0.1,0.2,0.1,0.3c0.1,0.2,0.2,0.3,0.4,0.4c0.3,0.2,0.6,0.4,0.9,0.5c0.3,0.1,0.7,0.2,1,0.3
	c1.3,0.2,2.7,0.2,4.2,0.1c0.7-0.1,1.4-0.1,2.2-0.2c0.7-0.1,1.5-0.2,2.2-0.4c1.5-0.3,3-0.7,4.4-1.1c1.5-0.4,2.9-0.9,4.3-1.5
	c0.7-0.3,1.4-0.6,2-0.9c0.7-0.3,1.3-0.6,1.9-1c0.6-0.4,1.2-0.7,1.8-1.1c0.6-0.4,1.1-0.8,1.6-1.3c0.2-0.3,0.5-0.5,0.6-0.8
	c0.1-0.2,0.2-0.3,0.2-0.5c0.1-0.2,0.1-0.4,0.1-0.6c0,0,0,0,0-0.1l0-0.1c0-0.1,0-0.1,0-0.1l0,0c0,0,0,0,0,0l0,0l0-0.1
	c0,0,0-0.1-0.1-0.1c-0.1-0.2-0.2-0.3-0.4-0.4c-0.3-0.2-0.6-0.4-0.9-0.5c-0.6-0.2-1.1-0.3-1.7-0.3c-0.5,0-1,0-1.5,0
	c-0.9,0-1.7,0.1-2.4,0.2c-0.7,0.1-1.2,0.2-1.5,0.3c-0.2,0-0.3,0.1-0.4,0.1c-0.1,0-0.1,0-0.1,0s0.2,0,0.5,0c0.4,0,0.9-0.1,1.5-0.1
	c0.7,0,1.5-0.1,2.4,0c0.5,0,0.9,0.1,1.4,0.1c0.5,0.1,1,0.2,1.5,0.4c0.2,0.1,0.5,0.2,0.6,0.4c0.1,0.1,0.1,0.2,0.2,0.3c0,0,0,0,0,0.1
	l0,0l0,0l0,0c0,0,0,0.1,0,0.1c0,0,0,0,0,0v0c0,0.2-0.1,0.4-0.2,0.7c-0.1,0.2-0.3,0.5-0.6,0.7c-0.4,0.4-1,0.8-1.5,1.2
	c-0.6,0.4-1.1,0.7-1.8,1c-1.2,0.6-2.6,1.2-3.9,1.8c-1.4,0.5-2.8,1-4.2,1.4c-1.4,0.4-2.9,0.8-4.3,1.1c-0.7,0.1-1.4,0.3-2.1,0.4
	c-0.7,0.1-1.4,0.2-2.1,0.3c-0.7,0.1-1.4,0.1-2,0.1c-0.7,0-1.3,0-1.9-0.1c-0.3,0-0.6-0.1-0.9-0.2c-0.3-0.1-0.5-0.2-0.7-0.3
	c-0.1-0.1-0.2-0.1-0.2-0.2c0,0-0.1-0.1-0.1-0.1l0,0l0,0v0l0,0l0-0.1c0,0,0,0,0,0c0,0,0,0,0-0.1l0-0.1c0,0,0-0.1,0-0.1
	c0,0,0-0.1,0-0.1c0-0.1,0.1-0.2,0.1-0.3c0.1-0.2,0.3-0.4,0.4-0.6c0.2-0.2,0.3-0.4,0.5-0.6c0.4-0.3,0.7-0.6,1.1-0.9
	c0.7-0.5,1.4-1,2-1.3c0.6-0.3,1-0.6,1.3-0.8c0.3-0.2,0.5-0.3,0.5-0.3s0,0-0.1,0.1c-0.1,0-0.2,0.1-0.4,0.1c-0.3,0.1-0.8,0.3-1.4,0.6
	c-0.6,0.3-1.3,0.6-2.1,1.1c-0.4,0.3-0.8,0.5-1.2,0.9c-0.2,0.2-0.4,0.4-0.6,0.6c-0.2,0.2-0.4,0.4-0.5,0.7c-0.1,0.1-0.1,0.3-0.2,0.5
	c0,0,0,0.1,0,0.1c0,0,0,0.1,0,0.1c0,0,0,0.1,0,0.1C225.2,16,225.2,16,225.2,16.1C225.2,16.1,225.2,16.1,225.2,16.1z M258.1,139.1
	c0,0.1,0.1,0.3,0.1,0.4C258.1,138.9,258,138.9,258.1,139.1z M32.3,110.1c-0.6-0.5-0.9-1.1-1-1.7c-0.2-1.7,2.2-4.4,5.9-5.5l0,0
	c0,0,0,0,0,0c0.3-0.1,0.5-0.2,0.8-0.2c1.4-0.4,4.4-1.4,5-2.5c-0.1,1.6,2.9,3.1,2.9,3.1h0c1.7,0.8,2.8,1.9,2.9,2.9
	c0.1,0.6-0.2,1.1-0.7,1.7c2.8,1.1,4.7,3,5.2,5.3c0,0.2,0.1,0.6,0.1,1.1l-2.1,12.3L34,128.9l-5-11.5c0,0,0-0.3-0.1-0.7
	C28.6,114.3,30,111.9,32.3,110.1z M52.7,114.5c-0.1-1.1-1.1-1.8-2.1-1.7c-0.6,0.1-1.1,0.4-1.4,0.9l-0.9,12.1l-0.4-12.3
	c-0.3-0.2-0.7-0.2-1.1-0.2c-0.5,0.1-1,0.4-1.3,0.8l-0.2,12.1l-1.1-12.2c-0.3-0.2-0.7-0.3-1.2-0.2c-0.5,0.1-1,0.3-1.3,0.7l0.8,12
	l-2.2-12c-0.4-0.2-0.8-0.3-1.2-0.2c-0.5,0.1-0.9,0.3-1.2,0.6l1.9,12.1l-3.2-12c-0.4-0.2-0.8-0.3-1.3-0.3c-0.5,0.1-0.9,0.3-1.2,0.6
	l2.5,12.1l-3.9-11.9c-0.4-0.3-0.8-0.4-1.3-0.3c-1.1,0.1-1.8,1.1-1.7,2.1l4.7,10.8l16.3-2L52.7,114.5z M40.1,107.2
	c4.5-0.6,8.5,1.3,7.8-0.5c-1-2.6-16.1,0.5-15.9,2.1C32.2,110.7,35.6,107.7,40.1,107.2z M29.7,116.6c-0.1-1.1,0.6-2,1.7-2.2
	c1.1-0.1,2,0.6,2.1,1.7c-0.1-1.1,0.6-2,1.7-2.1c1.1-0.1,2,0.6,2.1,1.7c-0.1-1.1,0.6-2,1.7-2.1c1.1-0.1,2,0.6,2.1,1.7
	c-0.1-1.1,0.6-2,1.7-2.1c1.1-0.1,2,0.6,2.1,1.7c-0.1-1.1,0.6-2,1.7-2.1c1.1-0.1,2,0.6,2.1,1.7c-0.1-1.1,0.6-2,1.7-2.1
	c1.1-0.1,1.9,0.6,2.2,1.7c-1.2-4.6-5.9-2.7-12.3-1.9C34,112.7,29.1,112.3,29.7,116.6z M0.6,62.1c4.9,3.2,4.3,5,6.8,7.9
	c4.1,3.9,15.6-0.5,15.6-4.5c0.4-2.8,0.2-8.4,1.8-10.5C15.7,61.7,4.7,62.6,0.6,62.1z M282.5,76c-0.1,0-0.1,0.1-0.2,0.1
	c-0.1,0-0.1,0.1-0.2,0.1c-0.1,0.1-0.3,0.1-0.4,0.2c-0.3,0.1-0.6,0.2-0.9,0.3c-0.6,0.1-1.2,0.2-1.8,0.2c-0.6,0-6.1-0.3-9-2.6
	c-0.6-0.4-1-0.7-1.4-1.2c-0.2-0.2-0.4-0.5-0.6-0.7c-0.1-0.1-0.2-0.3-0.3-0.4c0-0.1-0.1-0.1-0.1-0.2c0-0.1-0.1-0.1-0.1-0.2
	c-0.1-0.3-0.2-0.6-0.3-0.9c-0.1-0.3-0.1-0.7-0.1-1c0-0.7-0.1-1.4-0.1-2.1c0-0.7,0-1.4-0.1-2c0-0.7-0.1-1.3-0.2-1.9
	c-0.1-0.6-0.2-1.2-0.4-1.7c-0.2-0.5-0.4-1-0.6-1.3c-0.2-0.4-0.4-0.7-0.6-0.9c-0.2-0.2-0.3-0.4-0.5-0.5c-0.1-0.1-0.2-0.2-0.2-0.2
	s0.1,0.1,0.2,0.2c0.1,0.1,0.3,0.3,0.4,0.6c0.2,0.3,0.4,0.6,0.5,1c0.2,0.4,0.3,0.8,0.5,1.3c0.1,0.5,0.2,1.1,0.3,1.7
	c0.1,0.6,0.1,1.2,0.1,1.9c0,0.7,0,1.3,0,2c0,0.7,0,1.4,0,2.1c0,0.4,0,0.7,0.1,1.1c0,0.4,0.1,0.7,0.2,1.1c0,0.1,0.1,0.2,0.1,0.3
	c0,0.1,0.1,0.2,0.1,0.2c0.1,0.2,0.2,0.3,0.3,0.5c0.2,0.3,0.4,0.6,0.7,0.8c0.5,0.5,1,0.9,1.4,1.3c4.1,2.8,8.9,2.8,9.5,2.8
	c0.6-0.1,1.3-0.2,1.9-0.3c0.3-0.1,0.7-0.2,1-0.3c0.2-0.1,0.3-0.1,0.5-0.2c0.1,0,0.2-0.1,0.2-0.1c0.1-0.1,0.2-0.1,0.2-0.2
	c0.2-0.2,0.4-0.4,0.6-0.6v-0.9c-0.1,0.1-0.1,0.2-0.2,0.3C283,75.6,282.8,75.8,282.5,76z M259.9,198.2l1.2,1.6c0.7,0.9,0.6,2.3-0.4,3
	l-2.1,1.7c-0.9,0.7-2.3,0.6-3-0.4l-1.2-1.6l-14.2,11.3l8,17.7l35.3-28V194l-9.3-7.1L259.9,198.2z M276.5,137
	c1.5-1.4,4.2-1.4,6.9-1.4V159c-8.8,6.5-15.6,1.6-20.1,1.2c-1-0.1-1.5-0.1-1.4-0.3c1.8-3.3,0.7-10.7,3.6-13.2
	c2.9-2.5,4.7-1.9,6.6-3.5C274.1,141.4,273.6,139.5,276.5,137z M276.7,148.4c-0.8,0.7-1.6,0.8-2.9,2c-1.3,1.1-1.8,3-2.2,3.8
	c0,0,0,0.1,0.1,0.1c1.5-0.5,4.8,0,7.9-2.7c2.9-2.6,3-6.3,3.7-7.5c0-0.1,0-0.1,0-0.1c-0.8,0.3-2.8,0.5-4,1.6
	C278,146.7,277.5,147.6,276.7,148.4z M25.4,162.9c-12.1,3.5-16.5-4.6-20.6-7c-0.9-0.5-1.4-0.7-1.1-0.9c3-2.2,5.2-9.4,8.9-10.4
	c3.7-1.1,5,0.3,7.5-0.4c2.4-0.7,2.9-2.6,6.5-3.6c3.7-1.1,8.9,3.5,13.2,4c0.2,0,0,0.3-0.3,1C37.4,149.1,37.9,159.3,25.4,162.9z
	 M23.2,154.9c3.7-1.1,5.4-4.4,6.5-5.2c0.1,0,0.1-0.1,0-0.1c-0.8-0.1-2.7-0.7-4.4-0.2c-1.6,0.5-2.5,1.1-3.5,1.5
	c-1.1,0.3-1.8,0.1-3.4,0.5c-1.6,0.5-2.9,2-3.6,2.5c0,0,0,0.1,0,0.1C16.4,154.2,19.1,156.1,23.2,154.9z M61.9,74
	c-0.5,1.1-1.9,1.5-2.9,0.9l-2.4-1.2c-1.1-0.5-1.5-1.9-0.9-2.9l0.9-1.8l-16.2-8.3L27.6,75.3l47.1,24.1l4.4-19l-16.2-8.3L61.9,74z
	 M56.9,73.1l2.4,1.2c0.7,0.4,1.7,0.1,2-0.7l0.3-0.7l0.6-1.1l0.5-1l0.2-0.4l0.2-0.4c0.4-0.7,0.1-1.7-0.7-2l-2.4-1.2
	c-0.7-0.4-1.7-0.1-2,0.7L57.9,68l-0.2,0.4l-0.5,1l-0.6,1.1l-0.3,0.7C55.9,71.8,56.2,72.8,56.9,73.1z M45,208.1c-1.9-1-4.1-1.1-6-0.3
	c-0.5-2-1.8-3.8-3.7-4.8c-3.6-1.9-8.2-0.4-10.2,3.4c-0.5,1-0.9,2.1-1.1,3.2c0,0-0.2,1-0.2,1.6c-0.4,7.4,5.2,15.4,5.2,15.4
	s9.7,0.2,15.6-4.4c0,0,0.8-0.6,1.2-1c0.8-0.8,1.5-1.7,2-2.7C50,214.7,48.7,210,45,208.1z M66.7,162.5c-1.1-0.6-4.3-2.7-4.3-2.7
	l0-2.6l0.7-1.4c0,0,0.1,0,0.1,0c0.2,0.1,0.4-0.1,0.4-0.3c0.2-0.2,0.1-0.5-0.1-0.6l0.4-0.8c0,0,0.1,0,0.1,0c0.2,0.1,0.4-0.1,0.4-0.3
	c0.1-0.2,0.1-0.5-0.1-0.6l0.4-0.9c0,0,0,0,0,0c0.2,0.1,0.4-0.1,0.4-0.3c0.1-0.2,0.1-0.4,0-0.6l0.4-0.9c0,0,0.1,0,0.1,0
	c0.2,0.1,0.4-0.1,0.4-0.3c0.1-0.2,0.1-0.5-0.1-0.6l0.1-0.2l0,0c0.1-0.1-1.3-1-3-1.8c-1.7-0.8-3.2-1.4-3.2-1.3c0,0,0,0,0,0l-0.8,1.6
	c0,0-0.1,0-0.1,0c-0.2-0.1-0.4,0.1-0.4,0.3c-0.2,0.2-0.1,0.5,0.1,0.6l-0.4,0.9c-0.1,0-0.1,0-0.2,0c-0.2-0.1-0.4,0.1-0.4,0.3
	c-0.2,0.2-0.1,0.5,0.1,0.6l-0.4,0.8c0,0-0.1,0-0.1,0c-0.2-0.1-0.4,0.1-0.4,0.3c-0.2,0.2-0.1,0.5,0.1,0.6l-0.4,0.8c0,0-0.1,0-0.1,0
	c-0.2-0.1-0.4,0.1-0.4,0.3c-0.1,0.1-0.1,0.4,0,0.5l-2,1.5c0,0-3.6-1.2-4.7-1.8c-1.1-0.6-1.9,1-1.9,1s-3,3.7-6.3,10.9
	s-5.5,13.3-5.5,13.3s-0.6,1.1,0.2,1.5c0.8,0.5,8.8,4.4,8.8,4.4s7.9,4,8.8,4.4c0.9,0.4,1.4-0.7,1.4-0.7s3.5-5.4,7.3-12.4
	c3.8-7,4.9-11.6,4.9-11.6S67.8,163.1,66.7,162.5z M73.8,108.7c-0.5,0-7.8-0.8-8.3-0.9c-0.5-0.1-0.5,0.4-0.5,0.4l-2,18.7
	c0,0,1.9,0.5,3.9,0.8l-0.9,8.7c0,0-0.3,2.8-0.5,4.5c0,0.3-0.1,0.5-0.1,0.8l-0.5,2.2l0,0l-0.6,2.3c0,0,1.2,0.8,2.6,0.3
	c0-0.2,0-0.5,0-0.8c0,0,0,0,0-0.1c0-0.1,0-0.2,0-0.2c0-0.2,0-0.3,0-0.5c0-1.6-0.1-3.8-0.1-3.8l0,0l1.4-13.2c2.1,0.2,4,0.1,4,0.1
	l2-18.7C74.1,109.2,74.2,108.8,73.8,108.7z M53.3,113.3c0,0.1,0.1,0.3,0.1,0.4C53.3,113.1,53.3,113.1,53.3,113.3z M1.8,63.5
	c0.4,0.4,0.8,0.8,1.1,1.2c0.4,0.5,0.7,1,1.1,1.5c0.4,0.5,0.7,1.1,1.1,1.7c0.4,0.6,0.7,1.2,1.1,1.8c0.2,0.3,0.4,0.6,0.6,0.9
	c0.2,0.3,0.5,0.5,0.8,0.8c0.1,0.1,0.2,0.1,0.2,0.2c0.1,0,0.2,0.1,0.2,0.1c0.2,0.1,0.3,0.2,0.5,0.2c0.3,0.1,0.7,0.2,1,0.3
	c0.7,0.2,1.3,0.3,1.9,0.3c0.6,0.1,5.4,0,9.5-2.8c0.5-0.4,1-0.8,1.4-1.3c0.2-0.2,0.5-0.5,0.7-0.8c0.1-0.1,0.2-0.3,0.3-0.5
	c0-0.1,0.1-0.2,0.1-0.2c0-0.1,0.1-0.2,0.1-0.3c0.1-0.4,0.2-0.7,0.2-1.1c0-0.4,0.1-0.7,0.1-1.1c0-0.7,0-1.4,0-2.1c0-0.7,0-1.4,0-2
	c0-0.7,0-1.3,0.1-1.9c0.1-0.6,0.2-1.2,0.3-1.7c0.1-0.5,0.3-1,0.5-1.3c0.2-0.4,0.4-0.7,0.5-1c0.2-0.3,0.3-0.4,0.4-0.6
	c0.1-0.1,0.2-0.2,0.2-0.2s-0.1,0.1-0.2,0.2c-0.1,0.1-0.3,0.3-0.5,0.5c-0.2,0.2-0.4,0.6-0.6,0.9c-0.2,0.4-0.4,0.8-0.6,1.3
	c-0.2,0.5-0.3,1.1-0.4,1.7c-0.1,0.6-0.2,1.2-0.2,1.9c0,0.7,0,1.3-0.1,2c0,0.7,0,1.4-0.1,2.1c0,0.3-0.1,0.7-0.1,1
	c-0.1,0.3-0.1,0.7-0.3,0.9c0,0.1-0.1,0.1-0.1,0.2c0,0.1-0.1,0.1-0.1,0.2c-0.1,0.1-0.2,0.3-0.3,0.4c-0.2,0.3-0.4,0.5-0.6,0.7
	c-0.5,0.4-0.9,0.8-1.4,1.2c-3,2.3-8.4,2.7-9,2.6c-0.6,0-1.2-0.1-1.8-0.2c-0.3-0.1-0.6-0.1-0.9-0.3c-0.1-0.1-0.3-0.1-0.4-0.2
	c-0.1,0-0.1-0.1-0.2-0.1C8.1,71,8,71,7.9,70.9c-0.3-0.2-0.5-0.4-0.7-0.7C7,70,6.8,69.7,6.6,69.5c-0.4-0.6-0.8-1.1-1.2-1.7
	c-0.4-0.6-0.8-1.1-1.1-1.7c-0.4-0.5-0.8-1-1.2-1.5c-0.4-0.5-0.8-0.9-1.2-1.2c-0.4-0.3-0.8-0.6-1.2-0.8c-0.3-0.1-0.5-0.3-0.7-0.3v0.1
	c0.2,0.1,0.4,0.2,0.7,0.4C1,62.8,1.4,63.1,1.8,63.5z M4.5,61.9c0.7-0.1,1.4-0.1,2.2-0.2c0.7-0.1,1.5-0.2,2.2-0.4
	c1.5-0.3,3-0.7,4.4-1.1c1.5-0.4,2.9-0.9,4.3-1.5c0.7-0.3,1.4-0.6,2-0.9c0.7-0.3,1.3-0.6,1.9-1c0.6-0.4,1.2-0.7,1.8-1.1
	c0.6-0.4,1.1-0.8,1.6-1.3c0.2-0.3,0.5-0.5,0.6-0.8c0.1-0.2,0.2-0.3,0.2-0.5c0.1-0.2,0.1-0.4,0.1-0.6c0,0,0,0,0-0.1l0-0.1
	c0-0.1,0-0.1,0-0.1l0,0c0,0,0,0,0,0l0,0l0-0.1c0,0,0-0.1-0.1-0.1c-0.1-0.2-0.2-0.3-0.4-0.4c-0.3-0.2-0.6-0.4-0.9-0.5
	c-0.6-0.2-1.1-0.3-1.7-0.3c-0.5,0-1,0-1.5,0c-0.9,0-1.7,0.1-2.4,0.2c-0.7,0.1-1.2,0.2-1.5,0.3c-0.2,0-0.3,0.1-0.4,0.1
	c-0.1,0-0.1,0-0.1,0s0.2,0,0.5,0c0.4,0,0.9-0.1,1.5-0.1c0.7,0,1.5-0.1,2.4,0c0.5,0,0.9,0.1,1.4,0.1c0.5,0.1,1,0.2,1.5,0.4
	c0.2,0.1,0.5,0.2,0.6,0.4c0.1,0.1,0.1,0.2,0.2,0.3c0,0,0,0,0,0.1l0,0l0,0l0,0c0,0,0,0.1,0,0.1c0,0,0,0,0,0v0c0,0.2-0.1,0.4-0.2,0.7
	c-0.1,0.2-0.3,0.5-0.6,0.7c-0.4,0.4-1,0.8-1.5,1.2c-0.6,0.4-1.1,0.7-1.8,1c-1.2,0.6-2.6,1.2-3.9,1.8c-1.4,0.5-2.8,1-4.2,1.4
	c-1.4,0.4-2.9,0.8-4.3,1.1c-0.7,0.1-1.4,0.3-2.1,0.4c-0.7,0.1-1.4,0.2-2.1,0.3c-0.7,0.1-1.4,0.1-2,0.1c-0.7,0-1.3,0-1.9-0.1
	c-0.2,0-0.3-0.1-0.5-0.1v0.8c0.1,0,0.2,0.1,0.4,0.1C1.7,62,3.1,62,4.5,61.9z M267.5,70.6c0,4,11.4,8.4,15.6,4.5
	c0.1-0.2,0.3-0.3,0.4-0.5v-7.6c-5.1-0.7-11.8-2.6-17.7-7C267.3,62.2,267.2,67.7,267.5,70.6z M12.3,211.2l0.8-18.9l-1.5-0.1l0.4-9.8
	c0,0,0.1-4.7-1.6-6.2c-0.3-0.3-0.6-0.4-1.1-0.5c-2.8-0.3-5.5,3.8-5.6,6.3c0,0,0,0,0,0.1c-0.1,1.7-0.3,6.5-0.4,9.7l-1.2-0.1
	l-0.8,18.9c-0.5,0-1,0.3-1.3,0.7v16.5c0.2,0.1,0.5,0.2,0.7,0.2l10.5,0.5c1.1,0,2-0.8,2-1.8l0.6-13.5
	C13.9,212.2,13.2,211.4,12.3,211.2z M12.4,118.1c0,0,4.6-8.5,3.3-15.9c0,0-0.2-1-0.4-1.6c-0.3-1.1-0.8-2.1-1.5-3
	c-2.5-3.5-7.2-4.5-10.6-2.2c-1.8,1.2-2.8,3.1-3.1,5.2c-0.1,0-0.2,0-0.3-0.1v16.6C5.9,119,12.4,118.1,12.4,118.1z M0.6,60.7
	c0.2,0.1,0.4,0.1,0.6,0.1c0.4,0.1,0.8,0.1,1.2,0.1c0.4,0,0.8,0,1.2-0.1c0.8-0.1,1.6-0.2,2.3-0.3c0.8-0.1,1.5-0.3,2.3-0.4
	c0.7-0.1,1.3-0.3,2-0.5c0.2,0,0.3-0.1,0.3-0.1l3.7-1.1c0,0,0.1,0,0.3-0.1c0.8-0.3,1.6-0.6,2.4-0.9c0.9-0.4,1.8-0.7,2.7-1.1
	c0.4-0.2,0.9-0.4,1.3-0.6c0.4-0.2,0.9-0.4,1.3-0.7c0.4-0.2,0.8-0.5,1.2-0.8c0.2-0.2,0.4-0.3,0.5-0.5c0.1-0.1,0.2-0.2,0.2-0.3
	c0.1-0.1,0.1-0.3,0.1-0.4l0,0l0,0c0-0.2-0.2-0.4-0.4-0.5c-0.2-0.1-0.4-0.2-0.5-0.3C23,52.1,22.6,52,22.2,52c-0.8-0.1-1.6,0-2.4,0
	c-0.8,0.1-1.6,0.2-2.3,0.3c-0.8,0.1-1.6,0.3-2.3,0.4c-1.5,0.3-3.1,0.7-4.6,1.2c-1.5,0.4-3,1-4.5,1.5c-0.7,0.3-1.5,0.6-2.2,0.9
	c-0.7,0.3-1.4,0.7-2.1,1.1c-0.3,0.2-0.7,0.5-1,0.7c-0.3,0.3-0.6,0.6-0.8,0.9c0,0.1-0.1,0.1-0.1,0.2v0.9c0,0,0,0.1,0.1,0.1
	C0.2,60.5,0.4,60.6,0.6,60.7z M277.5,64.3c-1.4-0.4-2.8-0.9-4.2-1.4c-1.4-0.5-2.7-1.1-3.9-1.8c-0.6-0.3-1.2-0.7-1.8-1
	c-0.6-0.4-1.1-0.7-1.5-1.2c-0.2-0.2-0.4-0.4-0.6-0.7c-0.1-0.2-0.2-0.5-0.2-0.7v0c0,0,0,0,0,0c0,0,0-0.1,0-0.1l0,0l0,0l0,0
	c0,0,0,0,0-0.1c0-0.1,0.1-0.2,0.2-0.3c0.2-0.2,0.4-0.3,0.6-0.4c0.5-0.2,1-0.3,1.5-0.4c0.5-0.1,1-0.1,1.4-0.1c0.9,0,1.7,0,2.4,0
	c0.7,0,1.2,0.1,1.5,0.1c0.4,0,0.5,0,0.5,0s0,0-0.1,0c-0.1,0-0.2,0-0.4-0.1c-0.3-0.1-0.9-0.2-1.5-0.3c-0.7-0.1-1.5-0.2-2.4-0.2
	c-0.5,0-1,0-1.5,0c-0.5,0-1.1,0.1-1.7,0.3c-0.3,0.1-0.6,0.2-0.9,0.5c-0.1,0.1-0.3,0.3-0.4,0.4c0,0,0,0.1-0.1,0.1l0,0.1l0,0
	c0,0,0,0,0,0l0,0c0,0,0,0.1,0,0.1l0,0.1c0,0,0,0.1,0,0.1c0,0.2,0,0.4,0.1,0.6c0.1,0.2,0.1,0.3,0.2,0.5c0.2,0.3,0.4,0.6,0.6,0.8
	c0.5,0.5,1,0.9,1.6,1.3c0.6,0.4,1.2,0.8,1.8,1.1c0.6,0.4,1.3,0.7,1.9,1c0.7,0.3,1.3,0.6,2,0.9c1.4,0.6,2.8,1.1,4.3,1.5
	c1.5,0.4,2.9,0.8,4.4,1.1c0.6,0.1,1.3,0.2,1.9,0.3v-1c-0.6-0.1-1.1-0.2-1.7-0.3C280.3,65.1,278.9,64.7,277.5,64.3z M2.7,55.9
	c0.6-0.3,1-0.6,1.3-0.8c0.3-0.2,0.5-0.3,0.5-0.3s0,0-0.1,0.1C4.3,55,4.1,55,4,55.1c-0.3,0.1-0.8,0.3-1.4,0.6C2,56,1.2,56.3,0.5,56.8
	C0.3,56.9,0.2,57,0,57.1v0.6c0.2-0.2,0.5-0.4,0.7-0.6C1.4,56.6,2.1,56.2,2.7,55.9z M275.3,57.9c-0.8-0.2-1.5-0.3-2.3-0.4
	c-0.8-0.1-1.6-0.2-2.3-0.3c-0.8-0.1-1.6-0.1-2.4,0c-0.4,0-0.8,0.1-1.2,0.2c-0.2,0.1-0.4,0.2-0.5,0.3c-0.2,0.1-0.3,0.3-0.4,0.5l0,0
	l0,0c0,0.1,0,0.3,0.1,0.4c0.1,0.1,0.1,0.2,0.2,0.3c0.2,0.2,0.4,0.4,0.5,0.5c0.4,0.3,0.8,0.6,1.2,0.8c0.4,0.2,0.9,0.5,1.3,0.7
	c0.4,0.2,0.9,0.4,1.3,0.6c0.9,0.4,1.8,0.8,2.7,1.1c0.8,0.3,1.6,0.6,2.4,0.9c0.2,0.1,0.3,0.1,0.3,0.1l3.7,1.1c0,0,0.1,0,0.3,0.1
	c0.7,0.2,1.3,0.3,2,0.5c0.4,0.1,0.8,0.2,1.2,0.2v-5.2c-1.2-0.4-2.3-0.8-3.5-1.2C278.4,58.6,276.9,58.2,275.3,57.9z M282.4,9
	c-2.1,0.4-3.8,1.7-4.9,3.5c-1.6-1.2-3.7-1.8-5.8-1.4c-4,0.8-6.6,4.9-5.8,9.1c0.2,1.1,0.6,2.2,1.2,3.2c0,0,0.5,0.9,0.9,1.3
	c4.4,6,13.7,8.6,13.7,8.6s0.7-0.6,1.8-1.6V8.9C283.1,8.9,282.8,8.9,282.4,9z"/>
<path id="Tape_Back" class="rpl2-1" d="M226.5,214.4c0,9.2,4.8,14.6,4.8,14.6h-51.4v-29.1h51.4C231.3,199.8,226.5,205.2,226.5,214.4z
	 M58.5,214.4c0,9.2-4.8,14.6-4.8,14.6h51.4v-29.1H53.7C53.7,199.8,58.5,205.2,58.5,214.4z"/>
<g id="Roses">
	<g>
		<path class="st3" d="M86.6,141.9c4.4,5.1,7.4,10,6.9,15.6c-0.4,4.4-3.3,7.2-7,6.4c-3.7-0.7-5.6-3.1-5.3-7.2
			C81.6,151.6,86.2,150.1,86.6,141.9z"/>
		<path class="st4" d="M86.6,141.9c4.7,9.4-0.2,16.7-0.1,22.1C84.2,156.1,89.5,149.8,86.6,141.9z"/>
		<path class="st5" d="M86.5,144.6c-0.4,4.6-3.9,7.7-4.7,10.6c-0.8,2.9,0.6,5.4,0.9,5.7C83.2,152.4,87.4,151.1,86.5,144.6z"/>
	</g>
	<g>
		<path class="st6" d="M92,164.6c0,0,2.8-2.8,5.8-1.2c3,1.6,0.1,5.7,0.1,5.7l-4.5,4.5c0,0-0.7,0.5-2.1,3.6s-8.1,2.3-6.9-2.3
			C85.6,170.4,92,164.6,92,164.6z"/>
		<path class="st7" d="M99.1,164.9c-1.9,5-4.2,5.6-5.3,6.8c-1.5,1.5-1.8,5.8-3.9,6.9c3.3-1.5,3.6-0.9,6.7-4.5
			C100,170,100.2,167.6,99.1,164.9z"/>
		<path class="st6" d="M83,154c0,0-2.6,0.7-2.8-1.5s2.5-2.9,2.5-2.9l3.6-0.2c0,0,0.5,0.1,2.4-0.9s3.8,2.7,1.3,4.4
			C87.4,154.7,83,154,83,154z"/>
		<path class="st7" d="M80.4,151.1c2.9-1.6,4-0.9,4.9-0.9c1.2,0,3.3-2,4.5-1.7c-1.8-0.8-1.6-1.3-4.3-0.8
			C82.4,148.1,81.3,149.2,80.4,151.1z"/>
		<path class="st8" d="M84.4,174.9c0.1-0.5,0.3-1.1,0.6-1.6c1.4,0.4,3.2,1.4,3.3,3.6c0,0.9-0.3,1.6-0.8,2.1
			C85.5,178.8,83.7,177.4,84.4,174.9z"/>
		<path class="st6" d="M82.9,173.1c0,0,4.5,0.3,4.6,3.7c0.1,3.4-4.9,2.9-4.9,2.9l-6.1-1.7c0,0-0.8-0.3-4.2,0c-3.4,0.3-6-5.9-1.5-7.2
			C75.4,169.7,82.9,173.1,82.9,173.1z"/>
		<path class="st7" d="M86.8,178.7c-5.3,0.8-7-0.9-8.5-1.3c-2.1-0.6-5.9,1.3-7.9,0.1c2.9,2.1,2.5,2.7,7.3,3.6
			C82.8,182,85,181,86.8,178.7z"/>
		<path class="st6" d="M90.1,155.2c0,0-1.8-3,1.1-3.8c2.9-0.8,4.8,2.5,4.8,2.5l1.3,4.4c0,0,0.1,0.6,1.9,2.7c1.9,2.2-2.5,5.3-5.6,2.6
			S90.1,155.2,90.1,155.2z"/>
		<path class="st8" d="M93.6,163.5c-0.2-0.2-0.4-0.4-0.6-0.6c1.1-0.8,3.2-1.7,5.3-0.6c0.5,0.3,0.8,0.6,1,0.9
			c-0.2,0.3-0.4,0.5-0.7,0.7c-0.2-0.2-0.4-0.4-0.7-0.5C96.2,162.5,94.7,162.9,93.6,163.5z"/>
		<path class="st7" d="M93.2,151.4c3.1,3.3,2.4,4.7,2.8,5.8c0.4,1.5,3.8,3.6,3.7,5.1c0.5-2.4,1.2-2.3-0.2-5.5
			C97.9,153.2,96.1,152.1,93.2,151.4z"/>
		<path class="st6" d="M71.6,160.5c0,0-3,1.8-3.8-1.2s2.5-4.8,2.5-4.8l4.4-1.3c0,0,0.6-0.1,2.7-1.9c2.2-1.8,5.2,2.5,2.6,5.6
			C77.3,160.1,71.6,160.5,71.6,160.5z"/>
		<path class="st7" d="M67.8,157.3c3.3-3.1,4.8-2.4,5.8-2.7c1.5-0.4,3.6-3.8,5.1-3.6c-2.4-0.5-2.2-1.2-5.5,0.1
			C69.7,152.6,68.5,154.5,67.8,157.3z"/>
		<path class="st6" d="M71.9,171.1c0,0,0.5,3.5-2.6,3.1c-3-0.4-3.4-4.2-3.4-4.2l0.5-4.5c0,0,0.2-0.5-0.7-3.3
			c-0.9-2.7,4.3-3.9,6.2-0.2C73.7,165.8,71.9,171.1,71.9,171.1z"/>
		<g>
			<path class="st8" d="M68.4,174c-0.3-0.1-0.5-0.3-0.7-0.4c0.1-1.3,0.8-2.5,2.6-3c0.6-0.2,1.2-0.2,1.8-0.3c0,0.2-0.1,0.3-0.1,0.4
				c-0.4,0-0.8,0.1-1.1,0.2C69.1,171.4,68.4,172.6,68.4,174z"/>
		</g>
		<path class="st7" d="M67.5,173.4c-1.6-4.2-0.4-5.3-0.2-6.4c0.2-1.5-2.1-4.8-1.4-6.2c-1.4,2-2,1.6-2,5.1
			C63.9,169.9,65.1,171.7,67.5,173.4z"/>
		<path class="st6" d="M86,168.6l-3.6,2.1c0,0,2.8,1,3.4,2.5c0.6,1.4,10.6-2.5,7.5-11.3c-1.1-0.6-2.8,1.8-2.9,1.9
			C90.2,163.9,86,168.6,86,168.6z"/>
		<g>
			<path class="st8" d="M91.5,162.6c0.5-0.5,1.1-1,1.8-0.6C92.7,161.6,92,162,91.5,162.6z"/>
			<path class="st8" d="M93.2,161.9c4,10.2-6.2,13.7-6.9,12c-0.1-0.2-0.2-0.3-0.3-0.5C87.9,173.9,96.1,169.9,93.2,161.9z"/>
			<path class="st8" d="M85.5,172.8c-1.2-1.1-3-1.9-3-1.9l0.1-0.1C83.2,171,84.8,171.8,85.5,172.8z"/>
		</g>
		<polygon class="st6" points="88.2,159.9 91.3,158.2 92.8,159.1 92.6,160.7 90.7,163.4 89.5,164.7 87,167.5 84.4,166.6 83.8,164.7 
					"/>
		<polygon class="st6" points="73.4,165.1 76.1,166 80.2,168.2 82.1,170.2 82.1,171.5 80.2,171.6 78.6,171.9 74.5,171.5 73.1,170.7 
			71.8,169.5 71.2,168 71.2,166.6 72.2,165 		"/>
		<path class="st8" d="M73.6,165.6c5.1,2.8,5.6,5.9,5.6,5.9l2.9-0.3c0,0,5.6-5.5,8.2-7.5c-0.7-1.2-1.8-1.2-0.5-6.4
			C90.6,154.5,68.4,162.8,73.6,165.6z"/>
		<path class="st6" d="M76.2,156.1l-3.1,0.8l-3.1,2.2c0,0-0.8,1.2-0.8,1.3c0,0.1,0.4,1.3,0.4,1.4c0.1,0.1,1.3,1.4,1.3,1.4l1.1,0.8
			l2.4,0.9l1.5,0.3l3-0.5l2-0.6l-1.6-2.3L76.2,156.1z"/>
		<path class="st6" d="M84.4,162.7c0,0,5-4.7,4.3-7.6c-0.7-2.9-5.7-2.3-8.9-1.1c-3.2,1.2-4.6,2.5-4.7,4.6s7.3,3.7,7.3,3.7
			L84.4,162.7z"/>
		<path class="st8" d="M85.4,170.4l2.4,0c0,0,0.7,0.5,1.9,1.9c1.2,1.3-7.8,9-14.6,1c0-1.4,2.8-1.4,2.9-1.5
			C78.3,171.6,85.4,170.4,85.4,170.4z"/>
		<path class="st6" d="M85.1,170.7l2.1,0c0,0,0.8,0.3,1.8,1.4c1,1.2-7.1,8.3-13.4,1.5c0-1.3,2.9-1.7,3-1.7
			C78.8,171.8,85.1,170.7,85.1,170.7z"/>
		<path class="st9" d="M78.7,158.6c0,0-0.6-0.1-0.6-1.1c0.1-1,2.3-1.8,4.2-1.8s2.3,0.6,2.5,1.4c0.3,1.3-1.8,2.7-1.8,2.7L78.7,158.6z
			"/>
		<path class="st8" d="M82.4,157.5c-1.3,0.9-3.1,1.3-3.7,1.1c2,1.3,1.9,1.9,1.9,1.9l2.4-0.8C83,159.7,82.3,158.9,82.4,157.5z"/>
		<path class="st8" d="M77.2,161.1c2,1.4,3,3.3,3,3.3l3,1.3l1.4-3.2c0,0-0.1-3,0.5-3.8c0.6-0.8-2.2,1.9-2.2,1.9
			S78.1,160.6,77.2,161.1z"/>
		<path class="st7" d="M75.1,158.6c-0.8,1.3,1.2,3.5,1.8,3.7c0.2-0.6,1.6-0.8,1.6-0.8L79,162l0.4-0.5l0.2,0.4c0,0,2.9,0,5.6-2.4
			c-0.3-0.6-0.3-0.6-0.3-0.6l0.5,0.3c0,0,1-1.5,0.3-2.5c-0.6-0.9-2.2-2.2-3.3-1.2c1.6,0.5,2.3,1.8,2,2.4c-0.4,0.7-0.2,1.5-3.7,2.3
			C77.2,161,75.3,159.3,75.1,158.6z"/>
		<path class="st7" d="M75.4,157.3c0.6-0.8,0.6-2.8,5.7-5.1c5.1-2.3,8-0.4,8-0.4l-0.6,0.9l1.1-0.5c0,0,1.2,0.6,1.3,2.6
			c0.1,2-1.9,6.9-2,7s-1.4-0.6-1.4-0.6l1.1,1.9c0,0-5.8,1.7-7.3,7.9c-0.3-3.6,1.7-8,4.1-10c2.4-2,4.4-5.4,1.4-7.2
			C83.9,152,77.4,154.4,75.4,157.3z"/>
		<path class="st7" d="M75.9,156.4c-3.6,1.2-6.7,2.6-5.6,5c1.4,2.8,6.5,3.7,9.8,2.7s4.3,0,4.9,0.3c-2.7-0.7-8.2,1.9-8.9,2.4
			c-0.7,0.5-1.1-1.4-1.1-1.4s-0.9,0.7-0.1,1.9c-2.3-0.2-3.2-1.1-3.6-1.9c-0.6-0.3-0.2-1.1-0.2-1.1l-0.8,0.3c0,0-2.2-0.8-2.1-3.2
			c0.2-2.2,1.4-5.4,8.2-5.8L75.9,156.4z"/>
		<path class="st7" d="M87.2,170.7c-4.4-1.6-9.2,3-14.4-0.9c-1.8-2-1-3.7-1-3.7l-0.4-0.3c0,0-1,1-1,2.6c0,1.6,0.5,4.1,1.1,4.3
			c0.6,0.1,0.8-1,0.8-1s0.5,0.3-0.3,1.2c3.3,2.2,7.5,1.6,7.9,1c0.4-0.6,0.6-1.8,0.6-1.8s0.2,0.3,0.3,1.3
			C80.8,174.4,84.6,170.8,87.2,170.7z"/>
		<path class="st7" d="M90.3,157.9l-0.6,2c0,0,1.1-1.5,2.2-0.5c2.6,2.4-8.5,9-9.1,11.3c4.4-2.8,5.8-1.9,7.3-4.3
			c-0.6-0.6-0.3-1.5-0.3-1.5s0.2,0.3,0.9,0.6c4.8-2.5,3.6-7,4.6-8c-0.7-1-2.3,0-2.3,0s0.1-0.6,1.7-1.3
			C92,155.8,90.3,157.9,90.3,157.9z"/>
	</g>
	<g>
		<path class="st3" d="M99.8,169.3c1.7,7.9,2.2,14.7-1.5,20.5c-2.9,4.5-7.5,5.7-11,2.9c-3.5-2.9-4.2-6.4-1.5-10.6
			C89.1,176.8,94.8,177.8,99.8,169.3z"/>
		<path class="st4" d="M99.8,169.3c-0.3,12.6-9.7,17.5-12.6,23.3C89.2,183,98.4,179.3,99.8,169.3z"/>
		<path class="st5" d="M98.2,172.1c-3,4.7-8.5,6-11,8.6c-2.5,2.6-2.4,6-2.3,6.5C90.3,178.5,95.5,179.5,98.2,172.1z"/>
	</g>
	<g>
		<path class="st3" d="M79.9,162.8c5.4,4,9.4,8.1,10.3,13.7c0.6,4.4-1.6,7.7-5.4,7.8s-6.1-1.7-6.8-5.8
			C77.2,173.3,81.3,170.9,79.9,162.8z"/>
		<path class="st4" d="M79.9,162.8c6.7,8.1,3.5,16.3,4.9,21.5C80.7,177.2,84.5,169.8,79.9,162.8z"/>
		<path class="st5" d="M80.4,165.4c0.7,4.6-2,8.4-2.1,11.4c-0.1,3,1.8,5.1,2.1,5.4C78.9,173.7,82.7,171.5,80.4,165.4z"/>
	</g>
	<g>
		<path class="st3" d="M68.4,171c6.6,1.5,11.9,3.6,14.9,8.4c2.3,3.7,1.6,7.7-1.8,9.3s-6.3,0.9-8.5-2.6
			C70.1,181.7,72.9,177.8,68.4,171z"/>
		<path class="st4" d="M68.4,171c9.4,4.7,9.8,13.5,13.1,17.8C74.9,183.8,75.4,175.6,68.4,171z"/>
		<path class="st5" d="M69.9,173.2c2.4,4,1.5,8.5,2.6,11.3c1.1,2.8,3.7,4,4.1,4.1C71.9,181.4,74.5,177.8,69.9,173.2z"/>
	</g>
	<g>
		<path class="st3" d="M61.9,210.2c5.3,4.1,10.3,6.9,15.9,6.2c4.4-0.6,7-3.6,6.1-7.3c-0.9-3.7-3.3-5.4-7.4-4.9
			C71.3,204.7,70.1,209.4,61.9,210.2z"/>
		<path class="st4" d="M61.9,210.2c9.6,4.3,16.6-1,22-1.1C76,207.1,69.9,212.7,61.9,210.2z"/>
		<path class="st5" d="M64.6,210c4.6-0.6,7.5-4.3,10.4-5.2c2.9-0.9,5.4,0.4,5.7,0.6C72.2,206.3,71.1,210.6,64.6,210z"/>
	</g>
	<g>
		<path class="st3" d="M53,195.6c3.3,5.9,6.8,10.4,12.2,11.9c4.2,1.2,7.8-0.6,8.5-4.3c0.6-3.7-0.9-6.3-4.9-7.4
			C63.8,194.2,60.8,198,53,195.6z"/>
		<path class="st4" d="M53,195.6c7.2,7.7,15.7,5.6,20.7,7.6C67.1,198.2,59.4,201,53,195.6z"/>
		<path class="st5" d="M55.5,196.4c4.5,1.2,8.6-1,11.6-0.7s4.8,2.4,5,2.8C64,196,61.3,199.5,55.5,196.4z"/>
	</g>
	<g>
		<path class="st6" d="M88,190.2c0,0,3.2-3.1,6.5-1.3s0.1,6.3,0.1,6.3l-5,5c0,0-0.7,0.6-2.3,4.1s-9,2.5-7.7-2.5
			C80.9,196.6,88,190.2,88,190.2z"/>
		<path class="st7" d="M95.9,190.6c-2.1,5.6-4.7,6.3-5.9,7.5c-1.7,1.7-2.1,6.4-4.3,7.7c3.6-1.7,4-0.9,7.4-5
			C96.8,196.3,97.1,193.6,95.9,190.6z"/>
		<path class="st6" d="M77.9,178.4c0,0-2.9,0.8-3.2-1.6s2.8-3.2,2.8-3.2l4-0.2c0,0,0.5,0.1,2.6-1c2.1-1,4.2,3,1.5,4.9
			C82.9,179.2,77.9,178.4,77.9,178.4z"/>
		<path class="st7" d="M75.1,175.2c3.3-1.8,4.4-1,5.4-1c1.3-0.1,3.6-2.3,5-1.9c-2-0.9-1.8-1.4-4.8-0.9
			C77.4,171.9,76.1,173.1,75.1,175.2z"/>
		<path class="st8" d="M79.5,201.7c0.2-0.6,0.4-1.2,0.7-1.8c1.6,0.5,3.6,1.6,3.6,4c0,1-0.3,1.8-0.9,2.3
			C80.8,206,78.8,204.5,79.5,201.7z"/>
		<path class="st6" d="M77.9,199.7c0,0,5,0.3,5.1,4.1c0.1,3.8-5.4,3.2-5.4,3.2l-6.8-1.9c0,0-0.9-0.4-4.7,0s-6.7-6.6-1.6-8
			C69.5,195.9,77.9,199.7,77.9,199.7z"/>
		<path class="st7" d="M82.2,206c-5.9,0.9-7.8-1-9.5-1.4c-2.3-0.6-6.6,1.4-8.8,0.1c3.3,2.3,2.8,3,8.1,4
			C77.8,209.6,80.2,208.5,82.2,206z"/>
		<path class="st6" d="M85.8,179.8c0,0-2-3.3,1.3-4.3c3.3-0.9,5.3,2.8,5.3,2.8l1.5,4.8c0,0,0.1,0.6,2.1,3c2.1,2.4-2.8,5.8-6.3,2.9
			S85.8,179.8,85.8,179.8z"/>
		<path class="st8" d="M89.7,189c-0.3-0.2-0.5-0.5-0.7-0.7c1.2-0.8,3.5-1.9,5.9-0.6c0.5,0.3,0.9,0.6,1.1,1c-0.2,0.3-0.5,0.5-0.8,0.8
			c-0.2-0.2-0.5-0.4-0.8-0.6C92.7,187.9,90.9,188.4,89.7,189z"/>
		<path class="st7" d="M89.3,175.6c3.5,3.6,2.7,5.3,3.1,6.5c0.5,1.6,4.2,3.9,4.1,5.7c0.6-2.7,1.4-2.5-0.2-6.1
			C94.6,177.6,92.5,176.3,89.3,175.6z"/>
		<path class="st6" d="M65.3,185.7c0,0-3.4,2-4.3-1.3s2.8-5.3,2.8-5.3l4.9-1.4c0,0,0.6-0.1,3-2.1c2.4-2,5.8,2.8,2.8,6.3
			C71.6,185.3,65.3,185.7,65.3,185.7z"/>
		<path class="st7" d="M61.1,182.1c3.6-3.5,5.3-2.7,6.5-3c1.6-0.5,4-4.2,5.7-4.1c-2.7-0.6-2.5-1.4-6.1,0.2
			C63.2,176.9,61.8,179,61.1,182.1z"/>
		<path class="st6" d="M65.6,197.5c0,0,0.5,3.9-2.8,3.4c-3.4-0.4-3.8-4.6-3.8-4.6l0.6-5c0,0,0.2-0.6-0.8-3.6c-1-3,4.8-4.3,6.9-0.2
			C67.7,191.5,65.6,197.5,65.6,197.5z"/>
		<g>
			<path class="st8" d="M61.8,200.7c-0.3-0.1-0.6-0.3-0.8-0.5c0.1-1.5,0.9-2.8,2.9-3.4c0.6-0.2,1.3-0.3,2-0.3c0,0.2-0.1,0.3-0.1,0.5
				c-0.4,0-0.9,0.1-1.3,0.2C62.5,197.8,61.7,199.2,61.8,200.7z"/>
		</g>
		<path class="st7" d="M60.7,200c-1.8-4.7-0.4-5.9-0.3-7.2c0.2-1.7-2.3-5.3-1.5-6.8c-1.6,2.2-2.2,1.8-2.2,5.7
			C56.7,196.1,58.1,198.1,60.7,200z"/>
		<path class="st6" d="M81.3,194.7l-4,2.3c0,0,3.1,1.2,3.7,2.8c0.6,1.6,11.8-2.8,8.4-12.5c-1.2-0.7-3.1,2-3.3,2.1
			S81.3,194.7,81.3,194.7z"/>
		<g>
			<path class="st8" d="M87.4,188c0.5-0.6,1.2-1.2,2-0.7C88.8,187,88,187.4,87.4,188z"/>
			<path class="st8" d="M89.4,187.3c4.4,11.3-6.9,15.2-7.7,13.3c-0.1-0.2-0.2-0.4-0.3-0.5C83.5,200.6,92.5,196.2,89.4,187.3z"/>
			<path class="st8" d="M80.8,199.3c-1.3-1.3-3.4-2.1-3.4-2.1l0.1-0.1C78.2,197.4,80,198.2,80.8,199.3z"/>
		</g>
		<polygon class="st6" points="83.8,185 87.2,183.1 88.9,184.1 88.7,185.9 86.6,188.9 85.2,190.3 82.5,193.4 79.5,192.5 78.8,190.3 
					"/>
		<polygon class="st6" points="67.3,190.8 70.3,191.8 74.8,194.3 77,196.4 77,197.9 74.9,198 73,198.4 68.6,197.9 66.9,197 
			65.5,195.7 64.9,194.1 64.8,192.5 66,190.7 		"/>
		<path class="st8" d="M67.5,191.4c5.7,3.1,6.3,6.6,6.3,6.6l3.2-0.3c0,0,6.2-6.1,9.2-8.4c-0.8-1.3-2-1.3-0.5-7.1
			C86.4,179,61.7,188.3,67.5,191.4z"/>
		<path class="st6" d="M70.4,180.8l-3.5,0.9l-3.5,2.5c0,0-0.9,1.3-0.9,1.4c0,0.1,0.4,1.5,0.5,1.5c0.1,0.1,1.4,1.5,1.4,1.5l1.2,0.9
			l2.7,1l1.7,0.4l3.3-0.6l2.2-0.6l-1.8-2.6L70.4,180.8z"/>
		<path class="st6" d="M79.5,188.2c0,0,5.6-5.2,4.8-8.4c-0.7-3.2-6.3-2.6-9.8-1.3c-3.5,1.3-5.2,2.7-5.2,5.1
			c-0.1,2.4,8.1,4.1,8.1,4.1L79.5,188.2z"/>
		<path class="st8" d="M80.7,196.7l2.7,0c0,0,0.8,0.6,2.1,2.1c1.3,1.5-8.7,10-16.2,1.1c0-1.6,3.1-1.6,3.3-1.7
			C72.7,198.1,80.7,196.7,80.7,196.7z"/>
		<path class="st6" d="M80.3,197.1l2.4,0c0,0,0.9,0.3,2,1.6c1.1,1.3-7.9,9.2-15,1.7c0-1.4,3.3-1.9,3.4-1.9
			C73.3,198.3,80.3,197.1,80.3,197.1z"/>
		<path class="st9" d="M73.2,183.6c0,0-0.7-0.1-0.6-1.3c0.1-1.2,2.5-2,4.7-2c2.2,0,2.6,0.6,2.8,1.5c0.3,1.5-2,3-2,3L73.2,183.6z"/>
		<path class="st8" d="M77.3,182.4c-1.4,1-3.5,1.4-4.2,1.2c2.2,1.5,2.1,2.2,2.1,2.2l2.7-0.9C78,184.8,77.2,183.9,77.3,182.4z"/>
		<path class="st8" d="M71.5,186.3c2.3,1.6,3.3,3.7,3.3,3.7l3.3,1.4l1.6-3.5c0,0-0.1-3.3,0.5-4.2s-2.4,2.1-2.4,2.1
			S72.5,185.7,71.5,186.3z"/>
		<path class="st7" d="M69.2,183.6c-0.8,1.4,1.4,3.9,2,4.1c0.3-0.6,1.8-0.9,1.8-0.9l0.5,0.6l0.4-0.6l0.2,0.5c0,0,3.2,0,6.2-2.6
			C80,184,80,184,80,184l0.5,0.4c0,0,1.1-1.7,0.4-2.8c-0.7-1-2.5-2.4-3.7-1.3c1.8,0.6,2.6,2,2.2,2.6c-0.5,0.8-0.2,1.7-4.1,2.5
			C71.5,186.2,69.4,184.4,69.2,183.6z"/>
		<path class="st7" d="M69.5,182.1c0.7-0.9,0.7-3.1,6.3-5.6c5.6-2.5,8.9-0.4,8.9-0.4l-0.6,1l1.2-0.6c0,0,1.3,0.7,1.4,2.9
			s-2.1,7.7-2.2,7.8c-0.1,0.1-1.6-0.6-1.6-0.6l1.2,2.1c0,0-6.5,1.9-8.2,8.7c-0.3-4,1.9-8.9,4.5-11.2c2.6-2.2,4.9-6,1.6-8
			C79,176.3,71.8,179,69.5,182.1z"/>
		<path class="st7" d="M70,181.1c-4,1.3-7.5,2.9-6.2,5.5c1.5,3.1,7.3,4.1,10.9,3c3.6-1.2,4.8,0,5.4,0.3c-3-0.8-9.1,2.1-9.8,2.7
			c-0.7,0.5-1.2-1.5-1.2-1.5s-1,0.7-0.1,2.2c-2.5-0.2-3.6-1.2-4.1-2.1c-0.7-0.3-0.2-1.3-0.2-1.3l-0.9,0.3c0,0-2.5-0.9-2.3-3.5
			c0.2-2.4,1.5-6,9.1-6.4L70,181.1z"/>
		<path class="st7" d="M82.7,197c-4.9-1.8-10.3,3.4-16.1-0.9c-2-2.2-1.1-4.2-1.1-4.2l-0.5-0.4c0,0-1.1,1.1-1.2,2.9s0.6,4.6,1.3,4.7
			s0.9-1.1,0.9-1.1s0.5,0.3-0.3,1.3c3.7,2.4,8.3,1.7,8.8,1.1c0.4-0.7,0.6-2,0.6-2s0.2,0.3,0.3,1.5C75.5,201.1,79.8,197.1,82.7,197z"
			/>
		<path class="st7" d="M86.1,182.8l-0.7,2.2c0,0,1.2-1.6,2.4-0.5c2.9,2.7-9.4,10-10.1,12.6c4.9-3.1,6.5-2.1,8.1-4.8
			c-0.6-0.6-0.3-1.6-0.3-1.6s0.2,0.3,1,0.6c5.3-2.8,4-7.8,5.1-8.9c-0.8-1.1-2.5,0-2.5,0s0.1-0.7,1.8-1.4
			C88,180.4,86.1,182.8,86.1,182.8z"/>
	</g>
	<g>
		<path class="st3" d="M231.5,196.1c-4,5.4-8,9.5-13.6,10.3c-4.4,0.7-7.7-1.5-7.9-5.3c-0.2-3.8,1.7-6.1,5.8-6.8
			C220.9,193.4,223.4,197.6,231.5,196.1z"/>
		<path class="st4" d="M231.5,196.1c-8.1,6.8-16.3,3.6-21.5,5C217.1,197,224.5,200.7,231.5,196.1z"/>
		<path class="st5" d="M228.8,196.6c-4.6,0.7-8.4-2-11.4-2.1c-3-0.1-5.1,1.8-5.4,2.1C220.5,195.2,222.8,199,228.8,196.6z"/>
	</g>
	<g>
		<path class="st3" d="M181.7,175.5c-2,6.4-3,12-0.4,17.1c2,3.9,5.8,5.3,8.9,3.2s4-5,2.1-8.6C190,182.4,185.2,182.9,181.7,175.5z"/>
		<path class="st4" d="M181.7,175.5c-0.8,10.5,6.6,15.3,8.6,20.3C189.4,187.6,182,183.8,181.7,175.5z"/>
		<path class="st5" d="M182.8,177.9c2.2,4.1,6.6,5.6,8.4,8c1.8,2.4,1.5,5.2,1.4,5.6C188.8,183.8,184.4,184.2,182.8,177.9z"/>
	</g>
	<g>
		<path class="st3" d="M224.4,213.2c-6.7,0.4-12.4-0.2-16.6-3.9c-3.3-2.9-3.7-6.9-0.9-9.5c2.8-2.5,5.8-2.6,8.9,0.1
			C219.7,203.4,218.1,207.9,224.4,213.2z"/>
		<path class="st4" d="M224.4,213.2c-10.4-1.9-13.1-10.3-17.5-13.4C214.6,202.7,216.4,210.7,224.4,213.2z"/>
		<path class="st5" d="M222.3,211.5c-3.5-3.1-3.8-7.8-5.7-10.1s-4.7-2.8-5.1-2.8C218.1,204.2,216.6,208.3,222.3,211.5z"/>
	</g>
	<g>
		<path class="st6" d="M195.1,183.9c0,0-3.3-3.4-6.9-1.6c-3.6,1.8-0.3,6.7-0.3,6.7l5.2,5.5c0,0,0.8,0.6,2.4,4.4s9.6,3,8.3-2.4
			C202.5,191,195.1,183.9,195.1,183.9z"/>
		<path class="st7" d="M186.7,184.1c2.1,6,4.8,6.8,6.1,8.2c1.7,1.8,2,6.9,4.3,8.3c-3.8-1.9-4.2-1.1-7.8-5.6
			C185.4,190.1,185.3,187.3,186.7,184.1z"/>
		<path class="st6" d="M206.2,171.7c0,0,3,1,3.4-1.7c0.4-2.6-2.9-3.5-2.9-3.5l-4.2-0.3c0,0-0.5,0.1-2.8-1.1c-2.2-1.2-4.6,3-1.7,5.2
			C200.9,172.4,206.2,171.7,206.2,171.7z"/>
		<path class="st7" d="M209.3,168.3c-3.4-2-4.7-1.2-5.8-1.2c-1.4-0.1-3.8-2.5-5.2-2.1c2.2-0.8,1.9-1.4,5.2-0.8
			C207,164.8,208.4,166.1,209.3,168.3z"/>
		<path class="st8" d="M203.7,196.5c-0.1-0.6-0.4-1.3-0.7-1.9c-1.7,0.5-3.8,1.6-4,4.2c-0.1,1.1,0.3,1.9,0.9,2.5
			C202.3,201,204.4,199.4,203.7,196.5z"/>
		<path class="st6" d="M205.6,194.4c0,0-5.4,0.2-5.6,4.2c-0.2,4,5.7,3.6,5.7,3.6l7.3-1.8c0,0,0.9-0.4,5,0.1c4.1,0.5,7.3-6.8,2-8.4
			C214.6,190.6,205.6,194.4,205.6,194.4z"/>
		<path class="st7" d="M200.8,200.9c6.3,1.1,8.3-0.8,10.1-1.2c2.5-0.6,7,1.7,9.4,0.4c-3.6,2.4-3.1,3.1-8.7,4
			C205.4,205,202.9,203.7,200.8,200.9z"/>
		<path class="st6" d="M197.7,172.9c0,0,2.2-3.5-1.2-4.6c-3.4-1.1-5.8,2.8-5.8,2.8l-1.7,5.1c0,0-0.1,0.7-2.4,3.2
			c-2.3,2.5,2.8,6.3,6.6,3.3C197,179.6,197.7,172.9,197.7,172.9z"/>
		<path class="st8" d="M193.3,182.6c0.3-0.2,0.5-0.5,0.8-0.7c-1.3-0.9-3.7-2.2-6.3-0.9c-0.6,0.3-1,0.7-1.3,1.1
			c0.2,0.3,0.5,0.6,0.9,0.8c0.2-0.2,0.5-0.4,0.9-0.6C190.2,181.3,192,181.9,193.3,182.6z"/>
		<path class="st7" d="M194.1,168.3c-3.8,3.7-3.1,5.5-3.5,6.8c-0.6,1.7-4.6,4.1-4.5,5.9c-0.5-2.9-1.4-2.7,0.4-6.5
			C188.5,170.3,190.7,168.9,194.1,168.3z"/>
		<path class="st6" d="M219.5,179.8c0,0,3.5,2.2,4.6-1.2c1.1-3.5-2.8-5.7-2.8-5.7l-5.1-1.7c0,0-0.7-0.1-3.2-2.3
			c-2.5-2.3-6.3,2.8-3.2,6.6S219.5,179.8,219.5,179.8z"/>
		<path class="st7" d="M224.1,176.2c-3.8-3.8-5.6-3-6.8-3.4c-1.7-0.6-4.1-4.6-6-4.5c2.8-0.5,2.7-1.4,6.5,0.4
			C222,170.6,223.4,172.8,224.1,176.2z"/>
		<path class="st6" d="M218.8,192.4c0,0-0.7,4.1,2.9,3.8c3.6-0.3,4.2-4.8,4.2-4.8l-0.4-5.4c0,0-0.2-0.7,0.9-3.8
			c1.1-3.2-5-4.7-7.3-0.4C216.7,186,218.8,192.4,218.8,192.4z"/>
		<g>
			<path class="st8" d="M222.7,195.9c0.3-0.1,0.6-0.3,0.9-0.5c0-1.6-0.9-3-3-3.7c-0.7-0.2-1.4-0.3-2.1-0.4c0,0.2,0.1,0.4,0.1,0.5
				c0.5,0.1,0.9,0.2,1.3,0.3C222.1,192.8,222.8,194.4,222.7,195.9z"/>
		</g>
		<path class="st7" d="M223.9,195.3c2-5,0.6-6.3,0.5-7.6c-0.2-1.8,2.7-5.6,1.8-7.3c1.6,2.4,2.3,2,2.2,6.2
			C228.3,191.2,226.7,193.3,223.9,195.3z"/>
		<path class="st6" d="M202.1,189l4.2,2.6c0,0-3.4,1.1-4.1,2.8c-0.7,1.7-12.5-3.3-8.5-13.6c1.3-0.7,3.3,2.3,3.4,2.4
			S202.1,189,202.1,189z"/>
		<g>
			<path class="st8" d="M195.8,181.6c-0.5-0.7-1.2-1.3-2.1-0.8C194.4,180.4,195.1,180.9,195.8,181.6z"/>
			<path class="st8" d="M193.7,180.7c-5.1,11.9,6.8,16.4,7.8,14.5c0.1-0.2,0.2-0.4,0.3-0.6C199.6,195.1,190,190.1,193.7,180.7z"/>
			<path class="st8" d="M202.5,193.9c1.5-1.3,3.7-2.2,3.7-2.2l-0.1-0.1C205.3,191.9,203.4,192.7,202.5,193.9z"/>
		</g>
		<polygon class="st6" points="199.8,178.5 196.1,176.4 194.3,177.4 194.5,179.3 196.6,182.6 198.1,184.1 200.9,187.5 204.1,186.6 
			204.9,184.3 		"/>
		<polygon class="st6" points="217.2,185.2 213.9,186.2 209,188.7 206.6,190.9 206.6,192.5 208.8,192.7 210.8,193.1 215.6,192.8 
			217.3,191.9 218.9,190.5 219.6,188.8 219.7,187.1 218.5,185.1 		"/>
		<path class="st8" d="M216.9,185.8c-6.2,3.2-6.9,6.8-6.9,6.8l-3.4-0.4c0,0-6.4-6.7-9.5-9.2c0.9-1.4,2.2-1.3,0.8-7.6
			C197.1,172,223.2,182.7,216.9,185.8z"/>
		<path class="st6" d="M214.1,174.4l3.7,1.1l3.6,2.7c0,0,0.9,1.4,0.9,1.5c0,0.1-0.5,1.5-0.6,1.6s-1.6,1.6-1.6,1.6l-1.3,0.9l-2.9,1
			l-1.8,0.3l-3.5-0.7l-2.3-0.8l2-2.7L214.1,174.4z"/>
		<path class="st6" d="M204.2,182c0,0-5.8-5.7-4.9-9.1c0.9-3.4,6.8-2.5,10.6-1c3.7,1.5,5.4,3.1,5.4,5.6c0,2.5-8.7,4.1-8.7,4.1
			L204.2,182z"/>
		<path class="st8" d="M202.7,191.1l-2.9-0.1c0,0-0.9,0.6-2.3,2.1s9,11,17.2,1.7c0.1-1.7-3.3-1.8-3.4-1.9
			C211.1,192.8,202.7,191.1,202.7,191.1z"/>
		<path class="st6" d="M203.1,191.5l-2.5-0.1c0,0-1,0.3-2.2,1.6s8.1,10.1,15.9,2.3c0.1-1.5-3.4-2.1-3.5-2.2S203.1,191.5,203.1,191.5
			z"/>
		<path class="st9" d="M211.1,177.3c0,0,0.8-0.1,0.7-1.3c-0.1-1.2-2.6-2.2-4.9-2.3c-2.3-0.1-2.8,0.6-3,1.5c-0.4,1.6,2,3.3,2,3.3
			L211.1,177.3z"/>
		<path class="st8" d="M206.7,175.9c1.5,1.1,3.7,1.6,4.4,1.4c-2.4,1.5-2.3,2.2-2.3,2.2l-2.9-1C205.9,178.5,206.8,177.5,206.7,175.9z
			"/>
		<path class="st8" d="M212.8,180.3c-2.5,1.6-3.7,3.9-3.7,3.9l-3.6,1.4l-1.6-3.8c0,0,0.2-3.5-0.4-4.5c-0.6-1,2.5,2.3,2.5,2.3
			S211.7,179.7,212.8,180.3z"/>
		<path class="st7" d="M215.3,177.5c0.8,1.6-1.6,4.1-2.2,4.3c-0.3-0.7-1.9-1-1.9-1l-0.5,0.6l-0.4-0.6l-0.3,0.5c0,0-3.5-0.1-6.6-3
			c0.4-0.7,0.4-0.7,0.4-0.7l-0.6,0.4c0,0-1.1-1.9-0.3-3c0.8-1.1,2.7-2.5,4-1.3c-1.9,0.6-2.8,2-2.4,2.7c0.5,0.9,0.1,1.8,4.3,2.8
			C212.8,180.2,215.1,178.3,215.3,177.5z"/>
		<path class="st7" d="M215.1,175.9c-0.7-0.9-0.6-3.3-6.6-6.2s-9.5-0.8-9.5-0.8l0.6,1.1l-1.3-0.7c0,0-1.4,0.7-1.6,3
			c-0.1,2.3,2,8.3,2.1,8.3s1.7-0.6,1.7-0.6l-1.4,2.2c0,0,6.9,2.2,8.4,9.6c0.5-4.3-1.7-9.6-4.5-12.1c-2.8-2.5-5-6.5-1.4-8.6
			C205.1,169.3,212.8,172.4,215.1,175.9z"/>
		<path class="st7" d="M214.5,174.8c4.3,1.5,7.9,3.4,6.5,6.1c-1.7,3.3-7.9,4.2-11.7,2.8c-3.8-1.4-5.1-0.2-5.8,0.2
			c3.3-0.8,9.6,2.6,10.4,3.2s1.3-1.6,1.3-1.6s1,0.8,0.1,2.3c2.7-0.1,3.8-1.2,4.4-2.1c0.7-0.3,0.3-1.4,0.3-1.4l0.9,0.4
			c0,0,2.7-0.9,2.6-3.7c-0.1-2.6-1.5-6.5-9.5-7.1L214.5,174.8z"/>
		<path class="st7" d="M200.5,191.4c5.3-1.8,10.9,3.9,17.2-0.5c2.2-2.3,1.3-4.4,1.3-4.4l0.5-0.4c0,0,1.2,1.2,1.1,3.1
			c0,1.9-0.7,4.9-1.5,5c-0.8,0.1-1-1.2-1-1.2s-0.6,0.3,0.3,1.4c-4,2.5-9,1.6-9.4,0.9c-0.4-0.7-0.6-2.2-0.6-2.2s-0.3,0.3-0.4,1.6
			C208.1,196,203.6,191.5,200.5,191.4z"/>
		<path class="st7" d="M197.4,176l0.7,2.4c0,0-1.2-1.8-2.5-0.7c-3.2,2.8,9.7,11,10.4,13.8c-5.1-3.5-6.9-2.5-8.5-5.4
			c0.7-0.6,0.4-1.7,0.4-1.7s-0.2,0.3-1.1,0.6c-5.6-3.1-4-8.5-5.1-9.6c0.8-1.1,2.7,0.1,2.7,0.1s-0.1-0.7-1.9-1.6
			C195.4,173.5,197.4,176,197.4,176z"/>
	</g>
</g>
<path id="Text_Background" class="rpl10-1" d="M209.3,219.4c0,0-31.3,10.5-66.7,10.5s-66.7-10.5-66.7-10.5v-29.1h133.4V219.4z"/>
<g>
	<path class="st8" d="M174.9,222.7c-0.2,0-0.4,0.2-0.4,0.4c0,1.4-1.1,2.5-2.5,2.5c-1.1,0-1.9-0.9-1.9-1.9c0-0.8,0.7-1.5,1.5-1.5
		c0.6,0,1.1,0.5,1.1,1.1c0,0.5-0.4,0.8-0.8,0.8c-0.2,0-0.4,0.2-0.4,0.4s0.2,0.4,0.4,0.4c0.8,0,1.5-0.7,1.5-1.5c0-1-0.8-1.8-1.8-1.8
		c-1.1,0-2.1,0.9-2.2,2c-0.3-1.5-1.5-2.8-3.1-3c-2.5-0.4-4.7,1.4-5.1,3.8c0,0,0,0,0,0c-0.4,1.9-2.1,3.3-4.1,3.3
		c-1.8,0-3.3-1.5-3.3-3.3c0-1.4,1.1-2.5,2.5-2.5c1.1,0,2,0.9,2,2c0,0.7-0.5,1.3-1.1,1.4c-0.1-0.2-0.2-0.3-0.4-0.3
		c-0.3,0-0.5,0.2-0.5,0.5c0,0.3,0.2,0.5,0.5,0.5c0,0,0,0,0,0c0,0,0,0,0.1,0c1.2,0,2.2-1,2.2-2.2c0-1.5-1.2-2.7-2.7-2.7
		c-1.8,0-3.3,1.5-3.3,3.3c0,0.1,0,0.1,0,0.2c-0.3-2.3-2.3-4.1-4.7-4.1c-3.2,0-5.9,2.6-5.9,5.9c0,0.2,0.2,0.4,0.4,0.4
		c0.2,0,0.4-0.2,0.4-0.4c0-2.8,2.3-5.2,5.2-5.2c2.2,0,4.1,1.8,4.1,4.1c0,1.7-1.4,3.2-3.2,3.2c-1.4,0-2.5-1.1-2.5-2.5
		c0-1,0.9-1.9,1.9-1.9c0.5,0,1,0.3,1.2,0.7c-0.3,0.1-0.6,0.4-0.6,0.7c0,0.4,0.3,0.8,0.8,0.8c0.4,0,0.8-0.3,0.8-0.8c0,0,0,0,0-0.1
		c0-1.2-1-2.1-2.2-2.1c-1.4,0-2.6,1.2-2.6,2.6c0,1.8,1.4,3.2,3.2,3.2c2.1,0,3.9-1.7,3.9-3.9c0-0.1,0-0.2,0-0.2
		c0.3,1.9,1.9,3.4,3.9,3.4c2.4,0,4.3-1.7,4.8-3.9c0,0,0,0,0,0c0.1-1,0.7-1.9,1.5-2.5c0.8-0.6,1.8-0.9,2.8-0.7
		c1.6,0.2,2.7,1.7,2.5,3.3c-0.2,1.3-1.3,2.1-2.6,1.9c-0.8-0.1-1.4-0.8-1.5-1.5c0.3-0.1,0.5-0.3,0.5-0.6c0-0.3-0.3-0.6-0.6-0.6
		c-0.3,0-0.6,0.3-0.6,0.6c0,0,0,0,0,0c-0.2,1.4,0.7,2.6,2.1,2.8c0.1,0,0.3,0,0.4,0c1.5,0,2.8-1.1,3-2.6c0-0.1,0-0.2,0-0.4
		c0.3,1.2,1.3,2.1,2.6,2.1c1.8,0,3.2-1.5,3.2-3.2C175.2,222.9,175.1,222.7,174.9,222.7z"/>
	<path class="st8" d="M136.6,220.3c-2.4,0-4.4,1.8-4.7,4.1c0-0.1,0-0.1,0-0.2c0-1.8-1.5-3.3-3.3-3.3c-1.5,0-2.7,1.2-2.7,2.7
		c0,1.2,1,2.2,2.2,2.2c0,0,0,0,0.1,0c0,0,0,0,0,0c0.3,0,0.5-0.2,0.5-0.5c0-0.3-0.2-0.5-0.5-0.5c-0.2,0-0.3,0.1-0.4,0.3
		c-0.6-0.2-1.1-0.7-1.1-1.4c0-1.1,0.9-2,2-2c1.4,0,2.5,1.1,2.5,2.5c0,1.8-1.5,3.3-3.3,3.3c-2,0-3.7-1.4-4.1-3.3c0,0,0,0,0,0
		c-0.4-2.5-2.6-4.2-5.1-3.8c-1.6,0.2-2.8,1.5-3.1,3c-0.1-1.1-1-2-2.2-2c-1,0-1.8,0.8-1.8,1.8c0,0.8,0.7,1.5,1.5,1.5
		c0.2,0,0.4-0.2,0.4-0.4s-0.2-0.4-0.4-0.4c-0.5,0-0.8-0.4-0.8-0.8c0-0.6,0.5-1.1,1.1-1.1c0.8,0,1.5,0.7,1.5,1.5
		c0,1.1-0.9,1.9-1.9,1.9c-1.4,0-2.5-1.1-2.5-2.5c0-0.2-0.2-0.4-0.4-0.4c-0.2,0-0.4,0.2-0.4,0.4c0,1.8,1.5,3.2,3.2,3.2
		c1.3,0,2.3-0.9,2.6-2.1c0,0.1,0,0.2,0,0.4c0.2,1.5,1.5,2.6,3,2.6c0.1,0,0.3,0,0.4,0c1.4-0.2,2.3-1.5,2.1-2.8c0,0,0,0,0,0
		c0-0.3-0.3-0.6-0.6-0.6c-0.3,0-0.6,0.3-0.6,0.6c0,0.3,0.2,0.5,0.5,0.6c-0.1,0.8-0.7,1.4-1.5,1.5c-1.3,0.2-2.4-0.7-2.6-1.9
		c-0.2-1.6,0.9-3.1,2.5-3.3c1-0.1,2,0.1,2.8,0.7c0.8,0.6,1.3,1.5,1.5,2.5c0,0,0,0,0,0c0.5,2.2,2.4,3.9,4.8,3.9c2,0,3.7-1.5,3.9-3.4
		c0,0.1,0,0.2,0,0.2c0,2.1,1.7,3.9,3.9,3.9c1.8,0,3.2-1.4,3.2-3.2c0-1.4-1.2-2.6-2.6-2.6c-1.2,0-2.1,0.9-2.2,2.1c0,0,0,0,0,0.1
		c0,0.4,0.3,0.8,0.8,0.8s0.8-0.3,0.8-0.8c0-0.4-0.3-0.7-0.6-0.7c0.3-0.4,0.7-0.7,1.2-0.7c1,0,1.9,0.9,1.9,1.9c0,1.4-1.1,2.5-2.5,2.5
		c-1.7,0-3.2-1.4-3.2-3.2c0-2.2,1.8-4.1,4.1-4.1c2.8,0,5.2,2.3,5.2,5.2c0,0.2,0.2,0.4,0.4,0.4c0.2,0,0.4-0.2,0.4-0.4
		C142.5,222.9,139.9,220.3,136.6,220.3z"/>
</g>
<text id="text1" transform="matrix(1 0 0 1 138.3804 202.3135)" class="st11 st12 st13 editable">Happy birthday!</text>
<text id="text2" transform="matrix(1 0 0 1 138.7994 215.415)" class="st11 st12 st13 editable">My friend.</text>
<path id="AlpStories_LOGO" d="M145.8,31.4c0-0.1,0.1-0.2,0.3-0.2h3.3c0.2,0,0.3,0.1,0.3,0.2v2.8c0,0.1-0.1,0.2-0.3,0.2h-3.3
	c-0.2,0-0.3-0.1-0.3-0.2V31.4z M145,31.3v3.1c0,0.6,0.4,0.8,0.9,0.8h3.7c0.6,0,0.9-0.2,0.9-0.8v-3.1c0-0.6-0.4-0.8-0.9-0.8h-3.7
	C145.4,30.5,145,30.7,145,31.3 M138.2,30.5v0.6c0,0,0,0,0,0h2c0,0,0,0,0,0v3.9c0,0,0,0,0,0h0.8c0,0,0,0,0,0v-3.9c0,0,0,0,0,0h2
	c0,0,0,0,0,0v-0.6c0,0,0,0,0,0L138.2,30.5C138.2,30.5,138.2,30.5,138.2,30.5 M130.4,34.1v0.3c0,0.6,0.4,0.8,0.9,0.8h1.4h2.6
	c0.6,0,0.9-0.2,0.9-0.8v-1.7c0-0.6-0.4-0.8-0.9-0.8h-3.6c-0.2,0-0.3-0.1-0.3-0.2v-1.1c0-0.1,0.1-0.2,0.3-0.2h3.3
	c0.2,0,0.3,0.1,0.3,0.2v0.1c0,0.1,0,0.1,0.1,0.1l0.7-0.1c0,0,0.1,0,0.1-0.1v-0.2c0-0.6-0.4-0.8-0.9-0.8h-3.6c-0.6,0-0.9,0.2-0.9,0.8
	v1.5c0,0.6,0.4,0.8,0.9,0.8h3.6c0.2,0,0.3,0.1,0.3,0.2v1.4c0,0.1-0.1,0.2-0.3,0.2h-3.7c-0.2,0-0.3-0.1-0.3-0.2V34
	c0-0.1,0-0.1-0.1-0.1L130.4,34.1C130.4,34,130.4,34.1,130.4,34.1 M115.1,35.2C115.1,35.2,115.1,35.2,115.1,35.2l-3-5.6
	c0,0,0,0-0.1,0h-1c0,0-0.1,0-0.1,0l-3,5.6c0,0,0,0,0,0h0.8c0,0,0.1,0,0.1,0l2.6-4.8c0,0,0,0,0,0c0,0,0,0,0,0h0l1.5,2.7l-2.3,0
	c-0.2,0-0.4,0.1-0.4,0.3v0.1c0,0.1,0.1,0.3,0.4,0.3l2.8,0l0.7,1.4c0,0,0,0,0.1,0H115.1z M121.5,35.1v-0.6c0,0,0,0,0,0h-3.5
	c0,0,0,0,0,0v-3.9c0,0,0,0,0,0H117c0,0,0,0,0,0v4.6c0,0.1,0,0.1,0.1,0.1L121.5,35.1C121.5,35.2,121.5,35.2,121.5,35.1 M128.2,32.5
	v-1.2c0-0.6-0.4-0.8-0.9-0.8h-3.9c-0.1,0-0.1,0-0.1,0.1v4.6c0,0,0,0,0,0l0.8,0c0,0,0,0,0,0v-3.9c0,0,0,0,0,0h2.9
	c0.2,0,0.3,0.1,0.3,0.2v0.9c0,0.1-0.1,0.2-0.3,0.2l-2.1,0c-0.2,0-0.4,0.1-0.4,0.3v0c0,0.1,0.1,0.3,0.4,0.3l2.3,0
	C127.9,33.3,128.2,33.1,128.2,32.5 M143.3,19.7c0,0-3-6.4-3-6.4c-0.2-0.5-0.6-0.8-1.1-0.8c-0.5,0-1,0.2-1.3,0.6
	c0,0-8.1,11.6-8.1,11.6c-0.2,0.3-0.2,0.6-0.1,0.7c0.1,0.1,0.4,0,0.6-0.3c0,0,7.9-10.1,7.9-10.1c0.2-0.3,0.5-0.6,0.9-0.5
	c0.3,0,0.6,0.3,0.7,0.6c0,0,2.3,5.2,2.3,5.2c0.2,0.4,0.6,0.7,1,0.5C143.4,20.6,143.5,20.2,143.3,19.7 M152.7,21.8
	c0.2-0.5,0-1-0.3-1.4c0,0-5-6-5-6c-0.1-0.2-0.2-0.4-0.1-0.6c0.1-0.2,0.3-0.4,0.6-0.4c0,0,3.9-0.7,3.9-0.7c0.2,0,0.4-0.2,0.3-0.3
	c0-0.2-0.2-0.3-0.4-0.3l-5.3,0.3c-0.5,0-0.9,0.3-1.1,0.7c-0.1,0.4,0,0.8,0.2,1.1c0,0,5.1,5.9,5.1,5.9c0.2,0.2,0.3,0.5,0.2,0.8
	c-0.1,0.2-0.3,0.4-0.6,0.5c0,0-12.7,3-12.7,3c-0.3,0.1-0.6,0.3-0.6,0.4c0,0.2,0.3,0.2,0.7,0.2c0,0,14-2.5,14-2.5
	C152.1,22.5,152.5,22.2,152.7,21.8 M158.3,35.2c0.1-0.1,0-0.2,0-0.2c0,0-1-1-1.7-1.6l0.4,0c0.6,0,0.9-0.2,0.9-0.8v-1.2
	c0-0.6-0.4-0.8-0.9-0.8h-3.7c-0.1,0-0.1,0-0.1,0.1v4.6c0,0,0,0,0,0l0.8,0c0,0,0,0,0,0v-3.9c0,0,0,0,0,0h2.7c0.2,0,0.3,0.1,0.3,0.2
	v0.9c0,0.1-0.1,0.2-0.3,0.2l-1.9,0c-0.2,0-0.4,0.1-0.4,0.3v0c0,0.1,0.1,0.3,0.4,0.3l0.8,0l1.8,1.9c0,0,0.1,0.1,0.2,0.1L158.3,35.2
	C158.2,35.2,158.3,35.2,158.3,35.2 M161.3,35.1v-4.6c0,0,0,0,0,0h-0.8c0,0,0,0,0,0v4.6c0,0,0,0,0,0L161.3,35.1
	C161.3,35.2,161.3,35.2,161.3,35.1 M168.6,35.1v-0.6c0,0,0,0,0,0h-3.8c0,0,0,0,0,0v-1.4l1.8,0c0.2,0,0.4-0.1,0.4-0.3v0
	c0-0.1-0.1-0.3-0.4-0.3l-1.8,0v-1.1c0,0,0,0,0,0h3.7c0,0,0,0,0,0v-0.6c0,0,0,0,0,0h-4.5c-0.1,0-0.1,0-0.1,0.1v4.5
	c0,0.1,0,0.1,0.1,0.1L168.6,35.1C168.6,35.2,168.6,35.2,168.6,35.1 M171.3,32.2v-0.8c0-0.1,0.1-0.2,0.3-0.2h2.7
	c0.2,0,0.3,0.1,0.3,0.2v0.1c0,0.1,0,0.1,0.1,0.1l0.6-0.1c0,0,0.1,0,0.1-0.1v-0.2c0-0.6-0.4-0.8-0.9-0.8h-3c-0.6,0-0.9,0.2-0.9,0.8v1
	c0,0.6,0.4,0.8,0.9,0.8h3c0.2,0,0.3,0.1,0.3,0.2v0.9c0,0.1-0.1,0.2-0.3,0.2h-3c-0.2,0-0.3-0.1-0.3-0.2V34c0-0.1,0-0.1-0.1-0.1
	l-0.6,0.1c0,0-0.1,0-0.1,0.1v0.3c0,0.6,0.4,0.8,0.9,0.8h1h2.3c0.6,0,0.9-0.2,0.9-0.8v-1.2c0-0.6-0.4-0.8-0.9-0.8h-3
	C171.4,32.4,171.3,32.3,171.3,32.2"/>
<rect id="text_background_left" class="svgRibbon" width="56.7" height="236.3"/>
<rect id="text_background_right" x="226.8" class="svgRibbon" width="56.7" height="236.3"/>
<rect id="Button_Stripe" y="236.3" class="rpl15-1" width="283.5" height="18.9"/>
<text id="product" transform="matrix(1 0 0 1 139.0948 249.2991)" class="st11 st12 st16 svgProduct">Product name</text>
<text id="quantity" transform="matrix(1 0 0 1 8.9839 250.6214)" class="st11 st12 st17">220 ml</text>
<g>
	
		<image style="overflow:visible;" width="28" height="28" id="Icon1" class="st18" transform="matrix(0.4207 0 0 0.4207 266.0086 239.8021)">
	</image>
	
		<image style="overflow:visible;" width="28" height="28" id="Icon2" class="st18" transform="matrix(0.4207 0 0 0.4207 251.2685 239.8021)">
	</image>
	
		<image style="overflow:visible;" width="28" height="28" id="Icon3" class="st18" transform="matrix(0.4207 0 0 0.4207 236.5285 239.8021)">
	</image>
	
		<image style="overflow:visible;" width="28" height="28" id="Icon4" class="st18" transform="matrix(0.4207 0 0 0.4207 207.0484 239.8021)">
	</image>
	
		<image style="overflow:visible;" width="28" height="28" id="Icon5" class="st18" transform="matrix(0.4207 0 0 0.4207 221.7885 239.8021)">
	</image>
</g>
</svg>
