<?xml version="1.0" encoding="utf-8"?>
<svg version="1.1" id="Layer_1"  data-color-numbers="3" xmlns="http://www.w3.org/2000/svg" xmlns:xlink="http://www.w3.org/1999/xlink" x="0px" y="0px"
	 viewBox="0 0 272.1 184.3" style="enable-background:new 0 0 272.1 184.3;" xml:space="preserve">
<style type="text/css">
  <![CDATA[
  @font-face {
        font-family: "DevroyeUnicode";
        src: url("/Content/fonts/DEVROYUN.ttf") format("truetype");
  }
	.rpl0-1{fill:#E5CCCF;}
  .rpl0-2{fill:#db5c87;}
  .rpl0-3{fill:#b2b1d9;}
	.rpl1-1{fill:#DB804A;}
  .rpl1-2{fill:#fbd6db;}
  .rpl1-3{fill:#69539c;}
	.rpl2-1{fill:#7F000F;}
  .rpl2-2{fill:#801d7f;}
  .rpl2-3{fill:#f26422;}
	.st3{fill:#479335;}
	.st4{fill:#1D590C;}
	.st5{fill:#5FB247;}
	.st6{fill:#840000;}
	.st7{fill:#ED1818;}
	.st8{fill:#490000;}
	.st9{fill:#BC0000;}
	.rpl10-1{fill:#99333F;}
  .rpl10-2{fill:#a967aa;}
  .rpl10-3{fill:#f9a01b;}
	.st11{fill:#FFFFFF;}
	.st12{font-family:'DevroyeUnicode';}
	.st13{font-size:6.35px;}
	.rpl15-1{fill:#A33474;}
  .rpl15-2{fill:#b20044;}
  .rpl15-3{fill:#406325;}
	.st16{font-size:6.24px;}
	.st17{font-size:7px;}
  .st18{fill:#FFFFFF;}
  .editable{text-anchor: middle;}
  .svgProduct{text-anchor: middle;}
  .svgRibbon{visibility:hidden; opacity:0.6;fill:#FFFFFF;}
 ]]>
</style>
<image style="overflow:visible;" width="540" height="760" id="editableImg" xlink:href="/Content/img/cat.jpg"  transform="matrix(0.19 0 0 0.19 88.4756 22.6411)">
</image>
<path id="Background" class="rpl0-1" d="M272.1,184.3V0H0v184.3H272.1z M91.3,57.2c0-14,11.4-25.4,25.4-25.4h33.1
	c14,0,25.4,11.4,25.4,25.4v83.7c0,14-11.4,25.4-25.4,25.4h-33.1c-14,0-25.4-11.4-25.4-25.4V57.2z"/>
<path id="Pattern" class="rpl1-1" d="M67.6,83.7c0-0.1,0-0.2-0.1-0.3C67.6,83.2,67.6,83.2,67.6,83.7z M19.1,50.6
	c-1.4-0.7-3-0.8-4.4-0.3c-0.4-1.5-1.3-2.8-2.7-3.5c-2.7-1.4-6.1-0.3-7.5,2.5C4,50.2,3.8,51,3.6,51.8c0,0-0.1,0.7-0.1,1.2
	c-0.3,5.5,3.9,11.3,3.9,11.3s7.1,0.1,11.5-3.2c0,0,0.6-0.4,0.9-0.8c0.6-0.6,1.1-1.2,1.5-2C22.7,55.5,21.8,52.1,19.1,50.6z M201,19.1
	c3,2.9,11.5-0.4,11.5-3.3c0.3-2.1,0.2-6.2,1.3-7.7c-6.6,5-14.7,5.7-17.8,5.3C199.6,15.7,199.2,17,201,19.1z M46.3,46.9
	c0,0,0.1,0.1,0.1,0.1c0,0,0.1,0.1,0.1,0.1l0.1,0c0,0,0,0,0.1,0l0.1,0l0,0l0,0l0,0l0,0l0,0c0.1,0,0.1,0,0.2,0c0.1,0,0.2,0,0.3-0.1
	c0.2-0.1,0.4-0.2,0.6-0.3c0.4-0.3,0.7-0.6,1-1c0.3-0.4,0.6-0.8,0.9-1.3c0.3-0.5,0.5-1,0.6-1.5c0.1-0.3,0.1-0.6,0-0.8
	c0,0,0-0.1,0-0.1l0,0c0,0,0,0,0-0.1l0-0.1c0,0,0-0.1-0.1-0.1c-0.1-0.1-0.2-0.2-0.3-0.3c-0.1-0.1-0.2-0.2-0.3-0.2
	c-0.1-0.1-0.3-0.1-0.4-0.1c-0.1,0-0.3,0-0.4,0c-0.1,0-0.3,0-0.4,0c-0.3,0-0.5,0.1-0.7,0.2c-0.2,0.1-0.5,0.2-0.7,0.3
	c0,0-0.1,0.1-0.1,0.1c0,0-0.1,0.1-0.1,0.1c-0.1,0.1-0.2,0.2-0.2,0.3c-0.1,0.2-0.2,0.4-0.2,0.6c0,0.2,0,0.4,0,0.6
	c0,0.2,0.1,0.4,0.2,0.5c0.1,0.1,0.1,0.1,0.2,0.1c0.1,0,0.1,0,0.2,0c0.1,0,0.3,0,0.4-0.1c0.1-0.1,0.2-0.1,0.2-0.2
	c0.1-0.1,0.1-0.1,0.1-0.2c0-0.1,0.1-0.2,0.1-0.2s0,0.1-0.1,0.2c0,0.1-0.1,0.1-0.1,0.2c-0.1,0.1-0.1,0.1-0.2,0.2
	c-0.1,0.1-0.2,0.1-0.4,0.1c-0.1,0-0.1,0-0.2,0c-0.1,0-0.1-0.1-0.2-0.1c-0.1-0.1-0.2-0.3-0.2-0.4c0-0.2,0-0.4,0-0.5
	c0.1-0.4,0.3-0.8,0.7-1c0.2-0.1,0.4-0.2,0.6-0.3c0.2-0.1,0.5-0.1,0.7-0.2c0.1,0,0.2,0,0.4,0c0.1,0,0.2,0,0.4,0
	c0.2,0.1,0.5,0.2,0.6,0.3c0.1,0.1,0.2,0.2,0.2,0.3c0,0,0,0.1,0,0.1l0,0.1c0,0,0,0,0,0l0,0c0,0,0,0.1,0,0.1c0.1,0.2,0,0.5,0,0.7
	c-0.1,0.5-0.3,1-0.6,1.4c-0.2,0.5-0.5,0.9-0.8,1.3c-0.3,0.4-0.6,0.7-1,1c-0.2,0.1-0.4,0.3-0.5,0.3c-0.1,0-0.2,0.1-0.3,0.1
	c0,0-0.1,0-0.1,0l0,0l0,0l-0.1,0c0,0,0,0,0,0l0,0l-0.1,0c0,0-0.1-0.1-0.1-0.1c0,0-0.1-0.1-0.1-0.1c0,0,0-0.1-0.1-0.1
	c-0.1-0.2-0.1-0.3,0-0.5c0-0.2,0.1-0.3,0.2-0.4c0-0.1,0.1-0.1,0.1-0.1c0,0,0.1,0,0.1,0c0,0,0.1,0,0.1,0c0.1,0,0.2,0,0.3,0
	c0.1,0,0.1,0.1,0.2,0.1c0.1,0.1,0.1,0.1,0.1,0.1s0-0.1-0.1-0.2c0,0-0.1-0.1-0.2-0.1c-0.1,0-0.2-0.1-0.3-0.1c0,0-0.1,0-0.1,0
	c0,0-0.1,0-0.1,0c-0.1,0-0.1,0.1-0.2,0.1c-0.1,0.1-0.2,0.3-0.2,0.4c0,0.2,0,0.3,0,0.5C46.2,46.8,46.2,46.8,46.3,46.9z M33.8,51.5
	c3,2.9,11.5-0.4,11.5-3.3c0.3-2.1,0.2-6.2,1.3-7.7c-6.6,5-14.7,5.7-17.8,5.3C32.4,48,31.9,49.3,33.8,51.5z M36.5,9
	c0.7,1,2.6,4,3.9,6l-0.7,0.5l7.6,11.7c-0.5,0.5-0.7,1.2-0.3,1.8l5.4,8.4c0.4,0.7,1.3,0.8,2,0.4l6.5-4.2c0.7-0.4,0.8-1.3,0.4-2
	l-5.4-8.4c-0.4-0.6-1.2-0.8-1.8-0.5L46.5,11l-0.9,0.6l-3.9-6c0,0-2-2.8-3.6-3c-0.3,0-0.6,0-0.8,0.2C35.4,3.8,35.5,7.4,36.5,9
	C36.5,8.9,36.5,9,36.5,9z M194,11.9L194,11.9L194,11.9C194.1,11.9,194.1,11.9,194,11.9L194,11.9l0,0.2c0,0.1,0.1,0.1,0.1,0.2
	c0.1,0.1,0.2,0.2,0.3,0.3c0.2,0.2,0.4,0.3,0.7,0.4c0.2,0.1,0.5,0.1,0.7,0.2c1,0.2,2,0.2,3.1,0.1c0.5,0,1.1-0.1,1.6-0.2
	c0.5-0.1,1.1-0.2,1.6-0.3c1.1-0.2,2.2-0.5,3.2-0.8c1.1-0.3,2.1-0.7,3.2-1.1c0.5-0.2,1-0.4,1.5-0.7c0.5-0.2,1-0.5,1.4-0.7
	c0.5-0.3,0.9-0.5,1.3-0.8c0.4-0.3,0.8-0.6,1.2-1c0.2-0.2,0.3-0.4,0.5-0.6c0.1-0.1,0.1-0.2,0.2-0.4c0-0.1,0.1-0.3,0.1-0.4
	c0,0,0,0,0-0.1l0-0.1c0,0,0-0.1,0-0.1l0,0c0,0,0,0,0,0l0,0l0-0.1c0,0,0-0.1,0-0.1c-0.1-0.1-0.2-0.2-0.3-0.3
	c-0.2-0.2-0.4-0.3-0.6-0.3c-0.4-0.1-0.8-0.2-1.2-0.2c-0.4,0-0.8,0-1.1,0c-0.7,0-1.3,0.1-1.8,0.2c-0.5,0.1-0.9,0.1-1.1,0.2
	c-0.1,0-0.2,0-0.3,0.1c-0.1,0-0.1,0-0.1,0s0.1,0,0.4,0c0.3,0,0.6-0.1,1.1-0.1c0.5,0,1.1,0,1.7,0c0.3,0,0.7,0,1.1,0.1
	c0.4,0.1,0.7,0.1,1.1,0.3c0.2,0.1,0.3,0.2,0.5,0.3C214,5.9,214,6,214.1,6c0,0,0,0,0,0.1l0,0l0,0l0,0c0,0,0,0.1,0,0.1c0,0,0,0,0,0v0
	c0,0.1-0.1,0.3-0.2,0.5c-0.1,0.2-0.2,0.3-0.4,0.5c-0.3,0.3-0.7,0.6-1.1,0.9c-0.4,0.3-0.8,0.5-1.3,0.8c-0.9,0.5-1.9,0.9-2.9,1.3
	c-1,0.4-2,0.7-3.1,1.1c-1.1,0.3-2.1,0.6-3.2,0.8c-0.5,0.1-1.1,0.2-1.6,0.3c-0.5,0.1-1,0.2-1.5,0.2c-0.5,0.1-1,0.1-1.5,0.1
	c-0.5,0-1,0-1.4-0.1c-0.2,0-0.4-0.1-0.6-0.1c-0.2-0.1-0.4-0.1-0.5-0.2c-0.1-0.1-0.1-0.1-0.2-0.2c0,0,0-0.1-0.1-0.1l0,0l0,0v0l0,0
	l0,0c0,0,0,0,0,0c0,0,0,0,0,0l0-0.1c0,0,0,0,0-0.1c0,0,0,0,0-0.1c0-0.1,0-0.2,0.1-0.2c0.1-0.2,0.2-0.3,0.3-0.5
	c0.1-0.1,0.2-0.3,0.4-0.4c0.3-0.3,0.5-0.5,0.8-0.7c0.5-0.4,1-0.7,1.5-1c0.4-0.2,0.8-0.4,1-0.6c0.2-0.1,0.4-0.2,0.4-0.2s0,0-0.1,0
	c-0.1,0-0.2,0.1-0.3,0.1c-0.2,0.1-0.6,0.2-1,0.5c-0.4,0.2-1,0.5-1.6,0.8c-0.3,0.2-0.6,0.4-0.9,0.6c-0.2,0.1-0.3,0.3-0.4,0.4
	c-0.1,0.2-0.3,0.3-0.4,0.5c-0.1,0.1-0.1,0.2-0.1,0.3c0,0,0,0.1,0,0.1c0,0,0,0.1,0,0.1c0,0,0,0.1,0,0.1C194,11.7,194,11.8,194,11.9
	C194,11.8,194,11.9,194,11.9z M214.2,7.8c-0.1,0.2-0.3,0.4-0.4,0.7c-0.1,0.3-0.3,0.6-0.4,1c-0.1,0.4-0.2,0.8-0.3,1.2
	c-0.1,0.4-0.1,0.9-0.1,1.4c0,0.5,0,1,0,1.5c0,0.5,0,1,0,1.5c0,0.3,0,0.5-0.1,0.7c0,0.2-0.1,0.5-0.2,0.7c0,0.1,0,0.1-0.1,0.2
	c0,0.1-0.1,0.1-0.1,0.2c-0.1,0.1-0.1,0.2-0.2,0.3c-0.1,0.2-0.3,0.4-0.5,0.5c-0.3,0.3-0.6,0.6-1,0.9c-2.2,1.7-6.2,2-6.6,1.9
	c-0.4,0-0.9-0.1-1.3-0.2c-0.2,0-0.5-0.1-0.7-0.2c-0.1,0-0.2-0.1-0.3-0.1c-0.1,0-0.1,0-0.2-0.1c0,0-0.1-0.1-0.1-0.1
	c-0.2-0.1-0.4-0.3-0.5-0.5c-0.2-0.2-0.3-0.4-0.5-0.6c-0.3-0.4-0.6-0.8-0.9-1.3c-0.3-0.4-0.6-0.8-0.8-1.2c-0.3-0.4-0.6-0.8-0.9-1.1
	c-0.3-0.3-0.6-0.6-0.9-0.9c-0.3-0.3-0.6-0.5-0.9-0.6c-0.3-0.2-0.5-0.3-0.7-0.3c-0.2-0.1-0.4-0.1-0.5-0.2c-0.1,0-0.2,0-0.2,0
	s0.1,0,0.2,0.1c0.1,0,0.3,0.1,0.5,0.2c0.2,0.1,0.5,0.2,0.7,0.4c0.3,0.2,0.5,0.4,0.8,0.6c0.3,0.3,0.6,0.6,0.8,0.9
	c0.3,0.3,0.5,0.7,0.8,1.1c0.3,0.4,0.5,0.8,0.8,1.3c0.3,0.4,0.5,0.9,0.8,1.3c0.1,0.2,0.3,0.4,0.5,0.6c0.2,0.2,0.4,0.4,0.6,0.6
	c0.1,0,0.1,0.1,0.2,0.1c0,0,0.1,0.1,0.2,0.1c0.1,0.1,0.2,0.1,0.4,0.2c0.2,0.1,0.5,0.2,0.7,0.2c0.5,0.1,1,0.2,1.4,0.2c0.5,0,4,0,7-2
	c0.4-0.3,0.7-0.6,1.1-1c0.2-0.2,0.3-0.4,0.5-0.6c0.1-0.1,0.1-0.2,0.2-0.3c0-0.1,0.1-0.1,0.1-0.2c0-0.1,0.1-0.1,0.1-0.2
	c0.1-0.3,0.1-0.5,0.2-0.8c0-0.3,0-0.5,0.1-0.8c0-0.5,0-1,0-1.5c0-0.5,0-1,0-1.5c0-0.5,0-0.9,0.1-1.4c0-0.4,0.1-0.8,0.2-1.2
	c0.1-0.4,0.2-0.7,0.4-1C213.9,8.3,214.1,8,214.2,7.8c0.2-0.2,0.3-0.3,0.3-0.4c0.1-0.1,0.1-0.1,0.1-0.1s0,0-0.1,0.1
	C214.4,7.5,214.3,7.6,214.2,7.8z M46.2,41.9c0.1-0.4,0.2-0.7,0.4-1c0.1-0.3,0.3-0.5,0.4-0.7c0.1-0.2,0.2-0.3,0.3-0.4
	c0.1-0.1,0.1-0.1,0.1-0.1s0,0-0.1,0.1c-0.1,0.1-0.2,0.2-0.3,0.4c-0.1,0.2-0.3,0.4-0.4,0.7c-0.1,0.3-0.3,0.6-0.4,1
	c-0.1,0.4-0.2,0.8-0.3,1.2c-0.1,0.4-0.1,0.9-0.1,1.4c0,0.5,0,1,0,1.5c0,0.5,0,1,0,1.5c0,0.3,0,0.5-0.1,0.7c0,0.2-0.1,0.5-0.2,0.7
	c0,0.1,0,0.1-0.1,0.2c0,0.1-0.1,0.1-0.1,0.2c-0.1,0.1-0.1,0.2-0.2,0.3c-0.1,0.2-0.3,0.4-0.5,0.5c-0.3,0.3-0.6,0.6-1,0.9
	c-2.2,1.7-6.2,2-6.6,1.9c-0.4,0-0.9-0.1-1.3-0.2c-0.2,0-0.5-0.1-0.7-0.2c-0.1,0-0.2-0.1-0.3-0.1c0,0-0.1,0-0.2-0.1
	c0,0-0.1-0.1-0.1-0.1c-0.2-0.1-0.4-0.3-0.5-0.5c-0.2-0.2-0.3-0.4-0.5-0.6c-0.3-0.4-0.6-0.8-0.9-1.3c-0.3-0.4-0.6-0.8-0.8-1.2
	c-0.3-0.4-0.6-0.8-0.9-1.1c-0.3-0.3-0.6-0.6-0.9-0.9c-0.3-0.3-0.6-0.5-0.9-0.6c-0.3-0.2-0.5-0.3-0.7-0.3c-0.2-0.1-0.4-0.1-0.5-0.2
	c-0.1,0-0.2,0-0.2,0s0.1,0,0.2,0.1c0.1,0,0.3,0.1,0.5,0.2c0.2,0.1,0.5,0.2,0.7,0.4c0.3,0.2,0.5,0.4,0.8,0.6c0.3,0.3,0.6,0.6,0.8,0.9
	c0.3,0.3,0.5,0.7,0.8,1.1c0.3,0.4,0.5,0.8,0.8,1.3c0.3,0.4,0.5,0.9,0.8,1.3c0.1,0.2,0.3,0.4,0.5,0.6c0.2,0.2,0.4,0.4,0.6,0.6
	c0.1,0,0.1,0.1,0.2,0.1c0,0,0.1,0.1,0.2,0.1c0.1,0.1,0.2,0.1,0.4,0.2c0.2,0.1,0.5,0.2,0.7,0.2c0.5,0.1,1,0.2,1.4,0.2c0.5,0,4,0,7-2
	c0.4-0.3,0.7-0.6,1.1-1c0.2-0.2,0.3-0.4,0.5-0.6c0.1-0.1,0.1-0.2,0.2-0.3c0-0.1,0.1-0.1,0.1-0.2c0-0.1,0.1-0.1,0.1-0.2
	c0.1-0.3,0.1-0.5,0.2-0.8c0-0.3,0-0.5,0.1-0.8c0-0.5,0-1,0-1.5c0-0.5,0-1,0-1.5c0-0.5,0-0.9,0.1-1.4C46.1,42.7,46.1,42.2,46.2,41.9z
	 M196.9,10c-0.2,0.2-0.5,0.3-0.7,0.5c-0.2,0.2-0.4,0.4-0.6,0.7c-0.1,0.1-0.1,0.3-0.1,0.4c0,0,0,0.1,0,0.1c0,0,0,0.1,0,0.1
	c0,0.1,0,0.2,0.1,0.2c0.1,0.1,0.2,0.2,0.4,0.3c0.1,0.1,0.3,0.1,0.4,0.1c0.3,0,0.6,0,0.9,0c0.3,0,0.6,0,0.9,0
	c0.6-0.1,1.2-0.1,1.7-0.2c0.6-0.1,1.1-0.2,1.7-0.3c0.5-0.1,1-0.2,1.5-0.3c0.1,0,0.2-0.1,0.2-0.1l2.7-0.8c0,0,0.1,0,0.2-0.1
	c0.6-0.2,1.2-0.4,1.8-0.7c0.7-0.3,1.3-0.5,2-0.8c0.3-0.1,0.6-0.3,1-0.5c0.3-0.2,0.6-0.3,0.9-0.5c0.3-0.2,0.6-0.4,0.9-0.6
	c0.1-0.1,0.3-0.2,0.4-0.4c0.1-0.1,0.1-0.1,0.2-0.2c0-0.1,0.1-0.2,0.1-0.3l0,0l0,0c0-0.2-0.1-0.3-0.3-0.4c-0.1-0.1-0.3-0.2-0.4-0.2
	c-0.3-0.1-0.6-0.1-0.9-0.2c-0.6,0-1.2,0-1.7,0c-0.6,0-1.2,0.1-1.7,0.2c-0.6,0.1-1.1,0.2-1.7,0.3c-1.1,0.2-2.3,0.5-3.4,0.9
	c-1.1,0.3-2.2,0.7-3.3,1.1c-0.5,0.2-1.1,0.4-1.6,0.7C197.9,9.4,197.4,9.7,196.9,10z M24.7,84.4c0,0,0.6,0.4,1,0.7
	c4.7,2.8,11.8,1.8,11.8,1.8s3.4-6.3,2.4-11.7c0,0-0.1-0.7-0.3-1.1c-0.3-0.8-0.6-1.5-1.1-2.2c-1.8-2.6-5.3-3.3-7.8-1.6
	c-1.3,0.9-2.1,2.3-2.3,3.8c-1.5-0.4-3-0.1-4.4,0.8c-2.5,1.7-3,5.2-1.2,7.8C23.5,83.3,24.1,83.9,24.7,84.4z M187.8,30.8
	c2.4,1.4,2.4,2.8,4,3.7c1.6,0.9,2.8,0.2,5.3,1.6c2.4,1.4,2.7,6.5,4.6,9c0.1,0.1-0.2,0.2-0.7,0.3c-2.9,0.8-8.1,6.3-16.3,1.5
	c-8.1-4.6-6-11.1-6.9-14.5c-0.2-0.7-0.3-1.1-0.1-1.1C180.4,31.9,185.3,29.4,187.8,30.8z M183.9,36.9c0.7,0.9,1.1,3.3,3.8,4.9
	c2.5,1.4,5.1,0.6,6.1,0.8c0.1,0,0.1,0,0.1,0c-0.4-0.5-1-1.8-2.1-2.4c-1.1-0.6-1.9-0.7-2.6-1.1c-0.7-0.4-1-0.9-2-1.5
	C186,36.8,184.6,36.9,183.9,36.9C183.9,36.8,183.9,36.9,183.9,36.9z M223.4,43.9c0.1,0.2,0.3,0.4,0.4,0.7c0.1,0.3,0.3,0.6,0.4,1
	c0.1,0.4,0.2,0.8,0.2,1.2c0,0.4,0.1,0.9,0.1,1.4c0,0.5,0,1,0,1.5c0,0.5,0,1,0,1.5c0,0.3,0,0.5,0.1,0.8c0,0.3,0.1,0.5,0.2,0.8
	c0,0.1,0.1,0.1,0.1,0.2c0,0.1,0.1,0.1,0.1,0.2c0.1,0.1,0.1,0.2,0.2,0.3c0.2,0.2,0.3,0.4,0.5,0.6c0.3,0.4,0.7,0.7,1.1,1
	c3,2,6.6,2.1,7,2c0.5,0,0.9-0.1,1.4-0.2c0.2-0.1,0.5-0.1,0.7-0.2c0.1-0.1,0.2-0.1,0.4-0.2c0.1,0,0.1-0.1,0.2-0.1
	c0.1,0,0.1-0.1,0.2-0.1c0.2-0.2,0.4-0.4,0.6-0.6c0.2-0.2,0.3-0.4,0.5-0.6c0.3-0.4,0.6-0.9,0.8-1.3c0.3-0.4,0.5-0.9,0.8-1.3
	c0.3-0.4,0.5-0.8,0.8-1.1c0.3-0.3,0.6-0.6,0.8-0.9c0.3-0.3,0.6-0.5,0.8-0.6c0.3-0.2,0.5-0.3,0.7-0.4s0.4-0.1,0.5-0.2
	c0.1,0,0.2-0.1,0.2-0.1s-0.1,0-0.2,0c-0.1,0-0.3,0.1-0.5,0.2c-0.2,0.1-0.5,0.2-0.7,0.3c-0.3,0.2-0.6,0.4-0.9,0.6
	c-0.3,0.3-0.6,0.5-0.9,0.9c-0.3,0.3-0.6,0.7-0.9,1.1c-0.3,0.4-0.6,0.8-0.8,1.2c-0.3,0.4-0.6,0.9-0.9,1.3c-0.2,0.2-0.3,0.4-0.5,0.6
	c-0.2,0.2-0.3,0.4-0.5,0.5c0,0-0.1,0.1-0.1,0.1c-0.1,0-0.1,0.1-0.2,0.1c-0.1,0.1-0.2,0.1-0.3,0.1c-0.2,0.1-0.4,0.1-0.7,0.2
	c-0.5,0.1-0.9,0.1-1.3,0.2c-0.4,0-4.5-0.2-6.6-1.9c-0.4-0.3-0.7-0.5-1-0.9c-0.2-0.2-0.3-0.3-0.5-0.5c-0.1-0.1-0.1-0.2-0.2-0.3
	c0,0-0.1-0.1-0.1-0.2c0,0-0.1-0.1-0.1-0.2c-0.1-0.2-0.1-0.4-0.2-0.7c0-0.2-0.1-0.5-0.1-0.7c0-0.5,0-1,0-1.5c0-0.5,0-1,0-1.5
	c0-0.5-0.1-1-0.1-1.4c-0.1-0.4-0.2-0.9-0.3-1.2c-0.1-0.4-0.3-0.7-0.4-1C223.7,44.3,223.6,44.1,223.4,43.9c-0.1-0.2-0.2-0.3-0.3-0.4
	c-0.1-0.1-0.1-0.1-0.1-0.1s0,0,0.1,0.1C223.2,43.6,223.3,43.8,223.4,43.9z M220.7,48.3c0.3,0.5,0.6,0.9,0.9,1.3c0.3,0.4,0.7,0.7,1,1
	c0.2,0.1,0.4,0.3,0.6,0.3c0.1,0,0.2,0.1,0.3,0.1c0.1,0,0.1,0,0.2,0l0,0l0,0l0,0l0,0l0,0l0.1,0c0,0,0,0,0.1,0l0.1,0
	c0,0,0.1-0.1,0.1-0.1c0,0,0.1-0.1,0.1-0.1c0,0,0-0.1,0.1-0.1c0.1-0.2,0-0.4,0-0.5c0-0.2-0.1-0.3-0.2-0.4c0-0.1-0.1-0.1-0.2-0.1
	c0,0-0.1,0-0.1,0c0,0-0.1,0-0.1,0c-0.1,0-0.2,0-0.3,0.1c-0.1,0-0.1,0.1-0.2,0.1c-0.1,0.1-0.1,0.2-0.1,0.2s0-0.1,0.1-0.1
	c0,0,0.1-0.1,0.2-0.1c0.1,0,0.2-0.1,0.3,0c0,0,0.1,0,0.1,0c0,0,0.1,0,0.1,0c0,0,0.1,0.1,0.1,0.1c0.1,0.1,0.1,0.3,0.2,0.4
	c0,0.2,0,0.3,0,0.5c0,0,0,0.1-0.1,0.1c0,0,0,0.1-0.1,0.1c0,0-0.1,0.1-0.1,0.1l-0.1,0l0,0c0,0,0,0,0,0l-0.1,0l0,0l0,0
	c0,0-0.1,0-0.1,0c-0.1,0-0.2,0-0.3-0.1c-0.2-0.1-0.4-0.2-0.5-0.3c-0.3-0.3-0.7-0.6-1-1c-0.3-0.4-0.6-0.8-0.8-1.3
	c-0.2-0.5-0.5-0.9-0.6-1.4c0-0.2-0.1-0.5,0-0.7c0,0,0-0.1,0-0.1l0,0c0,0,0,0,0,0l0-0.1c0,0,0-0.1,0-0.1c0.1-0.1,0.1-0.2,0.2-0.3
	c0.2-0.2,0.4-0.3,0.6-0.3c0.1,0,0.2,0,0.4,0c0.1,0,0.2,0,0.4,0c0.2,0,0.5,0.1,0.7,0.2c0.2,0.1,0.4,0.2,0.6,0.3
	c0.4,0.2,0.6,0.6,0.7,1c0,0.2,0,0.4,0,0.5c0,0.2-0.1,0.3-0.2,0.4c-0.1,0.1-0.1,0.1-0.2,0.1c-0.1,0-0.1,0-0.2,0c-0.1,0-0.3,0-0.4-0.1
	c-0.1-0.1-0.2-0.1-0.2-0.2c-0.1-0.1-0.1-0.1-0.1-0.2c-0.1-0.1-0.1-0.2-0.1-0.2s0,0.1,0.1,0.2c0,0.1,0.1,0.1,0.1,0.2
	c0.1,0.1,0.1,0.2,0.2,0.2c0.1,0.1,0.2,0.1,0.4,0.1c0.1,0,0.1,0,0.2,0c0.1,0,0.2-0.1,0.2-0.1c0.1-0.1,0.2-0.3,0.2-0.5
	c0-0.2,0-0.4,0-0.6c0-0.2-0.1-0.4-0.2-0.6c-0.1-0.1-0.1-0.2-0.2-0.3c0,0-0.1-0.1-0.1-0.1c0,0-0.1-0.1-0.1-0.1
	c-0.2-0.1-0.4-0.2-0.7-0.3c-0.2-0.1-0.5-0.1-0.7-0.2c-0.1,0-0.3,0-0.4,0c-0.1,0-0.3,0-0.4,0c-0.1,0-0.3,0.1-0.4,0.1
	c-0.1,0.1-0.2,0.1-0.3,0.2c-0.1,0.1-0.2,0.2-0.3,0.3c0,0,0,0.1-0.1,0.1l0,0.1c0,0,0,0,0,0.1l0,0c0,0,0,0.1,0,0.1
	c-0.1,0.3,0,0.6,0,0.8C220.2,47.4,220.4,47.9,220.7,48.3z M223.2,46.9c-0.1-0.1-0.2-0.1-0.3,0c-0.1,0-0.1,0.1-0.1,0.2l0,0
	c0,0,0,0,0,0c0,0,0,0.1,0,0.1c0,0,0,0,0,0c0,0,0,0.1,0,0.1c0,0,0,0,0,0.1c0,0,0,0,0,0.1c0,0,0.1,0.1,0.1,0.1c0,0,0.1,0.1,0.1,0.1
	c0.1,0,0.1,0.1,0.1,0.1l0,0c0,0-0.3-0.2,0-0.4C223.2,47.1,223.3,47,223.2,46.9z M220.9,45.5c0.1-0.1,0.3-0.2,0.4-0.2
	c0.1,0,0.2-0.1,0.3-0.1c0,0,0.1,0,0.1,0c0,0,0.1,0,0.1,0c0,0,0.1,0,0.1,0s0,0-0.1,0c0,0-0.1,0-0.2,0c-0.1,0-0.2,0-0.3,0.1
	C221.1,45.3,221,45.3,220.9,45.5c-0.2,0-0.3,0.1-0.4,0.3c-0.1,0.2-0.1,0.4-0.1,0.6c0,0.2,0,0.4,0.1,0.6c0.1,0.2,0.1,0.4,0.2,0.6
	c0.1,0.2,0.2,0.4,0.3,0.6c0.1,0.2,0.2,0.4,0.3,0.5c0.2,0.3,0.4,0.6,0.6,0.9c0.2,0.2,0.4,0.4,0.5,0.6c0.1,0.1,0.2,0.2,0.2,0.2
	s-0.1-0.1-0.2-0.2c-0.1-0.1-0.3-0.4-0.5-0.6c-0.2-0.3-0.4-0.6-0.6-0.9c-0.1-0.2-0.2-0.3-0.3-0.5c-0.1-0.2-0.2-0.4-0.3-0.6
	c-0.1-0.2-0.2-0.4-0.2-0.6c-0.1-0.2-0.1-0.4-0.1-0.6c0-0.2,0-0.4,0.1-0.5C220.7,45.7,220.8,45.6,220.9,45.5z M223.2,43.1
	c0.1,0.2,0.3,0.4,0.5,0.6c0.3,0.4,0.7,0.7,1.2,1c0.4,0.3,0.9,0.6,1.3,0.8c0.5,0.3,0.9,0.5,1.4,0.7c0.5,0.2,1,0.5,1.5,0.7
	c1,0.4,2.1,0.8,3.2,1.1c1.1,0.3,2.2,0.6,3.2,0.8c0.5,0.1,1.1,0.2,1.6,0.3c0.5,0.1,1.1,0.1,1.6,0.2c1.1,0.1,2.1,0.1,3.1-0.1
	c0.2,0,0.5-0.1,0.7-0.2c0.2-0.1,0.5-0.2,0.7-0.4c0.1-0.1,0.2-0.2,0.3-0.3c0-0.1,0.1-0.1,0.1-0.2l0-0.1l0,0c0,0,0,0,0,0l0,0l0,0
	c0,0,0,0,0,0c0,0,0-0.1,0-0.1c0,0,0-0.1,0-0.1c0,0,0-0.1,0-0.1c0,0,0-0.1,0-0.1c0-0.1-0.1-0.2-0.1-0.3c-0.1-0.2-0.3-0.4-0.4-0.5
	c-0.1-0.2-0.3-0.3-0.4-0.4c-0.3-0.2-0.6-0.5-0.9-0.6c-0.6-0.4-1.1-0.6-1.6-0.8c-0.4-0.2-0.8-0.4-1-0.5c-0.1-0.1-0.2-0.1-0.3-0.1
	c-0.1,0-0.1,0-0.1,0s0.1,0.1,0.4,0.2c0.2,0.1,0.6,0.3,1,0.6c0.4,0.2,0.9,0.6,1.5,1c0.3,0.2,0.5,0.4,0.8,0.7c0.1,0.1,0.3,0.3,0.4,0.4
	c0.1,0.1,0.2,0.3,0.3,0.5c0,0.1,0.1,0.2,0.1,0.2c0,0,0,0,0,0.1c0,0,0,0,0,0.1l0,0.1c0,0,0,0,0,0c0,0,0,0,0,0l0,0l0,0l0,0l0,0l0,0
	c0,0,0,0.1-0.1,0.1c0,0.1-0.1,0.1-0.2,0.2c-0.1,0.1-0.3,0.2-0.5,0.2c-0.2,0.1-0.4,0.1-0.6,0.1c-0.4,0.1-0.9,0.1-1.4,0.1
	c-0.5,0-1,0-1.5-0.1c-0.5-0.1-1-0.1-1.5-0.2c-0.5-0.1-1-0.2-1.6-0.3c-1.1-0.2-2.1-0.5-3.2-0.8c-1.1-0.3-2.1-0.7-3.1-1.1
	c-1-0.4-2-0.8-2.9-1.3c-0.5-0.2-0.9-0.5-1.3-0.8c-0.4-0.3-0.8-0.5-1.1-0.9c-0.2-0.2-0.3-0.3-0.4-0.5c-0.1-0.2-0.2-0.3-0.2-0.5v0
	c0,0,0,0,0,0c0,0,0,0,0-0.1l0,0l0,0l0,0c0,0,0,0,0-0.1c0-0.1,0.1-0.1,0.1-0.2c0.1-0.1,0.3-0.2,0.5-0.3c0.4-0.1,0.7-0.2,1.1-0.3
	c0.4-0.1,0.7-0.1,1.1-0.1c0.7,0,1.3,0,1.7,0c0.5,0,0.9,0.1,1.1,0.1c0.3,0,0.4,0,0.4,0s0,0-0.1,0c-0.1,0-0.2,0-0.3-0.1
	c-0.3,0-0.6-0.1-1.1-0.2c-0.5-0.1-1.1-0.1-1.8-0.2c-0.3,0-0.7,0-1.1,0c-0.4,0-0.8,0.1-1.2,0.2c-0.2,0.1-0.4,0.2-0.6,0.3
	c-0.1,0.1-0.2,0.2-0.3,0.3c0,0,0,0.1,0,0.1l0,0.1l0,0c0,0,0,0,0,0l0,0c0,0,0,0,0,0.1l0,0.1c0,0,0,0,0,0.1c0,0.1,0,0.3,0.1,0.4
	C223.1,42.9,223.1,43,223.2,43.1z M230.9,42.6c-0.6-0.1-1.1-0.2-1.7-0.3c-0.6-0.1-1.1-0.2-1.7-0.2c-0.6,0-1.2-0.1-1.7,0
	c-0.3,0-0.6,0.1-0.9,0.2c-0.1,0-0.3,0.1-0.4,0.2c-0.1,0.1-0.2,0.2-0.3,0.4l0,0l0,0c0,0.1,0,0.2,0.1,0.3c0,0.1,0.1,0.2,0.2,0.2
	c0.1,0.1,0.3,0.3,0.4,0.4c0.3,0.2,0.6,0.4,0.9,0.6c0.3,0.2,0.6,0.3,0.9,0.5c0.3,0.2,0.6,0.3,1,0.5c0.7,0.3,1.3,0.6,2,0.8
	c0.6,0.2,1.2,0.5,1.8,0.7c0.1,0.1,0.2,0.1,0.2,0.1l2.7,0.8c0,0,0.1,0,0.2,0.1c0.5,0.1,1,0.2,1.5,0.3c0.6,0.1,1.1,0.2,1.7,0.3
	c0.6,0.1,1.1,0.2,1.7,0.2c0.3,0,0.6,0,0.9,0c0.3,0,0.6,0,0.9,0c0.1,0,0.3-0.1,0.4-0.1c0.1-0.1,0.3-0.1,0.4-0.3
	c0.1-0.1,0.1-0.1,0.1-0.2c0,0,0-0.1,0-0.1c0,0,0-0.1,0-0.1c0-0.2-0.1-0.3-0.1-0.4c-0.1-0.3-0.4-0.5-0.6-0.7
	c-0.2-0.2-0.5-0.4-0.7-0.5c-0.5-0.3-1-0.6-1.5-0.8c-0.5-0.3-1.1-0.5-1.6-0.7c-1.1-0.4-2.2-0.8-3.3-1.1
	C233.2,43.1,232,42.8,230.9,42.6z M224.8,17.2c0,0,0.4,0.6,0.6,1c3.2,4.4,10.1,6.3,10.1,6.3s5.6-4.4,6.9-9.7c0,0,0.2-0.7,0.2-1.2
	c0.1-0.8,0.1-1.6-0.1-2.5c-0.6-3.1-3.5-5.2-6.5-4.6c-1.6,0.3-2.8,1.3-3.6,2.6c-1.2-0.9-2.7-1.3-4.3-1c-3,0.6-4.9,3.6-4.3,6.7
	C224.1,15.7,224.4,16.5,224.8,17.2z M214.5,11.5L214.5,11.5c0,0,0.1,0,0.1,0c0,0,0.1,0,0.1-0.1c0,0,0.1-0.1,0.1-0.1c0,0,0,0,0-0.1
	c0,0,0,0,0-0.1c0,0,0-0.1,0-0.1c0,0,0,0,0,0c0,0,0-0.1,0-0.1c0,0,0,0,0,0l0,0c0-0.1,0-0.1-0.1-0.2c-0.1-0.1-0.3-0.1-0.3,0
	c-0.1,0.1-0.1,0.3,0,0.3C214.7,11.3,214.5,11.5,214.5,11.5z M223.5,49.4L223.5,49.4C223.5,49.4,223.5,49.4,223.5,49.4
	c-0.1,0-0.1,0-0.2,0c0,0-0.1,0-0.1,0.1c0,0,0,0,0,0c0,0,0,0,0,0c0,0,0,0-0.1,0.1c0,0,0,0,0,0c0,0,0,0,0,0.1c0,0,0,0,0,0l0,0
	c0,0.1,0,0.1,0,0.2c0.1,0.1,0.2,0.1,0.3,0c0.1-0.1,0.1-0.2,0-0.3C223.3,49.5,223.5,49.4,223.5,49.4z M223.9,44.2
	c1.1,1.6,1,5.6,1.3,7.7c0,3,8.4,6.2,11.5,3.3c1.9-2.1,1.4-3.4,5-5.8C238.6,49.8,230.5,49.2,223.9,44.2z M214.2,13.8
	c0.1,0.1,0.2,0.1,0.3,0c0,0,0-0.1,0-0.2l0,0c0,0,0,0,0,0c0,0,0,0,0-0.1c0,0,0,0,0,0c0,0,0,0-0.1-0.1c0,0,0,0,0,0c0,0,0,0,0,0
	c0,0-0.1,0-0.1-0.1c0,0-0.1,0-0.1,0c0,0-0.1,0-0.1,0l0,0c0,0,0.2,0.1,0.1,0.2C214.2,13.6,214.2,13.7,214.2,13.8z M47,46.1
	c0.1,0.1,0.2,0.1,0.3,0c0,0,0-0.1,0-0.2l0,0c0,0,0,0,0,0c0,0,0,0,0-0.1c0,0,0,0,0,0c0,0,0,0-0.1-0.1c0,0,0,0,0,0c0,0,0,0,0,0
	c0,0-0.1,0-0.1-0.1c0,0-0.1,0-0.1,0c0,0-0.1,0-0.1,0l0,0c0,0,0.2,0.1,0.1,0.2C46.9,46,46.9,46.1,47,46.1z M214.1,9.3
	c0,0-0.1,0.1-0.1,0.1c-0.1,0.1-0.2,0.2-0.2,0.3c-0.1,0.2-0.2,0.4-0.2,0.6c0,0.2,0,0.4,0,0.6c0,0.2,0.1,0.4,0.2,0.5
	c0.1,0.1,0.1,0.1,0.2,0.1c0.1,0,0.1,0,0.2,0c0.1,0,0.3,0,0.4-0.1c0.1-0.1,0.2-0.1,0.2-0.2c0.1-0.1,0.1-0.1,0.1-0.2
	c0-0.1,0.1-0.2,0.1-0.2s0,0.1-0.1,0.2c0,0.1-0.1,0.1-0.1,0.2c-0.1,0.1-0.1,0.1-0.2,0.2c-0.1,0.1-0.2,0.1-0.4,0.1c-0.1,0-0.1,0-0.2,0
	c-0.1,0-0.1-0.1-0.2-0.1c-0.1-0.1-0.2-0.3-0.2-0.4c0-0.2,0-0.4,0-0.5c0.1-0.4,0.3-0.8,0.7-1c0.2-0.1,0.4-0.2,0.6-0.3
	c0.2-0.1,0.5-0.1,0.7-0.2c0.1,0,0.2,0,0.4,0c0.1,0,0.2,0,0.4,0c0.2,0.1,0.5,0.2,0.6,0.3c0.1,0.1,0.2,0.2,0.2,0.3c0,0,0,0.1,0,0.1
	l0,0.1c0,0,0,0,0,0l0,0c0,0,0,0.1,0,0.1c0.1,0.2,0,0.5,0,0.7c-0.1,0.5-0.3,1-0.6,1.4c-0.2,0.5-0.5,0.9-0.8,1.3c-0.3,0.4-0.6,0.7-1,1
	c-0.2,0.1-0.4,0.3-0.5,0.3c-0.1,0-0.2,0.1-0.3,0.1c0,0-0.1,0-0.1,0l0,0l0,0l-0.1,0c0,0,0,0,0,0l0,0l-0.1,0c0,0-0.1-0.1-0.1-0.1
	c0,0-0.1-0.1-0.1-0.1c0,0,0-0.1-0.1-0.1c-0.1-0.2-0.1-0.3,0-0.5c0-0.2,0.1-0.3,0.2-0.4c0-0.1,0.1-0.1,0.1-0.1c0,0,0.1,0,0.1,0
	c0,0,0.1,0,0.1,0c0.1,0,0.2,0,0.3,0c0.1,0,0.1,0.1,0.2,0.1c0.1,0.1,0.1,0.1,0.1,0.1s0-0.1-0.1-0.2c0,0-0.1-0.1-0.2-0.1
	c-0.1,0-0.2-0.1-0.3-0.1c0,0-0.1,0-0.1,0c0,0-0.1,0-0.1,0c-0.1,0-0.1,0.1-0.2,0.1c-0.1,0.1-0.2,0.3-0.2,0.4c0,0.2,0,0.3,0,0.5
	c0,0,0,0.1,0.1,0.1c0,0,0.1,0.1,0.1,0.1c0,0,0.1,0.1,0.1,0.1l0.1,0c0,0,0,0,0.1,0l0.1,0l0,0l0,0l0,0l0,0l0,0c0.1,0,0.1,0,0.2,0
	c0.1,0,0.2,0,0.3-0.1c0.2-0.1,0.4-0.2,0.6-0.3c0.4-0.3,0.7-0.6,1-1c0.3-0.4,0.6-0.8,0.9-1.3c0.3-0.5,0.5-1,0.6-1.5
	c0.1-0.3,0.1-0.6,0-0.8c0,0,0-0.1,0-0.1l0,0c0,0,0,0,0-0.1l0-0.1c0,0,0-0.1-0.1-0.1c-0.1-0.1-0.2-0.2-0.3-0.3
	c-0.1-0.1-0.2-0.2-0.3-0.2c-0.1-0.1-0.3-0.1-0.4-0.1c-0.1,0-0.3,0-0.4,0c-0.1,0-0.3,0-0.4,0c-0.3,0-0.5,0.1-0.7,0.2
	c-0.2,0.1-0.5,0.2-0.7,0.3C214.2,9.3,214.1,9.3,214.1,9.3z M216.8,11.4c-0.1,0.2-0.2,0.4-0.3,0.6c-0.1,0.2-0.2,0.4-0.3,0.5
	c-0.2,0.3-0.4,0.6-0.6,0.9c-0.2,0.3-0.3,0.5-0.5,0.6c-0.1,0.1-0.2,0.2-0.2,0.2s0.1-0.1,0.2-0.2c0.1-0.1,0.3-0.3,0.5-0.6
	c0.2-0.2,0.4-0.5,0.6-0.9c0.1-0.2,0.2-0.3,0.3-0.5c0.1-0.2,0.2-0.4,0.3-0.6c0.1-0.2,0.2-0.4,0.2-0.6c0.1-0.2,0.1-0.4,0.1-0.6
	c0-0.2,0-0.4-0.1-0.6c-0.1-0.2-0.2-0.3-0.4-0.4c-0.1-0.1-0.3-0.1-0.4-0.2c-0.1,0-0.2,0-0.3-0.1c-0.1,0-0.2,0-0.2,0c0,0-0.1,0-0.1,0
	s0,0,0.1,0c0,0,0.1,0,0.1,0c0,0,0.1,0,0.1,0c0.1,0,0.2,0,0.3,0.1c0.1,0,0.2,0.1,0.4,0.2c0.1,0.1,0.2,0.2,0.3,0.4
	c0.1,0.2,0.1,0.3,0.1,0.5c0,0.2-0.1,0.4-0.1,0.6C217,11.1,216.9,11.3,216.8,11.4z M217.4,64.9c0-0.1-0.1-0.2-0.3-0.2c0,0,0,0-0.1,0
	l-0.3-0.6c0.2-0.1,0.2-0.3,0.1-0.4c0-0.1-0.1-0.2-0.3-0.2c0,0-0.1,0-0.1,0l-0.3-0.6c0.2-0.1,0.2-0.3,0.1-0.4c0-0.1-0.1-0.2-0.3-0.2
	c0,0-0.1,0-0.1,0l-0.3-0.6c0.2-0.1,0.2-0.3,0.1-0.4c0-0.1-0.1-0.2-0.3-0.2c0,0-0.1,0-0.1,0l-0.6-1.2c0,0,0,0,0,0
	c-0.1-0.1-1.1,0.3-2.3,0.9c-1.2,0.6-2.1,1.2-2.1,1.3l0,0l0.1,0.1c-0.2,0.1-0.2,0.3-0.1,0.4c0,0.1,0.1,0.2,0.3,0.2c0,0,0,0,0.1,0
	l0.3,0.6c-0.1,0.1-0.1,0.3,0,0.4c0,0.1,0.1,0.2,0.3,0.2c0,0,0,0,0,0l0.3,0.6c-0.2,0.1-0.2,0.3-0.1,0.4c0,0.1,0.1,0.2,0.3,0.2
	c0,0,0,0,0.1,0l0.3,0.6c-0.2,0.1-0.2,0.3-0.1,0.4c0,0.1,0.1,0.2,0.3,0.2c0,0,0,0,0.1,0l0.5,1l0,1.8c0,0-2.2,1.5-3,1.9
	c-0.8,0.4-0.3,1.5-0.3,1.5s0.8,3.2,3.4,8.2s5.1,8.8,5.1,8.8s0.3,0.8,1,0.5c0.6-0.3,6.2-3.1,6.2-3.1s5.6-2.7,6.2-3.1
	c0.6-0.3,0.2-1.1,0.2-1.1s-1.5-4.3-3.9-9.4c-2.3-5.1-4.4-7.7-4.4-7.7s-0.5-1.1-1.3-0.7c-0.8,0.4-3.3,1.3-3.3,1.3l-1.4-1
	C217.5,65.2,217.5,65,217.4,64.9z M218.2,102.3c0,0.1,0,0.2,0.1,0.3C218.2,102.2,218.2,102.2,218.2,102.3z M202.8,100
	c-0.4-0.4-0.7-0.8-0.7-1.2c-0.2-1.3,1.6-3.2,4.3-4.1l0,0c0,0,0,0,0,0c0.2-0.1,0.4-0.1,0.6-0.2c1.1-0.3,3.2-1,3.7-1.8
	c-0.1,1.2,2.1,2.3,2.1,2.3h0c1.2,0.6,2,1.4,2.1,2.2c0.1,0.4-0.2,0.8-0.5,1.3c2,0.8,3.5,2.2,3.8,3.9c0,0.2,0,0.5,0.1,0.8l-1.5,9.1
	l-12.8,1.6l-3.7-8.4c0,0,0-0.2-0.1-0.5C200,103,201,101.3,202.8,100z M217.7,103.2c-0.1-0.8-0.8-1.3-1.6-1.2c-0.4,0.1-0.8,0.3-1,0.6
	l-0.7,8.9l-0.3-9c-0.2-0.1-0.5-0.2-0.8-0.1c-0.4,0-0.7,0.3-1,0.6l-0.2,8.9l-0.8-9c-0.3-0.1-0.5-0.2-0.8-0.2c-0.4,0-0.7,0.2-0.9,0.5
	l0.6,8.9l-1.6-8.8c-0.3-0.1-0.6-0.2-0.9-0.2c-0.4,0-0.7,0.2-0.9,0.5l1.4,8.9l-2.4-8.8c-0.3-0.2-0.6-0.2-0.9-0.2
	c-0.3,0-0.6,0.2-0.9,0.4l1.9,8.9l-2.9-8.7c-0.3-0.2-0.6-0.3-1-0.2c-0.8,0.1-1.3,0.8-1.2,1.6l3.4,7.9l12-1.5L217.7,103.2z
	 M208.5,97.8c3.3-0.4,6.2,1,5.7-0.4c-0.8-1.9-11.8,0.4-11.7,1.6C202.7,100.5,205.2,98.2,208.5,97.8z M200.8,104.8
	c-0.1-0.8,0.5-1.5,1.2-1.6c0.8-0.1,1.5,0.5,1.6,1.2c-0.1-0.8,0.5-1.5,1.2-1.6c0.8-0.1,1.5,0.5,1.6,1.2c-0.1-0.8,0.5-1.5,1.2-1.6
	c0.8-0.1,1.5,0.5,1.6,1.2c-0.1-0.8,0.5-1.5,1.2-1.6c0.8-0.1,1.5,0.5,1.6,1.2c-0.1-0.8,0.5-1.5,1.2-1.6c0.8-0.1,1.5,0.5,1.6,1.2
	c-0.1-0.8,0.5-1.5,1.2-1.6c0.8-0.1,1.4,0.5,1.6,1.2c-0.8-3.4-4.4-2-9-1.4C204,101.9,200.4,101.6,200.8,104.8z M211.2,32.8
	c0,0,0-0.3-0.3-0.3c-0.4,0-5.6,0.6-5.9,0.6c-0.3,0-0.3,0.3-0.3,0.3l1.4,13.2c0,0,1.4,0.1,2.8,0l1,9.3l0,0c0,0,0,1.5-0.1,2.7
	c0,0.1,0,0.3,0,0.4c0,0.1,0,0.1,0,0.2c0,0,0,0,0,0c0,0.3,0,0.5,0,0.6c1,0.3,1.8-0.2,1.8-0.2l-0.4-1.6l0,0l-0.4-1.6
	c0-0.2-0.1-0.4-0.1-0.6c-0.2-1.2-0.4-3.2-0.4-3.2l-0.7-6.1c1.5-0.2,2.8-0.6,2.8-0.6L211.2,32.8z M73.9,54.4
	c-0.4,0.8-1.4,1.1-2.1,0.7L70,54.2c-0.8-0.4-1.1-1.4-0.7-2.1l0.7-1.3l-11.9-6.1l-9.5,10.8l34.6,17.7l3.2-14l-11.9-6.1L73.9,54.4z
	 M49.6,43.8c-0.1,0.2-0.2,0.4-0.3,0.6c-0.1,0.2-0.2,0.4-0.3,0.5c-0.2,0.3-0.4,0.6-0.6,0.9c-0.2,0.3-0.3,0.5-0.5,0.6
	c-0.1,0.1-0.2,0.2-0.2,0.2s0.1-0.1,0.2-0.2c0.1-0.1,0.3-0.3,0.5-0.6c0.2-0.2,0.4-0.5,0.6-0.9c0.1-0.2,0.2-0.3,0.3-0.5
	c0.1-0.2,0.2-0.4,0.3-0.6c0.1-0.2,0.2-0.4,0.2-0.6C50,43,50,42.8,50,42.6c0-0.2,0-0.4-0.1-0.6c-0.1-0.2-0.2-0.3-0.4-0.4
	c-0.1-0.1-0.3-0.1-0.4-0.2c-0.1,0-0.2,0-0.3-0.1c-0.1,0-0.2,0-0.2,0c0,0-0.1,0-0.1,0s0,0,0.1,0c0,0,0.1,0,0.1,0c0,0,0.1,0,0.1,0
	c0.1,0,0.2,0,0.3,0.1c0.1,0,0.2,0.1,0.4,0.2c0.1,0.1,0.2,0.2,0.3,0.4c0.1,0.2,0.1,0.3,0.1,0.5c0,0.2-0.1,0.4-0.1,0.6
	C49.7,43.4,49.7,43.6,49.6,43.8z M202.1,128.4c0.6-0.6,1.1-1.2,1.5-2c1.5-2.8,0.5-6.2-2.2-7.6c-1.4-0.7-3-0.8-4.4-0.3
	c-0.4-1.5-1.3-2.8-2.7-3.5c-2.7-1.4-6.1-0.3-7.5,2.5c-0.4,0.8-0.7,1.5-0.8,2.4c0,0-0.1,0.7-0.1,1.2c-0.3,5.5,3.9,11.3,3.9,11.3
	s7.1,0.1,11.5-3.2C201.2,129.2,201.7,128.8,202.1,128.4z M218.5,145.2l-0.2-0.3c-0.4-0.5-1.1-0.6-1.6-0.2l-1.5,1.2
	c-0.5,0.4-0.6,1.1-0.2,1.6l0.2,0.3l0.2,0.2l0.5,0.6l0.6,0.7l0.3,0.4c0.4,0.5,1.1,0.6,1.6,0.2l1.5-1.2c0.5-0.4,0.6-1.1,0.2-1.6
	l-0.3-0.4l-0.6-0.7l-0.5-0.6L218.5,145.2z M219.5,145.8l0.9,1.2c0.5,0.7,0.4,1.7-0.3,2.2l-1.5,1.2c-0.7,0.5-1.7,0.4-2.2-0.3
	l-0.9-1.2l-10.5,8.3l5.9,13.1l30.5-24.2l-11.4-8.7L219.5,145.8z M190.2,95.4l7.3-3c0.7-0.3,1.1-1.1,0.8-1.9l-3.8-9.3
	c-0.3-0.7-1-1-1.7-0.8l-5.3-13l-1,0.4l-2.8-6.7c0,0-1.4-3.2-3.1-3.7c-0.3-0.1-0.6-0.1-0.9,0c-2,0.7-2.5,4.3-1.8,6c0,0,0,0,0,0.1
	c0.5,1.2,1.8,4.5,2.7,6.7l-0.8,0.3l5.3,13c-0.6,0.3-0.9,1.1-0.6,1.8l3.8,9.3C188.7,95.4,189.5,95.7,190.2,95.4z M117.8,6
	c-1.4-0.7-3-0.8-4.4-0.3c-0.4-1.5-1.3-2.8-2.7-3.5c-2.7-1.4-6.1-0.3-7.5,2.5c-0.4,0.8-0.7,1.5-0.8,2.4c0,0-0.1,0.7-0.1,1.2
	c-0.3,5.5,3.9,11.3,3.9,11.3s7.1,0.1,11.5-3.2c0,0,0.6-0.4,0.9-0.8c0.6-0.6,1.1-1.2,1.5-2C121.4,10.8,120.4,7.4,117.8,6z M95.5,12.1
	c0.1,0,0,0.2-0.3,0.7c-1.5,2.7-1.1,10.2-10.3,12.8c-8.9,2.6-12.1-3.4-15.1-5.2c-0.7-0.4-1-0.5-0.8-0.7c2.2-1.6,3.8-6.9,6.5-7.7
	c2.7-0.8,3.7,0.2,5.5-0.3c1.8-0.5,2.1-1.9,4.8-2.7C88.5,8.4,92.4,11.8,95.5,12.1z M88.1,15.9c-0.6-0.1-2-0.5-3.2-0.2
	c-1.2,0.3-1.8,0.8-2.6,1.1c-0.8,0.2-1.3,0.1-2.5,0.4c-1.2,0.3-2.1,1.5-2.6,1.8c0,0,0,0.1,0,0.1c1.1,0.1,3.2,1.5,6.1,0.7
	C86,19,87.3,16.6,88.1,15.9C88.1,16,88.1,15.9,88.1,15.9z M180.5,13.6c0,0.1,0,0.2,0.1,0.3C180.5,13.5,180.5,13.4,180.5,13.6z
	 M179,23.5l-12.8,1.6l-3.7-8.4c0,0,0-0.2-0.1-0.5c-0.2-1.8,0.8-3.6,2.5-4.9c-0.4-0.4-0.7-0.8-0.7-1.2c-0.2-1.3,1.6-3.2,4.3-4.1l0,0
	c0,0,0,0,0,0c0.2-0.1,0.4-0.1,0.6-0.2c1.1-0.3,3.2-1,3.7-1.8c-0.1,1.2,2.1,2.3,2.1,2.3h0c1.2,0.6,2,1.4,2.1,2.2
	c0.1,0.4-0.2,0.8-0.5,1.3c2,0.8,3.5,2.2,3.8,3.9c0,0.2,0,0.5,0.1,0.8L179,23.5z M170.8,9.1c3.3-0.4,6.2,1,5.7-0.4
	c-0.8-1.9-11.8,0.4-11.7,1.6C165,11.7,167.4,9.5,170.8,9.1z M163.1,16c-0.1-0.8,0.5-1.5,1.2-1.6c0.8-0.1,1.5,0.5,1.6,1.2
	c-0.1-0.8,0.5-1.5,1.2-1.6c0.8-0.1,1.5,0.5,1.6,1.2c-0.1-0.8,0.5-1.5,1.2-1.6c0.8-0.1,1.5,0.5,1.6,1.2c-0.1-0.8,0.5-1.5,1.2-1.6
	c0.8-0.1,1.5,0.5,1.6,1.2c-0.1-0.8,0.5-1.5,1.2-1.6c0.8-0.1,1.5,0.5,1.6,1.2c-0.1-0.8,0.5-1.5,1.2-1.6s1.4,0.5,1.6,1.2
	c-0.8-3.4-4.4-2-9-1.4C166.3,13.1,162.7,12.9,163.1,16z M178.6,23l1.4-8.5c-0.1-0.8-0.8-1.3-1.6-1.2c-0.4,0.1-0.8,0.3-1,0.6
	l-0.7,8.9l-0.3-9c-0.2-0.1-0.5-0.2-0.8-0.1c-0.4,0-0.7,0.3-1,0.6l-0.2,8.9l-0.8-9c-0.3-0.1-0.5-0.2-0.8-0.2c-0.4,0-0.7,0.2-0.9,0.5
	l0.6,8.9l-1.6-8.8c-0.3-0.1-0.6-0.2-0.9-0.2c-0.4,0-0.7,0.2-0.9,0.5l1.4,8.9l-2.4-8.8c-0.3-0.2-0.6-0.2-0.9-0.2
	c-0.3,0-0.6,0.2-0.9,0.4l1.9,8.9l-2.9-8.7c-0.3-0.2-0.6-0.3-1-0.2c-0.8,0.1-1.3,0.8-1.2,1.6l3.4,7.9L178.6,23z M258.2,74.7l1.4,1.4
	c0.4,0.4,1.1,0.4,1.6,0l0.4-0.4l0.7-0.7l0.6-0.6l0.2-0.2l0.3-0.3c0.4-0.4,0.4-1.1,0-1.6l-1.4-1.4c-0.4-0.4-1.1-0.4-1.6,0l-0.3,0.3
	l-0.2,0.2l-0.6,0.6l-0.7,0.7l-0.4,0.4C257.7,73.5,257.7,74.2,258.2,74.7z M263,57.8l-2.1,2.1l-2.7-2.8l-8,4.7l9.3,9.3l0.5-0.5
	c0.6-0.6,1.6-0.6,2.3,0l1.4,1.4c0.6,0.6,0.6,1.6,0,2.3l-0.5,0.5l9.1,9.1V71.1l-10.3-10.3l2.1-2.1c0.5-0.5,1.4-0.5,1.9,0l6.3,6.3
	v-1.9l-5.3-5.4C265.8,56.7,264,56.7,263,57.8z M238,116c-7,6.1-12.4,2.1-15.9,1.8c-0.8-0.1-1.1-0.1-1-0.2c1.3-2.4,0.5-7.9,2.6-9.7
	c2.1-1.9,3.4-1.4,4.8-2.6c1.4-1.2,1.1-2.6,3.2-4.5c2.1-1.9,7.1-0.5,10-1.5c0.1,0,0.1,0.2,0.1,0.8C241.7,103.1,245.2,109.7,238,116z
	 M236.8,105.9c-0.6,0.2-2,0.4-3,1.2c-0.9,0.8-1.3,1.5-1.9,2.1c-0.6,0.5-1.2,0.6-2.1,1.4c-0.9,0.8-1.3,2.2-1.6,2.8c0,0,0,0.1,0.1,0.1
	c1.1-0.4,3.5,0,5.8-2C236.2,109.6,236.3,106.8,236.8,105.9C236.8,105.9,236.8,105.8,236.8,105.9z M272.1,31.1v4.4
	c-3.1,1.5-7.9,5.4-15.3,1.1c-8.1-4.6-6-11.1-6.9-14.5c-0.2-0.7-0.3-1.1-0.1-1.1c2.7,0.5,7.6-2,10.1-0.6c2.4,1.4,2.4,2.8,4,3.7
	c1.6,0.9,2.8,0.2,5.3,1.6C270.7,26.7,271.4,28.9,272.1,31.1z M266,32.2c-0.4-0.5-1-1.8-2.1-2.4c-1.1-0.6-1.9-0.7-2.6-1.1
	c-0.7-0.4-1-0.9-2-1.5c-1.1-0.6-2.5-0.5-3.2-0.6c0,0-0.1,0,0,0.1c0.7,0.9,1.1,3.3,3.8,4.9C262.3,32.8,264.9,32,266,32.2
	C266,32.2,266,32.2,266,32.2z M261.5,76.4c-0.6,0.6-1.6,0.6-2.3,0l-1.4-1.4c-0.6-0.6-0.6-1.6,0-2.3l1-1l-9.4-9.5l-12.3,7.3
	l27.4,27.6l7.4-12.3l-9.4-9.5L261.5,76.4z M268.2,142.1c-0.9-0.1-3.5-0.6-3.5-0.6l-0.7-1.7l0.1-1.1c0,0,0,0,0.1,0
	c0.2,0,0.2-0.2,0.2-0.3c0.1-0.1,0-0.4-0.2-0.4l0.1-0.7c0,0,0,0,0.1,0c0.2,0,0.2-0.2,0.2-0.3c0.1-0.1,0-0.3-0.2-0.4l0.1-0.7
	c0,0,0,0,0,0c0.2,0,0.2-0.2,0.2-0.3c0.1-0.1,0-0.3-0.2-0.4l0.1-0.7c0,0,0,0,0.1,0c0.2,0,0.2-0.2,0.2-0.3c0.1-0.1,0-0.3-0.2-0.4
	l0-0.1l0,0c0-0.1-1.1-0.3-2.4-0.4c-1.3-0.1-2.4-0.1-2.4,0c0,0,0,0,0,0l-0.1,1.3c0,0-0.1,0-0.1,0c-0.2,0-0.2,0.2-0.2,0.3
	c-0.1,0.2,0,0.4,0.2,0.4l-0.1,0.7c0,0-0.1,0-0.1,0c-0.2,0-0.2,0.2-0.2,0.3c-0.1,0.2,0,0.4,0.3,0.4l-0.1,0.7c0,0-0.1,0-0.1,0
	c-0.2,0-0.2,0.2-0.2,0.3c-0.1,0.2,0,0.4,0.2,0.4l-0.1,0.7c0,0,0,0-0.1,0c-0.2,0-0.2,0.2-0.2,0.3c0,0.1,0,0.3,0.1,0.4l-0.9,1.5
	c0,0-2.7,0.1-3.6,0c-0.9-0.1-1,1.1-1,1.1s-1,3.2-1.3,8.8s-0.2,10.2-0.2,10.2s-0.1,0.9,0.6,0.9c0.7,0.1,6.9,0.6,6.9,0.6
	s6.2,0.6,6.9,0.6s0.7-0.8,0.7-0.8s0.9-4.5,1.6-10c0.7-5.6,0.2-8.9,0.2-8.9S269.1,142.1,268.2,142.1z M259.3,105.2
	c0,0-0.1-0.3-0.4-0.2c-0.3,0.1-5.3,1.5-5.7,1.6c-0.4,0.1-0.2,0.4-0.2,0.4l3.5,12.8c0,0,1.4-0.1,2.8-0.5l1.6,6c0,0,0.5,1.9,0.8,3.1
	c0,0.2,0.1,0.4,0.1,0.6l0.2,1.6l0,0l0.2,1.6c0,0,1,0.2,1.8-0.5c0-0.1-0.1-0.3-0.2-0.5c0,0,0,0,0,0c0,0,0-0.1-0.1-0.1
	c0-0.1-0.1-0.2-0.1-0.3c-0.5-1.1-1-2.5-1-2.5l0,0l-2.5-9c1.4-0.4,2.7-1,2.7-1L259.3,105.2z M215,148.3l-10.3,8.2l-3.8-8.5l3-2.4
	l-1.8-2.3c-0.9-1.2-0.7-2.9,0.4-3.8l10.7-8.5c1.2-0.9,2.9-0.7,3.8,0.4l1.8,2.3l3-2.4l7.4,5.6l-10.3,8.2l-0.4-0.5
	c-0.5-0.7-1.6-0.8-2.2-0.3l-1.5,1.2c-0.7,0.5-0.8,1.6-0.3,2.2L215,148.3z M205,144.8l12.9-10.2l-1.8-2.3c-0.5-0.6-1.3-0.7-1.9-0.2
	l-10.7,8.5c-0.6,0.5-0.7,1.3-0.2,1.9L205,144.8z M8.5,106.1l-0.2-0.3c-0.4-0.5-1.1-0.6-1.6-0.3l-1.6,1.1c-0.5,0.4-0.6,1.1-0.3,1.6
	l0.2,0.3l0.2,0.3l0.5,0.6l0.5,0.8l0.3,0.4c0.4,0.5,1.1,0.6,1.6,0.3l1.6-1.1c0.5-0.4,0.6-1.1,0.3-1.6l-0.3-0.4L9.1,107l-0.5-0.6
	L8.5,106.1z M85.3,47.6l3.5,1.8l-2.1,9.1l-11.7-6l0.3-0.6c0.4-0.8,0.1-1.7-0.7-2.1l-1.7-0.9c-0.8-0.4-1.7-0.1-2.1,0.7l-0.3,0.6
	l-11.7-6l6.1-7l3.5,1.8l1.3-2.6c0.7-1.3,2.3-1.9,3.7-1.2l12.2,6.3c1.3,0.7,1.9,2.3,1.2,3.7L85.3,47.6z M84.1,47l1.3-2.6
	c0.3-0.7,0.1-1.5-0.6-1.8l-12.2-6.3c-0.7-0.3-1.5-0.1-1.8,0.6l-1.3,2.6L84.1,47z M20.4,99l-10.9,7.8l0.9,1.2
	c0.5,0.7,0.3,1.7-0.4,2.2l-1.6,1.1c-0.7,0.5-1.7,0.3-2.2-0.4l-0.9-1.2L0,113.5v17.1l31.3-22.4L20.4,99z M4.4,25.4
	c-0.7-0.4-1-0.5-0.8-0.7c2.2-1.6,3.8-6.9,6.5-7.7c2.7-0.8,3.7,0.2,5.5-0.3c1.8-0.5,2.1-1.9,4.8-2.7c2.7-0.8,6.6,2.6,9.7,2.9
	c0.1,0,0,0.2-0.3,0.7c-1.5,2.7-1.1,10.2-10.3,12.8C10.6,33.2,7.4,27.2,4.4,25.4z M11.8,24.1c1.1,0.1,3.2,1.5,6.1,0.7
	c2.7-0.8,4-3.2,4.8-3.8c0,0,0.1-0.1,0-0.1c-0.6-0.1-2-0.5-3.2-0.2c-1.2,0.3-1.8,0.8-2.6,1.1c-0.8,0.2-1.3,0.1-2.5,0.4
	C13.2,22.5,12.2,23.6,11.8,24.1C11.7,24,11.7,24.1,11.8,24.1z M27.8,42.4c-0.2,0.1-0.3,0.3-0.4,0.4c-0.1,0.2-0.3,0.3-0.4,0.5
	c-0.1,0.1-0.1,0.2-0.1,0.3c0,0,0,0.1,0,0.1c0,0,0,0.1,0,0.1c0,0,0,0.1,0,0.1c0,0,0,0.1,0,0.1c0,0,0,0,0,0l0,0l0,0c0,0,0,0,0,0l0,0
	l0,0.1c0,0.1,0.1,0.1,0.1,0.2c0.1,0.1,0.2,0.2,0.3,0.3c0.2,0.2,0.4,0.3,0.7,0.4c0.2,0.1,0.5,0.1,0.7,0.2c1,0.2,2,0.2,3.1,0.1
	c0.5,0,1.1-0.1,1.6-0.2c0.5-0.1,1.1-0.2,1.6-0.3c1.1-0.2,2.2-0.5,3.2-0.8c1.1-0.3,2.1-0.7,3.2-1.1c0.5-0.2,1-0.4,1.5-0.7
	c0.5-0.2,1-0.5,1.4-0.7c0.5-0.3,0.9-0.5,1.3-0.8c0.4-0.3,0.8-0.6,1.2-1c0.2-0.2,0.3-0.4,0.5-0.6c0.1-0.1,0.1-0.2,0.2-0.4
	c0-0.1,0.1-0.3,0.1-0.4c0,0,0,0,0-0.1l0-0.1c0,0,0-0.1,0-0.1l0,0c0,0,0,0,0,0l0,0l0-0.1c0,0,0-0.1,0-0.1c-0.1-0.1-0.2-0.2-0.3-0.3
	c-0.2-0.2-0.4-0.3-0.6-0.3c-0.4-0.1-0.8-0.2-1.2-0.2c-0.4,0-0.8,0-1.1,0c-0.7,0-1.3,0.1-1.8,0.2c-0.5,0.1-0.9,0.1-1.1,0.2
	c-0.1,0-0.2,0-0.3,0.1c-0.1,0-0.1,0-0.1,0s0.1,0,0.4,0c0.3,0,0.6-0.1,1.1-0.1c0.5,0,1.1,0,1.7,0c0.3,0,0.7,0,1.1,0.1
	c0.4,0.1,0.7,0.1,1.1,0.3c0.2,0.1,0.3,0.2,0.5,0.3c0.1,0.1,0.1,0.1,0.1,0.2c0,0,0,0,0,0.1l0,0l0,0l0,0c0,0,0,0.1,0,0.1c0,0,0,0,0,0
	v0c0,0.1-0.1,0.3-0.2,0.5c-0.1,0.2-0.2,0.3-0.4,0.5c-0.3,0.3-0.7,0.6-1.1,0.9c-0.4,0.3-0.8,0.5-1.3,0.8C43,41.6,42,42.1,41,42.5
	c-1,0.4-2,0.7-3.1,1.1c-1.1,0.3-2.1,0.6-3.2,0.8c-0.5,0.1-1.1,0.2-1.6,0.3c-0.5,0.1-1,0.2-1.5,0.2c-0.5,0.1-1,0.1-1.5,0.1
	c-0.5,0-1,0-1.4-0.1c-0.2,0-0.4-0.1-0.6-0.1c-0.2-0.1-0.4-0.1-0.5-0.2c-0.1-0.1-0.1-0.1-0.2-0.2c0,0,0-0.1-0.1-0.1l0,0l0,0l0,0l0,0
	c0,0,0,0,0,0c0,0,0,0,0,0l0-0.1c0,0,0,0,0-0.1c0,0,0,0,0-0.1c0-0.1,0-0.2,0.1-0.2c0.1-0.2,0.2-0.3,0.3-0.5c0.1-0.1,0.2-0.3,0.4-0.4
	c0.3-0.3,0.5-0.5,0.8-0.7c0.5-0.4,1-0.7,1.5-1c0.4-0.2,0.8-0.4,1-0.6c0.2-0.1,0.4-0.2,0.4-0.2s0,0-0.1,0c-0.1,0-0.2,0.1-0.3,0.1
	c-0.2,0.1-0.6,0.2-1,0.5c-0.4,0.2-1,0.5-1.6,0.8C28.4,42,28.1,42.2,27.8,42.4z M11.2,148.9c0.4-0.4,0.6-0.9,0.5-1.3
	c-0.1-0.8-0.9-1.6-2.1-2.2h0c0,0-2.2-1.1-2.1-2.3c-0.5,0.8-2.6,1.5-3.7,1.8c-0.2,0-0.4,0.1-0.6,0.2c0,0,0,0,0,0l0,0
	c-1.3,0.4-2.4,1.1-3.2,1.8v1.9c2.4-1.2,10.3-2.5,11-0.9c0.5,1.4-2.4,0-5.7,0.4c-2.4,0.3-4.3,1.5-5.3,1.6v2.5
	c1.4-0.3,3.3-0.4,5.5-0.7c4.7-0.6,8.2-2,9,1.4c-0.2-0.8-0.8-1.3-1.6-1.2c-0.8,0.1-1.3,0.8-1.2,1.6c-0.1-0.8-0.8-1.3-1.6-1.2
	c-0.8,0.1-1.3,0.8-1.2,1.6c-0.1-0.8-0.8-1.3-1.6-1.2c-0.8,0.1-1.3,0.8-1.2,1.6c-0.1-0.8-0.8-1.3-1.6-1.2c-0.8,0.1-1.3,0.8-1.2,1.6
	c-0.1-0.8-0.8-1.3-1.6-1.2c-0.8,0.1-1.3,0.8-1.2,1.6c0-0.3-0.2-0.6-0.4-0.8v0.7l2.7,8.3l-1.9-8.9c0.2-0.2,0.5-0.4,0.9-0.4
	c0.3,0,0.7,0,0.9,0.2l2.4,8.8l-1.4-8.9c0.2-0.3,0.5-0.4,0.9-0.5c0.3,0,0.6,0,0.9,0.2l1.6,8.8l-0.6-8.9c0.2-0.3,0.5-0.5,0.9-0.5
	c0.3,0,0.6,0,0.8,0.2l0.8,9l0.2-8.9c0.2-0.3,0.6-0.5,1-0.6c0.3,0,0.6,0,0.8,0.1l0.3,9l0.7-8.9c0.2-0.3,0.6-0.6,1-0.6
	c0.8-0.1,1.5,0.5,1.6,1.2l-1.4,8.5l-12,1.5L0,161v1.4l0.8,1.8l12.8-1.6l1.5-9.1c0-0.4-0.1-0.7-0.1-0.8
	C14.6,151,13.2,149.6,11.2,148.9z M47.2,43.8L47.2,43.8c0,0,0.1,0,0.1,0c0,0,0.1,0,0.1-0.1c0,0,0.1-0.1,0.1-0.1c0,0,0,0,0-0.1
	c0,0,0,0,0-0.1c0,0,0-0.1,0-0.1c0,0,0,0,0,0c0,0,0-0.1,0-0.1c0,0,0,0,0,0l0,0c0-0.1,0-0.1-0.1-0.2c-0.1-0.1-0.3-0.1-0.3,0
	c-0.1,0.1-0.1,0.3,0,0.3C47.5,43.6,47.2,43.8,47.2,43.8z M29.7,42.3c-0.2,0.2-0.5,0.3-0.7,0.5c-0.2,0.2-0.4,0.4-0.6,0.7
	c-0.1,0.1-0.1,0.3-0.1,0.4c0,0,0,0.1,0,0.1c0,0,0,0.1,0,0.1c0,0.1,0,0.2,0.1,0.2c0.1,0.1,0.2,0.2,0.4,0.3c0.1,0.1,0.3,0.1,0.4,0.1
	c0.3,0,0.6,0,0.9,0c0.3,0,0.6,0,0.9,0c0.6-0.1,1.2-0.1,1.7-0.2c0.6-0.1,1.1-0.2,1.7-0.3c0.5-0.1,1-0.2,1.5-0.3
	c0.1,0,0.2-0.1,0.2-0.1l2.7-0.8c0,0,0.1,0,0.2-0.1c0.6-0.2,1.2-0.4,1.8-0.7c0.7-0.3,1.3-0.5,2-0.8c0.3-0.1,0.6-0.3,1-0.5
	c0.3-0.2,0.6-0.3,0.9-0.5c0.3-0.2,0.6-0.4,0.9-0.6c0.1-0.1,0.3-0.2,0.4-0.4c0.1-0.1,0.1-0.1,0.2-0.2c0-0.1,0.1-0.2,0.1-0.3l0,0l0,0
	c0-0.2-0.1-0.3-0.3-0.4c-0.1-0.1-0.3-0.2-0.4-0.2c-0.3-0.1-0.6-0.1-0.9-0.2c-0.6,0-1.2,0-1.7,0c-0.6,0-1.2,0.1-1.7,0.2
	c-0.6,0.1-1.1,0.2-1.7,0.3c-1.1,0.2-2.3,0.5-3.4,0.9c-1.1,0.3-2.2,0.7-3.3,1.1c-0.5,0.2-1.1,0.4-1.6,0.7
	C30.7,41.7,30.2,42,29.7,42.3z M4.5,108.5c-0.5-0.7-0.3-1.7,0.4-2.2l1.6-1.1c0.7-0.5,1.7-0.3,2.2,0.4l0.4,0.6l10.7-7.7l-7.1-6
	l-3.2,2.3l-1.7-2.4c-0.9-1.2-2.6-1.5-3.8-0.6l-4,2.9v1.7l4.8-3.4c0.6-0.4,1.5-0.3,1.9,0.3l1.7,2.4l-8.4,6v11.1l4.8-3.5L4.5,108.5z
	 M82.6,80c-0.3,0-5.7-0.6-6.1-0.7c-0.4,0-0.4,0.3-0.4,0.3l-1.5,13.7c0,0,1.4,0.4,2.9,0.6l-0.7,6.4c0,0-0.2,2.1-0.4,3.3
	c0,0.2-0.1,0.4-0.1,0.6l-0.4,1.6l0,0l-0.4,1.7c0,0,0.9,0.6,1.9,0.2c0-0.1,0-0.3,0-0.6c0,0,0,0,0,0c0-0.1,0-0.1,0-0.2
	c0-0.1,0-0.2,0-0.4c0-1.2-0.1-2.8-0.1-2.8l0,0l1-9.7c1.5,0.1,3,0,3,0l1.5-13.7C82.9,80.3,83,80,82.6,80z M37.4,155.4l0.6-13.9
	l-1.1,0l0.3-7.2c0,0,0-3.4-1.2-4.6c-0.2-0.2-0.5-0.3-0.8-0.4c-2-0.2-4,2.8-4.1,4.7c0,0,0,0,0,0.1c-0.1,1.3-0.2,4.8-0.3,7.1l-0.9,0
	L29.3,155c-0.7,0.1-1.3,0.6-1.3,1.3l-0.4,10c0,0.8,0.6,1.4,1.3,1.5l7.7,0.3c0.8,0,1.4-0.6,1.5-1.3l0.4-10
	C38.6,156.1,38.1,155.5,37.4,155.4z M70.2,53.8l1.7,0.9c0.5,0.3,1.2,0.1,1.5-0.5l0.2-0.5l0.4-0.8l0.4-0.7l0.1-0.3l0.2-0.3
	c0.3-0.5,0.1-1.2-0.5-1.5l-1.7-0.9c-0.5-0.3-1.2-0.1-1.5,0.5L70.9,50l-0.1,0.3L70.4,51L70,51.8l-0.2,0.5
	C69.5,52.8,69.7,53.5,70.2,53.8z M77.4,119.5c-0.8-0.4-3.2-2-3.2-2l0-1.9l0.5-1c0,0,0,0,0.1,0c0.2,0,0.3-0.1,0.3-0.2
	c0.1-0.1,0.1-0.4-0.1-0.4l0.3-0.6c0,0,0,0,0.1,0c0.2,0,0.3-0.1,0.3-0.2c0.1-0.1,0.1-0.3-0.1-0.4l0.3-0.6c0,0,0,0,0,0
	c0.2,0,0.3-0.1,0.3-0.2c0.1-0.1,0.1-0.3,0-0.4l0.3-0.6c0,0,0,0,0.1,0c0.2,0,0.3-0.1,0.3-0.2c0.1-0.1,0.1-0.3-0.1-0.4l0.1-0.1l0,0
	c0.1-0.1-0.9-0.7-2.2-1.3c-1.3-0.6-2.3-1-2.4-0.9c0,0,0,0,0,0l-0.6,1.2c0,0-0.1,0-0.1,0c-0.2,0-0.3,0.1-0.3,0.2
	c-0.1,0.1-0.1,0.4,0.1,0.4l-0.3,0.6c0,0-0.1,0-0.1,0c-0.2,0-0.3,0.1-0.3,0.2c-0.1,0.1-0.1,0.4,0.1,0.5l-0.3,0.6c0,0-0.1,0-0.1,0
	c-0.2,0-0.3,0.1-0.3,0.2c-0.1,0.1-0.1,0.4,0.1,0.4l-0.3,0.6c0,0,0,0-0.1,0c-0.2,0-0.3,0.1-0.3,0.2c-0.1,0.1-0.1,0.3,0,0.4l-1.4,1.1
	c0,0-2.6-0.9-3.5-1.3c-0.8-0.4-1.4,0.7-1.4,0.7s-2.2,2.7-4.6,8c-2.4,5.3-4,9.8-4,9.8s-0.4,0.8,0.2,1.1c0.6,0.3,6.5,3.2,6.5,3.2
	s5.8,2.9,6.5,3.2c0.6,0.3,1-0.5,1-0.5s2.6-4,5.4-9.1c2.8-5.2,3.6-8.5,3.6-8.5S78.3,119.9,77.4,119.5z M47,119.8
	c-8.9,2.6-12.1-3.4-15.1-5.2c-0.7-0.4-1-0.5-0.8-0.7c2.2-1.6,3.8-6.9,6.5-7.7c2.7-0.8,3.7,0.2,5.5-0.3c1.8-0.5,2.1-1.9,4.8-2.7
	c2.7-0.8,6.6,2.6,9.7,2.9c0.1,0,0,0.2-0.3,0.7C55.9,109.7,56.2,117.2,47,119.8z M45.4,114c2.7-0.8,4-3.2,4.8-3.8c0,0,0.1-0.1,0-0.1
	c-0.6-0.1-2-0.5-3.2-0.2c-1.2,0.3-1.8,0.8-2.6,1.1c-0.8,0.2-1.3,0.1-2.5,0.4c-1.2,0.3-2.1,1.5-2.6,1.8c0,0,0,0.1,0,0.1
	C40.4,113.4,42.4,114.8,45.4,114z M52.2,81c-0.4-0.4-0.7-0.8-0.7-1.2c-0.2-1.3,1.6-3.2,4.3-4.1l0,0c0,0,0,0,0,0
	c0.2-0.1,0.4-0.1,0.6-0.2c1.1-0.3,3.2-1,3.7-1.8c-0.1,1.2,2.1,2.3,2.1,2.3h0c1.2,0.6,2,1.4,2.1,2.2c0.1,0.4-0.2,0.8-0.5,1.3
	c2,0.8,3.5,2.2,3.8,3.9c0,0.2,0,0.5,0.1,0.8l-1.5,9.1l-12.8,1.6l-3.7-8.4c0,0,0-0.2-0.1-0.5C49.4,84,50.4,82.3,52.2,81z M67.1,84.2
	c-0.1-0.8-0.8-1.3-1.6-1.2c-0.4,0.1-0.8,0.3-1,0.6l-0.7,8.9l-0.3-9c-0.2-0.1-0.5-0.2-0.8-0.1c-0.4,0-0.7,0.3-1,0.6l-0.2,8.9l-0.8-9
	c-0.3-0.1-0.5-0.2-0.8-0.2c-0.4,0-0.7,0.2-0.9,0.5l0.6,8.9L58,84.2C57.7,84,57.4,84,57.1,84c-0.4,0-0.7,0.2-0.9,0.5l1.4,8.9
	l-2.4-8.8c-0.3-0.2-0.6-0.2-0.9-0.2c-0.3,0-0.6,0.2-0.9,0.4l1.9,8.9l-2.9-8.7c-0.3-0.2-0.6-0.3-1-0.2c-0.8,0.1-1.3,0.8-1.2,1.6
	l3.4,7.9l12-1.5L67.1,84.2z M57.9,78.8c3.3-0.4,6.2,1,5.7-0.4c-0.8-1.9-11.8,0.4-11.7,1.6C52.1,81.5,54.5,79.2,57.9,78.8z
	 M50.2,85.8c-0.1-0.8,0.5-1.5,1.2-1.6c0.8-0.1,1.5,0.5,1.6,1.2c-0.1-0.8,0.5-1.5,1.2-1.6c0.8-0.1,1.5,0.5,1.6,1.2
	c-0.1-0.8,0.5-1.5,1.2-1.6c0.8-0.1,1.5,0.5,1.6,1.2c-0.1-0.8,0.5-1.5,1.2-1.6c0.8-0.1,1.5,0.5,1.6,1.2c-0.1-0.8,0.5-1.5,1.2-1.6
	c0.8-0.1,1.5,0.5,1.6,1.2c-0.1-0.8,0.5-1.5,1.2-1.6c0.8-0.1,1.4,0.5,1.6,1.2c-0.8-3.4-4.4-2-9-1.4C53.4,82.9,49.8,82.6,50.2,85.8z
	 M61.5,153.1c-1.4-0.7-3-0.8-4.4-0.3c-0.4-1.5-1.3-2.8-2.7-3.5c-2.7-1.4-6.1-0.3-7.5,2.5c-0.4,0.8-0.7,1.5-0.8,2.4
	c0,0-0.1,0.7-0.1,1.2c-0.3,5.5,3.9,11.3,3.9,11.3s7.1,0.1,11.5-3.2c0,0,0.6-0.4,0.9-0.8c0.6-0.6,1.1-1.2,1.5-2
	C65.1,157.9,64.2,154.5,61.5,153.1z"/>
<path id="Tape_Back" class="rpl2-1" d="M195,157.7c0,6.7,3.5,10.7,3.5,10.7h-37.8V147h37.8C198.5,147,195,150.9,195,157.7z M71.4,157.7
	c0,6.7-3.5,10.7-3.5,10.7h37.8V147H67.8C67.8,147,71.4,150.9,71.4,157.7z"/>
<g id="Roses">
	<g>
		<path class="st3" d="M92.1,104.4c3.2,3.8,5.4,7.3,5.1,11.5c-0.3,3.2-2.4,5.3-5.1,4.7s-4.1-2.2-3.9-5.3
			C88.4,111.5,91.8,110.4,92.1,104.4z"/>
		<path class="st4" d="M92.1,104.4c3.5,6.9-0.2,12.3,0,16.2C90.3,114.8,94.2,110.2,92.1,104.4z"/>
		<path class="st5" d="M92,106.4c-0.3,3.4-2.9,5.7-3.4,7.8s0.5,4,0.6,4.2C89.6,112.1,92.7,111.1,92,106.4z"/>
	</g>
	<g>
		<path class="st6" d="M96,121c0,0,2.1-2.1,4.3-0.9c2.2,1.2,0.1,4.2,0.1,4.2l-3.3,3.3c0,0-0.5,0.4-1.5,2.7s-6,1.7-5.1-1.7
			C91.3,125.3,96,121,96,121z"/>
		<path class="st7" d="M101.3,121.3c-1.4,3.7-3.1,4.2-3.9,5c-1.1,1.1-1.4,4.2-2.8,5.1c2.4-1.1,2.6-0.6,4.9-3.3
			C101.9,125.1,102.1,123.3,101.3,121.3z"/>
		<path class="st6" d="M89.4,113.3c0,0-1.9,0.5-2.1-1.1c-0.2-1.6,1.9-2.1,1.9-2.1l2.6-0.1c0,0,0.3,0,1.7-0.6s2.8,2,1,3.2
			S89.4,113.3,89.4,113.3z"/>
		<path class="st7" d="M87.5,111.1c2.2-1.2,2.9-0.6,3.6-0.7c0.9,0,2.4-1.5,3.3-1.2c-1.3-0.6-1.2-0.9-3.2-0.6
			C89,109,88.2,109.8,87.5,111.1z"/>
		<path class="st8" d="M90.5,128.6c0.1-0.4,0.3-0.8,0.4-1.2c1,0.3,2.4,1.1,2.4,2.7c0,0.7-0.2,1.2-0.6,1.5
			C91.3,131.5,90,130.5,90.5,128.6z"/>
		<path class="st6" d="M89.4,127.4c0,0,3.3,0.2,3.4,2.7c0.1,2.5-3.6,2.1-3.6,2.1l-4.5-1.2c0,0-0.6-0.2-3.1,0s-4.4-4.4-1.1-5.3
			C83.8,124.8,89.4,127.4,89.4,127.4z"/>
		<path class="st7" d="M92.2,131.5c-3.9,0.6-5.1-0.6-6.3-1c-1.5-0.4-4.4,0.9-5.8,0c2.2,1.5,1.9,2,5.3,2.6
			C89.3,133.9,90.9,133.1,92.2,131.5z"/>
		<path class="st6" d="M94.6,114.2c0,0-1.3-2.2,0.8-2.8c2.2-0.6,3.5,1.8,3.5,1.8l1,3.2c0,0,0,0.4,1.4,2c1.4,1.6-1.8,3.9-4.1,1.9
			C94.9,118.3,94.6,114.2,94.6,114.2z"/>
		<path class="st8" d="M97.2,120.2c-0.2-0.1-0.3-0.3-0.5-0.5c0.8-0.6,2.3-1.3,3.9-0.4c0.3,0.2,0.6,0.4,0.8,0.7
			c-0.1,0.2-0.3,0.4-0.5,0.5c-0.1-0.1-0.3-0.3-0.5-0.4C99.2,119.5,98,119.8,97.2,120.2z"/>
		<path class="st7" d="M97,111.4c2.3,2.4,1.8,3.5,2,4.3c0.3,1.1,2.8,2.6,2.7,3.8c0.4-1.8,0.9-1.7-0.1-4.1
			C100.4,112.7,99,111.8,97,111.4z"/>
		<path class="st6" d="M81,118.1c0,0-2.2,1.3-2.8-0.9c-0.6-2.2,1.9-3.5,1.9-3.5l3.2-1c0,0,0.4,0,2-1.4c1.6-1.4,3.8,1.9,1.9,4.1
			C85.2,117.8,81,118.1,81,118.1z"/>
		<path class="st7" d="M78.3,115.7c2.4-2.3,3.5-1.8,4.3-2c1.1-0.3,2.6-2.8,3.8-2.7c-1.8-0.4-1.7-0.9-4.1,0.1
			C79.6,112.3,78.8,113.6,78.3,115.7z"/>
		<path class="st6" d="M81.2,125.9c0,0,0.3,2.5-1.9,2.3c-2.2-0.3-2.5-3.1-2.5-3.1l0.4-3.3c0,0,0.1-0.4-0.5-2.4
			c-0.6-2,3.2-2.8,4.6-0.1C82.6,121.9,81.2,125.9,81.2,125.9z"/>
		<g>
			<path class="st8" d="M78.7,128c-0.2-0.1-0.4-0.2-0.5-0.3c0-1,0.6-1.9,1.9-2.2c0.4-0.1,0.9-0.2,1.3-0.2c0,0.1-0.1,0.2-0.1,0.3
				c-0.3,0-0.6,0.1-0.8,0.2C79.2,126.1,78.7,127,78.7,128z"/>
		</g>
		<path class="st7" d="M78,127.5c-1.2-3.1-0.3-3.9-0.2-4.7c0.1-1.1-1.5-3.5-1-4.5c-1,1.5-1.5,1.2-1.5,3.8
			C75.4,124.9,76.3,126.3,78,127.5z"/>
		<path class="st6" d="M91.6,124l-2.6,1.5c0,0,2.1,0.8,2.5,1.8s7.8-1.8,5.5-8.3c-0.8-0.4-2.1,1.3-2.2,1.4
			C94.7,120.6,91.6,124,91.6,124z"/>
		<g>
			<path class="st8" d="M95.7,119.6c0.3-0.4,0.8-0.8,1.3-0.5C96.6,118.9,96.1,119.2,95.7,119.6z"/>
			<path class="st8" d="M97,119.1c2.9,7.5-4.5,10.1-5.1,8.8c-0.1-0.1-0.1-0.2-0.2-0.3C93.1,127.9,99.1,125,97,119.1z"/>
			<path class="st8" d="M91.3,127.1c-0.9-0.8-2.2-1.4-2.2-1.4l0.1,0C89.6,125.8,90.8,126.4,91.3,127.1z"/>
		</g>
		<polygon class="st6" points="93.3,117.6 95.5,116.4 96.6,117 96.5,118.2 95.1,120.2 94.2,121.1 92.4,123.2 90.4,122.6 90,121.1 		
			"/>
		<polygon class="st6" points="82.3,121.4 84.3,122.1 87.4,123.8 88.8,125.2 88.8,126.1 87.4,126.2 86.2,126.4 83.2,126.1 
			82.1,125.6 81.2,124.7 80.8,123.6 80.7,122.6 81.5,121.3 		"/>
		<path class="st8" d="M82.5,121.8c3.8,2.1,4.1,4.4,4.1,4.4l2.1-0.2c0,0,4.1-4,6.1-5.5c-0.5-0.9-1.3-0.9-0.3-4.7
			C95,113.7,78.7,119.8,82.5,121.8z"/>
		<path class="st6" d="M84.4,114.8l-2.3,0.6l-2.3,1.6c0,0-0.6,0.9-0.6,0.9c0,0.1,0.3,1,0.3,1c0.1,0.1,1,1,1,1l0.8,0.6l1.8,0.6
			l1.1,0.2l2.2-0.4l1.5-0.4l-1.2-1.7L84.4,114.8z"/>
		<path class="st6" d="M90.4,119.7c0,0,3.7-3.4,3.2-5.6c-0.5-2.1-4.2-1.7-6.5-0.8c-2.3,0.9-3.4,1.8-3.5,3.4c0,1.6,5.3,2.7,5.3,2.7
			L90.4,119.7z"/>
		<path class="st8" d="M91.2,125.3l1.8,0c0,0,0.5,0.4,1.4,1.4s-5.8,6.6-10.7,0.7c0-1.1,2.1-1.1,2.2-1.1
			C86,126.3,91.2,125.3,91.2,125.3z"/>
		<path class="st6" d="M91,125.6l1.6,0c0,0,0.6,0.2,1.4,1c0.8,0.9-5.2,6.1-9.9,1.1c0-0.9,2.2-1.2,2.2-1.3
			C86.3,126.4,91,125.6,91,125.6z"/>
		<path class="st9" d="M86.3,116.7c0,0-0.5-0.1-0.4-0.8c0.1-0.8,1.7-1.3,3.1-1.3c1.4,0,1.7,0.4,1.8,1c0.2,1-1.3,2-1.3,2L86.3,116.7z
			"/>
		<path class="st8" d="M89,115.9c-0.9,0.7-2.3,0.9-2.8,0.8c1.5,1,1.4,1.4,1.4,1.4l1.8-0.6C89.5,117.5,88.9,116.9,89,115.9z"/>
		<path class="st8" d="M85.2,118.5c1.5,1,2.2,2.5,2.2,2.5l2.2,1l1.1-2.3c0,0,0-2.2,0.4-2.8c0.4-0.6-1.6,1.4-1.6,1.4
			S85.8,118.1,85.2,118.5z"/>
		<path class="st7" d="M83.6,116.7c-0.6,1,0.9,2.6,1.3,2.7c0.2-0.4,1.2-0.6,1.2-0.6l0.3,0.4l0.3-0.4l0.2,0.3c0,0,2.1,0,4.1-1.7
			c-0.2-0.5-0.2-0.5-0.2-0.5l0.3,0.2c0,0,0.7-1.1,0.3-1.8s-1.6-1.6-2.4-0.9c1.2,0.4,1.7,1.3,1.5,1.7c-0.3,0.5-0.1,1.1-2.7,1.7
			C85.2,118.4,83.8,117.2,83.6,116.7z"/>
		<path class="st7" d="M83.8,115.7c0.4-0.6,0.5-2.1,4.2-3.7c3.7-1.7,5.9-0.3,5.9-0.3l-0.4,0.7l0.8-0.4c0,0,0.9,0.4,0.9,1.9
			c0,1.5-1.4,5.1-1.5,5.1s-1-0.4-1-0.4l0.8,1.4c0,0-4.3,1.2-5.4,5.8c-0.2-2.7,1.2-5.9,3-7.4c1.8-1.5,3.2-4,1-5.3
			C90.1,111.8,85.3,113.6,83.8,115.7z"/>
		<path class="st7" d="M84.2,115.1c-2.7,0.9-5,1.9-4.1,3.7c1,2.1,4.8,2.7,7.2,2c2.4-0.8,3.2,0,3.6,0.2c-2-0.5-6,1.4-6.5,1.8
			c-0.5,0.4-0.8-1-0.8-1s-0.6,0.5-0.1,1.4c-1.7-0.1-2.3-0.8-2.7-1.4c-0.4-0.2-0.2-0.8-0.2-0.8l-0.6,0.2c0,0-1.6-0.6-1.5-2.3
			c0.1-1.6,1-4,6-4.2L84.2,115.1z"/>
		<path class="st7" d="M92.6,125.6c-3.2-1.2-6.8,2.2-10.6-0.6c-1.3-1.5-0.8-2.7-0.8-2.7l-0.3-0.2c0,0-0.7,0.7-0.8,1.9
			c0,1.2,0.4,3.1,0.8,3.1c0.5,0.1,0.6-0.7,0.6-0.7s0.4,0.2-0.2,0.9c2.4,1.6,5.5,1.2,5.8,0.7c0.3-0.4,0.4-1.3,0.4-1.3s0.2,0.2,0.2,1
			S90.6,125.6,92.6,125.6z"/>
		<path class="st7" d="M94.8,116.1l-0.5,1.4c0,0,0.8-1.1,1.6-0.4c1.9,1.8-6.2,6.6-6.7,8.3c3.2-2.1,4.3-1.4,5.4-3.2
			c-0.4-0.4-0.2-1.1-0.2-1.1s0.1,0.2,0.7,0.4c3.5-1.8,2.7-5.2,3.3-5.9c-0.5-0.7-1.7,0-1.7,0s0.1-0.4,1.2-0.9
			C96,114.6,94.8,116.1,94.8,116.1z"/>
	</g>
	<g>
		<path class="st3" d="M101.8,124.6c1.3,5.8,1.6,10.8-1.1,15.1c-2.1,3.3-5.5,4.2-8.1,2.1c-2.6-2.1-3.1-4.7-1.1-7.8
			C93.9,130,98.1,130.8,101.8,124.6z"/>
		<path class="st4" d="M101.8,124.6c-0.2,9.3-7.1,12.9-9.2,17.2C94,134.6,100.8,131.9,101.8,124.6z"/>
		<path class="st5" d="M100.6,126.6c-2.2,3.4-6.3,4.4-8.1,6.4c-1.8,1.9-1.8,4.4-1.7,4.8C94.8,131.3,98.6,132,100.6,126.6z"/>
	</g>
	<g>
		<path class="st3" d="M87.1,119.8c4,3,6.9,5.9,7.5,10.1c0.5,3.2-1.1,5.7-3.9,5.8c-2.8,0.1-4.5-1.3-5-4.3
			C85.2,127.5,88.2,125.7,87.1,119.8z"/>
		<path class="st4" d="M87.1,119.8c5,6,2.6,12,3.6,15.8C87.8,130.3,90.5,124.9,87.1,119.8z"/>
		<path class="st5" d="M87.5,121.7c0.5,3.4-1.5,6.2-1.6,8.4c-0.1,2.2,1.3,3.8,1.6,3.9C86.4,127.8,89.2,126.2,87.5,121.7z"/>
	</g>
	<g>
		<path class="st3" d="M78.7,125.8c4.8,1.1,8.7,2.7,10.9,6.2c1.7,2.8,1.2,5.7-1.3,6.9c-2.5,1.2-4.6,0.6-6.3-1.9
			C79.9,133.7,82,130.8,78.7,125.8z"/>
		<path class="st4" d="M78.7,125.8c6.9,3.5,7.2,9.9,9.6,13.1C83.5,135.2,83.8,129.2,78.7,125.8z"/>
		<path class="st5" d="M79.8,127.4c1.8,2.9,1.1,6.3,1.9,8.3c0.8,2.1,2.7,2.9,3,3C81.2,133.4,83.2,130.8,79.8,127.4z"/>
	</g>
	<g>
		<path class="st3" d="M73.9,154.6c3.9,3,7.6,5.1,11.7,4.5c3.2-0.4,5.1-2.6,4.5-5.4c-0.7-2.7-2.4-4-5.4-3.6
			C80.9,150.6,79.9,154,73.9,154.6z"/>
		<path class="st4" d="M73.9,154.6c7.1,3.2,12.2-0.7,16.2-0.8C84.3,152.3,79.8,156.5,73.9,154.6z"/>
		<path class="st5" d="M75.9,154.4c3.4-0.5,5.5-3.1,7.7-3.8c2.1-0.7,4,0.3,4.2,0.4C81.5,151.8,80.7,154.9,75.9,154.4z"/>
	</g>
	<g>
		<path class="st3" d="M67.4,143.8c2.4,4.3,5,7.6,9,8.8c3.1,0.9,5.8-0.4,6.2-3.2c0.5-2.8-0.7-4.6-3.6-5.5
			C75.3,142.9,73.1,145.7,67.4,143.8z"/>
		<path class="st4" d="M67.4,143.8c5.3,5.7,11.6,4.1,15.2,5.6C77.8,145.8,72,147.9,67.4,143.8z"/>
		<path class="st5" d="M69.2,144.5c3.3,0.9,6.3-0.7,8.5-0.5c2.2,0.2,3.6,1.8,3.7,2C75.4,144.2,73.4,146.8,69.2,144.5z"/>
	</g>
	<g>
		<path class="st6" d="M93.1,139.9c0,0,2.3-2.3,4.8-1c2.4,1.3,0.1,4.6,0.1,4.6l-3.7,3.7c0,0-0.5,0.4-1.7,3c-1.2,2.6-6.6,1.9-5.7-1.9
			C87.8,144.7,93.1,139.9,93.1,139.9z"/>
		<path class="st7" d="M98.9,140.2c-1.6,4.1-3.5,4.6-4.4,5.5c-1.2,1.2-1.5,4.7-3.2,5.7c2.7-1.2,2.9-0.7,5.5-3.7
			C99.6,144.4,99.8,142.4,98.9,140.2z"/>
		<path class="st6" d="M85.7,131.2c0,0-2.1,0.6-2.3-1.2s2.1-2.4,2.1-2.4l2.9-0.1c0,0,0.4,0,1.9-0.7c1.6-0.8,3.1,2.2,1.1,3.6
			S85.7,131.2,85.7,131.2z"/>
		<path class="st7" d="M83.6,128.9c2.4-1.3,3.3-0.7,4-0.7c1,0,2.7-1.7,3.6-1.4c-1.5-0.6-1.3-1-3.5-0.7
			C85.3,126.5,84.3,127.4,83.6,128.9z"/>
		<path class="st8" d="M86.9,148.4c0.1-0.4,0.3-0.9,0.5-1.3c1.2,0.4,2.6,1.2,2.7,3c0,0.8-0.3,1.3-0.7,1.7
			C87.8,151.5,86.3,150.4,86.9,148.4z"/>
		<path class="st6" d="M85.6,146.9c0,0,3.7,0.3,3.8,3s-4,2.4-4,2.4l-5-1.4c0,0-0.6-0.3-3.4,0c-2.8,0.3-4.9-4.9-1.2-5.9
			C79.5,144.1,85.6,146.9,85.6,146.9z"/>
		<path class="st7" d="M88.8,151.5c-4.3,0.7-5.7-0.7-7-1.1c-1.7-0.5-4.8,1-6.5,0.1c2.4,1.7,2.1,2.2,5.9,2.9
			C85.6,154.2,87.3,153.4,88.8,151.5z"/>
		<path class="st6" d="M91.5,132.3c0,0-1.5-2.5,0.9-3.1c2.4-0.7,3.9,2,3.9,2l1.1,3.6c0,0,0,0.5,1.6,2.2c1.5,1.8-2,4.3-4.6,2.1
			C91.8,136.9,91.5,132.3,91.5,132.3z"/>
		<path class="st8" d="M94.4,139c-0.2-0.2-0.4-0.3-0.5-0.5c0.9-0.6,2.6-1.4,4.3-0.5c0.4,0.2,0.7,0.5,0.8,0.8
			c-0.2,0.2-0.4,0.4-0.6,0.6c-0.2-0.2-0.3-0.3-0.6-0.4C96.5,138.2,95.3,138.6,94.4,139z"/>
		<path class="st7" d="M94.1,129.1c2.6,2.7,2,3.9,2.2,4.8c0.4,1.2,3.1,2.9,3,4.2c0.4-2,1-1.8-0.1-4.5
			C97.9,130.6,96.4,129.7,94.1,129.1z"/>
		<path class="st6" d="M76.4,136.6c0,0-2.5,1.4-3.1-1s2.1-3.9,2.1-3.9l3.6-1.1c0,0,0.5,0,2.2-1.6s4.3,2.1,2.1,4.6
			C81,136.3,76.4,136.6,76.4,136.6z"/>
		<path class="st7" d="M73.3,134c2.7-2.5,3.9-2,4.8-2.2c1.2-0.3,2.9-3.1,4.2-3c-2-0.4-1.8-1-4.5,0.1C74.8,130.1,73.9,131.7,73.3,134
			z"/>
		<path class="st6" d="M76.6,145.3c0,0,0.4,2.8-2.1,2.5s-2.8-3.4-2.8-3.4l0.4-3.7c0,0,0.1-0.4-0.6-2.7c-0.7-2.2,3.6-3.2,5.1-0.1
			S76.6,145.3,76.6,145.3z"/>
		<g>
			<path class="st8" d="M73.8,147.6c-0.2-0.1-0.4-0.2-0.6-0.3c0.1-1.1,0.7-2.1,2.1-2.5c0.5-0.1,1-0.2,1.5-0.2c0,0.1-0.1,0.2-0.1,0.3
				c-0.3,0-0.6,0.1-0.9,0.2C74.3,145.5,73.8,146.5,73.8,147.6z"/>
		</g>
		<path class="st7" d="M73,147.1c-1.3-3.5-0.3-4.3-0.2-5.3c0.1-1.2-1.7-3.9-1.1-5c-1.1,1.6-1.6,1.3-1.6,4.2
			C70.1,144.2,71.1,145.7,73,147.1z"/>
		<path class="st6" d="M88.2,143.2l-2.9,1.7c0,0,2.3,0.9,2.8,2c0.5,1.2,8.7-2,6.1-9.2c-0.9-0.5-2.3,1.5-2.4,1.6
			C91.6,139.4,88.2,143.2,88.2,143.2z"/>
		<g>
			<path class="st8" d="M92.7,138.3c0.4-0.4,0.9-0.9,1.5-0.5C93.7,137.5,93.1,137.9,92.7,138.3z"/>
			<path class="st8" d="M94.1,137.8c3.3,8.3-5.1,11.2-5.6,9.8c-0.1-0.1-0.1-0.3-0.2-0.4C89.8,147.5,96.4,144.3,94.1,137.8z"/>
			<path class="st8" d="M87.8,146.6c-1-0.9-2.5-1.6-2.5-1.6l0.1-0.1C85.9,145.2,87.2,145.8,87.8,146.6z"/>
		</g>
		<polygon class="st6" points="90,136.1 92.5,134.7 93.8,135.4 93.6,136.8 92.1,139 91,140 89,142.3 86.9,141.6 86.4,140 		"/>
		<polygon class="st6" points="77.8,140.3 80.1,141.1 83.4,142.9 85,144.5 85,145.6 83.5,145.7 82.1,145.9 78.8,145.6 77.6,144.9 
			76.6,143.9 76.1,142.8 76.1,141.6 76.9,140.2 		"/>
		<path class="st8" d="M78,140.8c4.2,2.3,4.6,4.9,4.6,4.9l2.3-0.2c0,0,4.6-4.5,6.7-6.1c-0.6-1-1.5-1-0.4-5.3
			C91.9,131.7,73.8,138.5,78,140.8z"/>
		<path class="st6" d="M80.2,133l-2.5,0.7l-2.6,1.8c0,0-0.6,1-0.6,1c0,0.1,0.3,1.1,0.4,1.1c0.1,0.1,1.1,1.1,1.1,1.1l0.9,0.7l2,0.7
			l1.3,0.3l2.4-0.4l1.6-0.5l-1.3-1.9L80.2,133z"/>
		<path class="st6" d="M86.8,138.4c0,0,4.1-3.8,3.6-6.2c-0.5-2.4-4.6-1.9-7.2-0.9c-2.6,1-3.8,2-3.9,3.8c-0.1,1.8,5.9,3,5.9,3
			L86.8,138.4z"/>
		<path class="st8" d="M87.7,144.7l2,0c0,0,0.6,0.4,1.6,1.5c1,1.1-6.4,7.4-11.9,0.8c0-1.2,2.3-1.2,2.4-1.2
			C81.9,145.7,87.7,144.7,87.7,144.7z"/>
		<path class="st6" d="M87.5,145l1.8,0c0,0,0.7,0.2,1.5,1.2c0.8,1-5.8,6.8-11,1.2c0-1,2.4-1.4,2.5-1.4S87.5,145,87.5,145z"/>
		<path class="st9" d="M82.2,135c0,0-0.5-0.1-0.5-0.9c0.1-0.9,1.8-1.5,3.4-1.5c1.6,0,1.9,0.5,2,1.1c0.2,1.1-1.5,2.2-1.5,2.2
			L82.2,135z"/>
		<path class="st8" d="M85.3,134.2c-1,0.8-2.6,1-3.1,0.9c1.6,1.1,1.6,1.6,1.6,1.6l2-0.7C85.8,135.9,85.2,135.3,85.3,134.2z"/>
		<path class="st8" d="M81,137c1.7,1.1,2.4,2.7,2.4,2.7l2.4,1.1l1.2-2.6c0,0-0.1-2.4,0.4-3.1s-1.8,1.5-1.8,1.5S81.7,136.6,81,137z"
			/>
		<path class="st7" d="M79.3,135c-0.6,1.1,1,2.8,1.5,3c0.2-0.5,1.3-0.6,1.3-0.6l0.4,0.4l0.3-0.4l0.2,0.4c0,0,2.4,0,4.6-1.9
			c-0.2-0.5-0.2-0.5-0.2-0.5l0.4,0.3c0,0,0.8-1.3,0.3-2c-0.5-0.8-1.8-1.8-2.7-1c1.3,0.4,1.9,1.5,1.6,1.9c-0.4,0.6-0.1,1.3-3,1.8
			C81,137,79.4,135.6,79.3,135z"/>
		<path class="st7" d="M79.5,134c0.5-0.6,0.5-2.3,4.6-4.1c4.1-1.9,6.6-0.3,6.6-0.3l-0.5,0.8l0.9-0.4c0,0,1,0.5,1,2.1
			c0,1.6-1.6,5.7-1.7,5.7s-1.2-0.5-1.2-0.5l0.9,1.5c0,0-4.8,1.4-6,6.4c-0.2-3,1.4-6.6,3.3-8.2s3.6-4.4,1.2-5.9
			C86.5,129.7,81.2,131.6,79.5,134z"/>
		<path class="st7" d="M79.9,133.2c-3,1-5.5,2.2-4.6,4.1c1.1,2.3,5.3,3,8,2.2c2.6-0.9,3.5,0,4,0.2c-2.2-0.6-6.7,1.6-7.2,2
			s-0.9-1.1-0.9-1.1s-0.7,0.5-0.1,1.6c-1.9-0.1-2.6-0.9-3-1.5c-0.5-0.2-0.2-0.9-0.2-0.9l-0.7,0.2c0,0-1.8-0.7-1.7-2.6
			c0.1-1.8,1.1-4.4,6.7-4.7L79.9,133.2z"/>
		<path class="st7" d="M89.2,144.9c-3.6-1.3-7.6,2.5-11.8-0.7c-1.5-1.6-0.8-3.1-0.8-3.1l-0.3-0.3c0,0-0.8,0.8-0.9,2.1
			c0,1.3,0.4,3.4,0.9,3.5c0.5,0.1,0.7-0.8,0.7-0.8s0.4,0.2-0.2,1c2.7,1.8,6.1,1.3,6.5,0.8c0.3-0.5,0.5-1.5,0.5-1.5s0.2,0.2,0.2,1.1
			S87.1,145,89.2,144.9z"/>
		<path class="st7" d="M91.7,134.4l-0.5,1.6c0,0,0.9-1.2,1.8-0.4c2.1,2-6.9,7.4-7.5,9.3c3.6-2.3,4.8-1.6,6-3.6
			c-0.5-0.5-0.2-1.2-0.2-1.2s0.1,0.2,0.8,0.5c3.9-2,3-5.7,3.7-6.5c-0.6-0.8-1.9,0-1.9,0s0.1-0.5,1.4-1.1
			C93.1,132.7,91.7,134.4,91.7,134.4z"/>
	</g>
	<g>
		<path class="st3" d="M198.6,144.2c-2.9,4-5.9,7-10,7.6c-3.2,0.5-5.7-1.1-5.8-3.9c-0.1-2.8,1.3-4.5,4.2-5
			C190.9,142.3,192.7,145.3,198.6,144.2z"/>
		<path class="st4" d="M198.6,144.2c-5.9,5-12,2.6-15.8,3.7C188.1,144.9,193.5,147.6,198.6,144.2z"/>
		<path class="st5" d="M196.7,144.6c-3.4,0.5-6.2-1.5-8.4-1.5c-2.2-0.1-3.8,1.3-3.9,1.6C190.6,143.6,192.2,146.4,196.7,144.6z"/>
	</g>
	<g>
		<path class="st3" d="M162,129.1c-1.5,4.7-2.2,8.9-0.3,12.6c1.5,2.9,4.2,3.9,6.6,2.4c2.3-1.5,2.9-3.7,1.6-6.4
			C168.1,134.2,164.6,134.5,162,129.1z"/>
		<path class="st4" d="M162,129.1c-0.6,7.7,4.9,11.3,6.3,15C167.7,138,162.3,135.2,162,129.1z"/>
		<path class="st5" d="M162.8,130.8c1.6,3,4.8,4.2,6.2,5.9c1.3,1.8,1.1,3.8,1,4.1C167.3,135.2,164,135.5,162.8,130.8z"/>
	</g>
	<g>
		<path class="st3" d="M193.4,156.8c-5,0.3-9.1-0.1-12.2-2.9c-2.4-2.2-2.7-5.1-0.7-7c2.1-1.9,4.3-1.9,6.5,0.1
			C190,149.6,188.8,152.9,193.4,156.8z"/>
		<path class="st4" d="M193.4,156.8c-7.6-1.4-9.7-7.5-12.9-9.9C186.2,149.1,187.5,155,193.4,156.8z"/>
		<path class="st5" d="M191.9,155.6c-2.5-2.3-2.8-5.7-4.2-7.5c-1.4-1.7-3.4-2-3.7-2C188.8,150.2,187.7,153.2,191.9,155.6z"/>
	</g>
	<g>
		<path class="st6" d="M171.9,135.3c0,0-2.4-2.5-5.1-1.2c-2.7,1.3-0.3,4.9-0.3,4.9l3.8,4c0,0,0.6,0.5,1.7,3.2c1.2,2.8,7,2.2,6.1-1.8
			S171.9,135.3,171.9,135.3z"/>
		<path class="st7" d="M165.7,135.4c1.6,4.4,3.5,5,4.5,6c1.3,1.4,1.5,5.1,3.2,6.1c-2.8-1.4-3.1-0.8-5.7-4.1
			C164.8,139.9,164.7,137.8,165.7,135.4z"/>
		<path class="st6" d="M180,126.3c0,0,2.2,0.7,2.5-1.2c0.3-1.9-2.1-2.6-2.1-2.6l-3.1-0.2c0,0-0.4,0-2-0.8c-1.6-0.9-3.4,2.2-1.3,3.8
			S180,126.3,180,126.3z"/>
		<path class="st7" d="M182.4,123.8c-2.5-1.5-3.5-0.9-4.2-0.9c-1-0.1-2.8-1.9-3.8-1.6c1.6-0.6,1.4-1.1,3.8-0.6
			C180.7,121.2,181.6,122.2,182.4,123.8z"/>
		<path class="st8" d="M178.2,144.5c-0.1-0.5-0.3-0.9-0.5-1.4c-1.2,0.4-2.8,1.2-2.9,3.1c0,0.8,0.2,1.4,0.7,1.8
			C177.2,147.9,178.8,146.7,178.2,144.5z"/>
		<path class="st6" d="M179.6,143c0,0-4,0.2-4.1,3.1c-0.2,3,4.2,2.7,4.2,2.7l5.4-1.3c0,0,0.7-0.3,3.7,0.1c3,0.4,5.4-5,1.5-6.2
			C186.3,140.2,179.6,143,179.6,143z"/>
		<path class="st7" d="M176.1,147.8c4.6,0.8,6.1-0.6,7.5-0.9c1.8-0.4,5.1,1.2,6.9,0.3c-2.6,1.7-2.3,2.3-6.4,2.9
			C179.5,150.8,177.6,149.8,176.1,147.8z"/>
		<path class="st6" d="M173.8,127.2c0,0,1.6-2.6-0.9-3.4s-4.2,2-4.2,2l-1.3,3.8c0,0-0.1,0.5-1.7,2.3s2,4.6,4.8,2.4
			C173.3,132.1,173.8,127.2,173.8,127.2z"/>
		<path class="st8" d="M170.6,134.3c0.2-0.2,0.4-0.3,0.6-0.5c-0.9-0.7-2.7-1.6-4.6-0.6c-0.4,0.2-0.7,0.5-0.9,0.8
			c0.2,0.2,0.4,0.4,0.6,0.6c0.2-0.2,0.4-0.3,0.6-0.4C168.3,133.4,169.6,133.8,170.6,134.3z"/>
		<path class="st7" d="M171.2,123.8c-2.8,2.8-2.2,4.1-2.6,5c-0.4,1.3-3.4,3-3.3,4.4c-0.4-2.1-1-2,0.3-4.8
			C167,125.2,168.7,124.3,171.2,123.8z"/>
		<path class="st6" d="M189.8,132.3c0,0,2.6,1.6,3.4-0.9s-2.1-4.2-2.1-4.2l-3.8-1.2c0,0-0.5-0.1-2.3-1.7c-1.8-1.7-4.6,2.1-2.4,4.9
			C184.9,131.8,189.8,132.3,189.8,132.3z"/>
		<path class="st7" d="M193.2,129.6c-2.8-2.8-4.1-2.2-5-2.5c-1.3-0.4-3-3.4-4.4-3.3c2.1-0.4,2-1,4.8,0.3
			C191.7,125.5,192.7,127.1,193.2,129.6z"/>
		<path class="st6" d="M189.3,141.6c0,0-0.5,3,2.2,2.8s3.1-3.5,3.1-3.5l-0.3-4c0,0-0.1-0.5,0.7-2.8s-3.7-3.5-5.4-0.3
			C187.8,136.8,189.3,141.6,189.3,141.6z"/>
		<g>
			<path class="st8" d="M192.2,144.1c0.2-0.1,0.4-0.2,0.6-0.3c0-1.2-0.6-2.2-2.2-2.7c-0.5-0.1-1-0.2-1.6-0.3c0,0.1,0.1,0.3,0.1,0.4
				c0.3,0,0.7,0.1,1,0.2C191.7,141.9,192.3,143,192.2,144.1z"/>
		</g>
		<path class="st7" d="M193.1,143.6c1.5-3.6,0.5-4.6,0.4-5.6c-0.1-1.3,2-4.1,1.4-5.3c1.2,1.8,1.7,1.4,1.6,4.5
			C196.3,140.7,195.2,142.2,193.1,143.6z"/>
		<path class="st6" d="M177.1,139l3.1,1.9c0,0-2.5,0.8-3,2.1c-0.5,1.2-9.2-2.5-6.3-10c1-0.5,2.4,1.7,2.5,1.7
			C173.5,134.8,177.1,139,177.1,139z"/>
		<g>
			<path class="st8" d="M172.4,133.6c-0.4-0.5-0.9-0.9-1.5-0.6C171.3,132.7,171.9,133.1,172.4,133.6z"/>
			<path class="st8" d="M170.9,133c-3.8,8.8,5,12.1,5.7,10.6c0.1-0.1,0.2-0.3,0.3-0.4C175.2,143.5,168.2,139.9,170.9,133z"/>
			<path class="st8" d="M177.3,142.6c1.1-1,2.7-1.6,2.7-1.6l-0.1-0.1C179.4,141.2,178,141.8,177.3,142.6z"/>
		</g>
		<polygon class="st6" points="175.3,131.3 172.6,129.8 171.3,130.5 171.5,131.9 173,134.3 174.1,135.5 176.1,138 178.5,137.3 
			179.1,135.6 		"/>
		<polygon class="st6" points="188.1,136.2 185.8,137 182.1,138.8 180.4,140.4 180.3,141.6 182,141.7 183.4,142 186.9,141.8 
			188.2,141.1 189.4,140.1 189.9,138.9 190,137.6 189.1,136.2 		"/>
		<path class="st8" d="M188,136.7c-4.6,2.3-5.1,5-5.1,5l-2.5-0.3c0,0-4.7-4.9-7-6.8c0.7-1,1.6-1,0.6-5.6
			C173.4,126.6,192.5,134.4,188,136.7z"/>
		<path class="st6" d="M185.9,128.3l2.7,0.8l2.7,2c0,0,0.7,1,0.6,1.1c0,0.1-0.3,1.1-0.4,1.2c-0.1,0.1-1.2,1.2-1.2,1.2l-1,0.7
			l-2.1,0.7l-1.3,0.3l-2.6-0.5l-1.7-0.6l1.4-2L185.9,128.3z"/>
		<path class="st6" d="M178.6,133.9c0,0-4.2-4.2-3.6-6.7s5-1.9,7.8-0.8c2.8,1.1,4,2.3,4,4.1c0,1.9-6.4,3-6.4,3L178.6,133.9z"/>
		<path class="st8" d="M177.5,140.5l-2.1-0.1c0,0-0.7,0.4-1.7,1.6c-1.1,1.1,6.6,8.1,12.7,1.3c0.1-1.3-2.4-1.3-2.5-1.4
			C183.7,141.8,177.5,140.5,177.5,140.5z"/>
		<path class="st6" d="M177.7,140.9l-1.9-0.1c0,0-0.7,0.2-1.6,1.2c-0.9,1,6,7.4,11.7,1.7c0-1.1-2.5-1.5-2.6-1.6
			C183.2,142,177.7,140.9,177.7,140.9z"/>
		<path class="st9" d="M183.7,130.4c0,0,0.6-0.1,0.5-1c0-0.9-1.9-1.6-3.6-1.7c-1.7-0.1-2.1,0.4-2.2,1.1c-0.3,1.2,1.5,2.4,1.5,2.4
			L183.7,130.4z"/>
		<path class="st8" d="M180.4,129.4c1.1,0.8,2.7,1.2,3.2,1c-1.8,1.1-1.7,1.6-1.7,1.6l-2.1-0.8C179.8,131.3,180.5,130.6,180.4,129.4z
			"/>
		<path class="st8" d="M184.9,132.6c-1.8,1.2-2.7,2.8-2.7,2.8l-2.6,1.1l-1.2-2.8c0,0,0.1-2.6-0.3-3.3c-0.5-0.7,1.9,1.7,1.9,1.7
			S184.1,132.2,184.9,132.6z"/>
		<path class="st7" d="M186.8,130.5c0.6,1.2-1.2,3-1.7,3.2c-0.2-0.5-1.4-0.7-1.4-0.7l-0.4,0.5L183,133l-0.2,0.4c0,0-2.5-0.1-4.8-2.2
			c0.3-0.5,0.3-0.5,0.3-0.5l-0.4,0.3c0,0-0.8-1.4-0.2-2.2c0.6-0.8,2-1.9,2.9-0.9c-1.4,0.4-2.1,1.5-1.8,2c0.4,0.7,0.1,1.3,3.1,2.1
			C184.9,132.6,186.6,131.2,186.8,130.5z"/>
		<path class="st7" d="M186.6,129.4c-0.5-0.7-0.5-2.4-4.8-4.6c-4.4-2.1-7-0.6-7-0.6l0.5,0.8l-0.9-0.5c0,0-1.1,0.5-1.2,2.2
			s1.5,6.1,1.6,6.1s1.2-0.5,1.2-0.5l-1,1.6c0,0,5.1,1.6,6.2,7.1c0.3-3.2-1.3-7-3.3-8.9c-2-1.8-3.7-4.8-1.1-6.3
			C179.3,124.6,184.9,126.8,186.6,129.4z"/>
		<path class="st7" d="M186.2,128.6c3.1,1.1,5.8,2.5,4.8,4.5c-1.3,2.4-5.8,3.1-8.6,2.1c-2.8-1-3.8-0.1-4.2,0.1
			c2.4-0.6,7.1,1.9,7.7,2.4c0.6,0.4,1-1.2,1-1.2s0.7,0.6,0.1,1.7c2-0.1,2.8-0.9,3.2-1.5c0.5-0.2,0.2-1,0.2-1l0.7,0.3
			c0,0,2-0.7,1.9-2.7c-0.1-1.9-1.1-4.8-7-5.2L186.2,128.6z"/>
		<path class="st7" d="M175.9,140.8c3.9-1.3,8,2.9,12.6-0.4c1.6-1.7,1-3.2,1-3.2l0.4-0.3c0,0,0.9,0.9,0.8,2.3s-0.5,3.6-1.1,3.7
			c-0.6,0.1-0.7-0.9-0.7-0.9s-0.4,0.2,0.2,1c-3,1.8-6.6,1.2-6.9,0.7s-0.5-1.6-0.5-1.6s-0.2,0.2-0.3,1.2
			C181.4,144.2,178.2,140.9,175.9,140.8z"/>
		<path class="st7" d="M173.5,129.5l0.5,1.7c0,0-0.9-1.3-1.9-0.5c-2.3,2.1,7.2,8.1,7.7,10.1c-3.8-2.6-5-1.8-6.3-4
			c0.5-0.5,0.3-1.3,0.3-1.3s-0.2,0.3-0.8,0.5c-4.1-2.3-3-6.2-3.8-7.1c0.6-0.8,2,0.1,2,0.1s-0.1-0.5-1.4-1.2
			C172.1,127.6,173.5,129.5,173.5,129.5z"/>
	</g>
</g>
<path id="Text_Background" class="rpl10-1" d="M182.3,161.4c0,0-23,7.7-49.1,7.7s-49.1-7.7-49.1-7.7V140h98.2V161.4z"/>
<g>
	<path class="st8" d="M157,163.8c-0.1,0-0.3,0.1-0.3,0.3c0,1-0.8,1.9-1.9,1.9c-0.8,0-1.4-0.6-1.4-1.4c0-0.6,0.5-1.1,1.1-1.1
		c0.5,0,0.8,0.4,0.8,0.8c0,0.3-0.3,0.6-0.6,0.6c-0.1,0-0.3,0.1-0.3,0.3c0,0.1,0.1,0.3,0.3,0.3c0.6,0,1.1-0.5,1.1-1.1
		c0-0.7-0.6-1.3-1.3-1.3c-0.8,0-1.5,0.6-1.6,1.5c-0.2-1.1-1.1-2.1-2.3-2.2c-1.8-0.3-3.5,1-3.8,2.8c0,0,0,0,0,0
		c-0.3,1.4-1.5,2.4-3,2.4c-1.3,0-2.4-1.1-2.4-2.4c0-1,0.8-1.9,1.9-1.9c0.8,0,1.4,0.6,1.4,1.4c0,0.5-0.4,0.9-0.8,1.1
		c-0.1-0.1-0.2-0.2-0.3-0.2c-0.2,0-0.4,0.2-0.4,0.4c0,0.2,0.2,0.4,0.4,0.4c0,0,0,0,0,0c0,0,0,0,0,0c0.9,0,1.6-0.7,1.6-1.6
		c0-1.1-0.9-2-2-2c-1.3,0-2.4,1.1-2.4,2.4c0,0,0,0.1,0,0.1c-0.2-1.7-1.7-3-3.5-3c-2.4,0-4.3,1.9-4.3,4.3c0,0.1,0.1,0.3,0.3,0.3
		s0.3-0.1,0.3-0.3c0-2.1,1.7-3.8,3.8-3.8c1.6,0,3,1.3,3,3c0,1.3-1,2.3-2.3,2.3c-1,0-1.8-0.8-1.8-1.8c0-0.8,0.6-1.4,1.4-1.4
		c0.4,0,0.7,0.2,0.9,0.5c-0.3,0.1-0.4,0.3-0.4,0.5c0,0.3,0.3,0.6,0.6,0.6s0.6-0.3,0.6-0.6c0,0,0,0,0,0c0-0.9-0.7-1.5-1.6-1.5
		c-1.1,0-1.9,0.9-1.9,1.9c0,1.3,1.1,2.3,2.3,2.3c1.6,0,2.9-1.3,2.9-2.9c0-0.1,0-0.1,0-0.2c0.2,1.4,1.4,2.5,2.9,2.5
		c1.7,0,3.2-1.2,3.5-2.9c0,0,0,0,0,0c0.1-0.7,0.5-1.4,1.1-1.8c0.6-0.4,1.3-0.6,2.1-0.5c1.2,0.2,2,1.3,1.8,2.5
		c-0.1,0.9-1,1.6-1.9,1.4c-0.6-0.1-1-0.6-1.1-1.1c0.2,0,0.4-0.2,0.4-0.4c0-0.2-0.2-0.4-0.4-0.4c-0.2,0-0.4,0.2-0.4,0.4c0,0,0,0,0,0
		c-0.1,1,0.6,1.9,1.5,2.1c0.1,0,0.2,0,0.3,0c1.1,0,2.1-0.8,2.2-1.9c0-0.1,0-0.2,0-0.3c0.2,0.9,1,1.5,1.9,1.5c1.3,0,2.4-1.1,2.4-2.4
		C157.3,163.9,157.1,163.8,157,163.8z"/>
	<path class="st8" d="M128.9,162c-1.8,0-3.2,1.3-3.5,3c0,0,0-0.1,0-0.1c0-1.3-1.1-2.4-2.4-2.4c-1.1,0-2,0.9-2,2
		c0,0.9,0.7,1.6,1.6,1.6c0,0,0,0,0,0c0,0,0,0,0,0c0.2,0,0.4-0.2,0.4-0.4c0-0.2-0.2-0.4-0.4-0.4c-0.1,0-0.3,0.1-0.3,0.2
		c-0.5-0.1-0.8-0.5-0.8-1.1c0-0.8,0.6-1.4,1.4-1.4c1,0,1.9,0.8,1.9,1.9c0,1.3-1.1,2.4-2.4,2.4c-1.5,0-2.7-1-3-2.4c0,0,0,0,0,0
		c-0.3-1.8-1.9-3.1-3.8-2.8c-1.2,0.2-2.1,1.1-2.3,2.2c-0.1-0.8-0.8-1.5-1.6-1.5c-0.7,0-1.3,0.6-1.3,1.3c0,0.6,0.5,1.1,1.1,1.1
		c0.1,0,0.3-0.1,0.3-0.3c0-0.1-0.1-0.3-0.3-0.3c-0.3,0-0.6-0.3-0.6-0.6c0-0.5,0.4-0.8,0.8-0.8c0.6,0,1.1,0.5,1.1,1.1
		c0,0.8-0.6,1.4-1.4,1.4c-1,0-1.9-0.8-1.9-1.9c0-0.1-0.1-0.3-0.3-0.3c-0.1,0-0.3,0.1-0.3,0.3c0,1.3,1.1,2.4,2.4,2.4
		c0.9,0,1.7-0.7,1.9-1.5c0,0.1,0,0.2,0,0.3c0.2,1.1,1.1,1.9,2.2,1.9c0.1,0,0.2,0,0.3,0c1-0.1,1.7-1.1,1.5-2.1c0,0,0,0,0,0
		c0-0.2-0.2-0.4-0.4-0.4c-0.2,0-0.4,0.2-0.4,0.4c0,0.2,0.2,0.4,0.4,0.4c-0.1,0.6-0.5,1-1.1,1.1c-0.9,0.1-1.8-0.5-1.9-1.4
		c-0.2-1.2,0.7-2.3,1.8-2.5c0.7-0.1,1.5,0.1,2.1,0.5c0.6,0.4,1,1.1,1.1,1.8c0,0,0,0,0,0c0.3,1.6,1.8,2.9,3.5,2.9
		c1.5,0,2.7-1.1,2.9-2.5c0,0.1,0,0.1,0,0.2c0,1.6,1.3,2.9,2.9,2.9c1.3,0,2.3-1.1,2.3-2.3c0-1.1-0.9-1.9-1.9-1.9
		c-0.9,0-1.6,0.7-1.6,1.5c0,0,0,0,0,0c0,0.3,0.3,0.6,0.6,0.6c0.3,0,0.6-0.3,0.6-0.6c0-0.3-0.2-0.5-0.4-0.5c0.2-0.3,0.5-0.5,0.9-0.5
		c0.8,0,1.4,0.6,1.4,1.4c0,1-0.8,1.8-1.8,1.8c-1.3,0-2.3-1-2.3-2.3c0-1.6,1.3-3,3-3c2.1,0,3.8,1.7,3.8,3.8c0,0.1,0.1,0.3,0.3,0.3
		c0.1,0,0.3-0.1,0.3-0.3C133.2,164,131.3,162,128.9,162z"/>
</g>
<text id="text1" transform="matrix(1 0 0 1 135.2947 148.8203)" class="st11 st12 st13 editable">Happy birthday!</text>
<text id="text2" transform="matrix(1 0 0 1 135.4534 158.4599)" class="st11 st12 st13 editable">My friend.</text>
<path id="AlpStories_LOGO" d="M137,22.6c0-0.1,0.1-0.2,0.2-0.2h2.4c0.1,0,0.2,0.1,0.2,0.2v2c0,0.1-0.1,0.2-0.2,0.2h-2.4
	c-0.1,0-0.2-0.1-0.2-0.2V22.6z M136.4,22.5v2.2c0,0.4,0.3,0.6,0.7,0.6h2.7c0.4,0,0.7-0.2,0.7-0.6v-2.2c0-0.4-0.3-0.6-0.7-0.6H137
	C136.6,22,136.4,22.1,136.4,22.5 M131.5,22v0.4c0,0,0,0,0,0h1.5c0,0,0,0,0,0v2.8c0,0,0,0,0,0h0.5c0,0,0,0,0,0v-2.8c0,0,0,0,0,0h1.5
	c0,0,0,0,0,0V22c0,0,0,0,0,0L131.5,22C131.5,22,131.5,22,131.5,22 M125.8,24.6v0.2c0,0.4,0.3,0.6,0.7,0.6h1h1.9
	c0.4,0,0.7-0.2,0.7-0.6v-1.2c0-0.4-0.3-0.6-0.7-0.6h-2.6c-0.1,0-0.2-0.1-0.2-0.2V22c0-0.1,0.1-0.2,0.2-0.2h2.4
	c0.1,0,0.2,0.1,0.2,0.2v0.1c0,0,0,0.1,0.1,0.1l0.5-0.1c0,0,0.1,0,0.1-0.1v-0.1c0-0.4-0.3-0.6-0.7-0.6h-2.6c-0.4,0-0.7,0.2-0.7,0.6
	v1.1c0,0.4,0.3,0.6,0.7,0.6h2.6c0.1,0,0.2,0.1,0.2,0.2v1c0,0.1-0.1,0.2-0.2,0.2h-2.7c-0.1,0-0.2-0.1-0.2-0.2v-0.1c0,0,0-0.1-0.1-0.1
	L125.8,24.6C125.9,24.5,125.8,24.5,125.8,24.6 M114.8,25.4C114.9,25.4,114.9,25.3,114.8,25.4l-2.2-4c0,0,0,0-0.1,0h-0.7
	c0,0,0,0-0.1,0l-2.2,4c0,0,0,0,0,0h0.6c0,0,0,0,0.1,0l1.9-3.5c0,0,0,0,0,0c0,0,0,0,0,0h0l1.1,2l-1.7,0c-0.2,0-0.3,0.1-0.3,0.2v0.1
	c0,0.1,0.1,0.2,0.3,0.2l2,0l0.5,1c0,0,0,0,0.1,0H114.8z M119.4,25.3v-0.4c0,0,0,0,0,0h-2.5c0,0,0,0,0,0V22c0,0,0,0,0,0h-0.5
	c0,0,0,0,0,0v3.3c0,0,0,0.1,0.1,0.1L119.4,25.3C119.4,25.4,119.4,25.3,119.4,25.3 M124.3,23.4v-0.9c0-0.4-0.3-0.6-0.7-0.6h-2.8
	c0,0-0.1,0-0.1,0.1v3.3c0,0,0,0,0,0l0.5,0c0,0,0,0,0,0v-2.8c0,0,0,0,0,0h2.1c0.1,0,0.2,0.1,0.2,0.2v0.7c0,0.1-0.1,0.2-0.2,0.2
	l-1.5,0c-0.2,0-0.3,0.1-0.3,0.2v0c0,0.1,0.1,0.2,0.3,0.2l1.7,0C124,24,124.3,23.8,124.3,23.4 M135.1,14.2c0,0-2.2-4.6-2.2-4.6
	c-0.2-0.3-0.4-0.6-0.8-0.6c-0.4,0-0.7,0.1-0.9,0.4c0,0-5.9,8.3-5.9,8.3c-0.1,0.2-0.2,0.4-0.1,0.5c0.1,0.1,0.3,0,0.4-0.2
	c0,0,5.7-7.2,5.7-7.2c0.2-0.2,0.4-0.4,0.6-0.4c0.2,0,0.4,0.2,0.5,0.5c0,0,1.6,3.7,1.6,3.7c0.1,0.3,0.5,0.5,0.7,0.4
	C135.2,14.9,135.3,14.5,135.1,14.2 M141.9,15.7c0.1-0.3,0-0.7-0.2-1c0,0-3.6-4.3-3.6-4.3c-0.1-0.1-0.2-0.3-0.1-0.4
	c0.1-0.2,0.2-0.3,0.4-0.3l2.8-0.5c0.1,0,0.3-0.1,0.2-0.2c0-0.1-0.1-0.2-0.3-0.2L137.3,9c-0.4,0-0.7,0.2-0.8,0.5
	c-0.1,0.3,0,0.6,0.2,0.8c0,0,3.7,4.2,3.7,4.2c0.1,0.2,0.2,0.4,0.1,0.6c-0.1,0.2-0.2,0.3-0.4,0.3c0,0-9.1,2.2-9.1,2.2
	c-0.2,0.1-0.4,0.2-0.4,0.3c0,0.1,0.2,0.2,0.5,0.1c0,0,10.1-1.8,10.1-1.8C141.5,16.2,141.8,16,141.9,15.7 M145.9,25.3
	c0,0,0-0.1,0-0.2c0,0-0.8-0.7-1.2-1.2l0.3,0c0.4,0,0.7-0.2,0.7-0.6v-0.9c0-0.4-0.3-0.6-0.7-0.6h-2.7c0,0-0.1,0-0.1,0.1v3.3
	c0,0,0,0,0,0l0.5,0c0,0,0,0,0,0v-2.8c0,0,0,0,0,0h1.9c0.1,0,0.2,0.1,0.2,0.2v0.7c0,0.1-0.1,0.2-0.2,0.2l-1.4,0
	c-0.2,0-0.3,0.1-0.3,0.2v0c0,0.1,0.1,0.2,0.3,0.2l0.6,0l1.3,1.3c0,0,0.1,0,0.1,0L145.9,25.3C145.9,25.4,145.9,25.3,145.9,25.3
	 M148.1,25.3V22c0,0,0,0,0,0h-0.5c0,0,0,0,0,0v3.3c0,0,0,0,0,0L148.1,25.3C148.1,25.4,148.1,25.3,148.1,25.3 M153.4,25.3v-0.4
	c0,0,0,0,0,0h-2.8c0,0,0,0,0,0v-1l1.3,0c0.2,0,0.3-0.1,0.3-0.2v0c0-0.1-0.1-0.2-0.3-0.2l-1.3,0v-0.8c0,0,0,0,0,0h2.7c0,0,0,0,0,0V22
	c0,0,0,0,0,0H150c0,0-0.1,0-0.1,0.1v3.3c0,0,0,0.1,0.1,0.1L153.4,25.3C153.4,25.4,153.4,25.3,153.4,25.3 M155.3,23.2v-0.5
	c0-0.1,0.1-0.2,0.2-0.2h2c0.1,0,0.2,0.1,0.2,0.2v0.1c0,0,0,0.1,0.1,0.1l0.4-0.1c0,0,0.1,0,0.1-0.1v-0.1c0-0.4-0.3-0.6-0.7-0.6h-2.1
	c-0.4,0-0.7,0.2-0.7,0.6v0.7c0,0.4,0.3,0.6,0.7,0.6h2.2c0.1,0,0.2,0.1,0.2,0.2v0.7c0,0.1-0.1,0.2-0.2,0.2h-2.2
	c-0.1,0-0.2-0.1-0.2-0.2v-0.2c0,0,0-0.1-0.1-0.1l-0.4,0.1c0,0-0.1,0-0.1,0.1v0.2c0,0.4,0.3,0.6,0.7,0.6h0.7h1.6
	c0.4,0,0.7-0.2,0.7-0.6v-0.9c0-0.4-0.3-0.6-0.7-0.6h-2.2C155.4,23.3,155.3,23.3,155.3,23.2"/>
<rect id="text_background_left" class="svgRibbon" width="56.7" height="170.1"/>
<rect id="text_background_right" x="215.4" class="svgRibbon" width="56.7" height="170.1"/>
<rect id="Button_Stripe" y="170.1" class="rpl15-1" width="272.1" height="14.2"/>
<text id="product" transform="matrix(1 0 0 1 134.1599 179.5623)" class="st11 st12 st16 svgProduct">Product name</text>
<text id="quantity" transform="matrix(1 0 0 1 6.4882 179.7678)" class="st11 st12 st17">220 ml</text>
<g>
	
		<image style="overflow:visible;" width="28" height="28" id="Icon1" class="st18" transform="matrix(0.3165 0 0 0.3165 258.8356 172.7338)">
	</image>
	
		<image style="overflow:visible;" width="28" height="28" id="Icon2" class="st18" transform="matrix(0.3165 0 0 0.3165 247.7487 172.7338)">
	</image>
	
		<image style="overflow:visible;" width="28" height="28" id="Icon3" class="st18" transform="matrix(0.3165 0 0 0.3165 236.6617 172.7338)">
	</image>
	
		<image style="overflow:visible;" width="28" height="28" id="Icon4" class="st18" transform="matrix(0.3165 0 0 0.3165 214.4878 172.7338)">
	</image>
	
		<image style="overflow:visible;" width="28" height="28" id="Icon5" class="st18" transform="matrix(0.3165 0 0 0.3165 225.5748 172.7338)">
	</image>
</g>
</svg>
