<?xml version="1.0" encoding="utf-8"?>
<svg version="1.1" id="Layer_1"  data-color-numbers="3" xmlns="http://www.w3.org/2000/svg" xmlns:xlink="http://www.w3.org/1999/xlink" x="0px" y="0px"
	 viewBox="0 0 283.5 255.1" style="enable-background:new 0 0 283.5 255.1;" xml:space="preserve">
<style type="text/css">
  <![CDATA[
  @font-face {
        font-family: "DevroyeUnicode";
        src: url("/Content/fonts/DEVROYUN.ttf") format("truetype");
  }
	.rpl0-1{fill:#726658;}
  .rpl0-2{fill:#8b4324;}
  .rpl0-3{fill:#759d59;}
	.st1{fill:#C2B59B;}
  .rpl1-1{fill:#C2B59B;}
  .rpl1-2{fill:#642d10;}
  .rpl1-3{fill:#608a46;}
	.rpl2-1{fill:#F15A29;}
  .rpl2-2{fill:#24420e;}
  .rpl2-3{fill:#716552;}
	.rpl3-1{fill:#F7941E;}
  .rpl3-2{fill:#285538;}
  .rpl3-3{fill:#8c8272;}
	.st4{fill:#FFFFFF;}
	.st5{font-family:'DevroyeUnicode';}
	.st6{font-size:9.2328px;}
	.st7{fill:#3C2415;}
	.rpl9-1{fill:#2E5100;}
  .rpl9-2{fill:#e68a1b;}
  .rpl9-3{fill:#6b4b2c;}
	.st10{font-size:8.64px;}
	.st11{font-size:9.36px;}
  .st12{fill:#FFFFFF;}
  .editable{text-anchor: middle;}
  .svgProduct{text-anchor: middle;}
  .svgRibbon{visibility:hidden; opacity:0.6;fill:#FFFFFF;}
 ]]>
</style>
<image style="overflow:visible;" id="editableImg" width="781" height="790" xlink:href="/Content/img/cat-images-hilarious-gifs.jpg"  transform="matrix(0.2276 0 0 0.2276 55.799 40.5981)">
</image>
<path id="Background" class="rpl0-1" d="M283.5,0H0v254.9h283.5V0z M165,226h-45c-19,0-34.5-15.5-34.5-34.5V77.7
	c0-19,15.5-34.5,34.5-34.5h45c19,0,34.5,15.5,34.5,34.5v113.8C199.6,210.4,184,226,165,226z"/>
<g id="Pattern" class="rpl1-1">
	<path d="M208,35.8c4.8,2.3,8-0.8,8-0.8s3.1-2.5,4-6.3c0.9-3.8-2.4-6.7-2.4-6.7s-1.4-1.3-3.2-2.2
		c-2.1-1.1-3.8-1.8-5.2-2.3l0.1-0.1c0-0.1-0.1-0.2-0.2-0.3l-13.3-7c-0.2-0.1-0.3-0.1-0.3,0l-0.1,0.1c-1.1-0.9-2.7-1.8-4.8-2.9
		c-1.8-0.9-3.7-1.4-3.7-1.4s-4.3-1.1-6.9,1.8c-2.6,2.9-2.9,6.9-2.9,6.9s-0.7,4.5,3.9,7c4.7,2.6,10.1,0.1,10.1,0.1s4.6-2.2,6.1-3.9
		c0.4-0.4,0.7-0.9,0.9-1.3c0.8-0.7,2-0.9,2.9-0.4c0,0,0,0,0,0c0.7,0.4,1.5,1.3,1.3,2.6c-0.2,0.4-0.4,0.9-0.5,1.5
		c-0.5,2.2,0.3,7.2,0.3,7.2S203.2,33.4,208,35.8z M202.8,18.2c-0.1-1-0.7-1.8-1.6-2.3c0,0,0,0,0,0c-0.9-0.5-2-0.5-2.9,0
		c0.2-0.8,0-1.6-0.3-2.4c-0.2-0.5-0.6-1.2-1.4-1.9l10.6,5.5c-1-0.2-1.8-0.2-2.4,0C204.2,17.2,203.4,17.5,202.8,18.2z"/>
	<path d="M281,210.9c0-0.1-0.2-0.1-0.3,0l-13.4,6.8c-0.2,0.1-0.3,0.2-0.2,0.3l0,0.1c-1.4,0.4-3.1,1.1-5.2,2.2
		c-1.8,0.9-3.2,2.2-3.2,2.2s-3.4,2.8-2.5,6.6c0.9,3.8,3.9,6.3,3.9,6.3s3.2,3.2,8,0.9c4.8-2.3,5.9-8.1,5.9-8.1s0.9-5,0.4-7.2
		c-0.1-0.6-0.3-1.1-0.5-1.5c-0.1-1.1,0.4-2.1,1.4-2.6c0,0,0,0,0,0c0.7-0.4,1.9-0.5,2.9,0.4c0.2,0.4,0.5,0.9,0.9,1.3
		c0.9,1,2.9,2.2,4.4,3.1v-12.2C282.5,210,281.7,210.5,281,210.9L281,210.9z M278.2,214.1c-0.3,0.8-0.5,1.6-0.3,2.4
		c-0.9-0.5-1.9-0.5-2.8-0.1c0,0,0,0,0,0c-0.9,0.5-1.5,1.3-1.7,2.3c-0.6-0.7-1.3-1-2.1-1.2c-0.6-0.1-1.3-0.2-2.4,0l10.6-5.4
		C278.8,213,278.4,213.6,278.2,214.1z"/>
	<path d="M5.6,35.8c0,0,0.9-5,0.4-7.2c-0.1-0.6-0.3-1.1-0.5-1.5C5.4,26,5.9,25,6.9,24.5c0,0,0,0,0,0
		c0.7-0.4,1.9-0.5,2.9,0.4c0.2,0.4,0.5,0.9,0.9,1.3c1.5,1.7,6.1,3.9,6.1,3.9s5.4,2.6,10.1,0.1c4.7-2.5,4-7,4-7s-0.2-4-2.8-6.9
		c-2.5-2.9-6.8-1.9-6.8-1.9s-1.9,0.4-3.7,1.3c-2.1,1.1-3.7,2-4.9,2.9l0-0.1c0-0.1-0.2-0.1-0.3,0L0,24.7v19
		C4.5,41.3,5.6,35.8,5.6,35.8z M0.5,25.2l10.6-5.4c-0.7,0.7-1.2,1.4-1.4,1.9c-0.3,0.8-0.5,1.6-0.3,2.4c-0.9-0.5-1.9-0.5-2.8-0.1
		c0,0,0,0,0,0c-0.9,0.5-1.5,1.3-1.7,2.3c-0.6-0.7-1.3-1-2.1-1.2C2.3,25.1,1.6,25,0.5,25.2z"/>
	<path d="M67.8,150.5c-2-1.2-3.7-2.1-5-2.6l0.1-0.1c0-0.1,0-0.2-0.2-0.3l-12.9-7.8c-0.1-0.1-0.3-0.1-0.3,0l-0.1,0.1
		c-1.1-0.9-2.6-2-4.6-3.2c-1.8-1.1-3.6-1.6-3.6-1.6s-4.2-1.3-7,1.4c-2.7,2.7-3.3,6.7-3.3,6.7s-1,4.4,3.5,7.3c4.5,2.9,10,0.7,10,0.7
		s4.7-1.9,6.3-3.5c0.4-0.4,0.7-0.8,1-1.2c0.9-0.7,2-0.7,2.9-0.2c0,0,0,0,0,0c0.7,0.4,1.4,1.4,1.2,2.6c-0.3,0.4-0.5,0.9-0.6,1.4
		c-0.6,2.2-0.1,7.2-0.1,7.2s0.7,5.9,5.3,8.5c4.6,2.6,8.1-0.3,8.1-0.3s3.3-2.3,4.4-6c1.1-3.7-2-6.8-2-6.8S69.6,151.5,67.8,150.5z
		 M58.6,147.1c-0.8,0.1-1.6,0.4-2.2,1c0-1-0.6-1.9-1.4-2.4c0,0,0,0,0,0c-0.9-0.5-1.9-0.6-2.9-0.2c0.2-0.8,0.2-1.6-0.1-2.4
		c-0.2-0.6-0.6-1.2-1.2-2l10.2,6.2C59.9,147.1,59.2,147,58.6,147.1z"/>
	<path d="M18.7,81.7c-0.5-1.2-0.9-2.5-3.2-2.8c-0.7-0.1-1.9,0.3-3.6,1C7.4,71.2,3.1,66.7,0,66.7v11.4
		c0.5,0.4,0.9,0.6,0.9,0.6S0.5,78.6,0,78.3v21.6C18.7,94.2,19.2,82.9,18.7,81.7z"/>
	<path d="M2,105.4c0.8,1.7,2.8,3.5,3.9,4c1.1,0.5,2.5,0.9,4.2,0.4c1.6-0.5,2.1-0.6,3-0.9c0.9-0.3,2-1,2.5-1.8
		c0.5-0.8,0.6-2.8,0.3-4.5c-0.2-1.7-0.4-2.2-0.3-2.6c0.2-0.4,0.5-0.6,0.5-0.6l-0.5-1.8c0,0-3.2-0.2-4.6,0.2c-1.4,0.4-3.7,1-4.9,1.4
		c-1.2,0.4-3.8,2.2-5.1,2.6c-0.5,0.1-0.8,0.2-1,0.3v2.7c0.3-0.1,0.5-0.1,0.8-0.2C1.2,104.3,1.6,104.6,2,105.4z M3,101.9
		c0.8-1,3.4-2.3,4.1-2.6c0.7-0.2,2.3-0.7,2.9-0.8c0.6-0.2,1.9-0.1,2,0c0.1,0.1,2.2,0.5,2.5,1.9c0.3,1.4,0.6,3.8,0.6,3.8
		s0.7,2.1-1.4,3.5c-2,1.4-4.2,1.6-5.3,1.5c-1.1-0.1-4.1-0.6-5.8-4.5C2.5,103.7,2.2,102.9,3,101.9z"/>
	<path d="M7.4,129.5c2.4-0.5,4.5-3.1,5.7-4.4c1.2-1.3,3.6-5.4,4.2-7.9c0.5-2.5-0.3-6.2-0.3-6.2s0.4,3.2-0.4,5.9
		c-0.8,2.7-4,6.9-5.4,7.2c-1.3,0.3-3.7-1.2-5.5-0.6c-1.8,0.5-3.1,3-4.4,3.5c-0.3,0.1-0.7,0.1-1.3,0v1.7c0.1,0,0.2,0,0.2,0.1
		C1.9,129.2,5.1,130.4,7.4,129.5z"/>
	<path d="M267.9,140.3c-1.6-0.8-2.9-1.3-3.5-1.3c-2.3,0.2-2.9,1.4-3.5,2.5c-0.6,1.2-1.2,12.8,17.9,20.2
		c1.7,0.6,3.2,1.1,4.7,1.6v-25.8c-1.7,1.6-4.5,2.8-4.5,2.8s3-1.5,4.4-4.5c0.1-0.1,0.1-0.3,0.2-0.4v-4.1c0-0.1-0.1-0.1-0.1-0.1
		s0,0,0.1,0.1v-1.9c-0.6-0.4-1.4-0.8-2.3-1C278.1,127.8,273.3,131.9,267.9,140.3z"/>
	<path d="M278,163.6c0,0-0.2-0.1-1.4-0.6c-1.2-0.5-3.6-2.6-4.8-3c-1.2-0.5-3.4-1.3-4.7-1.8c-1.4-0.5-4.6-0.6-4.6-0.6
		l-0.7,1.8c0,0,0.3,0.3,0.5,0.7c0.1,0.4-0.1,0.9-0.5,2.6c-0.4,1.7-0.5,3.8-0.1,4.5c0.4,0.8,1.5,1.7,2.3,2c0.9,0.3,1.3,0.5,2.9,1.1
		c1.6,0.6,3,0.4,4.2,0c1.2-0.4,3.3-2,4.3-3.6c0.4-0.7,0.9-1,1.3-0.8c0.4,0.1,0.6,0.2,1,0.4c0.4,0.1,0.6,0.7,0.4,1.5
		c-0.4,1.9,0.1,4.5,0.7,5.6c0.6,1.1,1.5,2.2,3.1,2.9c0.8,0.3,1.3,0.5,1.7,0.7v-0.6c-1.2-0.4-2.1-1-2.6-1.5c-0.8-0.7-2.9-3-1.9-7.1
		c0.4-1,0.6-1.8,1.9-2.1c0.6-0.1,1.6-0.1,2.5,0v-0.7c-1.4-0.2-3.2-0.3-4-0.6C278.3,163.7,278,163.6,278,163.6z M274.6,165.9
		c-2,3.7-5,4-6.1,4c-1.1,0-3.3-0.4-5.1-2c-1.9-1.6-1-3.6-1-3.6s0.5-2.3,1-3.7c0.4-1.4,2.6-1.6,2.7-1.6c0.1-0.1,1.5,0,2,0.2
		c0.5,0.2,2.1,0.8,2.8,1.1c0.7,0.3,3.1,1.9,3.9,2.9C275.4,164.2,275,164.9,274.6,165.9z"/>
	<path d="M274,188.2c-1.2-0.6-2.2-3.2-4-3.8c-1.8-0.7-4.2,0.5-5.6,0.1c-1.3-0.4-4.1-4.9-4.7-7.7
		c-0.6-2.7,0.2-5.9,0.2-5.9s-1.2,3.6-0.9,6.1c0.3,2.5,2.4,6.8,3.4,8.2c1.1,1.4,2.9,4.2,5.2,4.9c2.2,1.1,5.5,0.2,7.2-0.1
		c1.7-0.3,6.1-2.1,8.1-3.7c0.2-0.1,0.3-0.3,0.5-0.4v-0.9c-0.3,0.2-0.5,0.5-0.8,0.7C280.4,187.3,275.3,188.8,274,188.2z"/>
	<path d="M231.8,89.6c19.2-6.9,18.9-18.6,18.4-19.8c-0.5-1.2-1.1-2.4-3.4-2.6c-0.7-0.1-1.9,0.4-3.6,1.2
		c-5.2-8.6-9.9-12.8-13-12.3c-3.7,0.7-4.7,4.1-5.9,4.5c-1.2,0.4-1.5-0.2-2.8,0.3c-1.3,0.4-1.1,1.1-2.3,1.5c-1.2,0.4-4.1-1.6-7.4,0.3
		c-2.8,1.6-3.7,7.8-2.2,17.7c-1.8,0.5-3,0.9-3.5,1.3c-1.6,1.6-1.3,2.9-1,4.2C205.4,87.3,212.6,96.5,231.8,89.6z M227.9,58.9
		c0,0-1.3,1.6,0,4.6c1.3,3,4.3,4.6,4.3,4.6s-5-2.1-5.5-4.6C226.1,60.9,227.9,58.9,227.9,58.9z M222.3,63.3c2.4-0.9,2.8-2.7,2.8-2.7
		c0,0.2,0.2,2.6-2.5,3.6c-2.7,1-4.1-1-4.2-1.2C218.5,63.1,220,64.2,222.3,63.3z M218.2,67c-1-3.2-3-3.6-3-3.6s2.7,0.5,3.9,2.7
		c1.2,2.2-1.3,7.1-1.3,7.1S219.1,70.1,218.2,67z"/>
	<path d="M232.8,94c0.4-0.1,0.6-0.2,1-0.4c0.4-0.1,0.8,0.1,1.2,0.9c0.9,1.7,3.1,3.3,4.2,3.7c1.2,0.4,2.6,0.7,4.2,0.1
		c1.6-0.6,2.1-0.7,2.9-1.1c0.9-0.3,1.9-1.2,2.4-1.9c0.4-0.8,0.4-2.9,0-4.5c-0.4-1.7-0.6-2.2-0.5-2.6c0.1-0.4,0.5-0.7,0.5-0.7
		l-0.7-1.8c0,0-3.2,0-4.6,0.5c-1.4,0.5-3.6,1.3-4.8,1.7c-1.2,0.4-3.7,2.5-4.9,2.9c-1.2,0.4-1.4,0.5-1.4,0.5s-0.2,0.1-1.4,0.5
		c-1.2,0.4-4.4,0.4-5.6,0.9c-1.2,0.4-3.4,1.2-4.8,1.7c-1.4,0.5-3.8,2.6-3.8,2.6l0.7,1.8c0,0,0.4,0,0.8,0.2c0.4,0.2,0.5,0.8,1.3,2.3
		c0.8,1.5,2.1,3.2,2.9,3.5c0.8,0.3,2.2,0.3,3.1,0c0.9-0.3,1.3-0.5,2.9-1.1c1.6-0.6,2.5-1.7,3.1-2.8c0.6-1.1,1.2-3.7,0.9-5.6
		C232.3,94.7,232.5,94.2,232.8,94z M235.9,91c0.8-1.1,3.2-2.6,3.9-2.8c0.7-0.3,2.3-0.8,2.8-1c0.5-0.2,1.9-0.2,2-0.2
		c0.1,0.1,2.2,0.3,2.6,1.7c0.4,1.4,0.9,3.7,0.9,3.7s0.8,2-1.1,3.6c-1.9,1.5-4.1,1.9-5.2,1.9c-1.1,0-4.1-0.4-6.1-4.1
		C235.5,92.8,235.1,92,235.9,91z M229.4,102.4c-0.8,0.7-2.8,1.8-5.2,1.9c-2.5,0-3.2-2.1-3.2-2.1s-1.1-2.1-1.7-3.4
		c-0.6-1.3,0.9-2.9,0.9-3c0-0.1,1.1-1,1.7-1.2c0.5-0.2,2.1-0.8,2.8-1c0.7-0.3,3.6-0.7,4.8-0.3c1.3,0.3,1.5,1.1,1.9,2.1
		C232.3,99.5,230.2,101.7,229.4,102.4z"/>
	<path d="M250.4,105.1c-0.7,2.7-3.5,7.2-4.9,7.5c-1.3,0.4-3.8-0.9-5.6-0.3c-1.8,0.6-2.9,3.2-4.1,3.7
		c-1.3,0.6-6.3-1-8.5-2.7c-2.2-1.7-3.7-4.5-3.7-4.5s1.5,3.5,3.4,5.2c1.9,1.7,6.3,3.6,8,3.9c1.7,0.4,5,1.3,7.2,0.3
		c2.3-0.6,4.3-3.4,5.4-4.8c1.1-1.4,3.3-5.6,3.6-8.1c0.4-2.5-0.7-6.1-0.7-6.1S251.1,102.4,250.4,105.1z"/>
	<path d="M244.6,51.4c4.9,2.6,12.1,0.2,12.1,0.2s4.9,5.8,10.5,6.1c5.5,0.3,7.5-4,7.5-4s-2.3,1.3-5.6-0.4
		c-3.2-1.7-2.1-5.6-4.7-7.4c-2.6-1.8-6.3,0.9-6.3,0.9s-1.8-4.2-4.9-4c-3.2,0.2-4.2,4.1-7.8,3.8c-3.7-0.2-5-2.6-5-2.6
		S239.7,48.8,244.6,51.4z"/>
	<path d="M68.4,187.1c-3.7,0-4.4-3.9-7.6-4.3c-3.1-0.4-5.2,3.7-5.2,3.7s-3.5-2.9-6.2-1.2c-2.7,1.6-1.8,5.6-5.1,7.1
		c-3.3,1.5-5.6,0.1-5.6,0.1s1.7,4.5,7.2,4.5c5.5,0,10.8-5.5,10.8-5.5s7.1,2.8,12.1,0.5c5-2.3,4.7-7.1,4.7-7.1S72.1,187.1,68.4,187.1
		z"/>
	<path d="M119.9,16.8c-3.3-1.5-2.4-5.5-5.1-7.1c-2.7-1.7-6.2,1.2-6.2,1.2s-2-4.1-5.1-3.7c-3.2,0.3-4,4.3-7.6,4.3
		c-3.7,0-5.1-2.3-5.1-2.3s-0.4,4.7,4.6,7.1c5,2.4,12.1-0.4,12.1-0.4s5.2,5.6,10.8,5.6c5.5,0,7.2-4.4,7.2-4.4S123.3,18.3,119.9,16.8z
		"/>
	<path d="M9.7,159c0,0,5.2,5.6,10.8,5.6c5.5,0,7.2-4.4,7.2-4.4s-2.3,1.4-5.6-0.1c-3.3-1.5-2.4-5.5-5.1-7.1
		c-2.7-1.7-6.2,1.2-6.2,1.2s-2-4.1-5.1-3.7c-2.5,0.3-3.5,2.8-5.7,3.8v6C4.6,161,9.7,159,9.7,159z"/>
	<path d="M83.9,22.7l-15.6-6.6c-1.3-0.5-2.8,0.1-3.3,1.4L48.8,55.6c-0.5,1.3,0.1,2.8,1.4,3.3l15.6,6.6
		c1.3,0.5,2.8-0.1,3.3-1.4L85.3,26C85.8,24.8,85.2,23.3,83.9,22.7z M73.4,20.8L73.4,20.8c0-0.1,0.2-0.2,0.3-0.1l3.6,1.5
		c0.1,0,0.1,0.2,0.1,0.3l0,0c0,0.1-0.2,0.1-0.3,0.1l-3.6-1.5C73.4,21,73.4,20.9,73.4,20.8z M69.7,19.2c0.1-0.2,0.4-0.3,0.6-0.2
		c0.2,0.1,0.3,0.4,0.2,0.6c-0.1,0.2-0.4,0.3-0.6,0.2C69.7,19.8,69.6,19.5,69.7,19.2z M62,60.1l-0.6,1.3c-0.2,0.6-0.9,0.9-1.5,0.6
		l-3.1-1.3c-0.6-0.2-0.9-0.9-0.6-1.5l0.6-1.3c0.2-0.6,0.9-0.9,1.5-0.6l3.1,1.3C62,58.8,62.2,59.5,62,60.1z M69.3,61.5l-18.7-7.9
		l14.2-33.5l18.7,7.9L69.3,61.5z"/>
	<path d="M61.3,58.8l-3.1-1.3c-0.5-0.2-1,0-1.2,0.5l-0.6,1.3c-0.2,0.5,0,1,0.5,1.2l3.1,1.3c0.5,0.2,1,0,1.2-0.5l0.6-1.3
		C62,59.5,61.7,59,61.3,58.8z"/>
	
		<rect x="49.2" y="31.1" transform="matrix(-0.3931 0.9195 -0.9195 -0.3931 130.98 -4.7638)" width="35.8" height="19.5"/>
	<path d="M228.8,152.3c-0.6-1.3-2.1-1.8-3.4-1.2l-15.2,7.4c-1.3,0.6-1.8,2.1-1.2,3.4l18.1,37.3c0.6,1.3,2.1,1.8,3.4,1.2
		l15.2-7.4c1.3-0.6,1.8-2.1,1.2-3.4L228.8,152.3z M217.2,157.5l3.5-1.7c0.1,0,0.2,0,0.3,0.1l0,0c0,0.1,0,0.2-0.1,0.3l-3.5,1.7
		c-0.1,0-0.2,0-0.3-0.1l0,0C217.1,157.7,217.1,157.6,217.2,157.5z M213.7,159c0.2-0.1,0.5,0,0.6,0.2c0.1,0.2,0,0.5-0.2,0.6
		c-0.2,0.1-0.5,0-0.6-0.2S213.4,159.1,213.7,159z M239.2,195.1l-3,1.5c-0.6,0.3-1.3,0-1.5-0.5l-0.6-1.3c-0.3-0.6,0-1.3,0.5-1.5
		l3-1.5c0.6-0.3,1.3,0,1.5,0.5l0.6,1.3C240,194.1,239.8,194.8,239.2,195.1z M226.8,196.6l-15.9-32.7l18.2-8.9l15.9,32.7L226.8,196.6
		z"/>
	<path d="M238.9,192.3c-0.2-0.4-0.7-0.6-1.2-0.4l-3,1.5c-0.4,0.2-0.6,0.7-0.4,1.2l0.6,1.3c0.2,0.4,0.7,0.6,1.2,0.4
		l3-1.5c0.4-0.2,0.6-0.7,0.4-1.2L238.9,192.3z"/>
	
		<rect x="210.1" y="166" transform="matrix(-0.4343 -0.9008 0.9008 -0.4343 168.6498 457.4735)" width="35.8" height="19.5"/>
	<path d="M260.1,8.7l18.1,37.3c0.6,1.3,2.1,1.8,3.4,1.2l1.8-0.9v-5.7l-5.6,2.7L262,10.6l18.2-8.9l3.2,6.6v-2L280.4,0
		h-8.3l-10.8,5.3C260,5.9,259.5,7.4,260.1,8.7z M268.3,4.3l3.5-1.7c0.1,0,0.2,0,0.3,0.1l0,0c0,0.1,0,0.2-0.1,0.3l-3.5,1.7
		c-0.1,0-0.2,0-0.3-0.1l0,0C268.2,4.4,268.2,4.3,268.3,4.3z M264.8,5.7c0.2-0.1,0.5,0,0.6,0.2c0.1,0.2,0,0.5-0.2,0.6
		c-0.2,0.1-0.5,0-0.6-0.2C264.4,6.1,264.5,5.8,264.8,5.7z"/>
	<polygon points="262.5,10.6 278.1,42.9 283.5,40.2 283.5,9.1 280.1,2.1 	"/>
	<path d="M277,96.4c1,3,3.5,5,6.4,5.5V85.5c-0.4,0.1-0.8,0.2-1.2,0.3C277.9,87.3,275.6,92,277,96.4z"/>
	<path d="M274.1,83.8c0.6-0.4,1-0.7,0.9-0.9c-0.1-0.2-0.5-0.2-1.2-0.2l-0.3-0.9l-5.7,1.9l0.3,0.9
		c-0.6,0.4-1,0.7-0.9,0.9c0.1,0.2,0.5,0.2,1.2,0.2l0.2,0.6l-2,0.7l-0.4-1.2c-0.2-0.7-0.9-1-1.6-0.8l-2,0.7c-0.7,0.2-1,0.9-0.8,1.6
		l0.4,1.2l-3,1l7.8,23.2l16.4-5.5v-2.5c-4-0.6-7.6-3.3-9-7.4c-1.9-5.8,1.2-12,6.9-14c0.7-0.2,1.4-0.4,2-0.5v-1.5l-9.1,3.1
		L274.1,83.8z"/>
	<path d="M50.8,90c-4.4,1.5-6.7,6.2-5.2,10.6c1.5,4.4,6.2,6.7,10.6,5.2c4.4-1.5,6.7-6.2,5.2-10.6S55.1,88.5,50.8,90z"/>
	<path d="M62.7,81.3c0.1,0.2,0.2,0.3,0.3,0.4l-20.1,6.8l-0.2-0.6c0.6-0.4,1-0.7,0.9-0.9c-0.1-0.2-0.5-0.2-1.2-0.2L42,86
		l-5.7,1.9l0.3,0.9c-0.6,0.4-1,0.7-0.9,0.9c0.1,0.2,0.5,0.2,1.2,0.2l0.2,0.6l-2,0.7L34.8,90c-0.2-0.7-0.9-1-1.6-0.8l-2,0.7
		c-0.7,0.2-1,0.9-0.8,1.6l0.4,1.2l-3,1l7.8,23.2l43.6-14.7l-7.8-23.2l-1.7,0.6c0-0.2,0-0.3,0-0.5c-0.3-0.9-2.1-1.2-4-0.5
		C63.6,79.1,62.3,80.4,62.7,81.3z M57,108.3c-5.8,1.9-12-1.2-14-6.9c-1.9-5.8,1.2-12,6.9-14s12,1.2,14,6.9
		C65.9,100.1,62.7,106.4,57,108.3z"/>
	<path d="M15.6,205.4c-3.6-2.9-8.8-2.4-11.7,1.1C1,210,1.5,215.3,5,218.2c3.6,2.9,8.8,2.4,11.7-1.1
		C19.7,213.5,19.2,208.3,15.6,205.4z"/>
	<path d="M35.9,217l-1.4-1.2c0.2-0.1,0.3-0.2,0.4-0.3c0.6-0.8-0.1-2.4-1.7-3.7c-1.6-1.3-3.3-1.7-4-0.9
		c-0.1,0.1-0.2,0.3-0.2,0.5l-16.4-13.5l0.4-0.5c0.6,0.3,1.1,0.5,1.2,0.3c0.1-0.2-0.1-0.6-0.5-1.1l0.6-0.8l-4.6-3.8l-0.6,0.8
		c-0.6-0.3-1.1-0.5-1.2-0.3s0.1,0.6,0.5,1.1L8.1,194l-1.6-1.4l0.8-1c0.4-0.5,0.4-1.3-0.2-1.8l-1.6-1.3c-0.5-0.4-1.3-0.4-1.8,0.2
		l-0.8,1l-2.5-2L0,188.2V208c0.4-1.1,1-2.2,1.8-3.2c3.9-4.7,10.8-5.4,15.5-1.5c4.7,3.9,5.4,10.8,1.5,15.5
		c-3.9,4.7-10.8,5.4-15.5,1.5c-1.6-1.3-2.7-2.9-3.3-4.7v3.6l20.3,16.7L35.9,217z"/>
</g>
<path id="Tape_Back" class="rpl2-1" d="M231.6,216.2l5.1,15.6h-55v-31.2h55L231.6,216.2z M51.8,216.2l-5.1,15.6h55v-31.2h-55
	L51.8,216.2z"/>
<path id="Text_Background" class="rpl3-1" d="M213.2,221.6c0,0-33.5,11.2-71.4,11.2s-71.4-11.2-71.4-11.2v-31.2h142.7V221.6z"/>
<text id="text1" transform="matrix(1 0 0 1 140.6128 203.3291)" class="st4 st5 st6 editable">Happy birthday!</text>
<text id="text2" transform="matrix(1 0 0 1 138.5955 217.3428)" class="st4 st5 st6 editable">My little son!</text>
<g>
	<polygon class="st7" points="145.9,221.4 145.4,220.9 141.6,224.8 145.4,228.6 145.9,228.2 142.5,224.8 	"/>
	<polygon class="st7" points="181.8,222 181.5,222.7 185.8,224.7 181.5,226.7 181.8,227.4 187.7,224.8 	"/>
	<path class="st7" d="M179.2,222l-0.3,0.7l3.5,1.6h-16.7l-3.1-3.1l-0.4,0.4l2.6,2.6h-0.7l-3.1-3.1l-0.4,0.4l2.6,2.6H161l-2-2
		l-0.3,0.3l1.7,1.7H160l-2-2l-0.3,0.3l1.7,1.7h-0.3l-2-2l-0.3,0.3l1.7,1.7h-0.3l-1.2-1.2l-1.2,1.2l-2-2l-0.3,0.3l1.7,1.7H155l-2-2
		l-1.7,1.7l-0.1-0.1l1.3-1.3l-0.3-0.3l-1.3,1.3l-2.7-2.7l-0.5,0.5l2.7,2.7l-0.2,0.2l-3.4-3.4l-3.8,3.8l3.8,3.8l3.4-3.4l0.3,0.3
		l-2.7,2.7l0.4,0.4l2.7-2.7l1.2,1.2l0.3-0.3l-1.2-1.2l0.1-0.1l1.7,1.7l2-2h0.3l-1.7,1.7l0.3,0.3l1.9-1.9l1.2,1.2l1.2-1.2h0.3
		l-1.7,1.7l0.3,0.3l1.9-1.9h0.4l-1.7,1.7l0.3,0.3l1.9-1.9h0.4l-1.7,1.7l0.3,0.3l1.9-1.9h2.4l-2.6,2.6l0.4,0.4l3-3h0.8l-2.6,2.6
		l0.4,0.4l3-3h16.7l-3.5,1.5l0.3,0.7l5.9-2.6L179.2,222z M150.8,225.2L150.8,225.2L150.8,225.2L150.8,225.2z"/>
	<polygon class="st7" points="137.3,221.4 140.7,224.8 137.3,228.2 137.8,228.6 141.6,224.8 137.8,220.9 	"/>
	<polygon class="st7" points="101.7,222.7 101.4,222 95.5,224.8 101.4,227.4 101.7,226.7 97.4,224.7 	"/>
	<path class="st7" d="M136.4,228.6l3.8-3.8l-3.8-3.8l-3.4,3.4l-0.2-0.2l2.7-2.7l-0.5-0.5l-2.7,2.7l-1.3-1.3l-0.3,0.3l1.3,1.3
		l-0.1,0.1l-1.7-1.7l-2,2h-0.3l1.7-1.7l-0.3-0.3l-2,2l-1.2-1.2l-1.2,1.2h-0.3l1.7-1.7l-0.3-0.3l-2,2h-0.3l1.7-1.7l-0.3-0.3l-2,2
		h-0.3l1.7-1.7l-0.3-0.3l-2,2h-2.3l2.6-2.6l-0.4-0.4l-3.1,3.1h-0.7l2.6-2.6l-0.4-0.4l-3.1,3.1h-16.7l3.5-1.6L104,222l-5.9,2.7
		l5.9,2.6l0.3-0.7l-3.5-1.5h16.7l3,3l0.4-0.4l-2.6-2.6h0.8l3,3l0.4-0.4l-2.6-2.6h2.4l1.9,1.9l0.3-0.3l-1.7-1.7h0.4l1.9,1.9l0.3-0.3
		l-1.7-1.7h0.4l1.9,1.9l0.3-0.3l-1.7-1.7h0.3l1.2,1.2l1.2-1.2l1.9,1.9l0.3-0.3l-1.7-1.7h0.3l2,2l1.7-1.7l0.1,0.1l-1.2,1.2l0.3,0.3
		l1.2-1.2l2.7,2.7l0.4-0.4l-2.7-2.7l0.3-0.3L136.4,228.6z M132.4,225.2L132.4,225.2L132.4,225.2L132.4,225.2z"/>
</g>
<rect id="text_background_left" class="svgRibbon" width="56.7" height="236.5"/>
<rect id="text_background_right" x="226.8" class="svgRibbon" width="56.7" height="236.5"/>
<rect id="Button_Stripe" y="236.3" class="rpl9-1" width="283.5" height="18.9"/>
<text id="product" transform="matrix(1 0 0 1 139.0948 249.2991)" class="st4 st5 st10 svgProduct">Product name</text>
<text id="quantity" transform="matrix(1 0 0 1 8.9839 250.6214)" class="st4 st5 st11">220 ml</text>
<path id="AlpStories_LOGO" d="M145.8,31.4c0-0.1,0.1-0.2,0.3-0.2h3.3c0.2,0,0.3,0.1,0.3,0.2v2.8c0,0.1-0.1,0.2-0.3,0.2h-3.3
	c-0.2,0-0.3-0.1-0.3-0.2V31.4z M145,31.3v3.1c0,0.6,0.4,0.8,0.9,0.8h3.7c0.6,0,0.9-0.2,0.9-0.8v-3.1c0-0.6-0.4-0.8-0.9-0.8h-3.7
	C145.4,30.5,145,30.7,145,31.3 M138.2,30.5v0.6c0,0,0,0,0,0h2c0,0,0,0,0,0v3.9c0,0,0,0,0,0h0.8c0,0,0,0,0,0v-3.9c0,0,0,0,0,0h2
	c0,0,0,0,0,0v-0.6c0,0,0,0,0,0L138.2,30.5C138.2,30.5,138.2,30.5,138.2,30.5 M130.4,34.1v0.3c0,0.6,0.4,0.8,0.9,0.8h1.4h2.6
	c0.6,0,0.9-0.2,0.9-0.8v-1.7c0-0.6-0.4-0.8-0.9-0.8h-3.6c-0.2,0-0.3-0.1-0.3-0.2v-1.1c0-0.1,0.1-0.2,0.3-0.2h3.3
	c0.2,0,0.3,0.1,0.3,0.2v0.1c0,0.1,0,0.1,0.1,0.1l0.7-0.1c0,0,0.1,0,0.1-0.1v-0.2c0-0.6-0.4-0.8-0.9-0.8h-3.6c-0.6,0-0.9,0.2-0.9,0.8
	v1.5c0,0.6,0.4,0.8,0.9,0.8h3.6c0.2,0,0.3,0.1,0.3,0.2v1.4c0,0.1-0.1,0.2-0.3,0.2h-3.7c-0.2,0-0.3-0.1-0.3-0.2V34
	c0-0.1,0-0.1-0.1-0.1L130.4,34.1C130.4,34,130.4,34.1,130.4,34.1 M115.1,35.2C115.1,35.2,115.1,35.2,115.1,35.2l-3-5.6
	c0,0,0,0-0.1,0h-1c0,0-0.1,0-0.1,0l-3,5.6c0,0,0,0,0,0h0.8c0,0,0.1,0,0.1,0l2.6-4.8c0,0,0,0,0,0c0,0,0,0,0,0h0l1.5,2.7l-2.3,0
	c-0.2,0-0.4,0.1-0.4,0.3v0.1c0,0.1,0.1,0.3,0.4,0.3l2.8,0l0.7,1.4c0,0,0,0,0.1,0H115.1z M121.5,35.1v-0.6c0,0,0,0,0,0h-3.5
	c0,0,0,0,0,0v-3.9c0,0,0,0,0,0H117c0,0,0,0,0,0v4.6c0,0.1,0,0.1,0.1,0.1L121.5,35.1C121.5,35.2,121.5,35.2,121.5,35.1 M128.2,32.5
	v-1.2c0-0.6-0.4-0.8-0.9-0.8h-3.9c-0.1,0-0.1,0-0.1,0.1v4.6c0,0,0,0,0,0l0.8,0c0,0,0,0,0,0v-3.9c0,0,0,0,0,0h2.9
	c0.2,0,0.3,0.1,0.3,0.2v0.9c0,0.1-0.1,0.2-0.3,0.2l-2.1,0c-0.2,0-0.4,0.1-0.4,0.3v0c0,0.1,0.1,0.3,0.4,0.3l2.3,0
	C127.9,33.3,128.2,33.1,128.2,32.5 M143.3,19.7c0,0-3-6.4-3-6.4c-0.2-0.5-0.6-0.8-1.1-0.8c-0.5,0-1,0.2-1.3,0.6
	c0,0-8.1,11.6-8.1,11.6c-0.2,0.3-0.2,0.6-0.1,0.7c0.1,0.1,0.4,0,0.6-0.3c0,0,7.9-10.1,7.9-10.1c0.2-0.3,0.5-0.6,0.9-0.5
	c0.3,0,0.6,0.3,0.7,0.6c0,0,2.3,5.2,2.3,5.2c0.2,0.4,0.6,0.7,1,0.5C143.4,20.6,143.5,20.2,143.3,19.7 M152.7,21.8
	c0.2-0.5,0-1-0.3-1.4c0,0-5-6-5-6c-0.1-0.2-0.2-0.4-0.1-0.6c0.1-0.2,0.3-0.4,0.6-0.4c0,0,3.9-0.7,3.9-0.7c0.2,0,0.4-0.2,0.3-0.3
	c0-0.2-0.2-0.3-0.4-0.3l-5.3,0.3c-0.5,0-0.9,0.3-1.1,0.7c-0.1,0.4,0,0.8,0.2,1.1c0,0,5.1,5.9,5.1,5.9c0.2,0.2,0.3,0.5,0.2,0.8
	c-0.1,0.2-0.3,0.4-0.6,0.5c0,0-12.7,3-12.7,3c-0.3,0.1-0.6,0.3-0.6,0.4c0,0.2,0.3,0.2,0.7,0.2c0,0,14-2.5,14-2.5
	C152.1,22.5,152.5,22.2,152.7,21.8 M158.3,35.2c0.1-0.1,0-0.2,0-0.2c0,0-1-1-1.7-1.6l0.4,0c0.6,0,0.9-0.2,0.9-0.8v-1.2
	c0-0.6-0.4-0.8-0.9-0.8h-3.7c-0.1,0-0.1,0-0.1,0.1v4.6c0,0,0,0,0,0l0.8,0c0,0,0,0,0,0v-3.9c0,0,0,0,0,0h2.7c0.2,0,0.3,0.1,0.3,0.2
	v0.9c0,0.1-0.1,0.2-0.3,0.2l-1.9,0c-0.2,0-0.4,0.1-0.4,0.3v0c0,0.1,0.1,0.3,0.4,0.3l0.8,0l1.8,1.9c0,0,0.1,0.1,0.2,0.1L158.3,35.2
	C158.2,35.2,158.3,35.2,158.3,35.2 M161.3,35.1v-4.6c0,0,0,0,0,0h-0.8c0,0,0,0,0,0v4.6c0,0,0,0,0,0L161.3,35.1
	C161.3,35.2,161.3,35.2,161.3,35.1 M168.6,35.1v-0.6c0,0,0,0,0,0h-3.8c0,0,0,0,0,0v-1.4l1.8,0c0.2,0,0.4-0.1,0.4-0.3v0
	c0-0.1-0.1-0.3-0.4-0.3l-1.8,0v-1.1c0,0,0,0,0,0h3.7c0,0,0,0,0,0v-0.6c0,0,0,0,0,0h-4.5c-0.1,0-0.1,0-0.1,0.1v4.5
	c0,0.1,0,0.1,0.1,0.1L168.6,35.1C168.6,35.2,168.6,35.2,168.6,35.1 M171.3,32.2v-0.8c0-0.1,0.1-0.2,0.3-0.2h2.7
	c0.2,0,0.3,0.1,0.3,0.2v0.1c0,0.1,0,0.1,0.1,0.1l0.6-0.1c0,0,0.1,0,0.1-0.1v-0.2c0-0.6-0.4-0.8-0.9-0.8h-3c-0.6,0-0.9,0.2-0.9,0.8v1
	c0,0.6,0.4,0.8,0.9,0.8h3c0.2,0,0.3,0.1,0.3,0.2v0.9c0,0.1-0.1,0.2-0.3,0.2h-3c-0.2,0-0.3-0.1-0.3-0.2V34c0-0.1,0-0.1-0.1-0.1
	l-0.6,0.1c0,0-0.1,0-0.1,0.1v0.3c0,0.6,0.4,0.8,0.9,0.8h1h2.3c0.6,0,0.9-0.2,0.9-0.8v-1.2c0-0.6-0.4-0.8-0.9-0.8h-3
	C171.4,32.4,171.3,32.3,171.3,32.2"/>
<g>
	
		<image style="overflow:visible;" width="28" height="28" id="Icon1" class="st12" transform="matrix(0.4207 0 0 0.4207 266.0086 239.8021)">
	</image>
	
		<image style="overflow:visible;" width="28" height="28" id="Icon2" class="st12" transform="matrix(0.4207 0 0 0.4207 251.2685 239.8021)">
	</image>
	
		<image style="overflow:visible;" width="28" height="28" id="Icon3" class="st12" transform="matrix(0.4207 0 0 0.4207 236.5285 239.8021)">
	</image>
	
		<image style="overflow:visible;" width="28" height="28" id="Icon4" class="st12" transform="matrix(0.4207 0 0 0.4207 207.0484 239.8021)">
	</image>
	
		<image style="overflow:visible;" width="28" height="28" id="Icon5" class="st12" transform="matrix(0.4207 0 0 0.4207 221.7885 239.8021)">
	</image>
</g>
</svg>
