<?xml version="1.0" encoding="utf-8"?>
<svg version="1.1" id="Layer_1"  data-color-numbers="3" xmlns="http://www.w3.org/2000/svg" xmlns:xlink="http://www.w3.org/1999/xlink" x="0px" y="0px"
	 viewBox="0 0 425.2 354.3" style="enable-background:new 0 0 425.2 354.3;" xml:space="preserve">
<style type="text/css">
  <![CDATA[
  @font-face {
        font-family: "DevroyeUnicode";
        src: url("/Content/fonts/DEVROYUN.ttf") format("truetype");
  }
	.rpl0-1{fill:#726658;}
  .rpl0-2{fill:#8b4324;}
  .rpl0-3{fill:#759d59;}
	.rpl1-1{fill:#C2B59B;}
  .rpl1-2{fill:#642d10;}
  .rpl1-3{fill:#608a46;}
	.rpl2-1{fill:#F15A29;}
  .rpl2-2{fill:#24420e;}
  .rpl2-3{fill:#716552;}
	.rpl3-1{fill:#F7941E;}
  .rpl3-2{fill:#285538;}
  .rpl3-3{fill:#8c8272;}
	.st5{fill:#C998D1;}
	.rpl6-1{fill:#2E5100;}
  .rpl6-2{fill:#e68a1b;}
  .rpl6-3{fill:#6b4b2c;}
	.st7{fill:#FFFFFF;}
	.st8{font-family:'DevroyeUnicode';}
	.st9{font-size:12px;}
	.st10{font-size:13px;}
	.st11{fill:#3C2415;}
  .st12{fill:#FFFFFF;}
  .editable{text-anchor: middle;}
  .svgProduct{text-anchor: middle;}
  .svgRibbon{visibility:hidden; opacity:0.6;fill:#FFFFFF;}
 ]]>
</style>
<image style="overflow:visible;" id="editableImg" width="781" height="790" xlink:href="/Content/img/cat-images-hilarious-gifs.jpg"  transform="matrix(0.3041 0 0 0.3041 102.3963 50.2921)">
</image>
<path id="Background" class="rpl0-1" d="M0,0v354.3h425.2V0H0z M291.8,266.1c0,26.4-21.6,48-48,48h-62.5c-26.4,0-48-21.6-48-48V108
	c0-26.4,21.6-48,48-48h62.5c26.4,0,48,21.6,48,48V266.1z"/>
<path id="Pattern" class="rpl1-1" d="M300.6,47.5c6.3,3.1,10.7-1.1,10.7-1.1s4.1-3.4,5.3-8.4c1.2-5-3.2-8.8-3.2-8.8s-1.9-1.7-4.3-3
	c-2.8-1.5-5.1-2.4-6.9-3l0.1-0.1c0-0.1-0.1-0.2-0.3-0.4l-17.7-9.2c-0.2-0.1-0.4-0.1-0.5,0l-0.1,0.1c-1.5-1.1-3.6-2.4-6.4-3.9
	c-2.4-1.3-4.9-1.8-4.9-1.8s-5.7-1.4-9.1,2.4c-3.4,3.9-3.8,9.2-3.8,9.2s-1,5.9,5.2,9.3c6.2,3.4,13.4,0.1,13.4,0.1s6.1-2.9,8.1-5.1
	c0.5-0.6,0.9-1.2,1.2-1.7c1.1-1,2.6-1.1,3.9-0.5c0,0,0,0,0,0c1,0.5,1.9,1.7,1.7,3.4c-0.3,0.5-0.5,1.2-0.7,2
	c-0.7,2.9,0.4,9.6,0.4,9.6S294.2,44.4,300.6,47.5z M293.8,24.1c-0.1-1.3-0.9-2.4-2.1-3.1c0,0,0,0,0,0c-1.2-0.6-2.6-0.6-3.8,0
	c0.3-1.1,0.1-2.2-0.3-3.2c-0.3-0.7-0.8-1.6-1.8-2.5l14,7.3c-1.4-0.2-2.4-0.2-3.1,0C295.5,22.8,294.6,23.3,293.8,24.1z M418.1,277.1
	c-3.4-3.9-9.1-2.5-9.1-2.5s-2.5,0.5-4.9,1.7c-2.8,1.4-4.9,2.7-6.4,3.8l-0.1-0.1c0-0.1-0.2-0.1-0.5,0l-17.8,9
	c-0.2,0.1-0.3,0.3-0.3,0.3l0.1,0.1c-1.8,0.6-4.1,1.5-6.9,2.9c-2.4,1.2-4.3,2.9-4.3,2.9s-4.5,3.8-3.3,8.8c1.1,5,5.2,8.4,5.2,8.4
	s4.3,4.2,10.6,1.2c6.4-3,7.9-10.8,7.9-10.8s1.2-6.7,0.6-9.6c-0.2-0.8-0.4-1.4-0.7-2c-0.1-1.4,0.6-2.8,1.9-3.4c0,0,0,0,0,0
	c1-0.5,2.5-0.6,3.8,0.6c0.3,0.6,0.6,1.1,1.2,1.7c2,2.2,8.1,5.2,8.1,5.2s7.1,3.4,13.4,0.1c6.2-3.3,5.4-9.3,5.4-9.3
	S421.4,281,418.1,277.1z M393.8,284.3c-0.4,1-0.6,2.1-0.4,3.2c-1.2-0.7-2.5-0.7-3.7-0.1c0,0,0,0,0,0c-1.2,0.6-2,1.8-2.2,3.1
	c-0.8-0.9-1.7-1.3-2.8-1.6c-0.8-0.2-1.8-0.2-3.1,0l14.1-7.1C394.7,282.8,394.1,283.6,393.8,284.3z M13.3,57.1c0,0,4.3,4.2,10.6,1.2
	c6.4-3,7.9-10.8,7.9-10.8s1.2-6.7,0.6-9.6c-0.2-0.8-0.4-1.4-0.7-2c-0.1-1.4,0.6-2.8,1.9-3.4c0,0,0,0,0,0c1-0.5,2.5-0.6,3.8,0.6
	c0.3,0.6,0.6,1.1,1.2,1.7c2,2.2,8.1,5.2,8.1,5.2s7.1,3.4,13.4,0.1c6.2-3.3,5.4-9.3,5.4-9.3s-0.3-5.3-3.7-9.2
	c-3.4-3.9-9.1-2.5-9.1-2.5s-2.5,0.5-4.9,1.7c-2.8,1.4-4.9,2.7-6.4,3.8l-0.1-0.1c0-0.1-0.2-0.1-0.5,0l-17.8,9
	c-0.2,0.1-0.3,0.3-0.3,0.3l0.1,0.1c-1.8,0.6-4.1,1.5-6.9,2.9c-2.4,1.2-4.3,2.9-4.3,2.9S7,43.7,8.1,48.7
	C9.2,53.7,13.3,57.1,13.3,57.1z M39.3,26.3c-1,1-1.6,1.8-1.9,2.5c-0.4,1-0.6,2.1-0.4,3.2c-1.2-0.7-2.5-0.7-3.7-0.1c0,0,0,0,0,0
	c-1.2,0.6-2,1.8-2.2,3.1c-0.8-0.9-1.7-1.3-2.8-1.6c-0.8-0.2-1.8-0.2-3.1,0L39.3,26.3z M114.5,199.8c-2.7-1.6-4.9-2.7-6.7-3.4
	l0.1-0.1c0.1-0.1-0.1-0.3-0.3-0.4l-17.1-10.3c-0.2-0.1-0.4-0.1-0.4-0.1l-0.1,0.1c-1.4-1.2-3.4-2.7-6.1-4.3c-2.3-1.4-4.8-2.1-4.8-2.1
	s-5.6-1.8-9.2,1.8c-3.6,3.6-4.4,8.9-4.4,8.9s-1.3,5.9,4.6,9.7c6,3.8,13.3,0.9,13.3,0.9s6.3-2.5,8.4-4.6c0.6-0.6,1-1.1,1.3-1.6
	c1.2-0.9,2.7-1,3.9-0.2c0,0,0,0,0,0c1,0.6,1.8,1.8,1.5,3.5c-0.3,0.5-0.6,1.1-0.8,1.9c-0.8,2.9-0.2,9.6-0.2,9.6s0.9,7.8,7,11.4
	c6.1,3.5,10.7-0.4,10.7-0.4s4.3-3.1,5.8-8c1.5-4.9-2.7-9-2.7-9S116.8,201.2,114.5,199.8z M102.2,195.4c-1.1,0.2-2.1,0.6-2.9,1.4
	c-0.1-1.3-0.7-2.5-1.9-3.2c0,0,0,0,0,0c-1.2-0.7-2.6-0.8-3.8-0.2c0.3-1.1,0.2-2.2-0.1-3.2c-0.2-0.7-0.7-1.6-1.7-2.6l13.5,8.2
	C104,195.3,103,195.2,102.2,195.4z M23.1,133c26.1-7.4,26.7-22.9,26.1-24.5c-0.6-1.6-1.2-3.3-4.3-3.8c-0.9-0.1-2.6,0.4-4.8,1.3
	C34.1,94.2,28.2,88.1,24,88.6c-5,0.5-6.6,4.9-8.3,5.4c-1.6,0.5-2-0.4-3.7,0.2c-1.7,0.4-1.6,1.3-3.2,1.8C7.3,96.4,4,94,0,95.3v39
	C5.4,135.7,12.9,135.9,23.1,133z M20.8,92c0,0-1.8,2-0.4,6.1c1.4,4.1,5.2,6.5,5.2,6.5s-6.5-3.3-6.9-6.6C18.2,94.6,20.8,92,20.8,92z
	 M13,97.4c3.2-0.9,4-3.3,4-3.3c0,0.2,0,3.5-3.6,4.5c-3.6,1-5.4-1.8-5.5-2C7.9,96.7,9.8,98.3,13,97.4z M7.1,101.9c-1-4.3-3.6-5-3.6-5
	s3.5,0.9,4.9,3.9c1.4,3.1-2.4,9.3-2.4,9.3S8.1,106.1,7.1,101.9z M5.8,147.6c0.9,2.1,2.5,4.4,3.5,4.9c1.1,0.5,2.9,0.6,4.1,0.3
	c1.2-0.3,1.8-0.5,4-1.1c2.2-0.6,3.5-2,4.4-3.4c0.9-1.4,1.9-4.8,1.7-7.3c-0.2-1.1,0.2-1.8,0.7-1.9c0.5-0.1,0.8-0.2,1.3-0.4
	c0.5-0.1,1.1,0.3,1.6,1.3c1.1,2.3,3.8,4.6,5.2,5.3c1.5,0.7,3.4,1.2,5.5,0.6c2.2-0.6,2.8-0.8,4-1.1c1.2-0.3,2.7-1.4,3.3-2.4
	c0.6-1,0.8-3.8,0.4-6c-0.3-2.3-0.6-3-0.4-3.5c0.2-0.5,0.7-0.8,0.7-0.8l-0.7-2.5c0,0-4.3-0.3-6.1,0.2c-1.9,0.5-4.8,1.4-6.5,1.8
	c-1.6,0.5-5.1,3-6.7,3.4c-1.6,0.5-2,0.6-2,0.6s-0.3,0.1-2,0.6c-1.6,0.5-5.9,0.2-7.5,0.6c-1.6,0.5-4.6,1.3-6.5,1.8
	c-1.9,0.5-5.3,3-5.3,3l0.7,2.5c0,0,0.6,0,1,0.3C4.8,144.7,4.9,145.5,5.8,147.6z M28.4,135.3c1.1-1.3,4.5-3.1,5.5-3.4
	c1-0.3,3.1-0.9,3.8-1.1c0.7-0.2,2.6-0.1,2.7,0c0.1,0.1,2.9,0.6,3.3,2.5c0.4,1.9,0.8,5,0.8,5s0.9,2.8-1.8,4.7c-2.6,1.9-5.6,2.1-7,2
	c-1.5-0.1-5.5-0.8-7.6-6C27.7,137.7,27.3,136.6,28.4,135.3z M7.2,140.2c0-0.1,1.5-1.2,2.3-1.4c0.7-0.2,2.9-0.8,3.8-1.1
	c1-0.3,4.8-0.5,6.4,0c1.6,0.5,1.9,1.6,2.3,3c0.8,5.5-2.2,8.3-3.3,9.1c-1.2,0.9-3.8,2.2-7,2c-3.3-0.2-4-3-4-3s-1.3-2.9-1.9-4.7
	C5.1,142.3,7.2,140.3,7.2,140.2z M46.4,155.3c1.1-3.5,0.5-7.8,0.5-7.8s1.1,4.9,0.4,8.2c-0.7,3.3-4,8.7-5.6,10.4
	c-1.6,1.7-4.4,5.2-7.5,5.9c-3,1.1-7.3-0.4-9.5-1c-2.2-0.6-7.9-3.5-10.2-5.9c-2.3-2.4-4-7.2-4-7.2s1.8,4,4.6,6.4
	c2.8,2.4,9.4,5,11.1,4.4c1.7-0.6,3.4-3.9,5.8-4.6c2.4-0.7,5.5,1.2,7.3,0.9C41,164.5,45.3,158.8,46.4,155.3z M422.1,179.9
	c-4.3-2.6-8.3,0-9.9-0.7c-1.6-0.6-1.4-1.6-3.1-2.1c-1.6-0.7-2.1,0.1-3.7-0.5c-1.6-0.6-2.8-5.2-7.7-6.2c-4.1-0.8-10.5,4.7-17.7,15.9
	c-2.2-1.1-3.8-1.8-4.7-1.7c-3.1,0.2-3.8,1.8-4.6,3.4c-0.8,1.5-1.5,17,23.8,26.8c15.6,6,25.3,3.8,30.6,0.8v-11.9
	c-0.2-0.1-0.5-0.1-0.7-0.2c0.3-1.8,0.5-3.5,0.7-5v-12.8C424.6,182.8,423.6,180.8,422.1,179.9z M402.3,180.3c-0.7,3.3-7.5,6-7.5,6
	s4-2,5.8-6c1.8-4,0.1-6.1,0.1-6.1S403,177,402.3,180.3z M407.5,181.5c-3.5-1.4-3.2-4.7-3.2-4.9c0,0,0.6,2.4,3.7,3.6
	c3.1,1.2,5.2-0.2,5.2-0.2C413,180.2,411,182.8,407.5,181.5z M413.4,185.3c-1.4,4.2,0.3,8.3,0.3,8.3s-3.2-6.5-1.5-9.5
	c1.7-2.9,5.3-3.5,5.3-3.5S414.8,181.1,413.4,185.3z M371.9,222.1c0.5,1.1,1.9,2.2,3.1,2.7c1.1,0.4,1.8,0.7,3.9,1.5
	c2.1,0.8,4,0.5,5.6-0.1c1.5-0.5,4.4-2.7,5.7-4.8c0.5-1,1.2-1.3,1.7-1.1c0.5,0.2,0.8,0.3,1.3,0.5c0.5,0.2,0.7,0.9,0.5,1.9
	c-0.5,2.5,0.2,6,1,7.4c0.8,1.4,2,3,4.1,3.8c2.1,0.8,2.7,1.1,3.9,1.5c1.1,0.4,3,0.5,4.1,0.1c1.1-0.4,2.9-2.5,4-4.5
	c1.1-2,1.3-2.7,1.8-3c0.5-0.3,1.1-0.2,1.1-0.2l0.9-2.4c0,0-3.2-2.8-5-3.5c-1.8-0.7-4.7-1.8-6.3-2.4s-5.8-0.7-7.4-1.3
	c-1.6-0.6-1.9-0.7-1.9-0.7s-0.3-0.1-1.9-0.7c-1.6-0.6-4.8-3.4-6.4-4c-1.6-0.6-4.5-1.7-6.3-2.4c-1.8-0.7-6.1-0.8-6.1-0.8l-0.9,2.4
	c0,0,0.4,0.4,0.6,0.9c0.2,0.5-0.1,1.2-0.7,3.4C371.5,218.3,371.4,221,371.9,222.1z M394.9,222.6c0.5-1.3,0.8-2.3,2.5-2.7
	c1.7-0.4,5.5,0.2,6.4,0.6c0.9,0.4,3,1.2,3.7,1.4c0.7,0.3,2.1,1.4,2.2,1.6c0,0.1,2,2.3,1.2,4c-0.8,1.7-2.4,4.5-2.4,4.5
	s-1,2.8-4.3,2.6c-3.2-0.1-5.7-1.7-6.8-2.6C396.3,231,393.6,228,394.9,222.6z M372.7,218.1c0,0,0.7-3.1,1.3-4.9
	c0.6-1.8,3.4-2.1,3.5-2.2c0.1-0.1,1.9,0,2.7,0.3c0.7,0.3,2.8,1.1,3.7,1.4c0.9,0.4,4.2,2.5,5.1,3.9c1,1.4,0.5,2.4,0,3.7
	c-2.7,4.9-6.7,5.3-8.2,5.3c-1.5,0-4.4-0.6-6.8-2.6C371.6,220.8,372.7,218.1,372.7,218.1z M369.6,227c0,0-1,4.2-0.2,7.8
	c0.8,3.6,4.5,9.6,6.2,10.2c1.7,0.5,5-1.1,7.4-0.2c2.4,0.9,3.7,4.3,5.3,5.1c1.6,0.8,8.4-1.2,11.4-3.3c3-2.1,5.1-5.9,5.1-5.9
	s-2.1,4.6-4.6,6.8c-2.6,2.2-8.4,4.6-10.7,5c-2.3,0.4-6.6,1.5-9.5,0.1c-3.1-0.9-5.6-4.7-7-6.5c-1.4-1.8-4.1-7.6-4.6-10.9
	C368,231.8,369.6,227,369.6,227z M332.2,118.9c25.5-9.2,25.1-24.7,24.4-26.2c-0.7-1.6-1.5-3.2-4.5-3.5c-0.9-0.1-2.6,0.6-4.7,1.6
	c-6.9-11.4-13.1-17-17.3-16.3c-4.9,0.9-6.3,5.4-7.9,6c-1.6,0.6-2.1-0.3-3.7,0.4c-1.7,0.5-1.5,1.5-3.1,2c-1.6,0.6-5.5-2.1-9.9,0.4
	c-3.7,2.1-4.9,10.4-2.9,23.6c-2.3,0.6-4,1.1-4.7,1.8c-2.2,2.2-1.7,3.9-1.3,5.5C297.1,115.9,306.7,128.1,332.2,118.9z M327.1,78.1
	c0,0-1.7,2.1,0,6.1c1.7,4,5.7,6.1,5.7,6.1s-6.7-2.8-7.3-6.2C324.7,80.9,327.1,78.1,327.1,78.1z M319.7,84.1c3.2-1.1,3.8-3.6,3.8-3.6
	c0,0.2,0.2,3.5-3.3,4.8c-3.5,1.3-5.5-1.4-5.6-1.6C314.5,83.7,316.5,85.2,319.7,84.1z M314.1,88.9c-1.3-4.2-3.9-4.7-3.9-4.7
	s3.6,0.6,5.2,3.6c1.6,3-1.7,9.4-1.7,9.4S315.4,93.1,314.1,88.9z M333.6,124.9c0.5-0.2,0.8-0.3,1.3-0.5c0.5-0.2,1.1,0.2,1.6,1.2
	c1.2,2.2,4.1,4.4,5.6,5c1.5,0.6,3.4,1,5.6,0.2c2.1-0.8,2.7-1,3.9-1.4c1.1-0.4,2.6-1.5,3.1-2.6c0.6-1,0.5-3.8,0-6
	c-0.5-2.2-0.8-2.9-0.6-3.5c0.2-0.5,0.7-0.9,0.7-0.9l-0.9-2.4c0,0-4.3,0-6.1,0.6c-1.8,0.7-4.7,1.7-6.3,2.3c-1.6,0.6-4.9,3.3-6.5,3.9
	c-1.6,0.6-1.9,0.7-1.9,0.7s-0.3,0.1-1.9,0.7c-1.6,0.6-5.9,0.6-7.5,1.1c-1.6,0.6-4.5,1.6-6.3,2.3c-1.8,0.7-5.1,3.4-5.1,3.4l0.9,2.4
	c0,0,0.6,0,1.1,0.3c0.5,0.3,0.7,1,1.7,3.1c1.1,2,2.8,4.2,3.9,4.6c1.1,0.4,2.9,0.4,4.1,0c1.1-0.4,1.8-0.6,3.9-1.4
	c2.1-0.8,3.3-2.3,4.2-3.7c0.8-1.4,1.6-4.9,1.1-7.4C332.9,125.7,333.1,125,333.6,124.9z M337.7,120.8c1-1.4,4.3-3.4,5.2-3.8
	c0.9-0.3,3-1.1,3.7-1.3c0.7-0.3,2.6-0.3,2.7-0.2c0.1,0.1,3,0.4,3.5,2.3c0.5,1.8,1.2,5,1.2,5s1.1,2.7-1.5,4.8c-2.5,2-5.4,2.5-6.9,2.5
	c-1.5,0-5.5-0.5-8-5.5C337.1,123.2,336.7,122.2,337.7,120.8z M329,136c-1.1,0.9-3.7,2.4-6.9,2.5c-3.3,0-4.2-2.7-4.2-2.7
	s-1.5-2.8-2.3-4.6c-0.8-1.8,1.2-3.8,1.3-4c0-0.1,1.5-1.3,2.2-1.5s2.8-1,3.7-1.3c0.9-0.3,4.8-0.9,6.4-0.4c1.7,0.4,2,1.5,2.5,2.8
	C332.9,132.1,330.1,135.1,329,136z M356.9,131.8c0,0,1.4,4.8,0.9,8.1c-0.5,3.3-3.4,9-4.8,10.8c-1.4,1.8-4,5.5-7.1,6.4
	c-3,1.3-7.3,0.1-9.5-0.4c-2.3-0.5-8.1-3-10.6-5.2c-2.5-2.2-4.5-6.9-4.5-6.9s2,3.8,5,6c3,2.2,9.7,4.3,11.3,3.6c1.7-0.7,3.1-4.1,5.5-5
	c2.4-0.9,5.6,0.8,7.4,0.4c1.8-0.5,5.6-6.4,6.4-10C357.8,136,356.9,131.8,356.9,131.8z M343.6,58.5c0,0,1.8,3.1,6.6,3.4
	c4.9,0.3,6.2-4.9,10.4-5.1c4.2-0.2,6.5,5.3,6.5,5.3s4.9-3.5,8.4-1.1c3.5,2.4,1.9,7.5,6.2,9.8c4.3,2.3,7.4,0.5,7.4,0.5
	s-2.6,5.8-9.9,5.4c-7.3-0.4-13.9-8.2-13.9-8.2s-9.6,3.2-16.1-0.3C342.7,64.8,343.6,58.5,343.6,58.5z M122.1,245.5
	c0,0,0.4,6.3-6.2,9.4c-6.7,3.1-16.1-0.7-16.1-0.7s-7,7.3-14.4,7.3c-7.3,0-9.6-6-9.6-6s3,1.9,7.4-0.1c4.4-2,3.2-7.2,6.8-9.4
	c3.6-2.2,8.3,1.7,8.3,1.7s2.7-5.4,6.9-4.9c4.2,0.5,5.2,5.7,10.1,5.7C120.2,248.4,122.1,245.5,122.1,245.5z M191.1,22.4
	c0,0-2.3,5.9-9.6,5.9c-7.3,0-14.3-7.4-14.3-7.4s-9.5,3.7-16.1,0.6c-6.6-3.1-6.2-9.4-6.2-9.4s1.9,3,6.8,3c4.9,0,5.9-5.2,10.1-5.7
	c4.2-0.5,6.8,5,6.8,5s4.7-3.8,8.3-1.6c3.6,2.2,2.3,7.4,6.7,9.4C188.1,24.3,191.1,22.4,191.1,22.4z M15.1,202.2c0,0,1.9,3,6.8,3
	c4.9,0,5.9-5.2,10.1-5.7c4.2-0.5,6.8,5,6.8,5s4.7-3.8,8.3-1.6c3.6,2.2,2.3,7.4,6.7,9.4c4.4,2,7.4,0.2,7.4,0.2s-2.3,5.9-9.6,5.9
	c-7.3,0-14.3-7.4-14.3-7.4s-9.5,3.7-16.1,0.6C14.6,208.5,15.1,202.2,15.1,202.2z M135.9,30.2l-20.7-8.8c-1.7-0.7-3.7,0.1-4.4,1.8
	L89.3,73.9c-0.7,1.7,0.1,3.7,1.8,4.4l20.7,8.8c1.7,0.7,3.7-0.1,4.4-1.8l21.5-50.7C138.4,32.9,137.6,30.9,135.9,30.2z M121.9,27.7
	L121.9,27.7c0.1-0.1,0.2-0.2,0.3-0.2l4.8,2c0.1,0.1,0.2,0.2,0.1,0.3l0,0c-0.1,0.1-0.2,0.2-0.3,0.1l-4.8-2
	C122,27.9,121.9,27.8,121.9,27.7z M117,25.6c0.1-0.3,0.5-0.5,0.8-0.3c0.3,0.1,0.5,0.5,0.3,0.8c-0.1,0.3-0.5,0.5-0.8,0.3
	C117,26.2,116.8,25.9,117,25.6z M106.7,79.8l-0.8,1.8c-0.3,0.8-1.2,1.1-2,0.8l-4.1-1.7c-0.8-0.3-1.1-1.2-0.8-2l0.8-1.8
	c0.3-0.8,1.2-1.1,2-0.8l4.1,1.7C106.7,78.1,107.1,79,106.7,79.8z M116.5,81.7L91.7,71.2l18.8-44.4l24.8,10.5L116.5,81.7z
	 M106.4,79.6l-0.8,1.8c-0.3,0.6-1,0.9-1.6,0.6l-4.1-1.7c-0.6-0.3-0.9-1-0.6-1.6l0.8-1.8c0.3-0.6,1-0.9,1.6-0.6l4.1,1.7
	C106.4,78.3,106.7,79,106.4,79.6z M92.2,71l18.7-43.7l23.9,10.2l-18.7,43.7L92.2,71z M328.3,202.3c-0.8-1.7-2.8-2.4-4.5-1.6
	l-20.2,9.8c-1.7,0.8-2.4,2.8-1.6,4.5l24.1,49.5c0.8,1.7,2.8,2.4,4.5,1.6l20.2-9.8c1.7-0.8,2.4-2.8,1.6-4.5L328.3,202.3z
	 M312.8,209.2l4.7-2.3c0.1-0.1,0.3,0,0.3,0.1l0,0c0.1,0.1,0,0.3-0.1,0.3l-4.7,2.3c-0.1,0.1-0.3,0-0.3-0.1l0,0
	C312.6,209.4,312.7,209.3,312.8,209.2z M308.1,211.1c0.3-0.1,0.7,0,0.8,0.3s0,0.7-0.3,0.8c-0.3,0.1-0.7,0-0.8-0.3
	S307.8,211.2,308.1,211.1z M342.1,259l-4,2c-0.8,0.4-1.7,0.1-2-0.7l-0.8-1.7c-0.4-0.8-0.1-1.7,0.7-2l4-2c0.8-0.4,1.7-0.1,2,0.7
	l0.8,1.7C343.2,257.8,342.9,258.7,342.1,259z M325.6,261l-21.1-43.4l24.2-11.8l21.1,43.4L325.6,261z M342.5,257.2
	c0.3,0.6,0,1.3-0.5,1.6l-4,2c-0.6,0.3-1.3,0-1.6-0.5l-0.8-1.7c-0.3-0.6,0-1.3,0.5-1.6l4-2c0.6-0.3,1.3,0,1.6,0.5L342.5,257.2z
	 M328.5,206.4l20.6,42.8l-23.4,11.3l-20.6-42.8L328.5,206.4z M369.8,11.5L393.9,61c0.8,1.7,2.8,2.4,4.5,1.6l20.2-9.8
	c1.7-0.8,2.4-2.8,1.6-4.5L396.7,0h-11l-14.4,7C369.7,7.8,369,9.8,369.8,11.5z M410,55.5l-4,2c-0.8,0.4-1.7,0.1-2-0.7l-0.8-1.7
	c-0.4-0.8-0.1-1.7,0.7-2l4-2c0.8-0.4,1.7-0.1,2,0.7l0.8,1.7C411,54.2,410.7,55.1,410,55.5z M380.7,5.7l4.7-2.3
	c0.1-0.1,0.3,0,0.3,0.1l0,0c0.1,0.1,0,0.3-0.1,0.3l-4.7,2.3c-0.1,0.1-0.3,0-0.3-0.1l0,0C380.5,5.9,380.6,5.7,380.7,5.7z M376,7.5
	c0.3-0.1,0.7,0,0.8,0.3s0,0.7-0.3,0.8c-0.3,0.1-0.7,0-0.8-0.3C375.6,8.1,375.7,7.7,376,7.5z M396.6,2.3l21.1,43.4l-24.2,11.8
	l-21.1-43.4L396.6,2.3z M410.4,53.6c0.3,0.6,0,1.3-0.5,1.6l-4,2c-0.6,0.3-1.3,0-1.6-0.5l-0.8-1.7c-0.3-0.6,0-1.3,0.5-1.6l4-2
	c0.6-0.3,1.3,0,1.6,0.5L410.4,53.6z M393.7,56.9L373,14.1l23.4-11.3L417,45.6L393.7,56.9z M413.3,120.9c2,5.8-1.2,12.1-7,14
	c-5.8,2-12.1-1.2-14-7s1.2-12.1,7-14C405,112,411.3,115.1,413.3,120.9z M424.2,99.4c-0.4-1.2-2.8-1.6-5.4-0.7
	c-2.5,0.9-4.3,2.6-3.8,3.8c0.1,0.2,0.2,0.4,0.4,0.6l-26.7,9l-0.3-0.8c0.8-0.5,1.3-0.9,1.2-1.2c-0.1-0.3-0.7-0.3-1.6-0.2l-0.4-1.3
	l-7.5,2.5l0.4,1.3c-0.8,0.5-1.3,0.9-1.2,1.2c0.1,0.3,0.7,0.3,1.6,0.2l0.3,0.8l-2.7,0.9l-0.5-1.5c-0.3-0.9-1.3-1.4-2.1-1.1l-2.6,0.9
	c-0.9,0.3-1.4,1.3-1.1,2.1l0.5,1.5l-4,1.4l10.4,30.9l46.1-15.6V99.7l-0.9,0.3C424.3,99.8,424.3,99.6,424.2,99.4z M407.5,138.3
	c-7.7,2.6-16-1.5-18.6-9.2c-2.6-7.7,1.5-16,9.2-18.6s16,1.5,18.6,9.2C419.3,127.4,415.1,135.7,407.5,138.3z M105.9,126.4
	c2,5.8-1.2,12.1-7,14c-5.8,2-12.1-1.2-14-7c-2-5.8,1.2-12.1,7-14C97.7,117.5,104,120.7,105.9,126.4z M107.6,108
	c0.1,0.2,0.2,0.4,0.4,0.6l-26.7,9l-0.3-0.8c0.8-0.5,1.3-0.9,1.2-1.2c-0.1-0.3-0.7-0.3-1.6-0.2l-0.4-1.3l-7.5,2.5l0.4,1.3
	c-0.8,0.5-1.3,0.9-1.2,1.2c0.1,0.3,0.7,0.3,1.6,0.2l0.3,0.8l-2.7,0.9l-0.5-1.5c-0.3-0.9-1.3-1.4-2.1-1.1l-2.6,0.9
	c-0.9,0.3-1.4,1.3-1.1,2.1l0.5,1.5l-4,1.4l10.4,30.9l57.9-19.5l-10.4-30.9l-2.3,0.8c0-0.2,0-0.5,0-0.7c-0.4-1.2-2.8-1.6-5.4-0.7
	C108.9,105,107.2,106.8,107.6,108z M100.1,143.9c-7.7,2.6-16-1.5-18.6-9.2c-2.6-7.7,1.5-16,9.2-18.6s16,1.5,18.6,9.2
	C111.9,133,107.7,141.3,100.1,143.9z M46.7,288.3c-3.9,4.7-10.9,5.4-15.6,1.5c-4.7-3.9-5.4-10.9-1.5-15.6c3.9-4.7,10.9-5.4,15.6-1.5
	C49.9,276.6,50.6,283.6,46.7,288.3z M70.8,286.2c0.8-1-0.2-3.2-2.2-4.9c-2.1-1.7-4.4-2.3-5.3-1.3c-0.1,0.2-0.2,0.4-0.3,0.6
	l-21.8-17.9l0.5-0.6c0.8,0.4,1.4,0.6,1.6,0.4c0.2-0.2-0.1-0.8-0.7-1.5l0.8-1l-6.1-5l-0.8,1c-0.8-0.4-1.4-0.6-1.6-0.4
	c-0.2,0.2,0.1,0.8,0.7,1.5l-0.5,0.6l-2.2-1.8l1-1.3c0.6-0.7,0.5-1.8-0.2-2.4l-2.1-1.8c-0.7-0.6-1.8-0.5-2.4,0.2l-1,1.3l-3.3-2.7
	L4.2,274.4l47.2,38.8l20.7-25.1l-1.9-1.5C70.5,286.5,70.6,286.3,70.8,286.2z M49.5,290.5c-5.1,6.2-14.4,7.1-20.6,2s-7.1-14.4-2-20.6
	c5.1-6.2,14.4-7.1,20.6-2C53.7,275.1,54.6,284.3,49.5,290.5z"/>
<path id="Tape_Back" class="rpl2-1" d="M329.3,298l6.7,20.3h-71.5v-40.5H336L329.3,298z M95.7,298L89,318.3h71.5v-40.5H89L95.7,298z"/>
<path id="Text_Background" class="rpl3-1" d="M305.4,305c0,0-43.5,14.5-92.8,14.5S119.8,305,119.8,305v-40.5h185.5V305z"/>
<rect id="text_background_left" class="svgRibbon" width="85" height="328.1"/>
<rect id="text_background_right" x="340.2" class="svgRibbon" width="85" height="328.1"/>
<g id="Button_Stripe">
	<rect x="0" y="328.1" class="st5" width="425.2" height="26.2"/>
	<rect x="0" y="328.1" class="rpl6-1" width="425.2" height="26.2"/>
</g>
<text id="product" transform="matrix(1 0 0 1 208.9401 346.2487)" class="st7 st8 st9 svgProduct">Product name</text>
<text id="quantity" transform="matrix(1 0 0 1 12.4779 348.0842)" class="st7 st8 st10">220 ml</text>
<path id="AlpStories_LOGO" d="M218.3,43.4c0-0.2,0.1-0.3,0.4-0.3h4.6c0.3,0,0.4,0.1,0.4,0.3v3.9c0,0.2-0.1,0.3-0.4,0.3h-4.6
	c-0.3,0-0.4-0.1-0.4-0.3V43.4z M217.1,43.2v4.3c0,0.8,0.5,1.1,1.3,1.1h5.1c0.8,0,1.3-0.3,1.3-1.1v-4.3c0-0.8-0.5-1.1-1.3-1.1h-5.1
	C217.7,42.1,217.1,42.4,217.1,43.2 M207.7,42.1V43c0,0,0,0.1,0.1,0.1h2.8c0,0,0.1,0,0.1,0.1v5.4c0,0,0,0.1,0.1,0.1h1
	c0,0,0.1,0,0.1-0.1v-5.4c0,0,0-0.1,0.1-0.1h2.8c0,0,0.1,0,0.1-0.1v-0.9c0,0,0-0.1-0.1-0.1L207.7,42.1
	C207.8,42.1,207.7,42.1,207.7,42.1 M196.8,47.1v0.4c0,0.8,0.5,1.1,1.3,1.1h1.9h3.7c0.8,0,1.3-0.3,1.3-1.1v-2.3
	c0-0.8-0.5-1.2-1.3-1.2h-5c-0.3,0-0.4-0.1-0.4-0.3v-1.6c0-0.2,0.1-0.3,0.4-0.3h4.6c0.3,0,0.4,0.1,0.4,0.3v0.1c0,0.1,0.1,0.1,0.1,0.1
	l0.9-0.1c0.1,0,0.1-0.1,0.1-0.1v-0.3c0-0.8-0.5-1.1-1.3-1.1h-5c-0.8,0-1.3,0.3-1.3,1.1v2c0,0.8,0.5,1.1,1.3,1.1h5
	c0.3,0,0.4,0.1,0.4,0.3v1.9c0,0.2-0.1,0.3-0.4,0.3h-5.1c-0.3,0-0.4-0.1-0.4-0.3V47c0-0.1-0.1-0.1-0.1-0.1L197,47
	C196.9,47,196.8,47.1,196.8,47.1 M175.7,48.6C175.7,48.6,175.7,48.6,175.7,48.6l-4.2-7.8c0,0-0.1-0.1-0.1-0.1H170c0,0-0.1,0-0.1,0.1
	l-4.2,7.7c0,0,0,0.1,0,0.1h1.2c0,0,0.1,0,0.1-0.1l3.6-6.7c0,0,0,0,0.1,0c0,0,0,0,0.1,0h0l2.1,3.8l-3.3,0.1c-0.3,0-0.5,0.2-0.5,0.4
	v0.1c0,0.2,0.2,0.4,0.5,0.4l3.8,0.1l1,1.9c0,0,0.1,0.1,0.1,0.1H175.7z M184.5,48.6v-0.9c0,0,0-0.1-0.1-0.1h-4.9c0,0-0.1,0-0.1-0.1
	v-5.4c0,0,0-0.1-0.1-0.1h-1c0,0-0.1,0-0.1,0.1v6.4c0,0.1,0.1,0.1,0.1,0.1L184.5,48.6C184.5,48.6,184.5,48.6,184.5,48.6 M193.9,44.9
	v-1.7c0-0.8-0.5-1.1-1.3-1.1h-5.4c-0.1,0-0.1,0.1-0.1,0.1v6.4c0,0,0,0.1,0.1,0.1l1,0c0,0,0.1,0,0.1-0.1v-5.4c0,0,0-0.1,0.1-0.1h4.1
	c0.3,0,0.4,0.1,0.4,0.3v1.3c0,0.2-0.1,0.3-0.4,0.3l-2.9,0.1c-0.3,0-0.5,0.2-0.5,0.4v0.1c0,0.2,0.2,0.4,0.5,0.4l3.2,0.1
	C193.4,46,193.9,45.7,193.9,44.9 M214.8,27.1c0,0-4.2-8.8-4.2-8.8c-0.3-0.6-0.8-1.1-1.6-1.2c-0.7,0-1.4,0.3-1.8,0.8
	c0,0-11.3,16-11.3,16.1c-0.3,0.4-0.3,0.8-0.2,0.9c0.2,0.1,0.6,0,0.8-0.4c0,0,11-14,11-14c0.3-0.4,0.8-0.8,1.3-0.7
	c0.5,0,0.8,0.4,1,0.9c0,0,3.1,7.2,3.2,7.2c0.3,0.6,0.9,0.9,1.3,0.7C214.9,28.4,215.1,27.7,214.8,27.1 M227.8,30
	c0.3-0.6,0.1-1.4-0.4-1.9c0,0-6.9-8.3-6.9-8.3c-0.2-0.3-0.3-0.5-0.2-0.8c0.1-0.3,0.4-0.5,0.8-0.6c0,0,5.4-1,5.4-1
	c0.3,0,0.5-0.2,0.5-0.5c0-0.2-0.3-0.4-0.6-0.3L219,17c-0.7,0-1.3,0.4-1.5,1c-0.2,0.5,0,1.1,0.3,1.6c0,0,7.1,8.1,7.1,8.1
	c0.2,0.3,0.4,0.7,0.2,1.1c-0.1,0.3-0.4,0.6-0.8,0.7c0,0-17.6,4.2-17.6,4.2c-0.5,0.1-0.8,0.4-0.8,0.6c0,0.2,0.5,0.3,1,0.2
	c0,0,19.4-3.5,19.4-3.5C227,31,227.6,30.6,227.8,30 M235.6,48.6c0.1-0.1,0.1-0.2,0-0.3c0,0-1.5-1.4-2.4-2.3l0.5,0
	c0.8,0,1.3-0.3,1.3-1.1v-1.7c0-0.8-0.5-1.1-1.3-1.1h-5.1c-0.1,0-0.1,0.1-0.1,0.1v6.4c0,0,0,0.1,0.1,0.1l1,0c0,0,0.1,0,0.1-0.1v-5.4
	c0,0,0-0.1,0.1-0.1h3.7c0.3,0,0.4,0.1,0.4,0.3v1.3c0,0.2-0.1,0.3-0.4,0.3l-2.6,0.1c-0.3,0-0.5,0.2-0.5,0.4v0.1
	c0,0.2,0.2,0.4,0.5,0.4l1.1,0l2.4,2.6c0.1,0.1,0.1,0.1,0.2,0.1h1C235.5,48.6,235.6,48.6,235.6,48.6 M239.8,48.6v-6.4
	c0,0,0-0.1-0.1-0.1h-1c0,0-0.1,0-0.1,0.1v6.4c0,0,0,0.1,0.1,0.1L239.8,48.6C239.8,48.6,239.8,48.6,239.8,48.6 M249.9,48.6v-0.9
	c0,0,0-0.1-0.1-0.1h-5.3c0,0-0.1,0-0.1-0.1v-1.9l2.6,0c0.3,0,0.5-0.2,0.5-0.4v-0.1c0-0.2-0.2-0.4-0.5-0.4l-2.6,0v-1.6
	c0,0,0-0.1,0.1-0.1h5.2c0,0,0.1,0,0.1-0.1v-0.9c0,0,0-0.1-0.1-0.1h-6.3c-0.1,0-0.1,0.1-0.1,0.1v6.3c0,0.1,0.1,0.1,0.1,0.1
	L249.9,48.6C249.9,48.6,249.9,48.6,249.9,48.6 M253.6,44.4v-1c0-0.2,0.1-0.3,0.4-0.3h3.8c0.3,0,0.4,0.1,0.4,0.3v0.2
	c0,0.1,0.1,0.1,0.1,0.1l0.9-0.1c0.1,0,0.1-0.1,0.1-0.1v-0.3c0-0.8-0.5-1.1-1.3-1.1h-4.1c-0.8,0-1.3,0.3-1.3,1.1v1.4
	c0,0.8,0.5,1.1,1.3,1.1h4.2c0.3,0,0.4,0.1,0.4,0.3v1.3c0,0.2-0.1,0.3-0.4,0.3h-4.2c-0.3,0-0.4-0.1-0.4-0.3V47c0-0.1-0.1-0.1-0.1-0.1
	l-0.9,0.1c-0.1,0-0.1,0.1-0.1,0.1v0.4c0,0.8,0.5,1.1,1.3,1.1h1.4h3.1c0.8,0,1.3-0.3,1.3-1.1v-1.6c0-0.8-0.5-1.1-1.3-1.1H254
	C253.8,44.8,253.6,44.6,253.6,44.4"/>
<text id="text1" transform="matrix(1 0 0 1 211.1481 281.2354)" class="st7 st8 st9 editable">Happy birthday!</text>
<text id="text2" transform="matrix(1 0 0 1 208.5265 299.4494)" class="st7 st8 st9 editable">My little son!</text>
<g>
	<polygon class="st11" points="218,304.7 217.3,304.1 212.3,309.1 217.3,314.1 217.9,313.5 213.5,309.2 	"/>
	<polygon class="st11" points="264.6,305.5 264.1,306.5 269.8,309.1 264.1,311.6 264.6,312.5 272.2,309.1 	"/>
	<path class="st11" d="M261.2,305.5l-0.4,0.9l4.6,2.1h-21.7l-4-4l-0.6,0.6l3.4,3.4h-0.9l-4-4l-0.6,0.6l3.4,3.4h-3l-2.6-2.6l-0.4,0.4
		l2.2,2.2h-0.4l-2.6-2.6l-0.4,0.4l2.2,2.2h-0.4l-2.6-2.6l-0.4,0.4l2.2,2.2h-0.4l-1.6-1.6l-1.5,1.5l-2.6-2.6l-0.4,0.4l2.2,2.2h-0.4
		l-2.6-2.6l-2.2,2.2l-0.2-0.2l1.6-1.6l-0.4-0.4l-1.6,1.6l-3.5-3.5l-0.7,0.7l3.5,3.5l-0.2,0.2l-4.4-4.4l-5,5l5,5l4.5-4.5l0.3,0.3
		l-3.6,3.6l0.6,0.6l3.6-3.6l1.6,1.6l0.3-0.3l-1.6-1.6l0.2-0.2l2.2,2.2l2.6-2.6h0.4l-2.2,2.2l0.3,0.3l2.5-2.5l1.6,1.6l1.6-1.6h0.4
		l-2.2,2.2l0.3,0.3l2.5-2.5h0.5l-2.2,2.2l0.3,0.3l2.5-2.5h0.5l-2.2,2.2l0.3,0.3l2.5-2.5h3.1l-3.4,3.4l0.5,0.5l3.9-3.9h1.1l-3.4,3.4
		l0.5,0.5l3.9-3.9h21.7l-4.5,2l0.4,0.9l7.7-3.4L261.2,305.5z M224.3,309.6L224.3,309.6L224.3,309.6L224.3,309.6z"/>
	<polygon class="st11" points="206.7,304.7 211.1,309.2 206.8,313.5 207.3,314.1 212.3,309.1 207.3,304.1 	"/>
	<polygon class="st11" points="160.5,306.5 160.1,305.5 152.4,309.1 160.1,312.5 160.5,311.6 154.9,309.1 	"/>
	<path class="st11" d="M205.5,314.1l5-5l-5-5l-4.4,4.4l-0.2-0.2l3.5-3.5l-0.7-0.7l-3.5,3.5l-1.6-1.6l-0.4,0.4l1.6,1.6l-0.2,0.2
		l-2.2-2.2l-2.6,2.6h-0.4l2.2-2.2l-0.4-0.4l-2.6,2.6l-1.5-1.5l-1.6,1.6h-0.4l2.2-2.2l-0.4-0.4l-2.6,2.6h-0.4l2.2-2.2l-0.4-0.4
		l-2.6,2.6h-0.4l2.2-2.2l-0.4-0.4l-2.6,2.6h-3l3.4-3.4l-0.6-0.6l-4,4h-0.9l3.4-3.4l-0.6-0.6l-4,4h-21.7l4.6-2.1l-0.4-0.9l-7.7,3.5
		l7.7,3.4l0.4-0.9l-4.5-2h21.7l3.9,3.9l0.5-0.5l-3.4-3.4h1.1l3.9,3.9l0.5-0.5l-3.4-3.4h3.1l2.5,2.5l0.3-0.3l-2.2-2.2h0.5l2.5,2.5
		l0.3-0.3l-2.2-2.2h0.5l2.5,2.5l0.3-0.3l-2.2-2.2h0.4l1.6,1.6l1.6-1.6l2.5,2.5l0.3-0.3l-2.2-2.2h0.4l2.6,2.6l2.2-2.2l0.2,0.2
		l-1.6,1.6l0.3,0.3l1.6-1.6l3.6,3.6l0.6-0.6l-3.6-3.6l0.3-0.3L205.5,314.1z M200.4,309.6L200.4,309.6L200.4,309.6L200.4,309.6z"/>
</g>
<g>
	
		<image style="overflow:visible;" width="28" height="28" id="Icon1" class="st12" transform="matrix(0.5844 0 0 0.5844 401.2123 333.0574)">
	</image>
	
		<image style="overflow:visible;" width="28" height="28" id="Icon2" class="st12" transform="matrix(0.5844 0 0 0.5844 380.7372 333.0574)">
	</image>
	
		<image style="overflow:visible;" width="28" height="28" id="Icon3" class="st12" transform="matrix(0.5844 0 0 0.5844 360.2622 333.0574)">
	</image>
	
		<image style="overflow:visible;" width="28" height="28" id="Icon4" class="st12" transform="matrix(0.5844 0 0 0.5844 319.3121 333.0574)">
	</image>
	
		<image style="overflow:visible;" width="28" height="28" id="Icon5" class="st12" transform="matrix(0.5844 0 0 0.5844 339.7872 333.0574)">
	</image>
</g>
</svg>
