<?xml version="1.0" encoding="utf-8"?>
<svg version="1.1" id="Layer_1"  data-color-numbers="3" xmlns="http://www.w3.org/2000/svg" xmlns:xlink="http://www.w3.org/1999/xlink" x="0px" y="0px"
	 viewBox="0 0 272.1 184.3" style="enable-background:new 0 0 272.1 184.3;" xml:space="preserve">
<style type="text/css">
  <![CDATA[
  @font-face {
        font-family: "DevroyeUnicode";
        src: url("/Content/fonts/DEVROYUN.ttf") format("truetype");
  }
	.rpl0-1{fill:#726658;}
  .rpl0-2{fill:#8b4324;}
  .rpl0-3{fill:#759d59;}
	.rpl1-1{fill:#C2B59B;}
  .rpl1-2{fill:#642d10;}
  .rpl1-3{fill:#608a46;}
	.rpl2-1{fill:#F15A29;}
  .rpl2-2{fill:#24420e;}
  .rpl2-3{fill:#716552;}
	.rpl3-1{fill:#F7941E;}
  .rpl3-2{fill:#285538;}
  .rpl3-3{fill:#8c8272;}
	.st4{fill:#FFFFFF;}
	.st5{font-family:'DevroyeUnicode';}
	.st6{font-size:6.1007px;}
	.st7{fill:#3C2415;}
	.rpl9-1{fill:#2E5100;}
  .rpl9-2{fill:#e68a1b;}
  .rpl9-3{fill:#6b4b2c;}
	.st10{font-size:6.24px;}
	.st11{font-size:7px;}
  .st12{fill:#FFFFFF;}
  .editable{text-anchor: middle;}
  .svgProduct{text-anchor: middle;}
  .svgRibbon{visibility:hidden; opacity:0.6;fill:#FFFFFF;}
 ]]>
</style>
<image style="overflow:visible;" id="editableImg" width="781" height="790" xlink:href="/Content/img/cat-images-hilarious-gifs.jpg"  transform="matrix(0.1546 0 0 0.1546 79.0163 30.8169)">
</image>
<path id="Background" class="rpl0-1" d="M272.1,184.3V0H0v184.3H272.1z M91.3,57.2c0-14,11.4-25.4,25.4-25.4h33.1
	c14,0,25.4,11.4,25.4,25.4v83.7c0,14-11.4,25.4-25.4,25.4h-33.1c-14,0-25.4-11.4-25.4-25.4V57.2z"/>
<path id="Pattern" class="rpl1-1" d="M182.8,25.8c3.4,1.7,5.8-0.6,5.8-0.6s2.2-1.8,2.9-4.5c0.7-2.7-1.8-4.8-1.8-4.8s-1-0.9-2.3-1.6
	c-1.5-0.8-2.7-1.3-3.7-1.6l0-0.1c0,0,0-0.1-0.2-0.2l-9.6-5c-0.1-0.1-0.2-0.1-0.2,0l0,0.1c-0.8-0.6-1.9-1.3-3.5-2.1
	c-1.3-0.7-2.6-1-2.6-1s-3.1-0.8-4.9,1.3c-1.9,2.1-2.1,5-2.1,5s-0.5,3.2,2.8,5.1c3.4,1.9,7.3,0.1,7.3,0.1s3.3-1.6,4.4-2.8
	c0.3-0.3,0.5-0.6,0.6-0.9c0.6-0.5,1.4-0.6,2.1-0.3c0,0,0,0,0,0c0.5,0.3,1.1,0.9,0.9,1.9c-0.2,0.3-0.3,0.6-0.4,1.1
	c-0.4,1.6,0.2,5.2,0.2,5.2S179.4,24.1,182.8,25.8z M179.1,13.1c-0.1-0.7-0.5-1.3-1.1-1.7c0,0,0,0,0,0c-0.7-0.3-1.4-0.3-2.1,0
	c0.1-0.6,0-1.2-0.2-1.7c-0.2-0.4-0.5-0.8-1-1.4l7.6,4c-0.7-0.1-1.3-0.1-1.7,0C180.1,12.4,179.6,12.6,179.1,13.1z M246.7,150.6
	c-1.8-2.1-4.9-1.4-4.9-1.4s-1.3,0.3-2.7,0.9c-1.5,0.8-2.7,1.5-3.5,2.1l0-0.1c0,0-0.1,0-0.2,0l-9.7,4.9c-0.1,0.1-0.2,0.1-0.2,0.2
	l0,0.1c-1,0.3-2.2,0.8-3.8,1.6c-1.3,0.7-2.3,1.6-2.3,1.6s-2.4,2.1-1.8,4.8c0.6,2.7,2.8,4.6,2.8,4.6s2.3,2.3,5.8,0.6
	c3.5-1.6,4.3-5.9,4.3-5.9s0.6-3.6,0.3-5.2c-0.1-0.4-0.2-0.8-0.4-1.1c-0.1-0.8,0.3-1.5,1-1.9c0,0,0,0,0,0c0.5-0.3,1.4-0.3,2.1,0.3
	c0.1,0.3,0.3,0.6,0.6,0.9c1.1,1.2,4.4,2.8,4.4,2.8s3.9,1.8,7.3,0c3.4-1.8,2.9-5,2.9-5S248.5,152.7,246.7,150.6z M233.5,154.5
	c-0.2,0.6-0.3,1.1-0.2,1.7c-0.6-0.4-1.4-0.4-2-0.1c0,0,0,0,0,0c-0.7,0.3-1.1,1-1.2,1.7c-0.4-0.5-0.9-0.7-1.5-0.9
	c-0.4-0.1-1-0.1-1.7,0l7.7-3.9C234,153.6,233.7,154.1,233.5,154.5z M258.9,71.6c0.2-2.8-2.6-4.4-2.6-4.4s-1.2-0.7-2.6-1.2
	c-1.6-0.5-2.9-0.8-4-1l0-0.1c0-0.1-0.1-0.1-0.2-0.2l-10.4-3.3c-0.1,0-0.2,0-0.2,0l0,0.1c-0.9-0.5-2.1-1-3.8-1.5
	c-1.4-0.4-2.8-0.5-2.8-0.5s-3.2-0.2-4.6,2.2c-1.5,2.4-1.2,5.3-1.2,5.3s0,3.3,3.7,4.5c3.6,1.2,7.2-1.2,7.2-1.2s3-2.1,3.9-3.5
	c0.2-0.4,0.4-0.7,0.5-1c0.5-0.6,1.3-0.9,2-0.6c0,0,0,0,0,0c0.6,0.2,1.2,0.7,1.3,1.7c-0.1,0.3-0.2,0.7-0.2,1.1
	c-0.1,1.6,1.1,5.1,1.1,5.1s1.5,4,5.2,5.1c3.7,1.1,5.6-1.6,5.6-1.6S258.7,74.4,258.9,71.6z M246.8,65.2c-0.6,0.2-1,0.6-1.4,1.1
	c-0.2-0.7-0.7-1.2-1.4-1.4c0,0,0,0,0,0c-0.7-0.2-1.5-0.1-2,0.4c0-0.6-0.2-1.2-0.5-1.7c-0.2-0.4-0.6-0.8-1.2-1.2l8.2,2.6
	C247.7,64.9,247.2,65,246.8,65.2z M27.6,46c0,0,2.3,2.3,5.8,0.6c3.5-1.6,4.3-5.9,4.3-5.9s0.6-3.6,0.3-5.2c-0.1-0.4-0.2-0.8-0.4-1.1
	c-0.1-0.8,0.3-1.5,1-1.9c0,0,0,0,0,0c0.5-0.3,1.4-0.3,2.1,0.3c0.1,0.3,0.3,0.6,0.6,0.9c1.1,1.2,4.4,2.8,4.4,2.8s3.9,1.8,7.3,0
	c3.4-1.8,2.9-5,2.9-5s-0.2-2.9-2-5c-1.8-2.1-4.9-1.4-4.9-1.4s-1.3,0.3-2.7,0.9c-1.5,0.8-2.7,1.5-3.5,2.1l0-0.1c0,0-0.1,0-0.2,0
	l-9.7,4.9c-0.1,0.1-0.2,0.1-0.2,0.2l0,0.1c-1,0.3-2.2,0.8-3.8,1.6c-1.3,0.7-2.3,1.6-2.3,1.6s-2.4,2.1-1.8,4.8
	C25.4,44.2,27.6,46,27.6,46z M41.7,29.3c-0.5,0.5-0.8,1-1,1.4c-0.2,0.6-0.3,1.1-0.2,1.7c-0.6-0.4-1.4-0.4-2-0.1c0,0,0,0,0,0
	c-0.7,0.3-1.1,1-1.2,1.7c-0.4-0.5-0.9-0.7-1.5-0.9c-0.4-0.1-1-0.1-1.7,0L41.7,29.3z M81.7,108.6c-1.5-0.9-2.7-1.5-3.6-1.9l0-0.1
	c0,0,0-0.1-0.1-0.2l-9.3-5.6c-0.1-0.1-0.2-0.1-0.2,0l0,0.1c-0.8-0.7-1.9-1.4-3.3-2.3c-1.3-0.8-2.6-1.1-2.6-1.1s-3-1-5,1
	c-2,2-2.4,4.8-2.4,4.8s-0.7,3.2,2.5,5.2c3.2,2.1,7.2,0.5,7.2,0.5s3.4-1.4,4.6-2.5c0.3-0.3,0.5-0.6,0.7-0.9c0.6-0.5,1.4-0.5,2.1-0.1
	c0,0,0,0,0,0c0.5,0.3,1,1,0.8,1.9c-0.2,0.3-0.3,0.6-0.5,1c-0.5,1.6-0.1,5.2-0.1,5.2s0.5,4.3,3.8,6.2c3.3,1.9,5.8-0.2,5.8-0.2
	s2.4-1.7,3.2-4.4c0.8-2.7-1.5-4.9-1.5-4.9S83,109.3,81.7,108.6z M75.1,106.1c-0.6,0.1-1.1,0.3-1.6,0.7c0-0.7-0.4-1.4-1-1.7
	c0,0,0,0,0,0c-0.6-0.4-1.4-0.4-2.1-0.1c0.2-0.6,0.1-1.2-0.1-1.8c-0.1-0.4-0.4-0.9-0.9-1.4l7.4,4.4C76,106.1,75.5,106.1,75.1,106.1z
	 M248.9,97.7c-2.3-1.4-4.5,0-5.4-0.4c-0.9-0.3-0.7-0.9-1.7-1.1c-0.9-0.4-1.1,0.1-2-0.3c-0.9-0.3-1.5-2.8-4.2-3.3
	c-2.2-0.5-5.7,2.5-9.6,8.6c-1.2-0.6-2.1-1-2.6-0.9c-1.7,0.1-2.1,1-2.5,1.8c-0.4,0.8-0.8,9.2,12.9,14.6c8.5,3.3,13.8,2.1,16.6,0.4
	v-6.5c-0.1,0-0.3-0.1-0.4-0.1c0.2-1,0.3-1.9,0.4-2.7v-6.9C250.3,99.3,249.7,98.2,248.9,97.7z M238.1,97.9c-0.4,1.8-4.1,3.2-4.1,3.2
	s2.2-1.1,3.2-3.2c1-2.2,0.1-3.3,0.1-3.3S238.5,96.1,238.1,97.9z M240.9,98.6c-1.9-0.7-1.8-2.5-1.7-2.6c0,0,0.3,1.3,2,2
	c1.7,0.7,2.8-0.1,2.8-0.1C243.9,97.9,242.8,99.3,240.9,98.6z M244.1,100.7c-0.7,2.3,0.2,4.5,0.2,4.5s-1.7-3.5-0.8-5.1
	c0.9-1.6,2.9-1.9,2.9-1.9S244.9,98.4,244.1,100.7z M221.6,120.6c0.3,0.6,1.1,1.2,1.7,1.4c0.6,0.2,1,0.4,2.1,0.8c1.1,0.4,2.2,0.3,3,0
	c0.8-0.3,2.4-1.4,3.1-2.6c0.3-0.5,0.6-0.7,0.9-0.6c0.3,0.1,0.4,0.2,0.7,0.3c0.3,0.1,0.4,0.5,0.3,1.1c-0.3,1.3,0.1,3.2,0.5,4
	c0.4,0.8,1.1,1.6,2.2,2.1c1.1,0.4,1.5,0.6,2.1,0.8c0.6,0.2,1.6,0.3,2.2,0.1c0.6-0.2,1.6-1.4,2.2-2.5c0.6-1.1,0.7-1.5,1-1.6
	c0.3-0.1,0.6-0.1,0.6-0.1l0.5-1.3c0,0-1.7-1.5-2.7-1.9c-1-0.4-2.6-1-3.4-1.3c-0.9-0.3-3.2-0.4-4-0.7c-0.9-0.3-1-0.4-1-0.4
	s-0.2-0.1-1-0.4c-0.9-0.3-2.6-1.9-3.5-2.2c-0.9-0.3-2.4-0.9-3.4-1.3c-1-0.4-3.3-0.4-3.3-0.4l-0.5,1.3c0,0,0.2,0.2,0.3,0.5
	c0.1,0.3-0.1,0.7-0.4,1.9C221.4,118.6,221.3,120.1,221.6,120.6z M234.1,120.9c0.3-0.7,0.5-1.3,1.4-1.5c0.9-0.2,3,0.1,3.5,0.3
	c0.5,0.2,1.6,0.6,2,0.8c0.4,0.2,1.2,0.8,1.2,0.9c0,0.1,1.1,1.2,0.6,2.2c-0.4,0.9-1.3,2.5-1.3,2.5s-0.5,1.5-2.3,1.4
	c-1.8-0.1-3.1-0.9-3.7-1.4C234.9,125.5,233.4,123.9,234.1,120.9z M222,118.5c0,0,0.4-1.7,0.7-2.7c0.3-1,1.9-1.1,1.9-1.2
	c0.1,0,1.1,0,1.4,0.2c0.4,0.2,1.5,0.6,2,0.8c0.5,0.2,2.3,1.3,2.8,2.1c0.5,0.8,0.3,1.3,0,2c-1.4,2.7-3.6,2.9-4.4,2.9
	c-0.8,0-2.4-0.3-3.7-1.4C221.4,119.9,222,118.5,222,118.5z M220.3,123.4c0,0-0.5,2.3-0.1,4.3c0.4,2,2.4,5.2,3.4,5.5
	c0.9,0.3,2.7-0.6,4-0.1c1.3,0.5,2,2.3,2.9,2.8c0.9,0.4,4.6-0.6,6.2-1.8c1.6-1.2,2.8-3.2,2.8-3.2s-1.1,2.5-2.5,3.7
	c-1.4,1.2-4.6,2.5-5.8,2.7c-1.2,0.2-3.6,0.8-5.2,0.1c-1.7-0.5-3-2.6-3.8-3.6c-0.8-1-2.3-4.1-2.5-5.9
	C219.5,126,220.3,123.4,220.3,123.4z M25.7,54.2c-2.7,0.2-3.6,2.6-4.5,2.8c-0.9,0.2-1.1-0.3-2,0c-1,0.2-0.9,0.7-1.8,0.9
	c-0.9,0.2-2.9-1.4-5.4-0.3c-2.1,0.9-3.1,5.4-2.7,12.6c-1.3,0.2-2.2,0.4-2.6,0.7c-1.3,1.1-1.1,2-1,2.9c0.2,0.9,4.7,8,19,4.2
	c8.8-2.3,12.4-6.4,13.7-9.4l-3.8-5.2c-0.1,0-0.3,0.1-0.4,0.1c-0.4-0.9-0.9-1.7-1.3-2.5l-4.1-5.6C27.8,54.6,26.7,54.1,25.7,54.2z
	 M17.1,60.7c0.7,1.7-1.4,5-1.4,5s1.2-2.1,0.7-4.5c-0.5-2.3-1.9-2.7-1.9-2.7S16.4,59,17.1,60.7z M19.8,59.5c-2,0.5-2.9-1-3-1.1
	c0,0,1,0.9,2.8,0.4c1.8-0.5,2.2-1.7,2.2-1.7C21.8,57.2,21.8,59,19.8,59.5z M23.6,59.3c0.7,2.3,2.8,3.6,2.8,3.6s-3.5-1.9-3.7-3.7
	c-0.2-1.8,1.2-3.2,1.2-3.2S22.9,57.1,23.6,59.3z M17,88.7c0.6,0.3,1.6,0.4,2.2,0.2c0.6-0.2,1-0.3,2.2-0.6c1.2-0.3,1.9-1.1,2.4-1.8
	c0.5-0.7,1.1-2.6,1-3.9c-0.1-0.6,0.1-0.9,0.4-1c0.3-0.1,0.5-0.1,0.7-0.2c0.3-0.1,0.6,0.1,0.8,0.7c0.6,1.3,2,2.6,2.8,3
	c0.8,0.4,1.8,0.7,3,0.4c1.2-0.3,1.5-0.4,2.2-0.6c0.6-0.2,1.5-0.7,1.8-1.2c0.4-0.5,0.5-2,0.3-3.3c-0.2-1.2-0.3-1.6-0.2-1.9
	c0.1-0.3,0.4-0.4,0.4-0.4l-0.4-1.3c0,0-2.3-0.2-3.3,0.1c-1,0.3-2.6,0.7-3.5,0.9c-0.9,0.2-2.8,1.6-3.7,1.8c-0.9,0.2-1.1,0.3-1.1,0.3
	s-0.2,0-1.1,0.3c-0.9,0.2-3.2,0-4.1,0.3c-0.9,0.2-2.5,0.7-3.5,0.9c-1,0.3-2.9,1.6-2.9,1.6l0.4,1.3c0,0,0.3,0,0.6,0.2
	c0.2,0.2,0.3,0.6,0.8,1.7C15.6,87.2,16.4,88.4,17,88.7z M27.3,81.6c-0.2-0.7-0.4-1.3,0.2-2c0.6-0.7,2.5-1.6,3-1.8
	c0.5-0.1,1.7-0.4,2.1-0.5c0.4-0.1,1.4,0,1.5,0c0,0.1,1.6,0.4,1.8,1.4c0.2,1,0.4,2.7,0.4,2.7s0.5,1.5-1,2.5c-1.5,1-3.1,1.1-3.8,1
	C30.6,84.9,28.5,84.4,27.3,81.6z M16.1,86.7c0,0-0.7-1.6-1-2.6c-0.3-1,0.9-2,0.9-2.1c0-0.1,0.9-0.6,1.3-0.7c0.4-0.1,1.6-0.4,2.1-0.5
	c0.5-0.1,2.6-0.2,3.5,0.1c0.9,0.3,1,0.9,1.2,1.6c0.4,3-1.3,4.5-1.9,4.9c-0.6,0.5-2.1,1.1-3.8,1C16.5,88.3,16.1,86.7,16.1,86.7z
	 M17.6,91.7c0,0,0.9,2.2,2.4,3.5c1.5,1.3,5,2.8,6,2.5c0.9-0.3,1.9-2.1,3.2-2.4c1.3-0.3,3,0.7,4,0.6c1-0.2,3.3-3.2,4-5.1
	c0.6-1.9,0.4-4.2,0.4-4.2s0.5,2.7,0.1,4.5c-0.4,1.8-2.3,4.7-3.1,5.6c-0.9,0.9-2.4,2.8-4.2,3.1c-1.7,0.6-3.9-0.3-5.1-0.7
	c-1.2-0.4-4.2-2-5.5-3.3C18.4,94.3,17.6,91.7,17.6,91.7z M200,64.6c13.9-5,13.6-13.4,13.3-14.2c-0.4-0.8-0.8-1.7-2.5-1.9
	c-0.5,0-1.4,0.3-2.6,0.9c-3.7-6.2-7.1-9.3-9.4-8.9c-2.7,0.5-3.4,2.9-4.3,3.2c-0.9,0.3-1.1-0.2-2,0.2c-0.9,0.3-0.8,0.8-1.7,1.1
	c-0.9,0.3-3-1.1-5.4,0.2c-2,1.1-2.6,5.7-1.6,12.8c-1.3,0.3-2.2,0.6-2.5,1c-1.2,1.2-0.9,2.1-0.7,3C181,63,186.2,69.6,200,64.6z
	 M197.2,42.5c0,0-0.9,1.1,0,3.3c0.9,2.2,3.1,3.3,3.1,3.3s-3.6-1.5-4-3.3C196,43.9,197.2,42.5,197.2,42.5z M193.2,45.7
	c1.7-0.6,2-1.9,2-1.9c0,0.1,0.1,1.9-1.8,2.6c-1.9,0.7-3-0.8-3-0.9C190.4,45.5,191.5,46.3,193.2,45.7z M190.2,48.3
	c-0.7-2.3-2.1-2.6-2.1-2.6s1.9,0.3,2.8,2c0.9,1.6-0.9,5.1-0.9,5.1S190.9,50.6,190.2,48.3z M200.8,67.8c0.3-0.1,0.4-0.2,0.7-0.3
	c0.3-0.1,0.6,0.1,0.9,0.6c0.7,1.2,2.2,2.4,3,2.7c0.8,0.3,1.9,0.5,3,0.1c1.1-0.4,1.5-0.5,2.1-0.8c0.6-0.2,1.4-0.8,1.7-1.4
	c0.3-0.6,0.3-2.1,0-3.3c-0.3-1.2-0.4-1.6-0.3-1.9c0.1-0.3,0.4-0.5,0.4-0.5l-0.5-1.3c0,0-2.3,0-3.3,0.4c-1,0.4-2.6,0.9-3.4,1.2
	c-0.9,0.3-2.7,1.8-3.5,2.1c-0.9,0.3-1,0.4-1,0.4s-0.2,0.1-1,0.4c-0.9,0.3-3.2,0.3-4.1,0.6c-0.9,0.3-2.5,0.9-3.4,1.2
	c-1,0.4-2.8,1.8-2.8,1.8l0.5,1.3c0,0,0.3,0,0.6,0.1c0.3,0.2,0.4,0.5,0.9,1.7c0.6,1.1,1.5,2.3,2.1,2.5c0.6,0.2,1.6,0.2,2.2,0
	c0.6-0.2,1-0.3,2.1-0.8c1.1-0.4,1.8-1.2,2.3-2c0.4-0.8,0.9-2.7,0.6-4C200.4,68.3,200.5,67.9,200.8,67.8z M203,65.6
	c0.6-0.8,2.3-1.9,2.8-2c0.5-0.2,1.6-0.6,2-0.7c0.4-0.1,1.4-0.2,1.4-0.1c0.1,0.1,1.6,0.2,1.9,1.2c0.3,1,0.6,2.7,0.6,2.7
	s0.6,1.5-0.8,2.6c-1.4,1.1-2.9,1.4-3.7,1.3c-0.8,0-3-0.3-4.4-3C202.7,67,202.5,66.4,203,65.6z M198.3,73.9c-0.6,0.5-2,1.3-3.7,1.3
	c-1.8,0-2.3-1.5-2.3-1.5s-0.8-1.5-1.2-2.5c-0.4-1,0.7-2.1,0.7-2.2c0-0.1,0.8-0.7,1.2-0.8s1.5-0.5,2-0.7c0.5-0.2,2.6-0.5,3.5-0.2
	c0.9,0.2,1.1,0.8,1.3,1.5C200.4,71.8,198.9,73.4,198.3,73.9z M213.5,71.6c0,0,0.8,2.6,0.5,4.4c-0.3,1.8-1.8,4.9-2.6,5.9
	c-0.8,1-2.2,3-3.9,3.5c-1.6,0.7-4,0.1-5.2-0.2c-1.2-0.3-4.4-1.6-5.8-2.8c-1.4-1.2-2.4-3.7-2.4-3.7s1.1,2.1,2.7,3.3
	c1.6,1.2,5.3,2.4,6.2,2c0.9-0.4,1.7-2.2,3-2.7c1.3-0.5,3.1,0.5,4,0.2c1-0.3,3-3.5,3.5-5.4C213.9,73.9,213.5,71.6,213.5,71.6z
	 M206.2,31.8c0,0,1,1.7,3.6,1.8c2.6,0.2,3.4-2.6,5.7-2.8c2.3-0.1,3.6,2.9,3.6,2.9s2.7-1.9,4.5-0.6c1.9,1.3,1,4.1,3.4,5.3
	c2.3,1.2,4,0.3,4,0.3s-1.4,3.1-5.4,2.9c-4-0.2-7.5-4.4-7.5-4.4s-5.2,1.7-8.8-0.2C205.7,35.2,206.2,31.8,206.2,31.8z M5.6,20.3
	c0,0,1.9,0.5,3.8-1.2c2-1.7,0.5-4.3,2.1-6c1.5-1.7,4.6-0.4,4.6-0.4s0.5-3.2,2.8-3.6c2.3-0.4,3.6,2.2,6.1,1.4
	c2.5-0.8,3.1-2.6,3.1-2.6s1.2,3.2-1.8,5.9c-3,2.6-8.5,2.2-8.5,2.2s-2.5,4.9-6.3,6.1C7.7,23.1,5.6,20.3,5.6,20.3z M85.9,133.4
	c0,0,0.2,3.4-3.4,5.1c-3.6,1.7-8.7-0.4-8.7-0.4s-3.8,4-7.8,4c-4,0-5.2-3.2-5.2-3.2s1.6,1,4-0.1c2.4-1.1,1.7-3.9,3.7-5.1
	c2-1.2,4.5,0.9,4.5,0.9s1.5-2.9,3.7-2.7c2.3,0.3,2.8,3.1,5.5,3.1C84.8,135,85.9,133.4,85.9,133.4z M123.4,12.2c0,0-1.2,3.2-5.2,3.2
	c-4,0-7.8-4-7.8-4s-5.1,2-8.8,0.3C98,10,98.3,6.6,98.3,6.6s1,1.6,3.7,1.7c2.6,0,3.2-2.8,5.5-3.1c2.3-0.2,3.7,2.7,3.7,2.7
	s2.6-2.1,4.5-0.9c1.9,1.2,1.3,4,3.7,5.1C121.7,13.2,123.4,12.2,123.4,12.2z M27.7,109.9c0,0,1,1.6,3.7,1.7c2.6,0,3.2-2.8,5.5-3.1
	c2.3-0.2,3.7,2.7,3.7,2.7s2.6-2.1,4.5-0.9c1.9,1.2,1.3,4,3.7,5.1c2.4,1.1,4,0.1,4,0.1s-1.2,3.2-5.2,3.2c-4,0-7.8-4-7.8-4
	s-5.1,2-8.8,0.3C27.5,113.3,27.7,109.9,27.7,109.9z M93.4,16.4l-11.2-4.8c-0.9-0.4-2,0-2.4,1L68,40.1c-0.4,0.9,0,2,1,2.4l11.2,4.8
	c0.9,0.4,2,0,2.4-1l11.7-27.5C94.7,17.9,94.3,16.8,93.4,16.4z M85.8,15L85.8,15c0-0.1,0.1-0.1,0.2-0.1l2.6,1.1
	c0.1,0,0.1,0.1,0.1,0.2l0,0c0,0.1-0.1,0.1-0.2,0.1l-2.6-1.1C85.8,15.2,85.8,15.1,85.8,15z M83.1,13.9c0.1-0.2,0.3-0.2,0.4-0.2
	c0.2,0.1,0.2,0.3,0.2,0.4c-0.1,0.2-0.3,0.3-0.4,0.2C83.1,14.3,83,14.1,83.1,13.9z M77.5,43.3l-0.4,1c-0.2,0.4-0.7,0.6-1.1,0.4
	l-2.2-0.9c-0.4-0.2-0.6-0.7-0.4-1.1l0.4-1c0.2-0.4,0.7-0.6,1.1-0.4l2.2,0.9C77.5,42.4,77.7,42.9,77.5,43.3z M82.8,44.4l-13.5-5.7
	l10.2-24.1L93,20.3L82.8,44.4z M77.4,43.3l-0.4,1c-0.1,0.3-0.5,0.5-0.8,0.3l-2.2-0.9c-0.3-0.1-0.5-0.5-0.3-0.8l0.4-1
	c0.1-0.3,0.5-0.5,0.8-0.3l2.2,0.9C77.3,42.6,77.5,42.9,77.4,43.3z M69.6,38.6l10.2-23.7l13,5.5L82.6,44.1L69.6,38.6z M5.8,141.2
	l11.6-3.7c1-0.3,1.5-1.3,1.2-2.3l-9.2-28.5c-0.3-1-1.3-1.5-2.3-1.2L0,107.8v3.9l9.4-3l8,25l-13.9,4.5l-3.5-11v2L3.5,140
	C3.8,141,4.9,141.5,5.8,141.2z M3.4,108.6l-2.7,0.9c-0.1,0-0.2,0-0.2-0.1l0,0c0-0.1,0-0.2,0.1-0.2l2.7-0.9c0.1,0,0.2,0,0.2,0.1l0,0
	C3.5,108.5,3.5,108.6,3.4,108.6z M9.4,136.5l2.3-0.7c0.4-0.1,0.9,0.1,1,0.5l0.3,1c0.1,0.4-0.1,0.9-0.5,1l-2.3,0.7
	c-0.4,0.1-0.9-0.1-1-0.5l-0.3-1C8.8,137.1,9,136.6,9.4,136.5z M3.7,137.8L0,126.2v-14.3l9.3-3l7.8,24.6L3.7,137.8z M197.9,109.9
	c-0.4-0.9-1.5-1.3-2.5-0.8l-11,5.3c-0.9,0.4-1.3,1.5-0.8,2.5l13.1,26.9c0.4,0.9,1.5,1.3,2.5,0.8l11-5.3c0.9-0.4,1.3-1.5,0.8-2.5
	L197.9,109.9z M189.5,113.7l2.5-1.2c0.1,0,0.2,0,0.2,0.1l0,0c0,0.1,0,0.2-0.1,0.2l-2.5,1.2c-0.1,0-0.2,0-0.2-0.1l0,0
	C189.4,113.8,189.4,113.7,189.5,113.7z M187,114.7c0.2-0.1,0.4,0,0.4,0.2c0.1,0.2,0,0.4-0.2,0.4c-0.2,0.1-0.4,0-0.4-0.2
	C186.7,115,186.8,114.8,187,114.7z M205.4,140.7l-2.2,1.1c-0.4,0.2-0.9,0-1.1-0.4l-0.5-0.9c-0.2-0.4,0-0.9,0.4-1.1l2.2-1.1
	c0.4-0.2,0.9,0,1.1,0.4l0.5,0.9C206,140.1,205.8,140.5,205.4,140.7z M196.4,141.8L185,118.2l13.2-6.4l11.5,23.6L196.4,141.8z
	 M205.6,139.7c0.2,0.3,0,0.7-0.3,0.9l-2.2,1.1c-0.3,0.2-0.7,0-0.9-0.3l-0.5-0.9c-0.2-0.3,0-0.7,0.3-0.9l2.2-1.1
	c0.3-0.2,0.7,0,0.9,0.3L205.6,139.7z M198,112.1l11.2,23.3l-12.7,6.1l-11.2-23.3L198,112.1z M220.5,6.3l13.1,26.9
	c0.4,0.9,1.5,1.3,2.5,0.8l11-5.3c0.9-0.4,1.3-1.5,0.8-2.5L235.1,0h-6l-7.8,3.8C220.4,4.2,220,5.3,220.5,6.3z M242.3,30.2l-2.2,1.1
	c-0.4,0.2-0.9,0-1.1-0.4l-0.5-0.9c-0.2-0.4,0-0.9,0.4-1.1l2.2-1.1c0.4-0.2,0.9,0,1.1,0.4l0.5,0.9C242.9,29.5,242.7,30,242.3,30.2z
	 M226.4,3.1l2.5-1.2c0.1,0,0.2,0,0.2,0.1l0,0c0,0.1,0,0.2-0.1,0.2l-2.5,1.2c-0.1,0-0.2,0-0.2-0.1l0,0C226.3,3.2,226.3,3.1,226.4,3.1
	z M223.8,4.1c0.2-0.1,0.4,0,0.4,0.2s0,0.4-0.2,0.4c-0.2,0.1-0.4,0-0.4-0.2C223.6,4.4,223.7,4.2,223.8,4.1z M235,1.2l11.5,23.6
	l-13.2,6.4L221.8,7.6L235,1.2z M242.5,29.1c0.2,0.3,0,0.7-0.3,0.9l-2.2,1.1c-0.3,0.2-0.7,0-0.9-0.3l-0.5-0.9c-0.2-0.3,0-0.7,0.3-0.9
	l2.2-1.1c0.3-0.2,0.7,0,0.9,0.3L242.5,29.1z M233.4,30.9L222.2,7.7l12.7-6.1l11.2,23.3L233.4,30.9z M77.1,68.7
	c1.1,3.1-0.6,6.6-3.8,7.6c-3.1,1.1-6.6-0.6-7.6-3.8c-1.1-3.1,0.6-6.6,3.8-7.6C72.6,63.9,76,65.6,77.1,68.7z M78,58.7
	c0,0.1,0.1,0.2,0.2,0.3l-14.5,4.9l-0.1-0.4c0.4-0.3,0.7-0.5,0.6-0.6c0-0.1-0.4-0.2-0.9-0.1L63.1,62L59,63.4l0.2,0.7
	c-0.4,0.3-0.7,0.5-0.6,0.6c0,0.1,0.4,0.2,0.9,0.1l0.1,0.4l-1.5,0.5l-0.3-0.8c-0.2-0.5-0.7-0.7-1.2-0.6l-1.4,0.5
	c-0.5,0.2-0.7,0.7-0.6,1.2l0.3,0.8l-2.2,0.7l5.7,16.8l31.5-10.6l-5.7-16.8L83,57.4c0-0.1,0-0.2,0-0.4c-0.2-0.7-1.5-0.8-2.9-0.4
	C78.7,57.1,77.8,58,78,58.7z M73.9,78.2c-4.2,1.4-8.7-0.8-10.1-5c-1.4-4.2,0.8-8.7,5-10.1c4.2-1.4,8.7,0.8,10.1,5
	C80.3,72.2,78.1,76.8,73.9,78.2z M270.5,41.4c1.1,3.1-0.6,6.6-3.8,7.6c-3.1,1.1-6.6-0.6-7.6-3.8c-1.1-3.1,0.6-6.6,3.8-7.6
	C266,36.6,269.4,38.3,270.5,41.4z M272.1,30v10.2c-1.6-3.8-5.9-5.8-9.9-4.5c-4.2,1.4-6.4,5.9-5,10.1s5.9,6.4,10.1,5
	c2.2-0.8,3.9-2.4,4.8-4.5v3.8L251.9,57l-5.7-16.8l2.2-0.7l-0.3-0.8c-0.2-0.5,0.1-1,0.6-1.2l1.4-0.5c0.5-0.2,1,0.1,1.2,0.6l0.3,0.8
	l1.5-0.5l-0.1-0.4c-0.5,0.1-0.8,0-0.9-0.1s0.2-0.4,0.6-0.6l-0.2-0.7l4.1-1.4l0.2,0.7c0.5-0.1,0.8,0,0.9,0.1c0,0.1-0.2,0.4-0.6,0.6
	l0.1,0.4l14.5-4.9c-0.1-0.1-0.2-0.2-0.2-0.3C271.3,31,271.6,30.5,272.1,30z M44.9,156.6c-2.1,2.6-5.9,2.9-8.5,0.8
	c-2.6-2.1-2.9-5.9-0.8-8.5c2.1-2.6,5.9-2.9,8.5-0.8C46.7,150.3,47,154.1,44.9,156.6z M58,155.5c0.5-0.6-0.1-1.7-1.2-2.7
	c-1.1-0.9-2.4-1.2-2.9-0.7c-0.1,0.1-0.1,0.2-0.1,0.3l-11.8-9.7l0.3-0.3c0.5,0.2,0.8,0.3,0.9,0.2c0.1-0.1-0.1-0.4-0.4-0.8l0.5-0.6
	l-3.3-2.7l-0.5,0.6c-0.5-0.2-0.8-0.3-0.9-0.2c-0.1,0.1,0.1,0.4,0.4,0.8l-0.3,0.3l-1.2-1l0.6-0.7c0.3-0.4,0.3-1-0.1-1.3l-1.2-1
	c-0.4-0.3-1-0.3-1.3,0.1l-0.6,0.7l-1.8-1.5l-11.2,13.7l25.6,21.1l11.2-13.7l-1-0.8C57.8,155.6,57.9,155.6,58,155.5z M46.4,157.9
	c-2.8,3.4-7.8,3.9-11.2,1.1s-3.9-7.8-1.1-11.2c2.8-3.4,7.8-3.9,11.2-1.1C48.7,149.4,49.2,154.5,46.4,157.9z M266.5,132l5.6,4.6v2.3
	c-0.5-1.2-1.2-2.2-2.3-3.1c-3.4-2.8-8.4-2.3-11.2,1.1c-2.8,3.4-2.3,8.4,1.1,11.2s8.4,2.3,11.2-1.1c0.5-0.6,0.9-1.3,1.2-2v14.1
	l-0.1,0.2l-25.6-21.1l11.2-13.7l1.8,1.5l0.6-0.7c0.3-0.4,0.9-0.4,1.3-0.1l1.2,1c0.4,0.3,0.4,0.9,0.1,1.3l-0.6,0.7l1.2,1l0.3-0.3
	c-0.3-0.4-0.5-0.7-0.4-0.8c0.1-0.1,0.4,0,0.9,0.2l0.5-0.6l3.3,2.7l-0.5,0.6c0.3,0.4,0.5,0.7,0.4,0.8c-0.1,0.1-0.4,0-0.9-0.2
	L266.5,132z"/>
<path id="Tape_Back" class="rpl2-1" d="M195.4,156.7l3.4,10.3h-36.3v-20.6h36.3L195.4,156.7z M76.6,156.7L73.2,167h36.3v-20.6H73.2
	L76.6,156.7z"/>
<path id="Text_Background" class="rpl3-1" d="M183.2,160.3c0,0-22.1,7.4-47.2,7.4s-47.2-7.4-47.2-7.4v-20.6h94.3V160.3z"/>
<text id="text1" transform="matrix(1 0 0 1 135.325 148.2246)" class="st4 st5 st6 editable">Happy birthday!</text>
<text id="text2" transform="matrix(1 0 0 1 133.9917 157.4854)" class="st4 st5 st6 editable">My little son!</text>
<g>
	<polygon class="st7" points="138.8,160.2 138.4,159.8 135.9,162.4 138.4,164.9 138.7,164.6 136.5,162.4 	"/>
	<polygon class="st7" points="162.5,160.6 162.2,161 165.1,162.4 162.2,163.7 162.5,164.1 166.4,162.4 	"/>
	<path class="st7" d="M160.8,160.6l-0.2,0.5l2.3,1.1h-11l-2-2l-0.3,0.3l1.7,1.7h-0.5l-2-2l-0.3,0.3l1.7,1.7h-1.5l-1.3-1.3l-0.2,0.2
		l1.1,1.1h-0.2l-1.3-1.3l-0.2,0.2l1.1,1.1h-0.2l-1.3-1.3l-0.2,0.2l1.1,1.1h-0.2l-0.8-0.8l-0.8,0.8l-1.3-1.3l-0.2,0.2l1.1,1.1h-0.2
		l-1.3-1.3l-1.1,1.1l-0.1-0.1l0.8-0.8l-0.2-0.2l-0.8,0.8l-1.8-1.8l-0.3,0.3l1.8,1.8l-0.1,0.1l-2.2-2.2l-2.5,2.5l2.5,2.5l2.3-2.3
		l0.2,0.2l-1.8,1.8l0.3,0.3l1.8-1.8l0.8,0.8l0.2-0.2l-0.8-0.8l0.1-0.1l1.1,1.1l1.3-1.3h0.2l-1.1,1.1l0.2,0.2l1.3-1.3l0.8,0.8
		l0.8-0.8h0.2l-1.1,1.1l0.2,0.2l1.3-1.3h0.3l-1.1,1.1l0.2,0.2l1.3-1.3h0.3l-1.1,1.1l0.2,0.2l1.3-1.3h1.6l-1.7,1.7l0.3,0.3l2-2h0.5
		l-1.7,1.7l0.3,0.3l2-2h11l-2.3,1l0.2,0.5l3.9-1.7L160.8,160.6z M142,162.7L142,162.7L142,162.7L142,162.7z"/>
	<polygon class="st7" points="133,160.2 135.3,162.4 133.1,164.6 133.4,164.9 135.9,162.4 133.4,159.8 	"/>
	<polygon class="st7" points="109.6,161 109.4,160.6 105.5,162.4 109.4,164.1 109.6,163.7 106.7,162.4 	"/>
	<path class="st7" d="M132.5,164.9l2.5-2.5l-2.5-2.5l-2.2,2.2l-0.1-0.1l1.8-1.8l-0.3-0.3l-1.8,1.8l-0.8-0.8l-0.2,0.2l0.8,0.8
		l-0.1,0.1l-1.1-1.1l-1.3,1.3h-0.2l1.1-1.1l-0.2-0.2l-1.3,1.3l-0.8-0.8l-0.8,0.8h-0.2l1.1-1.1l-0.2-0.2l-1.3,1.3h-0.2l1.1-1.1
		l-0.2-0.2l-1.3,1.3h-0.2l1.1-1.1l-0.2-0.2l-1.3,1.3h-1.5l1.7-1.7l-0.3-0.3l-2,2h-0.5l1.7-1.7l-0.3-0.3l-2,2h-11l2.3-1.1l-0.2-0.5
		l-3.9,1.8l3.9,1.7l0.2-0.5l-2.3-1h11l2,2l0.3-0.3l-1.7-1.7h0.5l2,2l0.3-0.3l-1.7-1.7h1.6l1.3,1.3l0.2-0.2l-1.1-1.1h0.3l1.3,1.3
		l0.2-0.2l-1.1-1.1h0.3l1.3,1.3l0.2-0.2l-1.1-1.1h0.2l0.8,0.8l0.8-0.8l1.3,1.3l0.2-0.2l-1.1-1.1h0.2l1.3,1.3l1.1-1.1l0.1,0.1
		l-0.8,0.8l0.2,0.2l0.8-0.8l1.8,1.8l0.3-0.3l-1.8-1.8l0.2-0.2L132.5,164.9z M129.8,162.7L129.8,162.7L129.8,162.7L129.8,162.7z"/>
</g>
<rect id="text_background_left" class="svgRibbon" width="56.7" height="170.2"/>
<rect id="text_background_right" x="215.4" class="svgRibbon" width="56.7" height="170.2"/>
<rect id="Button_Stripe" y="170.1" class="rpl9-1" width="272.1" height="14.2"/>
<text id="product" transform="matrix(1 0 0 1 134.1599 179.5623)" class="st4 st5 st10 svgProduct">Product name</text>
<text id="quantity" transform="matrix(1 0 0 1 6.4882 179.7678)" class="st4 st5 st11">220 ml</text>
<path id="AlpStories_LOGO" d="M137,22.6c0-0.1,0.1-0.2,0.2-0.2h2.4c0.1,0,0.2,0.1,0.2,0.2v2c0,0.1-0.1,0.2-0.2,0.2h-2.4
	c-0.1,0-0.2-0.1-0.2-0.2V22.6z M136.4,22.5v2.2c0,0.4,0.3,0.6,0.7,0.6h2.7c0.4,0,0.7-0.2,0.7-0.6v-2.2c0-0.4-0.3-0.6-0.7-0.6H137
	C136.6,22,136.4,22.1,136.4,22.5 M131.5,22v0.4c0,0,0,0,0,0h1.5c0,0,0,0,0,0v2.8c0,0,0,0,0,0h0.5c0,0,0,0,0,0v-2.8c0,0,0,0,0,0h1.5
	c0,0,0,0,0,0V22c0,0,0,0,0,0L131.5,22C131.5,22,131.5,22,131.5,22 M125.8,24.6v0.2c0,0.4,0.3,0.6,0.7,0.6h1h1.9
	c0.4,0,0.7-0.2,0.7-0.6v-1.2c0-0.4-0.3-0.6-0.7-0.6h-2.6c-0.1,0-0.2-0.1-0.2-0.2V22c0-0.1,0.1-0.2,0.2-0.2h2.4
	c0.1,0,0.2,0.1,0.2,0.2v0.1c0,0,0,0.1,0.1,0.1l0.5-0.1c0,0,0.1,0,0.1-0.1v-0.1c0-0.4-0.3-0.6-0.7-0.6h-2.6c-0.4,0-0.7,0.2-0.7,0.6
	v1.1c0,0.4,0.3,0.6,0.7,0.6h2.6c0.1,0,0.2,0.1,0.2,0.2v1c0,0.1-0.1,0.2-0.2,0.2h-2.7c-0.1,0-0.2-0.1-0.2-0.2v-0.1c0,0,0-0.1-0.1-0.1
	L125.8,24.6C125.9,24.5,125.8,24.5,125.8,24.6 M114.8,25.4C114.9,25.4,114.9,25.3,114.8,25.4l-2.2-4c0,0,0,0-0.1,0h-0.7
	c0,0,0,0-0.1,0l-2.2,4c0,0,0,0,0,0h0.6c0,0,0,0,0.1,0l1.9-3.5c0,0,0,0,0,0c0,0,0,0,0,0h0l1.1,2l-1.7,0c-0.2,0-0.3,0.1-0.3,0.2v0.1
	c0,0.1,0.1,0.2,0.3,0.2l2,0l0.5,1c0,0,0,0,0.1,0H114.8z M119.4,25.3v-0.4c0,0,0,0,0,0h-2.5c0,0,0,0,0,0V22c0,0,0,0,0,0h-0.5
	c0,0,0,0,0,0v3.3c0,0,0,0.1,0.1,0.1L119.4,25.3C119.4,25.4,119.4,25.3,119.4,25.3 M124.3,23.4v-0.9c0-0.4-0.3-0.6-0.7-0.6h-2.8
	c0,0-0.1,0-0.1,0.1v3.3c0,0,0,0,0,0l0.5,0c0,0,0,0,0,0v-2.8c0,0,0,0,0,0h2.1c0.1,0,0.2,0.1,0.2,0.2v0.7c0,0.1-0.1,0.2-0.2,0.2
	l-1.5,0c-0.2,0-0.3,0.1-0.3,0.2v0c0,0.1,0.1,0.2,0.3,0.2l1.7,0C124,24,124.3,23.8,124.3,23.4 M135.1,14.2c0,0-2.2-4.6-2.2-4.6
	c-0.2-0.3-0.4-0.6-0.8-0.6c-0.4,0-0.7,0.1-0.9,0.4c0,0-5.9,8.3-5.9,8.3c-0.1,0.2-0.2,0.4-0.1,0.5c0.1,0.1,0.3,0,0.4-0.2
	c0,0,5.7-7.2,5.7-7.2c0.2-0.2,0.4-0.4,0.6-0.4c0.2,0,0.4,0.2,0.5,0.5c0,0,1.6,3.7,1.6,3.7c0.1,0.3,0.5,0.5,0.7,0.4
	C135.2,14.9,135.3,14.5,135.1,14.2 M141.9,15.7c0.1-0.3,0-0.7-0.2-1c0,0-3.6-4.3-3.6-4.3c-0.1-0.1-0.2-0.3-0.1-0.4
	c0.1-0.2,0.2-0.3,0.4-0.3l2.8-0.5c0.1,0,0.3-0.1,0.2-0.2c0-0.1-0.1-0.2-0.3-0.2L137.3,9c-0.4,0-0.7,0.2-0.8,0.5
	c-0.1,0.3,0,0.6,0.2,0.8c0,0,3.7,4.2,3.7,4.2c0.1,0.2,0.2,0.4,0.1,0.6c-0.1,0.2-0.2,0.3-0.4,0.3c0,0-9.1,2.2-9.1,2.2
	c-0.2,0.1-0.4,0.2-0.4,0.3c0,0.1,0.2,0.2,0.5,0.1c0,0,10.1-1.8,10.1-1.8C141.5,16.2,141.8,16,141.9,15.7 M145.9,25.3
	c0,0,0-0.1,0-0.2c0,0-0.8-0.7-1.2-1.2l0.3,0c0.4,0,0.7-0.2,0.7-0.6v-0.9c0-0.4-0.3-0.6-0.7-0.6h-2.7c0,0-0.1,0-0.1,0.1v3.3
	c0,0,0,0,0,0l0.5,0c0,0,0,0,0,0v-2.8c0,0,0,0,0,0h1.9c0.1,0,0.2,0.1,0.2,0.2v0.7c0,0.1-0.1,0.2-0.2,0.2l-1.4,0
	c-0.2,0-0.3,0.1-0.3,0.2v0c0,0.1,0.1,0.2,0.3,0.2l0.6,0l1.3,1.3c0,0,0.1,0,0.1,0L145.9,25.3C145.9,25.4,145.9,25.3,145.9,25.3
	 M148.1,25.3V22c0,0,0,0,0,0h-0.5c0,0,0,0,0,0v3.3c0,0,0,0,0,0L148.1,25.3C148.1,25.4,148.1,25.3,148.1,25.3 M153.4,25.3v-0.4
	c0,0,0,0,0,0h-2.8c0,0,0,0,0,0v-1l1.3,0c0.2,0,0.3-0.1,0.3-0.2v0c0-0.1-0.1-0.2-0.3-0.2l-1.3,0v-0.8c0,0,0,0,0,0h2.7c0,0,0,0,0,0V22
	c0,0,0,0,0,0H150c0,0-0.1,0-0.1,0.1v3.3c0,0,0,0.1,0.1,0.1L153.4,25.3C153.4,25.4,153.4,25.3,153.4,25.3 M155.3,23.2v-0.5
	c0-0.1,0.1-0.2,0.2-0.2h2c0.1,0,0.2,0.1,0.2,0.2v0.1c0,0,0,0.1,0.1,0.1l0.4-0.1c0,0,0.1,0,0.1-0.1v-0.1c0-0.4-0.3-0.6-0.7-0.6h-2.1
	c-0.4,0-0.7,0.2-0.7,0.6v0.7c0,0.4,0.3,0.6,0.7,0.6h2.2c0.1,0,0.2,0.1,0.2,0.2v0.7c0,0.1-0.1,0.2-0.2,0.2h-2.2
	c-0.1,0-0.2-0.1-0.2-0.2v-0.2c0,0,0-0.1-0.1-0.1l-0.4,0.1c0,0-0.1,0-0.1,0.1v0.2c0,0.4,0.3,0.6,0.7,0.6h0.7h1.6
	c0.4,0,0.7-0.2,0.7-0.6v-0.9c0-0.4-0.3-0.6-0.7-0.6h-2.2C155.4,23.3,155.3,23.3,155.3,23.2"/>
<g>
	
		<image style="overflow:visible;" width="28" height="28" id="Icon1" class="st12" transform="matrix(0.3165 0 0 0.3165 258.8838 172.7338)">
	</image>
	
		<image style="overflow:visible;" width="28" height="28" id="Icon2" class="st12" transform="matrix(0.3165 0 0 0.3165 247.7969 172.7338)">
	</image>
	
		<image style="overflow:visible;" width="28" height="28" id="Icon3" class="st12" transform="matrix(0.3165 0 0 0.3165 236.7099 172.7338)">
	</image>
	
		<image style="overflow:visible;" width="28" height="28" id="Icon4" class="st12" transform="matrix(0.3165 0 0 0.3165 214.536 172.7338)">
	</image>
	
		<image style="overflow:visible;" width="28" height="28" id="Icon5" class="st12" transform="matrix(0.3165 0 0 0.3165 225.623 172.7338)">
	</image>
</g>
</svg>
