<?xml version="1.0" encoding="utf-8"?>
<svg version="1.1" id="Layer_1"  data-color-numbers="3" xmlns="http://www.w3.org/2000/svg" xmlns:xlink="http://www.w3.org/1999/xlink" x="0px" y="0px"
	 viewBox="0 0 425.2 354.3" style="enable-background:new 0 0 425.2 354.3;" xml:space="preserve">
<style type="text/css">
  <![CDATA[
  @font-face {
        font-family: "DevroyeUnicode";
        src: url("/Content/fonts/DEVROYUN.ttf") format("truetype");
  }
	.rpl0-1{fill:#CE7A34;}
  .rpl0-2{fill:#b4975a;}
  .rpl0-3{fill:#0e68ce;}
	.st1{opacity:0.2;fill:#FFFFFF;}
	.st2{fill:#C998D1;}
	.rpl3-1{fill:#F24E06;}
  .rpl3-2{fill:#ffb612;}
  .rpl3-3{fill:#d6d6d6;}
	.rpl4-1{fill:#216b22;}
  .rpl4-2{fill:#0073cf;}
  .rpl4-3{fill:#bf0000;}
	.st6{fill:#AF0000;}
	.st7{fill:#960000;}
	.st8{fill:#BC0000;}
	.st9{fill:#7F0000;}
	.st10{fill:#EA2D2D;}
	.st11{opacity:0.6;fill:#E50011;}
	.st12{fill:#F7941E;}
	.st13{fill:#BE1E2D;}
	.st14{fill:#A0431A;}
	.st15{fill:#D65B1D;}
	.st16{fill:#770000;}
	.st17{fill:#D30000;}
	.st18{fill:#B20000;}
	.st19{fill:#0F1014;}
	.st20{fill:#D1D3D4;}
	.st21{fill:#282828;}
	.st22{fill:#8C8C8C;}
	.rpl23-1{fill:#259925;}
  .rpl23-2{fill:#7924ff;}
  .rpl23-3{fill:#ff0000;}
	.st24{opacity:0.2;}
	.st25{fill:#AAAAAA;}
	.st26{opacity:0.2;fill:#282828;}
	.st27{font-family:'DevroyeUnicode';}
	.st28{font-size:12px;}
	.st29{font-size:14px;}
	.st30{fill:#FFFFFF;}
	.st31{font-size:13px;}
  .rpl32-1{fill:#F7941E;}
  .rpl32-2{fill:#30008c;}
  .rpl32-3{fill:#0025ff;}
  .st33{fill:#FFFFFF;}
  .editable{text-anchor: middle;}
  .svgProduct{text-anchor: middle;}
  .svgRibbon{visibility:hidden; opacity:0.6;fill:#FFFFFF;}
 ]]>
</style>
<image style="overflow:visible;" id="editableImg" width="1600" height="1200" xlink:href="/Content/img/little-kitty.jpg"  transform="matrix(0.1578 0 0 0.1578 84.0913 97.0026)">
</image>
<path id="background" class="rpl0-1" d="M0,0v348.1h425.2V0H0z M285.7,286.8H135.8V36h149.9V286.8z"/>
<path id="stars_pattern" class="st1" d="M70,254l10.9,1.6l-7.9,7.7l1.9,10.9l-9.8-5.1l-9.8,5.1l1.9-10.9l-7.9-7.7l10.9-1.6l4.9-9.9
	L70,254z M65.1,275.3l-4.9,9.9l-10.9,1.6l7.9,7.7l-1.9,10.9l9.8-5.1l9.8,5.1L73,294.6l7.9-7.7L70,285.3L65.1,275.3z M32.4,212.8
	l-4.9,9.9l-10.9,1.6l7.9,7.7l-1.9,10.9l9.8-5.1l9.8,5.1L40.3,232l7.9-7.7l-10.9-1.6L32.4,212.8z M65.1,119l-4.9,9.9l-10.9,1.6
	l7.9,7.7l-1.9,10.9l9.8-5.1l9.8,5.1L73,138.2l7.9-7.7L70,128.9L65.1,119z M70,316.5l-4.9-9.9l-4.9,9.9l-10.9,1.6l7.9,7.7l-1.9,10.9
	l9.8-5.1l9.8,5.1L73,325.8l7.9-7.7L70,316.5z M65.1,150.3l-4.9,9.9l-10.9,1.6l7.9,7.7l-1.9,10.9l9.8-5.1l9.8,5.1L73,169.5l7.9-7.7
	L70,160.2L65.1,150.3z M65.1,181.6l-4.9,9.9l-10.9,1.6l7.9,7.7l-1.9,10.9l9.8-5.1l9.8,5.1L73,200.8l7.9-7.7L70,191.5L65.1,181.6z
	 M32.4,150.3l-4.9,9.9l-10.9,1.6l7.9,7.7l-1.9,10.9l9.8-5.1l9.8,5.1l-1.9-10.9l7.9-7.7l-10.9-1.6L32.4,150.3z M65.1,87.8l-4.9,9.9
	l-10.9,1.6l7.9,7.7l-1.9,10.9l9.8-5.1l9.8,5.1L73,107l7.9-7.7L70,97.7L65.1,87.8z M32.4,181.6l-4.9,9.9l-10.9,1.6l7.9,7.7l-1.9,10.9
	l9.8-5.1l9.8,5.1l-1.9-10.9l7.9-7.7l-10.9-1.6L32.4,181.6z M32.4,119l-4.9,9.9l-10.9,1.6l7.9,7.7l-1.9,10.9l9.8-5.1l9.8,5.1
	l-1.9-10.9l7.9-7.7l-10.9-1.6L32.4,119z M32.4,87.8l-4.9,9.9l-10.9,1.6l7.9,7.7l-1.9,10.9l9.8-5.1l9.8,5.1L40.3,107l7.9-7.7
	l-10.9-1.6L32.4,87.8z M32.4,25.2l-4.9,9.9l-10.9,1.6l7.9,7.7l-1.9,10.9l9.8-5.1l9.8,5.1l-1.9-10.9l7.9-7.7l-10.9-1.6L32.4,25.2z
	 M32.4,56.5l-4.9,9.9L16.5,68l7.9,7.7l-1.9,10.9l9.8-5.1l9.8,5.1l-1.9-10.9l7.9-7.7l-10.9-1.6L32.4,56.5z M35.3,0h-5.9l-1.9,3.9
	L16.5,5.5l7.9,7.7l-1.9,10.9l9.8-5.1l9.8,5.1l-1.9-10.9l7.9-7.7L37.3,3.9L35.3,0z M65.1,212.8l-4.9,9.9l-10.9,1.6l7.9,7.7l-1.9,10.9
	l9.8-5.1l9.8,5.1L73,232l7.9-7.7L70,222.7L65.1,212.8z M97.8,87.8l-4.9,9.9L82,99.3l7.9,7.7L88,117.9l9.8-5.1l9.8,5.1l-1.9-10.9
	l7.9-7.7l-10.9-1.6L97.8,87.8z M97.8,150.3l-4.9,9.9L82,161.8l7.9,7.7L88,180.4l9.8-5.1l9.8,5.1l-1.9-10.9l7.9-7.7l-10.9-1.6
	L97.8,150.3z M97.8,56.5l-4.9,9.9L82,68l7.9,7.7L88,86.6l9.8-5.1l9.8,5.1l-1.9-10.9l7.9-7.7l-10.9-1.6L97.8,56.5z M97.8,119
	l-4.9,9.9L82,130.5l7.9,7.7L88,149.1l9.8-5.1l9.8,5.1l-1.9-10.9l7.9-7.7l-10.9-1.6L97.8,119z M135.4,316.5l-4.9-9.9l-4.9,9.9
	l-10.9,1.6l7.9,7.7l-1.9,10.9l9.8-5.1l9.8,5.1l-1.9-10.9l7.9-7.7L135.4,316.5z M97.8,25.2l-4.9,9.9L82,36.7l7.9,7.7L88,55.3l9.8-5.1
	l9.8,5.1l-1.9-10.9l7.9-7.7l-10.9-1.6L97.8,25.2z M100.8,0h-5.9l-1.9,3.9L82,5.5l7.9,7.7L88,24.1l9.8-5.1l9.8,5.1l-1.9-10.9l7.9-7.7
	l-10.9-1.6L100.8,0z M102.7,316.5l-4.9-9.9l-4.9,9.9L82,318.1l7.9,7.7L88,336.7l9.8-5.1l9.8,5.1l-1.9-10.9l7.9-7.7L102.7,316.5z
	 M68.1,0h-5.9l-1.9,3.9L49.3,5.5l7.9,7.7l-1.9,10.9l9.8-5.1l9.8,5.1L73,13.2l7.9-7.7L70,3.9L68.1,0z M65.1,56.5l-4.9,9.9L49.3,68
	l7.9,7.7l-1.9,10.9l9.8-5.1l9.8,5.1L73,75.7l7.9-7.7L70,66.4L65.1,56.5z M97.8,181.6l-4.9,9.9L82,193.1l7.9,7.7L88,211.7l9.8-5.1
	l9.8,5.1l-1.9-10.9l7.9-7.7l-10.9-1.6L97.8,181.6z M65.1,25.2l-4.9,9.9l-10.9,1.6l7.9,7.7l-1.9,10.9l9.8-5.1l9.8,5.1L73,44.5
	l7.9-7.7L70,35.2L65.1,25.2z M97.8,212.8l-4.9,9.9L82,224.3l7.9,7.7L88,242.9l9.8-5.1l9.8,5.1l-1.9-10.9l7.9-7.7l-10.9-1.6
	L97.8,212.8z M97.8,244.1l-4.9,9.9L82,255.6l7.9,7.7L88,274.2l9.8-5.1l9.8,5.1l-1.9-10.9l7.9-7.7l-10.9-1.6L97.8,244.1z M97.8,275.3
	l-4.9,9.9L82,286.8l7.9,7.7L88,305.5l9.8-5.1l9.8,5.1l-1.9-10.9l7.9-7.7l-10.9-1.6L97.8,275.3z M163.2,25.2l-4.9,9.9l-5.8,0.8h21.5
	l-5.8-0.8L163.2,25.2z M32.4,244.1l-4.9,9.9l-10.9,1.6l7.9,7.7l-1.9,10.9l9.8-5.1l9.8,5.1l-1.9-10.9l7.9-7.7L37.3,254L32.4,244.1z
	 M120.7,24.1l9.8-5.1l9.8,5.1l-1.9-10.9l7.9-7.7l-10.9-1.6L133.5,0h-5.9l-1.9,3.9l-10.9,1.6l7.9,7.7L120.7,24.1z M153.4,24.1
	l9.8-5.1l9.8,5.1l-1.9-10.9l7.9-7.7l-10.9-1.6L166.2,0h-5.9l-1.9,3.9l-10.9,1.6l7.9,7.7L153.4,24.1z M120.7,86.6l9.8-5.1l5.3,2.8
	V66.5l-0.4-0.1l-4.9-9.9l-4.9,9.9L114.7,68l7.9,7.7L120.7,86.6z M120.7,180.4l9.8-5.1l5.3,2.8v-17.8l-0.4-0.1l-4.9-9.9l-4.9,9.9
	l-10.9,1.6l7.9,7.7L120.7,180.4z M120.7,117.9l9.8-5.1l5.3,2.8V97.7l-0.4-0.1l-4.9-9.9l-4.9,9.9l-10.9,1.6l7.9,7.7L120.7,117.9z
	 M120.7,149.1l9.8-5.1l5.3,2.8V129l-0.4-0.1l-4.9-9.9l-4.9,9.9l-10.9,1.6l7.9,7.7L120.7,149.1z M120.7,55.3l9.8-5.1l5.3,2.8V36h5.4
	l-5.8-0.8l-4.9-9.9l-4.9,9.9l-10.9,1.6l7.9,7.7L120.7,55.3z M135.8,285.3l-0.4-0.1l-4.9-9.9l-4.9,9.9l-10.9,1.6l7.9,7.7l-1.9,10.9
	l9.8-5.1l9.8,5.1l-1.9-10.9l7.9-7.7h-10.5V285.3z M251.5,24.1l9.8-5.1l9.8,5.1l-1.9-10.9l7.9-7.7l-10.9-1.6L264.3,0h-5.9l-1.9,3.9
	l-10.9,1.6l7.9,7.7L251.5,24.1z M195.9,25.2l-4.9,9.9l-5.8,0.8h21.5l-5.8-0.8L195.9,25.2z M218.8,24.1l9.8-5.1l9.8,5.1l-1.9-10.9
	l7.9-7.7l-10.9-1.6L231.6,0h-5.9l-1.9,3.9l-10.9,1.6l7.9,7.7L218.8,24.1z M186.1,24.1l9.8-5.1l9.8,5.1l-1.9-10.9l7.9-7.7l-10.9-1.6
	L198.9,0h-5.9L191,3.9l-10.9,1.6l7.9,7.7L186.1,24.1z M261.3,25.2l-4.9,9.9l-5.8,0.8h21.5l-5.8-0.8L261.3,25.2z M228.6,25.2
	l-4.9,9.9l-5.8,0.8h21.5l-5.8-0.8L228.6,25.2z M120.7,211.7l9.8-5.1l5.3,2.8v-17.8l-0.4-0.1l-4.9-9.9l-4.9,9.9l-10.9,1.6l7.9,7.7
	L120.7,211.7z M0,119.7v24.5l9.4,5l-1.9-10.9l7.9-7.7l-10.9-1.6L0,119.7z M0,57.2v24.5l9.4,5L7.6,75.7l7.9-7.7L4.6,66.4L0,57.2z
	 M0,88.4v24.5l9.4,5L7.6,107l7.9-7.7L4.6,97.7L0,88.4z M0,25.9v24.5l9.4,5L7.6,44.5l7.9-7.7L4.6,35.2L0,25.9z M120.7,242.9l9.8-5.1
	l5.3,2.8v-17.8l-0.4-0.1l-4.9-9.9l-4.9,9.9l-10.9,1.6l7.9,7.7L120.7,242.9z M2.6,0H0v19.1l9.4,5L7.6,13.2l7.9-7.7L4.6,3.9L2.6,0z
	 M37.3,316.5l-4.9-9.9l-4.9,9.9l-10.9,1.6l7.9,7.7l-1.9,10.9l9.8-5.1l9.8,5.1l-1.9-10.9l7.9-7.7L37.3,316.5z M32.4,275.3l-4.9,9.9
	l-10.9,1.6l7.9,7.7l-1.9,10.9l9.8-5.1l9.8,5.1l-1.9-10.9l7.9-7.7l-10.9-1.6L32.4,275.3z M4.6,316.5L0,307.3v24.5l9.4,5l-1.9-10.9
	l7.9-7.7L4.6,316.5z M0,244.8v24.5l9.4,5l-1.9-10.9l7.9-7.7L4.6,254L0,244.8z M120.7,274.2l9.8-5.1l5.3,2.8v-17.8l-0.4-0.1l-4.9-9.9
	l-4.9,9.9l-10.9,1.6l7.9,7.7L120.7,274.2z M0,182.2v24.5l9.4,5l-1.9-10.9l7.9-7.7l-10.9-1.6L0,182.2z M0,213.5V238l9.4,5L7.6,232
	l7.9-7.7l-10.9-1.6L0,213.5z M0,151v24.5l9.4,5l-1.9-10.9l7.9-7.7l-10.9-1.6L0,151z M0,276v24.5l9.4,5l-1.9-10.9l7.9-7.7l-10.9-1.6
	L0,276z M392.2,244.1l-4.9,9.9l-10.9,1.6l7.9,7.7l-1.9,10.9l9.8-5.1l9.8,5.1l-1.9-10.9l7.9-7.7L397,254L392.2,244.1z M392.2,119
	l-4.9,9.9l-10.9,1.6l7.9,7.7l-1.9,10.9l9.8-5.1l9.8,5.1l-1.9-10.9l7.9-7.7l-10.9-1.6L392.2,119z M397,316.5l-4.9-9.9l-4.9,9.9
	l-10.9,1.6l7.9,7.7l-1.9,10.9l9.8-5.1l9.8,5.1l-1.9-10.9l7.9-7.7L397,316.5z M168.1,316.5l-4.9-9.9l-4.9,9.9l-10.9,1.6l7.9,7.7
	l-1.9,10.9l9.8-5.1l9.8,5.1l-1.9-10.9l7.9-7.7L168.1,316.5z M362.4,0h-5.9l-1.9,3.9l-10.9,1.6l7.9,7.7l-1.9,10.9l9.8-5.1l9.8,5.1
	l-1.9-10.9l7.9-7.7l-10.9-1.6L362.4,0z M392.2,150.3l-4.9,9.9l-10.9,1.6l7.9,7.7l-1.9,10.9l9.8-5.1l9.8,5.1l-1.9-10.9l7.9-7.7
	l-10.9-1.6L392.2,150.3z M392.2,181.6l-4.9,9.9l-10.9,1.6l7.9,7.7l-1.9,10.9l9.8-5.1l9.8,5.1l-1.9-10.9l7.9-7.7l-10.9-1.6
	L392.2,181.6z M392.2,275.3l-4.9,9.9l-10.9,1.6l7.9,7.7l-1.9,10.9l9.8-5.1l9.8,5.1l-1.9-10.9l7.9-7.7l-10.9-1.6L392.2,275.3z
	 M359.4,244.1l-4.9,9.9l-10.9,1.6l7.9,7.7l-1.9,10.9l9.8-5.1l9.8,5.1l-1.9-10.9l7.9-7.7l-10.9-1.6L359.4,244.1z M359.4,25.2
	l-4.9,9.9l-10.9,1.6l7.9,7.7l-1.9,10.9l9.8-5.1l9.8,5.1l-1.9-10.9l7.9-7.7l-10.9-1.6L359.4,25.2z M359.4,212.8l-4.9,9.9l-10.9,1.6
	l7.9,7.7l-1.9,10.9l9.8-5.1l9.8,5.1l-1.9-10.9l7.9-7.7l-10.9-1.6L359.4,212.8z M359.4,150.3l-4.9,9.9l-10.9,1.6l7.9,7.7l-1.9,10.9
	l9.8-5.1l9.8,5.1l-1.9-10.9l7.9-7.7l-10.9-1.6L359.4,150.3z M359.4,56.5l-4.9,9.9L343.6,68l7.9,7.7l-1.9,10.9l9.8-5.1l9.8,5.1
	l-1.9-10.9l7.9-7.7l-10.9-1.6L359.4,56.5z M359.4,119l-4.9,9.9l-10.9,1.6l7.9,7.7l-1.9,10.9l9.8-5.1l9.8,5.1l-1.9-10.9l7.9-7.7
	l-10.9-1.6L359.4,119z M359.4,87.8l-4.9,9.9l-10.9,1.6l7.9,7.7l-1.9,10.9l9.8-5.1l9.8,5.1l-1.9-10.9l7.9-7.7l-10.9-1.6L359.4,87.8z
	 M359.4,181.6l-4.9,9.9l-10.9,1.6l7.9,7.7l-1.9,10.9l9.8-5.1l9.8,5.1l-1.9-10.9l7.9-7.7l-10.9-1.6L359.4,181.6z M420,97.7L409,99.3
	l7.9,7.7l-1.9,10.9l9.8-5.1l0.3,0.2V88.4l-0.3-0.7L420,97.7z M420,191.5l-10.9,1.6l7.9,7.7l-1.9,10.9l9.8-5.1l0.3,0.2v-24.5
	l-0.3-0.7L420,191.5z M420,160.2l-10.9,1.6l7.9,7.7l-1.9,10.9l9.8-5.1l0.3,0.2V151l-0.3-0.7L420,160.2z M420,128.9l-10.9,1.6
	l7.9,7.7l-1.9,10.9l9.8-5.1l0.3,0.2v-24.5l-0.3-0.7L420,128.9z M392.2,87.8l-4.9,9.9l-10.9,1.6l7.9,7.7l-1.9,10.9l9.8-5.1l9.8,5.1
	l-1.9-10.9l7.9-7.7L397,97.7L392.2,87.8z M421.9,0L420,3.9L409,5.5l7.9,7.7l-1.9,10.9l9.8-5.1l0.3,0.2V0H421.9z M420,35.2L409,36.7
	l7.9,7.7l-1.9,10.9l9.8-5.1l0.3,0.2V25.9l-0.3-0.7L420,35.2z M420,66.4L409,68l7.9,7.7l-1.9,10.9l9.8-5.1l0.3,0.2V57.2l-0.3-0.7
	L420,66.4z M392.2,25.2l-4.9,9.9l-10.9,1.6l7.9,7.7l-1.9,10.9l9.8-5.1l9.8,5.1l-1.9-10.9l7.9-7.7L397,35.2L392.2,25.2z M392.2,56.5
	l-4.9,9.9L376.3,68l7.9,7.7l-1.9,10.9l9.8-5.1l9.8,5.1l-1.9-10.9L408,68L397,66.4L392.2,56.5z M395.1,0h-5.9l-1.9,3.9l-10.9,1.6
	l7.9,7.7l-1.9,10.9l9.8-5.1l9.8,5.1l-1.9-10.9l7.9-7.7L397,3.9L395.1,0z M420,316.5l-10.9,1.6l7.9,7.7l-1.9,10.9l9.8-5.1l0.3,0.2
	v-24.5l-0.3-0.7L420,316.5z M420,254l-10.9,1.6l7.9,7.7l-1.9,10.9l9.8-5.1l0.3,0.2v-24.5l-0.3-0.7L420,254z M420,285.3l-10.9,1.6
	l7.9,7.7l-1.9,10.9l9.8-5.1l0.3,0.2V276l-0.3-0.7L420,285.3z M420,222.7l-10.9,1.6l7.9,7.7l-1.9,10.9l9.8-5.1l0.3,0.2v-24.5
	l-0.3-0.7L420,222.7z M392.2,212.8l-4.9,9.9l-10.9,1.6l7.9,7.7l-1.9,10.9l9.8-5.1l9.8,5.1l-1.9-10.9l7.9-7.7l-10.9-1.6L392.2,212.8z
	 M294,244.1l-4.9,9.9l-3.4,0.5v8.4l0.4,0.4l-0.4,2.2v7.9l8.3-4.4l9.8,5.1l-1.9-10.9l7.9-7.7l-10.9-1.6L294,244.1z M294,275.3
	l-4.9,9.9l-3.4,0.5v1.1h-7.5l7.9,7.7l-1.9,10.9l9.8-5.1l9.8,5.1l-1.9-10.9l7.9-7.7l-10.9-1.6L294,275.3z M294,212.8l-4.9,9.9
	l-3.4,0.5v8.4l0.4,0.4l-0.4,2.2v7.9l8.3-4.4l9.8,5.1l-1.9-10.9l7.9-7.7l-10.9-1.6L294,212.8z M359.4,275.3l-4.9,9.9l-10.9,1.6
	l7.9,7.7l-1.9,10.9l9.8-5.1l9.8,5.1l-1.9-10.9l7.9-7.7l-10.9-1.6L359.4,275.3z M294,119l-4.9,9.9l-3.4,0.5v8.4l0.4,0.4l-0.4,2.2v7.9
	l8.3-4.4l9.8,5.1l-1.9-10.9l7.9-7.7l-10.9-1.6L294,119z M294,150.3l-4.9,9.9l-3.4,0.5v8.4l0.4,0.4l-0.4,2.2v7.9l8.3-4.4l9.8,5.1
	l-1.9-10.9l7.9-7.7l-10.9-1.6L294,150.3z M294,87.8l-4.9,9.9l-3.4,0.5v8.4l0.4,0.4l-0.4,2.2v7.9l8.3-4.4l9.8,5.1l-1.9-10.9l7.9-7.7
	l-10.9-1.6L294,87.8z M298.9,316.5l-4.9-9.9l-4.9,9.9l-10.9,1.6l7.9,7.7l-1.9,10.9l9.8-5.1l9.8,5.1l-1.9-10.9l7.9-7.7L298.9,316.5z
	 M188,294.6l-1.9,10.9l9.8-5.1l9.8,5.1l-1.9-10.9l7.9-7.7h-31.7L188,294.6z M200.8,316.5l-4.9-9.9l-4.9,9.9l-10.9,1.6l7.9,7.7
	l-1.9,10.9l9.8-5.1l9.8,5.1l-1.9-10.9l7.9-7.7L200.8,316.5z M155.3,294.6l-1.9,10.9l9.8-5.1l9.8,5.1l-1.9-10.9l7.9-7.7h-31.7
	L155.3,294.6z M233.5,316.5l-4.9-9.9l-4.9,9.9l-10.9,1.6l7.9,7.7l-1.9,10.9l9.8-5.1l9.8,5.1l-1.9-10.9l7.9-7.7L233.5,316.5z
	 M253.4,294.6l-1.9,10.9l9.8-5.1l9.8,5.1l-1.9-10.9l7.9-7.7h-31.7L253.4,294.6z M266.2,316.5l-4.9-9.9l-4.9,9.9l-10.9,1.6l7.9,7.7
	l-1.9,10.9l9.8-5.1l9.8,5.1l-1.9-10.9l7.9-7.7L266.2,316.5z M220.7,294.6l-1.9,10.9l9.8-5.1l9.8,5.1l-1.9-10.9l7.9-7.7h-31.7
	L220.7,294.6z M294,181.6l-4.9,9.9l-3.4,0.5v8.4l0.4,0.4l-0.4,2.2v7.9l8.3-4.4l9.8,5.1l-1.9-10.9l7.9-7.7l-10.9-1.6L294,181.6z
	 M326.7,87.8l-4.9,9.9l-10.9,1.6l7.9,7.7l-1.9,10.9l9.8-5.1l9.8,5.1l-1.9-10.9l7.9-7.7l-10.9-1.6L326.7,87.8z M326.7,56.5l-4.9,9.9
	L310.9,68l7.9,7.7L317,86.6l9.8-5.1l9.8,5.1l-1.9-10.9l7.9-7.7l-10.9-1.6L326.7,56.5z M326.7,150.3l-4.9,9.9l-10.9,1.6l7.9,7.7
	l-1.9,10.9l9.8-5.1l9.8,5.1l-1.9-10.9l7.9-7.7l-10.9-1.6L326.7,150.3z M326.7,119l-4.9,9.9l-10.9,1.6l7.9,7.7l-1.9,10.9l9.8-5.1
	l9.8,5.1l-1.9-10.9l7.9-7.7l-10.9-1.6L326.7,119z M364.3,316.5l-4.9-9.9l-4.9,9.9l-10.9,1.6l7.9,7.7l-1.9,10.9l9.8-5.1l9.8,5.1
	l-1.9-10.9l7.9-7.7L364.3,316.5z M329.7,0h-5.9l-1.9,3.9l-10.9,1.6l7.9,7.7L317,24.1l9.8-5.1l9.8,5.1l-1.9-10.9l7.9-7.7l-10.9-1.6
	L329.7,0z M326.7,25.2l-4.9,9.9l-10.9,1.6l7.9,7.7L317,55.3l9.8-5.1l9.8,5.1l-1.9-10.9l7.9-7.7l-10.9-1.6L326.7,25.2z M326.7,275.3
	l-4.9,9.9l-10.9,1.6l7.9,7.7l-1.9,10.9l9.8-5.1l9.8,5.1l-1.9-10.9l7.9-7.7l-10.9-1.6L326.7,275.3z M331.6,316.5l-4.9-9.9l-4.9,9.9
	l-10.9,1.6l7.9,7.7l-1.9,10.9l9.8-5.1l9.8,5.1l-1.9-10.9l7.9-7.7L331.6,316.5z M326.7,181.6l-4.9,9.9l-10.9,1.6l7.9,7.7l-1.9,10.9
	l9.8-5.1l9.8,5.1l-1.9-10.9l7.9-7.7l-10.9-1.6L326.7,181.6z M294,25.2l-4.9,9.9l-5.8,0.8h2.4v8.1l0.4,0.4l-0.4,2.2v7.9l8.3-4.4
	l9.8,5.1l-1.9-10.9l7.9-7.7l-10.9-1.6L294,25.2z M297,0h-5.9l-1.9,3.9l-10.9,1.6l7.9,7.7l-1.9,10.9l9.8-5.1l9.8,5.1l-1.9-10.9
	l7.9-7.7l-10.9-1.6L297,0z M326.7,212.8l-4.9,9.9l-10.9,1.6l7.9,7.7l-1.9,10.9l9.8-5.1l9.8,5.1l-1.9-10.9l7.9-7.7l-10.9-1.6
	L326.7,212.8z M294,56.5l-4.9,9.9l-3.4,0.5v8.4l0.4,0.4l-0.4,2.2v7.9l8.3-4.4l9.8,5.1l-1.9-10.9l7.9-7.7l-10.9-1.6L294,56.5z
	 M326.7,244.1l-4.9,9.9l-10.9,1.6l7.9,7.7l-1.9,10.9l9.8-5.1l9.8,5.1l-1.9-10.9l7.9-7.7l-10.9-1.6L326.7,244.1z"/>
<g id="text_background">
	<rect x="85.2" y="56.5" class="st2" width="255.1" height="40.5"/>
	<rect x="85.2" y="56.5" class="rpl3-1" width="255.1" height="40.5"/>
</g>
<g id="alpstories_background">
	<rect x="85" y="0" class="st2" width="255.1" height="57.3"/>
	<rect x="85" y="0" class="rpl4-1" width="255.1" height="57.3"/>
</g>
<rect id="text_background_left" class="svgRibbon" width="85" height="328.1"/>
<rect id="text_background_right" x="340.2" class="svgRibbon" width="85" height="328.1"/>
<g id="gift_box">
	<path d="M100.7,301.5l18.1,22.7l52.1-13.7c0,0-35.9-11.5-35.9-11.1C134.9,299.8,100.7,301.5,100.7,301.5z"/>
	<g>
		<polygon class="st6" points="98.5,252.1 100.7,301.5 120.6,321.9 119.6,261.1 		"/>
		<polygon class="st7" points="174.5,256.1 144.7,248.8 97.8,252 119.3,261.2 		"/>
		<polygon class="st6" points="119.6,261.1 120.6,321.9 170.9,310.4 173.8,256.1 		"/>
		<path class="st8" d="M173.8,256.1l-54.2,5l0.3,16.7c5.1,9.8,15.4,16.4,27.2,16.4c10.6,0,19.9-9,25.4-17.2L173.8,256.1z"/>
		<polygon class="st7" points="119.6,261.1 119.6,261.1 174.5,256.1 173.6,268.5 119.8,274.5 		"/>
		<polygon class="st9" points="173.6,268 119.8,273.9 119.6,261.1 119.6,261.1 119.8,274.5 173.6,268.5 174.5,256.1 174.5,256.1 		
			"/>
		<path class="st8" d="M174.5,256.1l-54.9,5l0,1.9c4.4,4.7,15.3,7.6,27.9,6.8c12.5-0.8,22.9-4.9,26.7-10.1L174.5,256.1z"/>
		<polygon class="st10" points="174.5,256.6 174.5,256.1 119.6,261.1 119.6,261.3 		"/>
		<path class="st8" d="M119.8,273.9l-0.2-11.5c-0.1-0.5-0.2-0.9-0.3-1.4l-18.3-7.6c-1.2,1.7-1.7,4.1-2.1,7l0.6,13.2
			c1.7,7.8,5.5,14.6,9.9,14.6C114.4,288.2,118.6,282.1,119.8,273.9z"/>
		<polygon class="st7" points="97.8,252 98.3,263.9 119.6,274.3 119.5,261.1 		"/>
		<polygon class="st9" points="98.3,263.3 97.8,252 97.8,252 98.3,263.9 119.8,274.5 119.8,273.8 		"/>
		<path class="st8" d="M109.2,266.8c4.5,1.2,8.6-1.7,10.4-5.5l0-0.3L97.8,252l0.1,2.1C98.3,259,100.4,264.4,109.2,266.8z"/>
		<polygon class="st11" points="119.6,261.3 119.8,274.5 119.6,261.1 97.8,252 97.8,252.5 		"/>
		<polygon class="st9" points="112.1,313.1 105.8,306.8 104.1,254.8 112.3,258 		"/>
		<polygon class="st12" points="112.1,313.1 105.8,306.8 104.1,254.8 111.4,257.6 		"/>
		<polygon class="st12" points="164.7,253.7 154,251 104.1,254.8 111.4,257.6 		"/>
		<polygon class="st12" points="155,314.1 143.1,316.8 143.1,258.9 157.4,257.6 		"/>
		<polygon class="st12" points="127.4,249.9 116,250.7 143.1,258.9 157.4,257.6 		"/>
		<g>
			<path class="st12" d="M136.5,251c0,0,4.4-6.3,9.9-5c1.5,0.3,4.4,5.3,2.3,7.5c-1.2-3.4-11.4-0.9-11.5,0
				C136.1,254.3,136.5,251,136.5,251z"/>
			<path class="st13" d="M136.4,251.3c0,0.1,0,0.2,0,0.3c4.6-4.5,9.1-5.9,11.7-4c-0.2-0.3-0.5-0.6-0.7-0.9
				C144.2,245.3,140.2,247.2,136.4,251.3z"/>
			<path class="st12" d="M134.6,252.4c0,0,4.4,9,4.7,17.6c3.2-2.7,3.6-7.3,3.6-7.3s4.4,2.8,7,4.7c-1.3-10.1-13.8-15.7-13.8-15.7
				L134.6,252.4z"/>
			<g>
				<path class="st13" d="M140.1,269.1c0.5-0.6,1-1.2,1.3-1.9c-0.8-3.3-2.8-10.4-6.3-15.1l-0.3,0.1
					C135.8,253.6,139.1,259.7,140.1,269.1z"/>
				<path class="st13" d="M149.5,267.1c-0.6-2.5-2.9-9.9-13.6-15.2l-0.3,0.1c4.7,2.3,11.1,8.4,12.3,13.9
					C148.5,266.3,149,266.7,149.5,267.1z"/>
			</g>
			<path class="st14" d="M143.6,261.7c1.5,0.3,2.8-0.1,3.9-0.7c-3.2-4.7-8.4-7.7-10.4-8.7c-0.6,0.2-2.7,1.1-1.6,1.4
				C135.5,253.6,138.9,260.4,143.6,261.7z"/>
			<path class="st12" d="M137.6,252.3c0,0-5.2,8.7-6.3,17c-2.9-2.9-2.9-7.4-2.9-7.4s-4.6,2.4-7.3,4.1c2.1-9.8,15-14.5,15-14.5
				L137.6,252.3z"/>
			<path class="st15" d="M144,261.1c-4.7-1.2-8.1-8.1-8.1-8.1l3.3,0l6.2,3.4l0.8,3.2C146.1,259.6,147.6,261,144,261.1z"/>
			<g>
				<path class="st13" d="M136.3,251.7c-11,4.5-14,11.6-14.7,14c0.5-0.3,1.1-0.7,1.7-1c1.6-5.3,8.5-10.9,13.4-12.9L136.3,251.7z"/>
				<path class="st13" d="M129.4,266.5c0.3,0.7,0.7,1.3,1.1,1.9c1.9-9.2,5.7-15,6.8-16.3L137,252
					C133.1,256.5,130.4,263.4,129.4,266.5z"/>
			</g>
			<path class="st12" d="M137.6,251.6c0,0,9.2-0.1,12.6,4.5c1,1.3-2,5.9-6.1,5c2.6-2.4-7.3-8.4-8.1-8.1
				C134.6,252.7,137.6,251.6,137.6,251.6z"/>
			<g>
				<path class="st13" d="M137.3,251.7c-0.1,0-0.2,0.1-0.3,0.1c7.5,1,12.7,3.6,12.8,6.5c0.2-0.3,0.3-0.7,0.4-1
					C149.1,254.2,143.8,252.3,137.3,251.7z"/>
				<path class="st13" d="M144.9,261.2c0.2,0,0.5,0,0.7,0c3-2.3-7-8.4-9.4-8.4c-0.2,0-0.4,0-0.6,0c0,0,0,0.1,0,0.1
					c0.1,0,0.3,0,0.5,0C138.2,252.9,147.6,258.6,144.9,261.2z"/>
			</g>
			<path class="st14" d="M137.6,251.6c0,0-0.6,0.2-1.1,0.5c-0.4,0.5-0.5,0.9,0.1,0.8c0,0,5.7,5.8,10.2,5.4c1.5-0.2,2.5-1.2,3.1-2.4
				C146.4,251.5,137.6,251.6,137.6,251.6z"/>
			<path class="st15" d="M147.3,257.7c-4.5,0.7-10.5-4.9-10.5-4.9l2.9-1.2l6.7,1.1l2,2.8C148.4,255.4,150.1,256.2,147.3,257.7z"/>
			<path class="st14" d="M135.5,252.5c0,0-0.6,0-1.4,0c-2.5,1.2-7,3.7-10,7.6c1,1,2.5,1.7,4.2,1.4c3-0.6,5.7-3.4,7.3-5.4
				c0.6-1.2,1-2.1,1.4-2.7C136.4,252.9,135.5,252.5,135.5,252.5z"/>
			<path class="st14" d="M149,249.3c-4.9-2.1-11.9,1.8-11.9,1.8s-0.4,0.5-0.7,1.1c0,0.4,0,0.8,0.1,1.1c0.1-0.1,0.5-0.2,1.1-0.2
				c2.1-1,10-2.6,11,0.4C149.6,252.4,149.5,250.8,149,249.3z"/>
			<path class="st12" d="M137.7,250.7c0,0,7.9-3.2,12.4,0c1.3,0.9,0.8,6.2-2.9,6.9c1.1-3.2-9.8-5.5-10.5-4.9
				C135.5,253,137.7,250.7,137.7,250.7z"/>
			<g>
				<path class="st13" d="M137.5,251c-0.1,0.1-0.1,0.1-0.2,0.2c6.9-1.7,12.2-1,13.5,1.7c0-0.4,0-0.7-0.1-1
					C148.5,249.3,143.4,249.3,137.5,251z"/>
				<path class="st13" d="M136.9,252.4c-0.2,0.1-0.4,0.2-0.5,0.2c0,0,0,0.1,0,0.1c0.1,0,0.3-0.1,0.4-0.2c1.9-0.7,12.2,1.4,11.1,4.9
					c0.2-0.1,0.4-0.2,0.6-0.3C149.9,253.9,139.1,251.6,136.9,252.4z"/>
			</g>
			<path class="st12" d="M135.7,251c0,0-3.7-6.5-9.3-5.6c-1.5,0.2-4.8,4.9-2.9,7.2c1.5-3.3,11.3-0.2,11.3,0.7
				C135.8,254.3,135.7,251,135.7,251z"/>
			<path class="st13" d="M135.7,251.6c0-0.1,0-0.2,0-0.3c-3.3-4.3-7.1-6.5-10.4-5.2c-0.3,0.2-0.5,0.5-0.8,0.8
				C127.2,245.2,131.5,246.8,135.7,251.6z"/>
			<path class="st15" d="M127.2,260.5c4.7-0.9,8.8-7.5,8.8-7.5l-3.2-0.2l-6.4,3l-1.1,3.1C125.3,258.9,123.7,260.2,127.2,260.5z"/>
			<path class="st12" d="M134.5,251.5c0,0-9-0.6-12.8,3.7c-1.1,1.2,1.4,5.9,5.5,5.3c-2.3-2.5,8-7.8,8.8-7.5
				C137.3,252.8,134.5,251.5,134.5,251.5z"/>
			<path class="st14" d="M134.5,251.5c0,0-8.5-0.6-12.4,3.4c0.4,1.2,1.3,2.3,2.7,2.7c4.3,0.9,10.3-4.7,10.3-4.7l0.3,0.4
				c0.1,0,0.1,0,0.1,0.1c0.1,0,0.2,0,0.3,0c0.1-0.1,0.1-0.1,0.1-0.2c0-0.3-0.4-0.9-0.7-1.3C134.8,251.6,134.5,251.5,134.5,251.5z"/>
			<path class="st15" d="M124.4,256.9c4.3,0.9,10.8-4.2,10.8-4.2l-2.8-1.4l-6.7,0.7l-2.2,2.6C123.5,254.6,121.8,255.3,124.4,256.9z"
				/>
			<path class="st14" d="M134.6,250.7c0,0-6.4-3.6-11.1-2c-0.6,1.4-0.8,2.9,0,4c0.9-2,5.1-1.6,8.1-0.8c1.9-0.3,3.4-0.4,3.6-0.1
				C136.5,252.1,134.6,250.7,134.6,250.7z"/>
			<path class="st12" d="M134.4,250.6c0,0-7.5-3.6-12.2-0.7c-1.3,0.8-1.4,6.1,2.2,7c-0.8-3.3,10.2-4.8,10.8-4.2
				C136.5,253.1,134.4,250.6,134.4,250.6z"/>
			<g>
				<path class="st13" d="M135.1,252.5c0.2,0.1,0.3,0.1,0.4,0.2c0,0,0-0.1,0-0.1c-0.2-0.1-0.3-0.2-0.5-0.3c-2.1-1-12.9,0.6-11.9,4
					c0.2,0.1,0.3,0.2,0.5,0.3C123,253.2,133.3,251.7,135.1,252.5z"/>
				<path class="st13" d="M134.8,251.1c-0.1-0.1-0.1-0.2-0.2-0.2c-5.6-2-10.6-2.3-13.1,0c-0.1,0.3-0.1,0.6-0.2,1
					C122.9,249.4,128.1,249,134.8,251.1z"/>
			</g>
			<path class="st14" d="M135.9,250.6c-1.1,0-2-0.6-2.2,1.8c-0.1,2.5,0.8,1.9,2,2c1.2,0,2.1,0.7,2.2-1.9
				C137.9,250.1,137,250.7,135.9,250.6z"/>
			<path class="st15" d="M135.9,250.6c-0.9,0-1.6-0.6-1.8,1.8c-0.1,2.5,0.7,1.9,1.7,2c1,0,1.7,0.7,1.8-1.9
				C137.6,250.1,136.8,250.7,135.9,250.6z"/>
		</g>
		<g>
			<path class="st16" d="M119.7,298.2c0.2,12.3,0.6,22.4,0.9,23.6l-0.8-46.9C119.6,276.7,119.5,286.4,119.7,298.2z"/>
			<path class="st17" d="M121,298.1c-0.2-13.1-0.7-23.7-1-23.7c0,0-0.1,0.1-0.1,0.3l0.8,46.9c0,0.1,0,0.1,0.1,0.1
				c0.3,0,0.4-9.8,0.3-22.3C121,299.1,121,298.6,121,298.1z"/>
		</g>
		<g>
			<path class="st18" d="M119.9,267.8c-0.1-3.6-0.2-6.5-0.4-6.7l0.3,13.3C120,274.1,120,271.2,119.9,267.8z"/>
			<path class="st16" d="M119.5,261.1c-0.1,0-0.2,3-0.1,6.7c0.1,3.7,0.2,6.7,0.4,6.7c0,0,0,0,0,0L119.5,261.1
				C119.6,261.1,119.6,261.1,119.5,261.1z"/>
		</g>
	</g>
</g>
<g id="car_bottom">
	<path d="M170.6,305l1.2,0.6l5.5,1.8c0,0,1.1,1.2,1.1,1.8s0,4.4,0,4.4s-3.6-0.1-7.7-2.2c-4.1-2.1-4.5-4.7-4.5-4.7V305H170.6z"/>
	<path d="M318.7,301.4c0,0-93.9,21.6-109.3,25.6s-44.5-15.5-44.5-15.5l160-43.2L318.7,301.4z"/>
	<g>
		<path class="st19" d="M244,309.6c2.4-7.8-0.8-15.9-7.4-18.6c-1.3-1.1-2.8-2-4.4-2.5c-7.2-2.2-15.1,2.6-17.6,10.9
			c-1.7,5.6-0.6,11.4,2.7,15.1c0,0,0,0,0,0c3.5,5,10,6.2,10,6.2l0,0C234.2,322.4,241.6,317.6,244,309.6z"/>
		<path class="st20" d="M242,309.2c-1.9,6.1-7.5,10.1-13,9c-6-1.3-9.4-8.2-7.2-15.3s9-10.8,14.6-8.5
			C241.5,296.6,243.9,303.1,242,309.2z"/>
		<g>
			<path class="st21" d="M234.9,304.3l6.5,0.7c0-3.8-1.9-7.3-5-8.8L234.9,304.3z"/>
			<path class="st21" d="M231.9,303.3l3.4-7.5c-3.5-1.1-7.5,0.4-10,3.7L231.9,303.3z"/>
			<path class="st21" d="M231.7,309.2l-6.8,4.6c1.1,1.4,2.7,2.4,4.5,2.8c1.8,0.4,3.5,0.2,5.1-0.5L231.7,309.2z"/>
			<path class="st21" d="M234.7,307.9l0.9,7.7c2.3-1.4,4.3-3.7,5.2-6.7c0.3-0.8,0.4-1.7,0.5-2.5L234.7,307.9z"/>
			<path class="st21" d="M224.2,312.8l5.7-6.3l-5.4-5.7c-0.5,0.8-0.9,1.7-1.2,2.7C222.2,306.8,222.7,310.2,224.2,312.8z"/>
		</g>
	</g>
	<g>
		<path class="st19" d="M328.9,291.7c2.2-7,0.4-15.2-5-17.5c-1.1-1-3.2-0.7-4.6-1.1c-6-1.9-12.8,2.6-15,9.9c-1.6,5-0.6,10.1,2,13.4
			c0,0,0,0,0,0c2.8,4.4,8.3,5.4,8.3,5.4l0,0C320.4,303.2,326.7,298.8,328.9,291.7z"/>
		<path class="st20" d="M327.2,291.4c-1.7,5.4-6.5,9.1-11.1,8.2c-5-1-7.8-7.1-5.9-13.5c2-6.4,7.7-9.8,12.5-7.8
			C327,280.2,328.9,286,327.2,291.4z"/>
		<g>
			<path class="st21" d="M321.3,287.1l5.5,0.6c0-3.4-1.5-6.4-4.1-7.7L321.3,287.1z"/>
			<path class="st21" d="M318.8,286.3l3-6.7c-3-0.9-6.3,0.5-8.5,3.4L318.8,286.3z"/>
			<path class="st21" d="M318.5,291.6l-5.8,4.2c0.9,1.2,2.2,2.1,3.7,2.4c1.5,0.3,3,0.1,4.3-0.5L318.5,291.6z"/>
			<path class="st21" d="M321.1,290.3l0.6,6.8c2-1.2,3.6-3.4,4.5-6c0.2-0.8,0.4-1.5,0.5-2.2L321.1,290.3z"/>
			<path class="st21" d="M312.1,294.8l4.9-5.7l-4.5-5c-0.4,0.7-0.8,1.5-1,2.4C310.5,289.6,310.9,292.6,312.1,294.8z"/>
		</g>
	</g>
	<path class="st22" d="M167.1,306.7c0,0,1.8,3.5,2.9,4.2c2.5,1.7,7.5,2.1,7.5,2.1l0.7,1.5c0,0-6.4-1.1-9.1-3.1
		c-1.5-1.3-3.3-5.1-3.3-5.1l0.8,0.2L167.1,306.7z"/>
</g>
<path id="car_color" class="rpl23-1" d="M166.5,298l-2.4,3.3c0,0,1,4.2,1.2,5.1c0.2,0.9,5.9-0.6,5.9-0.6s0.3,0.8,2.2,1.7
	s3.8,1.8,3.8,1.8s0.1,3.7,0.8,5.6s6.9,3.4,12.6,4.3c5.8,1,23.6-1.4,23.6-1.4s2.5,0.3,2.4-2c-0.5-4.9,2.6-24.6,17.6-24.6
	c12.9,0.1,11.2,13.8,11.3,16.7c0,0-0.9,3.2,2,2.6c2.9-0.7,53.4-12.2,57.1-12.8c2.6-0.4,2.5-0.2,2.2-2.8c-0.3-2.6,1.9-20.4,14.9-20.8
	c9.1,0.3,6.9,12.6,6.9,12.6s1.8-0.4,2.3-3.3s0.4-4.2,0-8.3s0.2-11.1-1.7-11.6c-3.5-1.1-16.4-8.3-29.3-9.6c-6.1-1-20.1-1.5-30.5-1.8
	s-26.6,0.6-36.9,2.2c-10.3,1.5-28.7,10.9-36.3,14.3s-13.2,3.7-18.4,8c-5.2,4.3-8.6,12-10.2,12.6c-1.7,0.6-1-2.3-1-2.3l-2.7,4.3
	L166.5,298z"/>
<g id="car_top">
	<g>
		<path class="st22" d="M167.6,289.5C167.6,289.5,167.6,289.5,167.6,289.5C167.6,289.5,167.6,289.5,167.6,289.5
			C167.6,289.5,167.6,289.5,167.6,289.5z"/>
		<path class="st22" d="M167.2,289.6c-0.1,0-0.1,0-0.2,0C167,289.6,167.1,289.6,167.2,289.6z"/>
		<path class="st22" d="M167.3,289.6C167.3,289.6,167.3,289.6,167.3,289.6C167.3,289.6,167.3,289.6,167.3,289.6z"/>
		<path class="st22" d="M167.8,289.4C167.8,289.4,167.7,289.4,167.8,289.4C167.7,289.4,167.8,289.4,167.8,289.4z"/>
		<path class="st21" d="M167.1,289.3c0.1,0,0.1,0,0.2,0c0,0,0.1,0,0.1,0c0,0,0,0,0,0c0.1,0,0.2,0,0.2-0.1c0,0,0,0,0.1,0
			c0,0,0.1,0,0.1,0c0,0,0,0,0.1,0c1.7-1.1,5-8.4,10-12.5c0,0-4.3,3.1-7.5,6c-3.1,3-3.8,4.3-3.8,4.3S166.3,289,167.1,289.3z"/>
		<path class="st22" d="M167.2,289C167.2,289,167.1,289,167.2,289c-0.2-0.1-0.3-0.9-0.1-1.7c0.1-0.3,0.9-1.6,3.6-4.1
			c0.7-0.7,1.5-1.4,2.3-2c-1.1,1.5-2.1,3-2.9,4.2c-1.1,1.7-2,3.1-2.6,3.5c0,0-0.1,0-0.1,0l0,0C167.3,289,167.3,289,167.2,289
			L167.2,289z"/>
		<path class="st21" d="M167.9,289.2C167.9,289.2,167.8,289.2,167.9,289.2C167.8,289.2,167.9,289.2,167.9,289.2z"/>
		<path class="st22" d="M167.7,289.4C167.7,289.5,167.6,289.5,167.7,289.4C167.6,289.5,167.7,289.5,167.7,289.4z"/>
		<path class="st21" d="M167.7,289.2c-0.1,0-0.2,0.1-0.2,0.1C167.6,289.3,167.6,289.3,167.7,289.2z"/>
		<path class="st22" d="M167.6,289.5c-0.1,0-0.2,0.1-0.2,0.1C167.4,289.6,167.5,289.5,167.6,289.5z"/>
		<path class="st21" d="M167.4,289.3C167.4,289.3,167.4,289.3,167.4,289.3C167.4,289.3,167.4,289.3,167.4,289.3
			C167.4,289.3,167.4,289.3,167.4,289.3z"/>
		<path class="st22" d="M167.2,289.6C167.2,289.6,167.3,289.6,167.2,289.6C167.2,289.6,167.2,289.6,167.2,289.6
			C167.2,289.6,167.2,289.6,167.2,289.6z"/>
	</g>
	<path class="st21" d="M168.3,290.7l5.6,6.4c0,0,14.3,5.1,14.1,5.1c-0.2,0-14.6-3.4-14.6-3.4L168.3,290.7z"/>
	<path class="st24" d="M284.9,260.3c0,0,27.7-1.8,27.5,0c-2.2,0.7-10,3-10,3s4.8,2.1,3.4,2.8c-1.5,0.7-3.3,1.4-3.3,1.4
		s0.5-2.2-2-1.4c-2.6,0.7-13.9,4-13.9,4l-2.3-0.9l14.5-6.6L284.9,260.3z"/>
	<path class="st21" d="M177.8,306.6c0,0,4,6.3,5.7,7.5c1.7,1.1,10.3,2.3,10.3,2.3s3.9-1.3,4-2.2c0.1-0.9-5.3-6.4-5.3-6.4
		L177.8,306.6z"/>
	<path class="st21" d="M165,301.2c-0.2-0.4,1.4-1.9,1.4-1.9l1.6,1.9l-1.5,2.3C166.5,303.5,166.7,299.7,165,301.2z"/>
	<path class="st21" d="M214.8,312.6c0,0-1.6-22.1,20.4-22.5c-19.9,0.4-19.3,22.5-19.3,22.5H214.8z"/>
	<path class="st21" d="M304.6,295c0,0-1.6-22.1,20.4-22.5c-19.9,0.4-19.3,22.5-19.3,22.5H304.6z"/>
	<path class="st22" d="M282.2,269.1l16-6.5c-2-0.3-7.9-1.3-16.2-1.3c-4.1,0-8.3,0.2-12.5,0.7c-12.6,1.4-25.5,13.5-30,18.1l10.4,0.2
		l0,0.1l3.5-1.2c0,0-3.8-1.4-0.7-4c3.1-2.6,7.4,1.7,7.4,1.7L282.2,269.1L282.2,269.1z"/>
	<g>
		<polygon class="st21" points="293,277.3 302,275.6 293.5,290 295.5,292.1 305.7,274.3 		"/>
		<path class="st21" d="M290.6,272.2c-1.7-0.8-5.8-2.9-5.8-2.9l14.7-5.9c0,0,1.4-1.3-0.6-1.6c-2-0.3-13.4-2.6-29.6-0.7
			S237,281.2,237,281.2l11.7,0.3l-0.4,25c0,0,33.1-8.1,34.4-8.2c1.2-0.1,1.9-2.2,2-3.3c0.2-1-0.8-0.4-0.4-1.1s7.5-15.1,7.9-15.6
			c0.3-0.4,0.6-0.7,0.8-0.9c0.1-0.1,0.1-0.2,0.1-0.2S292.3,273,290.6,272.2z M291.4,277.6c-0.1,0.2-0.5,0.6-8,15.7l0,0.1
			c-0.2,0.4-0.2,0.8-0.1,1.2c0.1,0.2,0.2,0.4,0.4,0.5c-0.3,1.2-0.8,2.1-1,2.1c-1.1,0.1-25.4,6-33.1,7.9l0.4-24.6l0-0.1l-10.4-0.2
			c4.5-4.6,17.4-16.6,30-18.1c4.2-0.5,8.4-0.7,12.5-0.7c8.3,0,14.2,1,16.2,1.3l-16,6.5l0.1,0l7.9,4c0.7,0.4,1.4,2.2,1.8,3.7
			L291.4,277.6z"/>
	</g>
	<g>
		<path class="st25" d="M247.4,280.3l6.6-12.1c-1.1,0.7-2.2,1.5-3.3,2.2c0,0,0,0,0,0c-0.5,0.4-1,0.7-1.5,1.1c0,0-0.1,0.1-0.1,0.1
			c-0.5,0.4-0.9,0.7-1.4,1.1l-4.1,7.5L247.4,280.3z"/>
		<path class="st25" d="M248.1,280.3l1.5,0l2-3.6c0.1-0.3,0.2-0.6,0.5-0.9l5.3-9.6c-0.7,0.4-1.5,0.8-2.2,1.2l0,0L248.1,280.3z"/>
		<path class="st25" d="M264,263.3L264,263.3c-0.3,0.1-0.6,0.2-0.9,0.3c0,0-0.1,0-0.1,0c-0.3,0.1-0.6,0.2-0.9,0.3l-5.8,10.6
			c0.4,0.1,0.8,0.3,1.2,0.5L264,263.3z"/>
		<path class="st25" d="M266.7,262.6C266.7,262.6,266.7,262.6,266.7,262.6c-0.4,0.1-0.8,0.2-1.2,0.3h0l-7,12.7
			c0.3,0.2,0.5,0.4,0.7,0.5L266.7,262.6z"/>
	</g>
	<path class="st26" d="M272.8,253.2c0,0,9.1,2,11.3,4.6c12-1.1,24.3,0.8,24.3,0.8s-8.1-2.8-15.1-4.3
		C286.2,252.7,272.8,253.2,272.8,253.2z"/>
	<path class="st21" d="M194.1,270.9c0,0-1.8,5.4,7.7,9.6c9.5,4.1,28.8,2.5,28.8,2.5s11.6-12.4,23.9-19c-4-2.5-19.4-8.7-26.9-8.2
		C219.8,258.1,194.1,270.9,194.1,270.9z"/>
	<path class="st22" d="M222.2,281.4c-5.1-0.3-14.2-0.6-19.4-2.9c-7-3.1-7-6.2-6.9-7.4c3.5-1.7,24.7-12.8,31.9-14.9
		c3.5-0.9,19.7,3.9,25.5,7.6c-10.7,6.2-20.4,15-22.2,16.9C230.1,280.9,227.4,281.8,222.2,281.4z"/>
	<path class="st24" d="M331,275c0-0.1,0-0.3,0-0.4c0,0,0-0.1,0-0.1c0-0.1,0-0.2,0-0.3c0,0,0-0.1,0-0.1c0-0.1,0-0.2,0-0.3
		c0-0.1,0-0.1,0-0.2c0-0.1,0-0.2,0-0.3c0,0,0-0.1,0-0.1c0-0.1,0-0.2,0-0.3c0,0,0-0.1,0-0.1c0-0.1,0-0.2,0-0.4c0,0,0,0,0,0
		c-0.1-3.1-0.1-6.6-0.8-8.2c0,0,0,0,0,0c0-0.1-0.1-0.1-0.1-0.2c0,0,0,0,0,0c0-0.1-0.1-0.1-0.1-0.2c0,0,0,0,0,0
		c0-0.1-0.1-0.1-0.1-0.1c0,0,0,0,0,0l0,0c-2.5-0.9-9.2-0.2-15,1.2c-5.7,1.3-51.6,16.2-54.4,15.9c-0.4,0-0.7-0.1-1.1-0.1
		c0,0,0.7,0.1,0.9-0.6c0.2-0.7-0.3-2.9-0.3-2.9s-1.4,1.4-4.5,1s-3.8-1.6-3.8-1.6s-0.3,0.9,0.1,1.5c0.6,0.7,1.1,1,1.7,1.2
		c-0.3,0.1-0.4,0.1-0.4,0.1c-1.1,0.5-1.8,0.6-3.1,1.1c-0.7,0.3-1.1,1-1.1,1s-35.4,10.3-38.4,12c-3.1,1.6-12.8,12.6-18.1,13.7
		c-5.3,1.1-20.3-1.4-20.3-1.4s-4.4-5.3-5.4-7.6l-2.4,3.3c0,0,1,4.2,1.2,5.1c0.2,0.9,5.9-0.6,5.9-0.6s0.3,0.8,2.2,1.7
		c1.9,0.9,3.8,1.8,3.8,1.8s0.1,3.7,0.8,5.6c0.7,1.9,6.9,3.4,12.6,4.3c5.8,1,23.6-1.4,23.6-1.4s2.5,0.3,2.4-2
		c-0.5-4.9,2.6-24.6,17.6-24.6c12.9,0.1,11.2,13.8,11.3,16.7c0,0-0.9,3.2,2,2.6c2.9-0.7,53.4-12.2,57.1-12.8
		c2.6-0.4,2.5-0.2,2.2-2.8c-0.3-2.6,1.9-20.4,14.9-20.8c9.1,0.3,6.9,12.6,6.9,12.6s1.8-0.4,2.3-3.3S331.4,279.2,331,275z"/>
	<g>
		<path class="st25" d="M214.6,262c-0.8,0.4-1.6,0.8-2.4,1.1l-8,16c0.5,0.2,1,0.3,1.6,0.5L214.6,262z"/>
		<path class="st25" d="M203.9,267.2l-4.7,9.4c0.9,0.7,2.1,1.3,3.7,2c0.3,0.1,0.7,0.3,1,0.4l7.8-15.6
			C209,264.7,206.3,266,203.9,267.2z"/>
		<path class="st25" d="M218.3,260.2c-0.4,0.2-0.8,0.3-1.1,0.5l-9.6,19.2c0.3,0.1,0.5,0.1,0.8,0.2L218.3,260.2z"/>
		<path class="st25" d="M248.7,261.6c-1.5-0.7-3.2-1.3-5-1.9l-8.8,17.6c2.5-2.1,5.9-5,9.8-7.8L248.7,261.6z"/>
		<path class="st25" d="M228.5,256.2c-0.3,0-0.5,0-0.7,0.1c-1.2,0.4-2.9,1-4.9,1.8l-11.2,22.5c1.5,0.2,2.9,0.3,4.4,0.4L228.5,256.2z
			"/>
		<path class="st25" d="M241.9,259.1c-0.6-0.2-1.2-0.4-1.8-0.6l-11.3,22.7c1-0.1,1.7-0.3,2.2-0.4L241.9,259.1z"/>
		<path class="st25" d="M230.1,256.3c-0.3,0-0.5,0-0.7,0L217,281.1c0.2,0,0.5,0,0.7,0L230.1,256.3z"/>
	</g>
	<path class="st21" d="M188.8,302.6c2.7,0.7,5.3,0.6,6.7,0.9c13.6-11.4,16.3-11.3,16.3-11.3s-7.3-0.4-10.3,0.4
		C198.4,293.4,186.1,301.9,188.8,302.6z"/>
	<path class="st22" d="M194.4,302.3c-0.4-0.1-0.9-0.1-1.4-0.1c-1.1-0.1-2.5-0.2-3.9-0.5c1.8-2.2,9.4-7.4,11.8-8.1
		c1.1-0.3,3-0.4,5.6-0.5C204,294.8,200.2,297.5,194.4,302.3z"/>
	<path class="st24" d="M250.4,280.3c0,0-0.1,3.3,0.9,3.8s3.9-0.1,4.5-0.8c0.6-0.7,0.8-2.2,0.3-2.7c-0.5-0.6-3.8-0.9-3.8-0.9
		L250.4,280.3z"/>
</g>
<g id="star" class="rpl32-1" >
	<polygon points="102.3,64.8 106.1,72.7 114.8,73.9 108.5,80.1 110,88.7 102.3,84.6 94.5,88.7 96,80.1 89.7,73.9 
		98.4,72.7 	"/>
	<polygon points="323.3,64.8 327.2,72.7 335.9,73.9 329.6,80.1 331.1,88.7 323.3,84.6 315.6,88.7 317,80.1 310.8,73.9 
		319.4,72.7 	"/>
</g>
<text id="text1" transform="matrix(1 0 0 1 211.1481 72)" class="st27 st28 editable">Happy birthday!</text>
<text id="text2" transform="matrix(1 0 0 1 210.9062 91.7019)" class="st27 st29 editable">My little son!</text>
<g id="Button_Stripe">
	<rect x="0" y="328.1" class="st2" width="425.2" height="26.2"/>
	<rect x="0" y="328.1" class="rpl4-1" width="425.2" height="26.2"/>
</g>
<text id="product" transform="matrix(1 0 0 1 208.9401 346.2487)" class="st30 st27 st28 svgProduct">Product name</text>
<text id="quantity" transform="matrix(1 0 0 1 12.4779 348.0842)" class="st30 st27 st31">220 ml</text>
<path id="AlpStories_LOGO" d="M218.3,43.4c0-0.2,0.1-0.3,0.4-0.3h4.6c0.3,0,0.4,0.1,0.4,0.3v3.9c0,0.2-0.1,0.3-0.4,0.3h-4.6
	c-0.3,0-0.4-0.1-0.4-0.3V43.4z M217.1,43.2v4.3c0,0.8,0.5,1.1,1.3,1.1h5.1c0.8,0,1.3-0.3,1.3-1.1v-4.3c0-0.8-0.5-1.1-1.3-1.1h-5.1
	C217.7,42.1,217.1,42.4,217.1,43.2 M207.7,42.1V43c0,0,0,0.1,0.1,0.1h2.8c0,0,0.1,0,0.1,0.1v5.4c0,0,0,0.1,0.1,0.1h1
	c0,0,0.1,0,0.1-0.1v-5.4c0,0,0-0.1,0.1-0.1h2.8c0,0,0.1,0,0.1-0.1v-0.9c0,0,0-0.1-0.1-0.1L207.7,42.1
	C207.8,42.1,207.7,42.1,207.7,42.1 M196.8,47.1v0.4c0,0.8,0.5,1.1,1.3,1.1h1.9h3.7c0.8,0,1.3-0.3,1.3-1.1v-2.3
	c0-0.8-0.5-1.2-1.3-1.2h-5c-0.3,0-0.4-0.1-0.4-0.3v-1.6c0-0.2,0.1-0.3,0.4-0.3h4.6c0.3,0,0.4,0.1,0.4,0.3v0.1c0,0.1,0.1,0.1,0.1,0.1
	l0.9-0.1c0.1,0,0.1-0.1,0.1-0.1v-0.3c0-0.8-0.5-1.1-1.3-1.1h-5c-0.8,0-1.3,0.3-1.3,1.1v2c0,0.8,0.5,1.1,1.3,1.1h5
	c0.3,0,0.4,0.1,0.4,0.3v1.9c0,0.2-0.1,0.3-0.4,0.3h-5.1c-0.3,0-0.4-0.1-0.4-0.3V47c0-0.1-0.1-0.1-0.1-0.1L197,47
	C196.9,47,196.8,47.1,196.8,47.1 M175.7,48.6C175.7,48.6,175.7,48.6,175.7,48.6l-4.2-7.8c0,0-0.1-0.1-0.1-0.1H170c0,0-0.1,0-0.1,0.1
	l-4.2,7.7c0,0,0,0.1,0,0.1h1.2c0,0,0.1,0,0.1-0.1l3.6-6.7c0,0,0,0,0.1,0c0,0,0,0,0.1,0h0l2.1,3.8l-3.3,0.1c-0.3,0-0.5,0.2-0.5,0.4
	v0.1c0,0.2,0.2,0.4,0.5,0.4l3.8,0.1l1,1.9c0,0,0.1,0.1,0.1,0.1H175.7z M184.5,48.6v-0.9c0,0,0-0.1-0.1-0.1h-4.9c0,0-0.1,0-0.1-0.1
	v-5.4c0,0,0-0.1-0.1-0.1h-1c0,0-0.1,0-0.1,0.1v6.4c0,0.1,0.1,0.1,0.1,0.1L184.5,48.6C184.5,48.6,184.5,48.6,184.5,48.6 M193.9,44.9
	v-1.7c0-0.8-0.5-1.1-1.3-1.1h-5.4c-0.1,0-0.1,0.1-0.1,0.1v6.4c0,0,0,0.1,0.1,0.1l1,0c0,0,0.1,0,0.1-0.1v-5.4c0,0,0-0.1,0.1-0.1h4.1
	c0.3,0,0.4,0.1,0.4,0.3v1.3c0,0.2-0.1,0.3-0.4,0.3l-2.9,0.1c-0.3,0-0.5,0.2-0.5,0.4v0.1c0,0.2,0.2,0.4,0.5,0.4l3.2,0.1
	C193.4,46,193.9,45.7,193.9,44.9 M214.8,27.1c0,0-4.2-8.8-4.2-8.8c-0.3-0.6-0.8-1.1-1.6-1.2c-0.7,0-1.4,0.3-1.8,0.8
	c0,0-11.3,16-11.3,16.1c-0.3,0.4-0.3,0.8-0.2,0.9c0.2,0.1,0.6,0,0.8-0.4c0,0,11-14,11-14c0.3-0.4,0.8-0.8,1.3-0.7
	c0.5,0,0.8,0.4,1,0.9c0,0,3.1,7.2,3.2,7.2c0.3,0.6,0.9,0.9,1.3,0.7C214.9,28.4,215.1,27.7,214.8,27.1 M227.8,30
	c0.3-0.6,0.1-1.4-0.4-1.9c0,0-6.9-8.3-6.9-8.3c-0.2-0.3-0.3-0.5-0.2-0.8c0.1-0.3,0.4-0.5,0.8-0.6c0,0,5.4-1,5.4-1
	c0.3,0,0.5-0.2,0.5-0.5c0-0.2-0.3-0.4-0.6-0.3L219,17c-0.7,0-1.3,0.4-1.5,1c-0.2,0.5,0,1.1,0.3,1.6c0,0,7.1,8.1,7.1,8.1
	c0.2,0.3,0.4,0.7,0.2,1.1c-0.1,0.3-0.4,0.6-0.8,0.7c0,0-17.6,4.2-17.6,4.2c-0.5,0.1-0.8,0.4-0.8,0.6c0,0.2,0.5,0.3,1,0.2
	c0,0,19.4-3.5,19.4-3.5C227,31,227.6,30.6,227.8,30 M235.6,48.6c0.1-0.1,0.1-0.2,0-0.3c0,0-1.5-1.4-2.4-2.3l0.5,0
	c0.8,0,1.3-0.3,1.3-1.1v-1.7c0-0.8-0.5-1.1-1.3-1.1h-5.1c-0.1,0-0.1,0.1-0.1,0.1v6.4c0,0,0,0.1,0.1,0.1l1,0c0,0,0.1,0,0.1-0.1v-5.4
	c0,0,0-0.1,0.1-0.1h3.7c0.3,0,0.4,0.1,0.4,0.3v1.3c0,0.2-0.1,0.3-0.4,0.3l-2.6,0.1c-0.3,0-0.5,0.2-0.5,0.4v0.1
	c0,0.2,0.2,0.4,0.5,0.4l1.1,0l2.4,2.6c0.1,0.1,0.1,0.1,0.2,0.1h1C235.5,48.6,235.6,48.6,235.6,48.6 M239.8,48.6v-6.4
	c0,0,0-0.1-0.1-0.1h-1c0,0-0.1,0-0.1,0.1v6.4c0,0,0,0.1,0.1,0.1L239.8,48.6C239.8,48.6,239.8,48.6,239.8,48.6 M249.9,48.6v-0.9
	c0,0,0-0.1-0.1-0.1h-5.3c0,0-0.1,0-0.1-0.1v-1.9l2.6,0c0.3,0,0.5-0.2,0.5-0.4v-0.1c0-0.2-0.2-0.4-0.5-0.4l-2.6,0v-1.6
	c0,0,0-0.1,0.1-0.1h5.2c0,0,0.1,0,0.1-0.1v-0.9c0,0,0-0.1-0.1-0.1h-6.3c-0.1,0-0.1,0.1-0.1,0.1v6.3c0,0.1,0.1,0.1,0.1,0.1
	L249.9,48.6C249.9,48.6,249.9,48.6,249.9,48.6 M253.6,44.4v-1c0-0.2,0.1-0.3,0.4-0.3h3.8c0.3,0,0.4,0.1,0.4,0.3v0.2
	c0,0.1,0.1,0.1,0.1,0.1l0.9-0.1c0.1,0,0.1-0.1,0.1-0.1v-0.3c0-0.8-0.5-1.1-1.3-1.1h-4.1c-0.8,0-1.3,0.3-1.3,1.1v1.4
	c0,0.8,0.5,1.1,1.3,1.1h4.2c0.3,0,0.4,0.1,0.4,0.3v1.3c0,0.2-0.1,0.3-0.4,0.3h-4.2c-0.3,0-0.4-0.1-0.4-0.3V47c0-0.1-0.1-0.1-0.1-0.1
	l-0.9,0.1c-0.1,0-0.1,0.1-0.1,0.1v0.4c0,0.8,0.5,1.1,1.3,1.1h1.4h3.1c0.8,0,1.3-0.3,1.3-1.1v-1.6c0-0.8-0.5-1.1-1.3-1.1H254
	C253.8,44.8,253.6,44.6,253.6,44.4"/>
<g>
	
		<image style="overflow:visible;" width="28" height="28" id="Icon1" class="st33" transform="matrix(0.5844 0 0 0.5844 400.6709 333.0574)">
	</image>
	
		<image style="overflow:visible;" width="28" height="28" id="Icon2" class="st33" transform="matrix(0.5844 0 0 0.5844 380.1958 333.0574)">
	</image>
	
		<image style="overflow:visible;" width="28" height="28" id="Icon3" class="st33" transform="matrix(0.5844 0 0 0.5844 359.7208 333.0574)">
	</image>
	
		<image style="overflow:visible;" width="28" height="28" id="Icon4" class="st33" transform="matrix(0.5844 0 0 0.5844 318.7707 333.0574)">
	</image>
	
		<image style="overflow:visible;" width="28" height="28" id="Icon5" class="st33" transform="matrix(0.5844 0 0 0.5844 339.2458 333.0574)">
	</image>
</g>
</svg>
