<?xml version="1.0" encoding="utf-8"?>
<svg version="1.1" id="Layer_1"  data-color-numbers="3" xmlns="http://www.w3.org/2000/svg" xmlns:xlink="http://www.w3.org/1999/xlink" x="0px" y="0px"
	 viewBox="0 0 272.1 184.3" style="enable-background:new 0 0 272.1 184.3;" xml:space="preserve">
<style type="text/css">
  <![CDATA[
  @font-face {
        font-family: "DevroyeUnicode";
        src: url("/Content/fonts/DEVROYUN.ttf") format("truetype");
  }
	.rpl0-1{fill:#CE7A34;}
  .rpl0-2{fill:#b4975a;}
  .rpl0-3{fill:#0e68ce;}
	.st1{opacity:0.2;fill:#FFFFFF;}
	.st2{fill:#C998D1;}
	.rpl3-1{fill:#F24E06;}
  .rpl3-2{fill:#ffb612;}
  .rpl3-3{fill:#d6d6d6;}
	.rpl4-1{fill:#216b22;}
  .rpl4-2{fill:#0073cf;}
  .rpl4-3{fill:#bf0000;}
	.st5{fill:#AF0000;}
	.st6{fill:#960000;}
	.st7{fill:#BC0000;}
	.st8{fill:#7F0000;}
	.st9{fill:#EA2D2D;}
	.st10{opacity:0.6;fill:#E50011;}
	.st11{fill:#F7941E;}
	.st12{fill:#BE1E2D;}
	.st13{fill:#A0431A;}
	.st14{fill:#D65B1D;}
	.st15{fill:#770000;}
	.st16{fill:#D30000;}
	.st17{fill:#B20000;}
	.st18{fill:#0F1014;}
	.st19{fill:#D1D3D4;}
	.st20{fill:#282828;}
	.st21{fill:#8C8C8C;}
	.rpl22-1{fill:#259925;}
  .rpl22-2{fill:#7924ff;}
  .rpl22-3{fill:#ff0000;}
	.st23{opacity:0.2;}
	.st24{fill:#AAAAAA;}
	.st25{opacity:0.2;fill:#282828;}
	.st26{font-family:'DevroyeUnicode';}
	.st27{font-size:6.7452px;}
	.st28{font-size:7.8693px;}
	.st30{fill:#FFFFFF;}
	.st31{font-size:6.24px;}
	.st32{font-size:7px;}
  .rpl33-1{fill:#F7941E;}
  .rpl33-2{fill:#30008c;}
  .rpl33-3{fill:#0025ff;}
  .st34{fill:#FFFFFF;}
  .editable{text-anchor: middle;}
  .svgProduct{text-anchor: middle;}
  .svgRibbon{visibility:hidden; opacity:0.6;fill:#FFFFFF;}
 ]]>
</style>
<image style="overflow:visible;" id="editableImg" width="1600" height="1200" xlink:href="/Content/img/little-kitty.jpg"  transform="matrix(8.279571e-002 0 0 8.279571e-002 69.3804 56.509)">
</image>
<path id="background" class="rpl0-1" d="M0,0v184.3h272.1V0H0z M177.6,162H93.3V21h84.3V162z"/>
<path id="stars_pattern" class="st1" d="M177.8,131.2l-0.2,1.3V131L177.8,131.2z M177.6,148.6v1.5l0.2-1.3L177.6,148.6z M177.8,25.8
	l-0.2-0.2V27L177.8,25.8z M177.6,78.3v1.5l0.2-1.3L177.6,78.3z M177.6,60.7v1.5l0.2-1.3L177.6,60.7z M177.6,43.1v1.5l0.2-1.3
	L177.6,43.1z M177.6,95.8v1.5l0.2-1.3L177.6,95.8z M177.6,113.4v1.5l0.2-1.3L177.6,113.4z M93,90.8l-2.7-5.6l-2.7,5.6l-6.1,0.9
	l4.4,4.3l-1.1,6.1l5.5-2.9l3,1.6v-10L93,90.8z M84.8,14.3l5.5-2.9l5.5,2.9l-1.1-6.1l4.4-4.3L93,3l-1.5-3H89l-1.5,3l-6.1,0.9l4.4,4.3
	L84.8,14.3z M74.7,161.1l-2.7-5.6l-2.7,5.6L63,162l4.4,4.3l-1.1,6.1l5.5-2.9l5.5,2.9l-1.1-6.1l4.4-4.3L74.7,161.1z M93,126l-2.7-5.6
	l-2.7,5.6l-6.1,0.9l4.4,4.3l-1.1,6.1l5.5-2.9l3,1.6v-10L93,126z M93,143.5l-2.7-5.6l-2.7,5.6l-6.1,0.9l4.4,4.3l-1.1,6.1l5.5-2.9
	l3,1.6v-10L93,143.5z M96.3,21L93,20.5L90.3,15l-2.7,5.6l-6.1,0.9l4.4,4.3l-1.1,6.1l5.5-2.9l3,1.6V21H96.3z M93,73.2l-2.7-5.6
	l-2.7,5.6l-6.1,0.9l4.4,4.3l-1.1,6.1l5.5-2.9l3,1.6v-10L93,73.2z M93,38.1l-2.7-5.6l-2.7,5.6L81.4,39l4.4,4.3l-1.1,6.1l5.5-2.9
	l3,1.6v-10L93,38.1z M93,55.7l-2.7-5.6l-2.7,5.6l-6.1,0.9l4.4,4.3L84.8,67l5.5-2.9l3,1.6v-10L93,55.7z M93,108.4l-2.7-5.6l-2.7,5.6
	l-6.1,0.9l4.4,4.3l-1.1,6.1l5.5-2.9l3,1.6v-10L93,108.4z M71.9,85.2l-2.7,5.6L63,91.7l4.4,4.3l-1.1,6.1l5.5-2.9l5.5,2.9L76.4,96
	l4.4-4.3l-6.1-0.9L71.9,85.2z M71.9,102.8l-2.7,5.6l-6.1,0.9l4.4,4.3l-1.1,6.1l5.5-2.9l5.5,2.9l-1.1-6.1l4.4-4.3l-6.1-0.9
	L71.9,102.8z M71.9,120.4l-2.7,5.6l-6.1,0.9l4.4,4.3l-1.1,6.1l5.5-2.9l5.5,2.9l-1.1-6.1l4.4-4.3l-6.1-0.9L71.9,120.4z M71.9,138
	l-2.7,5.6l-6.1,0.9l4.4,4.3l-1.1,6.1l5.5-2.9l5.5,2.9l-1.1-6.1l4.4-4.3l-6.1-0.9L71.9,138z M71.9,15l-2.7,5.6L63,21.4l4.4,4.3
	l-1.1,6.1l5.5-2.9l5.5,2.9l-1.1-6.1l4.4-4.3l-6.1-0.9L71.9,15z M73.2,0h-2.6l-1.5,3L63,3.8l4.4,4.3l-1.1,6.1l5.5-2.9l5.5,2.9
	l-1.1-6.1l4.4-4.3L74.7,3L73.2,0z M93.3,161.1l-0.2,0l-2.7-5.6l-2.7,5.6l-6.1,0.9l4.4,4.3l-1.1,6.1l5.5-2.9l5.5,2.9l-1.1-6.1
	l4.4-4.3h-5.9V161.1z M71.9,67.7l-2.7,5.6L63,74.1l4.4,4.3l-1.1,6.1l5.5-2.9l5.5,2.9l-1.1-6.1l4.4-4.3l-6.1-0.9L71.9,67.7z
	 M71.9,32.5l-2.7,5.6L63,39l4.4,4.3l-1.1,6.1l5.5-2.9l5.5,2.9l-1.1-6.1l4.4-4.3l-6.1-0.9L71.9,32.5z M71.9,50.1l-2.7,5.6L63,56.6
	l4.4,4.3L66.4,67l5.5-2.9l5.5,2.9l-1.1-6.1l4.4-4.3l-6.1-0.9L71.9,50.1z M122.6,166.3l-1.1,6.1l5.5-2.9l5.5,2.9l-1.1-6.1l4.4-4.3
	h-17.8L122.6,166.3z M129.8,20.5l-2.7-5.6l-2.7,5.6L121,21h12.1L129.8,20.5z M121.6,14.3l5.5-2.9l5.5,2.9l-1.1-6.1l4.4-4.3L129.8,3
	l-1.5-3h-2.6l-1.5,3l-6.1,0.9l4.4,4.3L121.6,14.3z M104.2,166.3l-1.1,6.1l5.5-2.9l5.5,2.9l-1.1-6.1l4.4-4.3H99.8L104.2,166.3z
	 M103.2,14.3l5.5-2.9l5.5,2.9l-1.1-6.1l4.4-4.3L111.4,3L110,0h-2.6l-1.5,3l-6.1,0.9l4.4,4.3L103.2,14.3z M111.4,20.5l-2.7-5.6
	l-2.7,5.6l-3.3,0.5h12.1L111.4,20.5z M16.8,50.1L14,55.7l-6.1,0.9l4.4,4.3L11.3,67l5.5-2.9l5.5,2.9l-1.1-6.1l4.4-4.3l-6.1-0.9
	L16.8,50.1z M16.8,67.7L14,73.2l-6.1,0.9l4.4,4.3l-1.1,6.1l5.5-2.9l5.5,2.9l-1.1-6.1l4.4-4.3l-6.1-0.9L16.8,67.7z M0,52.2v12.5
	L4.5,67l-1.1-6.1l4.4-4.3l-6.1-0.9L0,52.2z M0,69.8v12.5l4.5,2.3l-1.1-6.1l4.4-4.3l-6.1-0.9L0,69.8z M16.8,32.5L14,38.1L7.9,39
	l4.4,4.3l-1.1,6.1l5.5-2.9l5.5,2.9l-1.1-6.1l4.4-4.3l-6.1-0.9L16.8,32.5z M16.8,15L14,20.5l-6.1,0.9l4.4,4.3l-1.1,6.1l5.5-2.9
	l5.5,2.9l-1.1-6.1l4.4-4.3l-6.1-0.9L16.8,15z M0,17.1v12.5l4.5,2.3l-1.1-6.1l4.4-4.3l-6.1-0.9L0,17.1z M0,34.6v12.5l4.5,2.3
	l-1.1-6.1L7.9,39l-6.1-0.9L0,34.6z M16.8,85.2L14,90.8l-6.1,0.9l4.4,4.3l-1.1,6.1l5.5-2.9l5.5,2.9L21.2,96l4.4-4.3l-6.1-0.9
	L16.8,85.2z M16.8,120.4L14,126l-6.1,0.9l4.4,4.3l-1.1,6.1l5.5-2.9l5.5,2.9l-1.1-6.1l4.4-4.3l-6.1-0.9L16.8,120.4z M16.8,138
	l-2.7,5.6l-6.1,0.9l4.4,4.3l-1.1,6.1l5.5-2.9l5.5,2.9l-1.1-6.1l4.4-4.3l-6.1-0.9L16.8,138z M1.7,161.3L0,157.8v12.5l4.5,2.3
	l-1.1-6.1l4.4-4.3L1.7,161.3z M19.5,161.1l-2.7-5.6l-2.7,5.6L7.9,162l4.4,4.3l-1.1,6.1l5.5-2.9l5.5,2.9l-1.1-6.1l4.4-4.3L19.5,161.1
	z M3.4,148.7l4.4-4.3l-6.1-0.9L0,140v12.5l4.5,2.3L3.4,148.7z M0,104.9v12.5l4.5,2.3l-1.1-6.1l4.4-4.3l-6.1-0.9L0,104.9z M0,87.4
	v12.5l4.5,2.3L3.4,96l4.4-4.3l-6.1-0.9L0,87.4z M16.8,102.8l-2.7,5.6l-6.1,0.9l4.4,4.3l-1.1,6.1l5.5-2.9l5.5,2.9l-1.1-6.1l4.4-4.3
	l-6.1-0.9L16.8,102.8z M0,122.5V135l4.5,2.3l-1.1-6.1l4.4-4.3L1.7,126L0,122.5z M0.3,0H0v12l4.5,2.3L3.4,8.2l4.4-4.3L1.7,3L0.3,0z
	 M53.5,50.1l-2.7,5.6l-6.1,0.9l4.4,4.3L48,67l5.5-2.9L59,67L58,60.9l4.4-4.3l-6.1-0.9L53.5,50.1z M53.5,102.8l-2.7,5.6l-6.1,0.9
	l4.4,4.3l-1.1,6.1l5.5-2.9l5.5,2.9l-1.1-6.1l4.4-4.3l-6.1-0.9L53.5,102.8z M53.5,85.2l-2.7,5.6l-6.1,0.9l4.4,4.3l-1.1,6.1l5.5-2.9
	l5.5,2.9L58,96l4.4-4.3l-6.1-0.9L53.5,85.2z M53.5,120.4l-2.7,5.6l-6.1,0.9l4.4,4.3l-1.1,6.1l5.5-2.9l5.5,2.9l-1.1-6.1l4.4-4.3
	l-6.1-0.9L53.5,120.4z M53.5,138l-2.7,5.6l-6.1,0.9l4.4,4.3l-1.1,6.1l5.5-2.9l5.5,2.9l-1.1-6.1l4.4-4.3l-6.1-0.9L53.5,138z M18,0
	h-2.6L14,3L7.9,3.8l4.4,4.3l-1.1,6.1l5.5-2.9l5.5,2.9l-1.1-6.1l4.4-4.3L19.5,3L18,0z M56.3,161.1l-2.7-5.6l-2.7,5.6l-6.1,0.9
	l4.4,4.3l-1.1,6.1l5.5-2.9l5.5,2.9l-1.1-6.1l4.4-4.3L56.3,161.1z M53.5,15l-2.7,5.6l-6.1,0.9l4.4,4.3L48,31.9l5.5-2.9l5.5,2.9
	L58,25.8l4.4-4.3l-6.1-0.9L53.5,15z M54.8,0h-2.6l-1.5,3l-6.1,0.9l4.4,4.3L48,14.3l5.5-2.9l5.5,2.9L58,8.2l4.4-4.3L56.3,3L54.8,0z
	 M53.5,67.7l-2.7,5.6l-6.1,0.9l4.4,4.3L48,84.6l5.5-2.9l5.5,2.9L58,78.5l4.4-4.3l-6.1-0.9L53.5,67.7z M53.5,32.5l-2.7,5.6L44.6,39
	l4.4,4.3L48,49.5l5.5-2.9l5.5,2.9L58,43.3l4.4-4.3l-6.1-0.9L53.5,32.5z M35.1,102.8l-2.7,5.6l-6.1,0.9l4.4,4.3l-1.1,6.1l5.5-2.9
	l5.5,2.9l-1.1-6.1l4.4-4.3l-6.1-0.9L35.1,102.8z M36.4,0h-2.6l-1.5,3l-6.1,0.9l4.4,4.3l-1.1,6.1l5.5-2.9l5.5,2.9l-1.1-6.1L44,3.8
	L37.9,3L36.4,0z M35.1,138l-2.7,5.6l-6.1,0.9l4.4,4.3l-1.1,6.1l5.5-2.9l5.5,2.9l-1.1-6.1l4.4-4.3l-6.1-0.9L35.1,138z M37.9,161.1
	l-2.7-5.6l-2.7,5.6l-6.1,0.9l4.4,4.3l-1.1,6.1l5.5-2.9l5.5,2.9l-1.1-6.1L44,162L37.9,161.1z M35.1,120.4l-2.7,5.6l-6.1,0.9l4.4,4.3
	l-1.1,6.1l5.5-2.9l5.5,2.9l-1.1-6.1l4.4-4.3l-6.1-0.9L35.1,120.4z M35.1,32.5l-2.7,5.6L26.2,39l4.4,4.3l-1.1,6.1l5.5-2.9l5.5,2.9
	l-1.1-6.1L44,39l-6.1-0.9L35.1,32.5z M35.1,50.1l-2.7,5.6l-6.1,0.9l4.4,4.3L29.6,67l5.5-2.9l5.5,2.9l-1.1-6.1l4.4-4.3l-6.1-0.9
	L35.1,50.1z M35.1,67.7l-2.7,5.6l-6.1,0.9l4.4,4.3l-1.1,6.1l5.5-2.9l5.5,2.9l-1.1-6.1l4.4-4.3l-6.1-0.9L35.1,67.7z M35.1,85.2
	l-2.7,5.6l-6.1,0.9l4.4,4.3l-1.1,6.1l5.5-2.9l5.5,2.9L39.6,96l4.4-4.3l-6.1-0.9L35.1,85.2z M35.1,15l-2.7,5.6l-6.1,0.9l4.4,4.3
	l-1.1,6.1l5.5-2.9l5.5,2.9l-1.1-6.1l4.4-4.3l-6.1-0.9L35.1,15z M237.4,102.8l-2.7,5.6l-6.1,0.9l4.4,4.3l-1.1,6.1l5.5-2.9l5.5,2.9
	l-1.1-6.1l4.4-4.3l-6.1-0.9L237.4,102.8z M237.4,85.2l-2.7,5.6l-6.1,0.9l4.4,4.3l-1.1,6.1l5.5-2.9l5.5,2.9l-1.1-6.1l4.4-4.3
	l-6.1-0.9L237.4,85.2z M240.1,161.1l-2.7-5.6l-2.7,5.6l-6.1,0.9l4.4,4.3l-1.1,6.1l5.5-2.9l5.5,2.9l-1.1-6.1l4.4-4.3L240.1,161.1z
	 M237.4,120.4l-2.7,5.6l-6.1,0.9l4.4,4.3l-1.1,6.1l5.5-2.9l5.5,2.9l-1.1-6.1l4.4-4.3l-6.1-0.9L237.4,120.4z M237.4,138l-2.7,5.6
	l-6.1,0.9l4.4,4.3l-1.1,6.1l5.5-2.9l5.5,2.9l-1.1-6.1l4.4-4.3l-6.1-0.9L237.4,138z M237.4,67.7l-2.7,5.6l-6.1,0.9l4.4,4.3l-1.1,6.1
	l5.5-2.9l5.5,2.9l-1.1-6.1l4.4-4.3l-6.1-0.9L237.4,67.7z M237.4,15l-2.7,5.6l-6.1,0.9l4.4,4.3l-1.1,6.1l5.5-2.9l5.5,2.9l-1.1-6.1
	l4.4-4.3l-6.1-0.9L237.4,15z M238.7,0h-2.6l-1.5,3l-6.1,0.9l4.4,4.3l-1.1,6.1l5.5-2.9l5.5,2.9l-1.1-6.1l4.4-4.3L240.1,3L238.7,0z
	 M237.4,50.1l-2.7,5.6l-6.1,0.9l4.4,4.3l-1.1,6.1l5.5-2.9l5.5,2.9l-1.1-6.1l4.4-4.3l-6.1-0.9L237.4,50.1z M237.4,32.5l-2.7,5.6
	l-6.1,0.9l4.4,4.3l-1.1,6.1l5.5-2.9l5.5,2.9l-1.1-6.1l4.4-4.3l-6.1-0.9L237.4,32.5z M219,32.5l-2.7,5.6l-6.1,0.9l4.4,4.3l-1.1,6.1
	l5.5-2.9l5.5,2.9l-1.1-6.1l4.4-4.3l-6.1-0.9L219,32.5z M219,120.4l-2.7,5.6l-6.1,0.9l4.4,4.3l-1.1,6.1l5.5-2.9l5.5,2.9l-1.1-6.1
	l4.4-4.3l-6.1-0.9L219,120.4z M221.7,161.1l-2.7-5.6l-2.7,5.6l-6.1,0.9l4.4,4.3l-1.1,6.1l5.5-2.9l5.5,2.9l-1.1-6.1l4.4-4.3
	L221.7,161.1z M220.3,0h-2.6l-1.5,3l-6.1,0.9l4.4,4.3l-1.1,6.1l5.5-2.9l5.5,2.9l-1.1-6.1l4.4-4.3L221.7,3L220.3,0z M219,85.2
	l-2.7,5.6l-6.1,0.9l4.4,4.3l-1.1,6.1l5.5-2.9l5.5,2.9l-1.1-6.1l4.4-4.3l-6.1-0.9L219,85.2z M219,138l-2.7,5.6l-6.1,0.9l4.4,4.3
	l-1.1,6.1l5.5-2.9l5.5,2.9l-1.1-6.1l4.4-4.3l-6.1-0.9L219,138z M219,15l-2.7,5.6l-6.1,0.9l4.4,4.3l-1.1,6.1L219,29l5.5,2.9l-1.1-6.1
	l4.4-4.3l-6.1-0.9L219,15z M219,67.7l-2.7,5.6l-6.1,0.9l4.4,4.3l-1.1,6.1l5.5-2.9l5.5,2.9l-1.1-6.1l4.4-4.3l-6.1-0.9L219,67.7z
	 M258.5,161.1l-2.7-5.6l-2.7,5.6l-6.1,0.9l4.4,4.3l-1.1,6.1l5.5-2.9l5.5,2.9l-1.1-6.1l4.4-4.3L258.5,161.1z M219,50.1l-2.7,5.6
	l-6.1,0.9l4.4,4.3l-1.1,6.1l5.5-2.9l5.5,2.9l-1.1-6.1l4.4-4.3l-6.1-0.9L219,50.1z M219,102.8l-2.7,5.6l-6.1,0.9l4.4,4.3l-1.1,6.1
	l5.5-2.9l5.5,2.9l-1.1-6.1l4.4-4.3l-6.1-0.9L219,102.8z M264.8,109.3l4.4,4.3l-1.1,6.1l3.9-2.1V106l-1.2,2.4L264.8,109.3z
	 M264.8,91.7l4.4,4.3l-1.1,6.1l3.9-2.1V88.4l-1.2,2.4L264.8,91.7z M264.8,144.4l4.4,4.3l-1.1,6.1l3.9-2.1v-11.7l-1.2,2.4
	L264.8,144.4z M264.8,74.1l4.4,4.3l-1.1,6.1l3.9-2.1V70.9l-1.2,2.4L264.8,74.1z M264.8,126.9l4.4,4.3l-1.1,6.1l3.9-2.1v-11.7
	l-1.2,2.4L264.8,126.9z M270.9,3l-6.1,0.9l4.4,4.3l-1.1,6.1l3.9-2.1V0.6L270.9,3z M255.8,138l-2.7,5.6l-6.1,0.9l4.4,4.3l-1.1,6.1
	l5.5-2.9l5.5,2.9l-1.1-6.1l4.4-4.3l-6.1-0.9L255.8,138z M264.8,56.6l4.4,4.3l-1.1,6.1l3.9-2.1V53.3l-1.2,2.4L264.8,56.6z M264.8,39
	l4.4,4.3l-1.1,6.1l3.9-2.1V35.7l-1.2,2.4L264.8,39z M264.8,21.4l4.4,4.3l-1.1,6.1l3.9-2.1V18.1l-1.2,2.4L264.8,21.4z M255.8,102.8
	l-2.7,5.6l-6.1,0.9l4.4,4.3l-1.1,6.1l5.5-2.9l5.5,2.9l-1.1-6.1l4.4-4.3l-6.1-0.9L255.8,102.8z M264.8,162l4.4,4.3l-1.1,6.1l3.9-2.1
	v-11.7l-1.2,2.4L264.8,162z M255.8,120.4L253,126l-6.1,0.9l4.4,4.3l-1.1,6.1l5.5-2.9l5.5,2.9l-1.1-6.1l4.4-4.3l-6.1-0.9L255.8,120.4
	z M255.8,67.7l-2.7,5.6l-6.1,0.9l4.4,4.3l-1.1,6.1l5.5-2.9l5.5,2.9l-1.1-6.1l4.4-4.3l-6.1-0.9L255.8,67.7z M255.8,85.2l-2.7,5.6
	l-6.1,0.9l4.4,4.3l-1.1,6.1l5.5-2.9l5.5,2.9l-1.1-6.1l4.4-4.3l-6.1-0.9L255.8,85.2z M255.8,15l-2.7,5.6l-6.1,0.9l4.4,4.3l-1.1,6.1
	l5.5-2.9l5.5,2.9l-1.1-6.1l4.4-4.3l-6.1-0.9L255.8,15z M141,166.3l-1.1,6.1l5.5-2.9l5.5,2.9l-1.1-6.1l4.4-4.3h-17.8L141,166.3z
	 M255.8,32.5l-2.7,5.6l-6.1,0.9l4.4,4.3l-1.1,6.1l5.5-2.9l5.5,2.9l-1.1-6.1l4.4-4.3l-6.1-0.9L255.8,32.5z M255.8,50.1l-2.7,5.6
	l-6.1,0.9l4.4,4.3l-1.1,6.1l5.5-2.9l5.5,2.9l-1.1-6.1l4.4-4.3l-6.1-0.9L255.8,50.1z M257,0h-2.6L253,3l-6.1,0.9l4.4,4.3l-1.1,6.1
	l5.5-2.9l5.5,2.9l-1.1-6.1l4.4-4.3L258.5,3L257,0z M166.6,20.5l-2.7-5.6l-2.7,5.6l-3.3,0.5h12.1L166.6,20.5z M158.3,14.3l5.5-2.9
	l5.5,2.9l-1.1-6.1l4.4-4.3L166.6,3l-1.5-3h-2.6l-1.5,3l-6.1,0.9l4.4,4.3L158.3,14.3z M159.4,166.3l-1.1,6.1l5.5-2.9l5.5,2.9
	l-1.1-6.1l4.4-4.3h-17.8L159.4,166.3z M201.9,0h-2.6l-1.5,3l-6.1,0.9l4.4,4.3l-1.1,6.1l5.5-2.9l5.5,2.9l-1.1-6.1l4.4-4.3L203.4,3
	L201.9,0z M148.2,20.5l-2.7-5.6l-2.7,5.6l-3.3,0.5h12.1L148.2,20.5z M139.9,14.3l5.5-2.9l5.5,2.9l-1.1-6.1l4.4-4.3L148.2,3l-1.5-3
	h-2.6l-1.5,3l-6.1,0.9l4.4,4.3L139.9,14.3z M200.6,102.8l-2.7,5.6l-6.1,0.9l4.4,4.3l-1.1,6.1l5.5-2.9l5.5,2.9l-1.1-6.1l4.4-4.3
	l-6.1-0.9L200.6,102.8z M173.3,162l4.4,4.3l-1.1,6.1l5.5-2.9l5.5,2.9l-1.1-6.1l4.4-4.3l-6.1-0.9l-2.7-5.6l-2.7,5.6l-1.9,0.3v0.6
	H173.3z M203.4,161.1l-2.7-5.6l-2.7,5.6l-6.1,0.9l4.4,4.3l-1.1,6.1l5.5-2.9l5.5,2.9l-1.1-6.1l4.4-4.3L203.4,161.1z M200.6,138
	l-2.7,5.6l-6.1,0.9l4.4,4.3l-1.1,6.1l5.5-2.9l5.5,2.9l-1.1-6.1l4.4-4.3l-6.1-0.9L200.6,138z M200.6,120.4l-2.7,5.6l-6.1,0.9l4.4,4.3
	l-1.1,6.1l5.5-2.9l5.5,2.9l-1.1-6.1l4.4-4.3l-6.1-0.9L200.6,120.4z M200.6,32.5l-2.7,5.6l-6.1,0.9l4.4,4.3l-1.1,6.1l5.5-2.9l5.5,2.9
	l-1.1-6.1l4.4-4.3l-6.1-0.9L200.6,32.5z M200.6,15l-2.7,5.6l-6.1,0.9l4.4,4.3l-1.1,6.1l5.5-2.9l5.5,2.9l-1.1-6.1l4.4-4.3l-6.1-0.9
	L200.6,15z M200.6,50.1l-2.7,5.6l-6.1,0.9l4.4,4.3l-1.1,6.1l5.5-2.9l5.5,2.9l-1.1-6.1l4.4-4.3l-6.1-0.9L200.6,50.1z M200.6,67.7
	l-2.7,5.6l-6.1,0.9l4.4,4.3l-1.1,6.1l5.5-2.9l5.5,2.9l-1.1-6.1l4.4-4.3l-6.1-0.9L200.6,67.7z M200.6,85.2l-2.7,5.6l-6.1,0.9l4.4,4.3
	l-1.1,6.1l5.5-2.9l5.5,2.9l-1.1-6.1l4.4-4.3l-6.1-0.9L200.6,85.2z M177.8,96l-0.2,1.3v4.4l4.7-2.5l5.5,2.9l-1.1-6.1l4.4-4.3
	l-6.1-0.9l-2.7-5.6l-2.7,5.6l-1.9,0.3v4.7L177.8,96z M177.8,131.2l-0.2,1.3v4.4l4.7-2.5l5.5,2.9l-1.1-6.1l4.4-4.3L185,126l-2.7-5.6
	l-2.7,5.6l-1.9,0.3v4.7L177.8,131.2z M183.5,0h-2.6l-1.5,3l-6.1,0.9l4.4,4.3l-1.1,6.1l5.5-2.9l5.5,2.9l-1.1-6.1l4.4-4.3L185,3
	L183.5,0z M177.8,148.8l-0.2,1.3v4.4l4.7-2.5l5.5,2.9l-1.1-6.1l4.4-4.3l-6.1-0.9l-2.7-5.6l-2.7,5.6l-1.9,0.3v4.7L177.8,148.8z
	 M177.8,113.6l-0.2,1.3v4.4l4.7-2.5l5.5,2.9l-1.1-6.1l4.4-4.3l-6.1-0.9l-2.7-5.6l-2.7,5.6l-1.9,0.3v4.7L177.8,113.6z M185,20.5
	l-2.7-5.6l-2.7,5.6l-3.3,0.5h1.4v4.5l0.2,0.2l-0.2,1.3v4.4l4.7-2.5l5.5,2.9l-1.1-6.1l4.4-4.3L185,20.5z M177.8,78.5l-0.2,1.3v4.4
	l4.7-2.5l5.5,2.9l-1.1-6.1l4.4-4.3l-6.1-0.9l-2.7-5.6l-2.7,5.6l-1.9,0.3v4.7L177.8,78.5z M177.8,43.3l-0.2,1.3V49l4.7-2.5l5.5,2.9
	l-1.1-6.1l4.4-4.3l-6.1-0.9l-2.7-5.6l-2.7,5.6l-1.9,0.3v4.7L177.8,43.3z M177.8,60.9l-0.2,1.3v4.4l4.7-2.5l5.5,2.9l-1.1-6.1l4.4-4.3
	l-6.1-0.9l-2.7-5.6l-2.7,5.6l-1.9,0.3v4.7L177.8,60.9z"/>
<g id="text_background">
	<rect x="56.7" y="29.8" class="st2" width="158.7" height="26.7"/>
	<rect x="56.7" y="29.8" class="rpl3-1" width="158.7" height="26.7"/>
</g>
<g id="alpstories_background">
	<rect x="56.7" class="st2" width="158.7" height="32.2"/>
	<rect x="56.7" class="rpl4-1" width="158.7" height="32.2"/>
</g>
<g id="gift_box">
	<path d="M83.5,160.1l9,11.3l26-6.9c0,0-17.9-5.7-17.9-5.5C100.6,159.2,83.5,160.1,83.5,160.1z"/>
	<g>
		<polygon class="st5" points="82.4,135.4 83.5,160.1 93.4,170.2 92.9,139.9 		"/>
		<polygon class="st6" points="120.3,137.4 105.4,133.7 82,135.4 92.8,139.9 		"/>
		<polygon class="st5" points="92.9,139.9 93.4,170.2 118.5,164.5 120,137.4 		"/>
		<path class="st7" d="M120,137.4l-27,2.5l0.1,8.3c2.6,4.9,7.7,8.2,13.6,8.2c5.3,0,9.9-4.5,12.7-8.6L120,137.4z"/>
		<polygon class="st6" points="92.9,139.9 92.9,139.9 120.3,137.4 119.8,143.6 93,146.6 		"/>
		<polygon class="st8" points="119.8,143.3 93,146.3 92.9,139.9 92.9,139.9 93,146.6 119.8,143.6 120.3,137.4 120.3,137.4 		"/>
		<path class="st7" d="M120.3,137.4l-27.4,2.5l0,1c2.2,2.3,7.6,3.8,13.9,3.4c6.2-0.4,11.4-2.4,13.3-5L120.3,137.4z"/>
		<polygon class="st9" points="120.3,137.6 120.3,137.4 92.9,139.9 92.9,140 		"/>
		<path class="st7" d="M93,146.3l-0.1-5.8c0-0.2-0.1-0.5-0.1-0.7l-9.2-3.8c-0.6,0.9-0.8,2-1.1,3.5l0.3,6.6c0.8,3.9,2.7,7.3,4.9,7.3
			C90.3,153.4,92.4,150.4,93,146.3z"/>
		<polygon class="st6" points="82,135.4 82.3,141.3 92.9,146.5 92.9,139.9 		"/>
		<polygon class="st8" points="82.3,141 82.1,135.4 82,135.4 82.3,141.3 93,146.6 93,146.2 		"/>
		<path class="st7" d="M87.7,142.7c2.2,0.6,4.3-0.8,5.2-2.7l0-0.1L82,135.4l0,1.1C82.3,138.9,83.4,141.5,87.7,142.7z"/>
		<polygon class="st10" points="92.9,140 93,146.6 92.9,139.9 82,135.4 82,135.6 		"/>
		<polygon class="st8" points="89.2,165.8 86.1,162.7 85.2,136.7 89.3,138.3 		"/>
		<polygon class="st11" points="89.2,165.8 86.1,162.7 85.2,136.7 88.8,138.1 		"/>
		<polygon class="st11" points="115.4,136.2 110.1,134.9 85.2,136.7 88.8,138.1 		"/>
		<polygon class="st11" points="110.6,166.3 104.6,167.7 104.6,138.8 111.8,138.1 		"/>
		<polygon class="st11" points="96.8,134.3 91.1,134.7 104.6,138.8 111.8,138.1 		"/>
		<g>
			<path class="st11" d="M101.3,134.9c0,0,2.2-3.1,4.9-2.5c0.7,0.2,2.2,2.6,1.1,3.7c-0.6-1.7-5.7-0.4-5.8,0
				C101.1,136.5,101.3,134.9,101.3,134.9z"/>
			<path class="st12" d="M101.3,135c0,0,0,0.1,0,0.1c2.3-2.3,4.6-2.9,5.8-2c-0.1-0.2-0.2-0.3-0.3-0.4C105.2,132,103.2,133,101.3,135
				z"/>
			<path class="st11" d="M100.4,135.5c0,0,2.2,4.5,2.4,8.8c1.6-1.4,1.8-3.6,1.8-3.6s2.2,1.4,3.5,2.4c-0.6-5-6.9-7.8-6.9-7.8
				L100.4,135.5z"/>
			<g>
				<path class="st12" d="M103.2,143.9c0.3-0.3,0.5-0.6,0.7-0.9c-0.4-1.6-1.4-5.2-3.2-7.5l-0.2,0.1
					C101,136.2,102.6,139.2,103.2,143.9z"/>
				<path class="st12" d="M107.8,142.9c-0.3-1.2-1.5-5-6.8-7.6l-0.2,0.1c2.4,1.2,5.6,4.2,6.1,7C107.3,142.5,107.6,142.7,107.8,142.9
					z"/>
			</g>
			<path class="st13" d="M104.9,140.2c0.7,0.2,1.4,0,1.9-0.4c-1.6-2.4-4.2-3.8-5.2-4.4c-0.3,0.1-1.3,0.6-0.8,0.7
				C100.8,136.1,102.5,139.6,104.9,140.2z"/>
			<path class="st11" d="M101.9,135.5c0,0-2.6,4.3-3.1,8.5c-1.4-1.5-1.5-3.7-1.5-3.7s-2.3,1.2-3.6,2.1c1.1-4.9,7.5-7.2,7.5-7.2
				L101.9,135.5z"/>
			<path class="st14" d="M105.1,139.9c-2.3-0.6-4-4-4-4l1.6,0l3.1,1.7l0.4,1.6C106.2,139.1,106.9,139.8,105.1,139.9z"/>
			<g>
				<path class="st12" d="M101.3,135.2c-5.5,2.2-7,5.8-7.4,7c0.3-0.2,0.5-0.3,0.8-0.5c0.8-2.6,4.2-5.4,6.7-6.4L101.3,135.2z"/>
				<path class="st12" d="M97.8,142.6c0.1,0.3,0.3,0.7,0.6,1c0.9-4.6,2.8-7.5,3.4-8.1l-0.1-0.1C99.6,137.6,98.3,141,97.8,142.6z"/>
			</g>
			<path class="st11" d="M101.9,135.1c0,0,4.6,0,6.3,2.3c0.5,0.7-1,2.9-3.1,2.5c1.3-1.2-3.6-4.2-4-4
				C100.4,135.7,101.9,135.1,101.9,135.1z"/>
			<g>
				<path class="st12" d="M101.8,135.2c0,0-0.1,0-0.1,0.1c3.8,0.5,6.4,1.8,6.4,3.2c0.1-0.2,0.2-0.3,0.2-0.5
					C107.6,136.4,105,135.5,101.8,135.2z"/>
				<path class="st12" d="M105.5,139.9c0.1,0,0.2,0,0.4,0c1.5-1.2-3.5-4.2-4.7-4.2c-0.1,0-0.2,0-0.3,0c0,0,0,0,0,0
					c0.1,0,0.1,0,0.2,0C102.2,135.8,106.9,138.7,105.5,139.9z"/>
			</g>
			<path class="st13" d="M101.9,135.1c0,0-0.3,0.1-0.6,0.2c-0.2,0.2-0.3,0.4,0,0.4c0,0,2.9,2.9,5.1,2.7c0.8-0.1,1.3-0.6,1.6-1.2
				C106.3,135.1,101.9,135.1,101.9,135.1z"/>
			<path class="st14" d="M106.7,138.2c-2.2,0.3-5.2-2.4-5.2-2.4l1.5-0.6l3.3,0.5l1,1.4C107.3,137.1,108.1,137.5,106.7,138.2z"/>
			<path class="st13" d="M100.8,135.6c0,0-0.3,0-0.7,0c-1.3,0.6-3.5,1.9-5,3.8c0.5,0.5,1.2,0.8,2.1,0.7c1.5-0.3,2.9-1.7,3.7-2.7
				c0.3-0.6,0.5-1,0.7-1.4C101.3,135.8,100.8,135.6,100.8,135.6z"/>
			<path class="st13" d="M107.6,134c-2.5-1.1-5.9,0.9-5.9,0.9s-0.2,0.3-0.4,0.5c0,0.2,0,0.4,0,0.5c0.1-0.1,0.3-0.1,0.5-0.1
				c1-0.5,5-1.3,5.5,0.2C107.9,135.6,107.9,134.8,107.6,134z"/>
			<path class="st11" d="M102,134.7c0,0,3.9-1.6,6.2,0c0.6,0.4,0.4,3.1-1.5,3.5c0.6-1.6-4.9-2.7-5.2-2.4
				C100.8,135.9,102,134.7,102,134.7z"/>
			<g>
				<path class="st12" d="M101.8,134.9c0,0-0.1,0.1-0.1,0.1c3.5-0.9,6.1-0.5,6.7,0.8c0-0.2,0-0.4,0-0.5
					C107.3,134,104.8,134,101.8,134.9z"/>
				<path class="st12" d="M101.6,135.6c-0.1,0-0.2,0.1-0.3,0.1c0,0,0,0,0,0C101.4,135.7,101.4,135.7,101.6,135.6
					c0.9-0.3,6.1,0.8,5.5,2.5c0.1,0,0.2-0.1,0.3-0.1C108,136.3,102.6,135.1,101.6,135.6z"/>
			</g>
			<path class="st11" d="M100.9,134.9c0,0-1.9-3.2-4.6-2.8c-0.7,0.1-2.4,2.5-1.4,3.6c0.8-1.6,5.6-0.1,5.7,0.4
				C101,136.5,100.9,134.9,100.9,134.9z"/>
			<path class="st12" d="M100.9,135.2c0-0.1,0-0.1,0-0.1c-1.7-2.1-3.5-3.2-5.2-2.6c-0.1,0.1-0.3,0.3-0.4,0.4
				C96.7,132,98.9,132.8,100.9,135.2z"/>
			<path class="st14" d="M96.7,139.6c2.4-0.4,4.4-3.7,4.4-3.7l-1.6-0.1l-3.2,1.5l-0.5,1.6C95.8,138.8,95,139.4,96.7,139.6z"/>
			<path class="st11" d="M100.3,135.1c0,0-4.5-0.3-6.4,1.9c-0.5,0.6,0.7,2.9,2.8,2.6c-1.1-1.2,4-3.9,4.4-3.7
				C101.8,135.8,100.3,135.1,100.3,135.1z"/>
			<path class="st13" d="M100.3,135.1c0,0-4.3-0.3-6.2,1.7c0.2,0.6,0.6,1.1,1.3,1.3c2.2,0.5,5.2-2.3,5.2-2.3l0.1,0.2
				c0,0,0.1,0,0.1,0c0.1,0,0.1,0,0.1,0c0,0,0-0.1,0.1-0.1c0-0.2-0.2-0.4-0.3-0.6C100.5,135.2,100.3,135.1,100.3,135.1z"/>
			<path class="st14" d="M95.3,137.8c2.2,0.5,5.4-2.1,5.4-2.1l-1.4-0.7l-3.3,0.3l-1.1,1.3C94.9,136.7,94,137,95.3,137.8z"/>
			<path class="st13" d="M100.4,134.7c0,0-3.2-1.8-5.6-1c-0.3,0.7-0.4,1.5,0,2c0.5-1,2.5-0.8,4-0.4c0.9-0.2,1.7-0.2,1.8-0.1
				C101.3,135.4,100.4,134.7,100.4,134.7z"/>
			<path class="st11" d="M100.3,134.7c0,0-3.7-1.8-6.1-0.4c-0.7,0.4-0.7,3,1.1,3.5c-0.4-1.6,5.1-2.4,5.4-2.1
				C101.3,135.9,100.3,134.7,100.3,134.7z"/>
			<g>
				<path class="st12" d="M100.7,135.6c0.1,0,0.1,0.1,0.2,0.1c0,0,0,0,0,0C100.8,135.6,100.7,135.6,100.7,135.6
					c-1-0.6-6.5,0.2-6,1.9c0.1,0.1,0.2,0.1,0.3,0.2C94.6,135.9,99.7,135.2,100.7,135.6z"/>
				<path class="st12" d="M100.5,134.9c0,0-0.1-0.1-0.1-0.1c-2.8-1-5.3-1.2-6.5,0c0,0.1-0.1,0.3-0.1,0.5
					C94.6,134.1,97.2,133.9,100.5,134.9z"/>
			</g>
			<path class="st13" d="M101,134.7c-0.5,0-1-0.3-1.1,0.9c-0.1,1.3,0.4,1,1,1c0.6,0,1,0.3,1.1-0.9C102,134.4,101.6,134.7,101,134.7z
				"/>
			<path class="st14" d="M101,134.7c-0.5,0-0.8-0.3-0.9,0.9c-0.1,1.3,0.3,1,0.8,1c0.5,0,0.9,0.3,0.9-0.9
				C101.9,134.4,101.5,134.7,101,134.7z"/>
		</g>
		<g>
			<path class="st15" d="M93,158.4c0.1,6.1,0.3,11.2,0.5,11.8L93,146.7C92.9,147.7,92.9,152.5,93,158.4z"/>
			<path class="st16" d="M93.6,158.4c-0.1-6.5-0.3-11.8-0.5-11.8c0,0,0,0.1,0,0.2l0.4,23.4c0,0,0,0.1,0,0.1c0.2,0,0.2-4.9,0.1-11.1
				C93.6,158.9,93.6,158.6,93.6,158.4z"/>
		</g>
		<g>
			<path class="st17" d="M93.1,143.2c0-1.8-0.1-3.2-0.2-3.3l0.1,6.6C93.1,146.4,93.1,144.9,93.1,143.2z"/>
			<path class="st15" d="M92.9,139.9c-0.1,0-0.1,1.5-0.1,3.3c0,1.8,0.1,3.3,0.2,3.3c0,0,0,0,0,0L92.9,139.9
				C92.9,139.9,92.9,139.9,92.9,139.9z"/>
		</g>
	</g>
</g>
<g id="car_bottom">
	<path d="M121.3,162.3l0.6,0.3l2.5,0.8c0,0,0.5,0.5,0.5,0.8s0,2,0,2s-1.6-0.1-3.5-1c-1.9-0.9-2-2.2-2-2.2v-0.8H121.3z"/>
	<path d="M188.9,160.6c0,0-42.8,9.9-49.9,11.7c-7,1.8-20.3-7.1-20.3-7.1l73-19.7L188.9,160.6z"/>
	<g>
		<path class="st18" d="M154.8,164.4c1.1-3.6-0.4-7.3-3.4-8.5c-0.6-0.5-1.3-0.9-2-1.1c-3.3-1-6.9,1.2-8,5c-0.8,2.6-0.3,5.2,1.2,6.9
			c0,0,0,0,0,0c1.6,2.3,4.5,2.8,4.5,2.8l0,0C150.3,170.2,153.7,168,154.8,164.4z"/>
		<path class="st19" d="M153.9,164.2c-0.9,2.8-3.4,4.6-5.9,4.1c-2.7-0.6-4.3-3.7-3.3-7s4.1-4.9,6.7-3.9
			C153.6,158.4,154.7,161.4,153.9,164.2z"/>
		<g>
			<path class="st20" d="M150.6,161.9l3,0.3c0-1.7-0.8-3.3-2.3-4L150.6,161.9z"/>
			<path class="st20" d="M149.3,161.5l1.5-3.4c-1.6-0.5-3.4,0.2-4.6,1.7L149.3,161.5z"/>
			<path class="st20" d="M149.2,164.2l-3.1,2.1c0.5,0.6,1.2,1.1,2,1.3c0.8,0.2,1.6,0.1,2.3-0.2L149.2,164.2z"/>
			<path class="st20" d="M150.6,163.6l0.4,3.5c1.1-0.6,1.9-1.7,2.4-3.1c0.1-0.4,0.2-0.8,0.2-1.2L150.6,163.6z"/>
			<path class="st20" d="M145.8,165.8l2.6-2.9l-2.5-2.6c-0.2,0.4-0.4,0.8-0.5,1.2C144.8,163.1,145.1,164.6,145.8,165.8z"/>
		</g>
	</g>
	<g>
		<path class="st18" d="M193.5,156.2c1-3.2,0.2-6.9-2.3-8c-0.5-0.4-1.5-0.3-2.1-0.5c-2.7-0.9-5.8,1.2-6.9,4.5
			c-0.7,2.3-0.3,4.6,0.9,6.1l0,0c1.3,2,3.8,2.4,3.8,2.4l0,0C189.6,161.4,192.5,159.4,193.5,156.2z"/>
		<path class="st19" d="M192.7,156c-0.8,2.5-3,4.2-5.1,3.7c-2.3-0.5-3.6-3.2-2.7-6.1c0.9-2.9,3.5-4.4,5.7-3.5
			C192.6,150.9,193.5,153.6,192.7,156z"/>
		<g>
			<path class="st20" d="M190,154.1l2.5,0.3c0-1.5-0.7-2.9-1.9-3.5L190,154.1z"/>
			<path class="st20" d="M188.9,153.7l1.4-3.1c-1.4-0.4-2.9,0.2-3.9,1.6L188.9,153.7z"/>
			<path class="st20" d="M188.8,156.1l-2.6,1.9c0.4,0.6,1,1,1.7,1.1c0.7,0.1,1.4,0,2-0.2L188.8,156.1z"/>
			<path class="st20" d="M190,155.5l0.3,3.1c0.9-0.6,1.7-1.5,2-2.8c0.1-0.3,0.2-0.7,0.2-1L190,155.5z"/>
			<path class="st20" d="M185.9,157.6l2.2-2.6l-2.1-2.3c-0.2,0.3-0.4,0.7-0.5,1.1C185.1,155.2,185.3,156.6,185.9,157.6z"/>
		</g>
	</g>
	<path class="st21" d="M119.7,163c0,0,0.8,1.6,1.3,1.9c1.1,0.8,3.4,0.9,3.4,0.9l0.3,0.7c0,0-2.9-0.5-4.2-1.4
		c-0.7-0.6-1.5-2.3-1.5-2.3l0.3,0.1L119.7,163z"/>
</g>
<path id="car_color" class="rpl22-1" d="M119.4,159.1l-1.1,1.5c0,0,0.5,1.9,0.6,2.3c0.1,0.4,2.7-0.3,2.7-0.3s0.1,0.3,1,0.8
	c0.9,0.4,1.7,0.8,1.7,0.8s0,1.7,0.3,2.6c0.3,0.9,3.1,1.5,5.8,2s10.8-0.6,10.8-0.6s1.1,0.1,1.1-0.9c-0.2-2.2,1.2-11.2,8-11.2
	c5.9,0,5.1,6.3,5.1,7.6c0,0-0.4,1.5,0.9,1.2c1.3-0.3,24.4-5.6,26.1-5.8c1.2-0.2,1.1-0.1,1-1.3s0.9-9.3,6.8-9.5
	c4.1,0.1,3.1,5.8,3.1,5.8s0.8-0.2,1-1.5c0.2-1.3,0.2-1.9,0-3.8c-0.2-1.9,0.1-5-0.8-5.3c-1.6-0.5-7.5-3.8-13.3-4.4
	c-2.8-0.4-9.2-0.7-13.9-0.8c-4.8-0.1-12.1,0.3-16.8,1s-13.1,5-16.6,6.5c-3.4,1.6-6,1.7-8.4,3.7c-2.4,2-3.9,5.5-4.7,5.8
	c-0.8,0.3-0.5-1-0.5-1l-1.2,2L119.4,159.1z"/>
<g id="cat_top">
	<g>
		<path class="st21" d="M119.9,155.2C119.9,155.2,119.9,155.2,119.9,155.2C119.9,155.2,119.9,155.2,119.9,155.2
			C119.9,155.2,119.9,155.2,119.9,155.2z"/>
		<path class="st21" d="M119.7,155.2C119.7,155.2,119.7,155.2,119.7,155.2C119.7,155.2,119.7,155.2,119.7,155.2z"/>
		<path class="st21" d="M119.8,155.2C119.8,155.2,119.8,155.2,119.8,155.2C119.8,155.2,119.8,155.2,119.8,155.2z"/>
		<path class="st21" d="M120,155.1C120,155.1,120,155.1,120,155.1C120,155.1,120,155.1,120,155.1z"/>
		<path class="st20" d="M119.7,155.1C119.7,155.1,119.8,155.1,119.7,155.1c0.1,0,0.1,0,0.1,0c0,0,0,0,0,0c0,0,0.1,0,0.1,0
			c0,0,0,0,0,0c0,0,0,0,0,0c0,0,0,0,0,0c0.8-0.5,2.3-3.8,4.6-5.7c0,0-2,1.4-3.4,2.8c-1.4,1.3-1.7,2-1.7,2S119.3,154.9,119.7,155.1z"
			/>
		<path class="st21" d="M119.7,155C119.7,155,119.7,155,119.7,155c-0.1-0.1-0.1-0.4-0.1-0.8c0.1-0.1,0.4-0.7,1.7-1.9
			c0.3-0.3,0.7-0.6,1.1-0.9c-0.5,0.7-1,1.3-1.3,1.9c-0.5,0.8-0.9,1.4-1.2,1.6C119.9,154.9,119.8,154.9,119.7,155L119.7,155
			C119.8,154.9,119.8,155,119.7,155L119.7,155z"/>
		<path class="st20" d="M120.1,155C120,155,120,155,120.1,155C120,155,120,155,120.1,155z"/>
		<path class="st21" d="M120,155.1C120,155.1,119.9,155.2,120,155.1C119.9,155.2,120,155.1,120,155.1z"/>
		<path class="st20" d="M120,155c0,0-0.1,0-0.1,0C119.9,155.1,119.9,155.1,120,155z"/>
		<path class="st21" d="M119.9,155.2c0,0-0.1,0-0.1,0C119.8,155.2,119.9,155.2,119.9,155.2z"/>
		<path class="st20" d="M119.8,155.1C119.8,155.1,119.8,155.1,119.8,155.1C119.8,155.1,119.8,155.1,119.8,155.1
			C119.8,155.1,119.8,155.1,119.8,155.1z"/>
		<path class="st21" d="M119.7,155.2C119.8,155.2,119.8,155.2,119.7,155.2C119.8,155.2,119.7,155.2,119.7,155.2
			C119.7,155.2,119.7,155.2,119.7,155.2z"/>
	</g>
	<path class="st20" d="M120.3,155.7l2.6,2.9c0,0,6.5,2.3,6.4,2.3c-0.1,0-6.7-1.6-6.7-1.6L120.3,155.7z"/>
	<path class="st23" d="M173.4,141.8c0,0,12.6-0.8,12.5,0c-1,0.3-4.5,1.4-4.5,1.4s2.2,1,1.5,1.3c-0.7,0.3-1.5,0.7-1.5,0.7
		s0.2-1-0.9-0.7c-1.2,0.3-6.3,1.8-6.3,1.8l-1-0.4l6.6-3L173.4,141.8z"/>
	<path class="st20" d="M124.6,163c0,0,1.8,2.9,2.6,3.4c0.8,0.5,4.7,1,4.7,1s1.8-0.6,1.8-1c0.1-0.4-2.4-2.9-2.4-2.9L124.6,163z"/>
	<path class="st20" d="M118.7,160.5c-0.1-0.2,0.6-0.9,0.6-0.9l0.7,0.9l-0.7,1C119.4,161.5,119.5,159.8,118.7,160.5z"/>
	<path class="st20" d="M141.5,165.7c0,0-0.7-10.1,9.3-10.3c-9.1,0.2-8.8,10.3-8.8,10.3H141.5z"/>
	<path class="st20" d="M182.4,157.7c0,0-0.7-10.1,9.3-10.3c-9.1,0.2-8.8,10.3-8.8,10.3H182.4z"/>
	<path class="st21" d="M172.2,145.9l7.3-2.9c-0.9-0.2-3.6-0.6-7.4-0.6c-1.9,0-3.8,0.1-5.7,0.3c-5.8,0.7-11.6,6.2-13.7,8.2l4.7,0.1
		l0,0l1.6-0.6c0,0-1.7-0.6-0.3-1.8s3.4,0.8,3.4,0.8L172.2,145.9L172.2,145.9z"/>
	<g>
		<polygon class="st20" points="177.1,149.6 181.3,148.8 177.4,155.4 178.3,156.4 183,148.2 		"/>
		<path class="st20" d="M176.1,147.3c-0.8-0.4-2.7-1.3-2.7-1.3l6.7-2.7c0,0,0.6-0.6-0.3-0.7c-0.9-0.1-6.1-1.2-13.5-0.3
			c-7.4,0.8-14.7,9.2-14.7,9.2l5.3,0.1l-0.2,11.4c0,0,15.1-3.7,15.7-3.8c0.6-0.1,0.8-1,0.9-1.5c0.1-0.5-0.4-0.2-0.2-0.5
			c0.2-0.3,3.4-6.9,3.6-7.1c0.1-0.2,0.3-0.3,0.3-0.4c0,0,0.1-0.1,0.1-0.1S176.8,147.6,176.1,147.3z M176.4,149.7
			c-0.1,0.1-0.2,0.3-3.7,7.2l0,0c-0.1,0.2-0.1,0.4,0,0.5c0,0.1,0.1,0.2,0.2,0.2c-0.1,0.6-0.4,0.9-0.5,1c-0.5,0.1-11.6,2.8-15.1,3.6
			l0.2-11.2l0,0l-4.7-0.1c2-2.1,7.9-7.6,13.7-8.2c1.9-0.2,3.8-0.3,5.7-0.3c3.8,0,6.5,0.4,7.4,0.6l-7.3,2.9l0,0l3.6,1.8
			c0.3,0.2,0.7,1,0.8,1.7L176.4,149.7z"/>
	</g>
	<g>
		<path class="st24" d="M156.3,151l3-5.5c-0.5,0.3-1,0.7-1.5,1c0,0,0,0,0,0c-0.2,0.2-0.5,0.3-0.7,0.5c0,0,0,0-0.1,0
			c-0.2,0.2-0.4,0.3-0.6,0.5l-1.9,3.4L156.3,151z"/>
		<path class="st24" d="M156.7,151l0.7,0l0.9-1.6c0-0.1,0.1-0.3,0.2-0.4l2.4-4.4c-0.3,0.2-0.7,0.4-1,0.6c0,0,0,0,0,0L156.7,151z"/>
		<path class="st24" d="M163.9,143.2L163.9,143.2c-0.1,0-0.3,0.1-0.4,0.1c0,0,0,0-0.1,0c-0.1,0-0.3,0.1-0.4,0.1l-2.6,4.8
			c0.2,0.1,0.4,0.1,0.6,0.2L163.9,143.2z"/>
		<path class="st24" d="M165.1,142.9C165.1,142.9,165.1,142.9,165.1,142.9c-0.2,0-0.4,0.1-0.6,0.1h0l-3.2,5.8
			c0.1,0.1,0.2,0.2,0.3,0.2L165.1,142.9z"/>
	</g>
	<path class="st25" d="M167.9,138.6c0,0,4.1,0.9,5.2,2.1c5.5-0.5,11.1,0.3,11.1,0.3s-3.7-1.3-6.9-2S167.9,138.6,167.9,138.6z"/>
	<path class="st20" d="M132,146.7c0,0-0.8,2.5,3.5,4.4c4.3,1.9,13.2,1.1,13.2,1.1s5.3-5.6,10.9-8.7c-1.8-1.1-8.8-4-12.3-3.7
		C143.7,140.8,132,146.7,132,146.7z"/>
	<path class="st21" d="M144.9,151.5c-2.3-0.2-6.5-0.3-8.8-1.3c-3.2-1.4-3.2-2.8-3.1-3.4c1.6-0.8,11.3-5.8,14.5-6.8
		c1.6-0.4,9,1.8,11.7,3.5c-4.9,2.8-9.3,6.9-10.1,7.7C148.4,151.3,147.2,151.6,144.9,151.5z"/>
	<path class="st23" d="M194.5,148.6c0-0.1,0-0.1,0-0.2c0,0,0,0,0-0.1c0,0,0-0.1,0-0.1c0,0,0,0,0-0.1c0,0,0-0.1,0-0.1c0,0,0,0,0-0.1
		c0,0,0-0.1,0-0.1c0,0,0,0,0-0.1c0,0,0-0.1,0-0.1c0,0,0,0,0-0.1c0-0.1,0-0.1,0-0.2c0,0,0,0,0,0c0-1.4,0-3-0.4-3.8c0,0,0,0,0,0
		c0,0,0-0.1,0-0.1c0,0,0,0,0,0c0,0,0-0.1,0-0.1c0,0,0,0,0,0c0,0,0,0-0.1-0.1l0,0l0,0c-1.1-0.4-4.2-0.1-6.8,0.5
		c-2.6,0.6-23.5,7.4-24.8,7.2c-0.2,0-0.3,0-0.5-0.1c0,0,0.3,0,0.4-0.3c0.1-0.3-0.1-1.3-0.1-1.3s-0.6,0.6-2.1,0.5
		c-1.4-0.2-1.7-0.7-1.7-0.7s-0.1,0.4,0.1,0.7c0.3,0.3,0.5,0.4,0.8,0.6c-0.1,0-0.2,0-0.2,0.1c-0.5,0.2-0.8,0.3-1.4,0.5
		c-0.3,0.2-0.5,0.4-0.5,0.4s-16.1,4.7-17.5,5.5c-1.4,0.7-5.9,5.7-8.3,6.3c-2.4,0.5-9.3-0.7-9.3-0.7s-2-2.4-2.5-3.5l-1.1,1.5
		c0,0,0.5,1.9,0.6,2.3c0.1,0.4,2.7-0.3,2.7-0.3s0.1,0.3,1,0.8c0.9,0.4,1.7,0.8,1.7,0.8s0,1.7,0.3,2.6c0.3,0.9,3.1,1.5,5.8,2
		s10.8-0.6,10.8-0.6s1.1,0.1,1.1-0.9c-0.2-2.2,1.2-11.2,8-11.2c5.9,0,5.1,6.3,5.1,7.6c0,0-0.4,1.5,0.9,1.2
		c1.3-0.3,24.4-5.6,26.1-5.8c1.2-0.2,1.1-0.1,1-1.3s0.9-9.3,6.8-9.5c4.1,0.1,3.1,5.8,3.1,5.8s0.8-0.2,1-1.5
		C194.7,151.1,194.7,150.5,194.5,148.6z"/>
	<g>
		<path class="st24" d="M141.4,142.6c-0.4,0.2-0.7,0.3-1.1,0.5l-3.6,7.3c0.2,0.1,0.5,0.1,0.7,0.2L141.4,142.6z"/>
		<path class="st24" d="M136.5,145l-2.1,4.3c0.4,0.3,1,0.6,1.7,0.9c0.2,0.1,0.3,0.1,0.5,0.2l3.6-7.1
			C138.8,143.8,137.6,144.4,136.5,145z"/>
		<path class="st24" d="M143.1,141.8c-0.2,0.1-0.3,0.2-0.5,0.2l-4.4,8.8c0.1,0,0.2,0,0.4,0.1L143.1,141.8z"/>
		<path class="st24" d="M156.9,142.4c-0.7-0.3-1.5-0.6-2.3-0.9l-4,8.1c1.1-1,2.7-2.3,4.5-3.5L156.9,142.4z"/>
		<path class="st24" d="M147.7,140c-0.1,0-0.2,0-0.3,0c-0.6,0.2-1.3,0.5-2.2,0.8l-5.1,10.3c0.7,0.1,1.3,0.1,2,0.2L147.7,140z"/>
		<path class="st24" d="M153.8,141.3c-0.3-0.1-0.5-0.2-0.8-0.3l-5.2,10.4c0.5-0.1,0.8-0.1,1-0.2L153.8,141.3z"/>
		<path class="st24" d="M148.4,140c-0.1,0-0.2,0-0.3,0l-5.7,11.4c0.1,0,0.2,0,0.3,0L148.4,140z"/>
	</g>
	<path class="st20" d="M129.6,161.2c1.2,0.3,2.4,0.3,3,0.4c6.2-5.2,7.4-5.1,7.4-5.1s-3.3-0.2-4.7,0.2
		C134,157,128.4,160.8,129.6,161.2z"/>
	<path class="st21" d="M132.2,161c-0.2,0-0.4,0-0.6-0.1c-0.5,0-1.1-0.1-1.8-0.2c0.8-1,4.3-3.4,5.4-3.7c0.5-0.1,1.4-0.2,2.6-0.2
		C136.6,157.6,134.8,158.8,132.2,161z"/>
	<path class="st23" d="M157.7,151c0,0-0.1,1.5,0.4,1.7c0.5,0.2,1.8-0.1,2.1-0.4c0.3-0.3,0.3-1,0.1-1.2c-0.2-0.3-1.7-0.4-1.7-0.4
		L157.7,151z"/>
</g>
<g id="star" class="rpl33-1">
	<polygon points="65.4,37.2 67.6,41.6 72.5,42.3 69,45.8 69.8,50.6 65.4,48.3 61.1,50.6 61.9,45.8 58.4,42.3 
		63.2,41.6 	"/>
	<polygon points="206.7,37.2 208.9,41.6 213.7,42.3 210.2,45.8 211,50.6 206.7,48.3 202.3,50.6 203.1,45.8 199.6,42.3 
		204.5,41.6 	"/>
</g>
<text id="text1" transform="matrix(1 0 0 1 135.247 41.2387)" class="st26 st27 editable">Happy birthday!</text>
<text id="text2" transform="matrix(1 0 0 1 135.1107 52.3124)" class="st26 st28 editable">My little boy!</text>
<rect id="text_background_left" class="svgRibbon" width="56.7" height="170.1"/>
<rect id="text_background_right" x="215.4" class="svgRibbon" width="56.7" height="170.1"/>
<rect id="Button_Stripe" y="170.1" class="rpl4-1" width="272.1" height="14.2"/>
<text id="product" transform="matrix(1 0 0 1 134.1599 179.5623)" class="st30 st26 st31 svgProduct">Product name</text>
<text id="quantity" transform="matrix(1 0 0 1 6.4882 179.7678)" class="st30 st26 st32">220 ml</text>
<path id="AlpStories_LOGO" d="M139,22.6c0-0.1,0.1-0.2,0.2-0.2h2.4c0.1,0,0.2,0.1,0.2,0.2v2c0,0.1-0.1,0.2-0.2,0.2h-2.4
	c-0.1,0-0.2-0.1-0.2-0.2V22.6z M138.4,22.5v2.2c0,0.4,0.3,0.6,0.7,0.6h2.7c0.4,0,0.7-0.2,0.7-0.6v-2.2c0-0.4-0.3-0.6-0.7-0.6H139
	C138.6,22,138.4,22.1,138.4,22.5 M133.5,22v0.4c0,0,0,0,0,0h1.5c0,0,0,0,0,0v2.8c0,0,0,0,0,0h0.5c0,0,0,0,0,0v-2.8c0,0,0,0,0,0h1.5
	c0,0,0,0,0,0V22c0,0,0,0,0,0L133.5,22C133.5,22,133.5,22,133.5,22 M127.8,24.6v0.2c0,0.4,0.3,0.6,0.7,0.6h1h1.9
	c0.4,0,0.7-0.2,0.7-0.6v-1.2c0-0.4-0.3-0.6-0.7-0.6h-2.6c-0.1,0-0.2-0.1-0.2-0.2V22c0-0.1,0.1-0.2,0.2-0.2h2.4
	c0.1,0,0.2,0.1,0.2,0.2v0.1c0,0,0,0.1,0.1,0.1l0.5-0.1c0,0,0.1,0,0.1-0.1v-0.1c0-0.4-0.3-0.6-0.7-0.6h-2.6c-0.4,0-0.7,0.2-0.7,0.6
	v1.1c0,0.4,0.3,0.6,0.7,0.6h2.6c0.1,0,0.2,0.1,0.2,0.2v1c0,0.1-0.1,0.2-0.2,0.2h-2.7c-0.1,0-0.2-0.1-0.2-0.2v-0.1c0,0,0-0.1-0.1-0.1
	L127.8,24.6C127.9,24.5,127.8,24.5,127.8,24.6 M116.8,25.4C116.9,25.4,116.9,25.3,116.8,25.4l-2.2-4c0,0,0,0-0.1,0h-0.7
	c0,0,0,0-0.1,0l-2.2,4c0,0,0,0,0,0h0.6c0,0,0,0,0.1,0l1.9-3.5c0,0,0,0,0,0c0,0,0,0,0,0h0l1.1,2l-1.7,0c-0.2,0-0.3,0.1-0.3,0.2v0.1
	c0,0.1,0.1,0.2,0.3,0.2l2,0l0.5,1c0,0,0,0,0.1,0H116.8z M121.4,25.3v-0.4c0,0,0,0,0,0h-2.5c0,0,0,0,0,0V22c0,0,0,0,0,0h-0.5
	c0,0,0,0,0,0v3.3c0,0,0,0.1,0.1,0.1L121.4,25.3C121.4,25.4,121.4,25.3,121.4,25.3 M126.3,23.4v-0.9c0-0.4-0.3-0.6-0.7-0.6h-2.8
	c0,0-0.1,0-0.1,0.1v3.3c0,0,0,0,0,0l0.5,0c0,0,0,0,0,0v-2.8c0,0,0,0,0,0h2.1c0.1,0,0.2,0.1,0.2,0.2v0.7c0,0.1-0.1,0.2-0.2,0.2
	l-1.5,0c-0.2,0-0.3,0.1-0.3,0.2v0c0,0.1,0.1,0.2,0.3,0.2l1.7,0C126,24,126.3,23.8,126.3,23.4 M137.1,14.2c0,0-2.2-4.6-2.2-4.6
	c-0.2-0.3-0.4-0.6-0.8-0.6c-0.4,0-0.7,0.1-0.9,0.4c0,0-5.9,8.3-5.9,8.3c-0.1,0.2-0.2,0.4-0.1,0.5c0.1,0.1,0.3,0,0.4-0.2
	c0,0,5.7-7.2,5.7-7.2c0.2-0.2,0.4-0.4,0.6-0.4c0.2,0,0.4,0.2,0.5,0.5c0,0,1.6,3.7,1.6,3.7c0.1,0.3,0.5,0.5,0.7,0.4
	C137.2,14.9,137.3,14.5,137.1,14.2 M143.9,15.7c0.1-0.3,0-0.7-0.2-1c0,0-3.6-4.3-3.6-4.3c-0.1-0.1-0.2-0.3-0.1-0.4
	c0.1-0.2,0.2-0.3,0.4-0.3l2.8-0.5c0.1,0,0.3-0.1,0.2-0.2c0-0.1-0.1-0.2-0.3-0.2L139.3,9c-0.4,0-0.7,0.2-0.8,0.5
	c-0.1,0.3,0,0.6,0.2,0.8c0,0,3.7,4.2,3.7,4.2c0.1,0.2,0.2,0.4,0.1,0.6c-0.1,0.2-0.2,0.3-0.4,0.3c0,0-9.1,2.2-9.1,2.2
	c-0.2,0.1-0.4,0.2-0.4,0.3c0,0.1,0.2,0.2,0.5,0.1c0,0,10.1-1.8,10.1-1.8C143.5,16.2,143.8,16,143.9,15.7 M147.9,25.3
	c0,0,0-0.1,0-0.2c0,0-0.8-0.7-1.2-1.2l0.3,0c0.4,0,0.7-0.2,0.7-0.6v-0.9c0-0.4-0.3-0.6-0.7-0.6h-2.7c0,0-0.1,0-0.1,0.1v3.3
	c0,0,0,0,0,0l0.5,0c0,0,0,0,0,0v-2.8c0,0,0,0,0,0h1.9c0.1,0,0.2,0.1,0.2,0.2v0.7c0,0.1-0.1,0.2-0.2,0.2l-1.4,0
	c-0.2,0-0.3,0.1-0.3,0.2v0c0,0.1,0.1,0.2,0.3,0.2l0.6,0l1.3,1.3c0,0,0.1,0,0.1,0L147.9,25.3C147.9,25.4,147.9,25.3,147.9,25.3
	 M150.1,25.3V22c0,0,0,0,0,0h-0.5c0,0,0,0,0,0v3.3c0,0,0,0,0,0L150.1,25.3C150.1,25.4,150.1,25.3,150.1,25.3 M155.4,25.3v-0.4
	c0,0,0,0,0,0h-2.8c0,0,0,0,0,0v-1l1.3,0c0.2,0,0.3-0.1,0.3-0.2v0c0-0.1-0.1-0.2-0.3-0.2l-1.3,0v-0.8c0,0,0,0,0,0h2.7c0,0,0,0,0,0V22
	c0,0,0,0,0,0H152c0,0-0.1,0-0.1,0.1v3.3c0,0,0,0.1,0.1,0.1L155.4,25.3C155.4,25.4,155.4,25.3,155.4,25.3 M157.3,23.2v-0.5
	c0-0.1,0.1-0.2,0.2-0.2h2c0.1,0,0.2,0.1,0.2,0.2v0.1c0,0,0,0.1,0.1,0.1l0.4-0.1c0,0,0.1,0,0.1-0.1v-0.1c0-0.4-0.3-0.6-0.7-0.6h-2.1
	c-0.4,0-0.7,0.2-0.7,0.6v0.7c0,0.4,0.3,0.6,0.7,0.6h2.2c0.1,0,0.2,0.1,0.2,0.2v0.7c0,0.1-0.1,0.2-0.2,0.2h-2.2
	c-0.1,0-0.2-0.1-0.2-0.2v-0.2c0,0,0-0.1-0.1-0.1l-0.4,0.1c0,0-0.1,0-0.1,0.1v0.2c0,0.4,0.3,0.6,0.7,0.6h0.7h1.6
	c0.4,0,0.7-0.2,0.7-0.6v-0.9c0-0.4-0.3-0.6-0.7-0.6h-2.2C157.4,23.3,157.3,23.3,157.3,23.2"/>
<g>
	
		<image style="overflow:visible;" width="28" height="28" id="Icon1" class="st34" transform="matrix(0.3165 0 0 0.3165 258.8356 172.7338)">
	</image>
	
		<image style="overflow:visible;" width="28" height="28" id="Icon2" class="st34" transform="matrix(0.3165 0 0 0.3165 247.7487 172.7338)">
	</image>
	
		<image style="overflow:visible;" width="28" height="28" id="Icon3" class="st34" transform="matrix(0.3165 0 0 0.3165 236.6617 172.7338)">
	</image>
	
		<image style="overflow:visible;" width="28" height="28" id="Icon4" class="st34" transform="matrix(0.3165 0 0 0.3165 214.4878 172.7338)">
	</image>
	
		<image style="overflow:visible;" width="28" height="28" id="Icon5" class="st34" transform="matrix(0.3165 0 0 0.3165 225.5748 172.7338)">
	</image>
</g>
</svg>
