<?xml version="1.0" encoding="utf-8"?>
<svg version="1.1" id="background" data-color-numbers="3" xmlns="http://www.w3.org/2000/svg" xmlns:xlink="http://www.w3.org/1999/xlink" x="0px" y="0px"
	 viewBox="0 0 283.5 255.1" style="enable-background:new 0 0 283.5 255.1;" xml:space="preserve">
<style type="text/css">
  <![CDATA[
  @font-face {
        font-family: "DevroyeUnicode";
        src: url("/Content/fonts/DEVROYUN.ttf") format("truetype");
  }
	.rpl0-1{fill:#CE7A34;}
  .rpl0-2{fill:#b4975a;}
  .rpl0-3{fill:#0e68ce;}
	.st1{opacity:0.2;fill:#FFFFFF;}
	.st2{fill:#C998D1;}
	.rpl3-1{fill:#F24E06;}
  .rpl3-2{fill:#ffb612;}
  .rpl3-3{fill:#d6d6d6;}
	.rpl4-1{fill:#216b22;}
  .rpl4-2{fill:#0073cf;}
  .rpl4-3{fill:#bf0000;}
	.st5{fill:#AF0000;}
	.st6{fill:#960000;}
	.st7{fill:#BC0000;}
	.st8{fill:#7F0000;}
	.st9{fill:#EA2D2D;}
	.st10{opacity:0.6;fill:#E50011;}
	.st11{fill:#F7941E;}
	.st12{fill:#BE1E2D;}
	.st13{fill:#A0431A;}
	.st14{fill:#D65B1D;}
	.st15{fill:#770000;}
	.st16{fill:#D30000;}
	.st17{fill:#B20000;}
	.st18{fill:#0F1014;}
	.st19{fill:#D1D3D4;}
	.st20{fill:#282828;}
	.st21{fill:#8C8C8C;}
	.rpl22-1{fill:#259925;}
  .rpl22-2{fill:#7924ff;}
  .rpl22-3{fill:#ff0000;}
	.st23{opacity:0.2;}
	.st24{fill:#AAAAAA;}
	.st25{opacity:0.2;fill:#282828;}
	.st26{font-family:'DevroyeUnicode';}
	.st27{font-size:8.6088px;}
	.st28{font-size:10.0435px;}	
	.st30{fill:#FFFFFF;}
	.st31{font-size:8.64px;}
	.st32{font-size:9.36px;}
  .rpl33-1{fill:#F7941E;}
  .rpl33-2{fill:#30008c;}
  .rpl33-3{fill:#0025ff;}
  .st34{fill:#FFFFFF;}
  .editable{text-anchor: middle;}
  .svgProduct{text-anchor: middle;}
  .svgRibbon{visibility:hidden; opacity:0.6;fill:#FFFFFF;}
 ]]>
</style>
<image style="overflow:visible;" id="editableImg" width="1600" height="1200" xlink:href="/Content/img/little-kitty.jpg"  transform="matrix(0.1091 0 0 0.1091 53.5466 68.955)">
</image>
<path id="background" class="rpl0-1" d="M0,0v249.6h283.5V0H0z M194,205.7H86.5v-180H194V205.7z"/>
<path id="stars_pattern" class="st1" d="M39.2,182.1l7.8,1.1l-5.7,5.5l1.3,7.8l-7-3.7l-7,3.7l1.3-7.8l-5.7-5.5l7.8-1.1l3.5-7.1
	L39.2,182.1z M35.7,62.8L32.2,70l-7.8,1.1l5.7,5.5l-1.3,7.8l7-3.7l7,3.7l-1.3-7.8l5.7-5.5L39.2,70L35.7,62.8z M35.7,197.4l-3.5,7.1
	l-7.8,1.1l5.7,5.5l-1.3,7.8l7-3.7l7,3.7l-1.3-7.8l5.7-5.5l-7.8-1.1L35.7,197.4z M35.7,107.7l-3.5,7.1l-7.8,1.1l5.7,5.5l-1.3,7.8
	l7-3.7l7,3.7l-1.3-7.8l5.7-5.5l-7.8-1.1L35.7,107.7z M35.7,85.3l-3.5,7.1l-7.8,1.1l5.7,5.5l-1.3,7.8l7-3.7l7,3.7l-1.3-7.8l5.7-5.5
	l-7.8-1.1L35.7,85.3z M35.7,130.1l-3.5,7.1l-7.8,1.1l5.7,5.5l-1.3,7.8l7-3.7l7,3.7l-1.3-7.8l5.7-5.5l-7.8-1.1L35.7,130.1z M39.2,227
	l-3.5-7.1l-3.5,7.1l-7.8,1.1l5.7,5.5l-1.3,7.8l7-3.7l7,3.7l-1.3-7.8l5.7-5.5L39.2,227z M35.7,152.6l-3.5,7.1l-7.8,1.1l5.7,5.5
	l-1.3,7.8l7-3.7l7,3.7l-1.3-7.8l5.7-5.5l-7.8-1.1L35.7,152.6z M12.3,107.7l-3.5,7.1L0.9,116l5.7,5.5l-1.3,7.8l7-3.7l7,3.7l-1.3-7.8
	l5.7-5.5l-7.8-1.1L12.3,107.7z M12.3,85.3l-3.5,7.1l-7.8,1.1l5.7,5.5l-1.3,7.8l7-3.7l7,3.7l-1.3-7.8l5.7-5.5l-7.8-1.1L12.3,85.3z
	 M12.3,130.1l-3.5,7.1l-7.8,1.1l5.7,5.5l-1.3,7.8l7-3.7l7,3.7l-1.3-7.8l5.7-5.5l-7.8-1.1L12.3,130.1z M12.3,40.4l-3.5,7.1l-7.8,1.1
	l5.7,5.5L5.2,62l7-3.7l7,3.7l-1.3-7.8l5.7-5.5l-7.8-1.1L12.3,40.4z M12.3,18l-3.5,7.1l-7.8,1.1l5.7,5.5l-1.3,7.8l7-3.7l7,3.7
	l-1.3-7.8l5.7-5.5l-7.8-1.1L12.3,18z M12.3,62.8L8.7,70l-7.8,1.1l5.7,5.5l-1.3,7.8l7-3.7l7,3.7l-1.3-7.8l5.7-5.5L15.8,70L12.3,62.8z
	 M14.4,0h-4.4L8.7,2.7L0.9,3.8l5.7,5.5l-1.3,7.8l7-3.7l7,3.7l-1.3-7.8l5.7-5.5l-7.8-1.1L14.4,0z M59.2,107.7l-3.5,7.1l-7.8,1.1
	l5.7,5.5l-1.3,7.8l7-3.7l7,3.7l-1.3-7.8l5.7-5.5l-7.8-1.1L59.2,107.7z M59.2,85.3l-3.5,7.1l-7.8,1.1l5.7,5.5l-1.3,7.8l7-3.7l7,3.7
	l-1.3-7.8l5.7-5.5l-7.8-1.1L59.2,85.3z M59.2,40.4l-3.5,7.1l-7.8,1.1l5.7,5.5L52.2,62l7-3.7l7,3.7l-1.3-7.8l5.7-5.5l-7.8-1.1
	L59.2,40.4z M35.7,40.4l-3.5,7.1l-7.8,1.1l5.7,5.5L28.7,62l7-3.7l7,3.7l-1.3-7.8l5.7-5.5l-7.8-1.1L35.7,40.4z M12.3,152.6l-3.5,7.1
	l-7.8,1.1l5.7,5.5l-1.3,7.8l7-3.7l7,3.7l-1.3-7.8l5.7-5.5l-7.8-1.1L12.3,152.6z M86.2,227l-3.5-7.1l-3.5,7.1l-7.8,1.1l5.7,5.5
	l-1.3,7.8l7-3.7l7,3.7l-1.3-7.8l5.7-5.5L86.2,227z M61.4,0H57l-1.3,2.7l-7.8,1.1l5.7,5.5l-1.3,7.8l7-3.7l7,3.7l-1.3-7.8l5.7-5.5
	l-7.8-1.1L61.4,0z M59.2,62.8L55.7,70l-7.8,1.1l5.7,5.5l-1.3,7.8l7-3.7l7,3.7l-1.3-7.8l5.7-5.5L62.7,70L59.2,62.8z M37.9,0h-4.4
	l-1.3,2.7l-7.8,1.1L30,9.3l-1.3,7.8l7-3.7l7,3.7l-1.3-7.8l5.7-5.5l-7.8-1.1L37.9,0z M62.7,227l-3.5-7.1l-3.5,7.1l-7.8,1.1l5.7,5.5
	l-1.3,7.8l7-3.7l7,3.7l-1.3-7.8l5.7-5.5L62.7,227z M59.2,130.1l-3.5,7.1l-7.8,1.1l5.7,5.5l-1.3,7.8l7-3.7l7,3.7l-1.3-7.8l5.7-5.5
	l-7.8-1.1L59.2,130.1z M35.7,18l-3.5,7.1l-7.8,1.1l5.7,5.5l-1.3,7.8l7-3.7l7,3.7l-1.3-7.8l5.7-5.5l-7.8-1.1L35.7,18z M59.2,197.4
	l-3.5,7.1l-7.8,1.1l5.7,5.5l-1.3,7.8l7-3.7l7,3.7l-1.3-7.8l5.7-5.5l-7.8-1.1L59.2,197.4z M59.2,152.6l-3.5,7.1l-7.8,1.1l5.7,5.5
	l-1.3,7.8l7-3.7l7,3.7l-1.3-7.8l5.7-5.5l-7.8-1.1L59.2,152.6z M59.2,175l-3.5,7.1l-7.8,1.1l5.7,5.5l-1.3,7.8l7-3.7l7,3.7l-1.3-7.8
	l5.7-5.5l-7.8-1.1L59.2,175z M122.6,17.2l7-3.7l7,3.7l-1.3-7.8l5.7-5.5l-7.8-1.1L131.8,0h-4.4l-1.3,2.7l-7.8,1.1l5.7,5.5L122.6,17.2
	z M75.6,151.7l7-3.7l3.8,2v-12.8l-0.3,0l-3.5-7.1l-3.5,7.1l-7.8,1.1l5.7,5.5L75.6,151.7z M75.6,62l7-3.7l3.8,2V47.6l-0.3,0l-3.5-7.1
	l-3.5,7.1l-7.8,1.1l5.7,5.5L75.6,62z M75.6,17.2l7-3.7l7,3.7l-1.3-7.8L94,3.8l-7.8-1.1L84.8,0h-4.4l-1.3,2.7l-7.8,1.1L77,9.3
	L75.6,17.2z M75.6,39.6l7-3.7l3.8,2V25.7h3.9l-4.2-0.6L82.6,18l-3.5,7.1l-7.8,1.1l5.7,5.5L75.6,39.6z M75.6,84.4l7-3.7l3.8,2V70
	l-0.3,0l-3.5-7.1L79.1,70l-7.8,1.1l5.7,5.5L75.6,84.4z M75.6,129.3l7-3.7l3.8,2v-12.8l-0.3,0l-3.5-7.1l-3.5,7.1l-7.8,1.1l5.7,5.5
	L75.6,129.3z M75.6,106.9l7-3.7l3.8,2V92.4l-0.3,0l-3.5-7.1l-3.5,7.1l-7.8,1.1l5.7,5.5L75.6,106.9z M99.1,17.2l7-3.7l7,3.7l-1.3-7.8
	l5.7-5.5l-7.8-1.1L108.3,0h-4.4l-1.3,2.7l-7.8,1.1l5.7,5.5L99.1,17.2z M106.1,18l-3.5,7.1l-4.2,0.6h15.4l-4.2-0.6L106.1,18z
	 M129.6,18l-3.5,7.1l-4.2,0.6h15.4l-4.2-0.6L129.6,18z M169.5,17.2l7-3.7l7,3.7l-1.3-7.8l5.7-5.5L180,2.7L178.7,0h-4.4L173,2.7
	l-7.8,1.1l5.7,5.5L169.5,17.2z M86.5,204.6l-0.3,0l-3.5-7.1l-3.5,7.1l-7.8,1.1l5.7,5.5l-1.3,7.8l7-3.7l7,3.7l-1.3-7.8l5.7-5.5h-7.5
	V204.6z M153,18l-3.5,7.1l-4.2,0.6h15.4l-4.2-0.6L153,18z M146,17.2l7-3.7l7,3.7l-1.3-7.8l5.7-5.5l-7.8-1.1L155.2,0h-4.4l-1.3,2.7
	l-7.8,1.1l5.7,5.5L146,17.2z M176.5,18l-3.5,7.1l-4.2,0.6h15.4l-4.2-0.6L176.5,18z M0,26.4l0.1-0.1l-0.1,0V26.4z M0,93.7l0.1-0.1
	l-0.1,0V93.7z M12.3,175l-3.5,7.1l-7.8,1.1l5.7,5.5l-1.3,7.8l7-3.7l7,3.7l-1.3-7.8l5.7-5.5l-7.8-1.1L12.3,175z M0,71.2l0.1-0.1
	l-0.1,0V71.2z M75.6,174.2l7-3.7l3.8,2v-12.8l-0.3,0l-3.5-7.1l-3.5,7.1l-7.8,1.1l5.7,5.5L75.6,174.2z M12.3,197.4l-3.5,7.1l-7.8,1.1
	l5.7,5.5L5.2,219l7-3.7l7,3.7l-1.3-7.8l5.7-5.5l-7.8-1.1L12.3,197.4z M15.8,227l-3.5-7.1L8.7,227l-7.8,1.1l5.7,5.5l-1.3,7.8l7-3.7
	l7,3.7l-1.3-7.8l5.7-5.5L15.8,227z M0,4l0.1-0.1L0,3.8V4z M0,48.8l0.1-0.1l-0.1,0V48.8z M0,205.8l0.1-0.1l-0.1,0V205.8z M0,228.2
	l0.1-0.1l-0.1,0V228.2z M75.6,196.6l7-3.7l3.8,2v-12.8l-0.3,0l-3.5-7.1l-3.5,7.1l-7.8,1.1l5.7,5.5L75.6,196.6z M0,116.1l0.1-0.1
	l-0.1,0V116.1z M0,138.5l0.1-0.1l-0.1,0V138.5z M0,183.4l0.1-0.1l-0.1,0V183.4z M0,160.9l0.1-0.1l-0.1,0V160.9z M59.2,18l-3.5,7.1
	l-7.8,1.1l5.7,5.5l-1.3,7.8l7-3.7l7,3.7l-1.3-7.8l5.7-5.5l-7.8-1.1L59.2,18z M246.9,175l-3.5,7.1l-7.8,1.1l5.7,5.5l-1.3,7.8l7-3.7
	l7,3.7l-1.3-7.8l5.7-5.5l-7.8-1.1L246.9,175z M249.1,0h-4.4l-1.3,2.7l-7.8,1.1l5.7,5.5l-1.3,7.8l7-3.7l7,3.7l-1.3-7.8l5.7-5.5
	l-7.8-1.1L249.1,0z M273.9,227l-3.5-7.1l-3.5,7.1l-7.8,1.1l5.7,5.5l-1.3,7.8l7-3.7l7,3.7l-1.3-7.8l5.7-5.5L273.9,227z M270.4,175
	l-3.5,7.1l-7.8,1.1l5.7,5.5l-1.3,7.8l7-3.7l7,3.7l-1.3-7.8l5.7-5.5l-7.8-1.1L270.4,175z M270.4,85.3l-3.5,7.1l-7.8,1.1l5.7,5.5
	l-1.3,7.8l7-3.7l7,3.7l-1.3-7.8l5.7-5.5l-7.8-1.1L270.4,85.3z M270.4,107.7l-3.5,7.1L259,116l5.7,5.5l-1.3,7.8l7-3.7l7,3.7l-1.3-7.8
	l5.7-5.5l-7.8-1.1L270.4,107.7z M270.4,130.1l-3.5,7.1l-7.8,1.1l5.7,5.5l-1.3,7.8l7-3.7l7,3.7l-1.3-7.8l5.7-5.5l-7.8-1.1
	L270.4,130.1z M270.4,152.6l-3.5,7.1l-7.8,1.1l5.7,5.5l-1.3,7.8l7-3.7l7,3.7l-1.3-7.8l5.7-5.5l-7.8-1.1L270.4,152.6z M246.9,107.7
	l-3.5,7.1l-7.8,1.1l5.7,5.5l-1.3,7.8l7-3.7l7,3.7l-1.3-7.8l5.7-5.5l-7.8-1.1L246.9,107.7z M246.9,130.1l-3.5,7.1l-7.8,1.1l5.7,5.5
	l-1.3,7.8l7-3.7l7,3.7l-1.3-7.8l5.7-5.5l-7.8-1.1L246.9,130.1z M246.9,152.6l-3.5,7.1l-7.8,1.1l5.7,5.5l-1.3,7.8l7-3.7l7,3.7
	l-1.3-7.8l5.7-5.5l-7.8-1.1L246.9,152.6z M246.9,18l-3.5,7.1l-7.8,1.1l5.7,5.5l-1.3,7.8l7-3.7l7,3.7l-1.3-7.8l5.7-5.5l-7.8-1.1
	L246.9,18z M246.9,40.4l-3.5,7.1l-7.8,1.1l5.7,5.5l-1.3,7.8l7-3.7l7,3.7l-1.3-7.8l5.7-5.5l-7.8-1.1L246.9,40.4z M246.9,85.3
	l-3.5,7.1l-7.8,1.1l5.7,5.5l-1.3,7.8l7-3.7l7,3.7l-1.3-7.8l5.7-5.5l-7.8-1.1L246.9,85.3z M246.9,62.8l-3.5,7.1l-7.8,1.1l5.7,5.5
	l-1.3,7.8l7-3.7l7,3.7l-1.3-7.8l5.7-5.5l-7.8-1.1L246.9,62.8z M270.4,197.4l-3.5,7.1l-7.8,1.1l5.7,5.5l-1.3,7.8l7-3.7l7,3.7
	l-1.3-7.8l5.7-5.5l-7.8-1.1L270.4,197.4z M283.5,72.1V71l-1,0.1L283.5,72.1z M283.5,94.5v-1.1l-1,0.1L283.5,94.5z M283.5,116.9v-1.1
	l-1,0.1L283.5,116.9z M282.5,3.8l1,1V3.7L282.5,3.8z M283.5,139.3v-1.1l-1,0.1L283.5,139.3z M270.4,62.8l-3.5,7.1l-7.8,1.1l5.7,5.5
	l-1.3,7.8l7-3.7l7,3.7l-1.3-7.8l5.7-5.5l-7.8-1.1L270.4,62.8z M283.5,49.6v-1.1l-1,0.1L283.5,49.6z M283.5,27.2v-1.1l-1,0.1
	L283.5,27.2z M270.4,18l-3.5,7.1l-7.8,1.1l5.7,5.5l-1.3,7.8l7-3.7l7,3.7l-1.3-7.8l5.7-5.5l-7.8-1.1L270.4,18z M272.6,0h-4.4
	l-1.3,2.7L259,3.8l5.7,5.5l-1.3,7.8l7-3.7l7,3.7L276,9.3l5.7-5.5l-7.8-1.1L272.6,0z M270.4,40.4l-3.5,7.1l-7.8,1.1l5.7,5.5l-1.3,7.8
	l7-3.7l7,3.7l-1.3-7.8l5.7-5.5l-7.8-1.1L270.4,40.4z M283.5,206.6v-1.1l-1,0.1L283.5,206.6z M283.5,184.2v-1.1l-1,0.1L283.5,184.2z
	 M283.5,229.1v-1.1l-1,0.1L283.5,229.1z M283.5,161.8v-1.1l-1,0.1L283.5,161.8z M200,40.4l-3.5,7.1l-2.4,0.4v6l0.3,0.3l-0.3,1.6v5.6
	l6-3.1l7,3.7l-1.3-7.8l5.7-5.5l-7.8-1.1L200,40.4z M200,175l-3.5,7.1l-2.4,0.4v6l0.3,0.3l-0.3,1.6v5.6l6-3.1l7,3.7l-1.3-7.8l5.7-5.5
	l-7.8-1.1L200,175z M200,152.6l-3.5,7.1L194,160v6l0.3,0.3L194,168v5.6l6-3.1l7,3.7l-1.3-7.8l5.7-5.5l-7.8-1.1L200,152.6z
	 M200,197.4l-3.5,7.1l-2.4,0.4v0.8h-5.4l5.7,5.5L193,219l7-3.7l7,3.7l-1.3-7.8l5.7-5.5l-7.8-1.1L200,197.4z M200,130.1l-3.5,7.1
	l-2.4,0.4v6l0.3,0.3l-0.3,1.6v5.6l6-3.1l7,3.7l-1.3-7.8l5.7-5.5l-7.8-1.1L200,130.1z M200,62.8l-3.5,7.1l-2.4,0.4v6l0.3,0.3
	l-0.3,1.6v5.6l6-3.1l7,3.7l-1.3-7.8l5.7-5.5l-7.8-1.1L200,62.8z M203.5,227l-3.5-7.1l-3.5,7.1l-7.8,1.1l5.7,5.5l-1.3,7.8l7-3.7
	l7,3.7l-1.3-7.8l5.7-5.5L203.5,227z M246.9,197.4l-3.5,7.1l-7.8,1.1l5.7,5.5l-1.3,7.8l7-3.7l7,3.7l-1.3-7.8l5.7-5.5l-7.8-1.1
	L246.9,197.4z M200,85.3l-3.5,7.1l-2.4,0.4v6l0.3,0.3l-0.3,1.6v5.6l6-3.1l7,3.7l-1.3-7.8l5.7-5.5l-7.8-1.1L200,85.3z M133.1,227
	l-3.5-7.1l-3.5,7.1l-7.8,1.1l5.7,5.5l-1.3,7.8l7-3.7l7,3.7l-1.3-7.8l5.7-5.5L133.1,227z M123.9,211.2l-1.3,7.8l7-3.7l7,3.7l-1.3-7.8
	l5.7-5.5h-22.7L123.9,211.2z M100.4,211.2l-1.3,7.8l7-3.7l7,3.7l-1.3-7.8l5.7-5.5H94.8L100.4,211.2z M156.5,227l-3.5-7.1l-3.5,7.1
	l-7.8,1.1l5.7,5.5l-1.3,7.8l7-3.7l7,3.7l-1.3-7.8l5.7-5.5L156.5,227z M170.8,211.2l-1.3,7.8l7-3.7l7,3.7l-1.3-7.8l5.7-5.5h-22.7
	L170.8,211.2z M180,227l-3.5-7.1L173,227l-7.8,1.1l5.7,5.5l-1.3,7.8l7-3.7l7,3.7l-1.3-7.8l5.7-5.5L180,227z M147.4,211.2L146,219
	l7-3.7l7,3.7l-1.3-7.8l5.7-5.5h-22.7L147.4,211.2z M200,107.7l-3.5,7.1l-2.4,0.4v6l0.3,0.3l-0.3,1.6v5.6l6-3.1l7,3.7l-1.3-7.8
	l5.7-5.5l-7.8-1.1L200,107.7z M223.4,62.8l-3.5,7.1l-7.8,1.1l5.7,5.5l-1.3,7.8l7-3.7l7,3.7l-1.3-7.8l5.7-5.5l-7.8-1.1L223.4,62.8z
	 M223.4,107.7l-3.5,7.1l-7.8,1.1l5.7,5.5l-1.3,7.8l7-3.7l7,3.7l-1.3-7.8l5.7-5.5l-7.8-1.1L223.4,107.7z M223.4,40.4l-3.5,7.1
	l-7.8,1.1l5.7,5.5l-1.3,7.8l7-3.7l7,3.7l-1.3-7.8l5.7-5.5l-7.8-1.1L223.4,40.4z M223.4,85.3l-3.5,7.1l-7.8,1.1l5.7,5.5l-1.3,7.8
	l7-3.7l7,3.7l-1.3-7.8l5.7-5.5l-7.8-1.1L223.4,85.3z M109.6,227l-3.5-7.1l-3.5,7.1l-7.8,1.1l5.7,5.5l-1.3,7.8l7-3.7l7,3.7l-1.3-7.8
	l5.7-5.5L109.6,227z M225.6,0h-4.4l-1.3,2.7l-7.8,1.1l5.7,5.5l-1.3,7.8l7-3.7l7,3.7l-1.3-7.8l5.7-5.5l-7.8-1.1L225.6,0z M223.4,18
	l-3.5,7.1l-7.8,1.1l5.7,5.5l-1.3,7.8l7-3.7l7,3.7l-1.3-7.8l5.7-5.5l-7.8-1.1L223.4,18z M250.4,227l-3.5-7.1l-3.5,7.1l-7.8,1.1
	l5.7,5.5l-1.3,7.8l7-3.7l7,3.7l-1.3-7.8l5.7-5.5L250.4,227z M202.2,0h-4.4l-1.3,2.7l-7.8,1.1l5.7,5.5l-1.3,7.8l7-3.7l7,3.7l-1.3-7.8
	l5.7-5.5l-7.8-1.1L202.2,0z M200,18l-3.5,7.1l-4.2,0.6h1.7v5.8l0.3,0.3l-0.3,1.6V39l6-3.1l7,3.7l-1.3-7.8l5.7-5.5l-7.8-1.1L200,18z
	 M226.9,227l-3.5-7.1l-3.5,7.1l-7.8,1.1l5.7,5.5l-1.3,7.8l7-3.7l7,3.7l-1.3-7.8l5.7-5.5L226.9,227z M223.4,197.4l-3.5,7.1l-7.8,1.1
	l5.7,5.5l-1.3,7.8l7-3.7l7,3.7l-1.3-7.8l5.7-5.5l-7.8-1.1L223.4,197.4z M223.4,152.6l-3.5,7.1l-7.8,1.1l5.7,5.5l-1.3,7.8l7-3.7
	l7,3.7l-1.3-7.8l5.7-5.5l-7.8-1.1L223.4,152.6z M223.4,175l-3.5,7.1l-7.8,1.1l5.7,5.5l-1.3,7.8l7-3.7l7,3.7l-1.3-7.8l5.7-5.5
	l-7.8-1.1L223.4,175z M223.4,130.1l-3.5,7.1l-7.8,1.1l5.7,5.5l-1.3,7.8l7-3.7l7,3.7l-1.3-7.8l5.7-5.5l-7.8-1.1L223.4,130.1z"/>
<g id="text_background">
	<rect x="56.8" y="40.4" class="st2" width="170.1" height="29.1"/>
	<rect x="56.8" y="40.4" class="rpl3-1" width="170.1" height="29.1"/>
</g>
<rect id="alpstories_background" x="56.7" class="rpl4-1" width="170.1" height="41"/>
<g id="gift_box">
	<path d="M63.3,216.2l13,16.3l37.4-9.9c0,0-25.7-8.3-25.8-7.9C87.8,215,63.3,216.2,63.3,216.2z"/>
	<g>
		<polygon class="st5" points="61.7,180.7 63.3,216.2 77.6,230.8 76.8,187.2 		"/>
		<polygon class="st6" points="116.2,183.6 94.8,178.3 61.2,180.7 76.6,187.3 		"/>
		<polygon class="st5" points="76.8,187.2 77.6,230.8 113.6,222.6 115.7,183.6 		"/>
		<path class="st7" d="M115.7,183.6l-38.9,3.6l0.2,12c3.7,7,11,11.8,19.5,11.8c7.6,0,14.3-6.5,18.2-12.3L115.7,183.6z"/>
		<polygon class="st6" points="76.8,187.2 76.8,187.2 116.2,183.6 115.6,192.5 77,196.8 		"/>
		<polygon class="st8" points="115.6,192.1 77,196.4 76.8,187.2 76.8,187.2 77,196.8 115.6,192.5 116.2,183.6 116.2,183.6 		"/>
		<path class="st7" d="M116.2,183.6l-39.4,3.6l0,1.4c3.2,3.4,11,5.4,20,4.9c8.9-0.5,16.4-3.5,19.2-7.2L116.2,183.6z"/>
		<polygon class="st9" points="116.2,184 116.2,183.6 76.8,187.2 76.8,187.4 		"/>
		<path class="st7" d="M77,196.4l-0.1-8.3c-0.1-0.3-0.1-0.7-0.2-1l-13.2-5.5c-0.9,1.3-1.2,2.9-1.5,5l0.4,9.5
			c1.2,5.6,3.9,10.5,7.1,10.5C73.1,206.6,76.1,202.3,77,196.4z"/>
		<polygon class="st6" points="61.2,180.7 61.5,189.2 76.8,196.7 76.8,187.2 		"/>
		<polygon class="st8" points="61.5,188.7 61.2,180.7 61.2,180.7 61.5,189.2 77,196.8 77,196.3 		"/>
		<path class="st7" d="M69.4,191.3c3.2,0.9,6.1-1.2,7.5-3.9l0-0.2l-15.7-6.5l0.1,1.5C61.5,185.7,63.1,189.6,69.4,191.3z"/>
		<polygon class="st10" points="76.8,187.4 77,196.8 76.8,187.2 61.2,180.7 61.2,181 		"/>
		<polygon class="st8" points="71.4,224.5 67,220 65.7,182.7 71.6,184.9 		"/>
		<polygon class="st11" points="71.4,224.5 67,220 65.7,182.7 70.9,184.7 		"/>
		<polygon class="st11" points="109.2,181.9 101.5,180 65.7,182.7 70.9,184.7 		"/>
		<polygon class="st11" points="102.2,225.2 93.7,227.1 93.7,185.6 104,184.7 		"/>
		<polygon class="st11" points="82.4,179.2 74.3,179.8 93.7,185.6 104,184.7 		"/>
		<g>
			<path class="st11" d="M88.9,180c0,0,3.1-4.5,7.1-3.6c1.1,0.2,3.2,3.8,1.6,5.4c-0.9-2.5-8.2-0.6-8.3,0
				C88.6,182.3,88.9,180,88.9,180z"/>
			<path class="st12" d="M88.9,180.2c0,0.1,0,0.1,0,0.2c3.3-3.3,6.6-4.2,8.4-2.9c-0.2-0.2-0.3-0.5-0.5-0.6
				C94.5,175.8,91.6,177.3,88.9,180.2z"/>
			<path class="st11" d="M87.6,180.9c0,0,3.1,6.5,3.4,12.6c2.3-2,2.6-5.2,2.6-5.2s3.2,2,5,3.4c-0.9-7.2-9.9-11.2-9.9-11.2
				L87.6,180.9z"/>
			<g>
				<path class="st12" d="M91.6,193c0.4-0.4,0.7-0.9,0.9-1.3c-0.6-2.3-2-7.5-4.5-10.8l-0.2,0.1C88.5,181.8,90.8,186.2,91.6,193z"/>
				<path class="st12" d="M98.3,191.5c-0.4-1.8-2.1-7.1-9.8-10.9l-0.2,0.1c3.4,1.7,8,6.1,8.8,10C97.5,190.9,97.9,191.2,98.3,191.5z"
					/>
			</g>
			<path class="st13" d="M94,187.6c1.1,0.2,2,0,2.8-0.5c-2.3-3.4-6-5.5-7.5-6.3c-0.4,0.2-1.9,0.8-1.1,1
				C88.2,181.8,90.7,186.7,94,187.6z"/>
			<path class="st11" d="M89.7,180.9c0,0-3.7,6.2-4.5,12.2c-2.1-2.1-2.1-5.3-2.1-5.3s-3.3,1.7-5.2,3c1.5-7,10.7-10.4,10.7-10.4
				L89.7,180.9z"/>
			<path class="st14" d="M94.4,187.2c-3.4-0.9-5.8-5.8-5.8-5.8l2.3,0l4.4,2.4l0.6,2.3C95.9,186.1,96.9,187.1,94.4,187.2z"/>
			<g>
				<path class="st12" d="M88.8,180.5c-7.9,3.2-10,8.3-10.6,10.1c0.4-0.2,0.8-0.5,1.2-0.7c1.2-3.8,6.1-7.8,9.6-9.2L88.8,180.5z"/>
				<path class="st12" d="M83.9,191.1c0.2,0.5,0.5,0.9,0.8,1.4c1.4-6.6,4.1-10.8,4.9-11.7l-0.2-0.1
					C86.5,183.9,84.6,188.8,83.9,191.1z"/>
			</g>
			<path class="st11" d="M89.8,180.4c0,0,6.6,0,9,3.3c0.7,1-1.4,4.2-4.4,3.6c1.9-1.7-5.2-6-5.8-5.8
				C87.6,181.2,89.8,180.4,89.8,180.4z"/>
			<g>
				<path class="st12" d="M89.5,180.4c-0.1,0-0.1,0-0.2,0.1c5.4,0.7,9.1,2.6,9.2,4.6c0.1-0.2,0.2-0.5,0.3-0.7
					C98,182.2,94.2,180.8,89.5,180.4z"/>
				<path class="st12" d="M95,187.3c0.2,0,0.3,0,0.5,0c2.1-1.7-5.1-6.1-6.8-6.1c-0.2,0-0.3,0-0.4,0c0,0,0,0,0,0.1c0.1,0,0.2,0,0.3,0
					C90.2,181.3,96.9,185.4,95,187.3z"/>
			</g>
			<path class="st13" d="M89.8,180.4c0,0-0.4,0.2-0.8,0.4c-0.3,0.3-0.4,0.6,0.1,0.6c0,0,4.1,4.2,7.3,3.8c1.1-0.2,1.8-0.9,2.2-1.7
				C96.1,180.3,89.8,180.4,89.8,180.4z"/>
			<path class="st14" d="M96.7,184.7c-3.2,0.5-7.5-3.5-7.5-3.5l2.1-0.9l4.8,0.8l1.4,2C97.5,183.1,98.7,183.7,96.7,184.7z"/>
			<path class="st13" d="M88.2,181c0,0-0.4,0-1,0c-1.8,0.9-5,2.7-7.2,5.5c0.7,0.7,1.8,1.2,3,1c2.2-0.4,4.1-2.5,5.3-3.9
				c0.4-0.8,0.7-1.5,1-2C88.9,181.3,88.2,181,88.2,181z"/>
			<path class="st13" d="M97.9,178.7c-3.5-1.5-8.5,1.3-8.5,1.3s-0.3,0.4-0.5,0.8c0,0.3,0,0.6,0.1,0.8c0.1-0.1,0.4-0.1,0.8-0.1
				c1.5-0.7,7.2-1.9,7.9,0.3C98.4,181,98.3,179.8,97.9,178.7z"/>
			<path class="st11" d="M89.8,179.8c0,0,5.6-2.3,8.9,0c0.9,0.6,0.6,4.5-2.1,5c0.8-2.3-7.1-3.9-7.5-3.5
				C88.2,181.4,89.8,179.8,89.8,179.8z"/>
			<g>
				<path class="st12" d="M89.7,179.9c0,0-0.1,0.1-0.1,0.1c5-1.2,8.8-0.7,9.7,1.2c0-0.3,0-0.5-0.1-0.7
					C97.6,178.7,93.9,178.7,89.7,179.9z"/>
				<path class="st12" d="M89.2,181c-0.1,0.1-0.3,0.1-0.4,0.2c0,0,0,0,0,0.1c0.1,0,0.2-0.1,0.3-0.1c1.4-0.5,8.8,1,8,3.5
					c0.1-0.1,0.3-0.1,0.4-0.2C98.6,182,90.8,180.4,89.2,181z"/>
			</g>
			<path class="st11" d="M88.4,179.9c0,0-2.7-4.7-6.7-4c-1.1,0.2-3.5,3.5-2.1,5.2c1.1-2.4,8.1-0.1,8.1,0.5
				C88.4,182.3,88.4,179.9,88.4,179.9z"/>
			<path class="st12" d="M88.4,180.4c0-0.1,0-0.1,0-0.2c-2.4-3.1-5.1-4.6-7.5-3.7c-0.2,0.2-0.4,0.4-0.5,0.6
				C82.3,175.8,85.4,176.9,88.4,180.4z"/>
			<path class="st14" d="M82.3,186.8c3.4-0.6,6.3-5.4,6.3-5.4l-2.3-0.2l-4.6,2.1l-0.8,2.2C80.9,185.6,79.8,186.5,82.3,186.8z"/>
			<path class="st11" d="M87.5,180.3c0,0-6.5-0.4-9.2,2.7c-0.8,0.9,1,4.2,4,3.8c-1.7-1.8,5.7-5.6,6.3-5.4
				C89.6,181.2,87.5,180.3,87.5,180.3z"/>
			<path class="st13" d="M87.5,180.3c0,0-6.1-0.4-8.9,2.4c0.3,0.9,0.9,1.6,1.9,1.9c3.1,0.7,7.4-3.3,7.4-3.3l0.2,0.3
				c0,0,0.1,0,0.1,0.1c0.1,0,0.2,0,0.2,0c0-0.1,0.1-0.1,0.1-0.1c0-0.2-0.3-0.6-0.5-0.9C87.8,180.4,87.5,180.3,87.5,180.3z"/>
			<path class="st14" d="M80.3,184.2c3.1,0.7,7.7-3,7.7-3l-2-1l-4.8,0.5l-1.6,1.9C79.7,182.6,78.4,183,80.3,184.2z"/>
			<path class="st13" d="M87.6,179.7c0,0-4.6-2.6-8-1.4c-0.4,1-0.6,2.1,0,2.8c0.7-1.5,3.6-1.2,5.8-0.6c1.3-0.2,2.5-0.3,2.6-0.1
				C88.9,180.7,87.6,179.7,87.6,179.7z"/>
			<path class="st11" d="M87.5,179.7c0,0-5.4-2.6-8.8-0.5c-1,0.6-1,4.3,1.6,5c-0.6-2.3,7.3-3.5,7.7-3
				C88.9,181.4,87.5,179.7,87.5,179.7z"/>
			<g>
				<path class="st12" d="M88,181c0.1,0.1,0.2,0.1,0.3,0.1c0,0,0,0,0-0.1c-0.1-0.1-0.2-0.1-0.4-0.2c-1.5-0.7-9.3,0.4-8.5,2.8
					c0.1,0.1,0.2,0.2,0.4,0.2C79.3,181.5,86.6,180.4,88,181z"/>
				<path class="st12" d="M87.7,180c0-0.1-0.1-0.1-0.1-0.2c-4-1.5-7.6-1.7-9.4,0c-0.1,0.2-0.1,0.5-0.1,0.7
					C79.2,178.8,82.9,178.5,87.7,180z"/>
			</g>
			<path class="st13" d="M88.5,179.7c-0.8,0-1.4-0.4-1.6,1.3c-0.1,1.8,0.6,1.4,1.4,1.4c0.8,0,1.5,0.5,1.6-1.3
				C90,179.3,89.3,179.7,88.5,179.7z"/>
			<path class="st14" d="M88.5,179.7c-0.7,0-1.2-0.4-1.3,1.3c-0.1,1.8,0.5,1.4,1.2,1.4c0.7,0,1.2,0.5,1.3-1.3
				C89.7,179.3,89.2,179.7,88.5,179.7z"/>
		</g>
		<g>
			<path class="st15" d="M76.9,213.8c0.1,8.8,0.4,16.1,0.7,16.9L77,197C76.8,198.4,76.8,205.3,76.9,213.8z"/>
			<path class="st16" d="M77.8,213.8c-0.2-9.4-0.5-17-0.7-17c0,0,0,0.1-0.1,0.2l0.6,33.7c0,0.1,0,0.1,0,0.1c0.2,0,0.3-7.1,0.2-16
				C77.8,214.5,77.8,214.1,77.8,213.8z"/>
		</g>
		<g>
			<path class="st17" d="M77.1,192c-0.1-2.6-0.2-4.6-0.3-4.8l0.2,9.6C77.1,196.5,77.1,194.5,77.1,192z"/>
			<path class="st15" d="M76.8,187.2c-0.1,0-0.1,2.2-0.1,4.8c0.1,2.6,0.2,4.8,0.3,4.8c0,0,0,0,0,0L76.8,187.2
				C76.8,187.2,76.8,187.2,76.8,187.2z"/>
		</g>
	</g>
</g>
<g id="car_bottom">
	<path d="M108.4,218.7l0.9,0.5l4,1.3c0,0,0.8,0.8,0.8,1.3s0,3.2,0,3.2s-2.6-0.1-5.5-1.6s-3.2-3.4-3.2-3.4v-1.2H108.4z"/>
	<path d="M214.6,216.1c0,0-67.4,15.5-78.4,18.3s-31.9-11.1-31.9-11.1l114.8-31L214.6,216.1z"/>
	<g>
		<path class="st18" d="M161.1,222c1.7-5.6-0.6-11.4-5.3-13.3c-0.9-0.8-2-1.4-3.2-1.8c-5.1-1.6-10.8,1.9-12.7,7.8
			c-1.3,4-0.4,8.1,1.9,10.9c0,0,0,0,0,0c2.5,3.6,7.2,4.5,7.2,4.5l0,0C154,231.1,159.3,227.7,161.1,222z"/>
		<path class="st19" d="M159.6,221.7c-1.4,4.4-5.4,7.3-9.3,6.4c-4.3-0.9-6.8-5.8-5.2-11s6.4-7.8,10.5-6.1
			C159.3,212.6,161,217.3,159.6,221.7z"/>
		<g>
			<path class="st20" d="M154.5,218.2l4.7,0.5c0-2.7-1.3-5.2-3.6-6.3L154.5,218.2z"/>
			<path class="st20" d="M152.4,217.5l2.4-5.4c-2.5-0.8-5.4,0.3-7.2,2.7L152.4,217.5z"/>
			<path class="st20" d="M152.3,221.7l-4.9,3.3c0.8,1,1.9,1.7,3.2,2c1.3,0.3,2.5,0.1,3.7-0.4L152.3,221.7z"/>
			<path class="st20" d="M154.4,220.8l0.6,5.5c1.7-1,3.1-2.7,3.7-4.8c0.2-0.6,0.3-1.2,0.4-1.8L154.4,220.8z"/>
			<path class="st20" d="M146.9,224.2l4.1-4.5l-3.9-4.1c-0.3,0.6-0.6,1.2-0.9,1.9C145.4,220,145.8,222.4,146.9,224.2z"/>
		</g>
	</g>
	<g>
		<path class="st18" d="M222,209.2c1.6-5,0.3-10.9-3.6-12.5c-0.8-0.7-2.3-0.5-3.3-0.8c-4.3-1.3-9.2,1.8-10.8,7.1
			c-1.1,3.6-0.5,7.2,1.4,9.6c0,0,0,0,0,0c2,3.2,6,3.8,6,3.8l0,0C215.9,217.4,220.4,214.3,222,209.2z"/>
		<path class="st19" d="M220.7,208.9c-1.2,3.9-4.7,6.5-8,5.9c-3.6-0.7-5.6-5.1-4.2-9.7c1.4-4.6,5.5-7,8.9-5.6
			C220.6,200.9,222,205,220.7,208.9z"/>
		<g>
			<path class="st20" d="M216.5,205.9l3.9,0.4c0-2.4-1-4.6-2.9-5.6L216.5,205.9z"/>
			<path class="st20" d="M214.7,205.3l2.1-4.8c-2.1-0.7-4.5,0.3-6.1,2.5L214.7,205.3z"/>
			<path class="st20" d="M214.5,209.1l-4.1,3c0.7,0.9,1.6,1.5,2.7,1.7c1.1,0.2,2.1,0.1,3.1-0.4L214.5,209.1z"/>
			<path class="st20" d="M216.4,208.2l0.5,4.9c1.4-0.9,2.6-2.4,3.2-4.3c0.2-0.5,0.3-1.1,0.3-1.6L216.4,208.2z"/>
			<path class="st20" d="M210,211.4l3.5-4.1l-3.2-3.6c-0.3,0.5-0.6,1.1-0.8,1.7C208.8,207.6,209.1,209.8,210,211.4z"/>
		</g>
	</g>
	<path class="st21" d="M105.9,219.9c0,0,1.3,2.5,2.1,3c1.8,1.2,5.4,1.5,5.4,1.5l0.5,1.1c0,0-4.6-0.8-6.5-2.2
		c-1.1-0.9-2.3-3.7-2.3-3.7l0.5,0.2L105.9,219.9z"/>
</g>
<path id="car_color" class="rpl22-1" d="M105.5,213.7l-1.7,2.4c0,0,0.7,3,0.9,3.7c0.1,0.6,4.3-0.5,4.3-0.5s0.2,0.5,1.6,1.2
	c1.4,0.6,2.7,1.3,2.7,1.3s0,2.7,0.5,4c0.5,1.4,4.9,2.4,9.1,3.1c4.1,0.7,17-1,17-1s1.8,0.2,1.7-1.5c-0.4-3.5,1.9-17.6,12.6-17.6
	c9.3,0.1,8,9.9,8.1,12c0,0-0.6,2.3,1.5,1.8s38.3-8.7,41-9.2c1.9-0.3,1.8-0.2,1.6-2c-0.2-1.9,1.4-14.6,10.7-14.9
	c6.5,0.2,4.9,9.1,4.9,9.1s1.3-0.3,1.6-2.4s0.3-3,0-6c-0.3-3,0.1-7.9-1.2-8.3c-2.5-0.8-11.7-6-21-6.9c-4.4-0.7-14.4-1.1-21.9-1.3
	c-7.5-0.2-19.1,0.5-26.5,1.6c-7.4,1.1-20.6,7.8-26,10.3s-9.4,2.7-13.2,5.8c-3.8,3.1-6.1,8.6-7.3,9.1c-1.2,0.5-0.7-1.6-0.7-1.6
	l-1.9,3.1L105.5,213.7z"/>
<g id="car_top">
	<g>
		<path class="st21" d="M106.3,207.6C106.3,207.6,106.3,207.6,106.3,207.6C106.3,207.6,106.3,207.6,106.3,207.6
			C106.2,207.6,106.2,207.6,106.3,207.6z"/>
		<path class="st21" d="M106,207.6c-0.1,0-0.1,0-0.1,0C105.9,207.6,105.9,207.6,106,207.6z"/>
		<path class="st21" d="M106.1,207.6C106.1,207.6,106,207.6,106.1,207.6C106,207.6,106.1,207.6,106.1,207.6z"/>
		<path class="st21" d="M106.4,207.5C106.4,207.5,106.4,207.5,106.4,207.5C106.4,207.5,106.4,207.5,106.4,207.5z"/>
		<path class="st20" d="M105.9,207.4c0,0,0.1,0,0.1,0c0,0,0.1,0,0.1,0c0,0,0,0,0,0c0.1,0,0.1,0,0.2,0c0,0,0,0,0,0c0,0,0,0,0.1,0
			c0,0,0,0,0,0c1.2-0.8,3.6-6,7.2-9c0,0-3.1,2.2-5.4,4.3c-2.3,2.1-2.7,3.1-2.7,3.1S105.3,207.2,105.9,207.4z"/>
		<path class="st21" d="M106,207.2C106,207.2,105.9,207.2,106,207.2c-0.2-0.1-0.2-0.6-0.1-1.2c0.1-0.2,0.7-1.1,2.6-2.9
			c0.5-0.5,1.1-1,1.7-1.5c-0.8,1.1-1.5,2.1-2.1,3c-0.8,1.2-1.5,2.2-1.9,2.5c0,0,0,0-0.1,0l0,0C106.1,207.2,106,207.2,106,207.2
			L106,207.2z"/>
		<path class="st20" d="M106.5,207.3C106.4,207.3,106.4,207.4,106.5,207.3C106.4,207.4,106.4,207.3,106.5,207.3z"/>
		<path class="st21" d="M106.3,207.5C106.3,207.5,106.3,207.5,106.3,207.5C106.3,207.5,106.3,207.5,106.3,207.5z"/>
		<path class="st20" d="M106.4,207.4c-0.1,0-0.1,0-0.2,0C106.2,207.4,106.3,207.4,106.4,207.4z"/>
		<path class="st21" d="M106.2,207.6c-0.1,0-0.1,0-0.2,0C106.1,207.6,106.2,207.6,106.2,207.6z"/>
		<path class="st20" d="M106.1,207.4C106.1,207.4,106.1,207.4,106.1,207.4C106.1,207.4,106.1,207.4,106.1,207.4
			C106.1,207.4,106.1,207.4,106.1,207.4z"/>
		<path class="st21" d="M106,207.6C106,207.6,106,207.6,106,207.6C106,207.6,106,207.6,106,207.6C106,207.6,106,207.6,106,207.6z"/>
	</g>
	<path class="st20" d="M106.8,208.4l4,4.6c0,0,10.3,3.7,10.1,3.7c-0.1,0-10.5-2.4-10.5-2.4L106.8,208.4z"/>
	<path class="st23" d="M190.4,186.6c0,0,19.9-1.3,19.7,0c-1.6,0.5-7.1,2.2-7.1,2.2s3.5,1.5,2.4,2s-2.3,1-2.3,1s0.4-1.6-1.4-1
		s-10,2.9-10,2.9L190,193l10.4-4.8L190.4,186.6z"/>
	<path class="st20" d="M113.6,219.8c0,0,2.9,4.5,4.1,5.4c1.2,0.8,7.4,1.6,7.4,1.6s2.8-0.9,2.9-1.6c0.1-0.6-3.8-4.6-3.8-4.6
		L113.6,219.8z"/>
	<path class="st20" d="M104.4,215.9c-0.1-0.3,1-1.4,1-1.4l1.1,1.4l-1.1,1.6C105.4,217.6,105.6,214.9,104.4,215.9z"/>
	<path class="st20" d="M140.1,224.1c0,0-1.1-15.9,14.6-16.1c-14.3,0.3-13.9,16.1-13.9,16.1H140.1z"/>
	<path class="st20" d="M204.5,211.5c0,0-1.1-15.9,14.6-16.1c-14.3,0.3-13.9,16.1-13.9,16.1H204.5z"/>
	<path class="st21" d="M188.5,193l11.5-4.6c-1.5-0.2-5.7-0.9-11.6-0.9c-3,0-6,0.2-9,0.5c-9.1,1-18.3,9.7-21.5,13l7.4,0.2l0,0.1
		l2.5-0.9c0,0-2.7-1-0.5-2.9s5.3,1.2,5.3,1.2L188.5,193L188.5,193z"/>
	<g>
		<polygon class="st20" points="196.2,198.8 202.7,197.6 196.6,207.9 198,209.4 205.4,196.6 		"/>
		<path class="st20" d="M194.5,195.1c-1.2-0.6-4.2-2.1-4.2-2.1l10.5-4.2c0,0,1-0.9-0.4-1.2s-9.6-1.8-21.2-0.5
			c-11.6,1.3-23.2,14.5-23.2,14.5l8.4,0.2l-0.3,18c0,0,23.8-5.8,24.7-5.9c0.9-0.1,1.3-1.6,1.5-2.3c0.1-0.7-0.6-0.3-0.3-0.8
			c0.3-0.5,5.4-10.8,5.7-11.2c0.2-0.3,0.4-0.5,0.5-0.7c0.1-0.1,0.1-0.1,0.1-0.1S195.7,195.7,194.5,195.1z M195.1,199
			c-0.1,0.1-0.4,0.4-5.7,11.3l0,0.1c-0.2,0.3-0.2,0.6-0.1,0.9c0.1,0.2,0.2,0.3,0.3,0.4c-0.2,0.9-0.6,1.5-0.7,1.5
			c-0.8,0.1-18.2,4.3-23.8,5.7l0.3-17.7l0-0.1l-7.4-0.2c3.2-3.3,12.4-11.9,21.5-13c3-0.3,6-0.5,9-0.5c6,0,10.2,0.7,11.6,0.9
			l-11.5,4.6l0,0l5.7,2.9c0.5,0.3,1,1.6,1.3,2.7L195.1,199z"/>
	</g>
	<g>
		<path class="st24" d="M163.5,201l4.8-8.7c-0.8,0.5-1.6,1-2.3,1.6c0,0,0,0,0,0c-0.4,0.3-0.7,0.5-1.1,0.8c0,0-0.1,0-0.1,0.1
			c-0.3,0.3-0.7,0.5-1,0.8l-3,5.4L163.5,201z"/>
		<path class="st24" d="M164,201l1.1,0l1.4-2.6c0.1-0.2,0.2-0.4,0.4-0.7l3.8-6.9c-0.5,0.3-1.1,0.6-1.6,0.9l0,0L164,201z"/>
		<path class="st24" d="M175.4,188.8L175.4,188.8c-0.2,0.1-0.4,0.1-0.6,0.2c0,0-0.1,0-0.1,0c-0.2,0.1-0.4,0.2-0.6,0.2l-4.2,7.6
			c0.3,0.1,0.6,0.2,0.9,0.4L175.4,188.8z"/>
		<path class="st24" d="M177.4,188.2L177.4,188.2c-0.3,0.1-0.6,0.1-0.9,0.2h0l-5,9.1c0.2,0.1,0.4,0.3,0.5,0.4L177.4,188.2z"/>
	</g>
	<path class="st25" d="M181.7,181.5c0,0,6.5,1.4,8.1,3.3c8.6-0.8,17.5,0.5,17.5,0.5s-5.8-2-10.9-3.1
		C191.4,181.2,181.7,181.5,181.7,181.5z"/>
	<path class="st20" d="M125.3,194.2c0,0-1.3,3.9,5.5,6.9c6.8,3,20.7,1.8,20.7,1.8s8.3-8.9,17.1-13.6c-2.9-1.8-13.9-6.3-19.3-5.9
		C143.7,185,125.3,194.2,125.3,194.2z"/>
	<path class="st21" d="M145.5,201.8c-3.7-0.2-10.2-0.4-13.9-2.1c-5-2.2-5-4.4-4.9-5.3c2.5-1.3,17.7-9.1,22.9-10.7
		c2.5-0.7,14.1,2.8,18.3,5.5c-7.7,4.5-14.6,10.8-15.9,12.1C151.1,201.4,149.1,202,145.5,201.8z"/>
	<path class="st23" d="M223.5,197.2c0-0.1,0-0.2,0-0.3c0,0,0-0.1,0-0.1c0-0.1,0-0.1,0-0.2c0,0,0-0.1,0-0.1c0-0.1,0-0.1,0-0.2
		c0,0,0-0.1,0-0.1c0-0.1,0-0.1,0-0.2c0,0,0-0.1,0-0.1c0-0.1,0-0.1,0-0.2c0,0,0-0.1,0-0.1c0-0.1,0-0.2,0-0.3c0,0,0,0,0,0
		c-0.1-2.2,0-4.8-0.6-5.9c0,0,0,0,0,0c0,0,0-0.1-0.1-0.1c0,0,0,0,0,0c0,0,0-0.1-0.1-0.1c0,0,0,0,0,0c0,0-0.1-0.1-0.1-0.1
		c0,0,0,0,0,0l0,0c-1.8-0.6-6.6-0.1-10.7,0.8s-37,11.6-39,11.4c-0.3,0-0.5-0.1-0.8-0.1c0,0,0.5,0.1,0.7-0.4c0.2-0.5-0.2-2.1-0.2-2.1
		s-1,1-3.3,0.7s-2.7-1.1-2.7-1.1s-0.2,0.7,0.1,1c0.4,0.5,0.8,0.7,1.2,0.9c-0.2,0.1-0.3,0.1-0.3,0.1c-0.8,0.3-1.3,0.4-2.2,0.8
		c-0.5,0.3-0.8,0.7-0.8,0.7s-25.4,7.4-27.6,8.6c-2.2,1.2-9.2,9-13,9.8c-3.8,0.8-14.6-1-14.6-1s-3.1-3.8-3.9-5.4l-1.7,2.3
		c0,0,0.7,3,0.9,3.7c0.1,0.6,4.3-0.5,4.3-0.5s0.2,0.5,1.6,1.2c1.4,0.6,2.7,1.3,2.7,1.3s0,2.7,0.5,4c0.5,1.4,4.9,2.4,9.1,3.1
		c4.1,0.7,17-1,17-1s1.8,0.2,1.7-1.5c-0.4-3.5,1.9-17.6,12.6-17.6c9.3,0.1,8,9.9,8.1,12c0,0-0.6,2.3,1.5,1.8
		c2.1-0.5,38.3-8.7,41-9.2c1.9-0.3,1.8-0.2,1.6-2c-0.2-1.9,1.4-14.6,10.7-14.9c6.5,0.2,4.9,9.1,4.9,9.1s1.3-0.3,1.6-2.4
		S223.8,200.2,223.5,197.2z"/>
	<g>
		<path class="st24" d="M140,187.8c-0.6,0.3-1.1,0.5-1.7,0.8l-5.7,11.5c0.4,0.1,0.7,0.2,1.1,0.3L140,187.8z"/>
		<path class="st24" d="M132.3,191.6l-3.3,6.7c0.7,0.5,1.5,1,2.6,1.4c0.2,0.1,0.5,0.2,0.7,0.3l5.6-11.2
			C135.9,189.7,134,190.7,132.3,191.6z"/>
		<path class="st24" d="M142.6,186.6c-0.3,0.1-0.5,0.2-0.8,0.4l-6.9,13.8c0.2,0,0.4,0.1,0.6,0.1L142.6,186.6z"/>
		<path class="st24" d="M164.5,187.6c-1.1-0.5-2.3-0.9-3.6-1.4l-6.3,12.7c1.8-1.5,4.2-3.6,7-5.6L164.5,187.6z"/>
		<path class="st24" d="M150,183.7c-0.2,0-0.3,0-0.5,0.1c-0.9,0.3-2.1,0.7-3.5,1.3l-8,16.1c1.1,0.1,2.1,0.2,3.1,0.3L150,183.7z"/>
		<path class="st24" d="M159.5,185.7c-0.4-0.1-0.9-0.3-1.3-0.4l-8.1,16.3c0.7-0.1,1.3-0.2,1.6-0.3L159.5,185.7z"/>
		<path class="st24" d="M151.1,183.7c-0.2,0-0.4,0-0.5,0l-8.9,17.8c0.2,0,0.3,0,0.5,0L151.1,183.7z"/>
	</g>
	<path class="st20" d="M121.5,217c2,0.5,3.8,0.4,4.8,0.6c9.8-8.1,11.7-8.1,11.7-8.1s-5.2-0.3-7.4,0.3S119.5,216.5,121.5,217z"/>
	<path class="st21" d="M125.5,216.8c-0.3,0-0.6-0.1-1-0.1c-0.8-0.1-1.8-0.1-2.8-0.3c1.3-1.5,6.7-5.3,8.5-5.8c0.8-0.2,2.2-0.3,4-0.3
		C132.4,211.3,129.7,213.3,125.5,216.8z"/>
	<path class="st23" d="M165.6,200.9c0,0-0.1,2.4,0.7,2.7c0.7,0.3,2.8-0.1,3.2-0.6s0.5-1.5,0.2-2s-2.7-0.6-2.7-0.6L165.6,200.9z"/>
</g>
<g id="star" class="rpl33-1">
	<polygon points="68.4,46.4 71.2,52 77.4,52.9 72.9,57.3 74,63.5 68.4,60.6 62.8,63.5 63.9,57.3 59.4,52.9 65.6,52 	
		"/>
	<polygon points="214,46.4 216.8,52 223,52.9 218.5,57.3 219.6,63.5 214,60.6 208.4,63.5 209.5,57.3 205,52.9 
		211.2,52 	"/>
</g>
<text id="text1" transform="matrix(1 0 0 1 140.6884 51.5328)" class="st26 st27 editable">Happy birthday!</text>
<text id="text2" transform="matrix(1 0 0 1 140.5146 65.6676)" class="st26 st28 editable">My little boy!</text>
<path id="AlpStories_LOGO_1_" d="M145.6,31c0-0.1,0.1-0.2,0.3-0.2h3.3c0.2,0,0.3,0.1,0.3,0.2v2.8c0,0.1-0.1,0.2-0.3,0.2h-3.3
	c-0.2,0-0.3-0.1-0.3-0.2V31z M144.8,30.9V34c0,0.6,0.4,0.8,0.9,0.8h3.7c0.6,0,0.9-0.2,0.9-0.8v-3.1c0-0.6-0.4-0.8-0.9-0.8h-3.7
	C145.2,30.1,144.8,30.3,144.8,30.9 M138.1,30.1v0.6c0,0,0,0,0,0h2c0,0,0,0,0,0v3.9c0,0,0,0,0,0h0.8c0,0,0,0,0,0v-3.9c0,0,0,0,0,0h2
	c0,0,0,0,0,0v-0.6c0,0,0,0,0,0L138.1,30.1C138.1,30.1,138.1,30.1,138.1,30.1 M130.2,33.7V34c0,0.6,0.4,0.8,0.9,0.8h1.4h2.6
	c0.6,0,0.9-0.2,0.9-0.8v-1.6c0-0.6-0.4-0.8-0.9-0.8h-3.6c-0.2,0-0.3-0.1-0.3-0.2v-1.1c0-0.1,0.1-0.2,0.3-0.2h3.3
	c0.2,0,0.3,0.1,0.3,0.2v0.1c0,0.1,0,0.1,0.1,0.1l0.7-0.1c0,0,0.1,0,0.1-0.1v-0.2c0-0.6-0.4-0.8-0.9-0.8h-3.6c-0.6,0-0.9,0.2-0.9,0.8
	v1.5c0,0.6,0.4,0.8,0.9,0.8h3.6c0.2,0,0.3,0.1,0.3,0.2v1.4c0,0.1-0.1,0.2-0.3,0.2h-3.7c-0.2,0-0.3-0.1-0.3-0.2v-0.2
	c0-0.1,0-0.1-0.1-0.1L130.2,33.7C130.3,33.6,130.2,33.6,130.2,33.7 M115,34.8C115.1,34.8,115.1,34.7,115,34.8l-3-5.6c0,0,0,0-0.1,0
	h-1c0,0-0.1,0-0.1,0l-3,5.5c0,0,0,0,0,0h0.8c0,0,0.1,0,0.1,0l2.6-4.8c0,0,0,0,0,0c0,0,0,0,0,0h0l1.5,2.7l-2.3,0
	c-0.2,0-0.4,0.1-0.4,0.3V33c0,0.1,0.1,0.3,0.4,0.3l2.7,0l0.7,1.4c0,0,0,0,0.1,0H115z M121.4,34.7v-0.6c0,0,0,0,0,0h-3.5c0,0,0,0,0,0
	v-3.9c0,0,0,0,0,0H117c0,0,0,0,0,0v4.6c0,0.1,0,0.1,0.1,0.1L121.4,34.7C121.4,34.8,121.4,34.7,121.4,34.7 M128.1,32.1v-1.2
	c0-0.6-0.4-0.8-0.9-0.8h-3.9c-0.1,0-0.1,0-0.1,0.1v4.6c0,0,0,0,0,0l0.8,0c0,0,0,0,0,0v-3.9c0,0,0,0,0,0h2.9c0.2,0,0.3,0.1,0.3,0.2
	v0.9c0,0.1-0.1,0.2-0.3,0.2l-2.1,0c-0.2,0-0.4,0.1-0.4,0.3v0c0,0.1,0.1,0.3,0.4,0.3l2.3,0C127.8,32.9,128.1,32.7,128.1,32.1
	 M143.1,19.3c0,0-3-6.3-3-6.3c-0.2-0.5-0.6-0.8-1.1-0.8c-0.5,0-1,0.2-1.3,0.6c0,0-8.1,11.5-8.1,11.5c-0.2,0.3-0.2,0.6-0.1,0.7
	c0.1,0.1,0.4,0,0.6-0.3c0,0,7.9-10,7.9-10c0.2-0.3,0.5-0.6,0.9-0.5c0.3,0,0.6,0.3,0.7,0.6c0,0,2.3,5.2,2.3,5.2
	c0.2,0.4,0.6,0.7,1,0.5C143.2,20.3,143.3,19.8,143.1,19.3 M152.5,21.4c0.2-0.5,0-1-0.3-1.4c0,0-5-5.9-5-5.9
	c-0.1-0.2-0.2-0.4-0.1-0.6c0.1-0.2,0.3-0.4,0.6-0.4c0,0,3.9-0.7,3.9-0.7c0.2,0,0.4-0.2,0.3-0.3c0-0.2-0.2-0.3-0.4-0.2l-5.3,0.3
	c-0.5,0-0.9,0.3-1.1,0.7c-0.1,0.4,0,0.8,0.2,1.1l5.1,5.8c0.2,0.2,0.3,0.5,0.2,0.8c-0.1,0.2-0.3,0.4-0.6,0.5c0,0-12.6,3-12.6,3
	c-0.3,0.1-0.6,0.3-0.6,0.4c0,0.2,0.3,0.2,0.7,0.2c0,0,13.9-2.5,13.9-2.5C151.9,22.1,152.3,21.8,152.5,21.4 M158.1,34.7
	c0.1-0.1,0-0.2,0-0.2c0,0-1-1-1.7-1.6l0.4,0c0.6,0,0.9-0.2,0.9-0.8v-1.2c0-0.6-0.4-0.8-0.9-0.8H153c-0.1,0-0.1,0-0.1,0.1v4.6
	c0,0,0,0,0,0l0.8,0c0,0,0,0,0,0v-3.9c0,0,0,0,0,0h2.7c0.2,0,0.3,0.1,0.3,0.2v0.9c0,0.1-0.1,0.2-0.3,0.2l-1.9,0
	c-0.2,0-0.4,0.1-0.4,0.3v0c0,0.1,0.1,0.3,0.4,0.3l0.8,0l1.7,1.8c0,0,0.1,0.1,0.2,0.1L158.1,34.7C158,34.8,158,34.8,158.1,34.7
	 M161.1,34.7v-4.6c0,0,0,0,0,0h-0.8c0,0,0,0,0,0v4.6c0,0,0,0,0,0L161.1,34.7C161,34.8,161.1,34.7,161.1,34.7 M168.3,34.7v-0.6
	c0,0,0,0,0,0h-3.8c0,0,0,0,0,0v-1.4l1.8,0c0.2,0,0.4-0.1,0.4-0.3v0c0-0.1-0.1-0.3-0.4-0.3l-1.8,0v-1.1c0,0,0,0,0,0h3.7c0,0,0,0,0,0
	v-0.6c0,0,0,0,0,0h-4.5c-0.1,0-0.1,0-0.1,0.1v4.5c0,0.1,0,0.1,0.1,0.1L168.3,34.7C168.3,34.8,168.3,34.7,168.3,34.7 M171,31.8V31
	c0-0.1,0.1-0.2,0.3-0.2h2.7c0.2,0,0.3,0.1,0.3,0.2v0.1c0,0.1,0,0.1,0.1,0.1l0.6-0.1c0,0,0.1,0,0.1-0.1v-0.2c0-0.6-0.4-0.8-0.9-0.8
	h-3c-0.6,0-0.9,0.2-0.9,0.8v1c0,0.6,0.4,0.8,0.9,0.8h3c0.2,0,0.3,0.1,0.3,0.2v0.9c0,0.1-0.1,0.2-0.3,0.2h-3c-0.2,0-0.3-0.1-0.3-0.2
	v-0.2c0-0.1,0-0.1-0.1-0.1l-0.6,0.1c0,0-0.1,0-0.1,0.1V34c0,0.6,0.4,0.8,0.9,0.8h1h2.3c0.6,0,0.9-0.2,0.9-0.8v-1.2
	c0-0.6-0.4-0.8-0.9-0.8h-3C171.1,32,171,31.9,171,31.8"/>
<rect id="text_background_left" class="svgRibbon" width="56.7" height="236.3"/>
<rect id="text_background_right" x="226.8" class="svgRibbon" width="56.7" height="236.3"/>
<rect id="Button_Stripe" y="236.3" class="rpl4-1" width="283.5" height="18.9"/>
<text id="product" transform="matrix(1 0 0 1 139.0948 249.2991)" class="st30 st26 st31 svgProduct">Product name</text>
<text id="quantity" transform="matrix(1 0 0 1 8.9839 250.6214)" class="st30 st26 st32">220 ml</text>
<g>
	
		<image style="overflow:visible;" width="28" height="28" id="Icon1" class="st34" transform="matrix(0.4207 0 0 0.4207 266.0086 239.8021)">
	</image>
	
		<image style="overflow:visible;" width="28" height="28" id="Icon2" class="st34" transform="matrix(0.4207 0 0 0.4207 251.2685 239.8021)">
	</image>
	
		<image style="overflow:visible;" width="28" height="28" id="Icon3" class="st34" transform="matrix(0.4207 0 0 0.4207 236.5285 239.8021)">
	</image>
	
		<image style="overflow:visible;" width="28" height="28" id="Icon4" class="st34" transform="matrix(0.4207 0 0 0.4207 207.0484 239.8021)">
	</image>
	
		<image style="overflow:visible;" width="28" height="28" id="Icon5" class="st34" transform="matrix(0.4207 0 0 0.4207 221.7885 239.8021)">
	</image>
</g>
</svg>
