<?xml version="1.0" encoding="utf-8"?>
<svg version="1.1" id="Layer_1"  data-color-numbers="3" xmlns="http://www.w3.org/2000/svg" xmlns:xlink="http://www.w3.org/1999/xlink" x="0px" y="0px"
	 viewBox="0 0 425.2 354.3" style="enable-background:new 0 0 425.2 354.3;" xml:space="preserve">
<style type="text/css">
  <![CDATA[
  @font-face {
        font-family: "DevroyeUnicode";
        src: url("/Content/fonts/DEVROYUN.ttf") format("truetype");
  }
	.st0{fill:#B4F9ED;}
	.st1{fill:#8DC63F;}
	.st3{fill:#3C2415;}
	.rpl4-1{fill:#608C1B;}
  .rpl4-2{fill:#89006f;}
  .rpl4-3{fill:#af0015;}
	.st5{fill:#AF0015;}
	.st6{fill:#930000;}
	.st7{fill:#C90000;}
	.st8{fill:#6D0018;}
	.st9{fill:#9E0000;}
	.st10{fill:#9B001A;}
	.st11{fill:#BC0020;}
	.st12{fill:#870017;}
	.rpl13-1{fill:#590082;}
  .rpl13-2{fill:#89006f;}
  .rpl13-3{fill:#e23500;}
  .rpl14-1{fill:#7F3F98;}
  .rpl14-2{fill:#ed00b0;}
  .rpl14-3{fill:#e59200;}
	.st15{fill:#129FFF;}
	.st16{fill:#EF4136;}
	.st17{fill:#FFB0AE;}
	.st18{fill:#662D91;}
	.st19{fill:#C38CF4;}
	.st20{fill:#FFB717;}
	.st21{fill:#FFDD99;}
	.st22{fill:#FFFFFF;}
	.st23{fill:#C998D1;}
	.st24{font-family:'DevroyeUnicode';}
	.st25{font-size:12px;}
	.st26{font-size:13px;}
  .rpl28-1{fill:#AF0015;}
  .rpl28-2{fill:#ffe600;}
  .rpl28-3{fill:#c731ff;}
  .st29{fill:#ffffff;}
  .editable{text-anchor: middle;}
  .svgProduct{text-anchor: middle;}
  .svgRibbon{visibility:hidden; opacity:0.6;fill:#FFFFFF;}
 ]]>
</style>
<image style="overflow:visible;" id="editableImg" width="1600" height="1200" xlink:href="/Content/img/little-kitty.jpg"  transform="matrix(0.164 0 0 0.164 80.6703 59.1634)">
</image>
<path id="sky_background" class="st0" d="M0,0v349.3h425.2V0H0z M297.3,206.9l-29.1,6.5l-6.3,29.2l-28.5-8.9l-20,22.1l-20.2-22
	l-28.4,9.2l-6.5-29.1l-29.2-6.3l8.9-28.5l-22.1-20l22-20.2l-9.2-28.4l29.1-6.5l6.3-29.2l28.5,8.9l20-22.1l20.2,22l28.4-9.2l6.5,29.1
	l29.2,6.3l-8.9,28.5l22.1,20l-22,20.2L297.3,206.9z"/>
<g id="forest_background">
	<path class="st1" d="M178.9,79.5l13.8,4.3l20-22.1l20.2,22l4.8-1.6c1.4-3.7,1.7-7.8,0.8-11.9C235.9,59,224.8,52,213.6,54.5
		c-0.4,0.1-0.8,0.2-1.1,0.3c-0.2,0-0.4,0.1-0.7,0.1c-1.1,0.3-2.2,0.7-3.2,1.3c0-0.2-0.1-0.3-0.1-0.5c-1-4.2-4-7.3-7.8-8.6
		c0-0.6,0-1.2-0.2-1.7c-0.9-4-4.9-6.5-8.9-5.6c-4,0.9-6.5,4.9-5.6,8.9c0.2,1,0.7,2,1.3,2.8c-1.9,2.6-2.7,6-1.9,9.5
		c0,0.1,0.1,0.3,0.1,0.4c-5.7,2.9-8.9,9.4-7.5,15.9C178.4,78.1,178.6,78.8,178.9,79.5z"/>
	<path class="st1" d="M425.2,126.2c-9.2-13.6-19-26.3-29.4-38.1c5.2-1.5,10.4-3,15.5-4.6c-16.4-19.2-34.2-36.2-53-50.9
		c0.2,23.8-2.1,46.7-6.5,68.4c5.2-1.5,10.4-3,15.5-4.6c-1.8,10-4.1,19.7-6.8,29.2c0-0.6,0-1.3,0-1.9c-0.4-9.5-6.3-17.4-14.5-20.8
		c0.1-0.9,0.1-1.8,0-2.7c-0.3-7.7-4.4-14.4-10.3-18.4c0-0.6,0-1.2,0-1.8c-0.5-10.4-8.5-18.6-18.6-19.6c-1.9-9.6-10.5-16.7-20.6-16.3
		c-11.1,0.5-19.7,9.9-19.2,21c0,0.7,0.1,1.3,0.2,1.9c-8,3.9-13.3,12.1-13.2,21.5l2.1,9.4c0.1,0.2,0.2,0.4,0.3,0.7
		c0,0-0.1,0.1-0.1,0.1l1.1,4.8l29.2,6.3l-8.9,28.5l22.1,20l-22,20.2l9.2,28.4l-29.1,6.5l-6.3,29.2l-28.5-8.9l-20,22.1l-20.2-22
		l-28.4,9.2l-6.5-29.1l-29.2-6.3l8.9-28.5l-9-8.1c-13.5,3.2-26.5,7-38.9,11.4c-0.9-3.1-1.4-6.3-1.5-9.6c1.5-1,9.2-3.7,10.5-5.1
		c2.3,0.8,4.7,1.4,7.2,1.5c5.9,0.4,11.6-1.1,16.2-4.2l-6.6-6l18.7-17.2c0-0.1,0-0.1,0-0.2c0.1,0,0.2,0,0.2,0l3-2.8l-5.6-17.4
		c-0.7,2.2-1.5,4.4-2.2,6.6c-2.2-3.2-5.1-6-8.5-8c0.2-0.9,0.3-1.8,0.4-2.7c0.5-6.8-2.4-13-7.2-17.1c0.4-1.3,0.7-2.6,0.8-4
		c0.3-4.8-1.5-9.2-4.8-12.3c-0.1-4.4-2.5-8.4-6.1-10.5c1-1.6,1.6-3.4,1.7-5.4c0.5-6.7-4.5-12.4-11.2-12.9s-12.4,4.5-12.9,11.2
		c-0.1,1.5,0.1,2.9,0.5,4.3c-5,0.3-9.1,4.2-9.5,9.3c0,0.2,0,0.4,0,0.6c-6.7,1.4-12,7.1-12.5,14.3c-0.1,0.7,0,1.4,0,2.1
		c-5,2.4-8.6,7.4-9.1,13.3c-0.2,2.1,0.1,4.2,0.7,6.1c-7-0.1-13.4,2.7-18,7.3c-2.9-16.7-4.4-34.2-4.3-52.3C19.8,79.7,9.7,88.8,0,98.6
		v132.2c0.2,0,0.4,0,0.7,0c-0.2,0.2-0.4,0.3-0.7,0.5v123.1h425.2v-138V157c-3.2-5.6-6.5-11-10-16.3c3.3-0.5,6.6-1,10-1.5V126.2z
		 M73.8,188.5c-13.9,5.6-27,11.9-39,18.8c-5.7-11.3-10.8-23.2-15.1-35.7c5.2,0.8,10.3,1.5,15.5,2.3c-5.4-14.7-9.7-30.3-12.7-46.6
		c2.6,0.8,5.3,1.5,7.9,2.3c-1.6,3-2.6,6.3-2.8,9.9c-1,13.7,9.3,25.5,23,26.5c3.6,0.3,7.1-0.3,10.3-1.4c2.8,4.2,11,5.5,15.8,7.4
		C75.9,177.2,74.8,182.9,73.8,188.5z M360.6,172.5c-14.7-3.8-30.1-6.8-46-9.2c0.5-3.9,0.8-7.9,0.9-11.8c0.3-0.3,0.7-0.5,1-0.8
		c1.7,0.3,3.5,0.4,5.3,0.3c3.8-0.2,7.3-1.2,10.4-2.8c1.8,0.4,3.8,0.5,5.7,0.4c8.2-0.4,15.2-4.8,19.2-11.3c-1.4,4.2-2.8,8.4-4.3,12.5
		c5.9-0.9,11.8-1.7,17.7-2.6C367.5,155.9,364.2,164.3,360.6,172.5z"/>
	<path class="st1" d="M137.2,108.7l20.8-4.6l3.1-14.5c-3.9-8.4-7.4-17.2-10.4-26.5c-8.6,12.9-16.2,27-22.4,42.2
		c3.5-0.1,7-0.2,10.5-0.3C138.2,106.1,137.7,107.4,137.2,108.7z"/>
</g>
<rect id="text_background_left" class="svgRibbon" width="85" height="328.2"/>
<rect id="text_background_right" x="340.2" class="svgRibbon" width="85" height="328.2"/>
<g id="threads">
	<path class="st3" d="M295,107.5c-0.8,5.6-1.7,11.3-0.1,21.8c1.5,10.1,3.9,15.2,6.2,20.1l2,2c-0.3-0.6-0.6-1.2-0.8-1.8
		c-2.4-5-4.9-10.1-6.5-20.5c-1.6-10.4-0.8-16,0.1-21.5c0.8-5.6,1.6-11.5-1.4-22.1c-0.3,0.1-0.6,0.2-1,0.3
		C296.5,96.2,295.7,102,295,107.5z"/>
	<path class="st3" d="M311.4,162.1c0.2-10.5,1.9-15.9,3.7-21.2c1.7-5.4,3.5-11.1,2.4-22.1c-0.3,0-0.7,0.1-1,0.1
		c1.1,10.7-0.6,16.3-2.3,21.6c-1.8,5.4-3.6,10.9-3.7,21.5c-0.2,10.6,1.4,16.1,3,21.6c1.5,5.3,3.1,11,1.6,21.6
		c-1.6,10.6-4.6,15.6-7.6,20.3c-2.5,3.9-5,7.8-7.3,14.6c-0.2-1.8-0.5-3.4-0.9-5.1c-1.1-5.5-2.2-11-1.2-21.5
		c1-10.4,3.2-15.6,5.4-20.8c2.2-5.2,4.4-10.7,4.2-21.7c-0.1-3.4-0.4-6.2-0.9-8.6l-0.9,0.9c0.4,2.3,0.6,4.8,0.7,7.8
		c0.2,10.7-2,16.1-4.1,21.2c-2.2,5.2-4.5,10.5-5.5,21.1c-1.1,10.6,0.1,16.2,1.2,21.8c0.4,2.2,0.9,4.5,1.1,7.2
		c-0.3,0.9-0.6,1.9-0.9,2.9c-2.9,10.2-2.7,16-2.5,21.7c0.1,5.6,0.2,11.4-3.9,21.4c0.3,0.1,0.6,0.3,0.9,0.4c4.2-10.2,4.1-16.2,4-21.8
		c-0.2-5.6-0.4-11.3,2.5-21.4v0c0,3.1-0.4,6.7-1.4,11.2c0,0,0,0,0,0c0,0,0,0.1,0,0.1c0,0,0,0,0,0c0,0,0,0,0,0
		c-1.3,10.8,0.3,16.6,1.9,22c1.6,5.4,3.3,10.8,3.2,21.3c0,0.5,0,1,0,1.5l1-0.1c0-0.5,0-0.9,0-1.4c0.1-10.6-1.6-16.1-3.3-21.6
		c-1.6-5.3-3.2-10.9-1.9-21.6c1.4-6.2,1.6-10.7,1.3-14.6c2.5-8,5.2-12.3,7.9-16.5c3-4.8,6.1-9.9,7.7-20.7c1.5-10.8-0.1-16.6-1.6-22
		C312.8,178,311.2,172.6,311.4,162.1z"/>
	<path class="st3" d="M137.1,243.3c1.2-4.4,2-9.7,1.1-18.1c-0.7-5.7-1.8-9.8-3.1-13.1l-1.2-0.3c1.4,3.4,2.6,7.6,3.3,13.5
		c0.8,7.3,0.2,12.3-0.7,16.3c-1.9-4.7-3.9-7.9-5.9-11c-2.9-4.7-6-9.7-7.5-20.4c-0.3,0-0.7,0.1-1,0.1c1.5,10.9,4.7,16,7.6,20.8
		c2.1,3.4,4.3,6.8,6.3,12.1c-0.3,1.2-0.7,2.4-1.1,3.5c-1.6,5.1-3.3,10.2-3.6,19.7c-0.6-4.1-0.5-7.4-0.4-10.6
		c0.3-5.7,0.6-11.4-2-21.7c-2.5-10.3-5.5-15.2-8.5-20.1c-2.8-4.8-5.8-9.8-7.1-20.4c-1.2-10.6,0.4-16.2,2.1-21.5
		c1.7-5.4,3.4-10.9,3.5-21.5c0-0.7,0-1.4,0-2c1.4,6,1.2,10.2,1,14.3c-0.3,5.7-0.7,11.4,1.9,21.7c2.1,8.6,4.5,13.5,6.9,17.6l0.3-1.5
		c-2.2-3.9-4.3-8.6-6.2-16.4c-2.5-10.2-2.2-15.8-1.8-21.4c0.3-5,0.5-10.3-2.2-18.7c-0.5-6.7-1.8-11-3-15.2c-1.6-5.3-3.2-11-1.8-21.7
		c-0.3,0-0.7-0.1-1-0.1c-1.4,10.9,0.3,16.7,1.8,22.1c1,3.4,2.1,6.9,2.7,11.7c-0.3,0.1-0.5,0.2-0.8,0.3c0.4,1.1,0.8,2.1,1.1,3.1
		c0.1,1.9,0.2,3.9,0.2,6.2c0,10.5-1.7,15.9-3.4,21.2c-1.6,5.4-3.4,11.1-2.1,22c1.3,10.8,4.4,16,7.3,20.8c2.9,4.8,5.8,9.6,8.4,19.8
		c2.6,10.2,2.3,15.8,2,21.4c-0.2,4.3-0.4,8.9,1.3,15.4c0.2,8.7,1.6,13.7,3.1,18.6c1.5,5.3,3.1,11,1.7,21.7c0.3,0,0.7,0.1,1,0.1
		c1.5-10.9-0.1-16.7-1.7-22.1c-1.2-4.1-2.4-8.2-2.9-14.5c0.3,0.9,0.6,1.7,1,2.7c0.3-0.1,0.6-0.2,0.9-0.4c-0.9-2.3-1.6-4.4-2.1-6.3
		c0-0.9,0-1.8,0-2.8c0.1-10.5,1.8-15.9,3.6-21.2c0.2-0.7,0.5-1.5,0.7-2.2c0.6,1.8,1.2,3.7,1.8,5.9c2.8,10.1,2.5,15.8,2.3,21.3
		c0,1.5-0.1,3.1,0,4.8h1c0-1.7,0-3.2,0-4.8c0.2-5.7,0.4-11.4-2.4-21.7C138.6,247.8,137.9,245.4,137.1,243.3z"/>
</g>
<path id="Frame" class="rpl4-1" d="M312.7,159.1l-22.9-20.7l9.3-29.5l-30.2-6.5l-6.7-30.2l-29.4,9.5L211.8,59l-20.7,22.9l-29.5-9.3
	l-6.5,30.2l-30.2,6.7l9.5,29.4l-22.8,20.9l22.9,20.7l-9.3,29.5l30.2,6.5l6.7,30.2l29.4-9.5l20.9,22.8l20.7-22.9l29.5,9.3l6.5-30.2
	l30.2-6.7L290,180L312.7,159.1z M297.3,206.9l-29.1,6.5l-6.3,29.2l-28.5-8.9l-20,22.1l-20.2-22l-28.4,9.2l-6.5-29.1l-29.2-6.3
	l8.9-28.5l-22.1-20l22-20.2l-9.2-28.4l29.1-6.5l6.3-29.2l28.5,8.9l20-22.1l20.2,22l28.4-9.2l6.5,29.1l29.2,6.3l-8.9,28.5l22.1,20
	l-22,20.2L297.3,206.9z"/>
<g id="bows">
	<g>
		<path class="st5" d="M161.7,218.6c-1.8-0.6-3.6-0.2-4.6-1.8c-2.5-4.1,3.5-13.1-5.9-16.3c-9.4-3.2-11.2,24.1-20.2,28.6
			c0,0.4,0,0.8,0,1.1c-0.4-0.4-0.9-0.8-1.4-1.2c-9.2,4.2-31.4-11.8-34.9-2.5c-3.5,9.3,7.3,10.4,8.8,14.9c0.6,1.9-0.8,2.9-1.5,4.7
			c-1,2.6,0,6.6,5.1,7.3c8.1,1.1,22.8-13.6,25.9-17.4c0.2,0,0.3,0.1,0.5,0.1c2.9,0.4,26.1-1.4,30.7-8.9
			C166.7,222.7,164.3,219.4,161.7,218.6z"/>
		<path class="st5" d="M129.3,237.2c-0.9-0.3-1.9-0.4-2.9-0.3c-0.3,0-0.9-0.7-1.1-0.8c-0.7-0.8-1.4-1.6-2-2.4
			c-0.2-0.2-2.5-3.8-2.4-3.8c3-0.3,5.9,1.3,8,3.4c2,2,4,4.4,5.3,7c0.5,1,0.8,1.9,0.7,2.9C133.8,239,129.3,237.2,129.3,237.2z"/>
		<path class="st5" d="M119.2,251.4c0-0.1,0.1-0.2,0.1-0.3c0.8-2.6,3.5-5,5.3-6.9c1.8-1.9,4-4.2,4.7-6.9c0,0,4.5,1.8,5.7,6
			c0,0.3-0.1,0.6-0.2,1c-0.8,3.3-3.7,5.8-5.9,8.2c-1,1.1-1.9,2.2-2.8,3.3c0,0-0.1,0.1-0.1,0.1C119.6,254.8,119.1,252.5,119.2,251.4z
			"/>
		<path class="st6" d="M119.6,250.3L119.6,250.3c-0.1,0.2-0.2,0.5-0.3,0.7c0,0.1-0.1,0.2-0.1,0.3c0,0,0,0,0,0.1
			c0.3,0.8,0.9,1.6,1.4,2.4c0.1,0.1,0.1,0.2,0.2,0.3c0.5,0.3,1.1,0.6,1.8,0.9c0.1,0,0.2,0.1,0.3,0.1c0.1,0,0.3,0.1,0.4,0.1
			c0.1,0,0.3,0.1,0.4,0.1c0.1,0,0.2,0.1,0.4,0.1c0.2,0,0.4,0.1,0.6,0.1c0.1,0,0.2,0.1,0.3,0.1c0.3,0.1,0.7,0.1,1,0.2
			c0,0,0.1-0.1,0.1-0.1c0-0.1,0.1-0.1,0.1-0.2C125,255.4,122,254,119.6,250.3z"/>
		<path class="st6" d="M130.5,239.6c0,0,2.6,1.1,4.4,3.4c-1.3-4-5.6-5.8-5.6-5.8c-0.2,0.7-0.5,1.4-0.8,2
			C129.2,239.3,129.9,239.4,130.5,239.6z"/>
		<path class="st5" d="M142.7,271.6c2.8,6.5,0.9,14.6-4.2,19.4c-0.3,0.3-6.2-6.4-5.5-7c4.3-4.1,6.3-10.3,5.1-16.2
			c-0.1-0.6-0.3-1.3-0.5-1.9C139.8,267.3,141.7,269.8,142.7,271.6z"/>
		<path class="st6" d="M137.6,266c0.2,0.6,0.4,1.3,0.5,1.9c0,0,0,0.1,0,0.1c0.7,0.4,1.5,0.8,2.1,1.2c0.1,0.1,0.2,0.1,0.3,0.2
			c0.5,0.3,0.9,0.6,1.4,1C140.9,268.8,139.4,267,137.6,266z"/>
		<path class="st5" d="M119.2,251.4c-0.1,1.1,3.3,3.7,6.8,4.5c2.3,0.6,3.4,1.4,4.9,2.3c4.8,2.7,8.6,7.6,11.2,12.3
			c0.2,0.4,0.4,0.8,0.6,1.2c-1.1-1.9-2.9-4.4-5.1-5.6c-0.1-0.1-0.2-0.1-0.3-0.2c-0.8-0.6-1.7-1-2.6-1.5c-1.6-0.8-3.2-1.4-4.9-2
			c-1.3-0.4-2.7-0.6-4-1.1c-2-0.9-3.6-3.4-4.8-5.1C120,254.6,118.8,253.2,119.2,251.4z"/>
		<path class="st5" d="M138.4,235.8c0.4-0.8,0.9-1.6,1.6-2.2c0.2-0.2,0.1-1,0.1-1.2c-0.1-1-0.2-1.9-0.4-2.9c0-0.2-1.1-4-1.2-4
			c-2.1,1.9-2.7,4.9-2.5,7.6c0.2,2.6,0.6,5.5,1.6,7.9c0.4,1,0.8,1.7,1.6,2.3C136.9,240,138.4,235.8,138.4,235.8z"/>
		<path class="st5" d="M154.3,237.5c-0.1-0.1-0.2-0.1-0.3-0.1c-2.3-1-5.6-0.6-8-0.5c-2.5,0.1-5.4,0.2-7.6-1c0,0-1.5,4.2,0.7,7.6
			c0.2,0.2,0.5,0.3,0.8,0.5c2.8,1.4,6.2,1,9.2,0.9c1.3,0,2.7,0,4,0.1c0,0,0.1,0,0.1,0C156.4,239.8,155.1,238,154.3,237.5z"/>
		<path class="st6" d="M140.2,236.5c-0.6-0.2-1.3-0.4-1.9-0.7c0,0-1.4,4.1,0.6,7.4c-0.3-1.4-0.2-3.1,0.3-4.8
			C139.6,237.7,139.9,237.1,140.2,236.5z"/>
		<path class="st5" d="M154,266c2.8,5.9,9.5,9.5,16,8.9c0.4,0-0.6-8.1-1.5-8.1c-5.4,0.5-11-1.9-14.3-6.3c-0.4-0.5-0.7-1-1-1.5
			C152.7,261.3,153.3,264.1,154,266z"/>
		<path class="st5" d="M154.3,237.5c0.9,0.6,0.5,4.5-1.1,7.4c-1,2-1.1,3.2-1.4,4.8c-1.1,4.9,0,10.6,1.7,15.2
			c0.1,0.4,0.3,0.7,0.5,1.1c-0.6-1.9-1.2-4.7-0.8-6.9c0-0.1,0-0.2,0-0.3c0.1-0.9,0.3-1.8,0.5-2.7c0.4-1.6,1-3.1,1.6-4.6
			c0.5-1.2,1.2-2.2,1.6-3.4c0.6-1.9-0.2-4.6-0.6-6.4C156,240,155.8,238.3,154.3,237.5z"/>
		<path class="st6" d="M154.2,260.6c-0.4-0.5-0.7-1-1-1.5c-0.4,2.2,0.2,5.1,0.8,6.9c0,0,0,0,0,0c-0.1-1-0.1-2,0.1-2.9
			c0-0.1,0-0.2,0-0.3c0.1-0.6,0.2-1.3,0.4-1.9C154.4,260.8,154.3,260.7,154.2,260.6z"/>
		<path class="st6" d="M153.8,243.9c0.1-0.3,0.3-0.5,0.4-0.7c0,0,0-0.1,0.1-0.1c0.1-0.2,0.2-0.4,0.3-0.7c0,0,0-0.1,0-0.1
			c0.1-0.2,0.2-0.4,0.2-0.5c0,0,0-0.1,0-0.1c0.1-0.2,0.1-0.3,0.2-0.5c0-0.1,0-0.1,0-0.2c0-0.1,0.1-0.3,0.1-0.4c0-0.1,0-0.1,0-0.2
			c0-0.1,0-0.2,0-0.3c0-0.1,0-0.2,0-0.3c0-0.1,0-0.1,0-0.2c0-0.1,0-0.2,0-0.3c0,0,0-0.1,0-0.1c0-0.1,0-0.1,0-0.2
			c-0.1-0.3-0.2-0.6-0.3-0.9c-0.2-0.3-0.4-0.5-0.6-0.7c-0.1-0.1-0.2-0.1-0.3-0.1c-0.1-0.1-0.3-0.1-0.4-0.2c1.4,2.3,0,6.5-0.5,7.7
			c0,0,0,0,0.1,0c0.2-0.3,0.3-0.6,0.5-0.8C153.7,244,153.8,244,153.8,243.9z"/>
		<g>
			<path class="st7" d="M155.7,219c-3-6.6-3.8-15.1-3.8-15.1s-2.3-1.1-5.7,3.8c-3.2,4.7,3.3,20,10,24.6c3.6-1.3,6.6-3,7.9-5.2
				c0,0,0,0,0,0C161.4,225.7,157.6,223.1,155.7,219z"/>
			<path class="st7" d="M103.4,227.2c-5.9-0.5-6.5,2-6.5,2s6,6,9.2,12.5c2,4.1,1.6,8.7,0.9,11.6c0,0,0,0,0,0
				c2.6,0.4,5.8-0.9,9.1-2.8C116.7,242.4,109,227.7,103.4,227.2z"/>
		</g>
		<g>
			<path class="st8" d="M151.5,201.8c-8.4-3.4-9.9,22-20.6,28.8c6.6-0.9,10.9-9.8,13.9-15.2C148.6,208.5,159,204.8,151.5,201.8z"/>
			<path class="st8" d="M95.4,227.6c-2.4,7.6,7.1,2,14.8,3.4c6.1,1.1,15.7,3.5,20.6-1C118.7,233.9,98.2,218.9,95.4,227.6z"/>
		</g>
		<path class="st9" d="M147.2,224.6c-0.9-1.5-7.4,3.8-9.8,5.9c2.3-2,8.1-7.4,6.1-7.9c-1.9-0.5-6.5,6.2-10.5,9.4
			c-0.1-0.1-0.2-0.2-0.3-0.3c-4.5,2.1-15.2,0.8-16.2,2.9c-0.9,1.9,6.9,0.8,9.9,0.3c-3.1,0.5-11.3,2.1-10.8,3.8
			c0.7,2.1,13.4-3.8,13.4-3.8s-11.5,7.1-10.1,8.7c0.9,0.9,4.4-1.9,7.2-4.4c-2.4,2.4-5.1,5.3-4.2,5.7c1,0.5,6.7-5.7,10.2-9.7
			c4.9-0.1,15.4-0.5,15.7-1.8c0.2-0.9-3.7-0.7-7.1-0.4c3.7-0.6,8.2-1.5,8-2.8c-0.3-2.1-13.1,2.2-13.1,2.2S148.4,226.4,147.2,224.6z"
			/>
		<path class="st10" d="M136.3,231.1c2.8,5.8-0.2,5.4-2.6,6.4c-2.4,1-3.7,4-6.2-2.9c-2.3-6.4,0.2-5.1,2.7-6.1
			C132.6,227.5,133.6,225.5,136.3,231.1z"/>
		<path class="st5" d="M130.8,232.8c1.8-0.8,3.6-1.5,5.4-2c-2.6-5.3-3.6-3.3-6-2.4c-2.4,1-4.9-0.3-2.7,6.1
			C128.5,234,129.6,233.4,130.8,232.8z"/>
		<path class="st11" d="M128.6,233.9c0.6,1.9,2,4,2.7,4.9c-1.2,0.5-2.3,0.1-3.8-4.2c-1.4-4-1-5,0.1-5.4
			C127.8,230.1,127.8,231.3,128.6,233.9z M132.7,227.4c0.3,0.9,1.1,1.5,2.2,3.8c1.6,3.4,1.5,4.4,1.7,5.3c1-0.7,1.4-1.9-0.3-5.3
			C134.7,227.8,133.7,227.2,132.7,227.4z"/>
		<g>
			<path class="st12" d="M136.2,230.9C136.2,230.9,136.2,230.8,136.2,230.9c-0.3-0.7-0.6-1.2-0.9-1.6c0,0,0,0,0,0
				c-0.1-0.1-0.1-0.2-0.2-0.3c0,0,0,0,0-0.1c-0.1-0.1-0.1-0.2-0.2-0.2c0,0,0,0,0-0.1c-0.1-0.1-0.1-0.2-0.2-0.2c0,0,0,0,0,0
				c-0.2-0.2-0.4-0.4-0.5-0.6c0,0,0,0,0,0c0,0-0.1-0.1-0.1-0.1c0,0,0,0,0,0c0,0-0.1-0.1-0.1-0.1c0,0,0,0,0,0c0,0-0.1,0-0.1-0.1
				c0,0,0,0,0,0c-0.2-0.1-0.3-0.1-0.5-0.1c0,0,0,0,0,0c0,0-0.1,0-0.1,0c0,0,0,0-0.1,0c0,0-0.1,0-0.1,0c0,0,0,0-0.1,0c0,0,0,0-0.1,0
				c0.3,0.9,1.1,1.5,2.2,3.8c0,0,0,0.1,0,0.1C135.3,231.1,135.8,231,136.2,230.9z"/>
			<path class="st12" d="M127.6,229.2c-0.1,0-0.1,0-0.2,0.1c0,0,0,0,0,0c0,0-0.1,0.1-0.1,0.1c0,0,0,0,0,0c-0.1,0.1-0.2,0.2-0.3,0.3
				c0,0,0,0,0,0c0,0-0.1,0.1-0.1,0.1c0,0,0,0,0,0.1c0,0,0,0.1-0.1,0.1c0,0,0,0,0,0.1c0,0.1,0,0.1-0.1,0.2c0,0,0,0,0,0
				c0,0.1,0,0.2,0,0.3c0,0,0,0.1,0,0.1c0,0.1,0,0.1,0,0.2c0,0,0,0.1,0,0.1c0,0.1,0,0.1,0,0.2c0,0,0,0.1,0,0.1c0,0.1,0,0.2,0,0.3
				c0,0,0,0.1,0,0.1c0,0.1,0,0.3,0.1,0.4c0,0,0,0.1,0,0.1c0,0.1,0.1,0.2,0.1,0.3c0,0.1,0,0.1,0.1,0.2c0,0.1,0.1,0.2,0.1,0.3
				c0,0.1,0,0.2,0.1,0.2c0,0.1,0.1,0.2,0.1,0.4c0,0.1,0,0.1,0.1,0.2c0.1,0.2,0.1,0.4,0.2,0.6c0.4-0.2,0.7-0.4,1.1-0.6c0,0,0,0,0,0
				C127.8,231.3,127.8,230.1,127.6,229.2C127.6,229.2,127.6,229.2,127.6,229.2z"/>
		</g>
	</g>
	<g>
		<path class="st5" d="M325.3,265.6c-0.5-1.8-1.9-3-1.2-4.8c1.8-4.4,12.7-4.8,9.9-14.3c-2.8-9.5-26.1,4.8-35,0
			c-0.3,0.2-0.6,0.5-0.9,0.7c0-0.6,0.1-1.2,0.2-1.9c-8.7-5.1-8.5-32.4-18.1-29.9c-9.6,2.5-4.3,12-7.1,15.8c-1.2,1.6-2.9,1-4.7,1.5
			c-2.7,0.7-5.3,3.8-3,8.4c3.8,7.3,24.3,10.8,29.2,11c0.1,0.2,0.1,0.3,0.2,0.5c1.4,2.6,16.2,20.5,25,19.9
			C324.8,272.2,326.1,268.2,325.3,265.6z"/>
		<path class="st5" d="M291.4,250c-0.3-0.9-0.8-1.8-1.4-2.5c-0.2-0.3,0-1.1,0.1-1.3c0.2-1,0.5-2.1,0.8-3.1c0.1-0.2,1.6-4.2,1.7-4.1
			c2,2.3,2.4,5.6,1.8,8.5c-0.5,2.8-1.3,5.8-2.6,8.4c-0.5,1-1.1,1.8-2,2.3C292.5,254.7,291.4,250,291.4,250z"/>
		<path class="st5" d="M274,249.9c0.1,0,0.2-0.1,0.3-0.1c2.6-0.9,6.1,0,8.7,0.4c2.6,0.4,5.8,0.8,8.4-0.2c0,0,1.1,4.7-1.6,8.1
			c-0.3,0.2-0.6,0.3-0.9,0.4c-3.1,1.2-6.9,0.4-10.1,0c-1.4-0.2-2.9-0.3-4.3-0.4c-0.1,0-0.1,0-0.2,0C271.5,252.2,273,250.4,274,249.9
			z"/>
		<path class="st6" d="M275.1,249.6L275.1,249.6c-0.3,0.1-0.5,0.1-0.8,0.2c-0.1,0-0.2,0.1-0.3,0.1c0,0,0,0-0.1,0
			c-0.5,0.7-0.8,1.6-1.1,2.5c0,0.1-0.1,0.2-0.1,0.3c0,0.6,0.1,1.2,0.3,2c0,0.1,0.1,0.2,0.1,0.3c0,0.1,0.1,0.3,0.1,0.4
			c0,0.1,0.1,0.3,0.1,0.4c0,0.1,0.1,0.2,0.1,0.4c0.1,0.2,0.1,0.4,0.2,0.6c0,0.1,0.1,0.2,0.1,0.3c0.1,0.3,0.3,0.6,0.4,1
			c0.1,0,0.1,0,0.2,0c0.1,0,0.1,0,0.2,0C274,256.9,273.5,253.7,275.1,249.6z"/>
		<path class="st6" d="M290.2,252.3c0,0,0.6,2.7-0.3,5.6c2.6-3.4,1.5-7.9,1.5-7.9c-0.7,0.3-1.4,0.4-2.1,0.5
			C289.6,251.1,289.9,251.7,290.2,252.3z"/>
		<path class="st5" d="M271.1,280.8c-3.7,6.1-11.4,9.2-18.3,7.8c-0.4-0.1,1.6-8.7,2.5-8.5c5.8,1.2,12.1-0.8,16.2-5.1
			c0.4-0.5,0.9-1,1.2-1.5C272.9,275.9,272,278.9,271.1,280.8z"/>
		<path class="st6" d="M272.7,273.4c-0.4,0.5-0.8,1-1.2,1.5c0,0,0,0-0.1,0.1c0.1,0.8,0.2,1.6,0.2,2.5c0,0.1,0,0.2,0,0.3
			c0.1,0.6,0,1.1,0,1.7C272.3,277.7,272.9,275.4,272.7,273.4z"/>
		<path class="st5" d="M274,249.9c-1,0.5-1.1,4.8,0.3,8.2c0.9,2.2,0.8,3.6,1,5.3c0.6,5.4-1.2,11.4-3.6,16.3
			c-0.2,0.4-0.4,0.8-0.6,1.1c0.9-2,1.9-4.9,1.7-7.4c0-0.1,0-0.2,0-0.3c0-1-0.1-2-0.3-3c-0.3-1.8-0.7-3.5-1.2-5.2
			c-0.4-1.3-1.1-2.5-1.4-3.9c-0.4-2.2,0.7-4.9,1.4-6.9C271.8,252.5,272.3,250.7,274,249.9z"/>
		<path class="st5" d="M297.8,256.6c0.9-0.2,1.8-0.2,2.7,0c0.3,0.1,0.9-0.5,1-0.7c0.7-0.6,1.4-1.3,2.1-2c0.2-0.2,2.7-3.2,2.6-3.2
			c-2.7-0.6-5.6,0.6-7.6,2.3c-2,1.7-4.1,3.7-5.6,5.8c-0.6,0.9-0.9,1.7-1,2.6C293.5,257.8,297.8,256.6,297.8,256.6z"/>
		<path class="st5" d="M305.6,270.5c0-0.1,0-0.2,0-0.3c-0.5-2.5-2.7-4.9-4.2-6.8c-1.5-2-3.3-4.3-3.6-6.8c0,0-4.3,1.2-5.8,4.9
			c0,0.3,0,0.6,0,0.9c0.4,3.1,2.8,5.7,4.6,8.1c0.8,1.1,1.6,2.2,2.3,3.3c0,0,0,0.1,0.1,0.1C304.9,273.6,305.7,271.5,305.6,270.5z"/>
		<path class="st6" d="M298.3,258.5c-0.3-0.6-0.4-1.2-0.5-1.9c0,0-4.1,1.2-5.7,4.8c1-1.1,2.4-2,4.1-2.5
			C296.9,258.6,297.6,258.5,298.3,258.5z"/>
		<path class="st5" d="M282.2,286.7c-3.2,5.7-2.2,13.3,2,18.2c0.2,0.3,6.3-5.2,5.7-5.9c-3.5-4.1-4.8-10.1-3.1-15.3
			c0.2-0.6,0.4-1.1,0.7-1.7C285.3,283,283.3,285.1,282.2,286.7z"/>
		<path class="st5" d="M305.6,270.5c0,1-3.3,3-6.7,3.4c-2.2,0.3-3.2,0.9-4.7,1.6c-4.6,2-8.6,6.1-11.4,10.2c-0.2,0.3-0.4,0.7-0.6,1
			c1.2-1.6,3.1-3.7,5.2-4.7c0.1,0,0.2-0.1,0.3-0.1c0.8-0.4,1.7-0.8,2.5-1.1c1.5-0.6,3.1-1,4.7-1.4c1.2-0.3,2.5-0.3,3.7-0.7
			c1.9-0.6,3.6-2.8,4.9-4.2C304.6,273.4,305.8,272.2,305.6,270.5z"/>
		<path class="st6" d="M286.7,283.8c0.2-0.6,0.4-1.1,0.7-1.7c-2.1,0.9-4,3-5.2,4.7c0,0,0,0,0,0c0.7-0.6,1.6-1.2,2.4-1.6
			c0.1,0,0.2-0.1,0.3-0.1c0.6-0.3,1.2-0.6,1.8-0.8C286.6,284.1,286.6,283.9,286.7,283.8z"/>
		<path class="st6" d="M300.1,273.8c0.3,0,0.6-0.1,0.8-0.1c0.1,0,0.1,0,0.2,0c0.3,0,0.5-0.1,0.7-0.1c0,0,0.1,0,0.1,0
			c0.2,0,0.4-0.1,0.6-0.1c0,0,0.1,0,0.1,0c0.2-0.1,0.4-0.1,0.5-0.2c0.1,0,0.1,0,0.2-0.1c0.1-0.1,0.3-0.1,0.4-0.2
			c0.1,0,0.1-0.1,0.2-0.1c0.1,0,0.2-0.1,0.3-0.1c0.1,0,0.2-0.1,0.2-0.1c0.1,0,0.1-0.1,0.2-0.1c0.1-0.1,0.2-0.1,0.3-0.2
			c0,0,0.1,0,0.1-0.1c0.1,0,0.1-0.1,0.2-0.1c0.2-0.2,0.4-0.5,0.5-0.7c0.1-0.3,0.2-0.6,0.2-0.9c0-0.1,0-0.2,0-0.3
			c0-0.1-0.1-0.3-0.1-0.4c-1.1,2.5-5.3,3.7-6.6,4.1c0,0,0,0,0,0c0.3,0,0.7,0,1-0.1C300,273.8,300,273.8,300.1,273.8z"/>
		<g>
			<path class="st7" d="M321.5,261c3.7-6.3,10.1-11.9,10.1-11.9s-0.4-2.5-6.4-2.4c-5.7,0.1-14.4,14.2-14.3,22.4
				c3.1,2.2,6.3,3.6,8.8,3.4c0,0,0,0,0,0C319.3,269.5,319.2,264.9,321.5,261z"/>
			<path class="st7" d="M284.6,223c-3-5.1-5.4-4.2-5.4-4.2s-1.5,8.4-4.9,14.8c-2.2,4-6.2,6.3-8.9,7.5c0,0,0,0,0,0
				c1.2,2.3,4,4.2,7.5,5.8C279.9,242.7,287.4,227.9,284.6,223z"/>
		</g>
		<g>
			<path class="st8" d="M333.1,247.7c-2.1-8.8-23.7,4.6-35.4-0.2c4.5,4.8,14.3,3.2,20.4,2.5C325.9,249.1,335,255.4,333.1,247.7z"/>
			<path class="st8" d="M279.6,216.7c-7.6,2.4,2.5,6.9,5.8,14c2.6,5.6,6.3,14.8,12.7,16.2C288,239.4,288.3,214,279.6,216.7z"/>
		</g>
		<path class="st9" d="M312.1,257.3c0.7-1.6-7.4-3.8-10.5-4.6c3,0.7,10.7,2.3,9.9,0.4c-0.7-1.8-8.8-1.7-13.7-3.2
			c0-0.1,0.1-0.2,0.1-0.4c-4.3-2.4-9.5-11.9-11.7-11.5c-2,0.3,3.3,6.1,5.5,8.3c-2.2-2.2-8.3-8-9.3-6.6c-1.3,1.7,10.9,8.8,10.9,8.8
			s-12.5-5.3-13-3.2c-0.3,1.2,4.1,2.5,7.8,3.4c-3.4-0.6-7.2-1.1-7.1-0.1c0.1,1.1,8.6,2.2,13.9,2.7c2.9,4,9.3,12.3,10.5,11.8
			c0.9-0.4-1.6-3.4-3.8-6c2.6,2.7,6,5.8,6.9,4.9c1.6-1.5-9.4-9.4-9.4-9.4S311.3,259.3,312.1,257.3z"/>
		<path class="st10" d="M300.4,252.1c-3.2,5.6-4.5,3-6.7,1.5c-2.2-1.4-5.4-0.8-1.2-6.7c3.9-5.6,4.3-2.8,6.5-1.4
			C301.2,247.1,303.4,246.7,300.4,252.1z"/>
		<path class="st5" d="M295.8,248.6c1.7,1,3.3,2.1,4.7,3.3c2.8-5.2,0.6-4.9-1.5-6.3c-2.2-1.4-2.6-4.2-6.5,1.3
			C293.6,247.5,294.7,248,295.8,248.6z"/>
		<path class="st11" d="M293.7,247.5c-1.2,1.6-2.1,4-2.4,5c-1.1-0.7-1.4-1.8,1.2-5.5c2.4-3.4,3.5-3.7,4.5-3
			C296.4,244.7,295.3,245.3,293.7,247.5z M301.4,247c-0.5,0.8-0.5,1.8-1.8,4c-1.8,3.3-2.8,3.8-3.3,4.4c1.1,0.5,2.4,0,4.2-3.3
			C302.2,248.9,302.1,247.7,301.4,247z"/>
		<g>
			<path class="st12" d="M300.5,251.9C300.5,251.9,300.5,251.9,300.5,251.9c0.4-0.7,0.6-1.2,0.8-1.7c0,0,0,0,0,0
				c0-0.1,0.1-0.2,0.1-0.3c0,0,0,0,0-0.1c0-0.1,0.1-0.2,0.1-0.3c0,0,0,0,0-0.1c0-0.1,0.1-0.2,0.1-0.3c0,0,0,0,0,0
				c0.1-0.3,0.1-0.5,0.1-0.8c0,0,0,0,0,0c0-0.1,0-0.1,0-0.2c0,0,0,0,0-0.1c0-0.1,0-0.1,0-0.2c0,0,0,0,0,0c0-0.1,0-0.1,0-0.2
				c0,0,0,0,0,0c0-0.2-0.1-0.3-0.2-0.4c0,0,0,0,0,0c0,0,0-0.1-0.1-0.1c0,0,0,0,0,0c0,0-0.1-0.1-0.1-0.1c0,0,0,0,0,0c0,0,0,0-0.1-0.1
				c-0.5,0.8-0.5,1.8-1.8,4c0,0,0,0.1-0.1,0.1C299.9,251.4,300.2,251.6,300.5,251.9z"/>
			<path class="st12" d="M296.9,243.9c-0.1,0-0.1-0.1-0.2-0.1c0,0,0,0,0,0c0,0-0.1,0-0.1-0.1c0,0,0,0,0,0c-0.1,0-0.2-0.1-0.4-0.1
				c0,0,0,0,0,0c-0.1,0-0.1,0-0.2,0c0,0,0,0-0.1,0c0,0-0.1,0-0.1,0c0,0,0,0-0.1,0c-0.1,0-0.1,0-0.2,0.1c0,0,0,0,0,0
				c-0.1,0-0.2,0.1-0.2,0.1c0,0,0,0-0.1,0c-0.1,0-0.1,0.1-0.2,0.1c0,0-0.1,0-0.1,0.1c-0.1,0-0.1,0.1-0.2,0.1c0,0-0.1,0.1-0.1,0.1
				c-0.1,0.1-0.1,0.1-0.2,0.2c0,0-0.1,0.1-0.1,0.1c-0.1,0.1-0.2,0.2-0.3,0.3c0,0-0.1,0.1-0.1,0.1c-0.1,0.1-0.2,0.2-0.2,0.3
				c0,0.1-0.1,0.1-0.1,0.2c-0.1,0.1-0.1,0.2-0.2,0.3c0,0.1-0.1,0.1-0.1,0.2c-0.1,0.1-0.2,0.2-0.2,0.3c0,0.1-0.1,0.1-0.1,0.2
				c-0.1,0.2-0.3,0.3-0.4,0.5c0.4,0.2,0.8,0.4,1.2,0.5c0,0,0,0,0,0C295.3,245.3,296.4,244.7,296.9,243.9
				C297,243.9,296.9,243.9,296.9,243.9z"/>
		</g>
	</g>
</g>
<path id="text_frame" class="rpl13-1" d="M309.9,296c0.9-0.7,2.1-1.2,3.5-1.2c1.3,0,2.5,0.6,3.3,1.7c0.4,0.5,0.7,1.2,0.8,1.9
	c0.1,0.7,0.1,1.6-0.1,2.4c-0.2,0.8-0.5,1.5-1,2.1c-0.5,0.6-1,1.1-1.6,1.3c-1.2,0.6-2.6,0.5-3.7-0.1c-1.2-0.6-2-1.7-2.5-2.7
	c-0.2-0.5-0.4-1-0.5-1.5c-0.1-0.5-0.1-1,0.1-1.5c0.2-0.5,0.4-0.9,0.7-1.3C309,296.7,309.5,296.3,309.9,296z M307.4,303.5
	c-0.5,0.1-1.1,0.2-1.6,0.4c-0.2,0.1-0.4,0.2-0.6,0.4c-0.2,0.1-0.4,0.3-0.6,0.5c-0.2,0.2-0.3,0.4-0.4,0.6c-0.1,0.2-0.2,0.4-0.3,0.7
	c-0.2,0.5-0.2,1-0.3,1.6c0,1.1,0.2,2.4,1,3.5c0.7,1.1,1.9,1.8,3.2,1.8c0.7,0.1,1.4-0.1,2.1-0.4c0.3-0.1,0.7-0.3,1-0.6
	c0.3-0.2,0.6-0.5,0.9-0.8c0.3-0.3,0.5-0.6,0.7-1c0.2-0.4,0.3-0.7,0.5-1.1c0.2-0.7,0.3-1.4,0.2-2.1c-0.2-1.4-1-2.4-2.2-3
	C309.9,303.5,308.5,303.4,307.4,303.5z M301.7,309.1c-0.5-0.2-1.1-0.3-1.6-0.3c-0.3,0-0.5,0-0.7,0c-0.3,0-0.5,0.1-0.7,0.2
	c-0.2,0.1-0.5,0.2-0.7,0.3c-0.2,0.1-0.4,0.3-0.6,0.4c-0.4,0.4-0.7,0.8-1,1.3c-0.6,1-0.9,2.3-0.8,3.6c0.1,1.3,0.8,2.4,2,3.1
	c0.6,0.4,1.3,0.6,2,0.6c0.4,0,0.8,0,1.2,0c0.4-0.1,0.8-0.2,1.2-0.3c0.4-0.1,0.8-0.3,1.1-0.5c0.3-0.2,0.6-0.5,0.9-0.7
	c0.5-0.5,0.9-1.1,1.2-1.8c0.4-1.3,0.3-2.6-0.5-3.7C303.8,310.2,302.7,309.4,301.7,309.1z M290.7,309.8c-2.7,0-4.8,2.2-4.8,4.8
	s2.2,4.8,4.8,4.8c2.5,0.1,5.3-2.3,4.8-4.9C295.2,311.9,293.5,309.9,290.7,309.8z M281,309.8c-2.7,0-4.8,2.2-4.8,4.8s2.2,4.8,4.8,4.8
	c2.7,0,4.8-2.2,4.8-4.8S283.7,309.8,281,309.8z M271.3,309.8c-2.7,0-4.8,2.2-4.8,4.8s2.2,4.8,4.8,4.8c2.7,0,4.8-2.2,4.8-4.8
	S274,309.8,271.3,309.8z M261.6,309.8c-2.7,0-4.8,2.2-4.8,4.8s2.2,4.8,4.8,4.8c2.7,0,4.8-2.2,4.8-4.8S264.3,309.8,261.6,309.8z
	 M251.9,309.8c-2.7,0-4.8,2.2-4.8,4.8s2.2,4.8,4.8,4.8c2.7,0,4.8-2.2,4.8-4.8S254.6,309.8,251.9,309.8z M242.2,309.8
	c-2.7,0-4.8,2.2-4.8,4.8s2.2,4.8,4.8,4.8c2.7,0,4.8-2.2,4.8-4.8S244.9,309.8,242.2,309.8z M232.5,309.8c-2.7,0-4.8,2.2-4.8,4.8
	s2.2,4.8,4.8,4.8c2.7,0,4.8-2.2,4.8-4.8S235.2,309.8,232.5,309.8z M222.8,309.8c-2.7,0-4.8,2.2-4.8,4.8s2.2,4.8,4.8,4.8
	c2.7,0,4.8-2.2,4.8-4.8S225.5,309.8,222.8,309.8z M213.1,309.8c-2.7,0-4.8,2.2-4.8,4.8s2.2,4.8,4.8,4.8c2.7,0,4.8-2.2,4.8-4.8
	S215.8,309.8,213.1,309.8z M203.4,309.8c-2.7,0-4.8,2.2-4.8,4.8s2.2,4.8,4.8,4.8s4.8-2.2,4.8-4.8S206.1,309.8,203.4,309.8z
	 M193.7,309.8c-2.7,0-4.8,2.2-4.8,4.8s2.2,4.8,4.8,4.8c2.7,0,4.8-2.2,4.8-4.8S196.4,309.8,193.7,309.8z M184,309.8
	c-2.7,0-4.8,2.2-4.8,4.8s2.2,4.8,4.8,4.8c2.7,0,4.8-2.2,4.8-4.8S186.7,309.8,184,309.8z M174.3,309.8c-2.7,0-4.8,2.2-4.8,4.8
	s2.2,4.8,4.8,4.8c2.7,0,4.8-2.2,4.8-4.8S177,309.8,174.3,309.8z M164.7,309.8c-2.7,0-4.8,2.2-4.8,4.8s2.2,4.8,4.8,4.8
	c2.7,0,4.8-2.2,4.8-4.8S167.3,309.8,164.7,309.8z M155,309.8c-2.7,0-4.8,2.2-4.8,4.8s2.2,4.8,4.8,4.8c2.7,0,4.8-2.2,4.8-4.8
	S157.6,309.8,155,309.8z M145.3,309.8c-2.7,0-4.8,2.2-4.8,4.8s2.2,4.8,4.8,4.8c2.7,0,4.8-2.2,4.8-4.8S147.9,309.8,145.3,309.8z
	 M135.6,309.8c-1.3,0-2.6,0.5-3.4,1.4c-0.5,0.4-0.7,0.9-1,1.5c-0.2,0.6-0.4,1.2-0.4,1.9c0,0.7,0.1,1.3,0.3,1.9
	c0.2,0.6,0.7,1.1,1.1,1.6c0.9,0.9,2.1,1.4,3.4,1.4c2.7,0,4.8-2.2,4.8-4.8S138.2,309.8,135.6,309.8z M128.7,309.9
	c-0.4-0.4-0.8-0.6-1.3-0.7c-0.5-0.2-1-0.2-1.5-0.1c-0.5,0.1-1,0.2-1.5,0.4c-1.1,0.5-2.1,1.2-2.8,2.4c-0.7,1.1-0.9,2.5-0.3,3.7
	c0.3,0.6,0.7,1.2,1.2,1.7c0.6,0.5,1.3,0.9,2.1,1.1c0.8,0.2,1.6,0.3,2.4,0.2c0.8-0.1,1.4-0.4,2-0.7c1.1-0.7,1.8-2,1.8-3.3
	c0.1-1.4-0.4-2.5-1-3.5C129.4,310.6,129.1,310.2,128.7,309.9z M122.3,308.3c0-0.6-0.2-1.1-0.4-1.6c-0.2-0.5-0.4-0.9-0.8-1.3
	c-0.3-0.4-0.8-0.6-1.3-0.8c-0.5-0.2-1-0.3-1.6-0.4c-1.1-0.1-2.4,0.1-3.6,0.8c-1.1,0.7-1.9,1.8-2,3.2c-0.1,0.7,0,1.4,0.3,2.1
	c0.3,0.7,0.7,1.4,1.3,2c0.6,0.6,1.3,1,2,1.3c0.7,0.2,1.4,0.3,2.1,0.3c1.3-0.1,2.5-0.9,3.2-2C122.2,310.7,122.4,309.4,122.3,308.3z
	 M117.1,302.2c0.2-0.5,0.4-1,0.4-1.5c0.1-0.5,0-1-0.1-1.5c-0.1-0.5-0.4-0.9-0.7-1.3c-0.3-0.4-0.7-0.7-1.2-1.1c-1-0.6-2.2-1.1-3.5-1
	c-1.3,0.1-2.6,0.7-3.3,1.8c-0.4,0.6-0.6,1.2-0.7,2c-0.1,0.7,0,1.5,0.2,2.4c0.3,0.8,0.7,1.5,1.2,2.1c0.5,0.6,1.1,1,1.7,1.2
	c1.2,0.5,2.6,0.4,3.7-0.3C115.9,304.3,116.6,303.3,117.1,302.2z M115.3,294.4c0.9-0.9,1.4-2.1,1.4-3.4c0-0.5-0.1-1-0.3-1.5
	c-0.2-0.5-0.5-0.9-0.8-1.4c-0.8-0.9-1.8-1.6-3.1-2c-0.6-0.2-1.3-0.2-1.9-0.1c-0.6,0.1-1.2,0.4-1.7,0.9c-0.5,0.4-1,1-1.3,1.7
	c-0.3,0.7-0.5,1.5-0.5,2.3c0,1.3,0.5,2.6,1.4,3.4c0.4,0.4,1,0.9,1.6,1.1c0.6,0.2,1.2,0.4,1.9,0.3c0.7,0,1.3-0.2,1.9-0.4
	C114.4,295.2,114.8,294.9,115.3,294.4z M116.1,285.9c0.5-0.2,1-0.5,1.4-0.8c0.4-0.3,0.8-0.7,1-1.1c0.2-0.4,0.4-0.9,0.4-1.4
	c0-0.5,0-1-0.1-1.6c-0.3-1.1-0.8-2.3-1.8-3.2c-1-0.9-2.3-1.3-3.6-1c-0.6,0.1-1.3,0.4-1.9,0.9c-0.6,0.5-1.1,1.1-1.5,1.8
	c-0.4,0.7-0.6,1.5-0.7,2.3c0,0.8,0.1,1.5,0.3,2.1c0.5,1.3,1.6,2.1,2.9,2.4C113.8,286.5,115.1,286.3,116.1,285.9z M122,279.1
	c0.5-0.1,1-0.3,1.4-0.6c0.4-0.3,0.8-0.6,1-1.1c0.3-0.4,0.5-0.9,0.7-1.5c0.3-1.1,0.4-2.4-0.1-3.6c-0.4-1.2-1.4-2.2-2.7-2.6
	c-0.6-0.2-1.4-0.2-2.1-0.1c-0.7,0.1-1.5,0.4-2.2,0.9c-0.7,0.5-1.2,1.1-1.6,1.7c-0.4,0.7-0.6,1.3-0.7,2c-0.1,1.3,0.4,2.6,1.4,3.5
	c1,0.9,2.2,1.3,3.4,1.4C120.9,279.3,121.5,279.3,122,279.1z M127.3,275.2c0.5,0.3,1,0.6,1.4,0.7c0.5,0.2,1,0.2,1.5,0.2
	c0.5,0,1-0.2,1.4-0.5c0.5-0.3,1.1-0.6,1.5-1c0.9-0.9,1.4-2.1,1.4-3.4c0-1.3-0.5-2.5-1.4-3.4c-0.5-0.4-0.9-0.8-1.6-1
	c-0.7-0.2-1.5-0.3-2.3-0.3c-0.8,0.1-1.6,0.4-2.2,0.7c-0.6,0.4-1.2,0.9-1.5,1.5c-0.8,1.1-0.9,2.5-0.4,3.7
	C125.4,273.7,126.3,274.6,127.3,275.2z M139.4,276c2.7,0,4.8-2.2,4.8-4.8s-2.2-4.8-4.8-4.8c-2.7,0-4.8,2.2-4.8,4.8
	S136.7,276,139.4,276z M149.1,276c2.7,0,4.8-2.2,4.8-4.8s-2.2-4.8-4.8-4.8c-2.7,0-4.8,2.2-4.8,4.8S146.4,276,149.1,276z M158.8,276
	c2.7,0,4.8-2.2,4.8-4.8s-2.2-4.8-4.8-4.8s-4.8,2.2-4.8,4.8S156.1,276,158.8,276z M168.5,276c2.7,0,4.8-2.2,4.8-4.8s-2.2-4.8-4.8-4.8
	c-2.7,0-4.8,2.2-4.8,4.8S165.8,276,168.5,276z M178.2,276c2.7,0,4.8-2.2,4.8-4.8s-2.2-4.8-4.8-4.8c-2.7,0-4.8,2.2-4.8,4.8
	S175.5,276,178.2,276z M187.9,276c2.7,0,4.8-2.2,4.8-4.8s-2.2-4.8-4.8-4.8c-2.7,0-4.8,2.2-4.8,4.8S185.2,276,187.9,276z M197.6,276
	c2.7,0,4.8-2.2,4.8-4.8s-2.2-4.8-4.8-4.8c-2.7,0-4.8,2.2-4.8,4.8S194.9,276,197.6,276z M207.3,276c2.7,0,4.8-2.2,4.8-4.8
	s-2.2-4.8-4.8-4.8c-2.7,0-4.8,2.2-4.8,4.8S204.6,276,207.3,276z M217,276c2.7,0,4.8-2.2,4.8-4.8s-2.2-4.8-4.8-4.8
	c-2.7,0-4.8,2.2-4.8,4.8S214.3,276,217,276z M226.7,276c2.7,0,4.8-2.2,4.8-4.8s-2.2-4.8-4.8-4.8c-2.7,0-4.8,2.2-4.8,4.8
	S224,276,226.7,276z M236.4,276c2.7,0,4.8-2.2,4.8-4.8s-2.2-4.8-4.8-4.8s-4.8,2.2-4.8,4.8S233.7,276,236.4,276z M246.1,276
	c2.7,0,4.8-2.2,4.8-4.8s-2.2-4.8-4.8-4.8c-2.7,0-4.8,2.2-4.8,4.8S243.4,276,246.1,276z M255.8,276c2.7,0,4.8-2.2,4.8-4.8
	s-2.2-4.8-4.8-4.8c-2.7,0-4.8,2.2-4.8,4.8S253.1,276,255.8,276z M265.4,276c2.7,0,4.8-2.2,4.8-4.8s-2.2-4.8-4.8-4.8
	c-2.7,0-4.8,2.2-4.8,4.8S262.8,276,265.4,276z M275.1,276c2.7,0,4.8-2.2,4.8-4.8s-2.2-4.8-4.8-4.8c-2.7,0-4.8,2.2-4.8,4.8
	S272.5,276,275.1,276z M284.8,276c2.7,0,4.8-2.2,4.8-4.8s-2.2-4.8-4.8-4.8c-2.7,0-4.8,2.2-4.8,4.8S282.2,276,284.8,276z
	 M292.7,275.6c0.3,0.1,0.6,0.2,0.9,0.3c0.2,0.1,0.5,0.1,0.7,0.1c0.3,0,0.5,0,0.7-0.1c0.2,0,0.5-0.1,0.7-0.2c0.5-0.2,1-0.5,1.4-0.8
	c0.9-0.7,1.7-1.7,2.1-3c0.4-1.3,0.2-2.6-0.6-3.7c-0.4-0.6-1-1-1.6-1.4c-0.3-0.2-0.7-0.3-1.1-0.4c-0.4-0.1-0.8-0.1-1.2-0.2
	c-0.4,0-0.8,0-1.2,0c-0.3,0.1-0.6,0.2-0.9,0.3c-0.6,0.2-1.1,0.6-1.5,1c-0.9,0.9-1.4,2.1-1.4,3.4c0,1.3,0.5,2.5,1.4,3.4
	C291.6,275,292.1,275.4,292.7,275.6z M299.4,275.7c0.2,0.5,0.4,1,0.7,1.4c0.1,0.2,0.3,0.4,0.5,0.6c0.2,0.2,0.4,0.3,0.6,0.5
	c0.2,0.1,0.4,0.2,0.7,0.3c0.2,0.1,0.5,0.2,0.7,0.2c0.5,0.1,1.1,0,1.6,0c1.1-0.2,2.3-0.7,3.3-1.6c0.9-0.9,1.4-2.2,1.2-3.5
	c-0.1-0.7-0.4-1.3-0.8-2c-0.2-0.3-0.5-0.6-0.7-0.9c-0.3-0.3-0.6-0.5-1-0.7c-0.4-0.2-0.7-0.4-1.1-0.5c-0.4-0.1-0.8-0.2-1.1-0.2
	c-0.7-0.1-1.5,0-2.1,0.2c-1.3,0.5-2.2,1.4-2.6,2.7C298.9,273.3,299.1,274.7,299.4,275.7z M305.9,281.9c0,0.3,0.1,0.5,0.2,0.7
	c0.1,0.2,0.2,0.5,0.3,0.7c0.1,0.2,0.3,0.4,0.5,0.6c0.2,0.2,0.3,0.4,0.6,0.5c0.4,0.3,0.9,0.5,1.4,0.7c1.1,0.4,2.4,0.5,3.7,0.1
	c1.3-0.4,2.2-1.3,2.7-2.6c0.2-0.6,0.3-1.4,0.2-2.1c0-0.4-0.1-0.8-0.2-1.1c-0.1-0.4-0.3-0.7-0.5-1.1c-0.2-0.4-0.5-0.7-0.7-1
	c-0.3-0.3-0.6-0.5-0.9-0.7c-0.6-0.4-1.3-0.7-2-0.8c-1.4-0.2-2.6,0.2-3.5,1.2c-0.9,0.9-1.5,2.2-1.6,3.3
	C305.8,280.8,305.8,281.4,305.9,281.9z M318,288.5c-0.1-0.4-0.3-0.7-0.4-1.1c-0.4-0.7-0.8-1.2-1.4-1.6c-1.1-0.8-2.4-1-3.7-0.6
	c-1.3,0.4-2.3,1.3-3,2.1c-0.3,0.4-0.6,0.9-0.8,1.4c-0.1,0.2-0.1,0.5-0.2,0.7c-0.1,0.2-0.1,0.5-0.1,0.7c0,0.3,0.1,0.5,0.1,0.7
	c0.1,0.3,0.2,0.6,0.3,0.9c0.2,0.6,0.6,1.1,1,1.5c0.9,0.9,2.1,1.4,3.4,1.4c1.3,0,2.5-0.5,3.4-1.4c0.4-0.4,0.8-1,1-1.5
	c0.1-0.3,0.2-0.6,0.3-0.9c0-0.4,0.1-0.8,0-1.2C318.1,289.3,318.1,288.9,318,288.5z"/>
<path id="text_background" class="rpl14-1" d="M313.4,294.8c0,10.9-8.9,19.8-19.8,19.8H131.7c-10.9,0-19.8-8.9-19.8-19.8V291
	c0-10.9,8.9-19.8,19.8-19.8h161.8c10.9,0,19.8,8.9,19.8,19.8V294.8z"/>
<g id="balloons">
	<g>
		<path class="st15" d="M316.9,42.1c-2.3-21.5-16.4-37.5-31.5-35.9c-15,1.6-25.3,20.4-23,41.8c2.3,20.8,15.6,36.5,30.1,36
			c-0.3,0.5-0.5,1.2-0.6,1.9l-0.7,3.7c-0.3,1.5,0,1.6,0.7,0.2c0,0,0.9-1.8,1-1.5c0.2,0.2,0.2,1.4,0.2,1.4c0,1.6,0.1,1.9,0.4,0.6
			c0.3-1.2,1-1.3,1.5-0.2c0.6,1.1,0.9,0.9,0.7-0.4c-0.2-1.4,0.4-1.6,1.3-0.5c0.9,1.1,1.1,0.8,0.4-0.7l-1.6-3.6
			c-0.2-0.5-0.5-0.9-0.8-1.3C309.5,81.3,319.2,63,316.9,42.1z"/>
		<path class="st0" d="M277,12.6c-16.5,12-11.5,39.7-11.5,39.7l5.8,3C271.3,55.3,264.3,27,277,12.6z"/>
	</g>
	<g>
		<path class="st16" d="M342.5,115.8c2.9-19.7-6-37.4-19.8-39.4c-13.8-2-27.4,12.3-30.3,32c-2.8,19.1,5.4,36.3,18.5,39.2
			c-0.4,0.4-0.7,0.9-1,1.5l-1.5,3.2c-0.6,1.3-0.4,1.5,0.6,0.4c0,0,1.2-1.4,1.3-1.1c0.1,0.3-0.2,1.3-0.2,1.3
			c-0.4,1.4-0.3,1.7,0.2,0.7c0.5-1,1.2-0.9,1.4,0.2c0.2,1.1,0.6,1,0.7-0.2c0.2-1.3,0.7-1.3,1.3-0.2c0.5,1.1,0.8,0.9,0.6-0.5
			l-0.6-3.6c-0.1-0.5-0.2-1-0.4-1.4C326.7,149.1,339.7,135,342.5,115.8z"/>
		<path class="st17" d="M313.7,80.2c-17.5,6.9-19.5,32.8-19.5,32.8l4.4,4C298.6,117,299,90.1,313.7,80.2z"/>
	</g>
	<g>
		<path class="st18" d="M159.3,53.6c4.2-19.5-3.4-37.7-17.1-40.7c-13.7-3-28.2,10.4-32.4,29.9c-4.1,18.9,2.9,36.6,15.8,40.3
			c-0.4,0.4-0.8,0.9-1.1,1.5l-1.7,3.1c-0.7,1.3-0.5,1.4,0.6,0.4c0,0,1.3-1.3,1.4-1c0.1,0.3-0.3,1.3-0.3,1.3
			c-0.5,1.4-0.4,1.7,0.2,0.7c0.6-1,1.2-0.8,1.4,0.3c0.2,1.1,0.5,1.1,0.7-0.2c0.2-1.2,0.8-1.3,1.3-0.1c0.5,1.2,0.7,1,0.6-0.5
			l-0.4-3.6c-0.1-0.5-0.2-1-0.3-1.4C141.3,85.8,155.1,72.6,159.3,53.6z"/>
		<path class="st19" d="M132.9,16.1c-18,5.7-21.7,31.4-21.7,31.4l4.2,4.3C115.4,51.8,117.6,25,132.9,16.1z"/>
	</g>
	<g>
		<path class="st15" d="M135.8,96.8c-4.8-21.4-21-36.1-36-32.7c-15,3.4-23.3,23.5-18.4,45c4.7,20.8,20,35.2,34.6,32.9
			c-0.2,0.6-0.4,1.3-0.4,2l-0.3,3.9c-0.1,1.6,0.2,1.7,0.7,0.2c0,0,0.7-1.9,0.9-1.7c0.2,0.2,0.3,1.4,0.3,1.4c0.1,1.6,0.4,1.9,0.5,0.6
			c0.1-1.2,0.8-1.4,1.5-0.3c0.7,1.1,1,0.8,0.7-0.5c-0.3-1.3,0.2-1.7,1.2-0.7c1,1,1.2,0.6,0.4-0.7l-2.1-3.4c-0.3-0.5-0.6-0.9-1-1.2
			C132.9,137.3,140.6,117.7,135.8,96.8z"/>
		<path class="st0" d="M92,71.6C76.7,85.6,85,113,85,113l6.2,2.4C91.1,115.4,80.9,87.6,92,71.6z"/>
	</g>
	<g>
		<path class="st20" d="M129.8,164.8c-8-17.9-24.6-27.9-37.2-22.3c-12.6,5.6-16.3,24.6-8.3,42.6c7.7,17.4,23.6,27.3,36,22.8
			c-0.1,0.5-0.1,1.2,0,1.8l0.4,3.4c0.2,1.4,0.5,1.4,0.7,0c0,0,0.2-1.8,0.5-1.6c0.2,0.1,0.5,1.2,0.5,1.2c0.4,1.4,0.6,1.6,0.5,0.4
			c-0.1-1.1,0.5-1.4,1.3-0.6c0.8,0.8,1,0.6,0.5-0.6c-0.5-1.1-0.1-1.5,1-0.8c1.1,0.7,1.1,0.3,0.2-0.7l-2.4-2.6
			c-0.3-0.4-0.7-0.7-1.1-0.9C134.2,200.7,137.5,182.2,129.8,164.8z"/>
		<path class="st21" d="M87.1,150.4c-10.9,15,1,37.5,1,37.5l5.8,1C93.9,188.9,80.1,166.3,87.1,150.4z"/>
	</g>
</g>
<path id="ladybug_color" class="rpl28-1" d="M331.7,230.4c-4,6.8-11.1,10-16,7.2s-5.7-10.7-1.7-17.5c4-6.8,11.1-10,16-7.2
	S335.7,223.6,331.7,230.4z M89.4,302.8c-4.2,3.8-3.3,11.6,1.9,17.5c5.3,5.8,13,7.5,17.2,3.7c4.2-3.8,3.3-11.6-1.9-17.5
	C101.3,300.6,93.6,299,89.4,302.8z M232.9,64.7c-4.2,3.8-3.3,11.6,1.9,17.5c5.3,5.8,13,7.5,17.2,3.7c4.2-3.8,3.3-11.6-1.9-17.5
	S237.1,60.9,232.9,64.7z"/>
<g id="ladybug">
	<g>
		<circle cx="326" cy="225.1" r="1.4"/>
		<circle cx="330.5" cy="226.1" r="1.4"/>
		<circle cx="326.4" cy="230.2" r="1.4"/>
		<circle cx="323.1" cy="234.5" r="1.4"/>
		<circle cx="321.3" cy="222.4" r="1.4"/>
		<circle cx="318.3" cy="219" r="1.4"/>
		<circle cx="316.7" cy="224.6" r="1.4"/>
		<circle cx="314.6" cy="229.6" r="1.4"/>
		<path d="M339.5,211.7c-0.3-0.6-0.8-1.3-1.5-1.7c-0.8-0.5-1.8-0.7-2.8-0.6c-1,0.1-1.9,0.6-2.6,1.1c-0.7,0.6-1.1,1.3-1.3,1.9
			c-0.2,0.4-0.2,0.9-0.2,1.2c-0.3-0.3-0.7-0.5-1-0.7c-0.4-0.2-0.7-0.4-1.1-0.5c0.3-0.2,0.6-0.4,0.9-0.8c0.4-0.5,0.8-1.2,1-2.1
			c0.2-0.9,0.1-1.9-0.3-2.8c-0.4-0.9-1.1-1.7-1.9-2.2c-0.8-0.4-1.6-0.5-2.3-0.5c-0.7,0.1-1.2,0.3-1.5,0.6c-0.2,0.1-0.3,0.3-0.3,0.4
			c0,0,0,0,0,0c-0.3,0.6-0.1,1.3,0.4,1.6c0.6,0.3,1.3,0.1,1.6-0.4c0.3-0.5,0.2-1.1-0.3-1.5c0,0,0,0,0,0c0.6,0,1.3,0.2,1.9,0.6
			c0.6,0.4,1.1,1,1.4,1.8c0.3,0.7,0.4,1.6,0.3,2.3c-0.1,0.7-0.4,1.4-0.7,1.9c-0.3,0.4-0.6,0.8-0.9,1c-2.3-0.7-4.9-0.3-7.4,1
			c0.1,3.2,1.4,6.1,3.7,7.7c-5.4,9.2-9.4,12.4-11.9,13.4c0.7,1.4,1.7,2.5,3,3.3c1.3,0.8,2.8,1.1,4.3,1c-0.3-2.7,0.4-7.8,5.7-17
			c2.5,1.2,5.6,0.9,8.5-0.6c-0.1-2.8-1.1-5.3-2.8-7c0.1-0.3,0.2-0.8,0.4-1.2c0.3-0.5,0.7-1.1,1.3-1.6c0.6-0.4,1.4-0.8,2.2-0.9
			c0.8-0.1,1.6,0,2.2,0.4c0.6,0.3,1.1,0.9,1.4,1.4c0,0,0,0,0,0c-0.5-0.2-1.2,0-1.4,0.5c-0.3,0.6-0.1,1.3,0.4,1.6
			c0.6,0.3,1.3,0.1,1.6-0.4c0,0,0,0,0,0c0.1-0.1,0.1-0.3,0.2-0.5C339.8,212.9,339.7,212.3,339.5,211.7z"/>
		<path d="M96.4,309.5c1.9-2.1,2.5-5.1,2-8.3c-2.7-0.8-5.4-0.6-7.5,0.6c-0.3-0.2-0.7-0.4-1-0.8c-0.4-0.4-0.8-1-1.1-1.7
			c-0.2-0.7-0.3-1.5-0.2-2.3c0.1-0.8,0.5-1.5,1-2c0.5-0.5,1.2-0.8,1.7-0.9l0,0c-0.4,0.4-0.3,1.1,0.1,1.5c0.4,0.5,1.2,0.5,1.7,0.1
			c0.5-0.4,0.5-1.2,0.1-1.7c0,0,0,0,0,0c-0.1-0.1-0.2-0.2-0.4-0.3c-0.3-0.2-0.9-0.3-1.6-0.3c-0.7,0.1-1.5,0.3-2.1,0.9
			c-0.7,0.6-1.2,1.5-1.4,2.5c-0.2,1,0,2,0.3,2.8c0.3,0.8,0.9,1.4,1.4,1.8c0.4,0.3,0.7,0.5,1.1,0.6c-0.3,0.2-0.7,0.5-1,0.7
			c-0.3,0.3-0.6,0.6-0.8,0.9c-0.1-0.3-0.2-0.7-0.5-1.1c-0.4-0.6-0.9-1.1-1.7-1.6c-0.8-0.4-1.8-0.7-2.8-0.6c-1,0.1-2,0.5-2.6,1.1
			c-0.7,0.6-1,1.4-1.1,2c-0.1,0.7,0,1.2,0.1,1.6c0.1,0.2,0.2,0.3,0.3,0.4c0,0,0,0,0,0c0.4,0.5,1.2,0.5,1.7,0.1
			c0.5-0.4,0.5-1.2,0.1-1.7c-0.4-0.4-1-0.5-1.5-0.2l0,0c0.2-0.6,0.5-1.2,1.1-1.6c0.6-0.5,1.3-0.8,2.1-0.8c0.8-0.1,1.6,0.1,2.3,0.4
			c0.7,0.3,1.2,0.8,1.6,1.3c0.3,0.4,0.5,0.8,0.7,1.1c-1.4,2-1.8,4.6-1.3,7.4c3.1,0.9,6.2,0.5,8.4-1.1c7.1,7.9,8.9,12.8,9.1,15.5
			c1.5-0.3,2.9-0.9,4-1.9c1.1-1,1.9-2.3,2.3-3.8C108.2,319.6,103.5,317.4,96.4,309.5z"/>
		<circle cx="99.9" cy="310.3" r="1.4"/>
		<circle cx="102.1" cy="306.3" r="1.4"/>
		<circle cx="104.8" cy="311.4" r="1.4"/>
		<circle cx="107.9" cy="315.9" r="1.4"/>
		<circle cx="95.8" cy="313.9" r="1.4"/>
		<circle cx="91.6" cy="315.8" r="1.4"/>
		<circle cx="96.5" cy="318.9" r="1.4"/>
		<circle cx="100.6" cy="322.5" r="1.4"/>
		<path d="M239.9,71.4c1.9-2.1,2.5-5.1,2-8.3c-2.7-0.8-5.4-0.6-7.5,0.6c-0.3-0.2-0.7-0.4-1-0.8c-0.4-0.4-0.8-1-1.1-1.7
			c-0.2-0.7-0.3-1.5-0.2-2.3c0.1-0.8,0.5-1.5,1-2c0.5-0.5,1.2-0.8,1.7-0.9c0,0,0,0,0,0c-0.4,0.4-0.3,1.1,0.1,1.5
			c0.4,0.5,1.2,0.5,1.7,0.1c0.5-0.4,0.5-1.2,0.1-1.7c0,0,0,0,0,0c-0.1-0.1-0.2-0.2-0.4-0.3c-0.3-0.2-0.9-0.3-1.6-0.3
			c-0.7,0.1-1.5,0.3-2.1,0.9c-0.7,0.6-1.2,1.5-1.4,2.5c-0.2,1,0,2,0.3,2.8c0.3,0.8,0.9,1.4,1.4,1.8c0.4,0.3,0.7,0.5,1.1,0.6
			c-0.3,0.2-0.7,0.5-1,0.7c-0.3,0.3-0.6,0.6-0.8,0.9c-0.1-0.3-0.2-0.7-0.5-1.1c-0.4-0.6-0.9-1.1-1.7-1.6c-0.8-0.4-1.8-0.7-2.8-0.6
			c-1,0.1-2,0.5-2.6,1.1c-0.7,0.6-1,1.4-1.1,2c-0.1,0.7,0,1.2,0.1,1.6c0.1,0.2,0.2,0.3,0.3,0.4c0,0,0,0,0,0c0.4,0.5,1.2,0.5,1.7,0.1
			s0.5-1.2,0.1-1.7c-0.4-0.4-1-0.5-1.5-0.2l0,0c0.2-0.6,0.5-1.2,1.1-1.6c0.6-0.5,1.3-0.8,2.1-0.8c0.8-0.1,1.6,0.1,2.3,0.4
			c0.7,0.3,1.2,0.8,1.6,1.3c0.3,0.4,0.5,0.8,0.7,1.1c-1.4,2-1.8,4.6-1.3,7.4c3.1,0.9,6.2,0.5,8.4-1.1c7.1,7.9,8.9,12.8,9.1,15.5
			c1.5-0.3,2.9-0.9,4-1.9c1.1-1,1.9-2.3,2.3-3.8C251.7,81.5,247,79.3,239.9,71.4z"/>
		<circle cx="243.4" cy="72.2" r="1.4"/>
		<circle cx="245.6" cy="68.2" r="1.4"/>
		<circle cx="248.3" cy="73.3" r="1.4"/>
		<circle cx="251.4" cy="77.8" r="1.4"/>
		<circle cx="239.3" cy="75.8" r="1.4"/>
		<circle cx="235.2" cy="77.7" r="1.4"/>
		<circle cx="240" cy="80.8" r="1.4"/>
		<circle cx="244.1" cy="84.4" r="1.4"/>
	</g>
	<g>
		<path class="st22" d="M330.2,216.6c-0.1,0-0.1,0-0.2,0c0.3,0.2,0.4,0.6,0.2,0.9c-0.2,0.4-0.7,0.5-1,0.3c-0.1-0.1-0.2-0.1-0.2-0.2
			c-0.1,0.2-0.2,0.5-0.2,0.8c0,1,0.6,1.8,1.3,1.9c0.8,0,1.4-0.8,1.4-1.8C331.5,217.5,330.9,216.7,330.2,216.6z"/>
		<path class="st22" d="M324.4,214.4c-0.9,0.5-1.2,1.5-0.8,2.1s1.4,0.8,2.3,0.2c0.2-0.1,0.4-0.3,0.6-0.5c-0.1,0-0.2,0-0.3-0.1
			c-0.4-0.2-0.5-0.7-0.3-1c0.2-0.3,0.6-0.4,0.9-0.3c0-0.1,0-0.1-0.1-0.2C326.3,213.9,325.2,213.8,324.4,214.4z"/>
		<path class="st22" d="M95.2,303c-0.9-0.3-1.9,0-2.2,0.7c0,0.1,0,0.1,0,0.2c0.3-0.2,0.7-0.2,0.9,0.1c0.3,0.3,0.2,0.8-0.1,1
			c-0.1,0.1-0.2,0.1-0.3,0.2c0.2,0.2,0.4,0.3,0.7,0.4c0.9,0.3,1.9,0,2.2-0.7C96.7,304.2,96.1,303.4,95.2,303z"/>
		<path class="st22" d="M91.4,307.2c0,0.1-0.1,0.2-0.2,0.3c-0.3,0.3-0.8,0.2-1-0.1c-0.2-0.3-0.2-0.7,0-0.9c-0.1,0-0.1,0-0.2,0
			c-0.7,0.2-1.1,1.1-0.9,2.1c0.2,1,1,1.6,1.8,1.5c0.7-0.2,1.1-1.1,0.9-2.1C91.7,307.6,91.6,307.4,91.4,307.2z"/>
		<path class="st22" d="M238.7,64.9c-0.9-0.3-1.9,0-2.2,0.7c0,0.1,0,0.1,0,0.2c0.3-0.2,0.7-0.2,0.9,0.1c0.3,0.3,0.2,0.8-0.1,1
			c-0.1,0.1-0.2,0.1-0.3,0.2c0.2,0.2,0.4,0.3,0.7,0.4c0.9,0.3,1.9,0,2.2-0.7C240.2,66.1,239.7,65.3,238.7,64.9z"/>
		<path class="st22" d="M235,69.1c0,0.1-0.1,0.2-0.2,0.3c-0.3,0.3-0.8,0.2-1-0.1c-0.2-0.3-0.2-0.7,0-0.9c-0.1,0-0.1,0-0.2,0
			c-0.7,0.2-1.1,1.1-0.9,2.1s1,1.6,1.8,1.5c0.7-0.2,1.1-1.1,0.9-2.1C235.2,69.5,235.1,69.3,235,69.1z"/>
	</g>
</g>
<g id="Button_Stripe">
	<rect x="0" y="328.1" class="rpl14-1" width="425.2" height="26.2"/>
</g>
<text id="product" transform="matrix(1 0 0 1 208.9401 346.2487)" class="st22 st24 st25 svgProduct">Product name</text>
<text id="quantity" transform="matrix(1 0 0 1 12.4779 348.0842)" class="st22 st24 st26">220 ml</text>
<path id="AlpStories_LOGO" d="M218.3,43.4c0-0.2,0.1-0.3,0.4-0.3h4.6c0.3,0,0.4,0.1,0.4,0.3v3.9c0,0.2-0.1,0.3-0.4,0.3h-4.6
	c-0.3,0-0.4-0.1-0.4-0.3V43.4z M217.1,43.2v4.3c0,0.8,0.5,1.1,1.3,1.1h5.1c0.8,0,1.3-0.3,1.3-1.1v-4.3c0-0.8-0.5-1.1-1.3-1.1h-5.1
	C217.7,42.1,217.1,42.4,217.1,43.2 M207.7,42.1V43c0,0,0,0.1,0.1,0.1h2.8c0,0,0.1,0,0.1,0.1v5.4c0,0,0,0.1,0.1,0.1h1
	c0,0,0.1,0,0.1-0.1v-5.4c0,0,0-0.1,0.1-0.1h2.8c0,0,0.1,0,0.1-0.1v-0.9c0,0,0-0.1-0.1-0.1L207.7,42.1
	C207.8,42.1,207.7,42.1,207.7,42.1 M196.8,47.1v0.4c0,0.8,0.5,1.1,1.3,1.1h1.9h3.7c0.8,0,1.3-0.3,1.3-1.1v-2.3
	c0-0.8-0.5-1.2-1.3-1.2h-5c-0.3,0-0.4-0.1-0.4-0.3v-1.6c0-0.2,0.1-0.3,0.4-0.3h4.6c0.3,0,0.4,0.1,0.4,0.3v0.1c0,0.1,0.1,0.1,0.1,0.1
	l0.9-0.1c0.1,0,0.1-0.1,0.1-0.1v-0.3c0-0.8-0.5-1.1-1.3-1.1h-5c-0.8,0-1.3,0.3-1.3,1.1v2c0,0.8,0.5,1.1,1.3,1.1h5
	c0.3,0,0.4,0.1,0.4,0.3v1.9c0,0.2-0.1,0.3-0.4,0.3h-5.1c-0.3,0-0.4-0.1-0.4-0.3V47c0-0.1-0.1-0.1-0.1-0.1L197,47
	C196.9,47,196.8,47.1,196.8,47.1 M175.7,48.6C175.7,48.6,175.7,48.6,175.7,48.6l-4.2-7.8c0,0-0.1-0.1-0.1-0.1H170c0,0-0.1,0-0.1,0.1
	l-4.2,7.7c0,0,0,0.1,0,0.1h1.2c0,0,0.1,0,0.1-0.1l3.6-6.7c0,0,0,0,0.1,0c0,0,0,0,0.1,0h0l2.1,3.8l-3.3,0.1c-0.3,0-0.5,0.2-0.5,0.4
	v0.1c0,0.2,0.2,0.4,0.5,0.4l3.8,0.1l1,1.9c0,0,0.1,0.1,0.1,0.1H175.7z M184.5,48.6v-0.9c0,0,0-0.1-0.1-0.1h-4.9c0,0-0.1,0-0.1-0.1
	v-5.4c0,0,0-0.1-0.1-0.1h-1c0,0-0.1,0-0.1,0.1v6.4c0,0.1,0.1,0.1,0.1,0.1L184.5,48.6C184.5,48.6,184.5,48.6,184.5,48.6 M193.9,44.9
	v-1.7c0-0.8-0.5-1.1-1.3-1.1h-5.4c-0.1,0-0.1,0.1-0.1,0.1v6.4c0,0,0,0.1,0.1,0.1l1,0c0,0,0.1,0,0.1-0.1v-5.4c0,0,0-0.1,0.1-0.1h4.1
	c0.3,0,0.4,0.1,0.4,0.3v1.3c0,0.2-0.1,0.3-0.4,0.3l-2.9,0.1c-0.3,0-0.5,0.2-0.5,0.4v0.1c0,0.2,0.2,0.4,0.5,0.4l3.2,0.1
	C193.4,46,193.9,45.7,193.9,44.9 M214.8,27.1c0,0-4.2-8.8-4.2-8.8c-0.3-0.6-0.8-1.1-1.6-1.2c-0.7,0-1.4,0.3-1.8,0.8
	c0,0-11.3,16-11.3,16.1c-0.3,0.4-0.3,0.8-0.2,0.9c0.2,0.1,0.6,0,0.8-0.4c0,0,11-14,11-14c0.3-0.4,0.8-0.8,1.3-0.7
	c0.5,0,0.8,0.4,1,0.9c0,0,3.1,7.2,3.2,7.2c0.3,0.6,0.9,0.9,1.3,0.7C214.9,28.4,215.1,27.7,214.8,27.1 M227.8,30
	c0.3-0.6,0.1-1.4-0.4-1.9c0,0-6.9-8.3-6.9-8.3c-0.2-0.3-0.3-0.5-0.2-0.8c0.1-0.3,0.4-0.5,0.8-0.6c0,0,5.4-1,5.4-1
	c0.3,0,0.5-0.2,0.5-0.5c0-0.2-0.3-0.4-0.6-0.3L219,17c-0.7,0-1.3,0.4-1.5,1c-0.2,0.5,0,1.1,0.3,1.6c0,0,7.1,8.1,7.1,8.1
	c0.2,0.3,0.4,0.7,0.2,1.1c-0.1,0.3-0.4,0.6-0.8,0.7c0,0-17.6,4.2-17.6,4.2c-0.5,0.1-0.8,0.4-0.8,0.6c0,0.2,0.5,0.3,1,0.2
	c0,0,19.4-3.5,19.4-3.5C227,31,227.6,30.6,227.8,30 M235.6,48.6c0.1-0.1,0.1-0.2,0-0.3c0,0-1.5-1.4-2.4-2.3l0.5,0
	c0.8,0,1.3-0.3,1.3-1.1v-1.7c0-0.8-0.5-1.1-1.3-1.1h-5.1c-0.1,0-0.1,0.1-0.1,0.1v6.4c0,0,0,0.1,0.1,0.1l1,0c0,0,0.1,0,0.1-0.1v-5.4
	c0,0,0-0.1,0.1-0.1h3.7c0.3,0,0.4,0.1,0.4,0.3v1.3c0,0.2-0.1,0.3-0.4,0.3l-2.6,0.1c-0.3,0-0.5,0.2-0.5,0.4v0.1
	c0,0.2,0.2,0.4,0.5,0.4l1.1,0l2.4,2.6c0.1,0.1,0.1,0.1,0.2,0.1h1C235.5,48.6,235.6,48.6,235.6,48.6 M239.8,48.6v-6.4
	c0,0,0-0.1-0.1-0.1h-1c0,0-0.1,0-0.1,0.1v6.4c0,0,0,0.1,0.1,0.1L239.8,48.6C239.8,48.6,239.8,48.6,239.8,48.6 M249.9,48.6v-0.9
	c0,0,0-0.1-0.1-0.1h-5.3c0,0-0.1,0-0.1-0.1v-1.9l2.6,0c0.3,0,0.5-0.2,0.5-0.4v-0.1c0-0.2-0.2-0.4-0.5-0.4l-2.6,0v-1.6
	c0,0,0-0.1,0.1-0.1h5.2c0,0,0.1,0,0.1-0.1v-0.9c0,0,0-0.1-0.1-0.1h-6.3c-0.1,0-0.1,0.1-0.1,0.1v6.3c0,0.1,0.1,0.1,0.1,0.1
	L249.9,48.6C249.9,48.6,249.9,48.6,249.9,48.6 M253.6,44.4v-1c0-0.2,0.1-0.3,0.4-0.3h3.8c0.3,0,0.4,0.1,0.4,0.3v0.2
	c0,0.1,0.1,0.1,0.1,0.1l0.9-0.1c0.1,0,0.1-0.1,0.1-0.1v-0.3c0-0.8-0.5-1.1-1.3-1.1h-4.1c-0.8,0-1.3,0.3-1.3,1.1v1.4
	c0,0.8,0.5,1.1,1.3,1.1h4.2c0.3,0,0.4,0.1,0.4,0.3v1.3c0,0.2-0.1,0.3-0.4,0.3h-4.2c-0.3,0-0.4-0.1-0.4-0.3V47c0-0.1-0.1-0.1-0.1-0.1
	l-0.9,0.1c-0.1,0-0.1,0.1-0.1,0.1v0.4c0,0.8,0.5,1.1,1.3,1.1h1.4h3.1c0.8,0,1.3-0.3,1.3-1.1v-1.6c0-0.8-0.5-1.1-1.3-1.1H254
	C253.8,44.8,253.6,44.6,253.6,44.4"/>
<text id="text1" transform="matrix(1 0 0 1 211.0268 287.7401)" class="st22 st24 st26 editable">Happy birthday!</text>
<text id="text2" transform="matrix(1 0 0 1 211.0272 306.6733)" class="st22 st24 st26 editable">My little daughter!</text>
<g>
	
		<image style="overflow:visible;" class="st29" width="28" height="28" id="Icon1" transform="matrix(0.5844 0 0 0.5844 400.6718 333.0574)">
	</image>
	
		<image style="overflow:visible;" class="st29" width="28" height="28" id="Icon2" transform="matrix(0.5844 0 0 0.5844 380.1968 333.0574)">
	</image>
	
		<image style="overflow:visible;" class="st29" width="28" height="28" id="Icon3" transform="matrix(0.5844 0 0 0.5844 359.7217 333.0574)">
	</image>
	
		<image style="overflow:visible;" class="st29" width="28" height="28" id="Icon4" transform="matrix(0.5844 0 0 0.5844 318.7717 333.0574)">
	</image>
	
		<image style="overflow:visible;" class="st29" width="28" height="28" id="Icon5" transform="matrix(0.5844 0 0 0.5844 339.2467 333.0574)">
	</image>
</g>
</svg>
