<?xml version="1.0" encoding="utf-8"?>
<svg version="1.1" id="Layer_1"  data-color-numbers="3" xmlns="http://www.w3.org/2000/svg" xmlns:xlink="http://www.w3.org/1999/xlink" x="0px" y="0px"
	 viewBox="0 0 272.1 184.3" style="enable-background:new 0 0 272.1 184.3;" xml:space="preserve">
<style type="text/css">
  <![CDATA[
  @font-face {
        font-family: "DevroyeUnicode";
        src: url("/Content/fonts/DEVROYUN.ttf") format("truetype");
  }
	.st0{fill:#B4F9ED;}
	.st1{fill:#8DC63F;}
	.st2{fill:#3C2415;}
	.rpl3-1{fill:#608C1B;}
  .rpl3-2{fill:#89006f;}
  .rpl3-3{fill:#af0015;}
	.st5{fill:#AF0015;}
	.st6{fill:#930000;}
	.st7{fill:#C90000;}
	.st8{fill:#6D0018;}
	.st9{fill:#9E0000;}
	.st10{fill:#9B001A;}
	.st11{fill:#BC0020;}
	.st12{fill:#870017;}
	.rpl13-1{fill:#590082;}
  .rpl13-2{fill:#89006f;}
  .rpl13-3{fill:#e23500;}
  .rpl14-1{fill:#7F3F98;}
  .rpl14-2{fill:#ed00b0;}
  .rpl14-3{fill:#e59200;}
	.st15{fill:#129FFF;}
	.st16{fill:#EF4136;}
	.st17{fill:#FFB0AE;}
	.st18{fill:#662D91;}
	.st19{fill:#C38CF4;}
	.st20{fill:#FFB717;}
	.st21{fill:#FFDD99;}
	.st22{fill:#FFFFFF;}
	.st23{font-family:'DevroyeUnicode';}
	.st24{font-size:6.24px;}
	.st25{font-size:7px;}
  
  .rpl28-1{fill:#AF0015;}
  .rpl28-2{fill:#ffe600;}
  .rpl28-3{fill:#c731ff;}
  .st29{fill: #ffffff;}
  .st30{text-anchor: middle;}
  .editable{text-anchor: middle;}
  .svgProduct{text-anchor: middle;}
  .svgRibbon{visibility:hidden; opacity:0.6;fill:#FFFFFF;}
 ]]>
</style>
<image style="overflow:visible;" id="editableImg" width="1600" height="1200" xlink:href="/Content/img/little-kitty.jpg"  transform="matrix(8.244144e-002 0 0 8.244144e-002 70.1923 32.4575)">
</image>
<path id="sky_background" class="st0" d="M0,0v184.3h272.1V0H0z M180,106.1l-14.9,3.3l-3.2,15l-14.6-4.6L137,131.2l-10.4-11.3
	l-14.6,4.7l-3.3-14.9l-15-3.2l4.6-14.6L87,81.6l11.3-10.4l-4.7-14.6l14.9-3.3l3.2-15l14.6,4.6l10.3-11.4l10.4,11.3l14.6-4.7
	l3.3,14.9l15,3.2l-4.6,14.6l11.4,10.3l-11.3,10.4L180,106.1z"/>
<g id="forest_background">
	<path class="st1" d="M112.5,38.6l13.8,4.3l10.3-11.4l10.4,11.3l4-1.3c-0.2-0.1-0.4-0.3-0.7-0.4c1.2-2.6,1.5-5.5,0.8-8.5
		c-1.7-7.3-8.9-11.8-16.1-10.1c-0.2,0.1-0.5,0.1-0.7,0.2c-0.1,0-0.3,0-0.4,0.1c-0.7,0.2-1.4,0.4-2.1,0.8c0-0.1,0-0.2-0.1-0.3
		c-0.6-2.7-2.6-4.7-5-5.5c0-0.4,0-0.7-0.1-1.1c-0.6-2.6-3.2-4.2-5.8-3.6c-2.6,0.6-4.2,3.2-3.6,5.8c0.2,0.7,0.4,1.3,0.8,1.8
		c-1.2,1.7-1.7,3.9-1.2,6.1c0,0.1,0.1,0.2,0.1,0.3c-3.7,1.9-5.8,6.1-4.8,10.3C112.2,37.8,112.3,38.2,112.5,38.6z"/>
	<path class="st1" d="M109,51.2c-0.3,0.7-0.6,1.5-0.9,2.3l0.4-0.1L109,51.2z"/>
	<path class="st1" d="M272.1,69c-5.9-8.8-12.3-17-19.1-24.7c3.4-1,6.7-2,10.1-3c-10.6-12.4-22.2-23.5-34.3-33
		c0.1,15.4-1.4,30.3-4.2,44.3c3.4-1,6.7-2,10.1-3c-1.2,6.5-2.7,12.8-4.4,18.9c0-0.4,0-0.8,0-1.2c-0.3-6.1-4.1-11.3-9.4-13.5
		c0-0.6,0.1-1.2,0-1.7c-0.2-5-2.8-9.3-6.7-11.9c0-0.4,0-0.8,0-1.1c-0.3-6.7-5.5-12.1-12-12.7c-1.2-6.2-6.8-10.8-13.4-10.5
		c-7.2,0.3-12.8,6.4-12.4,13.6c0,0.4,0.1,0.8,0.1,1.3c-5.3,2.6-8.8,8.1-8.5,14.4c0.1,2.2,0.6,4.2,1.6,6.1c-1,0.7-2,1.5-2.8,2.4
		l13.1,2.8l-4.6,14.6l11.4,10.3l-4.2,3.9c2.6,0.7,6.5,0.9,8.3,1.5c-0.1,1.6-0.6,3.3-1.2,5c-4.2-0.5-8.5-0.9-12.8-1.2l-1.2,1.1
		l4.7,14.6l-14.9,3.3l-3.2,15l-14.6-4.6L137,131.2l-10.4-11.3l-14.6,4.7l-3.3-14.9l-15-3.2l4.6-14.6L87,81.6l11.3-10.4l-4.7-14.6
		l5.8-1.3c-0.1-0.2-0.2-0.4-0.4-0.6c1.2,0,2.5-0.1,3.7-0.1l2.8-0.6c-4.5-7.9-8.3-16.6-11.3-26c-5.6,8.3-10.5,17.5-14.5,27.3
		c2.3-0.1,4.5-0.1,6.8-0.2c-2.1,4.8-3.9,9.8-5.6,15c-1.4-2.1-3.3-3.9-5.5-5.2c0.1-0.6,0.2-1.2,0.2-1.8c0.3-4.4-1.5-8.4-4.6-11.1
		c0.3-0.8,0.5-1.7,0.5-2.6c0.2-3.1-1-6-3.1-8c-0.1-2.9-1.6-5.4-4-6.8c0.6-1,1-2.2,1.1-3.5c0.3-4.3-2.9-8.1-7.2-8.4
		c-4.3-0.3-8.1,2.9-8.4,7.2c-0.1,1,0,1.9,0.3,2.8c-3.2,0.2-5.9,2.7-6.2,6c0,0.1,0,0.3,0,0.4c-4.3,0.9-7.8,4.6-8.1,9.3
		c0,0.5,0,0.9,0,1.4c-3.3,1.6-5.6,4.8-5.9,8.6c-0.1,1.4,0.1,2.7,0.5,3.9c-4.5-0.1-8.7,1.7-11.7,4.8c-1.9-10.8-2.9-22.2-2.8-33.9
		c-5.6,4.4-11,9.1-16.3,14.2v136.5h272.1v-56.9V88.9c-2.1-3.6-4.2-7.1-6.4-10.6c2.1-0.3,4.3-0.6,6.4-0.9V69z M44.4,109.4
		c-9,3.6-17.5,7.7-25.3,12.2c-3.7-7.3-7-15-9.8-23.1c3.3,0.5,6.7,1,10,1.5c-3.5-9.5-6.3-19.6-8.2-30.2c1.7,0.5,3.4,1,5.1,1.5
		c-1,1.9-1.7,4.1-1.8,6.4c-0.6,8.9,6,16.6,14.9,17.2c2.3,0.2,4.6-0.2,6.6-0.9c1.8,2.7,7.1,3.6,10.2,4.8
		C45.8,102.1,45.1,105.7,44.4,109.4z M81.9,97.6c-9.3,2.2-18.3,4.8-26.8,7.7c-0.6-2-0.9-4.1-1-6.2c1-0.7,6-2.4,6.8-3.3
		c1.5,0.5,3,0.9,4.7,1C75,97.6,83.2,90.5,83.9,81c0-0.7,0-1.3,0-2c0.6-0.1,1.1-0.2,1.7-0.3C84,84.8,82.8,91.2,81.9,97.6z M230.3,99
		c-9.5-2.4-19.5-4.4-29.8-5.9c0.3-2.5,0.5-5.1,0.6-7.7c0.2-0.2,0.4-0.3,0.6-0.5c1.1,0.2,2.3,0.3,3.4,0.2c2.4-0.1,4.7-0.8,6.8-1.8
		c1.2,0.2,2.4,0.3,3.7,0.3c5.3-0.2,9.9-3.1,12.5-7.4c-0.9,2.7-1.8,5.5-2.8,8.1c3.8-0.6,7.6-1.1,11.5-1.7
		C234.8,88.2,232.6,93.7,230.3,99z"/>
</g>
<path id="threads" class="st2" d="M94,103.7l-0.3,0.6c-1.3-2.3-2.7-4.8-3.8-9.5c-1.3-5.3-1.1-8.2-0.9-11.1c0.1-2.8,0.3-5.9-1.7-11
	c0.2-0.1,0.3-0.1,0.5-0.2c2,5.3,1.9,8.4,1.7,11.3c-0.2,2.9-0.4,5.8,0.9,11C91.6,99.1,92.8,101.5,94,103.7z M95.4,137.6
	c0-5.4,0.9-8.1,1.8-10.9c0.9-2.8,1.8-5.7,1.1-11.3c-0.4-3.3-1.1-5.6-1.9-7.5l-0.6-0.1c0.9,1.9,1.6,4.2,2,7.6c0.6,5.5-0.3,8.3-1.1,11
	c-0.9,2.8-1.8,5.6-1.8,11c-0.1,5.5,0.8,8.3,1.6,11.1c0.8,2.7,1.6,5.6,0.9,11.1c0.2,0,0.3,0,0.5,0.1c0.8-5.6-0.1-8.6-0.9-11.3
	C96.2,145.8,95.3,143,95.4,137.6z M182.6,76.8c-1.2-2.6-2.5-5.2-3.3-10.5c-0.8-5.3-0.4-8.2,0-11c0.4-2.9,0.8-5.9-0.7-11.4
	c-0.2,0-0.3,0.1-0.5,0.1c1.5,5.3,1.1,8.3,0.7,11.1c-0.4,2.9-0.9,5.8,0,11.2c0.7,4.7,1.8,7.3,2.9,9.6l1.1,1
	C182.7,76.9,182.6,76.8,182.6,76.8z M183.1,98.9c1.1-2.7,2.3-5.5,2.1-11.1c-0.1-1.8-0.2-3.2-0.5-4.5l-0.4,0.5c0.2,1.2,0.3,2.5,0.4,4
	c0.1,5.5-1,8.3-2.1,10.9c-1.1,2.7-2.3,5.4-2.8,10.8c-0.6,5.4,0,8.3,0.6,11.2c0.5,2.8,1.1,5.7-0.1,11.1c0,0,0,0,0,0c0,0,0,0,0,0
	c0,0,0,0,0,0c0,0,0,0,0,0c-0.7,5.6,0.2,8.5,1,11.3c0.8,2.7,1.7,5.5,1.7,10.9c0,0.3,0,0.5,0,0.8l0.5-0.1c0-0.2,0-0.5,0-0.7
	c0-5.5-0.8-8.3-1.7-11.1c-0.8-2.7-1.6-5.6-1-11.1c1.2-5.5,0.7-8.5,0.1-11.3c-0.6-2.8-1.2-5.7-0.6-11
	C180.9,104.2,182,101.5,183.1,98.9z M179.8,136.9c-0.1-2.9-0.2-5.8,1.3-11c1.4-5.2,3-7.6,4.5-10c1.5-2.5,3.2-5.1,4-10.6
	c0.8-5.5,0-8.5-0.8-11.3c-0.8-2.8-1.6-5.5-1.5-10.9c0.1-5.4,1-8.1,1.9-10.9c0.9-2.8,1.8-5.7,1.2-11.3c-0.2,0-0.3,0-0.5,0.1
	c0.6,5.5-0.3,8.4-1.2,11.1c-0.9,2.8-1.8,5.6-1.9,11c-0.1,5.5,0.7,8.3,1.5,11.1c0.8,2.7,1.6,5.6,0.8,11.1c-0.8,5.4-2.4,8-3.9,10.4
	c-1.6,2.4-3.2,4.9-4.6,10.2c-1.5,5.3-1.4,8.2-1.3,11.1c0.1,2.8,0.1,5.9-2,11c0.2,0.1,0.3,0.1,0.5,0.2
	C179.9,142.9,179.9,139.8,179.8,136.9z M86.4,66.4c0.8,2.8,1.7,5.5,1.6,10.9c0,5.4-0.9,8.1-1.8,10.9c-0.8,2.8-1.7,5.7-1.1,11.3
	c0.7,5.6,2.2,8.2,3.7,10.7c1.5,2.4,3,4.9,4.3,10.1c1.3,5.2,1.2,8.1,1,11c-0.1,2.9-0.3,6,1.8,11.2c0.2-0.1,0.3-0.1,0.5-0.2
	c-2-5.2-1.9-8.2-1.7-11c0.2-2.9,0.3-5.9-1-11.1c-1.3-5.3-2.8-7.8-4.3-10.3c-1.5-2.4-3-5-3.7-10.5c-0.6-5.5,0.2-8.3,1.1-11
	c0.9-2.8,1.8-5.6,1.8-11c0-5.5-0.8-8.3-1.7-11.1c-0.8-2.7-1.6-5.6-0.9-11.1c-0.2,0-0.3,0-0.5-0.1C84.7,60.7,85.6,63.6,86.4,66.4z
	 M98.5,128.7c1.4,5.2,1.3,8.1,1.2,10.9c0,0.8,0,1.6,0,2.5h0.5c0-0.9,0-1.7,0-2.4c0.1-2.9,0.2-5.8-1.2-11.1c-1.4-5.3-3-7.8-4.5-10.2
	c-1.5-2.4-3.1-5-3.8-10.5c-0.2,0-0.3,0-0.5,0.1c0.8,5.6,2.4,8.2,3.9,10.7C95.6,121,97.1,123.5,98.5,128.7z"/>
<path id="Frame" class="rpl3-1" d="M187.9,81.6L176.2,71l4.7-15.1l-15.5-3.3L162,37.1l-15.1,4.9l-10.7-11.7L125.5,42l-15.1-4.7
	l-3.3,15.5l-15.5,3.4l4.9,15.1L84.8,82l11.8,10.6l-4.7,15.1l15.5,3.3l3.4,15.5l15.1-4.9l10.7,11.7l10.6-11.8l15.1,4.7l3.3-15.5
	l15.5-3.4l-4.9-15.1L187.9,81.6z M180,106.1l-14.9,3.3l-3.2,15l-14.6-4.6L137,131.2l-10.4-11.3l-14.6,4.7l-3.3-14.9l-15-3.2
	l4.6-14.6L87,81.6l11.3-10.4l-4.7-14.6l14.9-3.3l3.2-15l14.6,4.6l10.3-11.4l10.4,11.3l14.6-4.7l3.3,14.9l15,3.2l-4.6,14.6l11.4,10.3
	l-11.3,10.4L180,106.1z"/>
<rect id="text_background_left" class="svgRibbon" width="56.7" height="170.1"/>
<rect id="text_background_right" x="215.4" class="svgRibbon" width="56.7" height="170.1"/>
<g id="bows">
	<g>
		<path class="st5" d="M107.2,117.8c-0.9-0.3-1.7-0.1-2.2-0.9c-1.2-2,1.7-6.3-2.9-7.9c-4.5-1.5-5.4,11.6-9.8,13.8c0,0.2,0,0.4,0,0.5
			c-0.2-0.2-0.4-0.4-0.7-0.6c-4.4,2-15.1-5.7-16.8-1.2c-1.7,4.5,3.5,5,4.3,7.2c0.3,0.9-0.4,1.4-0.7,2.3c-0.5,1.2,0,3.2,2.5,3.5
			c3.9,0.6,11-6.5,12.5-8.4c0.1,0,0.2,0,0.2,0c1.4,0.2,12.6-0.7,14.8-4.3C109.6,119.8,108.4,118.2,107.2,117.8z"/>
		<path class="st5" d="M91.6,126.8c-0.5-0.1-0.9-0.2-1.4-0.1c-0.2,0-0.4-0.3-0.5-0.4c-0.4-0.4-0.7-0.8-1-1.2
			c-0.1-0.1-1.2-1.8-1.2-1.8c1.5-0.2,2.9,0.6,3.8,1.6c1,1,1.9,2.1,2.6,3.4c0.3,0.5,0.4,0.9,0.4,1.4
			C93.7,127.6,91.6,126.8,91.6,126.8z"/>
		<path class="st5" d="M86.7,133.6c0-0.1,0-0.1,0-0.2c0.4-1.3,1.7-2.4,2.6-3.3c0.9-0.9,1.9-2,2.3-3.3c0,0,2.2,0.9,2.7,2.9
			c0,0.2,0,0.3-0.1,0.5c-0.4,1.6-1.8,2.8-2.8,4c-0.5,0.5-0.9,1.1-1.4,1.6c0,0,0,0,0,0.1C86.9,135.2,86.6,134.1,86.7,133.6z"/>
		<path class="st6" d="M86.9,133.1L86.9,133.1c-0.1,0.1-0.1,0.2-0.1,0.4c0,0.1,0,0.1,0,0.2c0,0,0,0,0,0c0.2,0.4,0.4,0.8,0.7,1.1
			c0,0,0.1,0.1,0.1,0.1c0.2,0.1,0.5,0.3,0.9,0.4c0,0,0.1,0,0.1,0.1c0.1,0,0.1,0,0.2,0.1c0.1,0,0.1,0,0.2,0.1c0.1,0,0.1,0,0.2,0
			c0.1,0,0.2,0,0.3,0.1c0.1,0,0.1,0,0.2,0c0.2,0,0.3,0.1,0.5,0.1c0,0,0,0,0-0.1c0,0,0-0.1,0.1-0.1C89.5,135.5,88.1,134.9,86.9,133.1
			z"/>
		<path class="st6" d="M92.2,127.9c0,0,1.3,0.5,2.1,1.7c-0.6-1.9-2.7-2.8-2.7-2.8c-0.1,0.3-0.2,0.7-0.4,1
			C91.5,127.8,91.8,127.8,92.2,127.9z"/>
		<path class="st5" d="M98,143.4c1.4,3.1,0.4,7-2,9.4c-0.1,0.1-3-3.1-2.7-3.4c2.1-2,3.1-5,2.5-7.8c-0.1-0.3-0.1-0.6-0.2-0.9
			C96.6,141.3,97.5,142.5,98,143.4z"/>
		<path class="st6" d="M95.6,140.7c0.1,0.3,0.2,0.6,0.2,0.9c0,0,0,0,0,0c0.4,0.2,0.7,0.4,1,0.6c0,0,0.1,0.1,0.1,0.1
			c0.2,0.1,0.5,0.3,0.7,0.5C97.1,142,96.4,141.1,95.6,140.7z"/>
		<path class="st5" d="M86.7,133.6c-0.1,0.5,1.6,1.8,3.3,2.2c1.1,0.3,1.6,0.7,2.4,1.1c2.3,1.3,4.2,3.7,5.4,6
			c0.1,0.2,0.2,0.4,0.3,0.6c-0.5-0.9-1.4-2.1-2.5-2.7c0,0-0.1-0.1-0.1-0.1c-0.4-0.3-0.8-0.5-1.2-0.7c-0.8-0.4-1.6-0.7-2.4-1
			c-0.6-0.2-1.3-0.3-1.9-0.5c-1-0.4-1.7-1.7-2.3-2.5C87.1,135.2,86.5,134.5,86.7,133.6z"/>
		<path class="st5" d="M95.9,126.1c0.2-0.4,0.4-0.8,0.8-1c0.1-0.1,0-0.5,0-0.6c0-0.5-0.1-0.9-0.2-1.4c0-0.1-0.5-1.9-0.6-1.9
			c-1,0.9-1.3,2.4-1.2,3.7c0.1,1.3,0.3,2.6,0.8,3.8c0.2,0.5,0.4,0.8,0.8,1.1C95.2,128.1,95.9,126.1,95.9,126.1z"/>
		<path class="st5" d="M103.6,126.9c0,0-0.1,0-0.1-0.1c-1.1-0.5-2.7-0.3-3.9-0.2c-1.2,0-2.6,0.1-3.7-0.5c0,0-0.7,2,0.3,3.6
			c0.1,0.1,0.2,0.2,0.4,0.2c1.3,0.7,3,0.5,4.4,0.5c0.6,0,1.3,0,1.9,0c0,0,0,0,0.1,0C104.6,128,104,127.2,103.6,126.9z"/>
		<path class="st6" d="M96.8,126.4c-0.3-0.1-0.6-0.2-0.9-0.3c0,0-0.7,2,0.3,3.6c-0.1-0.7-0.1-1.5,0.2-2.3
			C96.5,127,96.7,126.7,96.8,126.4z"/>
		<path class="st5" d="M103.5,140.7c1.3,2.8,4.6,4.6,7.7,4.3c0.2,0-0.3-3.9-0.7-3.9c-2.6,0.2-5.3-0.9-6.9-3
			c-0.2-0.2-0.3-0.5-0.5-0.7C102.9,138.4,103.2,139.8,103.5,140.7z"/>
		<path class="st5" d="M103.6,126.9c0.4,0.3,0.3,2.2-0.5,3.6c-0.5,0.9-0.5,1.5-0.7,2.3c-0.5,2.4,0,5.1,0.8,7.3
			c0.1,0.2,0.1,0.4,0.2,0.5c-0.3-0.9-0.6-2.3-0.4-3.3c0,0,0-0.1,0-0.1c0.1-0.4,0.2-0.9,0.3-1.3c0.2-0.8,0.5-1.5,0.8-2.2
			c0.2-0.6,0.6-1.1,0.8-1.7c0.3-0.9-0.1-2.2-0.3-3.1C104.5,128.1,104.3,127.3,103.6,126.9z"/>
		<path class="st6" d="M103.6,138c-0.2-0.2-0.3-0.5-0.5-0.7c-0.2,1.1,0.1,2.4,0.4,3.3c0,0,0,0,0,0c0-0.5,0-0.9,0-1.4
			c0,0,0-0.1,0-0.1c0-0.3,0.1-0.6,0.2-0.9C103.7,138.2,103.6,138.1,103.6,138z"/>
		<path class="st6" d="M103.4,130c0.1-0.1,0.1-0.2,0.2-0.4c0,0,0,0,0-0.1c0.1-0.1,0.1-0.2,0.1-0.3c0,0,0,0,0-0.1
			c0-0.1,0.1-0.2,0.1-0.3c0,0,0,0,0-0.1c0-0.1,0.1-0.2,0.1-0.2c0,0,0-0.1,0-0.1c0-0.1,0-0.1,0-0.2c0,0,0-0.1,0-0.1c0,0,0-0.1,0-0.1
			c0,0,0-0.1,0-0.1c0,0,0-0.1,0-0.1c0-0.1,0-0.1,0-0.2c0,0,0,0,0,0c0,0,0-0.1,0-0.1c0-0.1-0.1-0.3-0.1-0.4c-0.1-0.1-0.2-0.3-0.3-0.3
			c0,0-0.1,0-0.1-0.1c-0.1,0-0.1-0.1-0.2-0.1c0.7,1.1,0,3.1-0.2,3.7c0,0,0,0,0,0C103.2,130.3,103.3,130.2,103.4,130
			C103.4,130.1,103.4,130,103.4,130z"/>
		<g>
			<path class="st7" d="M104.3,118c-1.4-3.2-1.9-7.3-1.9-7.3s-1.1-0.5-2.7,1.8c-1.6,2.3,1.6,9.6,4.8,11.9c1.7-0.6,3.2-1.5,3.8-2.5
				c0,0,0,0,0,0C107.1,121.2,105.2,120,104.3,118z"/>
			<path class="st7" d="M79,121.9c-2.9-0.2-3.2,0.9-3.2,0.9s2.9,2.9,4.4,6.1c1,2,0.8,4.2,0.5,5.6c0,0,0,0,0,0
				c1.2,0.2,2.8-0.4,4.4-1.4C85.5,129.3,81.8,122.2,79,121.9z"/>
		</g>
		<g>
			<path class="st8" d="M102.3,109.7c-4.1-1.6-4.8,10.6-10,13.9c3.2-0.4,5.3-4.7,6.7-7.3C100.9,112.9,105.9,111.1,102.3,109.7z"/>
			<path class="st8" d="M75.2,122.1c-1.2,3.7,3.4,0.9,7.1,1.6c2.9,0.5,7.6,1.7,9.9-0.5C86.4,125.2,76.5,117.9,75.2,122.1z"/>
		</g>
		<path class="st9" d="M100.2,120.7c-0.5-0.7-3.6,1.9-4.7,2.8c1.1-1,3.9-3.6,2.9-3.8c-0.9-0.2-3.1,3-5.1,4.5c0,0-0.1-0.1-0.1-0.1
			c-2.1,1-7.3,0.4-7.8,1.4c-0.4,0.9,3.3,0.4,4.8,0.1c-1.5,0.3-5.5,1-5.2,1.8c0.3,1,6.5-1.9,6.5-1.9s-5.6,3.4-4.9,4.2
			c0.4,0.5,2.1-0.9,3.5-2.1c-1.2,1.2-2.4,2.5-2,2.8c0.5,0.3,3.2-2.8,4.9-4.7c2.4-0.1,7.5-0.2,7.6-0.8c0.1-0.5-1.8-0.4-3.4-0.2
			c1.8-0.3,3.9-0.7,3.9-1.4c-0.2-1-6.3,1.1-6.3,1.1S100.8,121.5,100.2,120.7z"/>
		<path class="st10" d="M94.9,123.8c1.3,2.8-0.1,2.6-1.3,3.1c-1.2,0.5-1.8,1.9-3-1.4c-1.1-3.1,0.1-2.5,1.3-2.9
			C93.1,122.1,93.6,121.1,94.9,123.8z"/>
		<path class="st5" d="M92.3,124.7c0.9-0.4,1.7-0.7,2.6-0.9c-1.2-2.6-1.7-1.6-2.9-1.1c-1.2,0.5-2.4-0.2-1.3,2.9
			C91.2,125.2,91.7,124.9,92.3,124.7z"/>
		<path class="st11" d="M91.2,125.2c0.3,0.9,1,1.9,1.3,2.4c-0.6,0.3-1.1,0-1.8-2c-0.7-1.9-0.5-2.4,0.1-2.6
			C90.9,123.3,90.8,123.9,91.2,125.2z M93.2,122c0.2,0.4,0.6,0.7,1.1,1.8c0.8,1.6,0.7,2.1,0.8,2.6c0.5-0.3,0.7-0.9-0.1-2.6
			C94.2,122.2,93.7,121.9,93.2,122z"/>
		<g>
			<path class="st12" d="M94.9,123.7C94.9,123.7,94.9,123.7,94.9,123.7c-0.2-0.3-0.3-0.6-0.4-0.8c0,0,0,0,0,0c0,0-0.1-0.1-0.1-0.1
				c0,0,0,0,0,0c0,0-0.1-0.1-0.1-0.1c0,0,0,0,0,0c0,0-0.1-0.1-0.1-0.1c0,0,0,0,0,0c-0.1-0.1-0.2-0.2-0.3-0.3c0,0,0,0,0,0
				c0,0,0,0-0.1-0.1c0,0,0,0,0,0c0,0,0,0-0.1,0c0,0,0,0,0,0c0,0,0,0-0.1,0c0,0,0,0,0,0c-0.1,0-0.1,0-0.2-0.1c0,0,0,0,0,0
				c0,0,0,0-0.1,0c0,0,0,0,0,0c0,0,0,0-0.1,0c0,0,0,0,0,0c0,0,0,0,0,0c0.2,0.4,0.6,0.7,1.1,1.8c0,0,0,0,0,0.1
				C94.5,123.8,94.7,123.8,94.9,123.7z"/>
			<path class="st12" d="M90.7,122.9C90.7,122.9,90.7,122.9,90.7,122.9C90.7,122.9,90.6,122.9,90.7,122.9c-0.1,0.1-0.1,0.1-0.2,0.1
				c0,0,0,0,0,0c-0.1,0-0.1,0.1-0.1,0.1c0,0,0,0,0,0c0,0,0,0,0,0.1c0,0,0,0,0,0c0,0,0,0,0,0.1c0,0,0,0,0,0c0,0,0,0.1,0,0.1
				c0,0,0,0,0,0c0,0,0,0.1,0,0.1c0,0,0,0,0,0c0,0,0,0.1,0,0.1c0,0,0,0,0,0.1c0,0,0,0.1,0,0.1c0,0,0,0,0,0.1c0,0,0,0.1,0,0.1
				c0,0,0,0,0,0.1c0,0.1,0,0.1,0,0.2c0,0,0,0,0,0.1c0,0.1,0,0.1,0,0.2c0,0,0,0.1,0,0.1c0,0.1,0,0.1,0,0.2c0,0,0,0.1,0,0.1
				c0,0.1,0,0.1,0.1,0.2c0,0,0,0.1,0,0.1c0,0.1,0.1,0.2,0.1,0.3c0.2-0.1,0.4-0.2,0.5-0.3c0,0,0,0,0,0
				C90.8,123.9,90.9,123.3,90.7,122.9C90.7,122.9,90.7,122.9,90.7,122.9z"/>
		</g>
	</g>
	<g>
		<path class="st5" d="M194.7,136.1c-0.3-0.9-0.9-1.5-0.6-2.3c0.9-2.1,6.1-2.3,4.8-6.9c-1.4-4.6-12.6,2.3-16.9,0
			c-0.2,0.1-0.3,0.2-0.4,0.3c0-0.3,0-0.6,0.1-0.9c-4.2-2.5-4.1-15.6-8.7-14.4c-4.6,1.2-2.1,5.8-3.4,7.6c-0.6,0.8-1.4,0.5-2.3,0.7
			c-1.3,0.3-2.6,1.8-1.4,4c1.8,3.5,11.7,5.2,14.1,5.3c0,0.1,0.1,0.2,0.1,0.2c0.7,1.3,7.8,9.9,12,9.6
			C194.5,139.2,195.1,137.3,194.7,136.1z"/>
		<path class="st5" d="M178.4,128.5c-0.2-0.4-0.4-0.9-0.7-1.2c-0.1-0.1,0-0.5,0-0.6c0.1-0.5,0.2-1,0.4-1.5c0-0.1,0.8-2,0.8-2
			c1,1.1,1.1,2.7,0.9,4.1c-0.2,1.4-0.6,2.8-1.2,4c-0.2,0.5-0.5,0.8-1,1.1C178.9,130.8,178.4,128.5,178.4,128.5z"/>
		<path class="st5" d="M170,128.5c0.1,0,0.1,0,0.2-0.1c1.2-0.4,2.9,0,4.2,0.2c1.3,0.2,2.8,0.4,4-0.1c0,0,0.5,2.3-0.8,3.9
			c-0.1,0.1-0.3,0.2-0.4,0.2c-1.5,0.6-3.3,0.2-4.9,0c-0.7-0.1-1.4-0.2-2.1-0.2c0,0-0.1,0-0.1,0C168.7,129.6,169.5,128.7,170,128.5z"
			/>
		<path class="st6" d="M170.5,128.3L170.5,128.3c-0.1,0-0.3,0.1-0.4,0.1c-0.1,0-0.1,0-0.2,0.1c0,0,0,0,0,0c-0.2,0.4-0.4,0.8-0.5,1.2
			c0,0,0,0.1-0.1,0.1c0,0.3,0.1,0.6,0.2,1c0,0,0,0.1,0,0.1c0,0.1,0,0.1,0.1,0.2c0,0.1,0,0.1,0.1,0.2c0,0.1,0,0.1,0.1,0.2
			c0,0.1,0.1,0.2,0.1,0.3c0,0.1,0,0.1,0.1,0.2c0.1,0.1,0.1,0.3,0.2,0.5c0,0,0.1,0,0.1,0c0,0,0.1,0,0.1,0
			C170,131.9,169.7,130.3,170.5,128.3z"/>
		<path class="st6" d="M177.8,129.7c0,0,0.3,1.3-0.1,2.7c1.2-1.6,0.7-3.8,0.7-3.8c-0.3,0.1-0.7,0.2-1,0.2
			C177.5,129,177.7,129.3,177.8,129.7z"/>
		<path class="st5" d="M168.5,143.4c-1.8,2.9-5.5,4.4-8.8,3.8c-0.2,0,0.8-4.2,1.2-4.1c2.8,0.6,5.8-0.4,7.8-2.5
			c0.2-0.2,0.4-0.5,0.6-0.7C169.5,141,169,142.5,168.5,143.4z"/>
		<path class="st6" d="M169.3,139.8c-0.2,0.3-0.4,0.5-0.6,0.7c0,0,0,0,0,0c0.1,0.4,0.1,0.8,0.1,1.2c0,0.1,0,0.1,0,0.2
			c0,0.3,0,0.5,0,0.8C169.2,141.9,169.4,140.8,169.3,139.8z"/>
		<path class="st5" d="M170,128.5c-0.5,0.3-0.5,2.3,0.1,3.9c0.4,1.1,0.4,1.7,0.5,2.6c0.3,2.6-0.6,5.5-1.7,7.8
			c-0.1,0.2-0.2,0.4-0.3,0.5c0.4-0.9,0.9-2.4,0.8-3.6c0-0.1,0-0.1,0-0.2c0-0.5-0.1-1-0.1-1.4c-0.1-0.8-0.3-1.7-0.6-2.5
			c-0.2-0.6-0.5-1.2-0.7-1.9c-0.2-1,0.3-2.4,0.7-3.3C168.9,129.7,169.1,128.8,170,128.5z"/>
		<path class="st5" d="M181.4,131.7c0.4-0.1,0.9-0.1,1.3,0c0.1,0,0.4-0.3,0.5-0.3c0.4-0.3,0.7-0.6,1-1c0.1-0.1,1.3-1.5,1.2-1.6
			c-1.3-0.3-2.7,0.3-3.7,1.1c-1,0.8-2,1.8-2.7,2.8c-0.3,0.4-0.4,0.8-0.5,1.3C179.4,132.3,181.4,131.7,181.4,131.7z"/>
		<path class="st5" d="M185.2,138.4c0-0.1,0-0.1,0-0.2c-0.2-1.2-1.3-2.4-2-3.3c-0.7-0.9-1.6-2.1-1.8-3.3c0,0-2.1,0.6-2.8,2.4
			c0,0.1,0,0.3,0,0.4c0.2,1.5,1.3,2.7,2.2,3.9c0.4,0.5,0.8,1.1,1.1,1.6c0,0,0,0,0,0.1C184.9,139.9,185.2,138.9,185.2,138.4z"/>
		<path class="st6" d="M181.7,132.6c-0.1-0.3-0.2-0.6-0.3-0.9c0,0-2,0.6-2.7,2.3c0.5-0.5,1.2-1,2-1.2
			C181,132.7,181.4,132.6,181.7,132.6z"/>
		<path class="st5" d="M173.9,146.3c-1.5,2.7-1.1,6.4,1,8.8c0.1,0.1,3-2.5,2.8-2.8c-1.7-2-2.3-4.9-1.5-7.4c0.1-0.3,0.2-0.5,0.3-0.8
			C175.4,144.5,174.5,145.5,173.9,146.3z"/>
		<path class="st5" d="M185.2,138.4c0,0.5-1.6,1.5-3.2,1.7c-1,0.2-1.6,0.5-2.3,0.8c-2.2,1-4.2,3-5.5,4.9c-0.1,0.2-0.2,0.3-0.3,0.5
			c0.6-0.8,1.5-1.8,2.5-2.2c0,0,0.1,0,0.1-0.1c0.4-0.2,0.8-0.4,1.2-0.5c0.7-0.3,1.5-0.5,2.3-0.7c0.6-0.1,1.2-0.1,1.8-0.3
			c0.9-0.3,1.8-1.3,2.4-2C184.7,139.8,185.3,139.2,185.2,138.4z"/>
		<path class="st6" d="M176.1,144.8c0.1-0.3,0.2-0.5,0.3-0.8c-1,0.5-1.9,1.5-2.5,2.2c0,0,0,0,0,0c0.4-0.3,0.8-0.6,1.2-0.8
			c0,0,0.1,0,0.1-0.1c0.3-0.1,0.6-0.3,0.9-0.4C176.1,145,176.1,144.9,176.1,144.8z"/>
		<path class="st6" d="M182.5,140c0.1,0,0.3,0,0.4-0.1c0,0,0.1,0,0.1,0c0.1,0,0.2,0,0.3-0.1c0,0,0,0,0.1,0c0.1,0,0.2,0,0.3-0.1
			c0,0,0,0,0.1,0c0.1,0,0.2-0.1,0.2-0.1c0,0,0.1,0,0.1,0c0.1,0,0.1-0.1,0.2-0.1c0,0,0.1,0,0.1,0c0,0,0.1,0,0.1-0.1
			c0,0,0.1,0,0.1-0.1c0,0,0.1,0,0.1,0c0,0,0.1-0.1,0.1-0.1c0,0,0,0,0,0c0,0,0.1,0,0.1-0.1c0.1-0.1,0.2-0.2,0.3-0.4
			c0.1-0.2,0.1-0.3,0.1-0.4c0-0.1,0-0.1,0-0.2c0-0.1,0-0.1,0-0.2c-0.5,1.2-2.5,1.8-3.2,2c0,0,0,0,0,0
			C182.2,140.1,182.3,140.1,182.5,140C182.5,140,182.5,140,182.5,140z"/>
		<g>
			<path class="st7" d="M192.9,133.8c1.8-3,4.9-5.7,4.9-5.7s-0.2-1.2-3.1-1.2c-2.7,0-6.9,6.9-6.9,10.8c1.5,1.1,3,1.7,4.3,1.7
				c0,0,0,0,0,0C191.8,138,191.8,135.7,192.9,133.8z"/>
			<path class="st7" d="M175.1,115.5c-1.5-2.5-2.6-2-2.6-2s-0.7,4-2.4,7.1c-1,1.9-3,3-4.3,3.6c0,0,0,0,0,0c0.6,1.1,1.9,2,3.6,2.8
				C172.8,125,176.5,117.9,175.1,115.5z"/>
		</g>
		<g>
			<path class="st8" d="M198.5,127.4c-1-4.3-11.4,2.2-17.1-0.1c2.2,2.3,6.9,1.5,9.9,1.2C195,128.1,199.4,131.1,198.5,127.4z"/>
			<path class="st8" d="M172.7,112.5c-3.7,1.2,1.2,3.3,2.8,6.8c1.3,2.7,3,7.2,6.1,7.8C176.7,123.4,176.9,111.1,172.7,112.5z"/>
		</g>
		<path class="st9" d="M188.3,132.1c0.3-0.8-3.6-1.8-5-2.2c1.4,0.3,5.2,1.1,4.8,0.2c-0.4-0.9-4.2-0.8-6.6-1.5c0-0.1,0-0.1,0-0.2
			c-2.1-1.2-4.6-5.7-5.7-5.6c-1,0.2,1.6,2.9,2.6,4c-1.1-1.1-4-3.9-4.5-3.2c-0.6,0.8,5.3,4.2,5.3,4.2s-6-2.6-6.3-1.5
			c-0.1,0.6,2,1.2,3.7,1.6c-1.6-0.3-3.5-0.5-3.4-0.1c0.1,0.6,4.1,1.1,6.7,1.3c1.4,1.9,4.5,5.9,5.1,5.7c0.4-0.2-0.7-1.7-1.8-2.9
			c1.3,1.3,2.9,2.8,3.3,2.4c0.8-0.7-4.6-4.6-4.6-4.6S187.9,133,188.3,132.1z"/>
		<path class="st10" d="M182.7,129.6c-1.5,2.7-2.2,1.4-3.2,0.7s-2.6-0.4-0.6-3.2c1.9-2.7,2.1-1.3,3.1-0.7S184.2,126.9,182.7,129.6z"
			/>
		<path class="st5" d="M180.5,127.9c0.8,0.5,1.6,1,2.3,1.6c1.4-2.5,0.3-2.4-0.7-3c-1.1-0.7-1.3-2-3.1,0.6
			C179.4,127.3,180,127.6,180.5,127.9z"/>
		<path class="st11" d="M179.5,127.3c-0.6,0.8-1,1.9-1.2,2.4c-0.5-0.3-0.7-0.9,0.6-2.7c1.2-1.7,1.7-1.8,2.2-1.5
			C180.8,125.9,180.2,126.3,179.5,127.3z M183.2,127.1c-0.3,0.4-0.3,0.9-0.9,1.9c-0.9,1.6-1.3,1.8-1.6,2.1c0.5,0.2,1.1,0,2-1.6
			C183.6,128,183.5,127.4,183.2,127.1z"/>
		<g>
			<path class="st12" d="M182.8,129.4C182.8,129.4,182.8,129.4,182.8,129.4c0.2-0.3,0.3-0.6,0.4-0.8c0,0,0,0,0,0
				c0-0.1,0-0.1,0.1-0.1c0,0,0,0,0,0c0,0,0-0.1,0-0.1c0,0,0,0,0,0c0,0,0-0.1,0-0.1c0,0,0,0,0,0c0-0.1,0.1-0.3,0.1-0.4c0,0,0,0,0,0
				c0,0,0-0.1,0-0.1c0,0,0,0,0,0c0,0,0-0.1,0-0.1c0,0,0,0,0,0c0,0,0,0,0-0.1c0,0,0,0,0,0c0-0.1,0-0.1-0.1-0.2c0,0,0,0,0,0
				c0,0,0,0,0,0c0,0,0,0,0,0c0,0,0,0,0,0c0,0,0,0,0,0c0,0,0,0,0,0c-0.3,0.4-0.3,0.9-0.9,1.9c0,0,0,0,0,0
				C182.4,129.2,182.6,129.3,182.8,129.4z"/>
			<path class="st12" d="M181,125.6C181,125.6,181,125.6,181,125.6C181,125.6,181,125.6,181,125.6c-0.1-0.1-0.1-0.1-0.2-0.1
				c0,0,0,0,0,0c-0.1,0-0.1,0-0.2,0c0,0,0,0,0,0c0,0,0,0-0.1,0c0,0,0,0,0,0c0,0,0,0-0.1,0c0,0,0,0,0,0c0,0-0.1,0-0.1,0c0,0,0,0,0,0
				c0,0-0.1,0-0.1,0.1c0,0,0,0,0,0c0,0-0.1,0-0.1,0.1c0,0,0,0,0,0c0,0-0.1,0-0.1,0.1c0,0,0,0,0,0c0,0-0.1,0.1-0.1,0.1c0,0,0,0,0,0
				c0,0-0.1,0.1-0.1,0.1c0,0,0,0,0,0.1c0,0-0.1,0.1-0.1,0.1c0,0,0,0.1-0.1,0.1c0,0-0.1,0.1-0.1,0.1c0,0,0,0.1-0.1,0.1
				c0,0-0.1,0.1-0.1,0.1c0,0,0,0.1-0.1,0.1c-0.1,0.1-0.1,0.2-0.2,0.3c0.2,0.1,0.4,0.2,0.6,0.3c0,0,0,0,0,0
				C180.2,126.3,180.8,125.9,181,125.6C181,125.6,181,125.6,181,125.6z"/>
		</g>
	</g>
</g>
<path id="text_frame" class="rpl13-1" d="M186.5,151.8c0.5-0.3,1.1-0.6,1.8-0.6s1.3,0.3,1.7,0.9c0.2,0.3,0.4,0.6,0.4,1
	c0.1,0.4,0.1,0.8,0,1.2c-0.1,0.4-0.3,0.8-0.5,1.1c-0.2,0.3-0.5,0.5-0.8,0.7c-0.6,0.3-1.3,0.3-1.9-0.1c-0.6-0.3-1-0.9-1.3-1.4
	c-0.1-0.3-0.2-0.5-0.3-0.8c0-0.3,0-0.5,0-0.8c0.1-0.2,0.2-0.5,0.3-0.7C186,152.2,186.2,152,186.5,151.8z M185.2,155.7
	c-0.3,0-0.6,0.1-0.8,0.2c-0.1,0.1-0.2,0.1-0.3,0.2c-0.1,0.1-0.2,0.2-0.3,0.3c-0.1,0.1-0.2,0.2-0.2,0.3c-0.1,0.1-0.1,0.2-0.2,0.3
	c-0.1,0.2-0.1,0.5-0.1,0.8c0,0.6,0.1,1.2,0.5,1.8c0.4,0.6,1,0.9,1.7,0.9c0.4,0,0.7-0.1,1.1-0.2c0.2-0.1,0.4-0.2,0.5-0.3
	c0.2-0.1,0.3-0.3,0.5-0.4c0.1-0.2,0.3-0.3,0.4-0.5c0.1-0.2,0.2-0.4,0.2-0.5c0.1-0.4,0.2-0.7,0.1-1.1c-0.1-0.7-0.5-1.2-1.1-1.6
	C186.4,155.7,185.8,155.6,185.2,155.7z M182.2,158.5c-0.3-0.1-0.5-0.2-0.8-0.2c-0.1,0-0.3,0-0.4,0c-0.1,0-0.3,0-0.4,0.1
	c-0.1,0-0.2,0.1-0.3,0.2c-0.1,0.1-0.2,0.1-0.3,0.2c-0.2,0.2-0.4,0.4-0.5,0.7c-0.3,0.5-0.5,1.2-0.4,1.8c0.1,0.7,0.4,1.3,1,1.6
	c0.3,0.2,0.7,0.3,1,0.3c0.2,0,0.4,0,0.6,0c0.2,0,0.4-0.1,0.6-0.2c0.2-0.1,0.4-0.2,0.6-0.3c0.2-0.1,0.3-0.2,0.5-0.4
	c0.3-0.3,0.5-0.6,0.6-0.9c0.2-0.7,0.1-1.3-0.3-1.9C183.4,159.1,182.8,158.7,182.2,158.5z M176.6,158.9c-1.4,0-2.5,1.1-2.5,2.5
	s1.1,2.5,2.5,2.5c1.3,0,2.7-1.2,2.5-2.5C178.9,160,178.1,158.9,176.6,158.9z M171.7,158.9c-1.4,0-2.5,1.1-2.5,2.5s1.1,2.5,2.5,2.5
	c1.4,0,2.5-1.1,2.5-2.5S173,158.9,171.7,158.9z M166.7,158.9c-1.4,0-2.5,1.1-2.5,2.5s1.1,2.5,2.5,2.5c1.4,0,2.5-1.1,2.5-2.5
	S168.1,158.9,166.7,158.9z M161.7,158.9c-1.4,0-2.5,1.1-2.5,2.5s1.1,2.5,2.5,2.5c1.4,0,2.5-1.1,2.5-2.5S163.1,158.9,161.7,158.9z
	 M156.7,158.9c-1.4,0-2.5,1.1-2.5,2.5s1.1,2.5,2.5,2.5c1.4,0,2.5-1.1,2.5-2.5S158.1,158.9,156.7,158.9z M151.8,158.9
	c-1.4,0-2.5,1.1-2.5,2.5s1.1,2.5,2.5,2.5c1.4,0,2.5-1.1,2.5-2.5S153.1,158.9,151.8,158.9z M146.8,158.9c-1.4,0-2.5,1.1-2.5,2.5
	s1.1,2.5,2.5,2.5c1.4,0,2.5-1.1,2.5-2.5S148.2,158.9,146.8,158.9z M141.8,158.9c-1.4,0-2.5,1.1-2.5,2.5s1.1,2.5,2.5,2.5
	c1.4,0,2.5-1.1,2.5-2.5S143.2,158.9,141.8,158.9z M136.8,158.9c-1.4,0-2.5,1.1-2.5,2.5s1.1,2.5,2.5,2.5c1.4,0,2.5-1.1,2.5-2.5
	S138.2,158.9,136.8,158.9z M131.9,158.9c-1.4,0-2.5,1.1-2.5,2.5s1.1,2.5,2.5,2.5s2.5-1.1,2.5-2.5S133.2,158.9,131.9,158.9z
	 M126.9,158.9c-1.4,0-2.5,1.1-2.5,2.5s1.1,2.5,2.5,2.5c1.4,0,2.5-1.1,2.5-2.5S128.3,158.9,126.9,158.9z M121.9,158.9
	c-1.4,0-2.5,1.1-2.5,2.5s1.1,2.5,2.5,2.5c1.4,0,2.5-1.1,2.5-2.5S123.3,158.9,121.9,158.9z M116.9,158.9c-1.4,0-2.5,1.1-2.5,2.5
	s1.1,2.5,2.5,2.5c1.4,0,2.5-1.1,2.5-2.5S118.3,158.9,116.9,158.9z M112,158.9c-1.4,0-2.5,1.1-2.5,2.5s1.1,2.5,2.5,2.5
	c1.4,0,2.5-1.1,2.5-2.5S113.3,158.9,112,158.9z M107,158.9c-1.4,0-2.5,1.1-2.5,2.5s1.1,2.5,2.5,2.5c1.4,0,2.5-1.1,2.5-2.5
	S108.4,158.9,107,158.9z M102,158.9c-1.4,0-2.5,1.1-2.5,2.5s1.1,2.5,2.5,2.5c1.4,0,2.5-1.1,2.5-2.5S103.4,158.9,102,158.9z
	 M97,158.9c-0.7,0-1.3,0.3-1.8,0.7c-0.2,0.2-0.4,0.5-0.5,0.8c-0.1,0.3-0.2,0.6-0.2,1c0,0.3,0,0.7,0.2,1c0.1,0.3,0.3,0.6,0.6,0.8
	c0.5,0.4,1.1,0.7,1.8,0.7c1.4,0,2.5-1.1,2.5-2.5S98.4,158.9,97,158.9z M93.5,158.9c-0.2-0.2-0.4-0.3-0.7-0.4
	c-0.2-0.1-0.5-0.1-0.8-0.1c-0.3,0-0.5,0.1-0.8,0.2c-0.5,0.3-1.1,0.6-1.4,1.2c-0.4,0.6-0.4,1.3-0.2,1.9c0.1,0.3,0.3,0.6,0.6,0.9
	c0.3,0.2,0.7,0.5,1.1,0.6c0.4,0.1,0.8,0.1,1.2,0.1c0.4-0.1,0.7-0.2,1-0.4c0.6-0.4,0.9-1,0.9-1.7c0-0.7-0.2-1.3-0.5-1.8
	C93.9,159.3,93.7,159.1,93.5,158.9z M90.2,158.1c0-0.3-0.1-0.6-0.2-0.8c-0.1-0.3-0.2-0.5-0.4-0.6c-0.2-0.2-0.4-0.3-0.6-0.4
	c-0.2-0.1-0.5-0.2-0.8-0.2c-0.6,0-1.2,0-1.8,0.4c-0.6,0.3-1,0.9-1,1.6c0,0.3,0,0.7,0.1,1.1c0.1,0.4,0.4,0.7,0.7,1
	c0.3,0.3,0.7,0.5,1,0.7c0.4,0.1,0.7,0.2,1.1,0.1c0.7-0.1,1.3-0.5,1.6-1C90.2,159.3,90.3,158.7,90.2,158.1z M87.6,155
	c0.1-0.3,0.2-0.5,0.2-0.8c0-0.3,0-0.5-0.1-0.8c-0.1-0.3-0.2-0.5-0.4-0.7c-0.2-0.2-0.4-0.4-0.6-0.5c-0.5-0.3-1.1-0.5-1.8-0.5
	c-0.7,0-1.3,0.4-1.7,0.9c-0.2,0.3-0.3,0.6-0.4,1c0,0.4,0,0.8,0.1,1.2c0.1,0.4,0.3,0.8,0.6,1.1c0.3,0.3,0.6,0.5,0.9,0.6
	c0.6,0.3,1.3,0.2,1.9-0.2C87,156.1,87.3,155.6,87.6,155z M86.6,151c0.4-0.5,0.7-1.1,0.7-1.8c0-0.3,0-0.5-0.2-0.7
	c-0.1-0.2-0.2-0.5-0.4-0.7c-0.4-0.4-0.9-0.8-1.6-1c-0.3-0.1-0.7-0.1-1,0c-0.3,0.1-0.6,0.2-0.9,0.4c-0.3,0.2-0.5,0.5-0.7,0.9
	c-0.1,0.4-0.2,0.8-0.3,1.2c0,0.7,0.3,1.3,0.7,1.8c0.2,0.2,0.5,0.4,0.8,0.6c0.3,0.1,0.6,0.2,1,0.2c0.3,0,0.7-0.1,1-0.2
	C86.2,151.4,86.4,151.3,86.6,151z M87.1,146.6c0.3-0.1,0.5-0.2,0.7-0.4c0.2-0.2,0.4-0.3,0.5-0.6c0.1-0.2,0.2-0.5,0.2-0.7
	c0-0.3,0-0.5-0.1-0.8c-0.1-0.6-0.4-1.2-0.9-1.6c-0.5-0.5-1.2-0.7-1.9-0.5c-0.3,0.1-0.7,0.2-1,0.5c-0.3,0.2-0.6,0.6-0.8,0.9
	c-0.2,0.4-0.3,0.8-0.3,1.2c0,0.4,0,0.8,0.2,1.1c0.3,0.6,0.8,1.1,1.5,1.2C85.9,147,86.5,146.9,87.1,146.6z M90.1,143.2
	c0.3,0,0.5-0.1,0.7-0.3c0.2-0.1,0.4-0.3,0.5-0.6c0.1-0.2,0.3-0.5,0.3-0.8c0.1-0.6,0.2-1.2,0-1.9c-0.2-0.6-0.7-1.1-1.4-1.3
	c-0.3-0.1-0.7-0.1-1.1-0.1c-0.4,0.1-0.8,0.2-1.1,0.5c-0.3,0.3-0.6,0.6-0.8,0.9c-0.2,0.3-0.3,0.7-0.3,1c-0.1,0.7,0.2,1.3,0.7,1.8
	c0.5,0.5,1.1,0.7,1.7,0.7C89.5,143.2,89.8,143.2,90.1,143.2z M92.8,141.2c0.2,0.2,0.5,0.3,0.7,0.4c0.3,0.1,0.5,0.1,0.8,0.1
	c0.3,0,0.5-0.1,0.7-0.2c0.3-0.1,0.6-0.3,0.8-0.5c0.5-0.4,0.7-1.1,0.7-1.8c0-0.7-0.3-1.3-0.7-1.8c-0.2-0.2-0.5-0.4-0.8-0.5
	c-0.4-0.1-0.8-0.2-1.2-0.1c-0.4,0.1-0.8,0.2-1.2,0.4c-0.3,0.2-0.6,0.5-0.8,0.7c-0.4,0.6-0.4,1.3-0.2,1.9
	C91.9,140.4,92.3,140.8,92.8,141.2z M99,141.6c1.4,0,2.5-1.1,2.5-2.5c0-1.4-1.1-2.5-2.5-2.5c-1.4,0-2.5,1.1-2.5,2.5
	C96.5,140.5,97.6,141.6,99,141.6z M104,141.6c1.4,0,2.5-1.1,2.5-2.5c0-1.4-1.1-2.5-2.5-2.5c-1.4,0-2.5,1.1-2.5,2.5
	C101.5,140.5,102.6,141.6,104,141.6z M108.9,141.6c1.4,0,2.5-1.1,2.5-2.5c0-1.4-1.1-2.5-2.5-2.5s-2.5,1.1-2.5,2.5
	C106.5,140.5,107.6,141.6,108.9,141.6z M113.9,141.6c1.4,0,2.5-1.1,2.5-2.5c0-1.4-1.1-2.5-2.5-2.5c-1.4,0-2.5,1.1-2.5,2.5
	C111.4,140.5,112.5,141.6,113.9,141.6z M118.9,141.6c1.4,0,2.5-1.1,2.5-2.5c0-1.4-1.1-2.5-2.5-2.5c-1.4,0-2.5,1.1-2.5,2.5
	C116.4,140.5,117.5,141.6,118.9,141.6z M123.9,141.6c1.4,0,2.5-1.1,2.5-2.5c0-1.4-1.1-2.5-2.5-2.5c-1.4,0-2.5,1.1-2.5,2.5
	C121.4,140.5,122.5,141.6,123.9,141.6z M128.8,141.6c1.4,0,2.5-1.1,2.5-2.5c0-1.4-1.1-2.5-2.5-2.5c-1.4,0-2.5,1.1-2.5,2.5
	C126.4,140.5,127.5,141.6,128.8,141.6z M133.8,141.6c1.4,0,2.5-1.1,2.5-2.5c0-1.4-1.1-2.5-2.5-2.5c-1.4,0-2.5,1.1-2.5,2.5
	C131.3,140.5,132.4,141.6,133.8,141.6z M138.8,141.6c1.4,0,2.5-1.1,2.5-2.5c0-1.4-1.1-2.5-2.5-2.5c-1.4,0-2.5,1.1-2.5,2.5
	C136.3,140.5,137.4,141.6,138.8,141.6z M143.8,141.6c1.4,0,2.5-1.1,2.5-2.5c0-1.4-1.1-2.5-2.5-2.5c-1.4,0-2.5,1.1-2.5,2.5
	C141.3,140.5,142.4,141.6,143.8,141.6z M148.7,141.6c1.4,0,2.5-1.1,2.5-2.5c0-1.4-1.1-2.5-2.5-2.5c-1.4,0-2.5,1.1-2.5,2.5
	C146.3,140.5,147.4,141.6,148.7,141.6z M153.7,141.6c1.4,0,2.5-1.1,2.5-2.5c0-1.4-1.1-2.5-2.5-2.5c-1.4,0-2.5,1.1-2.5,2.5
	C151.2,140.5,152.3,141.6,153.7,141.6z M158.7,141.6c1.4,0,2.5-1.1,2.5-2.5c0-1.4-1.1-2.5-2.5-2.5c-1.4,0-2.5,1.1-2.5,2.5
	C156.2,140.5,157.3,141.6,158.7,141.6z M163.7,141.6c1.4,0,2.5-1.1,2.5-2.5c0-1.4-1.1-2.5-2.5-2.5c-1.4,0-2.5,1.1-2.5,2.5
	C161.2,140.5,162.3,141.6,163.7,141.6z M168.6,141.6c1.4,0,2.5-1.1,2.5-2.5c0-1.4-1.1-2.5-2.5-2.5c-1.4,0-2.5,1.1-2.5,2.5
	C166.1,140.5,167.3,141.6,168.6,141.6z M173.6,141.6c1.4,0,2.5-1.1,2.5-2.5c0-1.4-1.1-2.5-2.5-2.5c-1.4,0-2.5,1.1-2.5,2.5
	C171.1,140.5,172.2,141.6,173.6,141.6z M177.6,141.4c0.1,0.1,0.3,0.1,0.5,0.1c0.1,0,0.2,0.1,0.4,0.1c0.1,0,0.3,0,0.4,0
	c0.1,0,0.2,0,0.4-0.1c0.2-0.1,0.5-0.2,0.7-0.4c0.5-0.3,0.9-0.9,1.1-1.5c0.2-0.7,0.1-1.3-0.3-1.9c-0.2-0.3-0.5-0.5-0.8-0.7
	c-0.2-0.1-0.4-0.2-0.6-0.2c-0.2,0-0.4-0.1-0.6-0.1c-0.2,0-0.4,0-0.6,0c-0.2,0-0.3,0.1-0.5,0.1c-0.3,0.1-0.6,0.3-0.8,0.5
	c-0.5,0.4-0.7,1.1-0.7,1.8c0,0.7,0.3,1.3,0.7,1.8C177,141.1,177.3,141.2,177.6,141.4z M181.1,141.4c0.1,0.3,0.2,0.5,0.4,0.7
	c0.1,0.1,0.2,0.2,0.3,0.3c0.1,0.1,0.2,0.2,0.3,0.2c0.1,0.1,0.2,0.1,0.4,0.2c0.1,0,0.2,0.1,0.4,0.1c0.3,0,0.6,0,0.8,0
	c0.6-0.1,1.2-0.4,1.7-0.8c0.5-0.5,0.7-1.1,0.6-1.8c0-0.4-0.2-0.7-0.4-1c-0.1-0.2-0.2-0.3-0.4-0.5c-0.2-0.1-0.3-0.3-0.5-0.4
	c-0.2-0.1-0.4-0.2-0.6-0.3c-0.2-0.1-0.4-0.1-0.6-0.1c-0.4-0.1-0.7,0-1.1,0.1c-0.7,0.2-1.1,0.7-1.3,1.4
	C180.8,140.2,180.9,140.9,181.1,141.4z M184.4,144.6c0,0.1,0.1,0.3,0.1,0.4c0,0.1,0.1,0.2,0.2,0.4c0.1,0.1,0.2,0.2,0.2,0.3
	c0.1,0.1,0.2,0.2,0.3,0.3c0.2,0.2,0.5,0.3,0.7,0.4c0.5,0.2,1.2,0.2,1.9,0c0.7-0.2,1.2-0.7,1.4-1.3c0.1-0.3,0.2-0.7,0.1-1.1
	c0-0.2-0.1-0.4-0.1-0.6c-0.1-0.2-0.2-0.4-0.3-0.6c-0.1-0.2-0.2-0.4-0.4-0.5c-0.1-0.1-0.3-0.3-0.5-0.4c-0.3-0.2-0.6-0.4-1-0.4
	c-0.7-0.1-1.3,0.1-1.8,0.6c-0.5,0.5-0.7,1.1-0.8,1.7C184.4,144,184.4,144.3,184.4,144.6z M190.6,148c-0.1-0.2-0.1-0.4-0.2-0.6
	c-0.2-0.3-0.4-0.6-0.7-0.8c-0.6-0.4-1.2-0.5-1.9-0.3c-0.7,0.2-1.2,0.6-1.5,1.1c-0.2,0.2-0.3,0.5-0.4,0.7c0,0.1-0.1,0.2-0.1,0.4
	c0,0.1,0,0.3,0,0.4c0,0.1,0,0.3,0.1,0.4c0,0.1,0.1,0.3,0.1,0.5c0.1,0.3,0.3,0.6,0.5,0.8c0.4,0.5,1.1,0.7,1.8,0.7
	c0.7,0,1.3-0.3,1.8-0.7c0.2-0.2,0.4-0.5,0.5-0.8c0.1-0.2,0.1-0.3,0.1-0.5c0-0.2,0-0.4,0-0.6C190.7,148.4,190.6,148.2,190.6,148z"/>
<path id="text_background" class="rpl14-1" d="M188.2,151.2c0,5.6-4.6,10.2-10.2,10.2h-83c-5.6,0-10.2-4.6-10.2-10.2v-2
	c0-5.6,4.6-10.2,10.2-10.2h83c5.6,0,10.2,4.6,10.2,10.2V151.2z"/>
<g id="balloons">
	<g>
		<path class="st15" d="M190.1,21.6c-1.2-11-8.4-19.2-16.1-18.4c-7.7,0.8-13,10.4-11.8,21.5c1.2,10.7,8,18.7,15.4,18.5
			c-0.1,0.3-0.3,0.6-0.3,1l-0.4,1.9c-0.1,0.8,0,0.8,0.4,0.1c0,0,0.4-0.9,0.5-0.8c0.1,0.1,0.1,0.7,0.1,0.7c0,0.8,0.1,0.9,0.2,0.3
			c0.1-0.6,0.5-0.7,0.8-0.1c0.3,0.6,0.5,0.5,0.4-0.2c-0.1-0.7,0.2-0.8,0.7-0.3c0.5,0.5,0.6,0.4,0.2-0.3l-0.8-1.8
			c-0.1-0.3-0.3-0.5-0.4-0.7C186.3,41.7,191.2,32.3,190.1,21.6z"/>
		<path class="st0" d="M169.6,6.5c-8.5,6.2-5.9,20.3-5.9,20.3l2.9,1.5C166.6,28.4,163.1,13.9,169.6,6.5z"/>
	</g>
	<g>
		<path class="st16" d="M203.2,59.4c1.5-10.1-3.1-19.2-10.1-20.2c-7.1-1-14.1,6.3-15.5,16.4c-1.4,9.8,2.8,18.6,9.5,20.1
			c-0.2,0.2-0.4,0.5-0.5,0.8l-0.8,1.6c-0.3,0.7-0.2,0.8,0.3,0.2c0,0,0.6-0.7,0.7-0.6c0.1,0.1-0.1,0.7-0.1,0.7
			c-0.2,0.7-0.2,0.9,0.1,0.3c0.3-0.5,0.6-0.5,0.7,0.1c0.1,0.6,0.3,0.5,0.4-0.1c0.1-0.6,0.4-0.7,0.7-0.1c0.3,0.6,0.4,0.5,0.3-0.3
			l-0.3-1.8c0-0.3-0.1-0.5-0.2-0.7C195.1,76.5,201.7,69.3,203.2,59.4z"/>
		<path class="st17" d="M188.4,41.1c-9,3.5-10,16.8-10,16.8l2.3,2.1C180.7,60,180.9,46.2,188.4,41.1z"/>
	</g>
	<g>
		<path class="st18" d="M109.2,27.5c2.2-10-1.7-19.3-8.7-20.9C93.4,5.1,86,12,83.8,22c-2.1,9.7,1.5,18.7,8.1,20.7
			c-0.2,0.2-0.4,0.5-0.6,0.7L90.5,45c-0.4,0.6-0.2,0.7,0.3,0.2c0,0,0.6-0.7,0.7-0.5c0.1,0.1-0.1,0.7-0.1,0.7
			c-0.3,0.7-0.2,0.9,0.1,0.4c0.3-0.5,0.6-0.4,0.7,0.2c0.1,0.6,0.3,0.6,0.4-0.1c0.1-0.6,0.4-0.7,0.7-0.1c0.2,0.6,0.4,0.5,0.3-0.2
			l-0.2-1.8c0-0.3-0.1-0.5-0.2-0.7C100,44,107.1,37.2,109.2,27.5z"/>
		<path class="st19" d="M95.7,8.3c-9.2,2.9-11.1,16.1-11.1,16.1l2.1,2.2C86.7,26.6,87.8,12.8,95.7,8.3z"/>
	</g>
	<g>
		<path class="st15" d="M97.2,49.6c-2.5-11-10.8-18.5-18.5-16.8c-7.7,1.7-11.9,12.1-9.5,23.1C71.7,66.6,79.5,74,87,72.8
			c-0.1,0.3-0.2,0.6-0.2,1l-0.1,2c-0.1,0.8,0.1,0.8,0.4,0.1c0,0,0.3-1,0.5-0.9c0.1,0.1,0.2,0.7,0.2,0.7c0.1,0.8,0.2,1,0.3,0.3
			c0.1-0.6,0.4-0.7,0.8-0.2c0.4,0.5,0.5,0.4,0.3-0.3c-0.2-0.7,0.1-0.9,0.6-0.4c0.5,0.5,0.6,0.3,0.2-0.4l-1.1-1.8
			c-0.1-0.2-0.3-0.5-0.5-0.6C95.7,70.4,99.6,60.3,97.2,49.6z"/>
		<path class="st0" d="M74.7,36.7C66.9,43.9,71.1,58,71.1,58l3.2,1.2C74.3,59.2,69,44.9,74.7,36.7z"/>
	</g>
	<g>
		<path class="st20" d="M94.1,84.5C90,75.3,81.5,70.2,75,73.1c-6.4,2.9-8.3,12.6-4.3,21.8c4,8.9,12.1,14,18.5,11.7
			c0,0.3,0,0.6,0,0.9l0.2,1.8c0.1,0.7,0.2,0.7,0.3,0c0,0,0.1-0.9,0.2-0.8c0.1,0.1,0.3,0.6,0.3,0.6c0.2,0.7,0.3,0.8,0.3,0.2
			c0-0.6,0.2-0.7,0.7-0.3c0.4,0.4,0.5,0.3,0.3-0.3c-0.3-0.6,0-0.8,0.5-0.4c0.5,0.3,0.6,0.2,0.1-0.4l-1.2-1.4
			c-0.2-0.2-0.4-0.3-0.5-0.5C96.4,103,98.1,93.5,94.1,84.5z"/>
		<path class="st21" d="M72.2,77.1c-5.6,7.7,0.5,19.2,0.5,19.2l3,0.5C75.7,96.9,68.6,85.3,72.2,77.1z"/>
	</g>
</g>
<path id="ladybug_color" class="rpl28-1" d="M206.4,120.2c-2.2,3.8-6.1,5.5-8.8,4c-2.7-1.6-3.1-5.9-0.9-9.6c2.2-3.8,6.1-5.5,8.8-4
	C208.1,112.2,208.5,116.5,206.4,120.2z M69.4,152.2c-2.3,2.1-1.8,6.4,1.1,9.6c2.9,3.2,7.1,4.1,9.5,2c2.3-2.1,1.8-6.4-1.1-9.6
	C76,151.1,71.7,150.2,69.4,152.2z M153.9,31.8c-2.3,2.1-1.8,6.4,1.1,9.6c2.9,3.2,7.1,4.1,9.5,2c2.3-2.1,1.8-6.4-1.1-9.6
	C160.4,30.6,156.2,29.7,153.9,31.8z"/>
<g id="ladybug">
	<g>
		<circle cx="203.2" cy="117.3" r="0.8"/>
		<circle cx="205.7" cy="117.9" r="0.8"/>
		<circle cx="203.5" cy="120.1" r="0.8"/>
		<circle cx="201.6" cy="122.5" r="0.8"/>
		<circle cx="200.6" cy="115.8" r="0.8"/>
		<circle cx="199" cy="114" r="0.8"/>
		<circle cx="198.1" cy="117" r="0.8"/>
		<circle cx="196.9" cy="119.8" r="0.8"/>
		<path d="M210.6,110c-0.1-0.3-0.4-0.7-0.8-1c-0.4-0.3-1-0.4-1.5-0.3c-0.6,0.1-1.1,0.3-1.4,0.6c-0.4,0.3-0.6,0.7-0.7,1
			c-0.1,0.3-0.1,0.5-0.1,0.7c-0.2-0.1-0.4-0.3-0.6-0.4s-0.4-0.2-0.6-0.3c0.2-0.1,0.3-0.2,0.5-0.4c0.2-0.3,0.4-0.7,0.5-1.1
			c0.1-0.5,0.1-1-0.2-1.5c-0.2-0.5-0.6-1-1-1.2c-0.4-0.2-0.9-0.3-1.3-0.3c-0.4,0-0.6,0.2-0.8,0.3c-0.1,0.1-0.2,0.1-0.2,0.2
			c0,0,0,0,0,0c-0.2,0.3-0.1,0.7,0.2,0.9c0.3,0.2,0.7,0.1,0.9-0.2c0.2-0.3,0.1-0.6-0.1-0.8h0c0.3,0,0.7,0.1,1,0.3
			c0.3,0.2,0.6,0.6,0.8,1c0.2,0.4,0.2,0.9,0.2,1.3c0,0.4-0.2,0.8-0.4,1.1c-0.2,0.2-0.3,0.4-0.5,0.5c-1.3-0.4-2.7-0.2-4.1,0.6
			c0.1,1.8,0.8,3.3,2,4.2c-3,5.1-5.2,6.8-6.6,7.4c0.4,0.8,0.9,1.4,1.7,1.8s1.5,0.6,2.4,0.6c-0.2-1.5,0.2-4.3,3.2-9.4
			c1.4,0.7,3.1,0.5,4.7-0.3c-0.1-1.5-0.6-2.9-1.5-3.8c0-0.2,0.1-0.4,0.2-0.7c0.2-0.3,0.4-0.6,0.7-0.9c0.3-0.2,0.7-0.4,1.2-0.5
			c0.4-0.1,0.9,0,1.2,0.2c0.4,0.2,0.6,0.5,0.8,0.8l0,0c-0.3-0.1-0.6,0-0.8,0.3c-0.2,0.3-0.1,0.7,0.2,0.9c0.3,0.2,0.7,0.1,0.9-0.2
			c0,0,0,0,0,0c0-0.1,0.1-0.2,0.1-0.3C210.8,110.6,210.8,110.3,210.6,110z"/>
		<path d="M73.2,155.9c1-1.1,1.4-2.8,1.1-4.5c-1.5-0.4-3-0.3-4.1,0.3c-0.2-0.1-0.4-0.2-0.6-0.4c-0.2-0.2-0.5-0.6-0.6-0.9
			c-0.1-0.4-0.2-0.8-0.1-1.3c0.1-0.4,0.3-0.8,0.6-1.1c0.3-0.3,0.6-0.4,1-0.5c0,0,0,0,0,0c-0.2,0.2-0.2,0.6,0,0.8
			c0.2,0.3,0.7,0.3,0.9,0s0.3-0.7,0-0.9c0,0,0,0,0,0c0-0.1-0.1-0.1-0.2-0.2c-0.2-0.1-0.5-0.2-0.9-0.1c-0.4,0-0.8,0.2-1.2,0.5
			c-0.4,0.3-0.7,0.8-0.8,1.4c-0.1,0.6,0,1.1,0.2,1.6c0.2,0.4,0.5,0.8,0.8,1c0.2,0.2,0.4,0.3,0.6,0.3c-0.2,0.1-0.4,0.3-0.6,0.4
			s-0.3,0.3-0.5,0.5c0-0.2-0.1-0.4-0.3-0.6c-0.2-0.3-0.5-0.6-0.9-0.9c-0.4-0.2-1-0.4-1.5-0.3c-0.6,0-1.1,0.3-1.4,0.6
			c-0.4,0.3-0.6,0.8-0.6,1.1c-0.1,0.4,0,0.7,0.1,0.9c0,0.1,0.1,0.2,0.1,0.2c0,0,0,0,0,0c0.2,0.3,0.7,0.3,0.9,0
			c0.3-0.2,0.3-0.7,0-0.9c-0.2-0.2-0.6-0.3-0.8-0.1c0,0,0,0,0,0c0.1-0.3,0.3-0.6,0.6-0.9c0.3-0.3,0.7-0.4,1.2-0.5
			c0.4,0,0.9,0.1,1.3,0.2c0.4,0.2,0.7,0.4,0.9,0.7c0.2,0.2,0.3,0.4,0.4,0.6c-0.7,1.1-1,2.5-0.7,4.1c1.7,0.5,3.4,0.3,4.6-0.6
			c3.9,4.4,4.9,7,5,8.5c0.8-0.1,1.6-0.5,2.2-1s1-1.3,1.3-2.1C79.7,161.5,77.2,160.3,73.2,155.9z"/>
		<circle cx="75.2" cy="156.4" r="0.8"/>
		<circle cx="76.4" cy="154.2" r="0.8"/>
		<circle cx="77.9" cy="157" r="0.8"/>
		<circle cx="79.6" cy="159.5" r="0.8"/>
		<circle cx="72.9" cy="158.4" r="0.8"/>
		<circle cx="70.6" cy="159.4" r="0.8"/>
		<circle cx="73.3" cy="161.1" r="0.8"/>
		<circle cx="75.6" cy="163.1" r="0.8"/>
		<path d="M157.7,35.5c1-1.1,1.4-2.8,1.1-4.5c-1.5-0.4-3-0.3-4.1,0.3c-0.2-0.1-0.4-0.2-0.6-0.4c-0.2-0.2-0.5-0.6-0.6-0.9
			c-0.1-0.4-0.2-0.8-0.1-1.3c0.1-0.4,0.3-0.8,0.6-1.1c0.3-0.3,0.6-0.4,1-0.5l0,0c-0.2,0.2-0.2,0.6,0,0.8c0.2,0.3,0.7,0.3,0.9,0
			s0.3-0.7,0-0.9c0,0,0,0,0,0c0-0.1-0.1-0.1-0.2-0.2c-0.2-0.1-0.5-0.2-0.9-0.1c-0.4,0-0.8,0.2-1.2,0.5c-0.4,0.3-0.7,0.8-0.8,1.4
			c-0.1,0.6,0,1.1,0.2,1.6c0.2,0.4,0.5,0.8,0.8,1c0.2,0.2,0.4,0.3,0.6,0.3c-0.2,0.1-0.4,0.3-0.6,0.4s-0.3,0.3-0.5,0.5
			c0-0.2-0.1-0.4-0.3-0.6c-0.2-0.3-0.5-0.6-0.9-0.9c-0.4-0.2-1-0.4-1.5-0.3c-0.6,0-1.1,0.3-1.4,0.6c-0.4,0.3-0.6,0.8-0.6,1.1
			c-0.1,0.4,0,0.7,0.1,0.9c0,0.1,0.1,0.2,0.1,0.2c0,0,0,0,0,0c0.2,0.3,0.7,0.3,0.9,0c0.3-0.2,0.3-0.7,0-0.9
			c-0.2-0.2-0.6-0.3-0.8-0.1l0,0c0.1-0.3,0.3-0.6,0.6-0.9c0.3-0.3,0.7-0.4,1.2-0.5c0.4,0,0.9,0.1,1.3,0.2c0.4,0.2,0.7,0.4,0.9,0.7
			c0.2,0.2,0.3,0.4,0.4,0.6c-0.7,1.1-1,2.5-0.7,4.1c1.7,0.5,3.4,0.3,4.6-0.6c3.9,4.4,4.9,7,5,8.5c0.8-0.1,1.6-0.5,2.2-1
			s1-1.3,1.3-2.1C164.2,41.1,161.6,39.8,157.7,35.5z"/>
		<circle cx="159.6" cy="35.9" r="0.8"/>
		<circle cx="160.9" cy="33.7" r="0.8"/>
		<circle cx="162.3" cy="36.6" r="0.8"/>
		<circle cx="164.1" cy="39" r="0.8"/>
		<circle cx="157.4" cy="37.9" r="0.8"/>
		<circle cx="155.1" cy="38.9" r="0.8"/>
		<circle cx="157.8" cy="40.7" r="0.8"/>
		<circle cx="160" cy="42.7" r="0.8"/>
	</g>
	<g>
		<path class="st22" d="M205.5,112.7c0,0-0.1,0-0.1,0c0.2,0.1,0.2,0.3,0.1,0.5c-0.1,0.2-0.4,0.3-0.6,0.1c-0.1,0-0.1-0.1-0.1-0.1
			c-0.1,0.1-0.1,0.3-0.1,0.4c0,0.6,0.3,1,0.7,1c0.4,0,0.8-0.4,0.8-1C206.3,113.1,205.9,112.7,205.5,112.7z"/>
		<path class="st22" d="M203.6,111.6C203.6,111.6,203.6,111.6,203.6,111.6c-0.3-0.5-0.8-0.5-1.3-0.2c-0.5,0.3-0.7,0.8-0.5,1.2
			c0.2,0.4,0.8,0.4,1.2,0.1c0.1-0.1,0.2-0.2,0.3-0.3c-0.1,0-0.1,0-0.2-0.1c-0.2-0.1-0.3-0.4-0.1-0.6
			C203.2,111.6,203.4,111.6,203.6,111.6z"/>
		<path class="st22" d="M72.6,152.4c-0.5-0.2-1.1,0-1.2,0.4c0,0,0,0.1,0,0.1c0.2-0.1,0.4-0.1,0.5,0.1c0.1,0.2,0.1,0.4,0,0.6
			c0,0-0.1,0.1-0.2,0.1c0.1,0.1,0.2,0.2,0.4,0.2c0.5,0.2,1.1,0,1.2-0.4C73.4,153,73.1,152.6,72.6,152.4z"/>
		<path class="st22" d="M70.5,154.7c0,0.1-0.1,0.1-0.1,0.1c-0.2,0.1-0.4,0.1-0.6,0c-0.1-0.1-0.1-0.4,0-0.5c0,0-0.1,0-0.1,0
			c-0.4,0.1-0.6,0.6-0.5,1.1c0.1,0.5,0.6,0.9,1,0.8c0.4-0.1,0.6-0.6,0.5-1.1C70.7,154.9,70.6,154.8,70.5,154.7z"/>
		<path class="st22" d="M157,31.9c-0.5-0.2-1.1,0-1.2,0.4c0,0,0,0.1,0,0.1c0.2-0.1,0.4-0.1,0.5,0.1c0.1,0.2,0.1,0.4,0,0.6
			c0,0-0.1,0.1-0.2,0.1c0.1,0.1,0.2,0.2,0.4,0.2c0.5,0.2,1.1,0,1.2-0.4C157.9,32.6,157.6,32.1,157,31.9z"/>
		<path class="st22" d="M155,34.2c0,0.1-0.1,0.1-0.1,0.1c-0.2,0.1-0.4,0.1-0.6,0c-0.1-0.1-0.1-0.4,0-0.5c0,0-0.1,0-0.1,0
			c-0.4,0.1-0.6,0.6-0.5,1.1c0.1,0.5,0.6,0.9,1,0.8c0.4-0.1,0.6-0.6,0.5-1.1C155.1,34.5,155.1,34.3,155,34.2z"/>
	</g>
</g>
<rect id="Button_Stripe" y="170.1" class="rpl14-1" width="272.1" height="14.2"/>
<text transform="matrix(1 0 0 1 134.1599 179.5623)" class="st22 st23 st24 svgProduct">Product name</text>
<text id="quantity" transform="matrix(1 0 0 1 6.4882 179.7678)" class="st22 st23 st25">220 ml</text>
<path id="AlpStories_LOGO" d="M139,22.6c0-0.1,0.1-0.2,0.2-0.2h2.4c0.1,0,0.2,0.1,0.2,0.2v2c0,0.1-0.1,0.2-0.2,0.2h-2.4
	c-0.1,0-0.2-0.1-0.2-0.2V22.6z M138.4,22.5v2.2c0,0.4,0.3,0.6,0.7,0.6h2.7c0.4,0,0.7-0.2,0.7-0.6v-2.2c0-0.4-0.3-0.6-0.7-0.6H139
	C138.6,22,138.4,22.1,138.4,22.5 M133.5,22v0.4c0,0,0,0,0,0h1.5c0,0,0,0,0,0v2.8c0,0,0,0,0,0h0.5c0,0,0,0,0,0v-2.8c0,0,0,0,0,0h1.5
	c0,0,0,0,0,0V22c0,0,0,0,0,0L133.5,22C133.5,22,133.5,22,133.5,22 M127.8,24.6v0.2c0,0.4,0.3,0.6,0.7,0.6h1h1.9
	c0.4,0,0.7-0.2,0.7-0.6v-1.2c0-0.4-0.3-0.6-0.7-0.6h-2.6c-0.1,0-0.2-0.1-0.2-0.2V22c0-0.1,0.1-0.2,0.2-0.2h2.4
	c0.1,0,0.2,0.1,0.2,0.2v0.1c0,0,0,0.1,0.1,0.1l0.5-0.1c0,0,0.1,0,0.1-0.1v-0.1c0-0.4-0.3-0.6-0.7-0.6h-2.6c-0.4,0-0.7,0.2-0.7,0.6
	v1.1c0,0.4,0.3,0.6,0.7,0.6h2.6c0.1,0,0.2,0.1,0.2,0.2v1c0,0.1-0.1,0.2-0.2,0.2h-2.7c-0.1,0-0.2-0.1-0.2-0.2v-0.1c0,0,0-0.1-0.1-0.1
	L127.8,24.6C127.9,24.5,127.8,24.5,127.8,24.6 M116.8,25.4C116.9,25.4,116.9,25.3,116.8,25.4l-2.2-4c0,0,0,0-0.1,0h-0.7
	c0,0,0,0-0.1,0l-2.2,4c0,0,0,0,0,0h0.6c0,0,0,0,0.1,0l1.9-3.5c0,0,0,0,0,0c0,0,0,0,0,0h0l1.1,2l-1.7,0c-0.2,0-0.3,0.1-0.3,0.2v0.1
	c0,0.1,0.1,0.2,0.3,0.2l2,0l0.5,1c0,0,0,0,0.1,0H116.8z M121.4,25.3v-0.4c0,0,0,0,0,0h-2.5c0,0,0,0,0,0V22c0,0,0,0,0,0h-0.5
	c0,0,0,0,0,0v3.3c0,0,0,0.1,0.1,0.1L121.4,25.3C121.4,25.4,121.4,25.3,121.4,25.3 M126.3,23.4v-0.9c0-0.4-0.3-0.6-0.7-0.6h-2.8
	c0,0-0.1,0-0.1,0.1v3.3c0,0,0,0,0,0l0.5,0c0,0,0,0,0,0v-2.8c0,0,0,0,0,0h2.1c0.1,0,0.2,0.1,0.2,0.2v0.7c0,0.1-0.1,0.2-0.2,0.2
	l-1.5,0c-0.2,0-0.3,0.1-0.3,0.2v0c0,0.1,0.1,0.2,0.3,0.2l1.7,0C126,24,126.3,23.8,126.3,23.4 M137.1,14.2c0,0-2.2-4.6-2.2-4.6
	c-0.2-0.3-0.4-0.6-0.8-0.6c-0.4,0-0.7,0.1-0.9,0.4c0,0-5.9,8.3-5.9,8.3c-0.1,0.2-0.2,0.4-0.1,0.5c0.1,0.1,0.3,0,0.4-0.2
	c0,0,5.7-7.2,5.7-7.2c0.2-0.2,0.4-0.4,0.6-0.4c0.2,0,0.4,0.2,0.5,0.5c0,0,1.6,3.7,1.6,3.7c0.1,0.3,0.5,0.5,0.7,0.4
	C137.2,14.9,137.3,14.5,137.1,14.2 M143.9,15.7c0.1-0.3,0-0.7-0.2-1c0,0-3.6-4.3-3.6-4.3c-0.1-0.1-0.2-0.3-0.1-0.4
	c0.1-0.2,0.2-0.3,0.4-0.3l2.8-0.5c0.1,0,0.3-0.1,0.2-0.2c0-0.1-0.1-0.2-0.3-0.2L139.3,9c-0.4,0-0.7,0.2-0.8,0.5
	c-0.1,0.3,0,0.6,0.2,0.8c0,0,3.7,4.2,3.7,4.2c0.1,0.2,0.2,0.4,0.1,0.6c-0.1,0.2-0.2,0.3-0.4,0.3c0,0-9.1,2.2-9.1,2.2
	c-0.2,0.1-0.4,0.2-0.4,0.3c0,0.1,0.2,0.2,0.5,0.1c0,0,10.1-1.8,10.1-1.8C143.5,16.2,143.8,16,143.9,15.7 M147.9,25.3
	c0,0,0-0.1,0-0.2c0,0-0.8-0.7-1.2-1.2l0.3,0c0.4,0,0.7-0.2,0.7-0.6v-0.9c0-0.4-0.3-0.6-0.7-0.6h-2.7c0,0-0.1,0-0.1,0.1v3.3
	c0,0,0,0,0,0l0.5,0c0,0,0,0,0,0v-2.8c0,0,0,0,0,0h1.9c0.1,0,0.2,0.1,0.2,0.2v0.7c0,0.1-0.1,0.2-0.2,0.2l-1.4,0
	c-0.2,0-0.3,0.1-0.3,0.2v0c0,0.1,0.1,0.2,0.3,0.2l0.6,0l1.3,1.3c0,0,0.1,0,0.1,0L147.9,25.3C147.9,25.4,147.9,25.3,147.9,25.3
	 M150.1,25.3V22c0,0,0,0,0,0h-0.5c0,0,0,0,0,0v3.3c0,0,0,0,0,0L150.1,25.3C150.1,25.4,150.1,25.3,150.1,25.3 M155.4,25.3v-0.4
	c0,0,0,0,0,0h-2.8c0,0,0,0,0,0v-1l1.3,0c0.2,0,0.3-0.1,0.3-0.2v0c0-0.1-0.1-0.2-0.3-0.2l-1.3,0v-0.8c0,0,0,0,0,0h2.7c0,0,0,0,0,0V22
	c0,0,0,0,0,0H152c0,0-0.1,0-0.1,0.1v3.3c0,0,0,0.1,0.1,0.1L155.4,25.3C155.4,25.4,155.4,25.3,155.4,25.3 M157.3,23.2v-0.5
	c0-0.1,0.1-0.2,0.2-0.2h2c0.1,0,0.2,0.1,0.2,0.2v0.1c0,0,0,0.1,0.1,0.1l0.4-0.1c0,0,0.1,0,0.1-0.1v-0.1c0-0.4-0.3-0.6-0.7-0.6h-2.1
	c-0.4,0-0.7,0.2-0.7,0.6v0.7c0,0.4,0.3,0.6,0.7,0.6h2.2c0.1,0,0.2,0.1,0.2,0.2v0.7c0,0.1-0.1,0.2-0.2,0.2h-2.2
	c-0.1,0-0.2-0.1-0.2-0.2v-0.2c0,0,0-0.1-0.1-0.1l-0.4,0.1c0,0-0.1,0-0.1,0.1v0.2c0,0.4,0.3,0.6,0.7,0.6h0.7h1.6
	c0.4,0,0.7-0.2,0.7-0.6v-0.9c0-0.4-0.3-0.6-0.7-0.6h-2.2C157.4,23.3,157.3,23.3,157.3,23.2"/>
<text id="text1" transform="matrix(1 0 0 1 135.216 146.7536)" class="st22 st23 st25 editable">Happy birthday!</text>
<text id="text2" transform="matrix(1 0 0 1 135.2156 157.6868)" class="st22 st23 st25 editable">My little daughter!</text>
<g>
	
		<image style="overflow:visible;" class="st29" width="28" height="28" id="Icon1" transform="matrix(0.3165 0 0 0.3165 258.8343 172.7338)">
	</image>
	
		<image style="overflow:visible;" class="st29" width="28" height="28" id="Icon2" transform="matrix(0.3165 0 0 0.3165 247.7474 172.7338)">
	</image>
	
		<image style="overflow:visible;" class="st29" width="28" height="28" id="Icon3" transform="matrix(0.3165 0 0 0.3165 236.6604 172.7338)">
	</image>
	
		<image style="overflow:visible;" class="st29" width="28" height="28" id="Icon4" transform="matrix(0.3165 0 0 0.3165 214.4865 172.7338)">
	</image>
	
		<image style="overflow:visible;" class="st29" width="28" height="28" id="Icon5" transform="matrix(0.3165 0 0 0.3165 225.5735 172.7338)">
	</image>
</g>
</svg>
