<?xml version="1.0" encoding="utf-8"?>
<svg version="1.1" id="Layer_1" data-color-numbers="0" xmlns="http://www.w3.org/2000/svg" xmlns:xlink="http://www.w3.org/1999/xlink" x="0px" y="0px"
	 viewBox="0 0 428 351.5" style="enable-background:new 0 0 428 351.5;" xml:space="preserve">
<style type="text/css">
	.st0{fill:#0055B8;}
	.st1{fill:#FFFFFF;}
	.st2{font-family:'Foglihten';}
	.st3{font-size:11.1271px;}
	.st4{font-size:13.9089px;}
	.svgRibbon{opacity:1;fill:#FFFFFF;}
</style>
<g>
	<rect x="0.2" y="332.1" class="st0" width="427.9" height="19.4"/>
	<g>
		<path class="st0" d="M137.6,253.4c-1.2,3.7-3.1,7.6-5.2,11.2c-2.1-3.6-3.9-7.5-5.2-11.2h-8c2.1,5.9,6.3,12.9,9.6,16.9v11.3h7
			v-11.3c3.3-4,7.5-11,9.6-16.9H137.6"/>
		<path class="st0" d="M152.1,253.4c-3.5,7-7.7,19-9.9,28.2h7.5c0.3-1.5,0.7-3,1.1-4.7h9.9c0.4,1.7,0.8,3.2,1.1,4.7h7.5
			c-2.1-9.2-6.3-21.1-9.9-28.2H152.1 M152.4,271.3c1-3.6,2.2-7.3,3.4-10.7c1.2,3.4,2.4,7.1,3.4,10.7H152.4z"/>
		<path class="st0" d="M186.6,266.6c-3.3-1.4-4.9-2.1-6.6-2.8c-1.6-0.7-2.3-1.2-2.3-2.3c0-1.4,0.5-2,1.6-2.1c2.1-0.2,6.6,0,10.8,0.9
			l0-6.2c-2.8-0.6-6.6-0.8-9.4-0.8c-1.4,0-3.3,0.1-4.7,0.3c-3.8,0.6-5.6,2.9-5.6,7.6c0,3.3,1.2,5.9,4.5,7.3c2.8,1.2,4.9,2.1,6.6,2.8
			c1.6,0.7,2.3,1.2,2.3,2.3c0,1.4-0.5,2-1.6,2.1c-1.9,0.2-6.5,0-10.8-0.9v6.2c2.8,0.6,6.6,0.8,9.4,0.8c1.4,0,3.3-0.1,4.7-0.4
			c3.8-0.6,5.6-2.8,5.6-7.6C191.1,270.1,189.9,268,186.6,266.6"/>
		<path class="st0" d="M234.5,253.4H227c-3.2,6.4-7,16.8-9.2,25.6c-2.5-4.9-6.2-10.4-8.4-12.8c2.3-2.3,6.8-8.1,9.4-12.8h-8.2
			c-2.8,4.9-6.6,9.6-8.2,11.3v-11.3h-7v28.2h7v-14.1c2.8,3.3,6.3,9.4,8.4,14.1h13.8c0.3-1.5,0.7-3,1.1-4.7h9.9
			c0.4,1.7,0.8,3.2,1.1,4.7h7.5C242.2,272.4,238,260.5,234.5,253.4z M227.3,271.3c1-3.6,2.2-7.3,3.4-10.7c1.2,3.4,2.4,7.1,3.4,10.7
			H227.3z"/>
		<path class="st0" d="M274.2,253.4c-1.1,5.8-2.6,12.8-4.2,19.1c-1.7-6.3-3.4-13.4-4.4-19.1h-6.8c-1.1,5.7-2.7,12.7-4.4,19.1
			c-1.6-6.3-3.2-13.3-4.3-19.1h-7.5c1.9,8.4,5.4,20.7,8,28.2h7.7c1.2-4.2,2.6-9.8,3.9-15.4c1.3,5.6,2.7,11.2,3.9,15.4h7.7
			c2.6-7.5,6.1-19.7,8-28.2H274.2"/>
		<path class="st0" d="M299.5,281.6h7.5c-2.1-9.2-6.3-21.1-9.9-28.2h-7.5c-3.5,7-7.7,19-9.9,28.2h7.5c0.3-1.5,0.7-3,1.1-4.7h9.9
			C298.8,278.5,299.2,280.1,299.5,281.6 M290,271.3c1-3.6,2.2-7.3,3.4-10.7c1.2,3.4,2.4,7.1,3.4,10.7H290z"/>
	</g>
	<g>
		<rect x="107.5" y="75.4" class="st1" width="211.6" height="177.1"/>
		<path class="st0" d="M123,236.4l-2,6.3h-3.7l6.8-21.3h3.7l6.8,21.3h-3.7l-2-6.3H123z M128.1,233.7l-2.1-6.6l-2.1,6.6H128.1z"/>
		<path class="st0" d="M160.9,229.6v13.1h-3.5v-21.3h3.5l7.6,13.2v-13.2h3.5l0,21.3l-3.5,0L160.9,229.6z"/>
		<path class="st0" d="M141.6,229.6v13.1h-3.5v-21.3h3.5l7.6,13.2v-13.2h3.5l0,21.3l-3.5,0L141.6,229.6z"/>
		<path class="st0" d="M180.3,221.4l0,21.3h-3.5v-21.3H180.3z"/>
		<path class="st0" d="M192.6,237l4.9-15.6h3.7l-6.8,21.3h-3.7l-6.8-21.3h3.7L192.6,237z"/>
		<path class="st0" d="M218.6,221.4v3.2l-10.3,0v5.9h10.1v3.1h-10.1v5.9h10.3v3.1h-13.8v-21.3L218.6,221.4z"/>
		<path class="st0" d="M230,233.8h-3.3l0,8.9h-3.5v-21.4h11.3l2.8,3.2v5.8l-3.5,3.4l3.5,9h-3.7L230,233.8z M232.3,230.5l1.4-1.4V226
			l-1.7-1.7h-5.3v6.2H232.3z"/>
		<path class="st0" d="M254.8,239.6l-2.6,3.1H245l-3.4-3.9v-2.4h3.4v1.2l1.9,2h3.6l1.3-1.6v-3l-1.7-1.5h-5l-3.1-2.8l-0.1-0.1
			l-0.1-0.1v-6.2l2.6-3.1h7.2l3.4,3.9v2.4h-3.3v-1.2l-1.8-2H246l-1.3,1.6v3l1.7,1.5h5.4l2.8,2.8l0.1,0.1l0.1,0.1V239.6z"/>
		<path class="st0" d="M263.1,236.4l-2,6.3h-3.7l6.8-21.3h3.7l6.8,21.3H271l-2-6.3H263.1z M268.2,233.7l-2.1-6.6l-2.1,6.6H268.2z"/>
		<path class="st0" d="M284.4,233.8h-3.3l0,8.9h-3.5v-21.4H289l2.8,3.2v5.8l-3.6,3.4l3.5,9H288L284.4,233.8z M286.8,230.5l1.4-1.4
			V226l-1.7-1.7h-5.3v6.2H286.8z"/>
		<path class="st0" d="M302.1,228.4l4.1-7h4l-6.3,10.5l0,10.9h-3.5l0-10.9l-6.4-10.5h4.3L302.1,228.4z"/>
		<g>
			<path class="st0" d="M277.4,175.9v5.2h-9.1l0,31.3h-6v-31.3H253v-5.2H277.4z"/>
			<path class="st0" d="M290.6,196.9v15.5h-6v-36.6h6v15.6h12.6v-15.6h6.1v36.6l-6.1,0v-15.5H290.6z"/>
		</g>
		<path class="st0" d="M142.7,202.8v9.5h-21.2v-9.5h5.8v-37.2l-2.6,3h-7.3l10-14.8h9.4v49L142.7,202.8z"/>
		<path class="st0" d="M183.1,153.8h-21.7l-9,8.8v39.2l9.2,10.4H183l9.2-10.4v-39.2L183.1,153.8z M182.7,198.3l-4,4.5h-12.8l-4-4.5
			v-31.7l3.4-3.3h13.9l3.4,3.3V198.3z"/>
		<path class="st0" d="M231.6,149.6h-21.7l-9,8.8v39.2l9.2,10.4h21.3l9.2-10.4v-39.2L231.6,149.6z M231.1,194l-4,4.5h-12.8l-4-4.5
			v-31.7l3.4-3.3h13.9l3.4,3.3V194z"/>
		<g>
			<path class="st0" d="M242.4,87.8c4.1-3.7,10.5-3.4,14.2,0.8c1.5,1.6,2.4,3.7,2.5,5.9c0,0.5,0.2,1,0.6,1.3l6.7,7.5
				c0.8,0.9,0.8,2.4-0.2,3.2l-7.9,7.1c-0.9,0.8-2.4,0.8-3.2-0.2l-6.7-7.5c-0.3-0.4-0.8-0.6-1.3-0.7c-2.2-0.4-4.1-1.5-5.6-3.2
				C237.9,97.9,238.2,91.6,242.4,87.8z"/>
			<path class="st0" d="M275.1,135.1l10.9-9.8c0.2-0.2,0.5-0.4,0.8-0.6L274,110.6l-5.8-2.3c-0.1,0.1-0.1,0.2-0.2,0.2l-7.9,7.1
				c-0.1,0-0.1,0.1-0.2,0.1l1.7,6l12.8,14.1C274.6,135.5,274.9,135.3,275.1,135.1z"/>
			<path class="st0" d="M233.8,113.2l8-7.4c-0.7-0.5-1.4-1.1-2.1-1.8c-1.1-1.2-1.9-2.6-2.5-4.1l-8.5,7.8l-0.1-0.1
				c-0.6-0.7-1.6-0.7-2.3-0.1l-5.4,4.9c-0.3,0.2-0.6,0.4-1,0.4c-1.6,0.1-3.1,0.8-4.2,1.8c-3,2.7-3.2,7.3-0.5,10.3
				c2.7,3,7.3,3.2,10.3,0.5c1.2-1.1,2-2.5,2.3-4c0.1-0.3,0.2-0.7,0.5-0.9l5.4-4.9C234.3,114.9,234.4,113.9,233.8,113.2L233.8,113.2z
				"/>
			<g>
				<path class="st0" d="M297,142.4c-3.4,0-6.2,2.8-6.2,6.2c0,3.4,2.8,6.2,6.2,6.2c3.4,0,6.2-2.8,6.2-6.2
					C303.2,145.2,300.4,142.4,297,142.4z"/>
				<path class="st0" d="M307.5,139.2c-2.1-2.3-4.8-3.8-7.8-4.4c-0.7-0.1-1.3-0.5-1.8-1l-5.6-6.4c-1.2-1.3-3.2-1.4-4.5-0.2
					l-10.9,9.8c-1.3,1.2-1.4,3.2-0.2,4.5l5.6,6.4c0.5,0.5,0.7,1.2,0.8,1.9c0.3,3.1,1.5,5.9,3.5,8.2c5.2,5.8,14,6.2,19.8,1.1
					C312.1,153.9,312.6,145,307.5,139.2z M297,157.6c-5,0-9-4-9-9c0-5,4-9,9-9c5,0,9,4,9,9C306,153.6,302,157.6,297,157.6z"/>
			</g>
			<path class="st0" d="M297,165.3c-4.9,0-9.3-2.1-12.3-5.4v12.5h24.6v-12.5C306.2,163.2,301.8,165.3,297,165.3z"/>
			<path class="st0" d="M205.2,150.1l12.9-12.8h5.3l12.9,12.8l-1.2,1.2l2.6,2.5l3.7-3.7l-12.9-12.8v-4.5h-1.6v-4.9
				c-1.7,1.3-3.8,2.1-6.1,2.1c-2.3,0-4.4-0.8-6.1-2.1v4.9h-1.6v4.5L200,150l3.8,3.8l2.6-2.5L205.2,150.1z"/>
		</g>
	</g>
	<text transform="matrix(1 0 0 1 161.1411 346.4727)" class="st1 st2 st3">Body milk  Ginkgo</text>
	<g>
		<text transform="matrix(1 0 0 1 5.9414 347.6895)" class="st1 st2 st4">220 ml</text>
	</g>
	<path class="st1" d="M408.4,338.9c-0.2,0.1-0.5,0-0.5-0.2c0-0.2,0.1-0.4,0.4-0.4c0.2-0.1,0.5,0,0.5,0.2
		C408.8,338.6,408.6,338.8,408.4,338.9 M417.8,344.5c0.5-0.5,0-2.1-1.2-3.2c-1.5-1.3-5-1.8-5-1.8c0.1-0.1,0.1-0.5,0.1-0.5
		c6.4,0.4,6-0.9,5.3-1.3c-1.1-0.6-4-0.6-4-0.6c3.5-0.7,4.4-2.3,1.2-2.2c-3.8,0.1-5,2.2-5,2.2c-2,0-3.3,1-3.6,2.3
		c-0.2,1.2,1.1,2,2.5,1.9c-0.3,0.5-0.1,1.1-0.1,1.1c-1.6,0.5-2,1.9-1.2,2.6c0.9,0.9,2.3-0.2,2.3-0.2c0.6,0.9,1.8,1.3,1.8,1.3
		c0.4-0.2,1-0.3,1.4-0.4c0.2,0,0.1-0.2,0.1-0.2c-0.1-0.2-0.6-1.3,0.2-2.2c0.8-0.9,2-0.6,2.2-0.5c0.2,0.1,0.2,0.4-0.2,0.3
		c-0.1,0-1.1-0.4-1.8,0.4c-0.7,0.9,0.1,2.1,0.3,2.2c0.2,0.2-0.1,0.2-0.1,0.2c-2.7,0.1-3.6,1.6-1.7,1.8c1.8,0.2,3,0.2,4,0.1
		c1.6-0.2,0.8-1.1,0.8-1.1c0.9-0.2,1-0.8,1-0.8c0.7,1,2.2,1.1,2.6,0.1C420.3,345,419.3,344,417.8,344.5"/>
	<path class="st1" d="M399.5,341.8c0-3.6-2.9-6.6-6.6-6.6c-3.6,0-6.6,2.9-6.6,6.6c0,1.4,0.4,2.7,1.2,3.8c0,0,0.1,0,0-0.1
		c-0.7-1.1-1.1-2.3-1.1-3.7c0-3.6,2.9-6.4,6.5-6.4c1.6,0.1,2.9,0.7,3.8,1.6c1,1,1.5,2.3,1.5,3.8c0,3-2.4,5.4-5.4,5.4v1.5
		c-0.8-0.3-1.6-0.7-2.2-1.3c0,0,0,0,0,0c0,0-0.1-0.1-0.1-0.1c0,0,0,0,0,0c0,0-0.1-0.1-0.1-0.1c0,0,0,0,0,0c0,0-0.1-0.1-0.1-0.1
		c0,0,0,0,0,0c0,0-0.1-0.1-0.1-0.1c0,0,0,0,0,0c0,0-0.1-0.1-0.1-0.1c0,0,0,0,0,0c0,0,0-0.1-0.1-0.1c0,0,0,0,0,0c0,0,0-0.1-0.1-0.1
		c0,0,0,0,0,0c0,0,0-0.1-0.1-0.1c0,0,0,0,0,0c0,0,0-0.1-0.1-0.1c0,0,0,0,0,0c0,0,0-0.1,0-0.1c0,0,0,0,0-0.1c0,0,0-0.1,0-0.1
		c0,0,0,0,0-0.1c0,0,0,0,0-0.1c0,0,0,0,0-0.1c0,0,0,0,0-0.1c0,0,0-0.1,0-0.1c0,0,0,0,0-0.1c0-0.1,0-0.1-0.1-0.1c0,0,0-0.1,0.1-0.1
		c0,0,0,0,0-0.1c0,0,0-0.1,0-0.1c0,0,0,0,0-0.1c0,0,0,0,0-0.1c0,0,0-0.1,0-0.1c0,0,0,0,0-0.1c0,0,0-0.1,0-0.1c0,0,0,0,0-0.1
		c0,0,0-0.1,0-0.1c0,0,0,0,0,0c0,0,0-0.1,0.1-0.1c0,0,0,0,0,0c0,0,0-0.1,0.1-0.1c0,0,0,0,0,0c0,0,0-0.1,0.1-0.1c0,0,0,0,0,0
		c0,0,0-0.1,0.1-0.1c0,0,0,0,0,0c0,0,0-0.1,0.1-0.1c0,0,0,0,0,0c0,0,0.1-0.1,0.1-0.1c0,0,0,0,0,0c0,0,0.1-0.1,0.1-0.1c0,0,0,0,0,0
		c0,0,0.1-0.1,0.1-0.1c0,0,0,0,0,0c0,0,0.1-0.1,0.1-0.1c0,0,0,0,0,0c0.6-0.6,1.4-1.1,2.2-1.3v1.5c1.3-0.4,2.3-1.3,3-2.4c0,0,0,0,0,0
		c0,0,0-0.1,0.1-0.1c0,0,0,0,0-0.1c0,0,0-0.1,0-0.1c0,0,0,0,0-0.1c0,0,0-0.1,0-0.1c0,0,0,0,0-0.1c0,0,0,0,0-0.1c0,0,0-0.1,0-0.1
		c0,0,0,0,0-0.1c0,0,0-0.1,0.1-0.1c-0.6-1.5-1.8-2.8-3.4-3.3c0,0,0,0,0,0v0v1.5c-3,0-5.4,2.4-5.4,5.4c0,3,2.4,5.4,5.4,5.4
		c0,0,0,0,0,0c3.6,0,6.6-2.9,6.6-6.6v0V341.8"/>
	<path class="st1" d="M374.7,348.9c0,0,0,0.2,0.1,0.2h0.8c0,0,0.2,0,0.2-0.2l1.5-5.3l0.5,5.3c0,0,0,0.2,0.2,0.2h0.7
		c0,0,0.2,0,0.2-0.2l0.4-7.5c0,0,0-0.2-0.2-0.2h-1.3h-0.5H376c0,0-0.2,0-0.2,0.2L374.7,348.9z M372.7,342.6l-0.4,4.8
		c0,0.2-0.3,0.2-0.3,0.2h-2.6c-0.2,0-0.3-0.2-0.3-0.2l-0.4-4.8c0-0.2,0.2-0.2,0.2-0.2h3.4C372.7,342.3,372.7,342.6,372.7,342.6
		 M373.1,342.1h-4.5c0,0-0.3,0-0.3,0.3l0.5,6.3c0,0,0,0.3,0.3,0.3h3.4c0,0,0.3,0,0.3-0.3l0.5-6.3
		C373.4,342.4,373.5,342.1,373.1,342.1 M369.4,339.5c0.2,0.9-0.4,1.1-0.4,1.4c0.3,0.3,1.7,0.1,1.9,0.2c-0.4-0.9,0.5-1.1,0.4-1.4
		C370.8,339.8,370.2,339.8,369.4,339.5 M377,335.4c0-0.7-0.5-1.2-1.2-1.2c-0.7,0-1.2,0.5-1.2,1.2c0,0.7,0.5,1.2,1.2,1.2
		C376.5,336.6,377,336.1,377,335.4 M379.2,340.7l-1.4-3.3c0,0-0.1-0.2-0.3-0.2h-7.6c0,0-0.1,0-0.1,0.1v0.6c0,0,0,0.1,0.1,0.1
		l4.8,0.4l1,2.3c0,0,0.1,0.2,0.3,0.2h3C379.1,340.9,379.3,340.9,379.2,340.7"/>
	<path class="st1" d="M59.6,334.5C59.6,334.5,59.6,334.5,59.6,334.5c-0.4,0.3-1.7,1.3-4.6,2.6c-2.8,1.3-4.4,1.7-4.9,1.8c0,0,0,0,0,0
		c-0.2,0.1-0.4,0-0.4,0c0-0.1,0.1-0.2,0.3-0.4c0,0,0,0,0,0c0.5-0.3,1.8-1.3,4.5-2.6c2.6-1.2,4.2-1.6,4.8-1.8c0.3-0.1,0.5-0.1,0.5,0
		C59.9,334.2,59.8,334.3,59.6,334.5 M61.1,335.4l-0.8-1.7c0,0-0.1-0.2-0.4-0.1c0,0-2.2,0.4-5.6,2c-3.5,1.6-5.1,3-5.1,3
		s-0.2,0.2-0.1,0.3l0.8,1.7c0,0,0.1,0.2,0.4,0.1c0,0,2.1-0.4,5.6-2c3.5-1.6,5.1-2.9,5.1-2.9S61.2,335.5,61.1,335.4 M54.6,345.7
		c-0.1,0-0.1,0.1-0.1,0.1c0,0.2,0,0.4,0,0.6c0,0.2,0.1,0.3,0.1,0.4c0,0.1,0.1,0.2,0.2,0.2c0.1,0,0.2,0.1,0.3,0.1
		c0.1,0,0.2,0,0.3-0.1c0.1,0,0.1-0.1,0.2-0.2c0-0.1,0.1-0.2,0.1-0.2c0-0.1,0-0.2,0-0.3c0-0.1,0-0.2,0-0.3c0-0.1-0.1-0.2-0.1-0.2
		c0-0.1-0.1-0.1-0.2-0.1c-0.1,0-0.2,0-0.3,0c-0.1,0-0.1,0-0.2,0c-0.1,0-0.1,0-0.2,0C54.7,345.6,54.7,345.7,54.6,345.7 M63.5,341.6
		c0,0.1-0.1,0.2-0.3,0.3c-0.6,0.2-2.2,0.7-5.3,0.7c-3.2,0-4.8-0.5-5.3-0.7c-0.2-0.1-0.3-0.2-0.3-0.3c0-0.1,0.1-0.2,0.3-0.3
		c0,0,0.1,0,0.1,0c0.6-0.2,2.1-0.6,4.9-0.6c0.1,0,0.2,0,0.3,0c0.1,0,0.2,0,0.3,0c2.8,0,4.3,0.4,4.9,0.6c0,0,0.1,0,0.1,0
		C63.4,341.4,63.5,341.5,63.5,341.6 M53.6,345.6c0-0.2,0-0.3,0-0.5c0-0.2,0-0.4,0.1-0.5c0-0.2,0.1-0.3,0.2-0.5
		c0.1-0.2,0.2-0.3,0.3-0.4c0.1-0.1,0.3-0.2,0.5-0.3c0.2-0.1,0.4-0.1,0.7-0.1c0.1,0,0.2,0,0.3,0c0.1,0,0.2,0,0.2,0
		c0.1,0,0.1,0,0.2,0.1c0.1,0,0.1,0,0.1,0c0,0,0,0,0,0c0,0,0,0,0,0.1c0,0,0,0,0,0.1c0,0,0,0.1,0,0.1c0,0.1,0,0.1,0,0.2
		c0,0,0,0.1,0,0.1c0,0,0,0,0,0.1c0,0,0,0-0.1,0c0,0-0.1,0-0.1,0c0,0-0.1,0-0.2,0c-0.1,0-0.1,0-0.2,0c-0.1,0-0.2,0-0.3,0
		c-0.2,0-0.3,0-0.4,0.1c-0.1,0.1-0.2,0.2-0.3,0.3c-0.1,0.1-0.1,0.2-0.2,0.4c0,0.2-0.1,0.3-0.1,0.5c0,0,0.1-0.1,0.2-0.1
		c0.1,0,0.1-0.1,0.2-0.1c0.1,0,0.2,0,0.2-0.1c0.1,0,0.2,0,0.3,0c0.2,0,0.4,0,0.6,0.1c0.2,0.1,0.3,0.1,0.4,0.3
		c0.1,0.1,0.2,0.2,0.2,0.4c0,0.2,0.1,0.3,0.1,0.5c0,0.2,0,0.4-0.1,0.6c-0.1,0.2-0.2,0.3-0.3,0.5c-0.1,0.1-0.3,0.2-0.5,0.3
		c-0.2,0.1-0.4,0.1-0.6,0.1c-0.2,0-0.4,0-0.5-0.1c-0.1,0-0.3-0.1-0.4-0.2c-0.1-0.1-0.2-0.2-0.3-0.3c-0.1-0.1-0.1-0.3-0.2-0.4
		c0-0.1-0.1-0.3-0.1-0.5C53.6,346,53.6,345.8,53.6,345.6 M58.6,344.4c0-0.1,0-0.2,0.1-0.2c0,0,0.1-0.1,0.2-0.1h0.5
		c0.1,0,0.2,0,0.2,0c0.1,0,0.1,0,0.2,0.1c0,0,0.1,0.1,0.1,0.1c0,0.1,0.1,0.1,0.1,0.2l0.6,1.9h0l0.6-1.8c0-0.1,0-0.2,0.1-0.2
		c0-0.1,0.1-0.1,0.1-0.2c0,0,0.1-0.1,0.1-0.1c0.1,0,0.1,0,0.2,0h0.5c0.1,0,0.1,0,0.2,0.1c0,0,0.1,0.1,0.1,0.2v3.1c0,0,0,0,0,0.1
		c0,0,0,0-0.1,0c0,0-0.1,0-0.1,0c0,0-0.1,0-0.2,0c-0.1,0-0.1,0-0.2,0c0,0-0.1,0-0.1,0c0,0,0,0-0.1,0c0,0,0,0,0-0.1v-2.7h0l-0.8,2.7
		c0,0,0,0.1-0.1,0.1c-0.1,0-0.1,0-0.3,0c-0.1,0-0.1,0-0.2,0c0,0-0.1,0-0.1,0c0,0,0,0-0.1,0c0,0,0,0,0,0l-0.8-2.7h0v2.7
		c0,0,0,0,0,0.1c0,0,0,0,0,0c0,0-0.1,0-0.1,0c0,0-0.1,0-0.2,0c-0.1,0-0.1,0-0.2,0c0,0-0.1,0-0.1,0c0,0,0,0-0.1,0c0,0,0,0,0-0.1
		V344.4z M64.1,341.6c0-0.2-0.1-0.5-0.3-0.6c-0.1,0-2.1-0.9-5.9-0.9h0h0c0,0,0,0,0,0c-3.8,0-5.8,0.9-5.9,0.9
		c-0.2,0.1-0.3,0.4-0.3,0.6c0,0,0,0.1,0,0.3c0,0,0,5.6,0,5.6c0,0.1,0,0.2,0.1,0.2c0.1,0.1,0.2,0.2,0.2,0.2s2,0.8,5.9,0.8
		c3.9,0,5.9-0.8,5.9-0.8s0.1-0.1,0.2-0.2c0-0.1,0.1-0.1,0.1-0.2C64.1,347.5,64.1,341.6,64.1,341.6"/>
	<g>
		<path d="M219.3,36.4c0-0.2,0.2-0.4,0.5-0.4h5.3c0.3,0,0.5,0.2,0.5,0.4V41c0,0.2-0.2,0.4-0.5,0.4h-5.3c-0.3,0-0.5-0.2-0.5-0.4V36.4
			z M217.9,36.2v5c0,0.9,0.6,1.3,1.5,1.3h5.9c0.9,0,1.5-0.4,1.5-1.3v-5c0-0.9-0.6-1.3-1.5-1.3h-5.9
			C218.5,34.9,217.9,35.2,217.9,36.2 M207.2,34.9v1c0,0,0,0.1,0.1,0.1h3.3c0,0,0.1,0,0.1,0.1v6.3c0,0,0,0.1,0.1,0.1h1.2
			c0,0,0.1,0,0.1-0.1v-6.3c0,0,0-0.1,0.1-0.1h3.3c0,0,0.1,0,0.1-0.1v-1c0,0,0-0.1-0.1-0.1L207.2,34.9
			C207.2,34.9,207.2,34.9,207.2,34.9 M194.8,40.7v0.5c0,0.9,0.6,1.3,1.5,1.3h2.2h4.3c0.9,0,1.5-0.4,1.5-1.3v-2.7
			c0-0.9-0.6-1.4-1.5-1.4h-5.9c-0.3,0-0.5-0.1-0.5-0.4v-1.8c0-0.2,0.2-0.4,0.5-0.4h5.3c0.3,0,0.5,0.2,0.5,0.4v0.2
			c0,0.1,0.1,0.2,0.2,0.2l1.1-0.2c0.1,0,0.2-0.1,0.2-0.2v-0.3c0-0.9-0.6-1.3-1.5-1.3h-5.9c-0.9,0-1.5,0.4-1.5,1.3V37
			c0,0.9,0.6,1.3,1.5,1.3h5.9c0.3,0,0.5,0.2,0.5,0.4v2.2c0,0.2-0.2,0.4-0.5,0.4h-6c-0.3,0-0.5-0.2-0.5-0.4v-0.3
			c0-0.1-0.1-0.1-0.2-0.1l-1.1,0.1C194.8,40.6,194.8,40.7,194.8,40.7 M171,42.5C171,42.5,171,42.5,171,42.5l-4.8-9.1
			c0,0-0.1-0.1-0.1-0.1h-1.7c0,0-0.1,0-0.1,0.1l-4.9,9c0,0,0,0.1,0,0.1h1.4c0,0,0.1,0,0.1-0.1l4.2-7.8h0c0,0,0,0,0.1,0
			c0,0,0.1,0,0.1,0h0l2.4,4.4l-3.8,0.1c-0.4,0-0.6,0.2-0.6,0.5v0.2c0,0.2,0.2,0.5,0.6,0.5l4.4,0.1l1.2,2.2c0,0,0.1,0.1,0.1,0.1H171z
			 M181,42.4v-1c0,0,0-0.1-0.1-0.1h-5.7c0,0-0.1,0-0.1-0.1v-6.3c0,0,0-0.1-0.1-0.1h-1.2c0,0-0.1,0-0.1,0.1v7.4
			c0,0.1,0.1,0.1,0.2,0.1L181,42.4C181,42.5,181,42.5,181,42.4 M191.6,38.1v-2c0-0.9-0.6-1.3-1.5-1.3h-6.3c-0.1,0-0.2,0.1-0.2,0.2
			v7.4c0,0,0,0.1,0.1,0.1h1.2c0,0,0.1,0,0.1-0.1v-6.3c0,0,0-0.1,0.1-0.1h4.7c0.3,0,0.5,0.2,0.5,0.4v1.5c0,0.2-0.2,0.4-0.5,0.4
			l-3.4,0.1c-0.4,0-0.6,0.2-0.6,0.5v0.1c0,0.2,0.2,0.5,0.6,0.5l3.7,0.1C191,39.4,191.6,39.1,191.6,38.1 M217,17.4
			c0-0.2,0-0.5-0.2-0.8c0,0-4.9-10.4-4.9-10.4c-0.2-0.4-0.4-0.6-0.6-0.9c-0.3-0.3-0.7-0.5-1.2-0.5c-0.4,0-0.8,0.1-1.2,0.2
			c-0.3,0.1-0.6,0.4-0.8,0.6c0,0-14.3,18-14.3,18.1c-0.1,0.1-0.2,0.3-0.3,0.4c-0.1,0.2,0,0.5,0.1,0.6c0.1,0.1,0.3,0.1,0.6,0
			c0.2-0.1,0.4-0.4,0.4-0.4l13.9-15.8c0,0,0.3-0.4,0.6-0.5c0.3-0.2,0.5-0.2,0.8-0.2c0.3,0,0.6,0.2,0.8,0.5c0.1,0.1,0.3,0.4,0.3,0.6
			c0.5,1.2,3.2,7.3,3.8,8.6c0.1,0.3,0.3,0.5,0.4,0.6c0.3,0.3,0.7,0.3,1.1,0.1C216.7,18,216.9,17.7,217,17.4 M231.8,19.9
			c0.3-0.8,0.1-1.6-0.5-2.2c0,0-8.1-9.7-8.1-9.7c-0.1-0.1-0.1-0.2-0.2-0.2c-0.1-0.2-0.1-0.5-0.1-0.8c0.1-0.2,0.3-0.5,0.5-0.6
			c0.1,0,0.3-0.1,0.4-0.1l6.4-1.1c0.1,0,0.2,0,0.3-0.1c0.2-0.1,0.3-0.3,0.3-0.5c0-0.2-0.1-0.3-0.3-0.4c-0.1,0-0.2,0-0.3,0l-8.6,0.4
			c-0.3,0-0.6,0.1-0.9,0.2c-0.5,0.2-0.8,0.5-1,1c-0.1,0.4-0.1,0.8,0,1.2c0.1,0.2,0.2,0.4,0.4,0.7l8.3,9.5c0.3,0.4,0.5,0.8,0.3,1.3
			c-0.1,0.2-0.2,0.4-0.4,0.5c-0.2,0.1-0.3,0.2-0.5,0.2c0,0-19.2,5-20.8,5.4c-0.3,0.1-0.4,0.1-0.5,0.2c-0.2,0.1-0.3,0.3-0.2,0.5
			c0,0.2,0.2,0.3,0.4,0.3c0.2,0,0.3,0,0.6,0c1.8-0.3,22.9-4.5,22.9-4.5c0.4-0.1,0.8-0.2,1.1-0.4C231.5,20.6,231.7,20.3,231.8,19.9
			 M239.1,42.4c0.1-0.1,0.1-0.3-0.1-0.4c0,0-1.7-1.6-2.8-2.6l0.6,0c0.9,0,1.5-0.4,1.5-1.3v-2c0-0.9-0.6-1.3-1.5-1.3h-6
			c-0.1,0-0.2,0.1-0.2,0.2v7.4c0,0,0,0.1,0.1,0.1h1.2c0,0,0.1,0,0.1-0.1v-6.3c0,0,0-0.1,0.1-0.1h4.3c0.3,0,0.5,0.2,0.5,0.4v1.5
			c0,0.2-0.2,0.4-0.5,0.4l-3.1,0.1c-0.4,0-0.6,0.2-0.6,0.5v0.1c0,0.2,0.2,0.5,0.6,0.5l1.3,0l2.8,3c0.1,0.1,0.2,0.1,0.2,0.1h1.1
			C239,42.5,239,42.5,239.1,42.4 M243.7,42.4v-7.5c0,0,0-0.1-0.1-0.1h-1.2c0,0-0.1,0-0.1,0.1v7.5c0,0,0,0.1,0.1,0.1L243.7,42.4
			C243.6,42.5,243.7,42.5,243.7,42.4 M255.2,42.4v-1c0,0,0-0.1-0.1-0.1H249c0,0-0.1,0-0.1-0.1V39l3-0.1c0.4,0,0.6-0.2,0.6-0.5v-0.1
			c0-0.2-0.2-0.5-0.6-0.5l-3-0.1v-1.8c0,0,0-0.1,0.1-0.1h6c0,0,0.1,0,0.1-0.1v-1c0,0,0-0.1-0.1-0.1h-7.3c-0.1,0-0.2,0.1-0.2,0.2v7.3
			c0,0.1,0.1,0.1,0.2,0.1L255.2,42.4C255.2,42.5,255.2,42.5,255.2,42.4 M259.3,37.6v-1.2c0-0.2,0.2-0.4,0.5-0.4h4.4
			c0.3,0,0.5,0.2,0.5,0.4v0.2c0,0.1,0.1,0.2,0.2,0.2l1-0.2c0.1,0,0.2-0.1,0.2-0.2v-0.3c0-0.9-0.6-1.3-1.5-1.3h-4.8
			c-0.9,0-1.5,0.4-1.5,1.3v1.6c0,0.9,0.6,1.3,1.5,1.3h4.9c0.3,0,0.5,0.2,0.5,0.4V41c0,0.2-0.2,0.4-0.5,0.4h-4.9
			c-0.3,0-0.5-0.2-0.5-0.4v-0.4c0-0.1-0.1-0.1-0.2-0.1l-1,0.1c-0.1,0-0.2,0.1-0.2,0.2v0.5c0,0.9,0.6,1.3,1.5,1.3h1.6h3.7
			c0.9,0,1.5-0.4,1.5-1.3v-1.9c0-0.9-0.6-1.3-1.5-1.3h-4.9C259.4,38,259.3,37.8,259.3,37.6"/>
	</g>
</g>
<path class="st1" d="M357.5,340.3v1.8H357c0,0,0,0,0,0c0,0,0,0,0,0c0,0,0,0,0,0.1c0,0,0,0.1,0,0.1c0,0,0,0.1,0,0.1c0,0,0,0.1,0,0.1
	c0,0,0,0,0,0c0,0,0,0,0,0h1.6c0,0,0,0,0,0c0,0,0,0,0,0c0,0,0,0,0-0.1c0,0,0-0.1,0-0.1c0,0,0-0.1,0-0.1c0,0,0-0.1,0-0.1c0,0,0,0,0,0
	c0,0,0,0,0,0h-0.5v-2.3c0,0,0,0,0,0c0,0,0,0,0,0c0,0,0,0-0.1,0c0,0-0.1,0-0.1,0c0,0-0.1,0-0.1,0c0,0-0.1,0-0.1,0c0,0,0,0,0,0
	c0,0,0,0,0,0l-0.6,0.4c0,0,0,0,0,0c0,0,0,0,0,0c0,0,0,0,0,0.1c0,0,0,0.1,0,0.1c0,0.1,0,0.1,0,0.1c0,0,0,0.1,0,0.1s0,0,0,0
	c0,0,0,0,0.1,0L357.5,340.3z M354.1,339.6l-1.7,0.5c0,0-0.2,0.1,0,0.2l0.7,0.4l-1.6,2.7c0,0-1.3,2.2,1.3,2.2h4.3l0-1.1h-4.3
	c-0.6,0-0.3-0.5-0.3-0.5l1.6-2.7l0.7,0.4c0,0,0.2,0.1,0.1-0.1l-0.4-1.7C354.4,339.7,354.3,339.5,354.1,339.6 M361.3,337.3
	c0,0,0.1-0.2-0.1-0.1l-0.7,0.4l-1.6-2.7c0,0-1.3-2.2-2.5,0l-2.1,3.7l0.9,0.5l2.1-3.7c0.3-0.5,0.6,0,0.6,0l1.6,2.7l-0.7,0.4
	c0,0-0.2,0.1,0,0.2l1.7,0.5c0,0,0.2,0.1,0.3-0.2L361.3,337.3z M363.9,343.3l-2.1-3.7l-0.9,0.5l2.1,3.7c0.3,0.5-0.3,0.5-0.3,0.5h-3.2
	v-0.8c0,0,0-0.2-0.2-0.1l-1.2,1.2c0,0-0.2,0.2,0,0.3l1.2,1.2c0,0,0.2,0.2,0.2-0.1v-0.8h3.2C362.6,345.5,365.1,345.5,363.9,343.3"/>
<g>
	<path class="st1" d="M352.9,346.9v1.2h1.2v-1.2h0.7v3.1H354v-1.3h-1.2v1.3h-0.7v-3.1H352.9z"/>
	<path class="st1" d="M355.4,347c0.3,0,0.6-0.1,1-0.1c0.6,0,1,0.1,1.3,0.3c0.3,0.2,0.5,0.6,0.5,1.2c0,0.6-0.2,1-0.5,1.3
		c-0.3,0.3-0.8,0.4-1.4,0.4c-0.4,0-0.6,0-0.8,0V347z M356.1,349.5c0.1,0,0.2,0,0.2,0c0.6,0,1.1-0.3,1.1-1.1c0-0.7-0.4-1-1-1
		c-0.2,0-0.3,0-0.3,0V349.5z"/>
	<path class="st1" d="M358.6,347c0.2,0,0.5-0.1,1-0.1c0.4,0,0.7,0.1,1,0.3c0.2,0.2,0.3,0.4,0.3,0.7c0,0.3-0.1,0.6-0.3,0.7
		c-0.2,0.2-0.6,0.3-1,0.3c-0.1,0-0.2,0-0.2,0v1.1h-0.7V347z M359.3,348.4c0.1,0,0.1,0,0.2,0c0.4,0,0.6-0.2,0.6-0.5
		c0-0.3-0.2-0.5-0.6-0.5c-0.1,0-0.2,0-0.3,0V348.4z"/>
	<path class="st1" d="M363.2,348.7H362v0.7h1.3v0.6h-2v-3.1h1.9v0.6H362v0.7h1.2V348.7z"/>
</g>
<rect id="text_background_left" x="0.2" y="0.3" class="svgRibbon" width="85" height="331.8"/>
<rect id="text_background_right" x="343" y="0.5" class="svgRibbon" width="85" height="331.6"/>
</svg>
