<?xml version="1.0" encoding="utf-8"?>
<svg version="1.1" id="Layer_1" data-color-numbers="0" xmlns="http://www.w3.org/2000/svg" xmlns:xlink="http://www.w3.org/1999/xlink" x="0px" y="0px"
	 viewBox="0 0 272.1 184.3" style="enable-background:new 0 0 272.1 184.3;" xml:space="preserve">
<style type="text/css">
	.st0{clip-path:url(#SVGID_2_);}
	.st1{fill:#0055B8;}
	.st2{fill:#FFFFFF;}
	.st3{font-family:'Calibri';}
	.st4{font-size:6.8236px;}
	.st5{font-size:5.2489px;}
	.st6{fill:none;}
	.st7{fill:#FBFBFB;}
	.st8{clip-path:url(#SVGID_12_);}
	.st9{font-family:'Foglihten';}
	.st10{font-size:8.9232px;}
	.st11{fill:#231F20;}
	.st12{font-family:'Calibri-LightItalic';}
	.st13{font-size:2.8869px;}
	.st14{font-size:3.2543px;}
	.st15{font-family:'Calibri-Bold';}
	.st16{font-size:2.8133px;}
	.svgRibbon{opacity:1;fill:#FFFFFF;}
</style>
<g>
	<defs>
		<rect id="SVGID_1_" width="272.1" height="184.3"/>
	</defs>
	<clipPath id="SVGID_2_">
		<use xlink:href="#SVGID_1_"  style="overflow:visible;"/>
	</clipPath>
	<g class="st0">
		<rect x="0.2" y="171.8" class="st1" width="273" height="12.8"/>
		<path class="st2" d="M261.7,176.8c-0.1,0-0.3,0-0.3-0.1c0-0.1,0.1-0.2,0.2-0.2c0.1,0,0.3,0,0.3,0.1
			C261.9,176.6,261.8,176.7,261.7,176.8 M266.8,179.9c0.3-0.3,0-1.2-0.6-1.7c-0.8-0.7-2.7-1-2.7-1c0.1-0.1,0.1-0.3,0.1-0.3
			c3.5,0.2,3.3-0.5,2.9-0.7c-0.6-0.3-2.2-0.4-2.2-0.4c1.9-0.4,2.4-1.3,0.6-1.2c-2.1,0-2.7,1.2-2.7,1.2c-1.1,0-1.8,0.5-2,1.3
			c-0.1,0.7,0.6,1.1,1.4,1c-0.2,0.3-0.1,0.6-0.1,0.6c-0.9,0.3-1.1,1-0.7,1.4c0.5,0.5,1.3-0.1,1.3-0.1c0.3,0.5,1,0.7,1,0.7
			c0.2-0.1,0.5-0.2,0.7-0.2c0.1,0,0-0.1,0-0.1c-0.1-0.1-0.3-0.7,0.1-1.2c0.4-0.5,1.1-0.3,1.2-0.3c0.1,0.1,0.1,0.2-0.1,0.2
			c-0.1,0-0.6-0.2-1,0.2c-0.4,0.5,0,1.1,0.2,1.2c0.1,0.1,0,0.1,0,0.1c-1.5,0-2,0.9-1,1c1,0.1,1.6,0.1,2.2,0c0.9-0.1,0.4-0.6,0.4-0.6
			c0.5-0.1,0.5-0.4,0.5-0.4c0.4,0.6,1.2,0.6,1.4,0C268.2,180.1,267.6,179.5,266.8,179.9"/>
		<path class="st2" d="M256.8,178.4c0-2-1.6-3.6-3.6-3.6c-2,0-3.6,1.6-3.6,3.6c0,0.8,0.2,1.5,0.7,2.1c0,0,0,0,0-0.1
			c-0.4-0.6-0.6-1.3-0.6-2c0-1.9,1.6-3.5,3.5-3.5c0.9,0.1,1.6,0.4,2.1,0.9c0.5,0.5,0.8,1.3,0.8,2.1c0,1.6-1.3,2.9-2.9,2.9v0.8
			c-0.5-0.1-0.9-0.4-1.2-0.7c0,0,0,0,0,0c0,0,0,0-0.1-0.1c0,0,0,0,0,0c0,0,0,0-0.1-0.1c0,0,0,0,0,0c0,0,0,0,0-0.1c0,0,0,0,0,0
			c0,0,0,0,0-0.1c0,0,0,0,0,0c0,0,0,0,0-0.1c0,0,0,0,0,0c0,0,0,0,0-0.1c0,0,0,0,0,0c0,0,0,0,0-0.1c0,0,0,0,0,0c0,0,0,0,0-0.1
			c0,0,0,0,0,0c0,0,0,0,0,0c0,0,0,0,0,0c0,0,0,0,0,0c0,0,0,0,0,0c0,0,0,0,0,0c0,0,0,0,0,0c0,0,0,0,0,0c0,0,0,0,0,0c0,0,0,0,0,0
			c0,0,0,0,0,0c0,0,0,0,0,0c0,0,0-0.1,0-0.1c0,0,0-0.1,0-0.1c0,0,0,0,0,0c0,0,0,0,0,0c0,0,0,0,0,0c0,0,0,0,0,0c0,0,0,0,0,0
			c0,0,0,0,0,0c0,0,0,0,0,0c0,0,0,0,0,0c0,0,0,0,0,0c0,0,0,0,0,0c0,0,0,0,0,0c0,0,0,0,0,0c0,0,0,0,0-0.1c0,0,0,0,0,0c0,0,0,0,0-0.1
			c0,0,0,0,0,0c0,0,0,0,0-0.1c0,0,0,0,0,0c0,0,0,0,0-0.1c0,0,0,0,0,0c0,0,0,0,0-0.1c0,0,0,0,0,0c0,0,0,0,0-0.1c0,0,0,0,0,0
			c0,0,0,0,0.1-0.1c0,0,0,0,0,0c0,0,0,0,0.1-0.1c0,0,0,0,0,0c0.3-0.3,0.7-0.6,1.2-0.7v0.8c0.7-0.2,1.3-0.7,1.6-1.3c0,0,0,0,0,0
			c0,0,0,0,0,0c0,0,0,0,0,0c0,0,0,0,0,0c0,0,0,0,0,0c0,0,0,0,0,0c0,0,0,0,0,0c0,0,0,0,0,0c0,0,0,0,0,0c0,0,0,0,0,0c0,0,0-0.1,0-0.1
			c-0.3-0.8-1-1.5-1.9-1.8c0,0,0,0,0,0v0v0.8c-1.6,0-2.9,1.3-2.9,2.9c0,1.6,1.3,2.9,2.9,2.9c0,0,0,0,0,0
			C255.2,182,256.8,180.4,256.8,178.4C256.8,178.5,256.8,178.4,256.8,178.4C256.8,178.4,256.8,178.4,256.8,178.4"/>
		<path class="st2" d="M243.3,182.3C243.3,182.3,243.3,182.3,243.3,182.3l0.5,0.1c0,0,0.1,0,0.1-0.1l0.8-2.9l0.3,2.9
			c0,0,0,0.1,0.1,0.1h0.4c0,0,0.1,0,0.1-0.1l0.2-4.1c0,0,0-0.1-0.1-0.1h-0.7h-0.3H244c0,0-0.1,0-0.1,0.1L243.3,182.3z M242.2,178.8
			l-0.2,2.6c0,0.1-0.1,0.1-0.1,0.1h-1.4c-0.1,0-0.1-0.1-0.1-0.1l-0.2-2.6c0-0.1,0.1-0.1,0.1-0.1h1.9
			C242.2,178.6,242.2,178.8,242.2,178.8 M242.4,178.5h-2.5c0,0-0.2,0-0.2,0.2l0.3,3.5c0,0,0,0.2,0.2,0.2h1.9c0,0,0.2,0,0.2-0.2
			l0.3-3.5C242.6,178.7,242.6,178.5,242.4,178.5 M240.4,177.1c0.1,0.5-0.2,0.6-0.2,0.8c0.2,0.2,0.9,0.1,1.1,0.1
			c-0.2-0.5,0.3-0.6,0.2-0.8C241.1,177.3,240.8,177.2,240.4,177.1 M244.5,174.9c0-0.4-0.3-0.6-0.6-0.6c-0.4,0-0.6,0.3-0.6,0.6
			c0,0.4,0.3,0.6,0.6,0.6C244.2,175.5,244.5,175.2,244.5,174.9 M245.7,177.7L245,176c0,0,0-0.1-0.2-0.1l-4.1,0c0,0,0,0,0,0v0.3
			c0,0,0,0,0,0l2.6,0.2l0.5,1.2c0,0,0.1,0.1,0.2,0.1h1.6C245.6,177.9,245.8,177.9,245.7,177.7"/>
		<text transform="matrix(1 0 0 1 4.3955 180.5669)"><tspan x="0" y="0" class="st2 st3 st4">3</tspan><tspan x="3.8" y="0" class="st2 st3 st4">0</tspan></text>
		<text transform="matrix(1 0 0 1 11.7939 180.5669)"><tspan x="0" y="0" class="st2 st3 st5"> </tspan><tspan x="1.1" y="0" class="st2 st3 st5">m</tspan><tspan x="5.6" y="0" class="st2 st3 st5">l</tspan></text>
		<rect x="17.5" y="-7.1" class="st6" width="238.1" height="193.4"/>
		<g>
			<defs>
				<rect id="SVGID_3_" x="17.5" y="-7.1" width="238.1" height="193.4"/>
			</defs>
			<clipPath id="SVGID_4_">
				<use xlink:href="#SVGID_3_"  style="overflow:visible;"/>
			</clipPath>
		</g>
		<g>
			<defs>
				<rect id="SVGID_5_" x="17.5" y="-7.1" width="238.1" height="193.4"/>
			</defs>
			<clipPath id="SVGID_6_">
				<use xlink:href="#SVGID_5_"  style="overflow:visible;"/>
			</clipPath>
		</g>
		<g>
			<defs>
				<rect id="SVGID_7_" x="17.5" y="-7.1" width="238.1" height="193.4"/>
			</defs>
			<clipPath id="SVGID_8_">
				<use xlink:href="#SVGID_7_"  style="overflow:visible;"/>
			</clipPath>
		</g>
		<g>
			<defs>
				<rect id="SVGID_9_" x="17.5" y="-7.1" width="238.1" height="193.4"/>
			</defs>
			<clipPath id="SVGID_10_">
				<use xlink:href="#SVGID_9_"  style="overflow:visible;"/>
			</clipPath>
		</g>
		<rect x="25.2" y="0.6" class="st7" width="1.5" height="1.5"/>
		<g>
			<defs>
				<rect id="SVGID_11_" x="17.5" y="-7.1" width="238.1" height="193.4"/>
			</defs>
			<clipPath id="SVGID_12_">
				<use xlink:href="#SVGID_11_"  style="overflow:visible;"/>
			</clipPath>
			<g class="st8">
				<text transform="matrix(1 0 0 1 95.6001 180.8267)" class="st2 st9 st10">Body milk Ginkgo</text>
			</g>
		</g>
		<text transform="matrix(0 -1 1 0 31.5606 32.6782)" class="st11 st12 st13"> </text>
		<text transform="matrix(0 -1 1 0 34.4478 34.7075)" class="st11 st12 st13"> </text>
		<text transform="matrix(0 -1 1 0 37.3345 27.1694)" class="st11 st12 st13"> </text>
		<text transform="matrix(0 -1 1 0 40.2217 25.2876)" class="st11 st12 st13"> </text>
		<text transform="matrix(0 -1 1 0 51.2896 31.8691)" class="st11 st3 st14"> </text>
		<text transform="matrix(0 -1 1 0 54.5439 33.3799)" class="st11 st3 st14"> </text>
		<text transform="matrix(0 -1 1 0 62.0327 109.3403)" class="st11 st12 st13"> </text>
		<rect x="17.5" y="-7.1" class="st6" width="238.1" height="193.4"/>
		<path class="st2" d="M26.3,174.5C26.3,174.5,26.3,174.5,26.3,174.5c-0.2,0.1-0.8,0.6-2.1,1.2c-1.3,0.6-2,0.8-2.2,0.8c0,0,0,0,0,0
			c-0.1,0-0.2,0-0.2,0c0,0,0-0.1,0.1-0.2c0,0,0,0,0,0c0.2-0.2,0.8-0.6,2-1.2c1.2-0.6,1.9-0.7,2.2-0.8c0.1,0,0.2,0,0.2,0
			C26.4,174.3,26.3,174.4,26.3,174.5 M26.9,174.9l-0.4-0.8c0,0,0-0.1-0.2-0.1c0,0-1,0.2-2.5,0.9c-1.6,0.7-2.3,1.3-2.3,1.3
			s-0.1,0.1-0.1,0.2l0.4,0.8c0,0,0,0.1,0.2,0.1c0,0,0.9-0.2,2.5-0.9c1.6-0.7,2.3-1.3,2.3-1.3S26.9,175,26.9,174.9 M24,179.5
			C24,179.5,24,179.5,24,179.5c-0.1,0.1-0.1,0.2,0,0.3c0,0.1,0,0.1,0.1,0.2c0,0,0.1,0.1,0.1,0.1c0,0,0.1,0,0.1,0c0,0,0.1,0,0.1,0
			c0,0,0.1,0,0.1-0.1c0,0,0-0.1,0.1-0.1c0,0,0-0.1,0-0.1s0-0.1,0-0.1c0,0,0-0.1,0-0.1c0,0,0,0-0.1-0.1c0,0-0.1,0-0.1,0
			c0,0-0.1,0-0.1,0C24.1,179.4,24.1,179.4,24,179.5C24.1,179.5,24,179.5,24,179.5 M28,177.7c0,0.1,0,0.1-0.1,0.1
			c-0.2,0.1-1,0.3-2.4,0.3c-1.4,0-2.1-0.2-2.4-0.3c-0.1,0-0.1-0.1-0.1-0.1c0-0.1,0.1-0.1,0.1-0.1c0,0,0,0,0.1,0
			c0.3-0.1,0.9-0.3,2.2-0.3c0,0,0.1,0,0.1,0c0,0,0.1,0,0.1,0c1.2,0,1.9,0.2,2.2,0.3c0,0,0,0,0.1,0C27.9,177.6,28,177.6,28,177.7
			 M23.6,179.5c0-0.1,0-0.2,0-0.2c0-0.1,0-0.2,0-0.2c0-0.1,0-0.2,0.1-0.2c0-0.1,0.1-0.1,0.1-0.2c0.1-0.1,0.1-0.1,0.2-0.1
			c0.1,0,0.2,0,0.3,0c0,0,0.1,0,0.1,0c0,0,0.1,0,0.1,0c0,0,0.1,0,0.1,0c0,0,0,0,0,0c0,0,0,0,0,0c0,0,0,0,0,0c0,0,0,0,0,0
			c0,0,0,0,0,0c0,0,0,0.1,0,0.1c0,0,0,0,0,0c0,0,0,0,0,0c0,0,0,0,0,0c0,0,0,0,0,0c0,0,0,0-0.1,0c0,0-0.1,0-0.1,0c0,0-0.1,0-0.1,0
			c-0.1,0-0.1,0-0.2,0c-0.1,0-0.1,0.1-0.1,0.1c0,0.1-0.1,0.1-0.1,0.2c0,0.1,0,0.1,0,0.2c0,0,0,0,0.1,0c0,0,0.1,0,0.1,0
			c0,0,0.1,0,0.1,0c0,0,0.1,0,0.1,0c0.1,0,0.2,0,0.2,0c0.1,0,0.1,0.1,0.2,0.1c0,0,0.1,0.1,0.1,0.2c0,0.1,0,0.1,0,0.2
			c0,0.1,0,0.2,0,0.3c0,0.1-0.1,0.2-0.1,0.2c-0.1,0.1-0.1,0.1-0.2,0.1c-0.1,0-0.2,0.1-0.3,0.1c-0.1,0-0.2,0-0.2,0
			c-0.1,0-0.1,0-0.2-0.1c0,0-0.1-0.1-0.1-0.1c0-0.1-0.1-0.1-0.1-0.2c0-0.1,0-0.1,0-0.2C23.6,179.6,23.6,179.5,23.6,179.5
			 M25.8,178.9C25.8,178.9,25.8,178.8,25.8,178.9c0-0.1,0.1-0.1,0.1-0.1h0.2c0,0,0.1,0,0.1,0c0,0,0,0,0.1,0c0,0,0,0,0,0.1
			c0,0,0,0.1,0,0.1l0.3,0.8h0l0.3-0.8c0,0,0-0.1,0-0.1c0,0,0-0.1,0-0.1c0,0,0,0,0.1,0c0,0,0.1,0,0.1,0h0.2c0,0,0.1,0,0.1,0
			c0,0,0,0.1,0,0.1v1.4c0,0,0,0,0,0c0,0,0,0,0,0c0,0,0,0,0,0c0,0,0,0-0.1,0c0,0-0.1,0-0.1,0c0,0,0,0,0,0c0,0,0,0,0,0c0,0,0,0,0,0
			v-1.2h0l-0.4,1.2c0,0,0,0,0,0c0,0-0.1,0-0.1,0c0,0,0,0-0.1,0c0,0,0,0,0,0c0,0,0,0,0,0c0,0,0,0,0,0l-0.4-1.2h0v1.2c0,0,0,0,0,0
			c0,0,0,0,0,0c0,0,0,0,0,0c0,0,0,0-0.1,0c0,0-0.1,0-0.1,0c0,0,0,0,0,0c0,0,0,0,0,0c0,0,0,0,0,0V178.9z M28.2,177.7
			c0-0.1,0-0.2-0.1-0.3c0,0-0.9-0.4-2.6-0.4c0,0,0,0,0,0h0c0,0,0,0,0,0c-1.7,0-2.6,0.4-2.6,0.4c-0.1,0-0.1,0.2-0.1,0.3
			c0,0,0,0,0,0.1c0,0,0,2.5,0,2.5c0,0,0,0.1,0,0.1c0,0,0.1,0.1,0.1,0.1s0.9,0.4,2.6,0.4c1.7,0,2.6-0.4,2.6-0.4s0.1,0,0.1-0.1
			c0,0,0-0.1,0-0.1C28.2,180.3,28.2,177.7,28.2,177.7"/>
		<rect x="23.4" y="-0.2" class="st6" width="224.7" height="184.5"/>
		<g>
			<g>
				<text transform="matrix(1 0 0 1 231.0703 178.7705)" class="st2 st15 st16">04</text>
			</g>
			<path class="st2" d="M230.4,177l-1,0.3c0,0-0.1,0,0,0.1l0.4,0.2l-0.9,1.6c0,0-0.7,1.3,0.7,1.3h2.5l0-0.6h-2.5
				c-0.4,0-0.2-0.3-0.2-0.3l0.9-1.6l0.4,0.2c0,0,0.1,0.1,0.1-0.1l-0.3-1C230.6,177.1,230.6,177,230.4,177"/>
			<path class="st2" d="M234.6,175.7C234.6,175.7,234.6,175.5,234.6,175.7l-0.5,0.2l-0.9-1.6c0,0-0.7-1.3-1.5,0l-1.2,2.2l0.5,0.3
				l1.2-2.2c0.2-0.3,0.4,0,0.4,0l0.9,1.6l-0.4,0.2c0,0-0.1,0.1,0,0.1l1,0.3c0,0,0.1,0,0.2-0.1L234.6,175.7z"/>
			<path class="st2" d="M236.1,179.2l-1.2-2.1l-0.5,0.3l1.2,2.2c0.2,0.3-0.2,0.3-0.2,0.3h-1.8v-0.4c0,0,0-0.1-0.1,0l-0.7,0.7
				c0,0-0.1,0.1,0,0.2l0.7,0.7c0,0,0.1,0.1,0.1,0v-0.4h1.8C235.3,180.4,236.8,180.4,236.1,179.2"/>
			<text transform="matrix(1 0 0 1 231.0703 183.1787)" class="st2 st15 st16">PE</text>
		</g>
	</g>
</g>
<rect x="336.3" y="-68" class="st6" width="305.8" height="257.9"/>
<g>
	<path class="st1" d="M92.7,139.4c-0.7,2.1-1.8,4.4-3,6.5c-1.2-2.1-2.3-4.3-3-6.5h-4.6c1.2,3.4,3.7,7.5,5.6,9.8v6.5h4.1v-6.5
		c1.9-2.3,4.3-6.4,5.6-9.8H92.7"/>
	<path class="st1" d="M101.1,139.4c-2,4.1-4.5,11-5.7,16.3h4.3c0.2-0.8,0.4-1.8,0.7-2.7h5.7c0.2,1,0.5,1.9,0.7,2.7h4.3
		c-1.2-5.3-3.7-12.2-5.7-16.3H101.1 M101.3,149.7c0.6-2.1,1.3-4.2,2-6.2c0.7,2,1.4,4.1,2,6.2H101.3z"/>
	<path class="st1" d="M121.1,147c-1.9-0.8-2.8-1.2-3.8-1.6c-0.9-0.4-1.4-0.7-1.4-1.4c0-0.8,0.3-1.1,0.9-1.2c1.2-0.1,3.8,0,6.2,0.5
		v-3.6c-1.6-0.3-3.8-0.5-5.4-0.5c-0.8,0-1.9,0.1-2.7,0.2c-2.2,0.3-3.3,1.7-3.3,4.4c0,1.9,0.7,3.4,2.6,4.2c1.6,0.7,2.8,1.2,3.8,1.6
		c1,0.4,1.4,0.7,1.4,1.4c0,0.8-0.3,1.1-1,1.2c-1.1,0.1-3.8,0-6.2-0.5v3.6c1.6,0.3,3.8,0.5,5.4,0.5c0.8,0,1.9-0.1,2.7-0.2
		c2.2-0.3,3.3-1.6,3.3-4.4C123.7,149.1,123,147.8,121.1,147"/>
	<path class="st1" d="M148.8,139.4h-4.3c-1.8,3.7-4,9.7-5.3,14.8c-1.4-2.8-3.6-6-4.8-7.4c1.4-1.4,3.9-4.7,5.4-7.4h-4.7
		c-1.6,2.8-3.8,5.6-4.7,6.5v-6.5h-4.1v16.3h4.1v-8.1c1.6,1.9,3.7,5.4,4.9,8.1h8c0.2-0.8,0.4-1.8,0.7-2.7h5.7c0.2,1,0.5,1.9,0.7,2.7
		h4.3C153.2,150.4,150.8,143.5,148.8,139.4z M144.6,149.7c0.6-2.1,1.3-4.2,2-6.2c0.7,2,1.4,4.1,2,6.2H144.6z"/>
	<path class="st1" d="M171.7,139.4c-0.6,3.4-1.5,7.4-2.5,11c-1-3.7-1.9-7.7-2.6-11h-3.9c-0.6,3.3-1.6,7.4-2.6,11
		c-0.9-3.6-1.8-7.7-2.5-11h-4.3c1.1,4.9,3.1,11.9,4.6,16.3h4.5c0.7-2.4,1.5-5.7,2.2-8.9c0.7,3.3,1.6,6.5,2.2,8.9h4.5
		c1.5-4.3,3.5-11.4,4.6-16.3H171.7"/>
	<path class="st1" d="M186.3,155.7h4.3c-1.2-5.3-3.7-12.2-5.7-16.3h-4.3c-2,4.1-4.5,11-5.7,16.3h4.3c0.2-0.8,0.4-1.8,0.7-2.7h5.7
		C185.9,153.9,186.2,154.9,186.3,155.7 M180.8,149.7c0.6-2.1,1.3-4.2,2-6.2c0.7,2,1.4,4.1,2,6.2H180.8z"/>
</g>
<g>
	<rect x="75.3" y="36.5" class="st2" width="122.3" height="102.4"/>
	<path class="st1" d="M84.3,129.6l-1.1,3.6H81l3.9-12.3h2.1l3.9,12.3h-2.2l-1.1-3.6H84.3z M87.2,128l-1.2-3.8l-1.2,3.8H87.2z"/>
	<path class="st1" d="M106.2,125.6v7.6h-2v-12.3h2l4.4,7.7v-7.7h2l0,12.3l-2,0L106.2,125.6z"/>
	<path class="st1" d="M95.1,125.6v7.6h-2v-12.3h2l4.4,7.7v-7.7h2l0,12.3l-2,0L95.1,125.6z"/>
	<path class="st1" d="M117.4,120.9l0,12.3h-2v-12.3H117.4z"/>
	<path class="st1" d="M124.6,129.9l2.9-9h2.2l-3.9,12.3h-2.1l-3.9-12.3h2.2L124.6,129.9z"/>
	<path class="st1" d="M139.5,120.9v1.8l-6,0v3.4h5.8v1.8h-5.8v3.4h6v1.8h-8v-12.3L139.5,120.9z"/>
	<path class="st1" d="M146.2,128.1h-1.9l0,5.1h-2v-12.3h6.5l1.6,1.8v3.4l-2.1,2l2,5.2h-2.1L146.2,128.1z M147.5,126.2l0.8-0.8v-1.8
		l-1-1h-3.1v3.6H147.5z"/>
	<path class="st1" d="M160.5,131.5l-1.5,1.8h-4.2l-2-2.3v-1.4h1.9v0.7l1.1,1.2h2.1l0.7-0.9v-1.7l-1-0.9h-2.9l-1.8-1.6l-0.1-0.1
		l-0.1-0.1v-3.6l1.5-1.8h4.2l2,2.3v1.4h-1.9v-0.7l-1.1-1.2h-2.1l-0.7,0.9v1.7l1,0.9h3.1l1.6,1.6l0.1,0.1l0.1,0V131.5z"/>
	<path class="st1" d="M165.3,129.6l-1.1,3.6H162l3.9-12.3h2.1l3.9,12.3h-2.2l-1.1-3.6H165.3z M168.2,128l-1.2-3.8l-1.2,3.8H168.2z"
		/>
	<path class="st1" d="M177.6,128.1h-1.9l0,5.1h-2v-12.3h6.5l1.6,1.8v3.4l-2.1,2l2,5.2h-2.1L177.6,128.1z M179,126.2l0.8-0.8v-1.8
		l-1-1h-3.1v3.6H179z"/>
	<path class="st1" d="M187.8,124.9l2.4-4h2.3l-3.7,6l0,6.3h-2l0-6.3l-3.7-6h2.5L187.8,124.9z"/>
	<g>
		<path class="st1" d="M173.5,94.6v3h-5.3l0,18.1h-3.4V97.6h-5.3v-3H173.5z"/>
		<path class="st1" d="M181.2,106.8v9h-3.4V94.6h3.5v9h7.3v-9h3.5v21.2l-3.5,0v-9H181.2z"/>
	</g>
	<path class="st1" d="M95.7,110.2v5.5H83.4v-5.5h3.4V88.6l-1.5,1.8H81l5.8-8.6h5.5v28.3L95.7,110.2z"/>
	<path class="st1" d="M119.1,81.9h-12.5l-5.2,5.1v22.7l5.3,6H119l5.3-6V86.9L119.1,81.9z M118.8,107.6l-2.3,2.6h-7.4l-2.3-2.6V89.2
		l2-1.9h8.1l2,1.9V107.6z"/>
	<path class="st1" d="M147.1,79.4h-12.5l-5.2,5.1v22.7l5.3,6H147l5.3-6V84.5L147.1,79.4z M146.8,105.1l-2.3,2.6h-7.4l-2.3-2.6V86.8
		l2-1.9h8.1l2,1.9V105.1z"/>
	<g>
		<path class="st1" d="M153.3,43.7c2.4-2.1,6.1-1.9,8.2,0.4c0.9,1,1.4,2.1,1.5,3.4c0,0.3,0.1,0.6,0.3,0.8l3.9,4.3
			c0.5,0.5,0.4,1.4-0.1,1.9l-4.6,4.1c-0.5,0.5-1.4,0.4-1.9-0.1l-3.9-4.3c-0.2-0.2-0.5-0.4-0.7-0.4c-1.3-0.2-2.4-0.9-3.2-1.8
			C150.7,49.5,150.9,45.9,153.3,43.7z"/>
		<path class="st1" d="M172.2,71l6.3-5.7c0.1-0.1,0.3-0.2,0.4-0.3l-7.4-8.1l-3.3-1.3c0,0-0.1,0.1-0.1,0.1l-4.6,4.1
			c0,0-0.1,0.1-0.1,0.1l1,3.4l7.4,8.1C172,71.3,172.1,71.1,172.2,71z"/>
		<path class="st1" d="M148.3,58.4l4.7-4.3c-0.4-0.3-0.8-0.7-1.2-1.1c-0.6-0.7-1.1-1.5-1.4-2.3l-4.9,4.5l-0.1-0.1
			c-0.4-0.4-1-0.4-1.3-0.1l-3.1,2.8c-0.2,0.1-0.4,0.2-0.6,0.2c-0.9,0.1-1.8,0.4-2.4,1.1c-1.7,1.6-1.8,4.2-0.3,5.9
			c1.6,1.7,4.2,1.8,5.9,0.3c0.7-0.6,1.1-1.4,1.3-2.3c0-0.2,0.1-0.4,0.3-0.5l3.1-2.8C148.7,59.4,148.7,58.8,148.3,58.4L148.3,58.4z"
			/>
		<g>
			<path class="st1" d="M184.9,75.3c-2,0-3.6,1.6-3.6,3.6c0,2,1.6,3.6,3.6,3.6c2,0,3.6-1.6,3.6-3.6
				C188.5,76.9,186.9,75.3,184.9,75.3z"/>
			<path class="st1" d="M190.9,73.4c-1.2-1.3-2.8-2.2-4.5-2.5c-0.4-0.1-0.8-0.3-1-0.6l-3.2-3.7c-0.7-0.8-1.8-0.8-2.6-0.1l-6.3,5.7
				c-0.8,0.7-0.8,1.8-0.1,2.6l3.3,3.7c0.3,0.3,0.4,0.7,0.5,1.1c0.1,1.8,0.9,3.4,2,4.7c3,3.3,8.1,3.6,11.5,0.6
				C193.7,81.9,193.9,76.8,190.9,73.4z M184.9,84.1c-2.9,0-5.2-2.3-5.2-5.2c0-2.9,2.3-5.2,5.2-5.2c2.9,0,5.2,2.3,5.2,5.2
				C190.1,81.7,187.8,84.1,184.9,84.1z"/>
		</g>
		<path class="st1" d="M184.9,88.5c-2.8,0-5.4-1.2-7.1-3.1v7.2H192v-7.2C190.2,87.3,187.7,88.5,184.9,88.5z"/>
		<path class="st1" d="M131.8,79.7l7.5-7.4h3.1l7.5,7.4l-0.7,0.7l1.5,1.5l2.2-2.2l-7.5-7.4v-2.6h-0.9v-2.8c-1,0.8-2.2,1.2-3.6,1.2
			c-1.3,0-2.6-0.5-3.6-1.2v2.8h-0.9v2.6l-7.5,7.4l2.2,2.2l1.5-1.5L131.8,79.7z"/>
	</g>
</g>
<rect id="text_background_left" x="0" class="svgRibbon" width="79.7" height="171.8"/>
<rect id="text_background_right" x="193" y="-0.2" class="svgRibbon" width="79.8" height="171.8"/>
</svg>
