<?xml version="1.0" encoding="utf-8"?>
<svg version="1.1" id="Layer_1" data-color-numbers="0" xmlns="http://www.w3.org/2000/svg" xmlns:xlink="http://www.w3.org/1999/xlink" x="0px" y="0px"
	 viewBox="0 0 428 351.5" style="enable-background:new 0 0 428 351.5;" xml:space="preserve">
<style type="text/css">
	.st0{fill:none;stroke:#004712;stroke-width:0.75;stroke-linecap:round;stroke-linejoin:round;}
	.st1{fill:#0055B8;}
	.st2{clip-path:url(#SVGID_2_);fill:#FFFFFF;}
	.st3{clip-path:url(#SVGID_2_);}
	.st4{fill:#FFFFFF;}
	.st5{font-family:'Calibri';}
	.st6{font-size:13px;}
	.st7{font-size:10px;}
	.st8{clip-path:url(#SVGID_4_);}
	.st9{fill:#FBFBFB;}
	.st10{clip-path:url(#SVGID_14_);}
	.st11{font-family:'Foglihten';}
	.st12{font-size:17px;}
	.st13{letter-spacing:1,;}
	.st14{fill:#231F20;}
	.st15{font-family:'Calibri-LightItalic';}
	.st16{font-size:5.5003px;}
	.st17{font-size:6.2004px;}
	.st18{fill:none;}
	.st19{font-family:'MyriadPro-Bold';}
	.st20{font-size:5px;}
	.svgRibbon{opacity:1;fill:#FFFFFF;}
</style>
<g>
	<path class="st0" d="M432.4,8.2L432.4,8.2 M-3.4,8.2L-3.4,8.2"/>
	<path class="st0" d="M433.5,9.7L433.5,9.7 M-2.3,9.7L-2.3,9.7"/>
	<rect x="0.5" y="327.5" class="st1" width="428.3" height="24"/>
	<g>
		<defs>
			<rect id="SVGID_1_" x="-12.3" y="-11.6" width="453.6" height="368.5"/>
		</defs>
		<clipPath id="SVGID_2_">
			<use xlink:href="#SVGID_1_"  style="overflow:visible;"/>
		</clipPath>
		<path class="st2" d="M405.3,335.6c-0.3,0.1-0.5,0-0.5-0.2c0-0.2,0.1-0.4,0.4-0.4c0.3-0.1,0.5,0,0.5,0.2
			C405.7,335.3,405.5,335.5,405.3,335.6 M415.1,341.5c0.5-0.6,0-2.2-1.2-3.3c-1.5-1.4-5.2-1.8-5.2-1.8c0.1-0.1,0.1-0.5,0.1-0.5
			c6.6,0.4,6.2-1,5.5-1.3c-1.1-0.6-4.1-0.7-4.1-0.7c3.6-0.7,4.6-2.4,1.2-2.3c-3.9,0.1-5.2,2.3-5.2,2.3c-2.1,0.1-3.5,1-3.7,2.4
			c-0.2,1.3,1.1,2.1,2.7,2c-0.3,0.5-0.1,1.2-0.1,1.2c-1.7,0.5-2,2-1.3,2.8c0.9,0.9,2.4-0.2,2.4-0.2c0.6,0.9,1.9,1.4,1.9,1.4
			c0.4-0.2,1-0.4,1.4-0.4c0.2,0,0.1-0.2,0.1-0.2c-0.1-0.2-0.6-1.4,0.2-2.3c0.8-0.9,2-0.6,2.3-0.5c0.3,0.1,0.2,0.4-0.2,0.3
			c-0.1,0-1.1-0.4-1.8,0.5c-0.8,0.9,0.1,2.1,0.3,2.3c0.3,0.2-0.1,0.2-0.1,0.2c-2.8,0.1-3.7,1.7-1.8,1.9c1.9,0.2,3.1,0.2,4.2,0.1
			c1.7-0.2,0.8-1.1,0.8-1.1c0.9-0.2,1-0.8,1-0.8c0.7,1.1,2.3,1.1,2.7,0.1C417.7,342,416.6,340.9,415.1,341.5"/>
		<path class="st2" d="M396,338.7c0-3.8-3.1-6.8-6.8-6.8c-3.8,0-6.8,3.1-6.8,6.8c0,1.5,0.5,2.8,1.2,3.9c0.1,0,0.1,0,0-0.1
			c-0.7-1.1-1.1-2.4-1.1-3.8c0-3.7,3-6.6,6.7-6.6c1.7,0.1,3,0.7,3.9,1.6c1,1,1.6,2.4,1.6,3.9c0,3.1-2.5,5.6-5.6,5.6v1.6
			c-0.9-0.3-1.7-0.8-2.3-1.4c0,0,0,0,0,0c0,0-0.1-0.1-0.1-0.1c0,0,0,0,0,0c0,0-0.1-0.1-0.1-0.1c0,0,0,0,0,0c0,0-0.1-0.1-0.1-0.1
			c0,0,0,0,0,0c0,0-0.1-0.1-0.1-0.1c0,0,0,0,0,0c0,0-0.1-0.1-0.1-0.1c0,0,0,0,0,0c0,0-0.1-0.1-0.1-0.1c0,0,0,0,0,0
			c0,0,0-0.1-0.1-0.1c0,0,0,0,0,0c0,0,0-0.1-0.1-0.1c0,0,0,0,0,0c0,0,0-0.1-0.1-0.1c0,0,0,0,0,0c0,0,0-0.1-0.1-0.1c0,0,0,0,0-0.1
			c0,0,0-0.1,0-0.1c0,0,0,0,0-0.1c0,0,0-0.1,0-0.1c0,0,0,0,0-0.1c0,0,0,0,0-0.1c0,0,0-0.1,0-0.1c0,0,0,0,0-0.1c0,0,0-0.1-0.1-0.2
			c0,0,0-0.1,0.1-0.1c0,0,0,0,0-0.1c0,0,0-0.1,0-0.1c0,0,0,0,0-0.1c0,0,0-0.1,0-0.1c0,0,0-0.1,0-0.1c0,0,0,0,0-0.1c0,0,0-0.1,0-0.1
			c0,0,0,0,0-0.1c0,0,0-0.1,0.1-0.1c0,0,0,0,0,0c0,0,0-0.1,0.1-0.1c0,0,0,0,0,0c0,0,0-0.1,0.1-0.1c0,0,0,0,0,0c0,0,0-0.1,0.1-0.1
			c0,0,0,0,0,0c0,0,0-0.1,0.1-0.1c0,0,0,0,0,0c0,0,0.1-0.1,0.1-0.1c0,0,0,0,0,0c0,0,0.1-0.1,0.1-0.1c0,0,0,0,0,0
			c0,0,0.1-0.1,0.1-0.1c0,0,0,0,0,0c0,0,0.1-0.1,0.1-0.1c0,0,0,0,0,0c0,0,0.1-0.1,0.1-0.1c0,0,0,0,0,0c0.6-0.6,1.4-1.1,2.3-1.4v1.6
			c1.3-0.4,2.4-1.3,3.1-2.5c0,0,0,0,0,0c0,0,0-0.1,0.1-0.1c0,0,0,0,0-0.1c0,0,0-0.1,0-0.1c0,0,0,0,0-0.1c0,0,0-0.1,0-0.1
			c0,0,0,0,0-0.1c0,0,0,0,0-0.1c0,0,0-0.1,0-0.1c0,0,0,0,0-0.1c0,0,0-0.1,0.1-0.1c-0.6-1.6-1.9-2.9-3.6-3.4c0,0,0,0,0,0v0v1.6
			c-3.1,0-5.6,2.5-5.6,5.6c0,3.1,2.5,5.6,5.6,5.6c0,0,0,0,0,0c3.8,0,6.8-3.1,6.8-6.8c0,0,0,0,0,0C396,338.8,396,338.7,396,338.7"/>
		<path class="st2" d="M370.2,346.1c0,0,0,0.2,0.1,0.2h0.8c0,0,0.2,0,0.2-0.2l1.5-5.5l0.5,5.5c0,0,0,0.2,0.2,0.2h0.7
			c0,0,0.2,0,0.2-0.2l0.4-7.8c0,0,0-0.2-0.2-0.2h-1.4h-0.6h-1.3c0,0-0.2,0-0.2,0.2L370.2,346.1z M368.1,339.4l-0.4,5
			c0,0.2-0.3,0.2-0.3,0.2h-2.7c-0.3,0-0.3-0.2-0.3-0.2l-0.4-5c0-0.2,0.2-0.2,0.2-0.2h3.6C368.2,339.2,368.1,339.4,368.1,339.4
			 M368.6,339h-4.7c0,0-0.3,0-0.3,0.3l0.5,6.6c0,0,0,0.3,0.4,0.3h3.6c0,0,0.3,0,0.4-0.3l0.5-6.6C368.9,339.3,368.9,339,368.6,339
			 M364.7,336.3c0.2,1-0.4,1.2-0.4,1.5c0.3,0.3,1.7,0.1,2,0.2c-0.4-0.9,0.5-1.1,0.4-1.5C366.1,336.6,365.5,336.5,364.7,336.3
			 M372.6,332c0-0.7-0.6-1.2-1.2-1.2c-0.7,0-1.2,0.6-1.2,1.2c0,0.7,0.6,1.2,1.2,1.2C372.1,333.3,372.6,332.7,372.6,332 M374.9,337.5
			l-1.4-3.4c0,0-0.1-0.2-0.3-0.2l-7.9,0c0,0-0.1,0-0.1,0.1v0.6c0,0,0,0.1,0.1,0.1l5,0.5l1,2.4c0,0,0.1,0.2,0.3,0.2h3.1
			C374.7,337.7,375,337.7,374.9,337.5"/>
		<g class="st3">
			<text transform="matrix(1.0001 0 0 1 10.3643 343.8477)"><tspan x="0" y="0" class="st4 st5 st6">22</tspan><tspan x="14.5" y="0" class="st4 st5 st6">0</tspan></text>
		</g>
		<g class="st3">
			<text transform="matrix(1.0001 0 0 1 32.0825 343.8477)"><tspan x="0" y="0" class="st4 st5 st7"> </tspan><tspan x="2.2" y="0" class="st4 st5 st7">m</tspan><tspan x="10.6" y="0" class="st4 st5 st7">l</tspan></text>
		</g>
	</g>
	<g>
		<defs>
			<rect id="SVGID_3_" x="-12.3" y="-11.6" width="453.6" height="368.5"/>
		</defs>
		<clipPath id="SVGID_4_">
			<use xlink:href="#SVGID_3_"  style="overflow:visible;"/>
		</clipPath>
		<path class="st8" d="M220.2,46.6c0-0.2,0.1-0.3,0.4-0.3h4.6c0.3,0,0.4,0.1,0.4,0.3v3.9c0,0.2-0.1,0.3-0.4,0.3h-4.6
			c-0.3,0-0.4-0.1-0.4-0.3V46.6z M219,46.5v4.3c0,0.8,0.5,1.1,1.3,1.1h5.1c0.8,0,1.3-0.3,1.3-1.1v-4.3c0-0.8-0.5-1.1-1.3-1.1h-5.1
			C219.5,45.3,219,45.7,219,46.5 M209.6,45.4v0.9c0,0,0,0.1,0.1,0.1h2.8c0,0,0.1,0,0.1,0.1v5.4c0,0,0,0.1,0.1,0.1h1
			c0,0,0.1,0,0.1-0.1v-5.4c0,0,0-0.1,0.1-0.1h2.8c0,0,0.1,0,0.1-0.1v-0.9c0,0,0-0.1-0.1-0.1L209.6,45.4
			C209.6,45.3,209.6,45.4,209.6,45.4 M198.7,50.4v0.4c0,0.8,0.5,1.1,1.3,1.1h1.9h3.7c0.8,0,1.3-0.3,1.3-1.1v-2.3
			c0-0.8-0.5-1.2-1.3-1.2h-5c-0.3,0-0.4-0.1-0.4-0.3v-1.6c0-0.2,0.1-0.3,0.4-0.3h4.6c0.3,0,0.4,0.1,0.4,0.3v0.1
			c0,0.1,0.1,0.1,0.1,0.1l0.9-0.1c0.1,0,0.1-0.1,0.1-0.1v-0.3c0-0.8-0.5-1.1-1.3-1.1h-5c-0.8,0-1.3,0.3-1.3,1.1v2
			c0,0.8,0.5,1.1,1.3,1.1h5c0.3,0,0.4,0.1,0.4,0.3v1.9c0,0.2-0.1,0.3-0.4,0.3h-5.1c-0.3,0-0.4-0.1-0.4-0.3v-0.3
			c0-0.1-0.1-0.1-0.1-0.1l-0.9,0.1C198.8,50.3,198.7,50.3,198.7,50.4 M177.5,51.9C177.6,51.9,177.6,51.9,177.5,51.9l-4.2-7.8
			c0,0-0.1-0.1-0.1-0.1h-1.4c0,0-0.1,0-0.1,0.1l-4.2,7.7c0,0,0,0.1,0,0.1h1.2c0,0,0.1,0,0.1-0.1l3.6-6.7c0,0,0,0,0.1,0
			c0,0,0,0,0.1,0h0l2.1,3.8l-3.3,0.1c-0.3,0-0.5,0.2-0.5,0.4v0.1c0,0.2,0.2,0.4,0.5,0.4l3.8,0.1l1,1.9c0,0,0.1,0.1,0.1,0.1H177.5z
			 M186.4,51.8V51c0,0,0-0.1-0.1-0.1h-4.9c0,0-0.1,0-0.1-0.1v-5.4c0,0,0-0.1-0.1-0.1h-1c0,0-0.1,0-0.1,0.1v6.4
			c0,0.1,0.1,0.1,0.1,0.1L186.4,51.8C186.3,51.9,186.4,51.9,186.4,51.8 M195.8,48.2v-1.7c0-0.8-0.5-1.1-1.3-1.1H189
			c-0.1,0-0.1,0.1-0.1,0.1v6.4c0,0,0,0.1,0.1,0.1l1,0c0,0,0.1,0,0.1-0.1v-5.4c0,0,0-0.1,0.1-0.1h4.1c0.3,0,0.4,0.1,0.4,0.3V48
			c0,0.2-0.1,0.3-0.4,0.3l-2.9,0.1c-0.3,0-0.5,0.2-0.5,0.4v0.1c0,0.2,0.2,0.4,0.5,0.4l3.2,0.1C195.2,49.3,195.8,48.9,195.8,48.2
			 M216.6,30.4c0,0-4.2-8.8-4.2-8.8c-0.3-0.6-0.8-1.1-1.6-1.2c-0.7,0-1.4,0.3-1.8,0.8c0,0-11.3,16-11.3,16.1
			c-0.3,0.4-0.3,0.8-0.2,0.9c0.2,0.1,0.6,0,0.8-0.4c0,0,11-14,11-14c0.3-0.4,0.8-0.8,1.3-0.7c0.5,0,0.8,0.4,1,0.9
			c0,0,3.1,7.2,3.2,7.2c0.3,0.6,0.9,0.9,1.3,0.7C216.8,31.7,216.9,31,216.6,30.4 M229.7,33.3c0.3-0.6,0.1-1.4-0.4-1.9
			c0,0-6.9-8.3-6.9-8.3c-0.2-0.3-0.3-0.5-0.2-0.8c0.1-0.3,0.4-0.5,0.8-0.6c0,0,5.4-1,5.4-1c0.3,0,0.5-0.2,0.5-0.5
			c0-0.2-0.3-0.4-0.6-0.3l-7.4,0.4c-0.7,0-1.3,0.4-1.5,1c-0.2,0.5,0,1.1,0.3,1.6c0,0,7.1,8.1,7.1,8.1c0.2,0.3,0.4,0.7,0.2,1.1
			c-0.1,0.3-0.4,0.6-0.8,0.7c0,0-17.6,4.2-17.6,4.2c-0.5,0.1-0.8,0.4-0.8,0.6c0,0.2,0.5,0.3,1,0.2c0,0,19.4-3.5,19.4-3.5
			C228.9,34.3,229.4,33.9,229.7,33.3 M237.5,51.8c0.1-0.1,0.1-0.2,0-0.3c0,0-1.5-1.4-2.4-2.3l0.5,0c0.8,0,1.3-0.3,1.3-1.1v-1.7
			c0-0.8-0.5-1.1-1.3-1.1h-5.1c-0.1,0-0.1,0.1-0.1,0.1v6.4c0,0,0,0.1,0.1,0.1l1,0c0,0,0.1,0,0.1-0.1v-5.4c0,0,0-0.1,0.1-0.1h3.7
			c0.3,0,0.4,0.1,0.4,0.3V48c0,0.2-0.1,0.3-0.4,0.3l-2.6,0.1c-0.3,0-0.5,0.2-0.5,0.4v0.1c0,0.2,0.2,0.4,0.5,0.4l1.1,0l2.4,2.6
			c0.1,0.1,0.1,0.1,0.2,0.1h1C237.4,51.9,237.4,51.9,237.5,51.8 M241.7,51.8v-6.4c0,0,0-0.1-0.1-0.1h-1c0,0-0.1,0-0.1,0.1v6.4
			c0,0,0,0.1,0.1,0.1L241.7,51.8C241.6,51.9,241.7,51.9,241.7,51.8 M251.8,51.8V51c0,0,0-0.1-0.1-0.1h-5.3c0,0-0.1,0-0.1-0.1v-1.9
			l2.6,0c0.3,0,0.5-0.2,0.5-0.4v-0.1c0-0.2-0.2-0.4-0.5-0.4l-2.6,0v-1.6c0,0,0-0.1,0.1-0.1h5.2c0,0,0.1,0,0.1-0.1v-0.9
			c0,0,0-0.1-0.1-0.1h-6.3c-0.1,0-0.1,0.1-0.1,0.1v6.3c0,0.1,0.1,0.1,0.1,0.1L251.8,51.8C251.8,51.9,251.8,51.9,251.8,51.8
			 M255.5,47.7v-1c0-0.2,0.1-0.3,0.4-0.3h3.8c0.3,0,0.4,0.1,0.4,0.3v0.2c0,0.1,0.1,0.1,0.1,0.1l0.9-0.1c0.1,0,0.1-0.1,0.1-0.1v-0.3
			c0-0.8-0.5-1.1-1.3-1.1h-4.1c-0.8,0-1.3,0.3-1.3,1.1v1.4c0,0.8,0.5,1.1,1.3,1.1h4.2c0.3,0,0.4,0.1,0.4,0.3v1.3
			c0,0.2-0.1,0.3-0.4,0.3h-4.2c-0.3,0-0.4-0.1-0.4-0.3v-0.3c0-0.1-0.1-0.1-0.1-0.1l-0.9,0.1c-0.1,0-0.1,0.1-0.1,0.1v0.4
			c0,0.8,0.5,1.1,1.3,1.1h1.4h3.1c0.8,0,1.3-0.3,1.3-1.1v-1.6c0-0.8-0.5-1.1-1.3-1.1h-4.2C255.6,48,255.5,47.9,255.5,47.7"/>
	</g>
	<g>
		<defs>
			<rect id="SVGID_5_" x="-12.3" y="-11.6" width="453.6" height="368.5"/>
		</defs>
		<clipPath id="SVGID_6_">
			<use xlink:href="#SVGID_5_"  style="overflow:visible;"/>
		</clipPath>
	</g>
	<g>
		<defs>
			<rect id="SVGID_7_" x="-12.3" y="-11.6" width="453.6" height="368.5"/>
		</defs>
		<clipPath id="SVGID_8_">
			<use xlink:href="#SVGID_7_"  style="overflow:visible;"/>
		</clipPath>
	</g>
	<g>
		<defs>
			<rect id="SVGID_9_" x="-12.3" y="-11.6" width="453.6" height="368.5"/>
		</defs>
		<clipPath id="SVGID_10_">
			<use xlink:href="#SVGID_9_"  style="overflow:visible;"/>
		</clipPath>
	</g>
	<g>
		<defs>
			<rect id="SVGID_11_" x="-12.3" y="-11.6" width="453.6" height="368.5"/>
		</defs>
		<clipPath id="SVGID_12_">
			<use xlink:href="#SVGID_11_"  style="overflow:visible;"/>
		</clipPath>
	</g>
	<rect x="2.4" y="3.1" class="st9" width="2.8" height="2.8"/>
	<g>
		<defs>
			<rect id="SVGID_13_" x="-12.3" y="-11.6" width="453.6" height="368.5"/>
		</defs>
		<clipPath id="SVGID_14_">
			<use xlink:href="#SVGID_13_"  style="overflow:visible;"/>
		</clipPath>
		<g class="st10">
			<text transform="matrix(1.0001 0 0 1 131.1304 344.3428)" class="st4 st11 st12 st13">Shower Gel Ginkgo</text>
		</g>
	</g>
	<path class="st4" d="M348.7,338.1v2h-0.6c0,0,0,0,0,0c0,0,0,0,0,0c0,0,0,0,0,0.1c0,0,0,0.1,0,0.1c0,0,0,0.1,0,0.1c0,0,0,0.1,0,0.1
		c0,0,0,0,0,0c0,0,0,0,0,0h1.7c0,0,0,0,0,0c0,0,0,0,0,0c0,0,0,0,0-0.1c0,0,0-0.1,0-0.1c0,0,0-0.1,0-0.1c0,0,0-0.1,0-0.1c0,0,0,0,0,0
		c0,0,0,0,0,0h-0.5v-2.5c0,0,0,0,0,0c0,0,0,0,0,0c0,0,0,0-0.1,0c0,0-0.1,0-0.1,0c0,0-0.1,0-0.1,0c0,0-0.1,0-0.1,0c0,0,0,0,0,0
		c0,0,0,0,0,0l-0.7,0.4c0,0,0,0,0,0c0,0,0,0,0,0c0,0,0,0,0,0.1c0,0,0,0.1,0,0.1c0,0.1,0,0.1,0,0.1c0,0,0,0.1,0,0.1c0,0,0,0,0.1,0
		c0,0,0.1,0,0.1,0L348.7,338.1z M345,337.3l-1.8,0.5c0,0-0.2,0.1,0,0.2l0.7,0.4l-1.7,2.9c0,0-1.4,2.4,1.4,2.4h4.6l0-1.2h-4.6
		c-0.7,0-0.3-0.6-0.3-0.6l1.7-3l0.7,0.4c0,0,0.2,0.1,0.1-0.1l-0.5-1.8C345.3,337.4,345.3,337.2,345,337.3 M352.8,334.8
		c0,0,0.1-0.2-0.1-0.1l-0.7,0.4l-1.7-2.9c0,0-1.4-2.4-2.7,0l-2.3,4l1,0.6l2.3-4c0.3-0.6,0.7,0,0.7,0l1.7,3l-0.7,0.4
		c0,0-0.2,0.1,0,0.2l1.8,0.5c0,0,0.2,0.1,0.3-0.2L352.8,334.8z M355.5,341.3l-2.3-4l-1,0.6l2.3,4c0.3,0.6-0.3,0.6-0.3,0.6h-3.4v-0.8
		c0,0,0-0.2-0.2-0.1l-1.3,1.3c0,0-0.2,0.2,0,0.3l1.3,1.3c0,0,0.2,0.2,0.2-0.1v-0.8h3.4C354.2,343.7,356.9,343.7,355.5,341.3"/>
	<text transform="matrix(0 -0.9999 1 0 14.4897 64.2852)" class="st14 st15 st16"> </text>
	<text transform="matrix(0 -0.9999 1 0 19.9902 66.7168)" class="st14 st15 st16"> </text>
	<text transform="matrix(0 -0.9999 1 0 25.4907 60.6602)" class="st14 st15 st16"> </text>
	<text transform="matrix(0 -0.9999 1 0 46.5776 77.668)" class="st14 st5 st17"> </text>
	<text transform="matrix(0 -0.9999 1 0 52.7783 67.0967)" class="st14 st5 st17"> </text>
	<text transform="matrix(0 -0.9999 1 0 66.7461 197.1328)" class="st14 st15 st16"> </text>
	<rect x="-12.3" y="-11.6" class="st18" width="453.6" height="368.5"/>
	<path class="st4" d="M58.6,332.4C58.6,332.4,58.6,332.4,58.6,332.4c-0.4,0.3-1.5,1.1-3.9,2.2c-2.4,1.1-3.8,1.4-4.2,1.6c0,0,0,0,0,0
		c-0.2,0-0.3,0-0.4,0c0-0.1,0.1-0.2,0.2-0.3c0,0,0,0,0,0c0.4-0.3,1.5-1.1,3.9-2.2c2.2-1,3.6-1.4,4.1-1.5c0.2-0.1,0.4-0.1,0.5,0
		C58.8,332.1,58.7,332.2,58.6,332.4 M59.8,333.1l-0.7-1.4c0,0-0.1-0.1-0.3-0.1c0,0-1.8,0.3-4.8,1.7c-3,1.4-4.4,2.6-4.4,2.6
		s-0.2,0.1-0.1,0.3l0.7,1.4c0,0,0.1,0.1,0.3,0.1c0,0,1.8-0.4,4.7-1.7c3-1.4,4.4-2.5,4.4-2.5S59.9,333.3,59.8,333.1 M54.3,341.9
		c0,0-0.1,0-0.1,0.1c0,0.2,0,0.4,0,0.5c0,0.1,0.1,0.2,0.1,0.3c0,0.1,0.1,0.1,0.2,0.2c0.1,0,0.1,0.1,0.2,0.1c0.1,0,0.2,0,0.2,0
		c0.1,0,0.1-0.1,0.2-0.1c0-0.1,0.1-0.1,0.1-0.2c0-0.1,0-0.2,0-0.3c0-0.1,0-0.2,0-0.3c0-0.1,0-0.1-0.1-0.2c0,0-0.1-0.1-0.1-0.1
		c-0.1,0-0.1,0-0.2,0c-0.1,0-0.1,0-0.2,0c0,0-0.1,0-0.1,0C54.4,341.9,54.4,341.9,54.3,341.9 M61.9,338.5c0,0.1-0.1,0.2-0.2,0.2
		c-0.5,0.1-1.9,0.6-4.5,0.6c-2.7,0-4.1-0.4-4.5-0.6c-0.2-0.1-0.2-0.2-0.2-0.2c0-0.1,0.1-0.2,0.3-0.3c0,0,0.1,0,0.1,0
		c0.5-0.1,1.8-0.5,4.2-0.5c0.1,0,0.2,0,0.2,0c0.1,0,0.2,0,0.2,0c2.4,0,3.6,0.4,4.2,0.5c0,0,0.1,0,0.1,0
		C61.8,338.3,61.9,338.4,61.9,338.5 M53.5,341.9c0-0.1,0-0.3,0-0.4c0-0.2,0-0.3,0.1-0.5c0-0.1,0.1-0.3,0.2-0.4
		c0.1-0.1,0.2-0.3,0.3-0.4c0.1-0.1,0.3-0.2,0.4-0.2c0.2-0.1,0.4-0.1,0.6-0.1c0.1,0,0.1,0,0.2,0c0.1,0,0.1,0,0.2,0c0.1,0,0.1,0,0.2,0
		c0,0,0.1,0,0.1,0c0,0,0,0,0,0c0,0,0,0,0,0c0,0,0,0,0,0.1c0,0,0,0.1,0,0.1c0,0.1,0,0.1,0,0.1c0,0,0,0.1,0,0.1c0,0,0,0,0,0
		c0,0,0,0,0,0c0,0-0.1,0-0.1,0c0,0-0.1,0-0.1,0c-0.1,0-0.1,0-0.2,0c-0.1,0-0.1,0-0.2,0c-0.2,0-0.3,0-0.4,0.1
		c-0.1,0.1-0.2,0.1-0.3,0.2c-0.1,0.1-0.1,0.2-0.1,0.3c0,0.1,0,0.3,0,0.4c0,0,0.1-0.1,0.1-0.1c0.1,0,0.1,0,0.2-0.1c0.1,0,0.1,0,0.2,0
		c0.1,0,0.1,0,0.2,0c0.2,0,0.3,0,0.5,0.1c0.1,0.1,0.2,0.1,0.3,0.2c0.1,0.1,0.1,0.2,0.2,0.3c0,0.1,0.1,0.3,0.1,0.4
		c0,0.2,0,0.4-0.1,0.5c-0.1,0.2-0.1,0.3-0.2,0.4c-0.1,0.1-0.2,0.2-0.4,0.3c-0.2,0.1-0.3,0.1-0.5,0.1c-0.2,0-0.3,0-0.4-0.1
		c-0.1,0-0.2-0.1-0.3-0.2c-0.1-0.1-0.2-0.2-0.2-0.3c-0.1-0.1-0.1-0.2-0.1-0.3c0-0.1-0.1-0.3-0.1-0.4C53.5,342.2,53.5,342,53.5,341.9
		 M57.7,340.8c0-0.1,0-0.1,0.1-0.2c0,0,0.1-0.1,0.1-0.1h0.4c0.1,0,0.1,0,0.2,0c0,0,0.1,0,0.1,0.1c0,0,0.1,0.1,0.1,0.1
		c0,0.1,0,0.1,0.1,0.2l0.5,1.6h0l0.5-1.6c0-0.1,0-0.1,0.1-0.2c0-0.1,0.1-0.1,0.1-0.1c0,0,0.1-0.1,0.1-0.1s0.1,0,0.2,0h0.4
		c0.1,0,0.1,0,0.1,0.1c0,0,0.1,0.1,0.1,0.2v2.6c0,0,0,0,0,0c0,0,0,0,0,0c0,0,0,0-0.1,0c0,0-0.1,0-0.1,0c-0.1,0-0.1,0-0.1,0
		s-0.1,0-0.1,0c0,0,0,0,0,0c0,0,0,0,0,0v-2.3h0l-0.7,2.3c0,0,0,0.1-0.1,0.1c0,0-0.1,0-0.2,0c-0.1,0-0.1,0-0.1,0c0,0-0.1,0-0.1,0
		c0,0,0,0,0,0c0,0,0,0,0,0l-0.7-2.3h0v2.3c0,0,0,0,0,0c0,0,0,0,0,0c0,0-0.1,0-0.1,0c0,0-0.1,0-0.1,0c-0.1,0-0.1,0-0.1,0
		c0,0-0.1,0-0.1,0c0,0,0,0,0,0c0,0,0,0,0,0V340.8z M62.4,338.5c0-0.2-0.1-0.4-0.2-0.5c-0.1,0-1.8-0.8-5-0.8c0,0,0,0,0,0h0
		c0,0,0,0,0,0c-3.3,0-5,0.8-5,0.8c-0.2,0.1-0.2,0.3-0.2,0.5c0,0,0,0.1,0,0.2c0,0,0,4.8,0,4.8c0,0.1,0,0.1,0.1,0.2
		c0.1,0.1,0.2,0.1,0.2,0.1s1.7,0.7,5,0.7c3.3,0,5-0.7,5-0.7s0.1,0,0.2-0.1c0,0,0.1-0.1,0.1-0.2C62.4,343.5,62.4,338.5,62.4,338.5"/>
	<text transform="matrix(1.0001 0 0 1 342.6309 348.5625)" class="st4 st19 st20">HDPE</text>
</g>
<rect y="0" class="st18" width="428" height="351.5"/>
<g>
	<g>
		<path class="st1" d="M138.1,268.4c-1.2,3.7-3.1,7.6-5.2,11.2c-2.1-3.6-3.9-7.5-5.2-11.2h-8c2.1,5.9,6.3,12.9,9.6,16.9v11.3h7
			v-11.3c3.3-4,7.5-11,9.6-16.9H138.1"/>
		<path class="st1" d="M152.6,268.4c-3.5,7-7.7,19-9.9,28.2h7.5c0.3-1.5,0.7-3,1.1-4.7h9.9c0.4,1.7,0.8,3.2,1.1,4.7h7.5
			c-2.1-9.2-6.3-21.1-9.9-28.2H152.6 M152.9,286.3c1-3.6,2.2-7.3,3.4-10.7c1.2,3.4,2.4,7.1,3.4,10.7H152.9z"/>
		<path class="st1" d="M187.1,281.6c-3.3-1.4-4.9-2.1-6.6-2.8c-1.6-0.7-2.3-1.2-2.3-2.3c0-1.4,0.5-2,1.6-2.1c2.1-0.2,6.6,0,10.8,0.9
			l0-6.2c-2.8-0.6-6.6-0.8-9.4-0.8c-1.4,0-3.3,0.1-4.7,0.3c-3.8,0.6-5.6,2.9-5.6,7.6c0,3.3,1.2,5.9,4.5,7.3c2.8,1.2,4.9,2.1,6.6,2.8
			c1.6,0.7,2.3,1.2,2.3,2.3c0,1.4-0.5,2-1.6,2.1c-1.9,0.2-6.5,0-10.8-0.9v6.2c2.8,0.6,6.6,0.8,9.4,0.8c1.4,0,3.3-0.1,4.7-0.4
			c3.8-0.6,5.6-2.8,5.6-7.6C191.6,285.1,190.4,283,187.1,281.6"/>
		<path class="st1" d="M235,268.4h-7.5c-3.2,6.4-7,16.8-9.2,25.6c-2.5-4.9-6.2-10.4-8.4-12.8c2.3-2.3,6.8-8.1,9.4-12.8h-8.2
			c-2.8,4.9-6.6,9.6-8.2,11.3v-11.3h-7v28.2h7v-14.1c2.8,3.3,6.3,9.4,8.4,14.1h13.8c0.3-1.5,0.7-3,1.1-4.7h9.9
			c0.4,1.7,0.8,3.2,1.1,4.7h7.5C242.7,287.4,238.5,275.5,235,268.4z M227.8,286.3c1-3.6,2.2-7.3,3.4-10.7c1.2,3.4,2.4,7.1,3.4,10.7
			H227.8z"/>
		<path class="st1" d="M274.7,268.4c-1.1,5.8-2.6,12.8-4.2,19.1c-1.7-6.3-3.4-13.4-4.4-19.1h-6.8c-1.1,5.7-2.7,12.7-4.4,19.1
			c-1.6-6.3-3.2-13.3-4.3-19.1H243c1.9,8.4,5.4,20.7,8,28.2h7.7c1.2-4.2,2.6-9.8,3.9-15.4c1.3,5.6,2.7,11.2,3.9,15.4h7.7
			c2.6-7.5,6.1-19.7,8-28.2H274.7"/>
		<path class="st1" d="M300,296.6h7.5c-2.1-9.2-6.3-21.1-9.9-28.2h-7.5c-3.5,7-7.7,19-9.9,28.2h7.5c0.3-1.5,0.7-3,1.1-4.7h9.9
			C299.3,293.5,299.7,295.1,300,296.6 M290.5,286.3c1-3.6,2.2-7.3,3.4-10.7c1.2,3.4,2.4,7.1,3.4,10.7H290.5z"/>
	</g>
	<g>
		<rect x="108" y="90.4" class="st4" width="211.6" height="177.1"/>
		<path class="st1" d="M123.5,251.4l-2,6.3h-3.7l6.8-21.3h3.7l6.8,21.3h-3.7l-2-6.3H123.5z M128.6,248.7l-2.1-6.6l-2.1,6.6H128.6z"
			/>
		<path class="st1" d="M161.4,244.6v13.1h-3.5v-21.3h3.5l7.6,13.2v-13.2h3.5l0,21.3l-3.5,0L161.4,244.6z"/>
		<path class="st1" d="M142.1,244.6v13.1h-3.5v-21.3h3.5l7.6,13.2v-13.2h3.5l0,21.3l-3.5,0L142.1,244.6z"/>
		<path class="st1" d="M180.8,236.4l0,21.3h-3.5v-21.3H180.8z"/>
		<path class="st1" d="M193.1,252l4.9-15.6h3.7l-6.8,21.3h-3.7l-6.8-21.3h3.7L193.1,252z"/>
		<path class="st1" d="M219.1,236.4v3.2l-10.3,0v5.9h10.1v3.1h-10.1v5.9h10.3v3.1h-13.8v-21.3L219.1,236.4z"/>
		<path class="st1" d="M230.5,248.8h-3.3l0,8.9h-3.5v-21.4H235l2.8,3.2v5.8l-3.5,3.4l3.5,9H234L230.5,248.8z M232.8,245.5l1.4-1.4
			V241l-1.7-1.7h-5.3v6.2H232.8z"/>
		<path class="st1" d="M255.3,254.6l-2.6,3.1h-7.2l-3.4-3.9v-2.4h3.4v1.2l1.9,2h3.6l1.3-1.6v-3l-1.7-1.5h-5l-3.1-2.8l-0.1-0.1
			l-0.1-0.1v-6.2l2.6-3.1h7.2l3.4,3.9v2.4H252v-1.2l-1.8-2h-3.7l-1.3,1.6v3l1.7,1.5h5.4l2.8,2.8l0.1,0.1l0.1,0.1V254.6z"/>
		<path class="st1" d="M263.6,251.4l-2,6.3h-3.7l6.8-21.3h3.7l6.8,21.3h-3.7l-2-6.3H263.6z M268.7,248.7l-2.1-6.6l-2.1,6.6H268.7z"
			/>
		<path class="st1" d="M284.9,248.8h-3.3l0,8.9h-3.5v-21.4h11.3l2.8,3.2v5.8l-3.6,3.4l3.5,9h-3.7L284.9,248.8z M287.3,245.5l1.4-1.4
			V241l-1.7-1.7h-5.3v6.2H287.3z"/>
		<path class="st1" d="M302.6,243.4l4.1-7h4l-6.3,10.5l0,10.9h-3.5l0-10.9l-6.4-10.5h4.3L302.6,243.4z"/>
		<g>
			<path class="st1" d="M277.9,190.9v5.2h-9.1l0,31.3h-6v-31.3h-9.2v-5.2H277.9z"/>
			<path class="st1" d="M291.1,211.9v15.5h-6v-36.6h6v15.6h12.6v-15.6h6.1v36.6l-6.1,0v-15.5H291.1z"/>
		</g>
		<path class="st1" d="M143.2,217.8v9.5H122v-9.5h5.8v-37.2l-2.6,3h-7.3l10-14.8h9.4v49L143.2,217.8z"/>
		<path class="st1" d="M183.6,168.8H162l-9,8.8v39.2l9.2,10.4h21.3l9.2-10.4v-39.2L183.6,168.8z M183.2,213.3l-4,4.5h-12.8l-4-4.5
			v-31.7l3.4-3.3h14l3.4,3.3V213.3z"/>
		<path class="st1" d="M232.1,164.6h-21.7l-9,8.8v39.2l9.2,10.4h21.3l9.2-10.4v-39.2L232.1,164.6z M231.6,209l-4,4.5h-12.8l-4-4.5
			v-31.7l3.4-3.3h13.9l3.4,3.3V209z"/>
		<g>
			<path class="st1" d="M242.9,102.8c4.1-3.7,10.5-3.4,14.2,0.8c1.5,1.6,2.4,3.7,2.5,5.9c0,0.5,0.2,1,0.6,1.3l6.7,7.5
				c0.8,0.9,0.8,2.4-0.2,3.2l-7.9,7.1c-0.9,0.8-2.4,0.8-3.2-0.2L249,121c-0.3-0.4-0.8-0.6-1.3-0.7c-2.2-0.4-4.1-1.5-5.6-3.2
				C238.4,112.9,238.7,106.6,242.9,102.8z"/>
			<path class="st1" d="M275.6,150.1l10.9-9.8c0.2-0.2,0.5-0.4,0.8-0.6l-12.8-14.1l-5.8-2.3c-0.1,0.1-0.1,0.2-0.2,0.2l-7.9,7.1
				c-0.1,0-0.1,0.1-0.2,0.1l1.7,6l12.8,14.1C275.1,150.5,275.4,150.3,275.6,150.1z"/>
			<path class="st1" d="M234.3,128.2l8-7.4c-0.7-0.5-1.4-1.1-2.1-1.8c-1.1-1.2-1.9-2.6-2.5-4.1l-8.5,7.8l-0.1-0.1
				c-0.6-0.7-1.6-0.7-2.3-0.1l-5.4,4.9c-0.3,0.2-0.6,0.4-1,0.4c-1.6,0.1-3.1,0.8-4.2,1.8c-3,2.7-3.2,7.3-0.5,10.3
				c2.7,3,7.3,3.2,10.3,0.5c1.2-1.1,2-2.5,2.3-4c0.1-0.3,0.2-0.7,0.5-0.9l5.4-4.9C234.8,129.9,234.9,128.9,234.3,128.2L234.3,128.2z
				"/>
			<g>
				<path class="st1" d="M297.5,157.4c-3.4,0-6.2,2.8-6.2,6.2c0,3.4,2.8,6.2,6.2,6.2c3.4,0,6.2-2.8,6.2-6.2
					C303.7,160.2,300.9,157.4,297.5,157.4z"/>
				<path class="st1" d="M308,154.2c-2.1-2.3-4.8-3.8-7.8-4.4c-0.7-0.1-1.3-0.5-1.8-1l-5.6-6.4c-1.2-1.3-3.2-1.4-4.5-0.2l-10.9,9.8
					c-1.3,1.2-1.4,3.2-0.2,4.5l5.6,6.4c0.5,0.5,0.7,1.2,0.8,1.9c0.3,3.1,1.5,5.9,3.5,8.2c5.2,5.8,14,6.2,19.8,1.1
					C312.6,168.9,313.1,160,308,154.2z M297.5,172.6c-5,0-9-4-9-9c0-5,4-9,9-9c5,0,9,4,9,9C306.5,168.6,302.5,172.6,297.5,172.6z"/>
			</g>
			<path class="st1" d="M297.5,180.3c-4.9,0-9.3-2.1-12.3-5.4v12.5h24.6v-12.5C306.7,178.2,302.3,180.3,297.5,180.3z"/>
			<path class="st1" d="M205.7,165.1l12.9-12.8h5.3l12.9,12.8l-1.2,1.2l2.6,2.5l3.7-3.7L229,152.2v-4.5h-1.6v-4.9
				c-1.7,1.3-3.8,2.1-6.1,2.1c-2.3,0-4.4-0.8-6.1-2.1v4.9h-1.6v4.5L200.5,165l3.8,3.8l2.6-2.5L205.7,165.1z"/>
		</g>
	</g>
</g>
<rect id="text_background_left" x="0.5" y="0" class="svgRibbon" width="85" height="327.4"/>
<rect id="text_background_right" x="342.6" y="0.8" class="svgRibbon" width="85" height="326.7"/>
</svg>
