<?xml version="1.0" encoding="utf-8"?>
<!-- Generator: Adobe Illustrator 19.0.0, SVG Export Plug-In . SVG Version: 6.00 Build 0)  -->
<svg version="1.1" id="Layer_1" data-color-numbers="0" xmlns="http://www.w3.org/2000/svg" xmlns:xlink="http://www.w3.org/1999/xlink" x="0px" y="0px"
	 viewBox="0 0 272.1 184.3" style="enable-background:new 0 0 272.1 184.3;" xml:space="preserve">
<style type="text/css">
	.st0{fill:#0055B8;}
	.st1{fill:#FFFFFF;}
	.st2{font-family:'Calibri';}
	.st3{font-size:6.8236px;}
	.st4{font-size:5.249px;}
	.st5{fill:none;}
	.st6{clip-path:url(#SVGID_2_);}
	.st7{fill:#FBFBFB;}
	.st8{clip-path:url(#SVGID_12_);}
	.st9{font-family:'Foglihten';}
	.st10{font-size:8.9232px;}
	.st11{fill:#231F20;}
	.st12{font-family:'Calibri-LightItalic';}
	.st13{font-size:2.8869px;}
	.st14{font-size:3.2543px;}
	.st15{font-family:'Calibri-Bold';}
	.st16{font-size:2.8133px;}
	.svgRibbon{opacity:1;fill:#FFFFFF;}
</style>
<g>
	<rect x="-0.2" y="171.9" class="st0" width="272.8" height="12.2"/>
	<path class="st1" d="M261.7,176.1c-0.1,0-0.3,0-0.3-0.1c0-0.1,0.1-0.2,0.2-0.2c0.1,0,0.3,0,0.3,0.1
		C261.9,176,261.8,176.1,261.7,176.1 M266.9,179.2c0.3-0.3,0-1.2-0.6-1.7c-0.8-0.7-2.7-1-2.7-1c0.1-0.1,0.1-0.3,0.1-0.3
		c3.5,0.2,3.3-0.5,2.9-0.7c-0.6-0.3-2.2-0.4-2.2-0.4c1.9-0.4,2.4-1.3,0.6-1.2c-2.1,0-2.7,1.2-2.7,1.2c-1.1,0-1.8,0.5-2,1.3
		c-0.1,0.7,0.6,1.1,1.4,1c-0.2,0.3-0.1,0.6-0.1,0.6c-0.9,0.3-1.1,1-0.7,1.4c0.5,0.5,1.3-0.1,1.3-0.1c0.3,0.5,1,0.7,1,0.7
		c0.2-0.1,0.5-0.2,0.7-0.2c0.1,0,0-0.1,0-0.1c-0.1-0.1-0.3-0.7,0.1-1.2c0.4-0.5,1.1-0.3,1.2-0.3c0.1,0.1,0.1,0.2-0.1,0.2
		c-0.1,0-0.6-0.2-1,0.2c-0.4,0.5,0,1.1,0.2,1.2c0.1,0.1,0,0.1,0,0.1c-1.5,0-2,0.9-1,1c1,0.1,1.6,0.1,2.2,0c0.9-0.1,0.4-0.6,0.4-0.6
		c0.5-0.1,0.5-0.4,0.5-0.4c0.4,0.6,1.2,0.6,1.4,0C268.3,179.5,267.7,178.9,266.9,179.2"/>
	<path class="st1" d="M256.8,177.8c0-2-1.6-3.6-3.6-3.6c-2,0-3.6,1.6-3.6,3.6c0,0.8,0.2,1.5,0.7,2.1c0,0,0,0,0-0.1
		c-0.4-0.6-0.6-1.3-0.6-2c0-1.9,1.6-3.5,3.5-3.5c0.9,0.1,1.6,0.4,2.1,0.9c0.5,0.5,0.8,1.3,0.8,2.1c0,1.6-1.3,2.9-2.9,2.9v0.8
		c-0.5-0.1-0.9-0.4-1.2-0.7l0,0c0,0,0,0-0.1-0.1c0,0,0,0,0,0c0,0,0,0-0.1-0.1c0,0,0,0,0,0c0,0,0,0,0-0.1c0,0,0,0,0,0c0,0,0,0,0-0.1
		c0,0,0,0,0,0c0,0,0,0,0-0.1c0,0,0,0,0,0c0,0,0,0,0-0.1c0,0,0,0,0,0c0,0,0,0,0-0.1c0,0,0,0,0,0c0,0,0,0,0-0.1c0,0,0,0,0,0
		c0,0,0,0,0,0c0,0,0,0,0,0c0,0,0,0,0,0c0,0,0,0,0,0c0,0,0,0,0,0c0,0,0,0,0,0c0,0,0,0,0,0c0,0,0,0,0,0c0,0,0,0,0,0c0,0,0,0,0,0
		c0,0,0,0,0,0c0,0,0-0.1,0-0.1c0,0,0-0.1,0-0.1c0,0,0,0,0,0c0,0,0,0,0,0c0,0,0,0,0,0c0,0,0,0,0,0c0,0,0,0,0,0c0,0,0,0,0,0
		c0,0,0,0,0,0c0,0,0,0,0,0c0,0,0,0,0,0c0,0,0,0,0,0c0,0,0,0,0,0c0,0,0,0,0,0c0,0,0,0,0-0.1c0,0,0,0,0,0c0,0,0,0,0-0.1c0,0,0,0,0,0
		c0,0,0,0,0-0.1c0,0,0,0,0,0c0,0,0,0,0-0.1c0,0,0,0,0,0c0,0,0,0,0-0.1c0,0,0,0,0,0c0,0,0,0,0-0.1c0,0,0,0,0,0c0,0,0,0,0.1-0.1
		c0,0,0,0,0,0c0,0,0,0,0.1-0.1c0,0,0,0,0,0c0.3-0.3,0.7-0.6,1.2-0.7v0.8c0.7-0.2,1.3-0.7,1.6-1.3c0,0,0,0,0,0c0,0,0,0,0,0
		c0,0,0,0,0,0c0,0,0,0,0,0c0,0,0,0,0,0c0,0,0,0,0,0c0,0,0,0,0,0c0,0,0,0,0,0c0,0,0,0,0,0c0,0,0,0,0,0c0,0,0-0.1,0-0.1
		c-0.3-0.8-1-1.5-1.9-1.8c0,0,0,0,0,0v0v0.8c-1.6,0-2.9,1.3-2.9,2.9c0,1.6,1.3,2.9,2.9,2.9c0,0,0,0,0,0
		C255.2,181.4,256.8,179.8,256.8,177.8C256.8,177.8,256.8,177.8,256.8,177.8C256.8,177.8,256.8,177.8,256.8,177.8"/>
	<path class="st1" d="M243.3,181.6C243.3,181.6,243.3,181.7,243.3,181.6l0.5,0.1c0,0,0.1,0,0.1-0.1l0.8-2.9l0.3,2.9
		c0,0,0,0.1,0.1,0.1h0.4c0,0,0.1,0,0.1-0.1l0.2-4.1c0,0,0-0.1-0.1-0.1H245h-0.3H244c0,0-0.1,0-0.1,0.1L243.3,181.6z M242.2,178.2
		l-0.2,2.6c0,0.1-0.1,0.1-0.1,0.1h-1.4c-0.1,0-0.1-0.1-0.1-0.1l-0.2-2.6c0-0.1,0.1-0.1,0.1-0.1h1.9
		C242.2,178,242.2,178.2,242.2,178.2 M242.5,177.9H240c0,0-0.2,0-0.2,0.2l0.3,3.5c0,0,0,0.2,0.2,0.2h1.9c0,0,0.2,0,0.2-0.2l0.3-3.5
		C242.6,178.1,242.6,177.9,242.5,177.9 M240.4,176.5c0.1,0.5-0.2,0.6-0.2,0.8c0.2,0.2,0.9,0.1,1.1,0.1c-0.2-0.5,0.3-0.6,0.2-0.8
		C241.2,176.7,240.9,176.6,240.4,176.5 M244.6,174.3c0-0.4-0.3-0.6-0.6-0.6c-0.4,0-0.6,0.3-0.6,0.6c0,0.4,0.3,0.6,0.6,0.6
		C244.3,174.9,244.6,174.6,244.6,174.3 M245.8,177.1l-0.8-1.8c0,0-0.1-0.1-0.2-0.1l-4.1,0c0,0,0,0,0,0v0.3c0,0,0,0,0,0l2.6,0.2
		l0.5,1.2c0,0,0.1,0.1,0.2,0.1h1.6C245.7,177.3,245.8,177.3,245.8,177.1"/>
	<text transform="matrix(1 0 0 1 4.4473 180.4834)" class="st1 st2 st3">30</text>
	<text transform="matrix(1 0 0 1 11.8457 180.4834)"><tspan x="0" y="0" class="st1 st2 st4"> </tspan><tspan x="1.1" y="0" class="st1 st2 st4">m</tspan><tspan x="5.6" y="0" class="st1 st2 st4">l</tspan></text>
	<rect x="16.5" y="-6.1" class="st5" width="238.1" height="193.4"/>
	<g>
		<defs>
			<rect id="SVGID_1_" x="16.5" y="-6.1" width="238.1" height="193.4"/>
		</defs>
		<clipPath id="SVGID_2_">
			<use xlink:href="#SVGID_1_"  style="overflow:visible;"/>
		</clipPath>
		<path class="st6" d="M138.6,24.5c0-0.1,0.1-0.2,0.2-0.2h2.4c0.1,0,0.2,0.1,0.2,0.2v2.1c0,0.1-0.1,0.2-0.2,0.2h-2.4
			c-0.1,0-0.2-0.1-0.2-0.2V24.5z M138,24.4v2.3c0,0.4,0.3,0.6,0.7,0.6h2.7c0.4,0,0.7-0.2,0.7-0.6v-2.3c0-0.4-0.3-0.6-0.7-0.6h-2.7
			C138.2,23.8,138,24,138,24.4 M133,23.8v0.4c0,0,0,0,0,0h1.5c0,0,0,0,0,0v2.9c0,0,0,0,0,0h0.6c0,0,0,0,0,0v-2.9c0,0,0,0,0,0h1.5
			c0,0,0,0,0,0v-0.4c0,0,0,0,0,0L133,23.8C133,23.8,133,23.8,133,23.8 M127.3,26.4v0.2c0,0.4,0.3,0.6,0.7,0.6h1h1.9
			c0.4,0,0.7-0.2,0.7-0.6v-1.2c0-0.4-0.3-0.6-0.7-0.6h-2.6c-0.1,0-0.2-0.1-0.2-0.2v-0.8c0-0.1,0.1-0.2,0.2-0.2h2.4
			c0.1,0,0.2,0.1,0.2,0.2v0.1c0,0,0,0.1,0.1,0.1l0.5-0.1c0,0,0.1,0,0.1-0.1v-0.1c0-0.4-0.3-0.6-0.7-0.6h-2.6c-0.4,0-0.7,0.2-0.7,0.6
			v1.1c0,0.4,0.3,0.6,0.7,0.6h2.6c0.1,0,0.2,0.1,0.2,0.2v1c0,0.1-0.1,0.2-0.2,0.2h-2.7c-0.1,0-0.2-0.1-0.2-0.2v-0.1
			c0,0,0-0.1-0.1-0.1L127.3,26.4C127.3,26.4,127.3,26.4,127.3,26.4 M116.2,27.2C116.2,27.2,116.2,27.2,116.2,27.2l-2.2-4.1
			c0,0,0,0-0.1,0h-0.8c0,0,0,0-0.1,0l-2.2,4.1c0,0,0,0,0,0h0.6c0,0,0,0,0.1,0l1.9-3.5c0,0,0,0,0,0c0,0,0,0,0,0h0l1.1,2l-1.7,0
			c-0.2,0-0.3,0.1-0.3,0.2V26c0,0.1,0.1,0.2,0.3,0.2l2,0l0.5,1c0,0,0,0,0.1,0H116.2z M120.8,27.2v-0.4c0,0,0,0,0,0h-2.6c0,0,0,0,0,0
			v-2.9c0,0,0,0,0,0h-0.6c0,0,0,0,0,0v3.3c0,0,0,0.1,0.1,0.1L120.8,27.2C120.8,27.2,120.8,27.2,120.8,27.2 M125.8,25.3v-0.9
			c0-0.4-0.3-0.6-0.7-0.6h-2.9c0,0-0.1,0-0.1,0.1v3.3c0,0,0,0,0,0l0.6,0c0,0,0,0,0,0v-2.9c0,0,0,0,0,0h2.1c0.1,0,0.2,0.1,0.2,0.2
			v0.7c0,0.1-0.1,0.2-0.2,0.2l-1.5,0c-0.2,0-0.3,0.1-0.3,0.2v0c0,0.1,0.1,0.2,0.3,0.2l1.7,0C125.5,25.9,125.8,25.7,125.8,25.3
			 M136.7,15.9c0,0-2.2-4.6-2.2-4.6c-0.2-0.3-0.4-0.6-0.8-0.6c-0.4,0-0.7,0.1-0.9,0.4c0,0-5.9,8.4-5.9,8.4c-0.1,0.2-0.2,0.4-0.1,0.5
			c0.1,0.1,0.3,0,0.4-0.2c0,0,5.8-7.3,5.8-7.3c0.2-0.2,0.4-0.4,0.7-0.4c0.3,0,0.4,0.2,0.5,0.5c0,0,1.6,3.8,1.7,3.8
			c0.1,0.3,0.5,0.5,0.7,0.4C136.8,16.6,136.9,16.3,136.7,15.9 M143.6,17.5c0.1-0.3,0-0.7-0.2-1c0,0-3.6-4.3-3.6-4.4
			c-0.1-0.1-0.2-0.3-0.1-0.4c0.1-0.2,0.2-0.3,0.4-0.3c0,0,2.8-0.5,2.8-0.5c0.1,0,0.3-0.1,0.2-0.2c0-0.1-0.1-0.2-0.3-0.2l-3.9,0.2
			c-0.4,0-0.7,0.2-0.8,0.5c-0.1,0.3,0,0.6,0.2,0.8c0,0,3.7,4.3,3.7,4.3c0.1,0.2,0.2,0.4,0.1,0.6c-0.1,0.2-0.2,0.3-0.4,0.3
			c0,0-9.2,2.2-9.3,2.2c-0.3,0.1-0.4,0.2-0.4,0.3c0,0.1,0.3,0.2,0.5,0.1c0,0,10.2-1.8,10.2-1.8C143.1,18,143.4,17.8,143.6,17.5
			 M147.6,27.2c0,0,0-0.1,0-0.2c0,0-0.8-0.7-1.3-1.2l0.3,0c0.4,0,0.7-0.2,0.7-0.6v-0.9c0-0.4-0.3-0.6-0.7-0.6H144c0,0-0.1,0-0.1,0.1
			v3.3c0,0,0,0,0,0l0.5,0c0,0,0,0,0,0v-2.9c0,0,0,0,0,0h2c0.1,0,0.2,0.1,0.2,0.2v0.7c0,0.1-0.1,0.2-0.2,0.2l-1.4,0
			c-0.2,0-0.3,0.1-0.3,0.2v0c0,0.1,0.1,0.2,0.3,0.2l0.6,0l1.3,1.4c0,0,0.1,0,0.1,0L147.6,27.2C147.6,27.2,147.6,27.2,147.6,27.2
			 M149.8,27.2v-3.4c0,0,0,0,0,0h-0.6c0,0,0,0,0,0v3.4c0,0,0,0,0,0L149.8,27.2C149.8,27.2,149.8,27.2,149.8,27.2 M155.2,27.2v-0.4
			c0,0,0,0,0,0h-2.8c0,0,0,0,0,0v-1l1.3,0c0.2,0,0.3-0.1,0.3-0.2v0c0-0.1-0.1-0.2-0.3-0.2l-1.3,0v-0.8c0,0,0,0,0,0h2.7c0,0,0,0,0,0
			v-0.4c0,0,0,0,0,0h-3.3c0,0-0.1,0-0.1,0.1v3.3c0,0,0,0.1,0.1,0.1L155.2,27.2C155.2,27.2,155.2,27.2,155.2,27.2 M157.1,25v-0.6
			c0-0.1,0.1-0.2,0.2-0.2h2c0.1,0,0.2,0.1,0.2,0.2v0.1c0,0,0,0.1,0.1,0.1l0.4-0.1c0,0,0.1,0,0.1-0.1v-0.1c0-0.4-0.3-0.6-0.7-0.6
			h-2.2c-0.4,0-0.7,0.2-0.7,0.6v0.7c0,0.4,0.3,0.6,0.7,0.6h2.2c0.1,0,0.2,0.1,0.2,0.2v0.7c0,0.1-0.1,0.2-0.2,0.2h-2.2
			c-0.1,0-0.2-0.1-0.2-0.2v-0.2c0,0,0-0.1-0.1-0.1l-0.4,0.1c0,0-0.1,0-0.1,0.1v0.2c0,0.4,0.3,0.6,0.7,0.6h0.7h1.7
			c0.4,0,0.7-0.2,0.7-0.6v-0.9c0-0.4-0.3-0.6-0.7-0.6h-2.2C157.2,25.2,157.1,25.1,157.1,25"/>
	</g>
	<g>
		<defs>
			<rect id="SVGID_3_" x="16.5" y="-6.1" width="238.1" height="193.4"/>
		</defs>
		<clipPath id="SVGID_4_">
			<use xlink:href="#SVGID_3_"  style="overflow:visible;"/>
		</clipPath>
	</g>
	<g>
		<defs>
			<rect id="SVGID_5_" x="16.5" y="-6.1" width="238.1" height="193.4"/>
		</defs>
		<clipPath id="SVGID_6_">
			<use xlink:href="#SVGID_5_"  style="overflow:visible;"/>
		</clipPath>
	</g>
	<g>
		<defs>
			<rect id="SVGID_7_" x="16.5" y="-6.1" width="238.1" height="193.4"/>
		</defs>
		<clipPath id="SVGID_8_">
			<use xlink:href="#SVGID_7_"  style="overflow:visible;"/>
		</clipPath>
	</g>
	<g>
		<defs>
			<rect id="SVGID_9_" x="16.5" y="-6.1" width="238.1" height="193.4"/>
		</defs>
		<clipPath id="SVGID_10_">
			<use xlink:href="#SVGID_9_"  style="overflow:visible;"/>
		</clipPath>
	</g>
	<rect x="24.2" y="1.6" class="st7" width="1.5" height="1.5"/>
	<g>
		<defs>
			<rect id="SVGID_11_" x="16.5" y="-6.1" width="238.1" height="193.4"/>
		</defs>
		<clipPath id="SVGID_12_">
			<use xlink:href="#SVGID_11_"  style="overflow:visible;"/>
		</clipPath>
		<g class="st8">
			<text transform="matrix(1 0 0 1 92.6519 180.7441)" class="st1 st9 st10">Shower Gel Ginkgo</text>
		</g>
	</g>
	<text transform="matrix(0 -1 1 0 30.6118 33.7422)" class="st11 st12 st13"> </text>
	<text transform="matrix(0 -1 1 0 36.3857 31.8398)" class="st11 st12 st13"> </text>
	<text transform="matrix(0 -1 1 0 47.4536 40.7671)" class="st11 st2 st14"> </text>
	<text transform="matrix(0 -1 1 0 50.708 35.2178)" class="st11 st2 st14"> </text>
	<text transform="matrix(0 -1 1 0 58.0391 103.4736)" class="st11 st12 st13"> </text>
	<rect x="16.5" y="-6.1" class="st5" width="238.1" height="193.4"/>
	<path class="st1" d="M25.8,174.5C25.8,174.5,25.8,174.5,25.8,174.5c-0.2,0.1-0.8,0.6-2.1,1.2c-1.3,0.6-2,0.8-2.2,0.8c0,0,0,0,0,0
		c-0.1,0-0.2,0-0.2,0c0,0,0-0.1,0.1-0.2c0,0,0,0,0,0c0.2-0.2,0.8-0.6,2-1.2c1.2-0.6,1.9-0.7,2.2-0.8c0.1,0,0.2,0,0.2,0
		C25.9,174.3,25.8,174.4,25.8,174.5 M26.4,174.9l-0.4-0.8c0,0,0-0.1-0.2-0.1c0,0-1,0.2-2.5,0.9c-1.6,0.7-2.3,1.3-2.3,1.3
		s-0.1,0.1-0.1,0.2l0.4,0.8c0,0,0,0.1,0.2,0.1c0,0,0.9-0.2,2.5-0.9c1.6-0.7,2.3-1.3,2.3-1.3S26.4,174.9,26.4,174.9 M23.5,179.5
		C23.5,179.5,23.5,179.5,23.5,179.5c-0.1,0.1-0.1,0.2,0,0.3c0,0.1,0,0.1,0.1,0.2c0,0,0.1,0.1,0.1,0.1c0,0,0.1,0,0.1,0
		c0,0,0.1,0,0.1,0c0,0,0.1,0,0.1-0.1c0,0,0-0.1,0.1-0.1c0,0,0-0.1,0-0.1s0-0.1,0-0.1c0,0,0-0.1,0-0.1c0,0,0,0-0.1-0.1
		c0,0-0.1,0-0.1,0c0,0-0.1,0-0.1,0C23.6,179.4,23.6,179.4,23.5,179.5C23.6,179.5,23.5,179.5,23.5,179.5 M27.5,177.7
		c0,0.1,0,0.1-0.1,0.1c-0.2,0.1-1,0.3-2.4,0.3c-1.4,0-2.1-0.2-2.4-0.3c-0.1,0-0.1-0.1-0.1-0.1c0-0.1,0.1-0.1,0.1-0.1c0,0,0,0,0.1,0
		c0.3-0.1,0.9-0.3,2.2-0.3c0,0,0.1,0,0.1,0c0,0,0.1,0,0.1,0c1.2,0,1.9,0.2,2.2,0.3c0,0,0,0,0.1,0C27.4,177.6,27.5,177.6,27.5,177.7
		 M23.1,179.4c0-0.1,0-0.2,0-0.2c0-0.1,0-0.2,0-0.2c0-0.1,0.1-0.2,0.1-0.2c0-0.1,0.1-0.1,0.1-0.2c0.1-0.1,0.1-0.1,0.2-0.1
		c0.1,0,0.2,0,0.3,0c0,0,0.1,0,0.1,0c0,0,0.1,0,0.1,0c0,0,0.1,0,0.1,0c0,0,0,0,0,0c0,0,0,0,0,0c0,0,0,0,0,0c0,0,0,0,0,0
		c0,0,0,0,0,0.1c0,0,0,0.1,0,0.1c0,0,0,0,0,0s0,0,0,0c0,0,0,0,0,0c0,0,0,0,0,0c0,0,0,0-0.1,0c0,0-0.1,0-0.1,0c0,0-0.1,0-0.1,0
		c-0.1,0-0.1,0-0.2,0c-0.1,0-0.1,0.1-0.1,0.1c0,0.1-0.1,0.1-0.1,0.2c0,0.1,0,0.1,0,0.2c0,0,0,0,0.1,0c0,0,0.1,0,0.1,0
		c0,0,0.1,0,0.1,0c0,0,0.1,0,0.1,0c0.1,0,0.2,0,0.2,0c0.1,0,0.1,0.1,0.2,0.1c0,0,0.1,0.1,0.1,0.2c0,0.1,0,0.1,0,0.2
		c0,0.1,0,0.2,0,0.3c0,0.1-0.1,0.2-0.1,0.2c-0.1,0.1-0.1,0.1-0.2,0.1c-0.1,0-0.2,0.1-0.3,0.1c-0.1,0-0.2,0-0.2,0
		c-0.1,0-0.1,0-0.2-0.1c0,0-0.1-0.1-0.1-0.1c0-0.1-0.1-0.1-0.1-0.2c0-0.1,0-0.1,0-0.2C23.1,179.6,23.1,179.5,23.1,179.4 M25.3,178.9
		C25.3,178.9,25.3,178.8,25.3,178.9c0-0.1,0.1-0.1,0.1-0.1h0.2c0,0,0.1,0,0.1,0c0,0,0,0,0.1,0c0,0,0,0,0,0.1c0,0,0,0.1,0,0.1
		l0.3,0.8h0l0.3-0.8c0,0,0-0.1,0-0.1c0,0,0-0.1,0-0.1c0,0,0,0,0.1,0c0,0,0.1,0,0.1,0h0.2c0,0,0.1,0,0.1,0c0,0,0,0.1,0,0.1v1.4
		c0,0,0,0,0,0c0,0,0,0,0,0c0,0,0,0,0,0c0,0,0,0-0.1,0c0,0-0.1,0-0.1,0c0,0,0,0,0,0c0,0,0,0,0,0c0,0,0,0,0,0v-1.2h0l-0.4,1.2
		c0,0,0,0,0,0c0,0-0.1,0-0.1,0c0,0,0,0-0.1,0c0,0,0,0,0,0c0,0,0,0,0,0c0,0,0,0,0,0l-0.4-1.2h0v1.2c0,0,0,0,0,0c0,0,0,0,0,0
		c0,0,0,0,0,0c0,0,0,0-0.1,0c0,0-0.1,0-0.1,0c0,0,0,0,0,0c0,0,0,0,0,0c0,0,0,0,0,0V178.9z M27.8,177.7c0-0.1,0-0.2-0.1-0.3
		c0,0-0.9-0.4-2.6-0.4h0h0c0,0,0,0,0,0c-1.7,0-2.6,0.4-2.6,0.4c-0.1,0-0.1,0.2-0.1,0.3c0,0,0,0,0,0.1c0,0,0,2.5,0,2.5
		c0,0,0,0.1,0,0.1c0,0,0.1,0.1,0.1,0.1s0.9,0.4,2.6,0.4c1.7,0,2.6-0.4,2.6-0.4s0.1,0,0.1-0.1c0,0,0-0.1,0-0.1
		C27.8,180.3,27.8,177.7,27.8,177.7"/>
	<g>
		<g>
			<text transform="matrix(1 0 0 1 230.7119 178.6982)" class="st1 st15 st16">04</text>
		</g>
		<path class="st1" d="M230.1,176.9l-1,0.3c0,0-0.1,0,0,0.1l0.4,0.2l-0.9,1.6c0,0-0.7,1.3,0.7,1.3h2.5l0-0.6h-2.5
			c-0.4,0-0.2-0.3-0.2-0.3l0.9-1.6l0.4,0.2c0,0,0.1,0.1,0.1-0.1l-0.3-1C230.2,177,230.2,176.9,230.1,176.9"/>
		<path class="st1" d="M234.2,175.6C234.2,175.6,234.3,175.5,234.2,175.6l-0.5,0.2l-0.9-1.6c0,0-0.7-1.3-1.5,0l-1.2,2.2l0.5,0.3
			l1.2-2.2c0.2-0.3,0.4,0,0.4,0l0.9,1.6l-0.4,0.2c0,0-0.1,0.1,0,0.1l1,0.3c0,0,0.1,0,0.2-0.1L234.2,175.6z"/>
		<path class="st1" d="M235.7,179.1l-1.2-2.1l-0.5,0.3l1.2,2.2c0.2,0.3-0.2,0.3-0.2,0.3h-1.8v-0.4c0,0,0-0.1-0.1,0l-0.7,0.7
			c0,0-0.1,0.1,0,0.2l0.7,0.7c0,0,0.1,0.1,0.1,0v-0.4h1.8C235,180.4,236.4,180.4,235.7,179.1"/>
		<text transform="matrix(1 0 0 1 230.7119 183.1064)" class="st1 st15 st16">PE</text>
	</g>
	<g>
		<g>
			<path class="st0" d="M92.7,145.8c-0.7,2.1-1.8,4.4-3,6.5c-1.2-2.1-2.3-4.3-3-6.5h-4.6c1.2,3.4,3.7,7.5,5.6,9.8v6.5h4.1v-6.5
				c1.9-2.3,4.3-6.4,5.6-9.8H92.7"/>
			<path class="st0" d="M101.1,145.8c-2,4.1-4.5,11-5.7,16.3h4.3c0.2-0.8,0.4-1.8,0.7-2.7h5.7c0.2,1,0.5,1.9,0.7,2.7h4.3
				c-1.2-5.3-3.7-12.2-5.7-16.3H101.1 M101.3,156.1c0.6-2.1,1.3-4.2,2-6.2c0.7,2,1.4,4.1,2,6.2H101.3z"/>
			<path class="st0" d="M121.1,153.4c-1.9-0.8-2.8-1.2-3.8-1.6c-0.9-0.4-1.4-0.7-1.4-1.4c0-0.8,0.3-1.1,0.9-1.2
				c1.2-0.1,3.8,0,6.2,0.5v-3.6c-1.6-0.3-3.8-0.5-5.4-0.5c-0.8,0-1.9,0.1-2.7,0.2c-2.2,0.3-3.3,1.7-3.3,4.4c0,1.9,0.7,3.4,2.6,4.2
				c1.6,0.7,2.8,1.2,3.8,1.6c0.9,0.4,1.4,0.7,1.4,1.4c0,0.8-0.3,1.1-1,1.2c-1.1,0.1-3.8,0-6.2-0.5v3.6c1.6,0.3,3.8,0.5,5.4,0.5
				c0.8,0,1.9-0.1,2.7-0.2c2.2-0.3,3.3-1.6,3.3-4.4C123.7,155.4,123,154.2,121.1,153.4"/>
			<path class="st0" d="M148.8,145.8h-4.3c-1.8,3.7-4,9.7-5.3,14.8c-1.4-2.8-3.6-6-4.8-7.4c1.4-1.4,3.9-4.7,5.4-7.4h-4.7
				c-1.6,2.8-3.8,5.6-4.8,6.5v-6.5h-4.1V162h4.1v-8.1c1.6,1.9,3.7,5.4,4.9,8.1h8c0.2-0.8,0.4-1.8,0.7-2.7h5.7c0.2,1,0.5,1.9,0.7,2.7
				h4.3C153.2,156.7,150.8,149.8,148.8,145.8z M144.6,156.1c0.6-2.1,1.3-4.2,2-6.2c0.7,2,1.4,4.1,2,6.2H144.6z"/>
			<path class="st0" d="M171.7,145.8c-0.6,3.4-1.5,7.4-2.5,11c-1-3.7-1.9-7.7-2.6-11h-3.9c-0.6,3.3-1.6,7.4-2.6,11
				c-0.9-3.6-1.8-7.7-2.5-11h-4.3c1.1,4.9,3.1,11.9,4.6,16.3h4.5c0.7-2.4,1.5-5.7,2.2-8.9c0.7,3.3,1.6,6.5,2.2,8.9h4.5
				c1.5-4.3,3.5-11.4,4.6-16.3H171.7"/>
			<path class="st0" d="M186.3,162h4.3c-1.2-5.3-3.7-12.2-5.7-16.3h-4.3c-2,4.1-4.5,11-5.7,16.3h4.3c0.2-0.8,0.4-1.8,0.7-2.7h5.7
				C185.9,160.3,186.2,161.2,186.3,162 M180.8,156.1c0.6-2.1,1.3-4.2,2-6.2c0.7,2,1.4,4.1,2,6.2H180.8z"/>
		</g>
		<g>
			<rect x="75.3" y="42.9" class="st1" width="122.3" height="102.4"/>
			<path class="st0" d="M84.3,135.9l-1.1,3.6H81l3.9-12.3h2.1l3.9,12.3h-2.2l-1.1-3.6H84.3z M87.2,134.3l-1.2-3.8l-1.2,3.8H87.2z"/>
			<path class="st0" d="M106.2,132v7.6h-2v-12.3h2l4.4,7.7v-7.7h2l0,12.3l-2,0L106.2,132z"/>
			<path class="st0" d="M95.1,132v7.6h-2v-12.3h2l4.4,7.7v-7.7h2l0,12.3l-2,0L95.1,132z"/>
			<path class="st0" d="M117.4,127.2l0,12.3h-2v-12.3H117.4z"/>
			<path class="st0" d="M124.6,136.3l2.9-9h2.2l-3.9,12.3h-2.1l-3.9-12.3h2.2L124.6,136.3z"/>
			<path class="st0" d="M139.5,127.2v1.8l-6,0v3.4h5.8v1.8h-5.8v3.4h6v1.8h-8v-12.3L139.5,127.2z"/>
			<path class="st0" d="M146.2,134.4h-1.9l0,5.1h-2v-12.3h6.5l1.6,1.8v3.4l-2.1,2l2,5.2h-2.1L146.2,134.4z M147.5,132.5l0.8-0.8
				v-1.8l-1-1h-3.1v3.6H147.5z"/>
			<path class="st0" d="M160.5,137.8l-1.5,1.8h-4.2l-2-2.3v-1.4h1.9v0.7l1.1,1.2h2.1l0.7-0.9v-1.7l-1-0.9h-2.9l-1.8-1.6l-0.1-0.1
				l-0.1-0.1V129l1.5-1.8h4.2l2,2.3v1.4h-1.9v-0.7l-1.1-1.2h-2.1l-0.7,0.9v1.7l1,0.9h3.1l1.6,1.6l0.1,0.1l0.1,0V137.8z"/>
			<path class="st0" d="M165.3,135.9l-1.1,3.6H162l3.9-12.3h2.1l3.9,12.3h-2.2l-1.1-3.6H165.3z M168.2,134.3l-1.2-3.8l-1.2,3.8
				H168.2z"/>
			<path class="st0" d="M177.6,134.4h-1.9l0,5.1h-2v-12.3h6.5l1.6,1.8v3.4l-2.1,2l2,5.2h-2.1L177.6,134.4z M179,132.5l0.8-0.8v-1.8
				l-1-1h-3.1v3.6H179z"/>
			<path class="st0" d="M187.8,131.3l2.4-4h2.3l-3.7,6l0,6.3h-2l0-6.3l-3.7-6h2.5L187.8,131.3z"/>
			<g>
				<path class="st0" d="M173.5,101v3h-5.3l0,18.1h-3.4V104h-5.3v-3H173.5z"/>
				<path class="st0" d="M181.2,113.1v9h-3.4v-21.2h3.5v9h7.3v-9h3.5v21.2l-3.5,0v-9H181.2z"/>
			</g>
			<path class="st0" d="M95.7,116.5v5.5H83.4v-5.5h3.4V95l-1.5,1.8H81l5.8-8.6h5.5v28.3L95.7,116.5z"/>
			<path class="st0" d="M119.1,88.2h-12.5l-5.2,5.1V116l5.3,6H119l5.3-6V93.3L119.1,88.2z M118.8,113.9l-2.3,2.6h-7.4l-2.3-2.6V95.6
				l2-1.9h8.1l2,1.9V113.9z"/>
			<path class="st0" d="M147.1,85.7h-12.5l-5.2,5.1v22.7l5.3,6H147l5.3-6V90.8L147.1,85.7z M146.8,111.4l-2.3,2.6h-7.4l-2.3-2.6
				V93.1l2-1.9h8.1l2,1.9V111.4z"/>
			<g>
				<path class="st0" d="M153.3,50c2.4-2.1,6.1-1.9,8.2,0.4c0.9,1,1.4,2.1,1.5,3.4c0,0.3,0.1,0.6,0.3,0.8l3.9,4.3
					c0.5,0.5,0.4,1.4-0.1,1.9l-4.6,4.1c-0.5,0.5-1.4,0.4-1.9-0.1l-3.9-4.3c-0.2-0.2-0.5-0.4-0.7-0.4c-1.3-0.2-2.4-0.9-3.2-1.8
					C150.7,55.9,150.9,52.2,153.3,50z"/>
				<path class="st0" d="M172.2,77.3l6.3-5.7c0.1-0.1,0.3-0.2,0.4-0.3l-7.4-8.1l-3.3-1.3c0,0-0.1,0.1-0.1,0.1l-4.6,4.1
					c0,0-0.1,0.1-0.1,0.1l1,3.4l7.4,8.1C172,77.6,172.1,77.5,172.2,77.3z"/>
				<path class="st0" d="M148.3,64.7l4.7-4.3c-0.4-0.3-0.8-0.7-1.2-1.1c-0.6-0.7-1.1-1.5-1.4-2.3l-4.9,4.5l-0.1-0.1
					c-0.4-0.4-1-0.4-1.3-0.1l-3.1,2.8c-0.2,0.1-0.4,0.2-0.6,0.2c-0.9,0.1-1.8,0.4-2.4,1.1c-1.7,1.6-1.8,4.2-0.3,5.9
					c1.6,1.7,4.2,1.8,5.9,0.3c0.7-0.6,1.1-1.4,1.3-2.3c0-0.2,0.1-0.4,0.3-0.5l3.1-2.8C148.7,65.7,148.7,65.1,148.3,64.7L148.3,64.7z
					"/>
				<g>
					<path class="st0" d="M184.9,81.6c-2,0-3.6,1.6-3.6,3.6c0,2,1.6,3.6,3.6,3.6c2,0,3.6-1.6,3.6-3.6
						C188.5,83.2,186.9,81.6,184.9,81.6z"/>
					<path class="st0" d="M190.9,79.8c-1.2-1.3-2.8-2.2-4.5-2.5c-0.4-0.1-0.8-0.3-1-0.6l-3.2-3.7c-0.7-0.8-1.8-0.8-2.6-0.1l-6.3,5.7
						c-0.8,0.7-0.8,1.8-0.1,2.6l3.3,3.7c0.3,0.3,0.4,0.7,0.5,1.1c0.1,1.8,0.9,3.4,2,4.7c3,3.3,8.1,3.6,11.5,0.6
						C193.7,88.2,193.9,83.1,190.9,79.8z M184.9,90.4c-2.9,0-5.2-2.3-5.2-5.2c0-2.9,2.3-5.2,5.2-5.2c2.9,0,5.2,2.3,5.2,5.2
						C190.1,88,187.8,90.4,184.9,90.4z"/>
				</g>
				<path class="st0" d="M184.9,94.8c-2.8,0-5.4-1.2-7.1-3.1v7.2H192v-7.2C190.2,93.6,187.7,94.8,184.9,94.8z"/>
				<path class="st0" d="M131.8,86l7.5-7.4h3.1l7.5,7.4l-0.7,0.7l1.5,1.5l2.2-2.2l-7.5-7.4V76h-0.9v-2.8c-1,0.8-2.2,1.2-3.6,1.2
					c-1.3,0-2.6-0.5-3.6-1.2V76h-0.9v2.6l-7.5,7.4l2.2,2.2l1.5-1.5L131.8,86z"/>
			</g>
		</g>
	</g>
</g>
<rect class="st5" width="272.1" height="184.3"/>
<rect id="text_background_left" x="0" y="-0.2" class="svgRibbon" width="79.7" height="171.8"/>
<rect id="text_background_right" x="192.3" y="0.2" class="svgRibbon" width="79.8" height="171.8"/>
</svg>
